<svg width="1000px" height="1000px" xmlns="http://www.w3.org/2000/svg" class="avatar" viewBox="-500 -500 1000 1000" preserveAspectRatio="xMidYMid meet"><defs><mask id="mask"><rect x="-500" y="-500" width="1000" height="1000" fill="white"></rect></mask><linearGradient id="purple-to-pink" x1="0" x2="0" y1="0" y2="1"><stop stop-color="#62269E" offset="0%"></stop><stop stop-color="#EE4D87" offset="100%"></stop></linearGradient></defs><g fill="#ed4d86" stroke="#ed4d86" stroke-width="0" stroke-linecap="round" stroke-linejoin="round" mask="url(#mask)"><g><g transform="translate(0, -40)"><g class="legs" stroke-width="60"><g transform="translate(-67.5)"><g transform="translate(0, 280)"><path d="M 0 0 l 0 -280"></path><g class="wheel"><circle cx="0" cy="0" r="90" stroke="none"></circle><circle cx="0" cy="0" r="30" stroke="white" stroke-width="10" fill="none"></circle></g></g></g><g transform="translate(67.5)"><g transform="translate(0, 280)"><path d="M 0 0 l 0 -280"></path><g class="wheel"><circle cx="0" cy="0" r="90" stroke="none"></circle><circle cx="0" cy="0" r="30" stroke="white" stroke-width="10" fill="none"></circle></g></g></g></g><g class="body-group"><g class="arms"><g transform="scale(-1, 1)"><g class="arm left"><g transform="rotate(0) translate(125, 0) rotate(45)"><path d="M 0 0 a 127.32395447351627 127.32395447351627 0 0 1  180.0632632314212 0" stroke-width="60" fill="none"></path></g></g></g><g transform="scale(1, 1)"><g class="arm right"><g transform="rotate(0) translate(125, 0) rotate(0)"><path d="M 0 0 l 150 0" stroke-width="60" fill="none"></path></g></g></g></g><g class="body"><path d="M -150 -200 L 150 -200 C 150 -200 150 -200 150 -200 L 150 200 C 150 200 150 200 150 200 L -150 200 C -150 200 -150 200 -150 200 L -150 -200 C -150 -200 -150 -200 -150 -200 Z"></path></g><g transform="translate(0, -210)"><path d="M 0 20 l 0 -70" stroke-width="30" fill="none"></path><g transform="translate(0, -50)"><circle cx="0" cy="0" r="30"></circle><path class="propeller" d="M -150 0 q 75 -50 150 0 t 150 0 Z" stroke-width="10"></path></g></g><g class="face"><g fill="white"><g class="eyes"><g transform="translate(-50, -30)"><path d="M30,8.6v61.8c0,8-6.5,14.6-14.6,14.6H4.6c-8,0-14.6-6.5-14.6-14.6V-4.8c0-6.6-4.2-12.1-10.1-14.2l0,0h0 l0,0C-25.9-21-30-26.5-30-33l0-37.4c0-8.1,6.5-14.6,14.6-14.6h10.8c8,0,14.6,6.5,14.6,14.6l0,50.7c0,6.5,4.2,12.1,10,14.1l0,0 C25.8-3.5,30,2.1,30,8.6z"></path></g><g transform="translate(50, -30)"><path d="M-30-8.6v-61.8c0-8,6.5-14.6,14.6-14.6h10.8c8,0,14.6,6.5,14.6,14.6V4.8c0,6.6,4.2,12.1,10.1,14.2l0,0h0l0,0 C25.9,21,30,26.5,30,33l0,37.4C30,78.5,23.5,85,15.4,85H4.6c-8,0-14.6-6.5-14.6-14.6l0-50.7c0-6.5-4.2-12.1-10-14.1l0,0 C-25.8,3.5-30-2.1-30-8.6z"></path></g></g></g><g class="mouth" transform="translate(0, 150)"><path d="M -50 -50 l 50 0 l 0 25 l 25 0 l 0 -25 l 25 0 a 50 50 0 0 1 -100 0" fill="white"></path></g></g></g></g></g></g></svg>