<svg width="1000px" height="1000px" xmlns="http://www.w3.org/2000/svg" class="avatar" viewBox="-500 -500 1000 1000" preserveAspectRatio="xMidYMid meet"><defs><mask id="mask"><rect x="-500" y="-500" width="1000" height="1000" fill="white"></rect></mask><linearGradient id="purple-to-pink" x1="0" x2="0" y1="0" y2="1"><stop stop-color="#62269E" offset="0%"></stop><stop stop-color="#EE4D87" offset="100%"></stop></linearGradient></defs><g fill="#ed4d86" stroke="#ed4d86" stroke-width="0" stroke-linecap="round" stroke-linejoin="round" mask="url(#mask)"><g><g transform="translate(0, 0)"><g class="legs" stroke-width="60"><g transform="translate(-120)"><g transform="translate(0, 200)"><path d="M 0 0 l 0 -200"></path></g></g><g transform="translate(120)"><g transform="translate(0, 200)"><path d="M 0 0 l 0 -200"></path></g></g></g><g class="body-group"><g class="arms"><g transform="scale(-1, 1)"><g class="arm left"><g transform="rotate(0) translate(125, 0) rotate(45)"><path d="M 0 0 a 127.32395447351627 127.32395447351627 0 0 1  180.0632632314212 0" stroke-width="60" fill="none"></path></g></g></g><g transform="scale(1, 1)"><g class="arm right"><g transform="rotate(0) translate(125, 0) rotate(0)"><path d="M 0 0 l 150 0" stroke-width="60" fill="none"></path></g></g></g></g><g class="body"><path d="M -150 -200 L 150 -200 C 150 -200 150 -200 150 -200 L 150 200 C 150 200 150 200 150 200 L -150 200 C -150 200 -150 200 -150 200 L -150 -200 C -150 -200 -150 -200 -150 -200 Z"></path></g><g><path d="M -75 -190 l 0 -120 m 150 0 l 0 120" stroke-width="40" fill="none"></path><path class="zap" d="M -60 -290 l 70 -40 l 0 30 l 50 -10 l -70 40 l 0 -30 Z"></path></g><g class="face"><g fill="white"><g><g transform="translate(-100, 0)"><path d="M75-12.5c0,41.4-25,75-75,75s-75-33.6-75-75s0-50,75-50S75-53.9,75-12.5z M42.5-39H13.6c-3.3,0-6,2.1-7.1,5 c-1,2.9-3.8,5-7.1,5l-32,0c-4.1,0-7.5,3.4-7.5,7.5v5c0,4.1,3.4,7.5,7.5,7.5h25.3c3.3,0,6-2.1,7.1-5c1-2.9,3.8-5,7.1-5l35.5,0 c4.1,0,7.5-3.4,7.5-7.5v-5C50-35.7,46.6-39,42.5-39 M42.5,1H0.3c-3.3,0-6,2.1-7.1,5c-1,2.9-3.8,5-7.1,5h-28.6 c-4.1,0-7.5,3.4-7.5,7.5v5c0,4.1,3.4,7.5,7.5,7.5h22c3.3,0,6-2.1,7.1-5c1-2.9,3.8-5,7.1-5h48.9c4.1,0,7.5-3.4,7.5-7.5v-5 C50,4.4,46.6,1,42.5,1"></path></g><g transform="translate(100, 0)"><path d="M75-12.5c0,41.4-25,75-75,75s-75-33.6-75-75s0-50,75-50S75-53.9,75-12.5z M42.5-39H13.6c-3.3,0-6,2.1-7.1,5 c-1,2.9-3.8,5-7.1,5l-32,0c-4.1,0-7.5,3.4-7.5,7.5v5c0,4.1,3.4,7.5,7.5,7.5h25.3c3.3,0,6-2.1,7.1-5c1-2.9,3.8-5,7.1-5l35.5,0 c4.1,0,7.5-3.4,7.5-7.5v-5C50-35.7,46.6-39,42.5-39 M42.5,1H0.3c-3.3,0-6,2.1-7.1,5c-1,2.9-3.8,5-7.1,5h-28.6 c-4.1,0-7.5,3.4-7.5,7.5v5c0,4.1,3.4,7.5,7.5,7.5h22c3.3,0,6-2.1,7.1-5c1-2.9,3.8-5,7.1-5h48.9c4.1,0,7.5-3.4,7.5-7.5v-5 C50,4.4,46.6,1,42.5,1"></path></g><path d="M -37.5 -10 a 25 25 0 1 1 75 0" stroke="white" stroke-width="25" fill="none"></path></g></g><g class="mouth" transform="translate(0, 150)"><path d="M -50 -25 a 100 100 0 0 0 100 0" stroke="white" stroke-width="30"></path></g></g></g></g></g></g></svg>