<?xml version="1.0" standalone="no"?>
<!DOCTYPE svg PUBLIC "-//W3C//DTD SVG 20010904//EN"
 "http://www.w3.org/TR/2001/REC-SVG-20010904/DTD/svg10.dtd">
<svg version="1.0" xmlns="http://www.w3.org/2000/svg"
 width="260.000000pt" height="260.000000pt" viewBox="0 0 260.000000 260.000000"
 preserveAspectRatio="xMidYMid meet">
<metadata>
Created by potrace 1.11, written by Peter Selinger 2001-2013
</metadata>
<g transform="translate(0.000000,260.000000) scale(0.100000,-0.100000)"
fill="#000000" stroke="none">
<path d="M1565 2136 c-43 -19 -79 -59 -110 -122 -18 -37 -40 -64 -68 -82 l-40
-27 -451 -5 c-503 -6 -487 -3 -543 -77 -28 -36 -28 -39 -28 -173 0 -135 0
-137 29 -174 56 -74 67 -76 458 -76 221 0 357 4 375 11 42 16 82 57 113 119
32 64 52 83 103 105 31 13 106 15 509 15 460 0 473 1 516 21 26 13 54 38 70
62 26 39 27 47 27 167 0 120 -1 128 -27 167 -16 24 -44 49 -70 62 -43 20 -57
21 -439 21 -304 -1 -401 -4 -424 -14z"/>
<path d="M1240 1139 c-39 -16 -79 -59 -110 -119 -61 -121 -57 -120 -527 -120
-374 0 -388 -1 -431 -21 -26 -13 -54 -38 -70 -62 -26 -39 -27 -47 -27 -167 0
-120 1 -128 27 -167 16 -25 44 -49 71 -62 44 -21 54 -22 364 -19 l320 3 40 27
c28 19 49 45 73 93 24 48 45 74 73 93 l41 27 661 5 661 5 41 27 c25 16 49 44
63 72 19 41 21 59 18 159 -3 103 -5 117 -30 154 -16 24 -44 49 -70 62 -44 21
-53 21 -604 20 -345 0 -569 -4 -584 -10z"/>
</g>
</svg>
