<?xml version="1.0" encoding="UTF-8"?>
<svg width="284px" height="106px" viewBox="0 0 284 106" version="1.1" xmlns="http://www.w3.org/2000/svg" xmlns:xlink="http://www.w3.org/1999/xlink">
    <!-- Generator: Sketch 53.2 (72643) - https://sketchapp.com -->
    <title>Group 28</title>
    <desc>Created with Sketch.</desc>
    <defs>
        <polygon id="path-1" points="0 0.3732 105.625 0.3732 105.625 106 0 106"></polygon>
        <polygon id="path-3" points="0 106.627 283.711 106.627 283.711 1 0 1"></polygon>
    </defs>
    <g id="Page-1" stroke="none" stroke-width="1" fill="none" fill-rule="evenodd">
        <g id="Group-28" transform="translate(0.000000, -1.000000)">
            <g id="Group-3" transform="translate(0.000000, 0.627000)">
                <mask id="mask-2" fill="white">
                    <use xlink:href="#path-1"></use>
                </mask>
                <g id="Clip-2"></g>
                <path d="M12.4,0.3732 C5.551,0.3732 0,5.9252 0,12.7712 L0,93.6002 C0,100.4472 5.551,106.0002 12.4,106.0002 L93.229,106.0002 C100.074,106.0002 105.625,100.4472 105.625,93.6002 L105.625,12.7712 C105.625,5.9252 100.074,0.3732 93.229,0.3732 L12.4,0.3732 Z" id="Fill-1" fill="#333333" mask="url(#mask-2)"></path>
            </g>
            <path d="M83.3599,82.4689 L85.0289,72.4889 L89.1419,69.4689 C89.3019,69.6149 89.4809,69.7369 89.6739,69.8399 L83.3599,82.4689 Z M26.6949,85.9879 L44.1939,78.3759 L50.9159,93.9609 C50.4909,94.2869 50.1709,94.7299 49.9909,95.2459 L26.8549,87.2299 C26.8669,87.1289 26.8869,87.0319 26.8869,86.9289 C26.8869,86.5939 26.8179,86.2759 26.6949,85.9879 L26.6949,85.9879 Z M18.8859,71.0449 C18.8859,70.4809 18.6889,69.9709 18.3679,69.5599 L20.9609,68.7909 L23.6929,84.6179 C23.5859,84.6549 23.4849,84.6929 23.3889,84.7419 L17.5879,73.1859 C18.3539,72.7779 18.8859,71.9769 18.8859,71.0449 L18.8859,71.0449 Z M17.2329,19.6879 C17.5739,19.7719 17.9269,19.8349 18.2939,19.8349 C18.5109,19.8349 18.7209,19.8009 18.9309,19.7689 L25.3059,34.5599 L20.4169,40.5369 C19.8019,39.8119 18.8949,39.3419 17.8679,39.3419 C17.6989,39.3419 17.5349,39.3679 17.3719,39.3919 L17.2329,19.6879 Z M26.0279,33.6809 L19.9209,19.5099 C21.3749,18.9199 22.4149,17.5549 22.5779,15.9269 L36.5829,20.7779 L26.0279,33.6809 Z M41.5289,59.2709 C40.7119,59.2709 39.9989,59.6739 39.5529,60.2849 L36.3569,57.6419 L26.4779,34.7229 L42.8919,14.6609 L42.9339,14.6729 L41.8509,59.3029 C41.7419,59.2879 41.6379,59.2709 41.5289,59.2709 L41.5289,59.2709 Z M39.1839,62.3409 L38.4739,62.5509 L37.2339,59.6769 L39.1349,61.2479 C39.1079,61.3979 39.0889,61.5509 39.0889,61.7079 C39.0889,61.9279 39.1279,62.1369 39.1839,62.3409 L39.1839,62.3409 Z M18.0619,46.0429 C18.7609,46.0029 19.3949,45.7539 19.9169,45.3509 L35.5249,58.2619 L37.4979,62.8409 L21.7639,67.5009 L18.0619,46.0429 Z M20.9789,41.4449 L25.7579,35.6039 L34.6479,56.2279 L20.6179,44.6229 C21.0019,44.0779 21.2269,43.4179 21.2269,42.7029 C21.2269,42.2579 21.1359,41.8339 20.9789,41.4449 L20.9789,41.4449 Z M17.5419,68.7489 L17.7029,49.9009 L20.7879,67.7889 L17.5419,68.7489 Z M26.0989,85.1449 C25.7229,84.7959 25.2369,84.5729 24.6989,84.5139 L21.9369,68.5009 L37.9019,63.7729 L43.7969,77.4489 L26.0989,85.1449 Z M50.8399,73.4189 C50.8399,73.4409 50.8339,73.4589 50.8339,73.4829 C50.8339,73.7799 50.8839,74.0639 50.9569,74.3349 L44.7229,77.0459 L38.8779,63.4839 L39.6539,63.2519 C40.1029,63.7969 40.7709,64.1479 41.5289,64.1479 C41.7239,64.1479 41.9179,64.1169 42.1039,64.0729 L50.8399,73.4189 Z M57.5109,73.9049 L64.7379,66.9489 L64.8239,66.9529 L64.8279,66.8569 L66.7059,65.0549 L53.8679,93.7179 C53.4829,93.5129 53.0519,93.3849 52.5859,93.3849 C52.3179,93.3849 52.0639,93.4359 51.8189,93.5059 L45.1199,77.9729 L51.3519,75.2629 C51.9489,76.2109 52.9929,76.8419 54.1929,76.8419 C55.9019,76.8419 57.2999,75.5599 57.5109,73.9049 L57.5109,73.9049 Z M65.2939,57.7539 C66.7559,57.6999 67.9269,56.5039 67.9269,55.0289 C67.9269,53.7579 67.0559,52.6969 65.8809,52.3909 L66.4539,44.0379 C66.5339,44.0259 66.6129,44.0179 66.6899,43.9969 L72.7619,50.2479 L72.9659,51.0759 L67.8109,62.5889 L64.9049,65.3859 L65.2939,57.7539 Z M65.2779,19.7219 L72.2839,48.3099 L67.6329,43.5229 C68.1679,43.0859 68.5119,42.4349 68.5119,41.6929 C68.5119,40.3799 67.4489,39.3179 66.1349,39.3179 C66.0099,39.3179 65.8869,39.3349 65.7679,39.3539 L65.2779,19.7219 Z M81.5949,31.8069 L67.4309,15.2039 L85.1639,23.8409 L81.5949,31.8069 Z M90.8319,16.3969 L89.4869,39.3719 C89.0699,39.4129 88.6829,39.5209 88.3259,39.6949 L82.3189,32.6579 L89.6929,16.1979 C89.9749,16.3349 90.2879,16.4189 90.6219,16.4189 C90.6929,16.4189 90.7609,16.4049 90.8319,16.3969 L90.8319,16.3969 Z M90.0269,65.3739 C89.7469,65.4659 89.4909,65.6069 89.2689,65.7869 L86.6039,63.0469 L89.4489,46.0279 C89.5659,46.0399 89.6789,46.0639 89.7939,46.0639 C90.0349,46.0639 90.2649,46.0379 90.4889,45.9909 L90.0269,65.3739 Z M86.3979,64.2829 L88.6259,66.5749 C88.4549,66.9069 88.3499,67.2809 88.3499,67.6799 C88.3499,68.0249 88.4239,68.3509 88.5509,68.6499 L85.2669,71.0619 L86.3979,64.2829 Z M79.8759,75.0189 L75.3829,56.6999 L77.2689,54.8849 L85.5229,63.3859 L84.0979,71.9179 L79.8759,75.0189 Z M81.6579,82.1149 C81.6419,82.1149 81.6319,82.1179 81.6179,82.1179 L80.1379,76.0799 L83.8599,73.3449 L82.3839,82.1969 C82.1459,82.1469 81.9079,82.1149 81.6579,82.1149 L81.6579,82.1149 Z M79.2559,76.7289 L80.6199,82.2939 C79.2729,82.7339 78.2969,83.9839 78.2969,85.4749 C78.2969,86.1289 78.4879,86.7309 78.8129,87.2459 L55.2899,95.6529 C55.2229,95.2779 55.0819,94.9279 54.8809,94.6229 L79.2559,76.7289 Z M74.5429,57.5099 L78.9969,75.6669 L55.2509,93.0969 L68.6499,63.1819 L74.5429,57.5099 Z M74.2649,56.3749 L69.7539,60.7179 L73.3569,52.6739 L74.2649,56.3749 Z M76.5649,54.1609 L75.1049,55.5649 L74.1499,51.6789 L76.5649,54.1609 Z M86.4349,42.7029 C86.4349,43.2709 86.5899,43.7999 86.8379,44.2669 L77.2929,53.4589 L74.3549,50.4389 L81.8609,33.6779 L87.4869,40.2709 C86.8439,40.8839 86.4349,41.7429 86.4349,42.7029 L86.4349,42.7029 Z M87.4389,45.0939 C87.7329,45.3839 88.0799,45.6209 88.4649,45.7869 L85.7329,62.1469 L77.9969,54.1859 L87.4389,45.0939 Z M65.9469,15.0219 L81.1379,32.8289 L73.6369,49.5779 L65.2499,15.3779 C65.5059,15.3009 65.7399,15.1819 65.9469,15.0219 L65.9469,15.0219 Z M91.0399,65.2669 L91.5069,45.5799 C92.4929,44.9939 93.1569,43.9309 93.1569,42.7029 C93.1569,41.2089 92.1769,39.9569 90.8279,39.5209 L91.8899,15.9879 C92.4039,15.6009 92.7429,14.9919 92.7429,14.2959 C92.7429,13.1239 91.7919,12.1749 90.6219,12.1749 C89.4489,12.1749 88.4969,13.1239 88.4969,14.2959 C88.4969,14.7539 88.6469,15.1729 88.8899,15.5199 L85.5779,22.9209 L66.7679,13.7559 C66.8019,13.5959 66.8269,13.4329 66.8269,13.2609 C66.8269,12.0359 65.8309,11.0399 64.6029,11.0399 C63.3729,11.0399 62.3769,12.0359 62.3769,13.2609 C62.3769,14.3409 63.1429,15.2379 64.1589,15.4419 L64.7679,39.7529 C64.1609,40.1849 63.7599,40.8899 63.7599,41.6929 C63.7599,42.7629 64.4719,43.6609 65.4469,43.9549 L64.8729,52.3259 C63.5139,52.4859 62.4549,53.6289 62.4549,55.0289 C62.4549,56.2209 63.2259,57.2259 64.2919,57.5989 L63.8419,66.4069 L57.4189,72.5919 C57.0269,71.1729 55.7369,70.1239 54.1929,70.1239 C52.7919,70.1239 51.5919,70.9829 51.0879,72.2039 L43.0469,63.6049 C43.6039,63.1579 43.9679,62.4779 43.9679,61.7079 C43.9679,60.8509 43.5209,60.0989 42.8509,59.6659 L43.9459,14.6969 C44.6109,14.4959 45.1059,13.8799 45.1059,13.1469 C45.1059,12.2479 44.3779,11.5199 43.4789,11.5199 C42.5769,11.5199 41.8509,12.2479 41.8509,13.1469 C41.8509,13.4689 41.9479,13.7679 42.1099,14.0219 L37.2639,19.9459 L22.5519,14.8479 C22.2319,12.7739 20.4569,11.1809 18.2939,11.1809 C15.9019,11.1809 13.9649,13.1159 13.9649,15.5079 C13.9649,17.1409 14.8819,18.5459 16.2189,19.2819 L16.3659,39.7129 C15.2669,40.2659 14.5049,41.3899 14.5049,42.7029 C14.5049,44.1559 15.4349,45.3829 16.7269,45.8519 L16.5329,68.6139 C16.5029,68.6119 16.4749,68.6059 16.4469,68.6059 C15.0999,68.6059 14.0069,69.6969 14.0069,71.0449 C14.0069,72.3929 15.0999,73.4829 16.4469,73.4829 C16.4989,73.4829 16.5459,73.4709 16.5979,73.4669 L22.5779,85.3789 C22.2269,85.8009 22.0059,86.3369 22.0059,86.9289 C22.0059,88.2759 23.0999,89.3689 24.4469,89.3689 C25.3319,89.3689 26.0989,88.8909 26.5259,88.1849 L49.8439,96.2609 C49.9079,97.7259 51.1059,98.8929 52.5859,98.8929 C53.9019,98.8929 54.9989,97.9679 55.2719,96.7319 L79.5349,88.0599 C80.1159,88.5379 80.8469,88.8339 81.6579,88.8339 C83.5109,88.8339 85.0169,87.3309 85.0169,85.4749 C85.0169,84.5959 84.6709,83.8039 84.1219,83.2069 L90.6689,70.1079 C90.7109,70.1099 90.7489,70.1189 90.7879,70.1189 C92.1359,70.1189 93.2289,69.0269 93.2289,67.6799 C93.2289,66.4179 92.2679,65.3939 91.0399,65.2669 L91.0399,65.2669 Z" id="Fill-4" fill="#FFFFFF"></path>
            <path d="M126.4971,28.3639 C133.9491,28.3639 138.2261,23.0719 138.2261,16.4669 C138.2261,9.8639 133.9921,4.5289 126.4971,4.5289 L119.8941,4.5289 L119.8941,28.3639 L126.4971,28.3639 Z M117.4801,2.3259 L126.4971,2.3259 C135.2601,2.3259 140.7661,8.7199 140.7661,16.4669 C140.7661,24.2989 135.2601,30.5659 126.4971,30.5659 L117.4801,30.5659 L117.4801,2.3259 Z" id="Fill-6" fill="#333333"></path>
            <mask id="mask-4" fill="white">
                <use xlink:href="#path-3"></use>
            </mask>
            <g id="Clip-9"></g>
            <polygon id="Fill-8" fill="#333333" mask="url(#mask-4)" points="146.772 30.566 149.185 30.566 149.185 2.327 146.772 2.327"></polygon>
            <path d="M169.4615,1.8595 C174.1205,1.8595 177.5075,3.7235 180.0885,6.6865 L178.2705,7.9995 C176.2755,5.6295 173.0625,4.0615 169.4615,4.0615 C162.8135,4.0615 157.6945,9.0995 157.6945,16.4675 C157.6945,23.7485 162.8135,28.9135 169.4615,28.9135 C173.2295,28.9135 176.1935,27.0505 177.7605,25.4845 L177.7605,18.7105 L167.0925,18.7105 L167.0925,16.5525 L180.1715,16.5525 L180.1715,26.4155 C177.6775,29.2115 173.9065,31.1155 169.4615,31.1155 C161.5475,31.1155 155.1515,25.1875 155.1515,16.4675 C155.1515,7.7455 161.5475,1.8595 169.4615,1.8595" id="Fill-10" fill="#333333" mask="url(#mask-4)"></path>
            <polygon id="Fill-11" fill="#333333" mask="url(#mask-4)" points="186.309 30.566 188.722 30.566 188.722 2.327 186.309 2.327"></polygon>
            <polyline id="Fill-12" fill="#333333" mask="url(#mask-4)" points="202.9449 4.5275 193.7129 4.5275 193.7129 2.3265 214.6309 2.3265 214.6309 4.5275 205.4009 4.5275 205.4009 30.5655 202.9449 30.5655"></polyline>
            <path d="M220.1295,21.4206 L233.6365,21.4206 L226.8615,4.6966 L220.1295,21.4206 Z M234.3985,23.6216 L219.3675,23.6216 L216.5305,30.5666 L213.8225,30.5666 L225.3795,2.3266 L228.3855,2.3266 L239.9425,30.5666 L237.2335,30.5666 L234.3985,23.6216 Z" id="Fill-13" fill="#333333" mask="url(#mask-4)"></path>
            <polyline id="Fill-14" fill="#333333" mask="url(#mask-4)" points="244.0884 2.3263 246.5024 2.3263 246.5024 28.3643 260.1754 28.3643 260.1754 30.5653 244.0884 30.5653"></polyline>
            <path d="M140.9332,55.0539 C140.9332,57.7639 140.5952,61.1089 137.8002,63.9889 C135.0902,66.7829 131.9592,67.2059 128.9952,67.2059 C126.0312,67.2059 122.8982,66.7829 120.1882,63.9889 C117.3932,61.1089 117.0552,57.7639 117.0552,55.0539 L117.0552,38.3299 L123.5762,38.3299 L123.5762,54.8849 C123.5762,56.1129 123.6602,58.1869 125.0562,59.6269 C126.2012,60.8529 127.7652,61.1089 128.9952,61.1089 C130.2232,61.1089 131.7902,60.8529 132.9312,59.6269 C134.3302,58.1869 134.4152,56.1129 134.4152,54.8849 L134.4152,38.3299 L140.9332,38.3299" id="Fill-15" fill="#333333" mask="url(#mask-4)"></path>
            <polyline id="Fill-16" fill="#333333" mask="url(#mask-4)" points="157.0172 43.8351 157.0172 66.5701 150.4962 66.5701 150.4962 43.8351 144.3572 43.8351 144.3572 38.3301 163.1542 38.3301 163.1542 43.8351"></polyline>
            <polygon id="Fill-17" fill="#333333" mask="url(#mask-4)" points="166.709 66.57 173.227 66.57 173.227 38.33 166.709 38.33"></polygon>
            <polyline id="Fill-18" fill="#333333" mask="url(#mask-4)" points="186.0547 38.3312 186.0547 61.0662 194.8177 61.0662 194.8177 66.5702 179.5337 66.5702 179.5337 38.3312"></polyline>
            <polygon id="Fill-19" fill="#333333" mask="url(#mask-4)" points="198.624 66.57 205.143 66.57 205.143 38.33 198.624 38.33"></polygon>
            <polyline id="Fill-20" fill="#333333" mask="url(#mask-4)" points="221.3575 43.8351 221.3575 66.5701 214.8365 66.5701 214.8365 43.8351 208.6975 43.8351 208.6975 38.3301 227.4945 38.3301 227.4945 43.8351"></polyline>
            <polygon id="Fill-21" fill="#333333" mask="url(#mask-4)" points="231.049 66.57 237.567 66.57 237.567 38.33 231.049 38.33"></polygon>
            <polyline id="Fill-22" fill="#333333" mask="url(#mask-4)" points="259.835 43.8351 250.395 43.8351 250.395 49.2971 259.37 49.2971 259.37 54.8021 250.395 54.8021 250.395 61.0661 259.835 61.0661 259.835 66.5701 243.875 66.5701 243.875 38.3301 259.835 38.3301"></polyline>
            <path d="M279.689,45.2321 C277.57,43.3261 275.751,43.1991 274.947,43.1991 C274.058,43.1991 272.957,43.3261 272.195,44.1731 C271.772,44.5961 271.475,45.2321 271.475,45.9521 C271.475,46.6291 271.687,47.1371 272.11,47.5181 C272.788,48.1531 273.761,48.4081 275.667,49.1271 L277.782,49.9311 C279.012,50.3951 280.536,51.0301 281.635,52.0891 C283.286,53.6581 283.711,55.6881 283.711,57.3411 C283.711,60.2621 282.695,62.8031 281.213,64.3261 C278.715,66.9511 275.074,67.2041 273.211,67.2041 C271.176,67.2041 269.4,66.9101 267.622,66.0211 C266.182,65.2991 264.531,63.9871 263.473,62.9281 L266.86,58.2711 C267.58,58.9931 268.723,59.9661 269.485,60.4321 C270.586,61.1101 271.729,61.4461 273.042,61.4461 C273.888,61.4461 275.074,61.2771 276.005,60.4741 C276.556,60.0061 277.022,59.2461 277.022,58.1881 C277.022,57.2561 276.641,56.6641 276.048,56.1541 C275.286,55.5191 273.55,54.8831 272.745,54.5891 L270.417,53.7831 C269.104,53.3191 267.58,52.7241 266.479,51.5411 C264.997,49.9741 264.787,47.9841 264.787,46.6291 C264.787,44.1311 265.549,42.0141 267.241,40.2781 C269.233,38.2451 271.602,37.6951 274.227,37.6951 C276.175,37.6951 279.306,38.0331 282.609,40.4891" id="Fill-23" fill="#333333" mask="url(#mask-4)"></path>
            <path d="M123.1734,93.2399 C123.6854,92.6429 127.0084,88.8509 128.0304,87.3169 C128.7984,86.1669 129.6934,84.4209 129.6934,82.7589 C129.6934,80.2009 127.8614,78.4549 125.4754,78.4549 C122.5764,78.4549 121.0434,80.7549 120.9584,83.1839 L115.2484,83.1839 C115.5044,77.3899 119.5934,73.6819 125.2194,73.6819 C131.8234,73.6819 135.2314,78.1989 135.2314,82.7159 C135.2314,87.1049 132.2924,90.2569 130.0764,92.6429 L125.1754,97.9689 L135.4464,97.9689 L135.4464,102.7419 L114.8224,102.7419 L123.1734,93.2399 Z" id="Fill-24" fill="#333333" mask="url(#mask-4)"></path>
            <path d="M144.9014,88.5104 C144.9014,95.9254 147.9254,98.6094 150.3554,98.6094 C152.7834,98.6094 155.8094,95.9254 155.8094,88.5104 C155.8094,81.1384 152.7414,78.4544 150.3554,78.4544 C147.9684,78.4544 144.9014,81.1384 144.9014,88.5104 M139.3624,88.5104 C139.3624,78.7524 144.6884,73.6814 150.3554,73.6814 C156.0224,73.6814 161.3484,78.7524 161.3484,88.5534 C161.3484,98.3104 156.0224,103.3824 150.3554,103.3824 C144.6884,103.3824 139.3624,98.3104 139.3624,88.5104" id="Fill-25" fill="#333333" mask="url(#mask-4)"></path>
            <polygon id="Fill-26" fill="#333333" mask="url(#mask-4)" points="169.2715 79.0929 165.1815 79.0929 165.1815 74.3219 174.8105 74.3219 174.8105 102.7419 169.2715 102.7419"></polygon>
            <path d="M188.274,79.5632 C187.593,80.2442 186.74,81.4382 186.74,83.3122 C186.74,85.0172 187.337,86.2952 188.316,87.2322 C189.382,88.2542 190.574,88.5952 191.982,88.5952 C193.516,88.5952 194.666,88.1262 195.687,87.0612 C196.711,85.9962 197.221,84.8032 197.221,83.3552 C197.221,81.5652 196.497,80.3292 195.646,79.5202 C194.921,78.8392 193.685,78.1142 191.982,78.1142 C190.192,78.1142 188.999,78.8392 188.274,79.5632 L188.274,79.5632 Z M186.356,101.3362 L193.131,92.4742 C192.235,92.7712 191.129,93.0272 190.105,93.0272 C188.103,93.0272 185.547,92.2182 183.885,90.5972 C182.393,89.1912 181.199,86.7642 181.199,83.7812 C181.199,81.3942 181.883,79.0082 183.8,76.9212 C186.228,74.2782 188.999,73.6822 191.895,73.6822 C194.921,73.6822 197.649,74.2352 199.991,76.5802 C201.525,78.1142 202.762,80.2862 202.762,83.4812 C202.762,86.9332 201.185,89.7032 199.182,92.3462 L190.83,103.5102 L186.356,101.3362 Z" id="Fill-27" fill="#333333" mask="url(#mask-4)"></path>
        </g>
    </g>
</svg>