<?xml version="1.0" encoding="utf-8"?>
<!-- Generator: Adobe Illustrator 22.1.0, SVG Export Plug-In . SVG Version: 6.00 Build 0)  -->
<svg version="1.1" id="Layer_1" xmlns="http://www.w3.org/2000/svg" xmlns:xlink="http://www.w3.org/1999/xlink" x="0px" y="0px"
	 viewBox="0 0 854.2 507.6" style="enable-background:new 0 0 854.2 507.6;" xml:space="preserve">
<style type="text/css">
	.st0{clip-path:url(#SVGID_2_);}
	.st1{fill:#FDEEF5;}
	.st2{opacity:0.25;}
	.st3{clip-path:url(#SVGID_4_);}
	.st4{clip-path:url(#SVGID_6_);fill:url(#SVGID_7_);}
	.st5{fill:#583494;}
	.st6{fill:#CFA38C;}
	.st7{clip-path:url(#SVGID_9_);}
	.st8{clip-path:url(#SVGID_11_);fill:url(#SVGID_12_);}
	.st9{fill:#D09F76;}
	.st10{fill:#FFFFFF;}
	.st11{clip-path:url(#SVGID_14_);fill:#D4D3D2;}
	.st12{clip-path:url(#SVGID_16_);fill:#D4D3D2;}
	.st13{fill:#AD9DCB;}
	.st14{fill:#8F582B;}
	.st15{fill:#F7B7D3;}
	.st16{clip-path:url(#SVGID_18_);fill:#F7B7D3;}
	.st17{fill:#E7E0EF;}
	.st18{clip-path:url(#SVGID_20_);}
	.st19{clip-path:url(#SVGID_22_);fill:url(#SVGID_23_);}
	.st20{fill:#EE498F;}
	.st21{fill:#EFC7B1;}
	.st22{clip-path:url(#SVGID_25_);}
	.st23{clip-path:url(#SVGID_27_);fill:url(#SVGID_28_);}
	.st24{clip-path:url(#SVGID_30_);}
	.st25{clip-path:url(#SVGID_32_);fill:url(#SVGID_33_);}
	.st26{fill:#DFB28B;}
	.st27{opacity:0.15;}
	.st28{clip-path:url(#SVGID_35_);}
	.st29{clip-path:url(#SVGID_37_);fill:url(#SVGID_38_);}
	.st30{fill:#F8BBD4;}
	.st31{clip-path:url(#SVGID_40_);}
	.st32{clip-path:url(#SVGID_42_);fill:url(#SVGID_43_);}
	.st33{fill:#9E89C0;}
	.st34{fill:#F1DBCB;}
	.st35{clip-path:url(#SVGID_45_);}
	.st36{clip-path:url(#SVGID_47_);fill:url(#SVGID_48_);}
	.st37{clip-path:url(#SVGID_50_);}
	.st38{clip-path:url(#SVGID_52_);fill:url(#SVGID_53_);}
	.st39{opacity:0.6;}
	.st40{clip-path:url(#SVGID_57_);fill:#9E89C0;}
	.st41{fill:#EACBC6;}
	.st42{clip-path:url(#SVGID_59_);fill:#9E89C0;}
	.st43{clip-path:url(#SVGID_61_);fill:#9E89C0;}
	.st44{fill:#B6A6D1;}
	.st45{clip-path:url(#SVGID_63_);}
	.st46{clip-path:url(#SVGID_65_);fill:url(#SVGID_66_);}
	.st47{clip-path:url(#SVGID_68_);}
	.st48{clip-path:url(#SVGID_70_);fill:url(#SVGID_71_);}
	.st49{fill:#EF5598;}
	.st50{fill:#F7B5D1;}
	.st51{clip-path:url(#SVGID_73_);}
	.st52{clip-path:url(#SVGID_75_);fill:url(#SVGID_76_);}
	.st53{clip-path:url(#SVGID_78_);fill:#D4D3D2;}
	.st54{clip-path:url(#SVGID_80_);fill:#D4D3D2;}
	.st55{clip-path:url(#SVGID_82_);fill:#583494;}
	.st56{clip-path:url(#SVGID_84_);fill:#583494;}
	.st57{clip-path:url(#SVGID_86_);fill:#7B7979;}
	.st58{fill:#A56D35;}
	.st59{clip-path:url(#SVGID_88_);}
	.st60{clip-path:url(#SVGID_90_);fill:url(#SVGID_91_);}
	.st61{fill:#8F77B6;}
	.st62{clip-path:url(#SVGID_93_);}
	.st63{clip-path:url(#SVGID_95_);fill:url(#SVGID_96_);}
	.st64{clip-path:url(#SVGID_98_);fill:#7B7979;}
	.st65{clip-path:url(#SVGID_100_);fill:#7B7979;}
	.st66{fill:#F288B6;}
	.st67{clip-path:url(#SVGID_102_);fill:#7B7979;}
	.st68{clip-path:url(#SVGID_104_);fill:#F7B7D3;}
	.st69{clip-path:url(#SVGID_106_);fill:#F7B7D3;}
	.st70{clip-path:url(#SVGID_108_);fill:#9E89C0;}
</style>
<g>
	<defs>
		<rect id="SVGID_1_" x="-8.9" y="-20.1" width="869" height="527"/>
	</defs>
	<clipPath id="SVGID_2_">
		<use xlink:href="#SVGID_1_"  style="overflow:visible;"/>
	</clipPath>
	<g class="st0">
		<path class="st1" d="M322.4,251.2c0,0-4.2-83.1-17.8-101.5l0-0.4c-3.6-4.7-43.3-35.3-43.3-35.3c-13.3-3.9-37.9-6-46.4-2.6
			c0,0-43.2,35.2-49.5,41c-17,13.4-23.4,86.6-23.4,86.6l23.1,6.3l5.5,129.7h137.1l1-124.9L322.4,251.2z"/>
		<g class="st2">
			<g>
				<defs>
					<rect id="SVGID_3_" x="141.9" y="109.7" width="180.4" height="265.2"/>
				</defs>
				<clipPath id="SVGID_4_">
					<use xlink:href="#SVGID_3_"  style="overflow:visible;"/>
				</clipPath>
				<g class="st3">
					<defs>
						<path id="SVGID_5_" d="M322.4,251.2c0,0-4.2-83.1-17.8-101.5l0-0.4c-3.6-4.7-43.3-35.3-43.3-35.3c-13.3-3.9-37.9-6-46.4-2.6
							c0,0-43.2,35.2-49.5,41c-17,13.5-23.4,86.6-23.4,86.6l23.1,6.3l5.5,129.7h137.1l1-124.9L322.4,251.2z"/>
					</defs>
					<clipPath id="SVGID_6_">
						<use xlink:href="#SVGID_5_"  style="overflow:visible;"/>
					</clipPath>
					
						<linearGradient id="SVGID_7_" gradientUnits="userSpaceOnUse" x1="-535.254" y1="1930.6566" x2="-534.254" y2="1930.6566" gradientTransform="matrix(0 257.053 257.053 0 -496048.9375 137714.1875)">
						<stop  offset="0" style="stop-color:#FFFFFF"/>
						<stop  offset="1" style="stop-color:#231F20"/>
					</linearGradient>
					<rect x="141.9" y="108" class="st4" width="180.4" height="266.9"/>
				</g>
			</g>
		</g>
		<path class="st5" d="M214,568.8l28.8-171.9l5.7,84.1l0.7,96.4l55.2-7.7c0.5-17.9,0.8-91.3,0.8-91.3s2.9-90.3,2.4-103.5H170.5
			c-1.4,23.9,9.7,170.4,7.2,206.9L214,568.8z"/>
		<path class="st6" d="M218.5,89.9v27.7c0,0,22.4,23.7,43,0.6l-1.8-28.3H218.5z"/>
		<g class="st2">
			<g>
				<defs>
					<rect id="SVGID_8_" x="218.5" y="89.9" width="43" height="38.4"/>
				</defs>
				<clipPath id="SVGID_9_">
					<use xlink:href="#SVGID_8_"  style="overflow:visible;"/>
				</clipPath>
				<g class="st7">
					<defs>
						<path id="SVGID_10_" d="M218.5,89.9v27.7c0,0,22.4,23.7,43,0.6l-1.8-28.3H218.5z"/>
					</defs>
					<clipPath id="SVGID_11_">
						<use xlink:href="#SVGID_10_"  style="overflow:visible;"/>
					</clipPath>
					
						<linearGradient id="SVGID_12_" gradientUnits="userSpaceOnUse" x1="-531.0422" y1="1930.0563" x2="-530.0422" y2="1930.0563" gradientTransform="matrix(-155.9779 7.4275 7.4275 155.9779 -96809.0938 -296991.7812)">
						<stop  offset="0" style="stop-color:#FFFFFF"/>
						<stop  offset="1" style="stop-color:#231F20"/>
					</linearGradient>
					<polygon class="st8" points="263.9,141.2 218.6,143.4 216,90 261.4,87.8 					"/>
				</g>
			</g>
		</g>
		<path class="st9" d="M161.5,348.7c-10.5-33.7-14.1-75-13.7-78.9c0.4-3.9,0.4-51.2,0.4-51.2l29.5,4.3l5.4,9.3l1.7,42.7l-6.9,71.3
			l-5.5,7.6L161.5,348.7z"/>
		<path class="st9" d="M269.3,63.6c3.1,24.3-14.7,43.2-25.6,43.2c-10.8,0-29.6-21.2-29.6-40.7c0-19.5,13.3-35.3,29.6-35.3
			C260,30.9,266.8,44.3,269.3,63.6"/>
		<path class="st5" d="M277.3,18.9c-3.7-4.1-7.2-3.9-11.3-2.7c-0.4,0-0.8-0.1-1.2-0.1c-0.8-3.5-5-4.7-8-3.4c-0.9-0.6-2-1-3.1-1
			c-2.2-2-5.9-2.3-8.1,0.1c-1.5,1.6-3,3.3-4.5,4.9c-1.2-0.1-2.4,0-3.5,0.4c-5.8-1.9-15,6.2-19.9,6.9c-4.6,0.7-5.1,5.3-3.1,8.5
			c-0.8,0.5-1.6,0.9-2.1,1.3c-7.5,5.9-6.4,21.2-7.3,30.2c-2.3,24.8,18.5,52.6,37.3,53.2c13.2,0.5,31.8-12.5,32.5-28.4
			c0.3-6.7,2.2-12.1-6.1-16.3c-11.2-5.7-29.5,9.5-45.6,3.4c-1.2-0.5-6.8-2.5-8.5-7.4c-2.8-8,6-20.6,16.4-23.2
			c7.1-1.8,14.9-0.2,30.4,3c6.5,1.4,12.3-0.8,15.7-5.2c0.6-0.5,1.2-1.1,1.7-1.9C283,34.1,281.7,23.9,277.3,18.9 M255.4,84.2
			c2.3-2.5,6.2-2.6,8.5,0c1,1.2,0.4,3.1-1.3,3.2c-1.6,0-3.2,0.3-4.8,0.3c-0.4,0-0.7-0.1-1-0.3C255.4,87.4,254.2,85.6,255.4,84.2"/>
		<path class="st10" d="M252.4,175.6h-9.7c-1.1,0-2,0.7-2.4,1.7c-0.3,1-1.3,1.7-2.4,1.7h-10.7c-1.4,0-2.5,1.1-2.5,2.5v1.7
			c0,1.4,1.1,2.5,2.5,2.5h8.5c1.1,0,2-0.7,2.4-1.7c0.3-1,1.3-1.7,2.4-1.7l11.9,0c1.4,0,2.5-1.1,2.5-2.5v-1.7
			C254.9,176.7,253.7,175.6,252.4,175.6"/>
		<path class="st10" d="M221.4,196.5c0,1.4,1.1,2.5,2.5,2.5h7.4c1.1,0,2-0.7,2.4-1.7c0.3-1,1.3-1.7,2.4-1.7h16.4
			c1.4,0,2.5-1.1,2.5-2.5v-1.7c0-1.4-1.1-2.5-2.5-2.5h-14.1c-1.1,0-2,0.7-2.4,1.7c-0.3,1-1.3,1.7-2.4,1.7h-9.6
			c-1.4,0-2.5,1.1-2.5,2.5"/>
		<g>
			<g>
				<defs>
					<rect id="SVGID_13_" x="168.7" y="192.9" width="15.5" height="151.1"/>
				</defs>
				<clipPath id="SVGID_14_">
					<use xlink:href="#SVGID_13_"  style="overflow:visible;"/>
				</clipPath>
				<polygon class="st11" points="183.7,192.9 183.6,248.3 184.2,272.7 177.3,344 168.7,344 173.3,245.6 				"/>
			</g>
		</g>
		<g>
			<g>
				<defs>
					<rect id="SVGID_15_" x="292.1" y="191.2" width="23.4" height="118.2"/>
				</defs>
				<clipPath id="SVGID_16_">
					<use xlink:href="#SVGID_15_"  style="overflow:visible;"/>
				</clipPath>
				<polygon class="st12" points="292.1,191.2 298.5,235.7 301.3,257.5 315.4,309.4 				"/>
			</g>
		</g>
		<path class="st5" d="M108.6,109.9c9.5-0.2,15.3-10.1,16.4-12.5c1.7-3.7-1.5-7.2,0.5-11.4c2.3-4.9,8.2-3.6,9.6-7.5
			c1.2-3.2,1-10-5.5-20.8c-5.3-8.8-19.2-14.3-28.8-10.3c-1.5,0.6-4.6,2-7.1,5.1c-7.3,9.3-3.9,27.3,3.2,38
			C101.1,96.8,103.9,107.8,108.6,109.9"/>
		<path class="st5" d="M68.8,118.1c-3.9,0.9-7.9,0.5-11.6-1c-6.3-2.6-8.1-5.3-8.5-7.5c-0.6-4.2,4.4-6.6,3.7-11.5
			c-0.9-5.6-8.1-6.2-8.3-10.4c-0.2-3.5-2.4-24.5,9.2-33.1c9.4-7,16,11.5,20,10.2c0.8-0.3,12.4-3.9,21.9,3.1c1.5,1.1,4.6,3.4,6.3,7.3
			c5,11.5-5.6,28.3-17.7,36.5C78.8,115.1,73.6,117,68.8,118.1"/>
		<path class="st13" d="M456,423.6c0.1,0,0.1-15.6,0-15.6C455.9,407.9,455.9,423.6,456,423.6"/>
		<path class="st14" d="M700.3,354.8c-0.3-2.8-5.3-8.3-5.3-8.3l-2.4-5.6l-12.9-3.1c0,0-3.7,17.7-3.7,20.4c0,2.7,3.7,18.9,4.3,20
			c0.6,1,2.7-0.1,2.7-0.1l-0.4-3.5c0,0,2.9,5.5,3.2,5.8c0.3,0.3,2.2-0.3,2.2-0.3s0.8,1.5,1.2,1.6c0.4,0.1,2.1-1,2.1-1l-0.6-5.6
			c0,0,2.6,5,2.9,5c0.3,0,2.6-0.7,2.6-0.7l0.1-16.3c0,0,0.2-0.5,0.4-1.3c1.3,2.7,3,6.1,3.9,6.1C701.9,367.9,700.6,357.6,700.3,354.8
			"/>
		<path class="st15" d="M786.7,103.2c-10.7-3.1-36.9-3.5-43.7-0.7c-20.8,8.4-53.7,69.6-53.5,83.9c0,3.9-20.4,88.8-19.6,119.8
			c0.3,11.1,6.2,16.2,6.4,23.9c0.2,8.2,0.3,13.4,0.3,13.4H696l5.9-47.4c0.3,0.4,0.6,0.8,1,1.1l4.1,4.3l0.4,13.1h110.3l3.7-13.6
			c6.9-3.5,10.8-11,9.9-18.7l-9.9-59.4c0,1.1,22.1,13.1,30.8-11.7C855.5,201.6,809.1,109.7,786.7,103.2"/>
		<g>
			<g>
				<defs>
					<rect id="SVGID_17_" x="701.9" y="171.3" width="19.4" height="142.6"/>
				</defs>
				<clipPath id="SVGID_18_">
					<use xlink:href="#SVGID_17_"  style="overflow:visible;"/>
				</clipPath>
				<path class="st16" d="M721.3,171.3c-0.9,2.7-1.7,5.3-2.6,8l-7.7,53.2c0.2,8.9-2.3,17.5-3.8,26.2l-0.7,5.1
					c-0.1,1.2-0.2,2.3-0.3,3.5c-0.4,8.1-0.8,15.7-3.5,22.9l-0.8,5.7l5.8,5.6l-0.4,12.3l1-4.1c-0.2-1.7-0.1-3.5,0.1-5.4
					c0.8-5.8,1.7-11.6,2.6-17.4c1-6.4,3.3-12.6,4.7-18.9c1.5-6.9,2.5-13.9,3.1-21c2.1-23.9-1.1-48.1,2.4-71.9L721.3,171.3z"/>
			</g>
		</g>
		<path class="st17" d="M743.1,102.4c-1.2,22.6,0.5,92.7-2.9,131.1c-2.8,31.6-13.4,66.7-19.7,80.9h88.3
			c-4.7-14.2-11.9-43.7-14.9-76.4c-3.7-41.6-6.3-111.7-7.1-134.9c-10.7-3.1-20.3-5.3-25.7-5.3C757.6,97.9,747.6,100.9,743.1,102.4"
			/>
		<path class="st5" d="M774,142.8h-6.7c-0.8,0-1.4,0.5-1.6,1.1c-0.2,0.7-0.9,1.2-1.6,1.2h-7.4c-1,0-1.7,0.8-1.7,1.7v1.2
			c0,1,0.8,1.7,1.7,1.7l5.8,0c0.8,0,1.4-0.5,1.6-1.1c0.2-0.7,0.9-1.2,1.6-1.2h8.2c1,0,1.7-0.8,1.7-1.7v-1.2
			C775.7,143.6,775,142.8,774,142.8"/>
		<path class="st5" d="M752.7,157.3c0,1,0.8,1.7,1.7,1.7h5.1c0.8,0,1.4-0.5,1.6-1.2c0.2-0.7,0.9-1.2,1.6-1.2H774
			c1,0,1.7-0.8,1.7-1.7v-1.2c0-1-0.8-1.7-1.7-1.7h-9.7c-0.8,0-1.4,0.5-1.6,1.2c-0.2,0.7-0.9,1.2-1.6,1.2h-6.6c-1,0-1.7,0.8-1.7,1.7"
			/>
		<path class="st5" d="M707.4,314.4c-4.3,71.9-17.8,254.4-17.8,254.4H709L758,332l7.6,0.1l20.9,236.7h18.8
			c0,0,16.5-146.3,12.4-254.4H707.4z"/>
		<path class="st14" d="M746.9,78.9v22.3c0,0,18,19.1,34.6,0.4L780,78.9H746.9z"/>
		<g class="st2">
			<g>
				<defs>
					<rect id="SVGID_19_" x="746.9" y="78.9" width="34.6" height="30.9"/>
				</defs>
				<clipPath id="SVGID_20_">
					<use xlink:href="#SVGID_19_"  style="overflow:visible;"/>
				</clipPath>
				<g class="st18">
					<defs>
						<path id="SVGID_21_" d="M746.9,78.9v22.3c0,0,18,19.1,34.6,0.4L780,78.9H746.9z"/>
					</defs>
					<clipPath id="SVGID_22_">
						<use xlink:href="#SVGID_21_"  style="overflow:visible;"/>
					</clipPath>
					
						<linearGradient id="SVGID_23_" gradientUnits="userSpaceOnUse" x1="-527.9603" y1="1928.2114" x2="-526.9603" y2="1928.2114" gradientTransform="matrix(-79.5424 -2.6812 -2.6812 79.5424 -36010.1719 -154688.7031)">
						<stop  offset="0" style="stop-color:#FFFFFF"/>
						<stop  offset="0.5998" style="stop-color:#FFFFFF"/>
						<stop  offset="0.9539" style="stop-color:#231F20"/>
						<stop  offset="1" style="stop-color:#231F20"/>
					</linearGradient>
					<polygon class="st19" points="781.4,121.5 745.5,120.3 746.9,77.8 782.9,79 					"/>
				</g>
			</g>
		</g>
		<path class="st14" d="M764,27.1c-19.4,0.6-22.2,22.2-21.9,40.3c0.3,18.2,8.3,30.2,20.6,31.1c12.3,0.9,21.2-11.4,24.9-28
			C791.4,53.9,795.1,26.2,764,27.1"/>
		<path class="st14" d="M744.9,62.8c0,0,0-7.4-6.2-5.6c-6.2,1.8-0.6,19.1,6.2,17.9C751.7,73.9,744.9,62.8,744.9,62.8"/>
		<path class="st14" d="M784.2,68c0,0,1-7.3,6.8-4.7c5.9,2.6-1.9,19-8.4,16.9C776,78.1,784.2,68,784.2,68"/>
		<polygon class="st20" points="795.7,172.1 790.1,147.2 766.4,151.8 780,198.1 800.7,191.3 		"/>
		<path class="st14" d="M809.3,201.7c2.9-2.8,0.8-16,0.8-16s-6.5-8.2-6.9-11.4c-0.4-3.2-5.7-11-7.5-10.3c-1.8,0.8,0,8.1,0,8.1
			l-25.7-3.2c-5.7-0.7-3.2,2.8-2.9,4.6c0.4,1.8,6.9,3.9,6.9,3.9s-3,4.8-2.2,6c0.7,1.1,2.2,3.6,2.2,3.6s-3,5.7-1.9,6.8
			c1.1,1.1,4.1,1.4,4.1,1.4s0.8,4.1,1.6,4.5C780.8,201.2,806.4,204.5,809.3,201.7"/>
		<path class="st5" d="M742.4,57.4c0,0,1.7,6.1,1.5,11l2.3,1.1V55.1c0,0,6.6-3.9,6.2-11.4c0,0,52.9,10.9,53.6,2.9
			c0.7-8-13-9.1-13-9.1s7.4-6.1,2.5-14.1c-5-8-14.1-3.2-14.1-3.2s-0.7-5-4.5-6.2S771,18,771,18s-20.1,8.2-24.8,10
			c-4.6,1.8-3.8,8.7-3.8,8.7s-7.1,4.5-6.3,7.7c0.8,3.2,2.7,12.9,2.7,12.9S741.3,56.5,742.4,57.4"/>
		<path class="st5" d="M781.5,46.1c0,0-2.5,9.3,3.7,10.8v10l1.3,0.9c0,0,0.8-4,2.9-5.1l3.6-15.8L781.5,46.1z"/>
		<path class="st21" d="M154.5,382.4c0.3-2.8,5.3-8.3,5.3-8.3l2.4-5.6l12.9-3.1c0,0,3.7,17.7,3.7,20.4c0,2.7-3.7,18.9-4.3,20
			c-0.6,1-2.7-0.1-2.7-0.1l0.4-3.5c0,0-2.9,5.5-3.2,5.8c-0.3,0.3-2.2-0.3-2.2-0.3s-0.8,1.5-1.2,1.6c-0.4,0.1-2.1-1-2.1-1l0.6-5.6
			c0,0-2.6,5-2.9,5c-0.3,0-2.6-0.7-2.6-0.7l-0.1-16.3c0,0-0.2-0.5-0.4-1.3c-1.3,2.7-3,6.1-3.9,6.1
			C152.9,395.5,154.2,385.2,154.5,382.4"/>
		<path class="st5" d="M4.3,230.5c0-10,41.4-93.2,63.7-99.8c10.7-3.1,36.9-3.5,43.7-0.7c20.8,8.4,53.7,69.6,53.5,83.9
			c0,3.9,20.4,88.8,19.6,119.8c-0.3,11.1-6.2,16.2-6.4,23.9c-0.2,8.2-0.3,13.4-0.3,13.4h-19.2l-5.9-47.4c-0.3,0.4-0.6,0.8-1,1.1
			l-4.1,4.3l-0.4,13.1H37.1l-3.7-13.6c-6.9-3.5-10.8-11-9.9-18.7l3.9-32.6C18.4,274.6,4.3,237.8,4.3,230.5"/>
		<path class="st20" d="M111.7,130c1.2,22.6-0.5,92.7,2.9,131.1c2.8,31.6,13.4,66.7,19.7,80.9H46.1c4.7-14.2,11.9-43.7,14.9-76.4
			c3.7-41.6,6.3-111.7,7.1-134.9c10.7-3.1,20.3-5.3,25.7-5.3C97.2,125.4,107.2,128.5,111.7,130"/>
		<path class="st10" d="M79,172.1v1.2c0,1,0.8,1.7,1.7,1.7H89c0.8,0,1.4,0.5,1.6,1.2c0.2,0.7,0.9,1.1,1.6,1.1h5.8
			c1,0,1.7-0.8,1.7-1.7v-1.2c0-1-0.8-1.7-1.7-1.7h-7.4c-0.8,0-1.4-0.5-1.6-1.2c-0.2-0.7-0.9-1.1-1.6-1.1h-6.7
			C79.8,170.3,79,171.1,79,172.1"/>
		<path class="st10" d="M102.1,183.6c0-1-0.8-1.7-1.7-1.7h-6.6c-0.8,0-1.4-0.5-1.6-1.2c-0.2-0.7-0.9-1.2-1.6-1.2h-9.7
			c-1,0-1.7,0.8-1.7,1.7v1.2c0,1,0.8,1.7,1.7,1.7h11.3c0.8,0,1.4,0.5,1.6,1.2c0.2,0.7,0.9,1.2,1.6,1.2h5.1c1,0,1.7-0.8,1.7-1.7"/>
		<path class="st5" d="M147.4,342c4.3,71.9,17.8,254.4,17.8,254.4h-19.5l-49-236.9L68.3,596.3H49.5c0,0-16.5-146.3-12.4-254.4H147.4
			z"/>
		<g class="st2">
			<g>
				<defs>
					<rect id="SVGID_24_" x="36.5" y="342" width="128.8" height="254.4"/>
				</defs>
				<clipPath id="SVGID_25_">
					<use xlink:href="#SVGID_24_"  style="overflow:visible;"/>
				</clipPath>
				<g class="st22">
					<defs>
						<path id="SVGID_26_" d="M147.4,342c4.3,71.9,17.8,254.4,17.8,254.4h-19.5l-49-236.9L68.3,596.3H49.5
							c0,0-16.5-146.3-12.4-254.4H147.4z"/>
					</defs>
					<clipPath id="SVGID_27_">
						<use xlink:href="#SVGID_26_"  style="overflow:visible;"/>
					</clipPath>
					
						<linearGradient id="SVGID_28_" gradientUnits="userSpaceOnUse" x1="-535.1393" y1="1930.7974" x2="-534.1393" y2="1930.7974" gradientTransform="matrix(0 280.1465 280.1465 0 -540807.0625 150206.3125)">
						<stop  offset="0" style="stop-color:#FFFFFF"/>
						<stop  offset="1" style="stop-color:#231F20"/>
					</linearGradient>
					<rect x="33" y="342" class="st23" width="132.2" height="254.4"/>
				</g>
			</g>
		</g>
		<path class="st21" d="M107.9,106.4v22.3c0,0-18,19.1-34.6,0.4l1.4-22.8H107.9z"/>
		<g>
			<g>
				<defs>
					<rect id="SVGID_29_" x="73.3" y="106.4" width="34.6" height="30.9"/>
				</defs>
				<clipPath id="SVGID_30_">
					<use xlink:href="#SVGID_29_"  style="overflow:visible;"/>
				</clipPath>
				<g class="st24">
					<defs>
						<path id="SVGID_31_" d="M107.9,106.4v22.3c0,0-18,19.1-34.6,0.4l1.4-22.8H107.9z"/>
					</defs>
					<clipPath id="SVGID_32_">
						<use xlink:href="#SVGID_31_"  style="overflow:visible;"/>
					</clipPath>
					
						<linearGradient id="SVGID_33_" gradientUnits="userSpaceOnUse" x1="-547.109" y1="1942.6279" x2="-546.109" y2="1942.6279" gradientTransform="matrix(34.5765 0 0 -34.5765 18990.4199 67296.4297)">
						<stop  offset="0" style="stop-color:#FFFFFF"/>
						<stop  offset="1" style="stop-color:#231F20"/>
					</linearGradient>
					<rect x="73.3" y="106.4" class="st25" width="34.6" height="41.4"/>
				</g>
			</g>
		</g>
		<path class="st21" d="M107.9,106.4v22.3c0,0-18,19.1-34.6,0.4l1.4-22.8H107.9z"/>
		<path class="st26" d="M107.9,106.4v22.3c0,0-18,19.1-34.6,0.4l1.4-22.8H107.9z"/>
		<g class="st27">
			<g>
				<defs>
					<rect id="SVGID_34_" x="73.3" y="106.4" width="34.6" height="30.9"/>
				</defs>
				<clipPath id="SVGID_35_">
					<use xlink:href="#SVGID_34_"  style="overflow:visible;"/>
				</clipPath>
				<g class="st28">
					<defs>
						<path id="SVGID_36_" d="M107.9,106.4v22.3c0,0-18,19.1-34.6,0.4l1.4-22.8H107.9z"/>
					</defs>
					<clipPath id="SVGID_37_">
						<use xlink:href="#SVGID_36_"  style="overflow:visible;"/>
					</clipPath>
					
						<linearGradient id="SVGID_38_" gradientUnits="userSpaceOnUse" x1="-529.1315" y1="1928.7986" x2="-528.1315" y2="1928.7986" gradientTransform="matrix(-96.7966 0 0 96.7966 -51091.8672 -186574.0156)">
						<stop  offset="0" style="stop-color:#FFFFFF"/>
						<stop  offset="1" style="stop-color:#231F20"/>
					</linearGradient>
					<rect x="73.3" y="106.4" class="st29" width="34.6" height="41.4"/>
				</g>
			</g>
		</g>
		<path class="st26" d="M92,126c-12.3,0.9-21.2-11.4-24.9-28c-3.7-16.6-7.4-44.3,23.7-43.4c19.4,0.6,22.2,22.2,21.9,40.3
			C112.3,113.1,104.3,125.1,92,126"/>
		<path class="st26" d="M106.8,84.5c0,0,0-7.4,6.2-5.6c6.2,1.8,0.6,19.1-6.2,17.9C100,95.5,106.8,84.5,106.8,84.5"/>
		<path class="st26" d="M67.5,89.7c0,0-1-7.3-6.8-4.7c-5.9,2.6,1.9,19,8.4,16.9C75.6,99.8,67.5,89.7,67.5,89.7"/>
		<path class="st5" d="M687.4,319.4l-52.9,9l-52.9-9l-0.5,256.9h12.2l40.6-229.7l3.7,229.7H650c0,0,21.2-96.7,22.1-105.5
			c0.9-8.8-3.2-36-3.2-36L687.4,319.4z"/>
		<path class="st30" d="M593.1,132.7c0,0,3.6-34.9,8.3-52.5c4.7-17.5,23.5-23.9,35-22.9c11.5,1.1,33.2,5.7,33.5,32.6
			c0.3,26.8,3.8,44.4,3.8,44.4L593.1,132.7z"/>
		<g class="st2">
			<g>
				<defs>
					<rect id="SVGID_39_" x="593.1" y="57.3" width="80.6" height="77.1"/>
				</defs>
				<clipPath id="SVGID_40_">
					<use xlink:href="#SVGID_39_"  style="overflow:visible;"/>
				</clipPath>
				<g class="st31">
					<defs>
						<path id="SVGID_41_" d="M593.1,132.7c0,0,3.6-34.9,8.3-52.5c4.7-17.5,23.5-23.9,35-22.9c11.5,1.1,33.2,5.7,33.5,32.6
							c0.3,26.8,3.8,44.4,3.8,44.4L593.1,132.7z"/>
					</defs>
					<clipPath id="SVGID_42_">
						<use xlink:href="#SVGID_41_"  style="overflow:visible;"/>
					</clipPath>
					
						<linearGradient id="SVGID_43_" gradientUnits="userSpaceOnUse" x1="-536.4827" y1="1929.246" x2="-535.4827" y2="1929.246" gradientTransform="matrix(3.2826 140.496 140.496 -3.2826 -268657.9688 81750.5391)">
						<stop  offset="0" style="stop-color:#FFFFFF"/>
						<stop  offset="1" style="stop-color:#231F20"/>
					</linearGradient>
					<polygon class="st32" points="673.7,54.5 675.6,134.3 593.2,136.3 591.3,56.4 					"/>
				</g>
			</g>
		</g>
		<path class="st17" d="M662.9,241.9l10.1-44.3c1.9-1.8,3.4-3.8,4.6-5.9c-3.2-5.7-5-12.7-7.2-18c-4.4-10.6-12-25.9-11.6-37.8
			c-10.8-4.7-21.3-8.8-25.6-8.8c-4.8,0-17.3,5.7-28.2,11c0,0.3-0.1,0.7-0.2,1.1c-1.8,4.5-4,8.9-7.3,12.5c-2.9,3.2-6.7,5.1-10.6,6.8
			v10.4c-3,17.6,10.6,29.2,10.6,29.2l6.6,43.5c-17.4,25.4-26.7,63.9-31.5,93.3h126.3C687.8,268.6,662.9,241.9,662.9,241.9"/>
		<path class="st33" d="M570.4,191.1c-5.4,34-10.6,78.1-11.4,96.7c-0.2,3.7,4,12.6,4,12.6c-0.2,4.3-0.5,9.1-0.8,14.2h41l4.1-177.5
			C592.6,152.9,582.5,173,570.4,191.1"/>
		<path class="st34" d="M625.1,114v22.1c0,0,11.2,19,21.5,0.4l-0.9-22.6H625.1z"/>
		<g class="st2">
			<g>
				<defs>
					<rect id="SVGID_44_" x="625.1" y="114" width="21.5" height="30.7"/>
				</defs>
				<clipPath id="SVGID_45_">
					<use xlink:href="#SVGID_44_"  style="overflow:visible;"/>
				</clipPath>
				<g class="st35">
					<defs>
						<path id="SVGID_46_" d="M625.1,114v22.1c0,0,11.2,19,21.5,0.4l-0.9-22.6H625.1z"/>
					</defs>
					<clipPath id="SVGID_47_">
						<use xlink:href="#SVGID_46_"  style="overflow:visible;"/>
					</clipPath>
					
						<linearGradient id="SVGID_48_" gradientUnits="userSpaceOnUse" x1="-530.0106" y1="1929.4746" x2="-529.0106" y2="1929.4746" gradientTransform="matrix(-118.8877 0 0 118.8877 -62323.5664 -229256.125)">
						<stop  offset="0" style="stop-color:#FFFFFF"/>
						<stop  offset="7.598096e-02" style="stop-color:#EBE9E9"/>
						<stop  offset="0.1948" style="stop-color:#C8C4C4"/>
						<stop  offset="0.3414" style="stop-color:#979292"/>
						<stop  offset="0.5103" style="stop-color:#5F5959"/>
						<stop  offset="0.6958" style="stop-color:#292526"/>
						<stop  offset="0.7162" style="stop-color:#231F20"/>
						<stop  offset="1" style="stop-color:#231F20"/>
					</linearGradient>
					<rect x="625.1" y="114" class="st36" width="21.5" height="41.1"/>
				</g>
			</g>
		</g>
		<path class="st34" d="M629.6,61.5c-19.1,2.5-22.2,24.6-17.6,42c3.4,13,11.2,26.2,23.5,25.8c12.3-0.3,19.6-17.1,21.8-27.3
			C660.9,85.5,660.2,57.5,629.6,61.5"/>
		<path class="st30" d="M656.2,65.7c-1.5-0.7-3.1-0.9-4.8-1c-0.4-1.2-1.1-2.2-2.3-2.8c-6.7-3.6-22.5-3.1-29.4,0
			c-6.9,3.1-15,15.8-16.8,23.2c-1.9,7.8,0,16,1.9,23.9c0.6,2.3,1.3,4.8,3.3,5.9c1.7,0.9,3.8,0.6,5.7,0.1
			c10.7-2.7,20.6-8.5,28.2-16.4c1.1-1.1,2.1-2.4,3.1-3.6c0,0,0,0,0,0c2.6,7.3,7.3,13.9,13.3,18.8c0.7,0.6,1.5,1.1,2.3,1.1
			c1.4-0.1,2.2-1.5,2.8-2.8c2.2-4.7,4.4-9.6,4.5-14.8C668.4,92,660.9,67.8,656.2,65.7"/>
		<g class="st2">
			<g>
				<defs>
					<rect id="SVGID_49_" x="602.1" y="59.4" width="66.1" height="56"/>
				</defs>
				<clipPath id="SVGID_50_">
					<use xlink:href="#SVGID_49_"  style="overflow:visible;"/>
				</clipPath>
				<g class="st37">
					<defs>
						<path id="SVGID_51_" d="M656.2,65.7c-1.5-0.7-3.1-0.9-4.8-1c-0.4-1.2-1.1-2.2-2.3-2.8c-6.7-3.6-22.5-3.1-29.4,0
							c-6.9,3.1-15,15.8-16.8,23.2c-1.9,7.8,0,16,1.9,23.9c0.6,2.2,1.3,4.8,3.3,5.9c1.7,0.9,3.8,0.6,5.7,0.1
							c10.7-2.7,20.6-8.5,28.2-16.4c1.1-1.1,2.1-2.4,3.1-3.6c0,0,0,0,0,0c2.6,7.3,7.3,13.9,13.4,18.8c0.7,0.6,1.5,1.1,2.3,1.1
							c1.4-0.1,2.2-1.5,2.8-2.8c2.2-4.7,4.4-9.6,4.5-14.8C668.4,92,660.9,67.8,656.2,65.7"/>
					</defs>
					<clipPath id="SVGID_52_">
						<use xlink:href="#SVGID_51_"  style="overflow:visible;"/>
					</clipPath>
					
						<linearGradient id="SVGID_53_" gradientUnits="userSpaceOnUse" x1="-536.4827" y1="1929.2375" x2="-535.4827" y2="1929.2375" gradientTransform="matrix(3.2826 140.496 140.496 -3.2826 -268655.3438 81748.5078)">
						<stop  offset="0" style="stop-color:#FFFFFF"/>
						<stop  offset="1" style="stop-color:#231F20"/>
					</linearGradient>
					<polygon class="st38" points="668.4,56.7 669.8,115.7 601,117.3 599.6,58.3 					"/>
				</g>
			</g>
		</g>
		<g class="st2">
			<g>
				<defs>
					<path id="SVGID_54_" d="M670.6-10.7L670.6-10.7z"/>
				</defs>
				<clipPath id="SVGID_55_">
					<use xlink:href="#SVGID_54_"  style="overflow:visible;"/>
				</clipPath>
			</g>
		</g>
		<path class="st33" d="M700.8,314.6c-0.2-4.1-0.5-8-0.7-11.6c0,0,2.7-11.4,2.5-15.6c-1.4-31.3-37.7-145.7-43.8-151.5
			c-6.1-5.8,0,0,0,0l2.1,178.7H700.8z"/>
		<path class="st33" d="M658.8,135.9c6.3,4.3,23,18.8,25.8,28.5c2.8,9.7,29.5,35.7,26.2,45.2c-3.3,9.5-0.5,12.4,3.3,24.3
			c3.8,11.9-11.8,21.1-20.8,18.6c-9-2.5-28.8-14.7-28.8-14.7l-0.8-18.9l9.8,1.4L658.8,135.9z"/>
		<g class="st39">
			<g>
				<defs>
					<rect id="SVGID_56_" x="675.1" y="244" width="23" height="16"/>
				</defs>
				<clipPath id="SVGID_57_">
					<use xlink:href="#SVGID_56_"  style="overflow:visible;"/>
				</clipPath>
				<path class="st40" d="M689.7,249c-2.1-1.2-4.5-2.2-6.6-3.3c-2.6-1.4-5.2-1.6-8-1.7c0.4,0.3,0.7,0.5,1.2,0.7
					c1.8,0.9,3.5,1.9,5.1,3.3c3.6,3.2,6.1,7.5,10.5,9.7c2,1,4.2,1.6,6.3,2.3c-0.8-3.2-1.6-6.3-1.9-7.5
					C694,251.6,692,250.3,689.7,249"/>
			</g>
		</g>
		<path class="st33" d="M607.3,137c-6.2,3.4-19.8,7.5-22.7,17.2c-2.8,9.7-18.6,24.3-23.8,36.5c-4,9.2-4.3,21.4-8.1,33.2
			c-3.8,11.9,8.2,31,17.2,28.6c9-2.5,28.8-14.7,28.8-14.7l0.8-18.9l-9.8,1.4L607.3,137z"/>
		<polygon class="st20" points="578,222.3 581.3,170.8 676.9,171 677.1,232 578,231 		"/>
		<path class="st41" d="M688.8,218.5c0,0-3.7-8.7-11.6-8.6l0.1,7.9c0,0-20-3.7-20.2-2.7c0,0.1,0,0.3,0,0.4c-0.1,2.6,1.9,4.9,4.5,5.3
			l4.8,0.8c0,0-1.5,2.9-1,3.8c0.5,0.9,1.9,1.9,1.9,1.9s-0.1,2.8,0.5,5.3c0.7,2.6,0.1,4.8,1.7,6.8c1.6,2,16.3-0.5,18.3-1.1
			c0.1,0,0.3-0.1,0.6-0.2C696.4,234.2,696.6,222.7,688.8,218.5"/>
		<path class="st41" d="M566.6,223c0,0,9.1-9.8,12-9.7l-0.2,6.4c0,0,16.4-2.7,20.4-0.1c0.2,0.2-0.1,0.7-0.3,1.2
			c-1,1.9-2.7,3.2-4.7,3.8l-4.7,1.3c0,0,1.5,2.9,1,3.8c-0.5,0.9-1.9,1.9-1.9,1.9s0.1,2.8-0.5,5.3c-0.7,2.6-0.1,4.8-1.7,6.8
			c-1.6,2-16.3-0.5-18.3-1.1c-0.1,0-0.3-0.1-0.6-0.2C558.9,238.7,558.7,227.2,566.6,223"/>
		<g class="st39">
			<g>
				<defs>
					<rect id="SVGID_58_" x="566.1" y="300.9" width="30.4" height="3.6"/>
				</defs>
				<clipPath id="SVGID_59_">
					<use xlink:href="#SVGID_58_"  style="overflow:visible;"/>
				</clipPath>
				<path class="st42" d="M595.5,304.6L595.5,304.6c-9.5-0.4-19.1-1-28.5-1.7c-0.5,0-0.9-0.5-0.9-1c0-0.5,0.4-1,1-0.9
					c9.5,0.7,19,1.3,28.4,1.7c0.5,0,0.9,0.5,0.9,1C596.4,304.2,596,304.6,595.5,304.6"/>
			</g>
		</g>
		<g class="st39">
			<g>
				<defs>
					<rect id="SVGID_60_" x="664.7" y="301.5" width="30.1" height="2.4"/>
				</defs>
				<clipPath id="SVGID_61_">
					<use xlink:href="#SVGID_60_"  style="overflow:visible;"/>
				</clipPath>
				<path class="st43" d="M665.7,303.9c-0.5,0-0.9-0.4-0.9-0.9c0-0.5,0.4-1,0.9-1c9.4-0.6,18.9-0.7,28.3-0.2c0.5,0,0.9,0.5,0.9,1
					c0,0.5-0.4,0.9-1,0.9C684.5,303.2,675,303.3,665.7,303.9C665.7,303.9,665.7,303.9,665.7,303.9"/>
			</g>
		</g>
		<path class="st10" d="M636.5,188h-7.8c-0.9,0-1.6,0.6-1.9,1.3c-0.3,0.8-1,1.4-1.9,1.4h-8.6c-1.1,0-2,0.9-2,2v1.3c0,1.1,0.9,2,2,2
			h6.8c0.9,0,1.6-0.6,1.9-1.3c0.3-0.8,1-1.4,1.9-1.4h9.6c1.1,0,2-0.9,2-2V190C638.6,188.9,637.7,188,636.5,188"/>
		<path class="st10" d="M611.6,204.8c0,1.1,0.9,2,2,2h5.9c0.9,0,1.6-0.6,1.9-1.4c0.3-0.8,1-1.3,1.9-1.3h13.2c1.1,0,2-0.9,2-2v-1.3
			c0-1.1-0.9-2-2-2h-11.4c-0.9,0-1.6,0.6-1.9,1.3c-0.3,0.8-1,1.3-1.9,1.3h-7.7c-1.1,0-2,0.9-2,2"/>
		<path class="st20" d="M356.1,384l12-57.9l7.6,0.1l5.1,57.7h46.7c0.7-25.6,0.8-74.1-0.1-98l-110.7-3c-1.1,19.1-1.7,71.8-3.7,101
			H356.1z"/>
		<path class="st20" d="M312.9,384c-4.4,81.7-8.6,185.7-8.6,185.7l-16.5,12.2h25.7L356.1,384l-23.9-3.8L312.9,384z"/>
		<path class="st20" d="M427.4,384l-34.5-19l-12.2,19l20.4,197.9h25.7l-14.6-11.1C412.2,570.7,425.2,478.6,427.4,384"/>
		<path class="st44" d="M421.6,291.3l14.5,7.4c0,0,12-37.8,16.7-59.2c1.9-8.8-22.1-103.5-22.1-103.5c-5.6-7-35.2-29.1-38.5-29.5
			c-2.2-0.3-17.6-1.9-26.4-2.4s-2.1,0.1-7.9,2l-27,19.3c-17.1,20.5-31.7,51.6-32.8,58.5c-5.5,34.8-1.4,74.7,4.4,108.3l14.1-9
			L421.6,291.3"/>
		<g class="st2">
			<g>
				<defs>
					<rect id="SVGID_62_" x="295.5" y="103.8" width="157.5" height="194.8"/>
				</defs>
				<clipPath id="SVGID_63_">
					<use xlink:href="#SVGID_62_"  style="overflow:visible;"/>
				</clipPath>
				<g class="st45">
					<defs>
						<path id="SVGID_64_" d="M421.6,291.3l14.5,7.4c0,0,12-37.8,16.7-59.2c1.9-8.8-22.1-103.5-22.1-103.5
							c-5.6-7-35.2-29.1-38.5-29.5c-2.2-0.3-17.6-1.9-26.4-2.4c-8.8-0.5-2.1,0.1-7.9,2l-27,19.3c-17.1,20.5-31.7,51.6-32.8,58.5
							c-5.5,34.8-1.4,74.7,4.4,108.3l14.1-9L421.6,291.3"/>
					</defs>
					<clipPath id="SVGID_65_">
						<use xlink:href="#SVGID_64_"  style="overflow:visible;"/>
					</clipPath>
					
						<linearGradient id="SVGID_66_" gradientUnits="userSpaceOnUse" x1="-534.6951" y1="1931.3712" x2="-533.6951" y2="1931.3712" gradientTransform="matrix(0 429.69 429.69 0 -829517.1875 229824.7656)">
						<stop  offset="0" style="stop-color:#FFFFFF"/>
						<stop  offset="1" style="stop-color:#231F20"/>
					</linearGradient>
					<rect x="292.6" y="103.5" class="st46" width="162.2" height="195.1"/>
				</g>
			</g>
		</g>
		<path class="st34" d="M357.9,83.8V106c0,0,17.9,19,34.3,0.4l-1.4-22.6H357.9z"/>
		<g class="st2">
			<g>
				<defs>
					<rect id="SVGID_67_" x="357.9" y="83.8" width="34.3" height="30.7"/>
				</defs>
				<clipPath id="SVGID_68_">
					<use xlink:href="#SVGID_67_"  style="overflow:visible;"/>
				</clipPath>
				<g class="st47">
					<defs>
						<path id="SVGID_69_" d="M357.9,83.8V106c0,0,17.9,19,34.3,0.4l-1.4-22.6H357.9z"/>
					</defs>
					<clipPath id="SVGID_70_">
						<use xlink:href="#SVGID_69_"  style="overflow:visible;"/>
					</clipPath>
					
						<linearGradient id="SVGID_71_" gradientUnits="userSpaceOnUse" x1="-528.4689" y1="1928.0042" x2="-527.4689" y2="1928.0042" gradientTransform="matrix(-82.6704 2.6812 2.6812 82.6704 -48444.6914 -157868.8438)">
						<stop  offset="0" style="stop-color:#FFFFFF"/>
						<stop  offset="1" style="stop-color:#231F20"/>
					</linearGradient>
					<polygon class="st48" points="393.5,124.9 357.9,126 356.5,83.9 392.2,82.7 					"/>
				</g>
			</g>
		</g>
		<path class="st34" d="M401.6,68.3c-0.7-0.3-1.3-0.5-1.8-0.5c2.5-16.1,1.4-36.2-25-35.4c-15.8,0.5-20.5,14.9-21.5,30.1
			c-0.9-0.5-2-0.6-3.6-0.1c-5.4,1.6-1.7,15.4,4,17.5c2.1,13.8,9.4,22.7,19.9,23.5c9.7,0.7,17.2-6.8,21.8-18.1
			C401.3,83.8,406.8,70.6,401.6,68.3"/>
		<path class="st34" d="M302.5,292c0,0,14.4,28.1,19.4,15.3c5-12.8-5.3-24.3-5.3-24.3L302.5,292z"/>
		<path class="st49" d="M353.4,62.4l3.4,5.4h3.6v-9.3c0,0,4.5-4.6,5-9.7l26.9,1.9c0,0-0.9,6.6,1.3,9.2v10.7h3.3l3-2.9
			c0,0,6.5-23.7,3.9-29.6c-2.7-5.9-8.1-3.8-8.1-3.8s-8.9-10.4-21.3-6.9c-12.4,3.6-22.4,11.1-24.3,16.4
			C348.2,49.1,353.4,62.4,353.4,62.4"/>
		<path class="st34" d="M421.6,291.3c0,0-14.1,15.7-7.1,25.5c7,9.7,21.6-18.1,21.6-18.1S423.6,291.4,421.6,291.3"/>
		<path class="st5" d="M382.8,159H375c-0.9,0-1.6,0.6-1.9,1.3c-0.3,0.8-1,1.4-1.9,1.4h-8.6c-1.1,0-2,0.9-2,2v1.3c0,1.1,0.9,2,2,2
			h6.8c0.9,0,1.6-0.6,1.9-1.3c0.3-0.8,1-1.4,1.9-1.4h9.6c1.1,0,2-0.9,2-2V161C384.8,159.9,383.9,159,382.8,159"/>
		<path class="st5" d="M357.9,175.8c0,1.1,0.9,2,2,2h5.9c0.9,0,1.6-0.6,1.9-1.4c0.3-0.8,1-1.3,1.9-1.3h13.2c1.1,0,2-0.9,2-2v-1.3
			c0-1.1-0.9-2-2-2h-11.4c-0.9,0-1.6,0.6-1.9,1.3c-0.3,0.8-1,1.3-1.9,1.3h-7.7c-1.1,0-2,0.9-2,2"/>
		<path class="st50" d="M550.3,302.9l-43.3,7.3l-55.2-9.4l-0.5,268.4H464l42.4-253l3.9,253H523c0,0,14.3-101,15.2-110.2
			c0.9-9.2,4.6-37.6,4.6-37.6L550.3,302.9z"/>
		<g class="st2">
			<g>
				<defs>
					<rect id="SVGID_72_" x="451.2" y="300.9" width="99.1" height="268.4"/>
				</defs>
				<clipPath id="SVGID_73_">
					<use xlink:href="#SVGID_72_"  style="overflow:visible;"/>
				</clipPath>
				<g class="st51">
					<defs>
						<path id="SVGID_74_" d="M550.3,302.9l-43.3,7.3l-55.2-9.4l-0.5,268.4H464l42.4-253l3.9,253H523c0,0,14.3-101,15.2-110.2
							c0.9-9.2,4.6-37.6,4.6-37.6L550.3,302.9z"/>
					</defs>
					<clipPath id="SVGID_75_">
						<use xlink:href="#SVGID_74_"  style="overflow:visible;"/>
					</clipPath>
					
						<linearGradient id="SVGID_76_" gradientUnits="userSpaceOnUse" x1="-532.4769" y1="1934.1082" x2="-531.4769" y2="1934.1082" gradientTransform="matrix(-8.0125 -267.6186 -267.6186 8.0125 513840.9062 -157449.2656)">
						<stop  offset="0" style="stop-color:#FFFFFF"/>
						<stop  offset="1" style="stop-color:#231F20"/>
					</linearGradient>
					<polygon class="st52" points="451.3,572.3 443.2,301.1 550.2,297.9 558.3,569.1 					"/>
				</g>
			</g>
		</g>
		<polygon class="st17" points="464,569.3 460,585.4 437.8,585.4 448.9,577.4 451.2,569.3 		"/>
		<polygon class="st17" points="510.3,569.3 510.3,585.4 532.5,585.4 521.4,577.4 523,569.3 		"/>
		<path class="st5" d="M99.2,40.5c1.3,0.4,8.9,2.6,9.4,6.7c0.6,5.6-12.2,11.2-17.8,13.7c-9.6,4.2-18.3,5.7-24.3,6.3
			c1.4,2.6,8.3,16.3,2,28.3c-1,2-3.2,6.1-5.3,5.7c-5.4-0.8-23.4-33-6.8-50.9C64.8,41.4,88.1,37.3,99.2,40.5"/>
		<g>
			<g>
				<defs>
					<rect id="SVGID_77_" x="29.7" y="182.8" width="19.8" height="76.7"/>
				</defs>
				<clipPath id="SVGID_78_">
					<use xlink:href="#SVGID_77_"  style="overflow:visible;"/>
				</clipPath>
				<path class="st53" d="M34.1,222.4l15.4-39.6l-19.8,35.7l16.4,41.1C46.1,259.5,46.1,235.5,34.1,222.4L34.1,222.4z"/>
			</g>
		</g>
		<g>
			<g>
				<defs>
					<rect id="SVGID_79_" x="127.4" y="191.5" width="22.7" height="137.5"/>
				</defs>
				<clipPath id="SVGID_80_">
					<use xlink:href="#SVGID_79_"  style="overflow:visible;"/>
				</clipPath>
				<path class="st54" d="M150.1,318.8c0-3.1-22.7-127.3-22.7-127.3l20.4,137.5L150.1,318.8z"/>
			</g>
		</g>
		<g class="st2">
			<g>
				<defs>
					<rect id="SVGID_81_" x="320.9" y="166.1" width="13.1" height="88.8"/>
				</defs>
				<clipPath id="SVGID_82_">
					<use xlink:href="#SVGID_81_"  style="overflow:visible;"/>
				</clipPath>
				<polygon class="st55" points="334,166.1 325.7,191 322.8,211.7 320.9,254.9 				"/>
			</g>
		</g>
		<g class="st2">
			<g>
				<defs>
					<rect id="SVGID_83_" x="413.2" y="163.5" width="16.8" height="92.7"/>
				</defs>
				<clipPath id="SVGID_84_">
					<use xlink:href="#SVGID_83_"  style="overflow:visible;"/>
				</clipPath>
				<polygon class="st56" points="413.2,163.5 421.4,188.4 430,229.7 426.1,256.2 				"/>
			</g>
		</g>
		<path class="st17" d="M540.4,183.9c0.5,0.8,1,1.7,1.5,2.5"/>
		<path class="st17" d="M435.1,419.1c12.1-132.8,21.7-173,39.9-199.5l-6.9-45.5l8.6-55.8c0,0,19.3-18.4,28.8-18.4
			c9.5,0,33.2,18.4,33.2,18.4c0,0,0,0,0,0c0.1,0.1,0.4,0.3,0.8,0.7c4.4,4.4,11,24.6,16,46.4c-0.1,4.2-1.1,7.8-3.6,10.2l-0.3,31.3
			l-15.1,12.9c0,0,1.9,2,4.8,8.4c7.7,17.2,22.5,65.8,25.8,190.9H435.1z"/>
		<g>
			<g>
				<defs>
					<rect id="SVGID_85_" x="531.6" y="147.5" width="12.3" height="50.2"/>
				</defs>
				<clipPath id="SVGID_86_">
					<use xlink:href="#SVGID_85_"  style="overflow:visible;"/>
				</clipPath>
				<path class="st57" d="M534.6,197.8c3.1-0.5,6.3-0.9,9.4-1.1c-0.6-2.3-1.1-4.5-1-6.8c0.1-2.9,0.6-4.9-0.3-7.6
					c-0.7-2.1-1.1-4.1-1.2-6.4c-0.3-5-1.7-12.8-4.9-17.2c-2.8-3.8-4.1-6.7-4.8-11l-0.2-0.1c0.5,5.8,0.3,11.8,0.4,17.7
					c0.1,3.5,0.1,7.1,0,10.6c0.8,4.8,2.3,9.4,3.3,14.2C535.9,192.4,535.8,195.4,534.6,197.8"/>
			</g>
		</g>
		<path class="st58" d="M497,86.3v23.1c0,0,11.7,19.8,22.5,0.5l-0.9-23.6H497z"/>
		<g class="st2">
			<g>
				<defs>
					<rect id="SVGID_87_" x="497" y="86.3" width="22.5" height="32.1"/>
				</defs>
				<clipPath id="SVGID_88_">
					<use xlink:href="#SVGID_87_"  style="overflow:visible;"/>
				</clipPath>
				<g class="st59">
					<defs>
						<path id="SVGID_89_" d="M497,86.3v23.1c0,0,11.7,19.8,22.5,0.5l-0.9-23.6H497z"/>
					</defs>
					<clipPath id="SVGID_90_">
						<use xlink:href="#SVGID_89_"  style="overflow:visible;"/>
					</clipPath>
					
						<linearGradient id="SVGID_91_" gradientUnits="userSpaceOnUse" x1="-524.1542" y1="1924.9739" x2="-523.1542" y2="1924.9739" gradientTransform="matrix(-47.1735 0 0 47.1735 -24204.6113 -90700.0391)">
						<stop  offset="0" style="stop-color:#FFFFFF"/>
						<stop  offset="1" style="stop-color:#231F20"/>
					</linearGradient>
					<rect x="497" y="86.3" class="st60" width="22.5" height="43"/>
				</g>
			</g>
		</g>
		<path class="st58" d="M501.7,31.4c-20,2.6-23.2,25.7-18.4,43.9c3.6,13.6,11.7,27.3,24.5,27c12.8-0.3,20.5-17.8,22.8-28.6
			C534.4,56.4,533.7,27.2,501.7,31.4"/>
		<path class="st61" d="M537.1,38.5c-5.5-5.7-12.3-9.8-19.5-12c-11.4-3.5-24-2.2-34.4,4.7c-8.6,5.7-16.2,13.1-22.4,21.5
			c-1.9,2.6-16.6,24.3-14,26.9c13.6,14.2,31.5,23.4,50.2,27.6v-8.5c-3.6-2.6-6.5-6.5-8.9-11c6.3-3,12.9-9.5,16-12.7
			c7.2-7.5,12.7-16.6,15.7-26.6c-2.1,6.8-0.9,28.9,7,36.9c-2,4.4-4.6,8.6-7.8,11.7l0.5,12.7c0,0,0,0.1-0.1,0.1
			c15.2,0.3,30.5-2.4,45.4-4.5C562.8,81.2,553.8,55.9,537.1,38.5"/>
		<g class="st2">
			<g>
				<defs>
					<rect id="SVGID_92_" x="446.5" y="24.6" width="118.3" height="85.4"/>
				</defs>
				<clipPath id="SVGID_93_">
					<use xlink:href="#SVGID_92_"  style="overflow:visible;"/>
				</clipPath>
				<g class="st62">
					<defs>
						<path id="SVGID_94_" d="M537.1,38.5c-5.5-5.7-12.3-9.8-19.5-12c-11.4-3.5-24-2.2-34.4,4.7c-8.6,5.7-16.2,13.1-22.4,21.5
							c-1.9,2.6-16.6,24.3-14,26.9c13.6,14.2,31.5,23.4,50.2,27.6v-8.5c-3.6-2.6-6.5-6.5-8.9-11c6.3-3,12.9-9.5,16-12.7
							c7.2-7.5,12.7-16.6,15.7-26.6c-2.1,6.8-0.9,28.9,7,36.9c-2,4.4-4.6,8.6-7.8,11.7l0.5,12.7c0,0,0,0.1-0.1,0.1
							c15.2,0.3,30.5-2.4,45.4-4.5C562.8,81.2,553.8,55.9,537.1,38.5"/>
					</defs>
					<clipPath id="SVGID_95_">
						<use xlink:href="#SVGID_94_"  style="overflow:visible;"/>
					</clipPath>
					
						<linearGradient id="SVGID_96_" gradientUnits="userSpaceOnUse" x1="-535.7321" y1="1930.0383" x2="-534.7321" y2="1930.0383" gradientTransform="matrix(0 191.3007 191.3007 0 -368713.0625 102492.7031)">
						<stop  offset="0" style="stop-color:#FFFFFF"/>
						<stop  offset="0.756" style="stop-color:#231F20"/>
						<stop  offset="1" style="stop-color:#231F20"/>
					</linearGradient>
					<rect x="444.2" y="23" class="st63" width="120.6" height="87.3"/>
				</g>
			</g>
		</g>
		<g>
			<g>
				<defs>
					<rect id="SVGID_97_" x="474.4" y="145.5" width="11.1" height="48.4"/>
				</defs>
				<clipPath id="SVGID_98_">
					<use xlink:href="#SVGID_97_"  style="overflow:visible;"/>
				</clipPath>
				<polyline class="st64" points="485.5,145.5 482.6,193.9 474.4,193 				"/>
			</g>
		</g>
		<g>
			<g>
				<defs>
					<rect id="SVGID_99_" x="482.9" y="227.9" width="50.1" height="7.9"/>
				</defs>
				<clipPath id="SVGID_100_">
					<use xlink:href="#SVGID_99_"  style="overflow:visible;"/>
				</clipPath>
				<polygon class="st65" points="531.5,235.6 483.2,235.8 482.9,229 533,227.9 				"/>
			</g>
		</g>
		<path class="st66" d="M476.6,160.9c0.4,2.5,6.6,72.6,6.6,72.6h49.1l9.2-74.4L476.6,160.9z"/>
		<path class="st17" d="M472.1,193c0,0,0.1-31.1,6-37.4l-1.4-37.3c-15.1,8-33.4,84.6-33.1,92.6c0.4,8.6,2.3,15.3,8.8,15.7
			c12.7,0.8,71.9-5.2,71.9-5.2l12.2-23L472.1,193z"/>
		<path class="st17" d="M557.7,228.8c-3.4,0.3-9.3,0-16.4-0.6c-25.3-2.2-66.2-8.7-66.2-8.7l1.5-16.1l74.2-6.7l-4.1-54l-8-24.6
			c0,0,0,0,0,0c0.3,0.1,0.5,0.4,0.8,0.7c4.4,4.4,11,24.6,16,46.4C562.3,195.2,566.2,228,557.7,228.8"/>
		<path class="st5" d="M495,169.6h-3.3c-0.4,0-0.7,0.2-0.8,0.6c-0.1,0.3-0.4,0.6-0.8,0.6h-3.7c-0.5,0-0.9,0.4-0.9,0.9v0.6
			c0,0.5,0.4,0.9,0.9,0.9h2.9c0.4,0,0.7-0.2,0.8-0.6c0.1-0.3,0.4-0.6,0.8-0.6h4.1c0.5,0,0.9-0.4,0.9-0.9v-0.6
			C495.8,170,495.4,169.6,495,169.6"/>
		<path class="st5" d="M484.3,176.8c0,0.5,0.4,0.9,0.9,0.9h2.5c0.4,0,0.7-0.2,0.8-0.6c0.1-0.3,0.4-0.6,0.8-0.6h5.6
			c0.5,0,0.9-0.4,0.9-0.9v-0.6c0-0.5-0.4-0.9-0.9-0.9h-4.9c-0.4,0-0.7,0.2-0.8,0.6c-0.1,0.3-0.4,0.6-0.8,0.6h-3.3
			c-0.5,0-0.9,0.4-0.9,0.9"/>
		<path class="st58" d="M515.4,196.6c0,0,6.2,13,6.4,12.3c0.2-0.7,14.7-10.2,14.7-10.2s6.5-5.1,3.9-7.6c-2.6-2.5,1.1-6.9,0.6-8.9
			c-1.1-4.9-1.8-5.5-1.8-5.5l-2.7,7.2l-8.2,1c0,0,0-7.2-1.8-8.2c-1.7-1-4,12.9-4,12.9L515.4,196.6z"/>
		<g>
			<g>
				<defs>
					<rect id="SVGID_101_" x="443.6" y="208.8" width="121.8" height="20.1"/>
				</defs>
				<clipPath id="SVGID_102_">
					<use xlink:href="#SVGID_101_"  style="overflow:visible;"/>
				</clipPath>
				<path class="st67" d="M558.3,221.6c-6,0.6-19.8-0.7-34.5-2.5l-2-10.3l-10,2.2l-36.2,2.6l-19,1.4c-4.7,0.3-9.3-1.1-13-4l0.5,6
					c0.6,3.1,2.5,9.6,8.2,9.6c1.3,0,5.6,0.3,15.1-0.3c10.7-0.7,23.8-1.7,34.8-2.7c20.5,2.9,46.5,6,55.5,5.2
					c5.4-0.5,7.5-7.8,7.8-17.6C564.5,217.2,562.3,221.2,558.3,221.6"/>
			</g>
		</g>
		<g>
			<g>
				<defs>
					<rect id="SVGID_103_" x="812" y="206.8" width="15" height="49.2"/>
				</defs>
				<clipPath id="SVGID_104_">
					<use xlink:href="#SVGID_103_"  style="overflow:visible;"/>
				</clipPath>
				<path class="st68" d="M821.4,222.7l-9.4-15.9c0.3,6.5,1.9,13.1,2.7,19.7c0.6,1,1.2,1.8,1.4,2.4C820.8,239,827,256,827,256
					L821.4,222.7z"/>
			</g>
		</g>
		<g>
			<g>
				<defs>
					<rect id="SVGID_105_" x="808.6" y="157.8" width="14.9" height="34.7"/>
				</defs>
				<clipPath id="SVGID_106_">
					<use xlink:href="#SVGID_105_"  style="overflow:visible;"/>
				</clipPath>
				<path class="st69" d="M812,179.3c0.2,2.5,0.1,4.9,0.6,7.3c0,0.1,0,0.1,0,0.2c2.9,1.4,7.8,3.9,10.9,5.7c-1.7-1.2-4.6-5.4-4.1-6
					c-1.2-0.7-3.4-3.7-4.1-4.7c-0.5-0.7-0.6-1.4-0.7-2.2c-0.1-1.4-0.4-2.4-0.9-3.7c-0.7-1.6-1.2-3.4-1.1-5.1c-0.3-0.2-0.6-0.5-1-0.8
					c-0.7-0.6-2.7-11.3-3-12.2C808.3,161.7,811.7,175.4,812,179.3"/>
			</g>
		</g>
		<g class="st39">
			<g>
				<defs>
					<rect id="SVGID_107_" x="561.9" y="246.9" width="21" height="8.5"/>
				</defs>
				<clipPath id="SVGID_108_">
					<use xlink:href="#SVGID_107_"  style="overflow:visible;"/>
				</clipPath>
				<path class="st70" d="M569.5,254.3c3-0.3,5.4-2.2,8.2-2.9c0.9-0.2,1.7-0.4,2.6-0.6c1.5-1.3,2.2-2.8,2.6-3.8
					c-2.7,1.2-5.6,2.2-8.5,2.6c-3.7,0.5-8.1,1.5-11.9,1.1l-0.6,4.8C564,254.1,566.9,254.5,569.5,254.3"/>
			</g>
		</g>
	</g>
</g>
</svg>
