<?xml version="1.0" encoding="UTF-8"?>
<svg width="850px" height="492px" viewBox="0 0 850 492" version="1.1" xmlns="http://www.w3.org/2000/svg" xmlns:xlink="http://www.w3.org/1999/xlink">
    <!-- Generator: Sketch 53.2 (72643) - https://sketchapp.com -->
    <title>Group 2</title>
    <desc>Created with Sketch.</desc>
    <defs>
        <rect id="path-1" x="0" y="0" width="871" height="502"></rect>
        <linearGradient x1="50.0367867%" y1="5.96397009%" x2="50.0367867%" y2="102.888155%" id="linearGradient-3">
            <stop stop-color="#FFFFFF" offset="0%"></stop>
            <stop stop-color="#000000" stop-opacity="0.127540428" offset="100%"></stop>
        </linearGradient>
        <linearGradient x1="321.924884%" y1="37.5953356%" x2="-40.8144186%" y2="53.0261324%" id="linearGradient-4">
            <stop stop-color="#FFFFFF" offset="0%"></stop>
            <stop stop-color="#000000" offset="100%"></stop>
        </linearGradient>
        <linearGradient x1="22.3390083%" y1="100%" x2="83.4955293%" y2="100%" id="linearGradient-5">
            <stop stop-color="#060606" stop-opacity="0.992078234" offset="0%"></stop>
            <stop stop-color="#000000" stop-opacity="0" offset="100%"></stop>
        </linearGradient>
        <linearGradient x1="50.0080825%" y1="-20.8507075%" x2="50.0080825%" y2="89.2698113%" id="linearGradient-6">
            <stop stop-color="#FFFFFF" offset="0%"></stop>
            <stop stop-color="#000000" offset="100%"></stop>
        </linearGradient>
        <linearGradient x1="0.195953757%" y1="50.2740201%" x2="100.128035%" y2="50.2740201%" id="linearGradient-7">
            <stop stop-color="#FFFFFF" offset="0%"></stop>
            <stop stop-color="#000000" offset="100%"></stop>
        </linearGradient>
        <linearGradient x1="153.251445%" y1="50.2740201%" x2="-126.507514%" y2="50.2740201%" id="linearGradient-8">
            <stop stop-color="#FFFFFF" offset="0%"></stop>
            <stop stop-color="#000000" offset="100%"></stop>
        </linearGradient>
        <linearGradient x1="47.3908189%" y1="-11.5281783%" x2="51.4635236%" y2="155.21829%" id="linearGradient-9">
            <stop stop-color="#FFFFFF" offset="0%"></stop>
            <stop stop-color="#000000" offset="100%"></stop>
        </linearGradient>
        <linearGradient x1="50%" y1="0%" x2="50%" y2="100%" id="linearGradient-10">
            <stop stop-color="#F3EFEF" offset="0%"></stop>
            <stop stop-color="#E4DBDB" offset="100%"></stop>
        </linearGradient>
        <linearGradient x1="-39.2169331%" y1="50.2561054%" x2="100%" y2="50.2561054%" id="linearGradient-11">
            <stop stop-color="#070606" stop-opacity="0.122951267" offset="0%"></stop>
            <stop stop-color="#F1DBCB" offset="100%"></stop>
        </linearGradient>
        <linearGradient x1="48.1849396%" y1="-8.66922844%" x2="53.1588973%" y2="172.275399%" id="linearGradient-12">
            <stop stop-color="#FFFFFF" offset="0%"></stop>
            <stop stop-color="#000000" offset="100%"></stop>
        </linearGradient>
        <linearGradient x1="49.9728418%" y1="-16.5448607%" x2="49.9728418%" y2="204.071211%" id="linearGradient-13">
            <stop stop-color="#FFFFFF" offset="0%"></stop>
            <stop stop-color="#000000" offset="100%"></stop>
        </linearGradient>
        <linearGradient x1="161.552478%" y1="46.2980346%" x2="-79.4690962%" y2="53.3091467%" id="linearGradient-14">
            <stop stop-color="#FFFFFF" stop-opacity="0" offset="0%"></stop>
            <stop stop-color="#000000" offset="100%"></stop>
        </linearGradient>
        <linearGradient x1="50.4657518%" y1="92.3014531%" x2="49.3646228%" y2="-7.40741431%" id="linearGradient-15">
            <stop stop-color="#FFFFFF" offset="0%"></stop>
            <stop stop-color="#000000" offset="100%"></stop>
        </linearGradient>
        <linearGradient x1="100%" y1="50.0133127%" x2="0%" y2="50.0133127%" id="linearGradient-16">
            <stop stop-color="#FFFFFF" stop-opacity="0.0333806818" offset="0%"></stop>
            <stop stop-color="#000000" offset="100%"></stop>
        </linearGradient>
        <linearGradient x1="49.9903141%" y1="-20.9490069%" x2="49.9903141%" y2="203.582511%" id="linearGradient-17">
            <stop stop-color="#FFFFFF" offset="0%"></stop>
            <stop stop-color="#000000" offset="75.6%"></stop>
        </linearGradient>
    </defs>
    <g id="Page-1" stroke="none" stroke-width="1" fill="none" fill-rule="evenodd">
        <g id="Group-2" transform="translate(-11.000000, -10.000000)">
            <mask id="mask-2" fill="white">
                <use xlink:href="#path-1"></use>
            </mask>
            <use id="Rectangle" fill-opacity="0" fill="#FFFFFF" xlink:href="#path-1"></use>
            <g id="Group" mask="url(#mask-2)" fill-rule="nonzero">
                <g transform="translate(149.000000, 110.000000)" id="Path">
                    <path d="M181.2,141.8 L167.3,140.6 L166.4,265.5 L29.3,265.5 L28.3,242.9 L28,234.5 L36.1,234.5 L33.9,220.6 L35,107 L32.1,136.2 L23.8,135.9 L6.9,131.3 L0.7,129.6 C0.7,129.6 7,56.4 24.1,43 C30.4,37.2 73.6,2 73.6,2 C82.1,-1.4 106.7,0.7 120,4.6 C120,4.6 159.7,35.3 163.3,39.9 L163.3,40.3 C177,58.6 181.2,141.8 181.2,141.8 Z" fill="#FDEBF0"></path>
                    <path d="M181.2,141.8 L167.3,140.6 L166.4,265.5 L29.3,265.5 L28.3,242.9 L28,234.5 L36.1,234.5 L33.9,220.6 L35,107 L32.1,136.2 L23.8,135.9 L6.9,131.3 L0.7,129.6 C0.7,129.6 7,56.4 24.1,43 C30.4,37.2 73.6,2 73.6,2 C82.1,-1.4 106.7,0.7 120,4.6 C120,4.6 159.7,35.3 163.3,39.9 L163.3,40.3 C177,58.6 181.2,141.8 181.2,141.8 Z" fill="url(#linearGradient-3)" opacity="0.25"></path>
                </g>
            </g>
            <path d="M221.9,569.4 L250.7,397.5 L256.4,481.6 L257,578 L312.2,570.3 C312.7,552.4 313,479 313,479 C313,479 315.9,388.7 315.4,375.5 L178.3,375.5 C176.9,399.4 188,545.9 185.5,582.4 L221.9,569.4 Z" id="Path" fill="#573493" fill-rule="nonzero" mask="url(#mask-2)"></path>
            <g id="Group" mask="url(#mask-2)" fill-rule="nonzero">
                <g transform="translate(226.000000, 90.000000)" id="Path">
                    <path d="M0.4,0.4 L0.4,28.1 C0.4,28.1 22.8,51.8 43.4,28.7 L41.6,0.4 L0.4,0.4 L0.4,0.4 Z" fill="#CFA38C"></path>
                    <path d="M0.4,0.4 L0.4,28.1 C0.4,28.1 22.8,51.8 43.4,28.7 L41.6,0.4 L0.4,0.4 L0.4,0.4 Z" fill="url(#linearGradient-4)" opacity="0.25"></path>
                </g>
            </g>
            <path d="M187.7,363.7 L187.4,361.9 L179.8,268.6 L181.3,245.6 L151.4,245 C151.4,245 152.8,255.5 154.2,267 C155.8,279.8 157.5,293.8 157.6,295.9 C157.7,299.8 166.6,340.3 181.3,372.4 L183,372.9 C184.5,369.8 186.4,366.9 187.7,363.7 Z" id="Path" fill="#D09F76" fill-rule="nonzero" mask="url(#mask-2)"></path>
            <g id="Group" mask="url(#mask-2)" fill-rule="nonzero">
                <g transform="translate(212.000000, 10.000000)">
                    <path d="M65.2,54.2 C68.3,78.5 50.5,97.4 39.6,97.4 C28.8,97.4 10,76.2 10,56.7 C10,37.2 23.3,21.4 39.6,21.4 C55.9,21.5 62.7,34.9 65.2,54.2 Z" id="Path" fill="#D09F76"></path>
                    <path d="M73.1,9.5 C69.4,5.4 65.9,5.6 61.8,6.8 C61.4,6.8 61,6.7 60.6,6.7 C59.8,3.2 55.6,2 52.6,3.3 C51.7,2.7 50.6,2.3 49.5,2.3 C47.3,0.3 43.6,-5.10702591e-15 41.4,2.4 C39.9,4 38.4,5.7 36.9,7.3 C35.7,7.2 34.5,7.3 33.4,7.7 C27.6,5.8 18.4,13.9 13.5,14.6 C8.9,15.3 8.4,19.9 10.4,23.1 C9.6,23.6 8.8,24 8.3,24.4 C0.8,30.4 1.9,45.6 1,54.6 C-1.3,79.4 19.5,107.2 38.3,107.8 C51.5,108.3 70.1,95.3 70.8,79.4 C71.1,72.7 73,67.3 64.7,63.1 C53.5,57.4 35.2,72.6 19.1,66.5 C17.9,66 12.3,64 10.6,59.1 C7.8,51.1 16.6,38.5 27,35.9 C34.1,34.1 41.9,35.7 57.4,38.9 C63.9,40.3 69.7,38.1 73.1,33.7 C73.7,33.2 74.3,32.6 74.8,31.8 C78.9,24.6 77.6,14.5 73.1,9.5 Z M51.2,74.8 C53.5,72.3 57.4,72.2 59.7,74.8 C60.7,76 60.1,77.9 58.4,78 C56.8,78 55.2,78.3 53.6,78.3 C53.2,78.3 52.9,78.2 52.6,78 C51.2,78 50,76.2 51.2,74.8 Z" id="Shape" fill="#573493"></path>
                </g>
            </g>
            <g id="Group" mask="url(#mask-2)" fill="#FFFFFF" fill-rule="nonzero">
                <g transform="translate(229.000000, 176.000000)">
                    <path d="M31.2,0.2 L21.5,0.2 C20.4,0.2 19.5,0.9 19.1,1.9 L19.1,1.9 C18.8,2.9 17.8,3.6 16.7,3.6 L6,3.6 C4.6,3.6 3.5,4.7 3.5,6.1 L3.5,7.8 C3.5,9.2 4.6,10.3 6,10.3 L14.5,10.3 C15.6,10.3 16.5,9.6 16.9,8.6 L16.9,8.6 C17.2,7.6 18.2,6.9 19.3,6.9 L31.2,6.9 C32.6,6.9 33.7,5.8 33.7,4.4 L33.7,2.7 C33.7,1.3 32.6,0.2 31.2,0.2 Z" id="XMLID_18_"></path>
                    <path d="M0.2,21.1 C0.2,22.5 1.3,23.6 2.7,23.6 L10.1,23.6 C11.2,23.6 12.1,22.9 12.5,21.9 C12.8,20.9 13.8,20.2 14.9,20.2 L31.3,20.2 C32.7,20.2 33.8,19.1 33.8,17.7 L33.8,16 C33.8,14.6 32.7,13.5 31.3,13.5 L17.2,13.5 C16.1,13.5 15.2,14.2 14.8,15.2 C14.5,16.2 13.5,16.9 12.4,16.9 L2.8,16.9 C1.4,16.9 0.3,18 0.3,19.4" id="XMLID_17_"></path>
                </g>
            </g>
            <polygon id="Path" fill="#BCB9B8" fill-rule="nonzero" mask="url(#mask-2)" points="177 344.5 176.6 344.5 176.8 339.7"></polygon>
            <polygon id="Path" fill="#BCB9B8" fill-rule="nonzero" mask="url(#mask-2)" points="299.9 191.8 306.3 236.3 309.2 258.1 323.3 310"></polygon>
            <path d="M116.5,110.5 C126,110.3 131.8,100.4 132.9,98 C134.6,94.3 131.4,90.8 133.4,86.6 C135.7,81.7 141.6,83 143,79.1 C144.2,75.9 144,69.1 137.5,58.3 C132.2,49.5 118.3,44 108.7,48 C107.2,48.6 104.1,50 101.6,53.1 C94.3,62.4 97.7,80.4 104.8,91.1 C108.9,97.4 111.8,108.4 116.5,110.5 Z" id="Path" fill="#573493" fill-rule="nonzero" mask="url(#mask-2)"></path>
            <path d="M76.7,118.7 C72.8,119.6 68.8,119.2 65.1,117.7 C58.8,115.1 57,112.4 56.6,110.2 C56,106 61,103.6 60.3,98.7 C59.4,93.1 52.2,92.5 52,88.3 C51.8,84.8 49.6,63.8 61.2,55.2 C70.6,48.2 77.2,66.7 81.2,65.4 C82,65.1 93.6,61.5 103.1,68.5 C104.6,69.6 107.7,71.9 109.4,75.8 C114.4,87.3 103.8,104.1 91.7,112.3 C86.6,115.7 81.5,117.6 76.7,118.7 Z" id="Path" fill="#573493" fill-rule="nonzero" mask="url(#mask-2)"></path>
            <path d="M463.8,424.2 C463.9,424.2 463.9,408.6 463.8,408.6 C463.7,408.5 463.7,424.2 463.8,424.2 L463.8,424.2 Z" id="Path" fill="#9E8BC2" fill-rule="nonzero" mask="url(#mask-2)"></path>
            <path d="M708.2,355.4 C707.9,352.6 702.9,347.1 702.9,347.1 L700.5,341.5 L687.6,338.4 C687.6,338.4 683.9,356.1 683.9,358.8 C683.9,361.5 687.6,377.7 688.2,378.8 C688.8,379.8 690.9,378.7 690.9,378.7 L690.5,375.2 C690.5,375.2 693.4,380.7 693.7,381 C694,381.3 695.9,380.7 695.9,380.7 C695.9,380.7 696.7,382.2 697.1,382.3 C697.5,382.4 699.2,381.3 699.2,381.3 L698.6,375.7 C698.6,375.7 701.2,380.7 701.5,380.7 C701.8,380.7 704.1,380 704.1,380 L704.2,363.7 C704.2,363.7 704.4,363.2 704.6,362.4 C705.9,365.1 707.6,368.5 708.5,368.5 C709.8,368.5 708.5,358.2 708.2,355.4 Z" id="Path" fill="#8F582B" fill-rule="nonzero" mask="url(#mask-2)"></path>
            <path d="M794.6,103.7 C783.9,100.6 757.7,100.2 750.9,103 C730.1,111.4 697.2,172.6 697.4,186.9 C697.4,190.8 677,275.7 677.8,306.7 C678.1,317.8 684,322.9 684.2,330.6 C684.4,338.8 684.5,344 684.5,344 L703.7,344 L709.6,296.6 C709.9,297 710.2,297.4 710.6,297.7 L714.7,302 L715.1,315.1 L825.4,315.1 L829.1,301.5 C836,298 839.9,290.5 839,282.8 L829.1,223.4 C829.1,224.5 851.2,236.5 859.9,211.7 C863.3,202.2 817,110.3 794.6,103.7 Z" id="Path" fill="#F8B9CD" fill-rule="nonzero" mask="url(#mask-2)"></path>
            <path d="M729.2,171.9 C728.3,174.6 727.5,177.2 726.6,179.9 L718.9,233.1 C719.1,242 716.6,250.6 715.1,259.3 L714.4,264.4 C714.3,265.6 714.2,266.7 714.1,267.9 C713.7,276 713.3,283.6 710.6,290.8 L709.8,296.5 L715.6,302.1 L715.2,314.4 L716.2,310.3 C716,308.6 716.1,306.8 716.3,304.9 C717.1,299.1 718,293.3 718.9,287.5 C719.9,281.1 722.2,274.9 723.6,268.6 C725.1,261.7 726.1,254.7 726.7,247.6 C728.8,223.7 725.6,199.5 729.1,175.7 L729.2,171.9 Z" id="Path" fill-opacity="0.3" fill="#CC3E7B" fill-rule="nonzero" mask="url(#mask-2)"></path>
            <g id="Group" mask="url(#mask-2)">
                <g transform="translate(728.000000, 98.000000)">
                    <path d="M22.9,5 C21.7,27.6 23.4,97.7 20,136.1 C17.2,167.7 6.6,202.8 0.3,217 L88.6,217 C83.9,202.8 76.7,173.3 73.7,140.6 C70,99 67.4,28.9 66.6,5.7 C55.9,2.6 46.3,0.4 40.9,0.4 C37.5,0.5 27.5,3.5 22.9,5 Z" id="Path" fill="#DAD4EA" fill-rule="nonzero"></path>
                    <g id="Group" stroke-width="1" fill="none" fill-rule="evenodd" transform="translate(32.000000, 45.000000)">
                        <path d="M21.9,0.4 L15.2,0.4 C14.4,0.4 13.8,0.9 13.6,1.5 L13.6,1.5 C13.4,2.2 12.7,2.7 12,2.7 L4.6,2.7 C3.6,2.7 2.9,3.5 2.9,4.4 L2.9,5.6 C2.9,6.6 3.7,7.3 4.6,7.3 L10.4,7.3 C11.2,7.3 11.8,6.8 12,6.2 L12,6.2 C12.2,5.5 12.9,5 13.6,5 L21.8,5 C22.8,5 23.5,4.2 23.5,3.3 L23.5,2.1 C23.6,1.2 22.8,0.4 21.9,0.4 Z" id="XMLID_16_" fill="#573493" fill-rule="nonzero"></path>
                        <path d="M0.5,14.8 C0.5,15.8 1.3,16.5 2.2,16.5 L7.3,16.5 C8.1,16.5 8.7,16 8.9,15.3 C9.1,14.6 9.8,14.1 10.5,14.1 L21.8,14.1 C22.8,14.1 23.5,13.3 23.5,12.4 L23.5,11.2 C23.5,10.2 22.7,9.5 21.8,9.5 L12.1,9.5 C11.3,9.5 10.7,10 10.5,10.7 C10.3,11.4 9.6,11.9 8.9,11.9 L2.3,11.9 C1.3,11.9 0.6,12.7 0.6,13.6" id="XMLID_15_" fill="#573493" fill-rule="nonzero"></path>
                    </g>
                </g>
            </g>
            <path d="M715.2,315 C710.9,386.9 697.4,569.4 697.4,569.4 L716.9,569.4 L765.9,332.5 L773.5,332.6 L794.4,569.3 L813.2,569.3 C813.2,569.3 829.7,423 825.6,314.9 L715.2,314.9 L715.2,315 Z" id="Path" fill="#573493" fill-rule="nonzero" mask="url(#mask-2)"></path>
            <g id="Group" mask="url(#mask-2)" fill-rule="nonzero">
                <g transform="translate(754.000000, 79.000000)" id="Path">
                    <path d="M0.8,0.5 L0.8,22.8 C0.8,22.8 18.8,41.9 35.4,23.2 L34,0.4 L0.8,0.4 L0.8,0.5 Z" fill="#8F582B"></path>
                    <path d="M0.8,0.5 L0.8,22.8 C0.8,22.8 18.8,41.9 35.4,23.2 L34,0.4 L0.8,0.4 L0.8,0.5 Z" fill-opacity="0.5" fill="url(#linearGradient-5)" opacity="0.25"></path>
                </g>
            </g>
            <path d="M771.9,27.7 C752.5,28.2 749.7,49.8 750,68 C750.3,86.2 758.3,98.2 770.6,99.1 C782.9,100 791.8,87.7 795.5,71.1 C799.3,54.4 803,26.7 771.9,27.7 Z" id="Path" fill="#8F582B" fill-rule="nonzero" mask="url(#mask-2)"></path>
            <path d="M752.8,63.4 C752.8,63.4 752.8,56 746.6,57.8 C740.4,59.6 746,76.9 752.8,75.7 C759.5,74.5 752.8,63.4 752.8,63.4 Z" id="Path" fill="#8F582B" fill-rule="nonzero" mask="url(#mask-2)"></path>
            <path d="M792,68.6 C792,68.6 793,61.3 798.8,63.9 C804.7,66.5 796.9,82.9 790.4,80.8 C783.9,78.7 792,68.6 792,68.6 Z" id="Path" fill="#8F582B" fill-rule="nonzero" mask="url(#mask-2)"></path>
            <polygon id="Path" fill="#EE488F" fill-rule="nonzero" mask="url(#mask-2)" points="803.6 172.7 798 147.7 774.2 152.4 787.9 198.7 808.6 191.9"></polygon>
            <path d="M817.1,202.3 C820,199.4 817.9,186.3 817.9,186.3 C817.9,186.3 811.4,178.1 811,174.9 C810.6,171.7 805.3,163.9 803.5,164.6 C801.7,165.4 803.5,172.7 803.5,172.7 L777.8,169.5 C772.1,168.8 774.6,172.4 774.9,174.1 C775.3,175.9 781.8,178 781.8,178 C781.8,178 778.8,182.8 779.6,184 C780.3,185.1 781.8,187.6 781.8,187.6 C781.8,187.6 778.8,193.3 779.9,194.4 C781,195.5 784,195.8 784,195.8 C784,195.8 784.8,199.9 785.6,200.3 C788.6,201.8 814.3,205.1 817.1,202.3 Z" id="Path" fill="#8F582B" fill-rule="nonzero" mask="url(#mask-2)"></path>
            <path d="M750.2,58 C750.2,58 751.9,64.1 751.7,69 L754,70.1 L754,55.6 C754,55.6 760.6,51.7 760.2,44.2 C760.2,44.2 813.1,55.1 813.8,47.1 C814.5,39.1 800.8,38 800.8,38 C800.8,38 808.2,31.9 803.3,23.9 C798.4,15.9 789.2,20.7 789.2,20.7 C789.2,20.7 788.5,15.7 784.7,14.5 C781,13.3 778.6,18.6 778.6,18.6 C778.6,18.6 758.5,26.8 753.8,28.6 C749.1,30.4 750,37.3 750,37.3 C750,37.3 742.9,41.8 743.7,45 C744.5,48.2 746.4,57.9 746.4,57.9 C746.4,57.9 749.1,57.1 750.2,58 Z" id="Path" fill="#573493" fill-rule="nonzero" mask="url(#mask-2)"></path>
            <path d="M789.3,46.7 C789.3,46.7 786.8,56 793,57.5 L793,67.5 L794.3,68.4 C794.3,68.4 795.1,64.4 797.2,63.3 L800.8,47.5 L789.3,46.7 Z" id="Path" fill="#573493" fill-rule="nonzero" mask="url(#mask-2)"></path>
            <path d="M162.3,382.9 C162.6,380.1 167.6,374.6 167.6,374.6 L170,369 L182.9,365.9 C182.9,365.9 186.6,383.6 186.6,386.3 C186.6,389 182.9,405.2 182.3,406.3 C181.7,407.3 179.6,406.2 179.6,406.2 L180,402.7 C180,402.7 177.1,408.2 176.8,408.5 C176.5,408.8 174.6,408.2 174.6,408.2 C174.6,408.2 173.8,409.7 173.4,409.8 C173,409.9 171.3,408.8 171.3,408.8 L171.9,403.2 C171.9,403.2 169.3,408.2 169,408.2 C168.7,408.2 166.4,407.5 166.4,407.5 L166.3,391.2 C166.3,391.2 166.1,390.7 165.9,389.9 C164.6,392.6 162.9,396 162,396 C160.7,396 162.1,385.7 162.3,382.9 Z" id="Path" fill="#EFC7B1" fill-rule="nonzero" mask="url(#mask-2)"></path>
            <path d="M11.2,231 C11.2,221 52.6,137.8 74.9,131.2 C85.6,128.1 111.8,127.7 118.6,130.5 C139.4,138.9 172.3,200.1 172.1,214.4 C172.1,218.3 192.5,303.2 191.7,334.2 C191.4,345.3 185.5,350.4 185.3,358.1 C185.1,366.3 185,371.5 185,371.5 L165.8,371.5 L159.9,324.1 C159.6,324.5 159.3,324.9 158.9,325.2 L154.8,329.5 L154.4,342.6 L44,342.6 L40.3,329 C33.4,325.5 29.5,318 30.4,310.3 L34.3,277.7 C25.3,275.2 11.2,238.3 11.2,231 Z" id="Path" fill="#573493" fill-rule="nonzero" mask="url(#mask-2)"></path>
            <g id="Group" mask="url(#mask-2)">
                <g transform="translate(53.000000, 125.000000)">
                    <path d="M66.6,5.5 C67.8,28.1 66.1,98.2 69.5,136.6 C72.3,168.2 82.9,203.3 89.2,217.5 L0.9,217.5 C5.6,203.3 12.8,173.8 15.8,141.1 C19.5,99.5 22.1,29.4 22.9,6.2 C33.6,3.1 43.2,0.9 48.6,0.9 C52.1,1 62,4 66.6,5.5 Z" id="Path" fill="#EE488F" fill-rule="nonzero"></path>
                    <g id="Group" stroke-width="1" fill="none" fill-rule="evenodd" transform="translate(33.000000, 45.000000)">
                        <path d="M0.9,2.7 L0.9,3.9 C0.9,4.9 1.7,5.6 2.6,5.6 L10.8,5.6 C11.6,5.6 12.2,6.1 12.4,6.8 L12.4,6.8 C12.6,7.5 13.3,7.9 14,7.9 L19.8,7.9 C20.8,7.9 21.5,7.1 21.5,6.2 L21.5,5 C21.5,4 20.7,3.3 19.8,3.3 L12.4,3.3 C11.6,3.3 11,2.8 10.8,2.1 L10.8,2.1 C10.6,1.4 9.9,1 9.2,1 L2.5,1 C1.7,0.9 0.9,1.7 0.9,2.7 Z" id="XMLID_14_" fill="#FFFFFF" fill-rule="nonzero"></path>
                        <path d="M24,14.2 C24,13.2 23.2,12.5 22.3,12.5 L15.7,12.5 C14.9,12.5 14.3,12 14.1,11.3 C13.9,10.6 13.2,10.1 12.5,10.1 L2.8,10.1 C1.8,10.1 1.1,10.9 1.1,11.8 L1.1,13 C1.1,14 1.9,14.7 2.8,14.7 L14.1,14.7 C14.9,14.7 15.5,15.2 15.7,15.9 C15.9,16.6 16.6,17.1 17.3,17.1 L22.4,17.1 C23.4,17.1 24.1,16.3 24.1,15.4" id="XMLID_13_" fill="#FFFFFF" fill-rule="nonzero"></path>
                    </g>
                </g>
            </g>
            <g id="Group" mask="url(#mask-2)" fill-rule="nonzero">
                <g transform="translate(44.000000, 342.000000)" id="Path">
                    <path d="M111.3,0.5 C115.6,72.4 129.1,254.9 129.1,254.9 L109.6,254.9 L60.6,18 L32.2,254.9 L13.4,254.9 C13.4,254.9 -3.1,108.6 1,0.5 L111.3,0.5 Z" fill="#573493"></path>
                    <path d="M111.3,0.5 C115.6,72.4 129.1,254.9 129.1,254.9 L109.6,254.9 L60.6,18 L32.2,254.9 L13.4,254.9 C13.4,254.9 -3.1,108.6 1,0.5 L111.3,0.5 Z" fill="url(#linearGradient-6)" opacity="0.25"></path>
                </g>
            </g>
            <g id="Group" mask="url(#mask-2)" fill-rule="nonzero">
                <g transform="translate(81.000000, 106.000000)" id="Path">
                    <path d="M34.7,1 L34.7,23.3 C34.7,23.3 16.7,42.4 0.1,23.7 L1.5,0.9 L34.7,0.9 L34.7,1 Z" fill="#EFC7B1"></path>
                    <path d="M34.7,1 L34.7,23.3 C34.7,23.3 16.7,42.4 0.1,23.7 L1.5,0.9 L34.7,0.9 L34.7,1 Z" fill="url(#linearGradient-7)"></path>
                    <path d="M34.7,1 L34.7,23.3 C34.7,23.3 16.7,42.4 0.1,23.7 L1.5,0.9 L34.7,0.9 L34.7,1 Z" fill="#EFC7B1"></path>
                </g>
            </g>
            <g id="Group" mask="url(#mask-2)" fill-rule="nonzero">
                <g transform="translate(81.000000, 106.000000)" id="Path">
                    <path d="M34.7,1 L34.7,23.3 C34.7,23.3 16.7,42.4 0.1,23.7 L1.5,0.9 L34.7,0.9 L34.7,1 Z" fill="#DFB28B"></path>
                    <path d="M34.7,1 L34.7,23.3 C34.7,23.3 16.7,42.4 0.1,23.7 L1.5,0.9 L34.7,0.9 L34.7,1 Z" fill="url(#linearGradient-8)" opacity="0.15"></path>
                </g>
            </g>
            <path d="M99.9,126.6 C87.6,127.5 78.7,115.2 75,98.6 C71.3,82 67.6,54.3 98.7,55.2 C118.1,55.8 120.9,77.4 120.6,95.5 C120.2,113.7 112.2,125.7 99.9,126.6" id="Path" fill="#DFB28B" fill-rule="nonzero" mask="url(#mask-2)"></path>
            <path d="M114.6,85 C114.6,85 114.6,77.6 120.8,79.4 C127,81.2 121.4,98.5 114.6,97.3 C107.9,96.1 114.6,85 114.6,85 Z" id="Path" fill="#DFB28B" fill-rule="nonzero" mask="url(#mask-2)"></path>
            <path d="M75.4,90.2 C75.4,90.2 74.4,82.9 68.6,85.5 C62.7,88.1 70.5,104.5 77,102.4 C83.5,100.3 75.4,90.2 75.4,90.2 Z" id="Path" fill="#DFB28B" fill-rule="nonzero" mask="url(#mask-2)"></path>
            <path d="M695.3,320 L642.4,329 L589.5,320 L589,576.9 L601.2,576.9 L641.8,347.2 L645.5,576.9 L657.7,576.9 C657.7,576.9 678.9,480.2 679.8,471.4 C680.7,462.6 676.6,435.4 676.6,435.4 L695.3,320 Z" id="Path" fill="#573493" fill-rule="nonzero" mask="url(#mask-2)"></path>
            <g id="Group" mask="url(#mask-2)" fill-rule="nonzero">
                <g transform="translate(601.000000, 57.000000)" id="Path">
                    <path d="M0,76.3 C0,76.3 3.6,41.4 8.3,23.8 C13,6.2 31.8,-0.1 43.3,0.9 C54.8,2 76.5,6.6 76.8,33.5 C77.1,60.3 80.6,77.9 80.6,77.9 L0,76.3 Z" fill="#F8BDCF"></path>
                    <path d="M0,76.3 C0,76.3 3.6,41.4 8.3,23.8 C13,6.2 31.8,-0.1 43.3,0.9 C54.8,2 76.5,6.6 76.8,33.5 C77.1,60.3 80.6,77.9 80.6,77.9 L0,76.3 Z" fill="url(#linearGradient-9)" opacity="0.25"></path>
                </g>
            </g>
            <path d="M670.8,242.5 L680.9,198.2 C682.8,196.4 684.3,194.4 685.5,192.3 C682.3,186.6 680.5,179.6 678.3,174.3 C673.9,163.7 666.3,148.4 666.7,136.5 C655.9,131.8 645.4,127.7 641.1,127.7 C636.3,127.7 623.8,133.4 612.9,138.7 C612.9,139 612.8,139.4 612.7,139.8 C610.9,144.3 608.7,148.7 605.4,152.3 C602.5,155.5 598.7,157.4 594.8,159.1 L594.8,169.5 C591.8,187.1 605.4,198.7 605.4,198.7 L612,242.2 C594.6,267.6 585.3,306.1 580.6,335.5 L706.9,335.5 C695.7,269.2 670.8,242.5 670.8,242.5 Z" id="Path" fill="#DAD4EA" fill-rule="nonzero" mask="url(#mask-2)"></path>
            <path d="M578.3,191.7 C572.9,225.7 567.7,269.8 566.9,288.4 C566.7,292.1 570.9,301 570.9,301 C570.7,305.3 570.4,310.1 570.1,315.2 L611.1,315.2 L615.2,137.7 C600.4,153.5 590.3,173.6 578.3,191.7 Z" id="Path" fill="#8F79B7" fill-rule="nonzero" mask="url(#mask-2)"></path>
            <path d="M633,114.6 L633,136.7 C633,136.7 644.2,155.7 654.5,137.1 L653.6,114.5 L633,114.5 L633,114.6 Z" id="Path" fill="url(#linearGradient-10)" fill-rule="nonzero" mask="url(#mask-2)"></path>
            <path d="M633,114.6 L633,136.7 C633,136.7 644.2,155.7 654.5,137.1 L653.6,114.5 L633,114.5 L633,114.6 Z" id="Path" fill="url(#linearGradient-11)" fill-rule="nonzero" opacity="0.25" mask="url(#mask-2)"></path>
            <path d="M637.5,62.1 C618.4,64.6 615.3,86.7 619.9,104.1 C623.3,117.1 631.1,130.3 643.4,129.9 C655.7,129.5 663,112.8 665.2,102.6 C668.7,86.1 668.1,58.1 637.5,62.1 Z" id="Path" fill="#F1DBCB" fill-rule="nonzero" mask="url(#mask-2)"></path>
            <g id="Group" mask="url(#mask-2)" fill-rule="nonzero">
                <g transform="translate(610.000000, 59.000000)" id="Path">
                    <path d="M54.1,7.3 C52.6,6.6 51,6.4 49.3,6.3 C48.9,5.1 48.2,4.1 47,3.5 C40.3,-0.1 24.5,0.4 17.6,3.5 C10.7,6.6 2.6,19.3 0.8,26.7 C-1.1,34.5 0.8,42.7 2.7,50.6 C3.3,52.9 4,55.4 6,56.5 C7.7,57.4 9.8,57.1 11.7,56.6 C22.4,53.9 32.3,48.1 39.9,40.2 C41,39.1 42,37.8 43,36.6 C43,36.6 43,36.6 43,36.6 C45.6,43.9 50.3,50.5 56.4,55.4 C57.1,56 57.9,56.5 58.7,56.5 C60.1,56.4 60.9,55 61.5,53.7 C63.7,49 65.9,44.1 66,38.9 C66.3,33.5 58.8,9.4 54.1,7.3 Z" fill="#F8BDCF"></path>
                    <path d="M54.1,7.3 C52.6,6.6 51,6.4 49.3,6.3 C48.9,5.1 48.2,4.1 47,3.5 C40.3,-0.1 24.5,0.4 17.6,3.5 C10.7,6.6 2.6,19.3 0.8,26.7 C-1.1,34.5 0.8,42.7 2.7,50.6 C3.3,52.9 4,55.4 6,56.5 C7.7,57.4 9.8,57.1 11.7,56.6 C22.4,53.9 32.3,48.1 39.9,40.2 C41,39.1 42,37.8 43,36.6 C43,36.6 43,36.6 43,36.6 C45.6,43.9 50.3,50.5 56.4,55.4 C57.1,56 57.9,56.5 58.7,56.5 C60.1,56.4 60.9,55 61.5,53.7 C63.7,49 65.9,44.1 66,38.9 C66.3,33.5 58.8,9.4 54.1,7.3 Z" fill="url(#linearGradient-12)" opacity="0.25"></path>
                </g>
            </g>
            <path d="M708.7,315.2 C708.5,311.1 708.2,307.2 708,303.6 C708,303.6 710.7,292.2 710.5,288 C709.1,256.7 672.8,142.3 666.7,136.5 C660.6,130.7 666.7,136.5 666.7,136.5 L668.8,315.2 L708.7,315.2 L708.7,315.2 Z" id="Path" fill="#8F79B7" fill-rule="nonzero" mask="url(#mask-2)"></path>
            <g id="Group" mask="url(#mask-2)" fill-rule="nonzero">
                <g transform="translate(666.000000, 136.000000)" id="Path">
                    <path d="M0.7,0.5 C7,4.8 23.7,19.3 26.5,29 C29.3,38.7 56,64.7 52.7,74.2 C49.4,83.7 52.2,86.6 56,98.5 C59.8,110.4 44.2,119.6 35.2,117.1 C26.2,114.6 6.4,102.4 6.4,102.4 L5.6,83.5 L15.4,84.9 L0.7,0.5 Z" fill="#8F79B7"></path>
                    <path d="M31.5,113.5 C29.4,112.3 27,111.3 24.9,110.2 C22.3,108.8 19.7,108.6 16.9,108.5 C17.3,108.8 17.6,109 18.1,109.2 C19.9,110.1 21.6,111.1 23.2,112.5 C26.8,115.7 29.3,120 33.7,122.2 C35.7,123.2 37.9,123.8 40,124.5 C39.2,121.3 38.4,118.2 38.1,117 C35.8,116.2 33.9,114.9 31.5,113.5 Z" fill="#6D4FA1" opacity="0.6"></path>
                </g>
            </g>
            <path d="M615.1,137.6 C608.9,141 595.3,145.1 592.4,154.8 C589.6,164.5 573.8,179.1 568.6,191.3 C564.6,200.5 564.3,212.7 560.5,224.5 C556.7,236.4 568.7,255.5 577.7,253.1 C586.7,250.6 606.5,238.4 606.5,238.4 L607.3,219.5 L597.5,220.9 L615.1,137.6 Z" id="Path" fill="#8F79B7" fill-rule="nonzero" mask="url(#mask-2)"></path>
            <polygon id="Path" fill="#EE488F" fill-rule="nonzero" mask="url(#mask-2)" points="585.9 222.9 589.1 171.4 684.8 171.6 685 232.6 585.9 231.6"></polygon>
            <path d="M696.6,219.1 C696.6,219.1 692.9,210.4 685,210.5 L685.1,218.4 C685.1,218.4 665.1,214.7 664.9,215.7 C664.9,215.8 664.9,216 664.9,216.1 C664.8,218.7 666.8,221 669.4,221.4 L674.2,222.2 C674.2,222.2 672.7,225.1 673.2,226 C673.7,226.9 675.1,227.9 675.1,227.9 C675.1,227.9 675,230.7 675.6,233.2 C676.3,235.8 675.7,238 677.3,240 C678.9,242 693.6,239.5 695.6,238.9 C695.7,238.9 695.9,238.8 696.2,238.7 C704.3,234.7 704.5,223.3 696.6,219.1 L696.6,219.1 Z" id="Path" fill="#EACBC6" fill-rule="nonzero" mask="url(#mask-2)"></path>
            <path d="M574.4,223.6 C574.4,223.6 583.5,213.9 586.4,213.9 L586.2,220.3 C586.2,220.3 602.6,217.6 606.6,220.2 C606.8,220.3 606.5,220.9 606.3,221.4 C605.3,223.3 603.6,224.6 601.6,225.2 L596.9,226.5 C596.9,226.5 598.4,229.4 597.9,230.3 C597.4,231.2 596,232.2 596,232.2 C596,232.2 596.1,235 595.5,237.5 C594.8,240.1 595.4,242.3 593.8,244.3 C592.2,246.3 577.5,243.8 575.5,243.2 C575.4,243.2 575.2,243.1 574.9,243 C566.7,239.3 566.5,227.8 574.4,223.6 L574.4,223.6 Z" id="Path" fill="#EACBC6" fill-rule="nonzero" mask="url(#mask-2)"></path>
            <path d="M603.4,305.1 C603.4,305.1 603.3,305.1 603.4,305.1 C593.9,304.7 584.3,304.1 574.9,303.4 C574.4,303.4 574,302.9 574,302.4 C574,301.9 574.4,301.4 575,301.5 C584.5,302.2 594,302.8 603.4,303.2 C603.9,303.2 604.3,303.7 604.3,304.2 C604.3,304.7 603.9,305.1 603.4,305.1 Z" id="Path" fill="#6D4FA1" fill-rule="nonzero" opacity="0.6" mask="url(#mask-2)"></path>
            <path d="M673.5,304.5 C673,304.5 672.6,304.1 672.6,303.6 C672.6,303.1 673,302.6 673.5,302.6 C682.9,302 692.4,301.9 701.8,302.4 C702.3,302.4 702.7,302.9 702.7,303.4 C702.7,303.9 702.3,304.3 701.7,304.3 C692.4,303.8 682.9,303.8 673.5,304.5 C673.6,304.5 673.5,304.5 673.5,304.5 Z" id="Path" fill="#6D4FA1" fill-rule="nonzero" opacity="0.6" mask="url(#mask-2)"></path>
            <g id="Group" mask="url(#mask-2)" fill="#FFFFFF" fill-rule="nonzero">
                <g transform="translate(619.000000, 188.000000)">
                    <path d="M25.4,0.6 L17.6,0.6 C16.7,0.6 16,1.2 15.7,1.9 L15.7,1.9 C15.4,2.7 14.7,3.3 13.8,3.3 L5.2,3.3 C4.1,3.3 3.2,4.2 3.2,5.3 L3.2,6.6 C3.2,7.7 4.1,8.6 5.2,8.6 L12,8.6 C12.9,8.6 13.6,8 13.9,7.3 L13.9,7.3 C14.2,6.5 14.9,5.9 15.8,5.9 L25.4,5.9 C26.5,5.9 27.4,5 27.4,3.9 L27.4,2.6 C27.4,1.5 26.5,0.6 25.4,0.6 Z" id="XMLID_12_"></path>
                    <path d="M0.5,17.4 C0.5,18.5 1.4,19.4 2.5,19.4 L8.4,19.4 C9.3,19.4 10,18.8 10.3,18 C10.6,17.2 11.3,16.7 12.2,16.7 L25.4,16.7 C26.5,16.7 27.4,15.8 27.4,14.7 L27.4,13.4 C27.4,12.3 26.5,11.4 25.4,11.4 L14,11.4 C13.1,11.4 12.4,12 12.1,12.7 C11.8,13.5 11.1,14 10.2,14 L2.5,14 C1.4,14 0.5,14.9 0.5,16" id="XMLID_11_"></path>
                </g>
            </g>
            <g id="Group" mask="url(#mask-2)">
                <g transform="translate(295.000000, 27.000000)">
                    <path d="M68.9,357.5 L80.9,299.6 L88.5,299.7 L93.6,357.4 L140.3,357.4 C141,331.8 141.1,283.3 140.2,259.4 L29.5,256.4 C28.4,275.5 27.8,328.2 25.8,357.4 L68.9,357.4 L68.9,357.5 Z" id="Path" fill="#EE488F" fill-rule="nonzero"></path>
                    <g id="Group" stroke-width="1" fill="none" fill-rule="evenodd" transform="translate(0.000000, 338.000000)">
                        <path d="M25.7,19.5 C21.3,101.2 17.1,205.2 17.1,205.2 L0.6,217.4 L26.3,217.4 L68.8,19.5 L44.9,15.7 L25.7,19.5 Z" id="Path" fill="#EE488F" fill-rule="nonzero"></path>
                        <path d="M140.2,19.5 L105.7,0.5 L93.5,19.5 L114,217.4 L139.7,217.4 L125.1,206.3 C125.1,206.3 138.1,114.2 140.2,19.5 Z" id="Path" fill="#EE488F" fill-rule="nonzero"></path>
                    </g>
                    <g id="Group" stroke-width="1" fill="none" fill-rule="evenodd" transform="translate(8.000000, 77.000000)">
                        <path d="M126.5,187.8 L141,195.2 C141,195.2 153,157.4 157.7,136 C159.6,127.2 135.6,32.5 135.6,32.5 C130,25.5 100.4,3.4 97.1,3 C94.9,2.7 79.5,1.1 70.7,0.6 C61.9,0.1 68.6,0.7 62.8,2.6 L35.8,21.9 C18.7,42.4 4.1,73.5 3,80.4 C-2.5,115.2 1.6,155.1 7.4,188.7 L21.5,179.7 L126.5,187.8" id="Path" fill="#A493C6" fill-rule="nonzero"></path>
                        <path d="M126.5,187.8 L141,195.2 C141,195.2 153,157.4 157.7,136 C159.6,127.2 135.6,32.5 135.6,32.5 C130,25.5 100.4,3.4 97.1,3 C94.9,2.7 79.5,1.1 70.7,0.6 C61.9,0.1 68.6,0.7 62.8,2.6 L35.8,21.9 C18.7,42.4 4.1,73.5 3,80.4 C-2.5,115.2 1.6,155.1 7.4,188.7 L21.5,179.7 L126.5,187.8" id="Path" fill="url(#linearGradient-13)" fill-rule="nonzero" opacity="0.25"></path>
                    </g>
                    <g id="Group" stroke-width="1" fill="none" fill-rule="evenodd" transform="translate(70.000000, 57.000000)">
                        <path d="M0.7,0.4 L0.7,22.5 C0.7,22.5 18.6,41.5 35,22.9 L33.6,0.3 L0.7,0.3 L0.7,0.4 Z" id="Path" fill="#F1DBCB" fill-rule="nonzero"></path>
                        <path d="M0.7,0.4 L0.7,22.5 C0.7,22.5 18.6,41.5 35,22.9 L33.6,0.3 L0.7,0.3 L0.7,0.4 Z" id="Path" fill="url(#linearGradient-14)" fill-rule="nonzero" opacity="0.25"></path>
                    </g>
                    <path d="M114.5,41.9 C113.8,41.6 113.2,41.4 112.7,41.4 C115.2,25.3 114.1,5.2 87.7,6 C71.9,6.5 67.2,20.9 66.2,36.1 C65.3,35.6 64.2,35.5 62.6,36 C57.2,37.6 60.9,51.4 66.6,53.5 C68.7,67.3 76,76.2 86.5,77 C96.2,77.7 103.7,70.2 108.3,58.9 C114.1,57.4 119.7,44.2 114.5,41.9 Z" id="Path" fill="#F1DBCB" fill-rule="nonzero"></path>
                    <path d="M15.4,265.6 C15.4,265.6 29.8,293.7 34.8,280.9 C39.8,268.1 29.5,256.6 29.5,256.6 L29.5,256.6 L15.4,265.6 Z" id="Path" fill="#F1DBCB" fill-rule="nonzero"></path>
                    <path d="M66.2,36 L69.6,41.4 L73.2,41.4 L73.2,32.1 C73.2,32.1 77.7,27.5 78.2,22.4 L105.1,24.3 C105.1,24.3 104.2,30.9 106.4,33.5 L106.4,44.2 L109.7,44.2 L112.7,41.3 C112.7,41.3 119.2,17.6 116.6,11.7 C113.9,5.8 108.5,7.9 108.5,7.9 C108.5,7.9 99.6,-2.5 87.2,1 C74.8,4.6 64.8,12.1 62.9,17.4 C61,22.7 66.2,36 66.2,36 Z" id="Path" fill="#EF5996" fill-rule="nonzero"></path>
                </g>
            </g>
            <path d="M429.5,291.8 C429.5,291.8 415.4,307.5 422.4,317.3 C429.4,327 444,299.2 444,299.2 C444,299.2 431.5,292 429.5,291.8 Z" id="Path" fill="#F1DBCB" fill-rule="nonzero" mask="url(#mask-2)"></path>
            <g id="Group" mask="url(#mask-2)" fill="#573493" fill-rule="nonzero">
                <g transform="translate(365.000000, 159.000000)">
                    <path d="M25.7,0.6 L17.9,0.6 C17,0.6 16.3,1.2 16,1.9 L16,1.9 C15.7,2.7 15,3.3 14.1,3.3 L5.5,3.3 C4.4,3.3 3.5,4.2 3.5,5.3 L3.5,6.6 C3.5,7.7 4.4,8.6 5.5,8.6 L12.3,8.6 C13.2,8.6 13.9,8 14.2,7.3 L14.2,7.3 C14.5,6.5 15.2,5.9 16.1,5.9 L25.7,5.9 C26.8,5.9 27.7,5 27.7,3.9 L27.7,2.6 C27.7,1.5 26.8,0.6 25.7,0.6 Z" id="XMLID_10_"></path>
                    <path d="M0.7,17.4 C0.7,18.5 1.6,19.4 2.7,19.4 L8.6,19.4 C9.5,19.4 10.2,18.8 10.5,18 C10.8,17.2 11.5,16.7 12.4,16.7 L25.6,16.7 C26.7,16.7 27.6,15.8 27.6,14.7 L27.6,13.4 C27.6,12.3 26.7,11.4 25.6,11.4 L14.2,11.4 C13.3,11.4 12.6,12 12.3,12.7 C12,13.5 11.3,14 10.4,14 L2.7,14 C1.6,14 0.7,14.9 0.7,16" id="XMLID_9_"></path>
                </g>
            </g>
            <g id="Group" mask="url(#mask-2)" fill-rule="nonzero">
                <g transform="translate(459.000000, 301.000000)" id="Path">
                    <path d="M99.1,2.5 L55.8,9.8 L0.6,0.4 L0.1,268.8 L12.8,268.8 L55.2,15.8 L59.1,268.8 L71.8,268.8 C71.8,268.8 86.1,167.8 87,158.6 C87.9,149.4 91.6,121 91.6,121 L99.1,2.5 Z" fill="#F7B7CC"></path>
                    <path d="M99.1,2.5 L55.8,9.8 L0.6,0.4 L0.1,268.8 L12.8,268.8 L55.2,15.8 L59.1,268.8 L71.8,268.8 C71.8,268.8 86.1,167.8 87,158.6 C87.9,149.4 91.6,121 91.6,121 L99.1,2.5 Z" fill="url(#linearGradient-15)" opacity="0.25"></path>
                </g>
            </g>
            <path d="M107,41.1 C108.3,41.5 115.9,43.7 116.4,47.8 C117,53.4 104.2,59 98.6,61.5 C89,65.7 80.3,67.2 74.3,67.9 C75.7,70.5 82.6,84.2 76.3,96.2 C75.3,98.2 73.1,102.3 71,101.9 C65.6,101.1 47.6,68.9 64.2,51 C72.6,42 96,37.9 107,41.1 Z" id="Path" fill="#573493" fill-rule="nonzero" mask="url(#mask-2)"></path>
            <path d="M42,223 L57.4,183.4 L37.5,219 L53.9,260.1 C53.9,260.1 53.9,236.1 42,223 L42,223 Z" id="Path" fill="#3F2174" fill-rule="nonzero" mask="url(#mask-2)"></path>
            <path d="M158,319.4 C158,316.3 135.3,192.1 135.3,192.1 L155.7,329.6 L158,319.4 Z" id="Path" fill="#3F2174" fill-rule="nonzero" mask="url(#mask-2)"></path>
            <polygon id="Path" fill="#573493" fill-rule="nonzero" opacity="0.25" mask="url(#mask-2)" points="341.8 166.7 333.6 191.6 330.7 212.2 328.8 255.5"></polygon>
            <polygon id="Path" fill="#573493" fill-rule="nonzero" opacity="0.25" mask="url(#mask-2)" points="421 164.1 429.3 189 437.8 230.3 433.9 256.8"></polygon>
            <path d="M548.2,184.5 C548.7,185.3 549.2,186.2 549.7,187" id="Path" fill="#DAD4EA" fill-rule="nonzero" mask="url(#mask-2)"></path>
            <g id="Group" mask="url(#mask-2)">
                <g transform="translate(443.000000, 25.000000)">
                    <path d="M0,394.7 C12.1,261.9 21.7,221.7 39.9,195.2 L33,149.7 L41.6,93.9 C41.6,93.9 60.9,75.5 70.4,75.5 C79.9,75.5 103.6,93.9 103.6,93.9 C103.6,93.9 103.6,93.9 103.6,93.9 C103.7,94 104,94.2 104.4,94.6 C108.8,99 115.4,119.2 120.4,141 C120.3,145.2 119.3,148.8 116.8,151.2 L116.5,182.5 L101.4,195.4 C101.4,195.4 103.3,197.4 106.2,203.8 C113.9,221 128.7,269.6 132,394.7 L0,394.7 Z" id="Path" fill="#DAD4EA" fill-rule="nonzero"></path>
                    <path d="M99.4,173.3 C102.5,172.8 105.7,172.4 108.8,172.2 C108.2,169.9 107.7,167.7 107.8,165.4 C107.9,162.5 108.4,160.5 107.5,157.8 C106.8,155.7 106.4,153.7 106.3,151.4 C106,146.4 104.6,138.6 101.4,134.2 C98.6,130.4 97.3,127.5 96.6,123.2 L96.4,123.1 C96.9,128.9 96.7,135 96.8,140.8 C96.9,144.3 96.9,147.9 96.8,151.4 C97.6,156.2 99.1,160.8 100.1,165.6 C100.7,167.9 100.7,170.9 99.4,173.3 Z" id="Path" fill-opacity="0.4" fill="#625C5C" fill-rule="nonzero"></path>
                    <g id="Group" stroke-width="1" fill="none" fill-rule="evenodd" transform="translate(61.000000, 61.000000)">
                        <path d="M0.9,0.8 L0.9,24 C0.9,24 12.6,43.8 23.4,24.5 L22.5,0.9 L0.9,0.9 L0.9,0.8 Z" id="Path" fill="#A46C35" fill-rule="nonzero"></path>
                        <path d="M0.9,0.8 L0.9,24 C0.9,24 12.6,43.8 23.4,24.5 L22.5,0.9 L0.9,0.9 L0.9,0.8 Z" id="Path" fill="url(#linearGradient-16)" fill-rule="nonzero" opacity="0.25"></path>
                    </g>
                    <path d="M66.6,7 C46.6,9.6 43.4,32.7 48.2,50.9 C51.8,64.5 59.9,78.2 72.7,77.9 C85.5,77.6 93.2,60.1 95.5,49.3 C99.3,32 98.6,2.8 66.6,7 Z" id="Path" fill="#A56D35" fill-rule="nonzero"></path>
                    <g id="Group" stroke-width="1" fill="none" fill-rule="evenodd" transform="translate(11.000000, 0.000000)">
                        <path d="M91,14.1 C85.5,8.4 78.7,4.3 71.5,2.1 C60.1,-1.4 47.5,-0.1 37.1,6.8 C28.5,12.5 20.9,19.9 14.7,28.3 C12.8,30.9 -1.9,52.6 0.7,55.2 C14.3,69.4 32.2,78.6 50.9,82.8 L50.9,74.3 C47.3,71.7 44.4,67.8 42,63.3 C48.4,60.3 54.9,53.8 58,50.6 C65.2,43.1 70.7,34 73.7,24 C71.6,30.8 72.8,52.9 80.7,60.9 C78.7,65.3 76.1,69.5 72.9,72.6 L73.4,85.3 C73.4,85.3 73.4,85.4 73.3,85.4 C88.5,85.7 103.8,83 118.7,80.9 C116.7,56.8 107.7,31.5 91,14.1 Z" id="Path" fill="#826AAF" fill-rule="nonzero"></path>
                        <path d="M91,14.1 C85.5,8.4 78.7,4.3 71.5,2.1 C60.1,-1.4 47.5,-0.1 37.1,6.8 C28.5,12.5 20.9,19.9 14.7,28.3 C12.8,30.9 -1.9,52.6 0.7,55.2 C14.3,69.4 32.2,78.6 50.9,82.8 L50.9,74.3 C47.3,71.7 44.4,67.8 42,63.3 C48.4,60.3 54.9,53.8 58,50.6 C65.2,43.1 70.7,34 73.7,24 C71.6,30.8 72.8,52.9 80.7,60.9 C78.7,65.3 76.1,69.5 72.9,72.6 L73.4,85.3 C73.4,85.3 73.4,85.4 73.3,85.4 C88.5,85.7 103.8,83 118.7,80.9 C116.7,56.8 107.7,31.5 91,14.1 Z" id="Path" fill="url(#linearGradient-17)" fill-rule="nonzero" opacity="0.25"></path>
                    </g>
                    <polyline id="Path" fill-opacity="0.4" fill="#625C5C" fill-rule="nonzero" points="50.4 121.1 47.4 169.5 39.3 168.6"></polyline>
                    <g id="Group" stroke-width="1" fill="none" fill-rule="evenodd" transform="translate(41.000000, 134.000000)">
                        <polygon id="Path" fill-opacity="0.4" fill="#625C5C" fill-rule="nonzero" points="55.4 77.1 7 77.4 6.7 70.6 56.8 69.5"></polygon>
                        <path d="M0.4,2.4 C0.8,4.9 7,75 7,75 L56.1,75 L65.3,0.6 L0.4,2.4 Z" id="Path" fill="#F38DB1" fill-rule="nonzero"></path>
                    </g>
                    <path d="M37,168.6 C37,168.6 37.1,137.5 43,131.2 L41.6,93.9 C26.5,101.9 8.2,178.5 8.5,186.5 C8.9,195.1 10.8,201.8 17.3,202.2 C30,203 89.2,197 89.2,197 L101.4,174 L37,168.6 Z" id="Path" fill="#DAD4EA" fill-rule="nonzero"></path>
                    <path d="M122.5,204.4 C119.1,204.7 113.2,204.4 106.1,203.8 C80.8,201.6 39.9,195.1 39.9,195.1 L41.4,179 L115.6,172.3 L111.5,118.3 L103.5,93.7 C103.5,93.7 103.5,93.7 103.5,93.7 C103.8,93.8 104,94.1 104.3,94.4 C108.7,98.8 115.3,119 120.3,140.8 C127.1,170.7 131,203.6 122.5,204.4 Z" id="Path" fill="#DAD4EA" fill-rule="nonzero"></path>
                    <g id="Group" stroke-width="1" fill="none" fill-rule="evenodd" transform="translate(49.000000, 145.000000)">
                        <path d="M10.8,0.2 L7.5,0.2 C7.1,0.2 6.8,0.4 6.7,0.8 L6.7,0.8 C6.6,1.1 6.3,1.4 5.9,1.4 L2.2,1.4 C1.7,1.4 1.3,1.8 1.3,2.3 L1.3,2.9 C1.3,3.4 1.7,3.8 2.2,3.8 L5.1,3.8 C5.5,3.8 5.8,3.6 5.9,3.2 L5.9,3.2 C6,2.9 6.3,2.6 6.7,2.6 L10.8,2.6 C11.3,2.6 11.7,2.2 11.7,1.7 L11.7,1 C11.7,0.6 11.3,0.2 10.8,0.2 Z" id="XMLID_8_" fill="#573493" fill-rule="nonzero"></path>
                        <path d="M0.1,7.4 C0.1,7.9 0.5,8.3 1,8.3 L3.5,8.3 C3.9,8.3 4.2,8.1 4.3,7.7 C4.4,7.4 4.7,7.1 5.1,7.1 L10.7,7.1 C11.2,7.1 11.6,6.7 11.6,6.2 L11.6,5.6 C11.6,5.1 11.2,4.7 10.7,4.7 L5.8,4.7 C5.4,4.7 5.1,4.9 5,5.3 C4.9,5.6 4.6,5.9 4.2,5.9 L0.9,5.9 C0.4,5.9 5.68434189e-14,6.3 5.68434189e-14,6.8" id="XMLID_7_" fill="#573493" fill-rule="nonzero"></path>
                    </g>
                    <path d="M80.3,172.1 C80.3,172.1 86.5,185.1 86.7,184.4 C86.9,183.7 101.4,174.2 101.4,174.2 C101.4,174.2 107.9,169.1 105.3,166.6 C102.7,164.1 106.4,159.7 105.9,157.7 C104.8,152.8 104.1,152.2 104.1,152.2 L101.4,159.4 L93.2,160.4 C93.2,160.4 93.2,153.2 91.4,152.2 C89.7,151.2 87.4,165.1 87.4,165.1 L80.3,172.1 Z" id="Path" fill="#A56D35" fill-rule="nonzero"></path>
                    <path d="M123.2,197.2 C117.2,197.8 103.4,196.5 88.7,194.7 L86.7,184.4 L76.7,186.6 L40.5,189.2 L21.5,190.6 C16.8,190.9 12.2,189.5 8.5,186.6 L9,192.6 C9.6,195.7 11.5,202.2 17.2,202.2 C18.5,202.2 22.8,202.5 32.3,201.9 C43,201.2 56.1,200.2 67.1,199.2 C87.6,202.1 113.6,205.2 122.6,204.4 C128,203.9 130.1,196.6 130.4,186.8 C129.3,192.8 127.2,196.8 123.2,197.2 Z" id="Path" fill-opacity="0.21" fill="#625C5C" fill-rule="nonzero"></path>
                </g>
            </g>
            <path d="M829.2,223.3 L819.8,207.4 C820.1,213.9 821.7,220.5 822.4,227.1 C823,228.1 823.6,228.9 823.8,229.5 C828.6,239.6 834.7,256.6 834.7,256.6 L829.2,223.3 Z" id="Path" fill-opacity="0.3" fill="#CC3E7B" fill-rule="nonzero" mask="url(#mask-2)"></path>
            <path d="M819.9,179.9 C820.1,182.4 820,184.8 820.5,187.2 C820.5,187.3 820.5,187.3 820.5,187.4 C823.4,188.8 828.3,191.3 831.4,193.1 C829.7,191.9 826.8,187.7 827.3,187.1 C826.1,186.4 823.9,183.4 823.2,182.4 C822.7,181.7 822.6,181 822.5,180.2 C822.4,178.8 822.1,177.8 821.6,176.5 C820.9,174.9 820.4,173.1 820.5,171.4 C820.2,171.2 819.9,170.9 819.5,170.6 C818.8,170 816.8,159.3 816.5,158.4 C816.1,162.3 819.5,176 819.9,179.9 Z" id="Path" fill-opacity="0.3" fill="#CC3E7B" fill-rule="nonzero" mask="url(#mask-2)"></path>
            <path d="M577.4,254.9 C580.4,254.6 582.8,252.7 585.6,252 C586.4,251.8 587.3,251.6 588.2,251.4 C589.7,250.1 590.4,248.6 590.8,247.6 C588.1,248.8 585.2,249.8 582.3,250.2 C578.6,250.7 574.2,251.7 570.4,251.3 L569.8,256.1 C571.9,254.7 574.7,255.1 577.4,254.9 Z" id="Path" fill="#7A5FAA" fill-rule="nonzero" opacity="0.6" mask="url(#mask-2)"></path>
        </g>
    </g>
</svg>