<?xml version="1.0" encoding="utf-8"?>
<!-- Generator: Adobe Illustrator 22.1.0, SVG Export Plug-In . SVG Version: 6.00 Build 0)  -->
<svg version="1.1" id="Layer_1" xmlns="http://www.w3.org/2000/svg" xmlns:xlink="http://www.w3.org/1999/xlink" x="0px" y="0px"
	 width="156px" height="134px" viewBox="0 0 156 134" style="enable-background:new 0 0 156 134;" xml:space="preserve">
<style type="text/css">
	.st0{fill:#653893;}
	.st1{fill:#FFFFFF;}
</style>
<g id="old-slice">
	<g>
		<path class="st0" d="M54.5054,68.9817l17.9,13.2c1.3,0.9,2.9,1.4,4.7,1.4c1.8,0,3.4-0.5,4.7-1.4l17.9-13.2c1.2-0.8,1.9-2,2-3.2
			c0-0.1,0-0.1,0-0.2v-8.5l0,0c0-0.1,0-0.1,0-0.2v-0.1c0,0,0,0,0-0.1s0-0.1,0-0.2c-0.2-1.2-0.9-2.4-2-3.2l-18-12.8
			c-2.6-1.9-6.7-1.9-9.3,0l-17.9,12.9c-1.2,0.8-1.9,2-2,3.2v0.1c0,0.2,0,0.4,0,0.6l0,0v7.7
			C52.3054,66.5817,53.1054,67.9817,54.5054,68.9817z"/>
		<path class="st1" d="M100.5054,59.9817v5.5v0.1c-0.1,0.9-0.6,1.8-1.5,2.4l-17.9,13.1c-1,0.8-2.5,1.2-4,1.2l0,0
			c-1.5,0-2.9-0.4-4-1.2l-17.9-13.1c-1-0.8-1.6-1.8-1.5-2.9v-5.1c0.2,0.2,0.5,0.4,0.7,0.6l0,0l17.9,13.1l0,0l0,0
			c0.3,0.2,0.7,0.4,1,0.6h0.1c1.1,0.5,2.3,0.8,3.6,0.8c1.8,0,3.4-0.5,4.7-1.4l9.4-6.9l8.5-6.2
			C100.0054,60.4817,100.2054,60.2817,100.5054,59.9817C100.4054,60.0817,100.5054,60.0817,100.5054,59.9817z"/>
		<path class="st1" d="M53.7054,56.6817c0.1-0.9,0.7-1.7,1.5-2.3l17.9-12.9c1.1-0.8,2.5-1.2,3.9-1.2s2.8,0.4,3.9,1.2l18,12.9
			c0.9,0.6,1.4,1.5,1.5,2.3c0,0.1,0,0.2,0,0.3c0,0.2,0,0.4-0.1,0.6v0.1c-0.1,0.2-0.1,0.4-0.2,0.6l-0.1,0.1c-0.1,0.2-0.2,0.4-0.4,0.6
			c0,0,0,0-0.1,0.1c-0.2,0.2-0.4,0.4-0.6,0.5l-9,6.6l-9,6.6c-0.3,0.2-0.6,0.4-0.9,0.5c-0.2,0.1-0.5,0.2-0.7,0.3
			c-0.1,0-0.2,0.1-0.2,0.1c-0.7,0.2-1.4,0.3-2.1,0.3l0,0c-1.1,0-2.2-0.2-3.1-0.7c-0.3-0.2-0.6-0.3-0.9-0.5l-18-13.1l0,0
			c-0.6-0.5-1.1-1-1.3-1.6v-0.1l0,0c-0.1-0.2-0.1-0.4-0.1-0.6c0-0.1,0-0.3,0-0.5h-0.3c0,0,0,0-0.1,0L53.7054,56.6817z"/>
	</g>
</g>
</svg>
