<?xml version="1.0" encoding="utf-8"?>
<!-- Generator: Adobe Illustrator 22.1.0, SVG Export Plug-In . SVG Version: 6.00 Build 0)  -->
<svg version="1.1" id="Layer_1" xmlns="http://www.w3.org/2000/svg" xmlns:xlink="http://www.w3.org/1999/xlink" x="0px" y="0px"
	 width="156px" height="134px" viewBox="0 0 156 134" style="enable-background:new 0 0 156 134;" xml:space="preserve">
<style type="text/css">
	.st0{fill:url(#SVGID_1_);}
	.st1{fill:url(#SVGID_2_);}
	.st2{fill:url(#SVGID_3_);}
	.st3{fill:url(#SVGID_4_);}
	.st4{fill:url(#SVGID_5_);}
	.st5{fill:url(#SVGID_6_);}
	.st6{fill:url(#SVGID_7_);}
	.st7{fill:url(#SVGID_8_);}
	.st8{fill:url(#SVGID_9_);}
	.st9{fill:url(#SVGID_10_);}
	.st10{fill:url(#SVGID_11_);}
	.st11{fill:url(#SVGID_12_);}
	.st12{fill:url(#SVGID_13_);}
	.st13{fill:url(#SVGID_14_);}
	.st14{fill:url(#SVGID_15_);}
	.st15{fill:url(#SVGID_16_);}
	.st16{fill:#653893;}
	.st17{fill:url(#SVGID_17_);}
	.st18{fill:#FFFFFF;}
	.st19{fill:url(#SVGID_18_);}
	.st20{fill:url(#SVGID_19_);}
	.st21{fill:url(#SVGID_20_);}
</style>
<g id="bottom">
	<g>
		
			<linearGradient id="SVGID_1_" gradientUnits="userSpaceOnUse" x1="146.3451" y1="753.1797" x2="144.1272" y2="755.207" gradientTransform="matrix(1 0 0 1 0 -703.6366)">
			<stop  offset="0" style="stop-color:#B33C8A"/>
			<stop  offset="1" style="stop-color:#EE4F86"/>
		</linearGradient>
		<path class="st0" d="M147.4414,52.0797c-0.098,0.196-0.294,0.294-0.49,0.294c-0.098,0-0.294,0-0.392-0.098l-3.332-2.45
			c-0.294-0.196-0.294-0.588-0.098-0.882c0.098-0.196,0.294-0.294,0.49-0.294c0.098,0,0.294,0,0.392,0.098
			c0,0,1.764,1.274,2.646,1.96c0,0,0,0,0.098,0l0,0l0,0l0,0l0,0l0,0l0,0l0,0l0,0l0.49,0.392
			C147.5394,51.3937,147.6374,51.7857,147.4414,52.0797z"/>
		
			<linearGradient id="SVGID_2_" gradientUnits="userSpaceOnUse" x1="145.63" y1="775.2036" x2="139.9657" y2="780.3808" gradientTransform="matrix(1 0 0 1 0 -703.6366)">
			<stop  offset="0" style="stop-color:#B33C8A"/>
			<stop  offset="1" style="stop-color:#EE4F86"/>
		</linearGradient>
		<path class="st1" d="M145.0894,72.4637c0.196,0.294,0.196,0.686-0.098,0.882l-3.332,2.45c-0.098,0.098-0.196,0.098-0.392,0.098
			s-0.392-0.098-0.49-0.294c-0.196-0.294-0.196-0.686,0.098-0.882l3.332-2.45c0.098-0.098,0.196-0.098,0.392-0.098
			C144.7954,72.2677,144.8934,72.3657,145.0894,72.4637z"/>
		
			<linearGradient id="SVGID_3_" gradientUnits="userSpaceOnUse" x1="152.2599" y1="770.3472" x2="146.6562" y2="775.4691" gradientTransform="matrix(1 0 0 1 0 -703.6366)">
			<stop  offset="0" style="stop-color:#B33C8A"/>
			<stop  offset="1" style="stop-color:#EE4F86"/>
		</linearGradient>
		<path class="st2" d="M151.6554,67.6617c0.196,0.294,0.196,0.686-0.098,0.882c0,0-0.098,0-0.098,0.098l0,0l0,0l0,0l0,0l0,0l0,0
			c0,0-0.098,0-0.098,0.098l0,0l0,0l0,0c0,0-0.098,0-0.098,0.098l0,0l0,0l0,0l0,0l0,0l0,0l0,0l0,0l0,0l0,0l0,0l0,0h-0.098l0,0l0,0
			l0,0l0,0l0,0l0,0l0,0l0,0l0,0l0,0l0,0l0,0l0,0l0,0l0,0l0,0l0,0l0,0l0,0l0,0l0,0l0,0l0,0l0,0l0,0l0,0l0,0l0,0l0,0l0,0l0,0l0,0l0,0
			l0,0l0,0l-2.842,2.058c-0.098,0.098-0.196,0.098-0.392,0.098s-0.392-0.098-0.49-0.294c-0.196-0.294-0.196-0.686,0.098-0.882
			l3.234-2.352l0.098-0.098c0.098-0.098,0.196-0.098,0.392-0.098C151.3614,67.3677,151.5574,67.4657,151.6554,67.6617z"/>
		
			<linearGradient id="SVGID_4_" gradientUnits="userSpaceOnUse" x1="152.1032" y1="757.9032" x2="150.3151" y2="759.5375" gradientTransform="matrix(1 0 0 1 0 -703.6366)">
			<stop  offset="0" style="stop-color:#B33C8A"/>
			<stop  offset="1" style="stop-color:#EE4F86"/>
		</linearGradient>
		<path class="st3" d="M151.9494,56.8817c-0.098-0.686-0.588-1.274-1.274-1.764l-0.784-0.588c-0.294-0.196-0.294-0.588-0.098-0.882
			c0.098-0.196,0.294-0.294,0.49-0.294c0.098,0,0.294,0,0.392,0.098l0.784,0.588l0,0l0,0l0,0l0,0l0,0l0,0l0,0l0,0l0,0l0,0l0,0l0,0
			l0,0l0,0l0,0l0,0l0,0l0,0l0,0l0,0l0,0l0,0l0,0l0,0l0,0l0,0l0,0l0,0l0,0l0,0l0,0l0,0l0,0l0,0l0,0l0,0l0,0l0,0l0,0l0,0l0,0l0,0l0,0
			l0,0l0,0l0,0l0,0l0,0l0,0l0,0l0,0l0,0l0,0l0,0l0,0l0,0l0,0l0,0l0,0l0,0l0,0l0,0l0,0l0,0l0,0l0,0l0,0l0,0l0,0l0,0l0,0l0,0l0,0l0,0
			l0,0l0,0l0,0l0,0l0,0l0,0l0,0l0,0l0,0l0,0l0,0l0,0l0,0l0,0l0,0l0,0l0,0l0,0l0,0l0,0l0,0l0,0l0,0l0,0l0,0l0,0l0,0l0,0l0,0l0,0l0,0
			l0,0l0,0l0,0l0,0l0,0l0,0l0,0l0,0l0,0l0,0l0,0l0,0l0,0l0,0l0,0l0,0l0,0l0,0l0,0l0,0l0,0l0,0l0,0l0,0l0,0l0,0l0,0l0,0l0,0l0,0l0,0
			l0,0l0,0l0,0l0,0l0,0l0,0l0,0l0,0l0,0l0,0l0,0l0,0l0,0l0,0l0,0l0,0l0,0l0,0l0,0l0,0l0,0l0,0l0,0l0,0l0,0l0,0l0,0l0,0l0,0l0,0l0,0
			l0,0l0,0l0,0l0,0l0,0l0,0l0,0l0,0l0,0l0,0l0,0l0,0l0,0l0,0l0,0l0,0l0,0l0,0l0,0l0,0l0,0l0,0l0,0l0,0l0,0l0,0l0,0l0,0l0,0l0,0l0,0
			l0,0l0,0l0,0l0,0l0,0l0,0l0,0l0,0l0,0l0,0l0,0l0,0l0,0l0,0l0,0l0,0l0,0l0,0l0,0l0,0l0,0l0,0l0,0l0,0l0,0l0,0l0,0l0,0l0,0l0,0l0,0
			l0,0l0,0l0,0l0,0l0,0l0,0l0,0l0,0l0,0l0,0l0,0l0,0l0,0l0,0l0,0l0,0l0,0l0,0l0,0l0,0l0,0l0,0l0,0l0,0l0,0l0,0l0,0l0,0l0,0l0,0l0,0
			l0,0l0,0l0,0l0,0l0,0l0,0l0,0l0,0l0,0l0,0l0,0l0,0l0,0l0,0l0,0l0,0l0,0l0,0l0,0l0,0l0,0l0,0l0,0l0,0l0,0l0,0l0,0l0,0l0,0l0,0l0,0
			l0,0l0,0l0,0l0,0l0,0l0,0l0,0l0,0l0,0l0,0l0,0l0,0l0,0l0,0l0,0l0,0l0,0l0,0l0,0l0,0l0,0l0,0l0,0l0,0l0,0l0,0l0,0l0,0l0,0l0,0l0,0
			l0,0l0,0l0,0l0,0l0,0l0,0l0,0l0,0l0,0l0,0l0,0l0,0l0,0l0,0l0,0l0,0l0,0l0,0l0,0l0,0l0,0l0,0l0,0l0,0l0,0l0,0l0,0l0,0l0,0l0,0l0,0
			l0,0l0,0l0,0l0,0l0,0l0,0l0,0l0,0l0,0l0,0l0,0l0,0l0,0l0,0l0,0l0,0l0,0l0,0l0,0l0,0l0,0l0,0l0,0l0,0l0,0l0,0l0,0l0,0l0,0l0,0l0,0
			l0,0l0,0l0,0l0,0l0,0l0,0l0,0l0,0l0,0l0,0l0,0l0,0l0,0l0,0l0,0l0,0l0,0l0,0l0,0l0,0l0,0l0,0l0,0l0,0l0,0l0,0l0,0l0,0l0,0l0,0l0,0
			l0,0l0,0l0,0l0,0l0,0l0,0l0,0l0,0l0,0l0,0l0,0l0,0l0,0l0,0l0,0l0,0l0,0l0,0l0,0l0,0l0,0l0,0l0,0l0,0l0,0l0,0l0,0l0,0l0,0l0,0l0,0
			l0,0l0,0l0,0l0,0l0,0l0,0l0,0l0,0l0,0l0,0l0,0l0,0l0,0l0,0l0,0l0,0l0,0l0,0l0,0l0,0l0,0l0,0l0,0l0,0l0,0l0,0l0,0l0,0l0,0l0,0l0,0
			l0,0l0,0l0,0l0,0l0,0l0,0l0,0l0,0l0,0l0,0l0,0l0,0l0,0l0,0l0,0l0,0l0,0l0,0l0,0l0,0l0,0l0,0l0,0l0,0l0,0l0,0l0,0l0,0l0,0l0,0l0,0
			l0,0l0,0l0,0l0,0l0,0l0,0l0,0l0,0l0,0l0,0l0,0l0,0l0,0l0,0l0,0l0,0l0,0l0,0l0,0l0,0l0,0l0,0l0,0l0,0l0,0l0,0l0,0l0,0l0,0l0,0l0,0
			l0,0l0,0l0,0l0,0l0,0l0,0l0,0l0,0l0,0l0,0l0,0l0,0l0,0l0,0l0,0l0,0l0,0l0,0l0,0l0,0l0,0l0,0l0,0l0,0l0,0l0,0l0,0l0,0l0,0l0,0l0,0
			l0,0l0,0l0,0l0,0l0,0l0,0l0,0l0,0l0,0l0,0l0,0l0,0l0,0l0,0l0,0l0,0l0,0l0,0l0,0l0,0l0,0l0,0l0,0l0,0l0,0l0,0
			c0,0,0,0.098,0.098,0.098l0,0c0.098,0.294,0.196,0.588,0.294,0.882s-0.196,0.686-0.49,0.686h-0.098
			C152.2434,57.4697,151.9494,57.2737,151.9494,56.8817z"/>
		
			<linearGradient id="SVGID_5_" gradientUnits="userSpaceOnUse" x1="110.4508" y1="756.4502" x2="105.2787" y2="761.1776" gradientTransform="matrix(1 0 0 1 0 -703.6366)">
			<stop  offset="0" style="stop-color:#B33C8A"/>
			<stop  offset="1" style="stop-color:#EE4F86"/>
		</linearGradient>
		<path class="st4" d="M106.0854,56.1957c0.294-0.686,0.784-1.372,1.568-1.96l0,0l0,0l0,0l0,0l0,0l0,0l0,0l0,0l0,0l0,0l0,0l0,0l0,0
			l0,0l0,0l0,0l0,0l0,0l0,0l0,0l0,0l0,0l0,0l0,0l1.176-0.882c0.098-0.098,0.196-0.098,0.392-0.098s0.392,0.098,0.49,0.294
			c0.196,0.294,0.098,0.686-0.098,0.882l-1.176,0.882c-0.588,0.392-0.98,0.882-1.176,1.47c-0.098,0.294-0.294,0.392-0.588,0.392
			c-0.098,0-0.098,0-0.196,0C106.1834,56.8817,105.9874,56.4897,106.0854,56.1957z"/>
		
			<linearGradient id="SVGID_6_" gradientUnits="userSpaceOnUse" x1="154.6644" y1="764.6417" x2="150.4042" y2="768.5357" gradientTransform="matrix(1 0 0 1 0 -703.6366)">
			<stop  offset="0" style="stop-color:#B33C8A"/>
			<stop  offset="1" style="stop-color:#EE4F86"/>
		</linearGradient>
		<path class="st5" d="M153.2234,64.9177c0,0.294-0.294,0.588-0.588,0.588l0,0c-0.392,0-0.588-0.294-0.588-0.588v-4.116
			c0-0.294,0.294-0.588,0.588-0.588l0,0c0.392,0,0.588,0.294,0.588,0.588v1.764l0,0l0,0l0,0l0,0
			C153.2234,63.7417,153.2234,64.9177,153.2234,64.9177z"/>
		
			<linearGradient id="SVGID_7_" gradientUnits="userSpaceOnUse" x1="139.6859" y1="748.3733" x2="137.4612" y2="750.4068" gradientTransform="matrix(1 0 0 1 0 -703.6366)">
			<stop  offset="0" style="stop-color:#B33C8A"/>
			<stop  offset="1" style="stop-color:#EE4F86"/>
		</linearGradient>
		<path class="st6" d="M140.7774,47.2777c-0.098,0.196-0.294,0.294-0.49,0.294c-0.098,0-0.294,0-0.392-0.098l-3.332-2.45
			c-0.294-0.196-0.294-0.588-0.098-0.882c0.098-0.196,0.294-0.294,0.49-0.294c0.098,0,0.294,0,0.392,0.098
			c0,0,0.294,0.196,0.784,0.588l0,0l0,0l0,0l0,0l0,0l0,0l0,0l0,0l0,0l0,0l0,0l0,0l0,0l0,0l0,0l0,0l0,0l0,0l0,0l0,0l0,0l0,0l0,0l0,0
			l0,0l0,0l2.352,1.764C140.8754,46.5917,140.9734,46.9837,140.7774,47.2777z"/>
		
			<linearGradient id="SVGID_8_" gradientUnits="userSpaceOnUse" x1="117.0212" y1="751.383" x2="111.4115" y2="756.5103" gradientTransform="matrix(1 0 0 1 0 -703.6366)">
			<stop  offset="0" style="stop-color:#B33C8A"/>
			<stop  offset="1" style="stop-color:#EE4F86"/>
		</linearGradient>
		<path class="st7" d="M116.3754,49.5317l-3.332,2.45c-0.098,0.098-0.196,0.098-0.392,0.098s-0.392-0.098-0.49-0.294
			c-0.196-0.294-0.098-0.686,0.098-0.882c0,0,0.784-0.588,1.666-1.176l0,0l0,0l0,0l0,0l0,0l0,0l0,0l0,0l0,0l0,0l0,0l0,0l0,0l0,0
			l1.666-1.176c0.098-0.098,0.196-0.098,0.392-0.098s0.392,0.098,0.49,0.294C116.6694,48.9437,116.5714,49.3357,116.3754,49.5317z"
			/>
		
			<linearGradient id="SVGID_9_" gradientUnits="userSpaceOnUse" x1="123.6841" y1="746.4884" x2="118.0507" y2="751.6374" gradientTransform="matrix(1 0 0 1 0 -703.6366)">
			<stop  offset="0" style="stop-color:#B33C8A"/>
			<stop  offset="1" style="stop-color:#EE4F86"/>
		</linearGradient>
		<path class="st8" d="M123.0394,44.6317l-3.332,2.45c-0.098,0.098-0.196,0.098-0.392,0.098s-0.392-0.098-0.49-0.294
			c-0.196-0.294-0.098-0.686,0.098-0.882l2.352-1.666l0,0l0,0l0,0l0,0l0,0l0,0l0,0l0,0l0,0l0,0l0,0l0,0l0,0l0,0l0,0l0,0l0,0l0,0
			c0,0,0,0,0.098,0l0,0c0.49-0.294,0.784-0.588,0.784-0.588c0.098-0.098,0.196-0.098,0.392-0.098s0.392,0.098,0.49,0.294
			C123.3334,44.0437,123.3334,44.4357,123.0394,44.6317z"/>
		
			<linearGradient id="SVGID_10_" gradientUnits="userSpaceOnUse" x1="116.9294" y1="776.5223" x2="114.7535" y2="778.511" gradientTransform="matrix(1 0 0 1 0 -703.6366)">
			<stop  offset="0" style="stop-color:#B33C8A"/>
			<stop  offset="1" style="stop-color:#EE4F86"/>
		</linearGradient>
		<path class="st9" d="M117.8454,74.5217c0.294,0.196,0.294,0.588,0.098,0.882c-0.098,0.196-0.294,0.294-0.49,0.294
			c-0.098,0-0.294,0-0.392-0.098l-3.234-2.352l0,0l0,0l0,0l0,0l0,0l0,0l0,0l0,0l0,0l0,0l0,0l0,0l0,0l0,0l0,0l0,0l0,0l0,0l0,0l0,0
			l0,0l0,0l0,0l0,0l0,0l0,0l0,0l0,0l0,0l0,0l0,0l0,0l0,0l0,0l0,0l0,0l0,0l0,0l0,0l0,0l0,0l0,0l0,0l0,0l0,0l0,0l0,0l0,0l0,0l0,0l0,0
			l0,0l0,0l0,0l0,0c-0.294-0.196-0.294-0.588-0.098-0.882c0.098-0.196,0.294-0.294,0.49-0.294c0.098,0,0.294,0,0.392,0.098
			L117.8454,74.5217z"/>
		
			<linearGradient id="SVGID_11_" gradientUnits="userSpaceOnUse" x1="139.008" y1="780.1099" x2="133.3744" y2="785.2592" gradientTransform="matrix(1 0 0 1 0 -703.6366)">
			<stop  offset="0" style="stop-color:#B33C8A"/>
			<stop  offset="1" style="stop-color:#EE4F86"/>
		</linearGradient>
		<path class="st10" d="M138.4254,77.3637c0.196,0.294,0.196,0.686-0.098,0.882l-1.274,0.98l0,0l0,0l0,0l0,0l0,0l0,0l0,0l0,0l0,0
			l0,0l0,0l0,0c-0.882,0.686-1.96,1.47-1.96,1.47c-0.098,0.098-0.196,0.098-0.392,0.098s-0.392-0.098-0.49-0.294
			c-0.196-0.294-0.196-0.686,0.098-0.882l3.332-2.45c0.098-0.098,0.196-0.098,0.392-0.098
			C138.1314,77.0697,138.3274,77.1677,138.4254,77.3637z"/>
		
			<linearGradient id="SVGID_12_" gradientUnits="userSpaceOnUse" x1="123.6216" y1="781.4413" x2="121.4314" y2="783.4432" gradientTransform="matrix(1 0 0 1 0 -703.6366)">
			<stop  offset="0" style="stop-color:#B33C8A"/>
			<stop  offset="1" style="stop-color:#EE4F86"/>
		</linearGradient>
		<path class="st11" d="M124.5094,79.4217c0.294,0.196,0.294,0.588,0.098,0.882c-0.098,0.196-0.294,0.294-0.49,0.294
			c-0.098,0-0.294,0-0.392-0.098c0,0-0.196-0.196-0.49-0.392l0,0l0,0l0,0l0,0l0,0l0,0l0,0l0,0l0,0l0,0l0,0l0,0l0,0l0,0l0,0l0,0l0,0
			l0,0l0,0l0,0l0,0l0,0l0,0l0,0l0,0l0,0l0,0l0,0l0,0l0,0l0,0l0,0l0,0l0,0l0,0l0,0l0,0l0,0l-2.646-1.96
			c-0.294-0.196-0.294-0.588-0.098-0.882c0.098-0.196,0.294-0.294,0.49-0.294c0.098,0,0.294,0,0.392,0.098L124.5094,79.4217z"/>
		
			<linearGradient id="SVGID_13_" gradientUnits="userSpaceOnUse" x1="131.5619" y1="783.8642" x2="127.6077" y2="787.4785" gradientTransform="matrix(1 0 0 1 0 -703.6366)">
			<stop  offset="0" style="stop-color:#B33C8A"/>
			<stop  offset="1" style="stop-color:#EE4F86"/>
		</linearGradient>
		<path class="st12" d="M131.8594,81.8717c0.098,0.294-0.098,0.686-0.49,0.784c-0.098,0-0.196,0-0.196,0.098l0,0l0,0l0,0l0,0l0,0
			l0,0l0,0l0,0l0,0l0,0l0,0l0,0l0,0l0,0l0,0l0,0c-0.49,0.098-0.98,0.098-1.47,0.098l0,0l0,0l0,0l0,0l0,0l0,0l0,0l0,0l0,0l0,0l0,0
			l0,0l0,0l0,0l0,0l0,0l0,0l0,0l0,0l0,0l0,0l0,0l0,0l0,0l0,0l0,0l0,0l0,0l0,0l0,0l0,0l0,0l0,0l0,0l0,0l0,0l0,0l0,0l0,0l0,0l0,0l0,0
			l0,0l0,0l0,0l0,0l0,0l0,0l0,0l0,0l0,0l0,0l0,0l0,0l0,0l0,0l0,0l0,0l0,0l0,0l0,0l0,0l0,0l0,0l0,0l0,0l0,0l0,0l0,0l0,0l0,0l0,0l0,0
			l0,0l0,0l0,0l0,0l0,0l0,0l0,0l0,0l0,0l0,0l0,0l0,0l0,0l0,0l0,0l0,0l0,0l0,0l0,0l0,0l0,0l0,0l0,0l0,0l0,0l0,0l0,0l0,0l0,0l0,0l0,0
			l0,0l0,0l0,0l0,0l0,0l0,0l0,0l0,0l0,0l0,0l0,0l0,0l0,0l0,0l0,0l0,0l0,0l0,0l0,0l0,0l0,0l0,0l0,0l0,0l0,0l0,0l0,0l0,0l0,0l0,0l0,0
			l0,0c-0.588,0-1.078-0.098-1.666-0.196l0,0l0,0l0,0l0,0l0,0l0,0l0,0l0,0l0,0l0,0l0,0l0,0l0,0l0,0l0,0l0,0l0,0l0,0l0,0l0,0l0,0l0,0
			l0,0l0,0l0,0l0,0l0,0l0,0l0,0l0,0l0,0l0,0l0,0l0,0l0,0l0,0l0,0l0,0l0,0l0,0l0,0l0,0l0,0l0,0l0,0l0,0l0,0l0,0l0,0l0,0l0,0l0,0l0,0
			l0,0l0,0l0,0l0,0l0,0l0,0l0,0l0,0l0,0l0,0c-0.098,0-0.098,0-0.196-0.098c-0.294-0.098-0.49-0.49-0.392-0.784
			s0.294-0.49,0.588-0.49c0.098,0,0.098,0,0.196,0c0.588,0.196,1.274,0.294,1.96,0.294c0.49,0,1.078-0.098,1.568-0.196
			c0.098,0,0.098,0,0.098,0C131.4674,81.3817,131.7614,81.5777,131.8594,81.8717z"/>
		
			<linearGradient id="SVGID_14_" gradientUnits="userSpaceOnUse" x1="133.1277" y1="742.641" x2="126.2293" y2="748.9463" gradientTransform="matrix(1 0 0 1 0 -703.6366)">
			<stop  offset="0" style="stop-color:#B33C8A"/>
			<stop  offset="1" style="stop-color:#EE4F86"/>
		</linearGradient>
		<path class="st13" d="M134.0154,42.4757c-0.098,0.196-0.294,0.294-0.49,0.294c-0.098,0-0.294,0-0.392-0.098l-0.098-0.098
			c-0.784-0.588-1.862-0.98-3.038-0.98c-0.098,0-0.196,0-0.196,0c-0.098,0-0.098,0-0.196,0c-1.176,0-2.352,0.294-3.234,0.882
			c-0.098,0.098-0.196,0.098-0.294,0.098c-0.196,0-0.392-0.098-0.49-0.294c-0.196-0.294-0.098-0.686,0.196-0.882l0,0l0,0l0,0l0,0
			l0,0l0,0l0,0l0,0l0,0l0,0l0,0l0,0l0,0l0,0l0,0l0,0l0,0l0,0l0,0l0,0l0,0l0,0l0,0l0,0l0,0l0,0l0,0l0,0l0,0l0,0l0,0l0,0l0,0l0,0l0,0
			l0,0l0,0l0,0l0,0l0,0l0,0l0,0l0,0l0,0l0,0l0,0l0,0l0,0l0,0l0,0l0,0l0,0l0,0l0,0l0,0l0,0l0,0l0,0l0,0l0,0l0,0l0,0l0,0l0,0l0,0l0,0
			l0,0l0,0l0,0l0,0l0,0l0,0l0,0l0,0l0,0l0,0l0,0l0,0l0,0l0,0l0,0l0,0l0,0l0,0l0,0l0,0l0,0l0,0l0,0l0,0l0,0l0,0l0,0l0,0l0,0l0,0l0,0
			c0,0,0,0,0.098,0l0,0l0,0l0,0l0,0l0,0l0,0l0,0l0,0l0,0h0.098l0,0c0.686-0.294,1.47-0.588,2.254-0.686l0,0h0.098l0,0l0,0l0,0l0,0
			l0,0l0,0l0,0l0,0l0,0c0,0,0,0,0.098,0l0,0l0,0l0,0l0,0l0,0l0,0l0,0l0,0l0,0l0,0l0,0l0,0l0,0c0,0,0,0,0.098,0l0,0l0,0l0,0l0,0l0,0
			l0,0l0,0l0,0l0,0l0,0l0,0l0,0l0,0l0,0l0,0c0,0,0,0,0.098,0l0,0l0,0l0,0l0,0l0,0l0,0l0,0l0,0l0,0l0,0l0,0l0,0l0,0l0,0l0,0l0,0l0,0
			l0,0l0,0l0,0l0,0l0,0l0,0l0,0l0,0l0,0l0,0l0,0l0,0l0,0l0,0l0,0l0,0l0,0l0,0l0,0l0,0l0,0l0,0l0,0l0,0l0,0l0,0l0,0l0,0l0,0l0,0l0,0
			l0,0l0,0l0,0l0,0l0,0l0,0l0,0l0,0l0,0l0,0l0,0l0,0l0,0l0,0l0,0l0,0l0,0l0,0l0,0l0,0l0,0l0,0l0,0l0,0l0,0l0,0l0,0l0,0l0,0l0,0l0,0
			l0,0l0,0l0,0l0,0l0,0l0,0l0,0l0,0l0,0l0,0l0,0l0,0l0,0l0,0l0,0l0,0l0,0l0,0l0,0l0,0l0,0l0,0l0,0l0,0l0,0l0,0l0,0l0,0l0,0l0,0l0,0
			l0,0l0,0l0,0l0,0l0,0l0,0l0,0l0,0l0,0l0,0l0,0l0,0l0,0l0,0l0,0l0,0l0,0l0,0l0,0l0,0l0,0l0,0l0,0l0,0l0,0l0,0l0,0l0,0l0,0l0,0l0,0
			l0,0l0,0l0,0l0,0l0,0l0,0l0,0l0,0l0,0l0,0c0.098,0,0.196,0,0.294,0s0.098,0,0.196,0l0,0l0,0l0,0l0,0l0,0l0,0l0,0l0,0l0,0l0,0l0,0
			l0,0l0,0l0,0l0,0l0,0l0,0l0,0l0,0l0,0l0,0l0,0c0,0,0,0,0.098,0l0,0l0,0l0,0l0,0l0,0l0,0l0,0c0,0,0,0,0.098,0l0,0l0,0l0,0l0,0l0,0
			c1.176,0.098,2.352,0.49,3.234,1.078l0,0l0,0l0,0l0,0l0,0l0,0l0,0l0,0l0,0l0,0l0,0l0,0l0,0l0,0l0,0l0,0l0,0l0,0l0,0l0,0l0,0l0,0
			l0,0l0,0l0,0l0,0l0,0l0,0l0,0l0,0l0,0l0,0l0,0l0,0l0,0l0,0l0,0l0,0l0,0l0.098,0.098
			C134.2114,41.7897,134.2114,42.1817,134.0154,42.4757z"/>
		
			<linearGradient id="SVGID_15_" gradientUnits="userSpaceOnUse" x1="108.6335" y1="764.1252" x2="104.3653" y2="768.0264" gradientTransform="matrix(1 0 0 1 0 -703.6366)">
			<stop  offset="0" style="stop-color:#B33C8A"/>
			<stop  offset="1" style="stop-color:#EE4F86"/>
		</linearGradient>
		<path class="st14" d="M106.5754,65.0157c-0.294,0-0.588-0.294-0.588-0.588v-4.116c0-0.294,0.294-0.588,0.588-0.588
			s0.588,0.294,0.588,0.588v4.116C107.1634,64.7217,106.8694,65.0157,106.5754,65.0157z"/>
		
			<linearGradient id="SVGID_16_" gradientUnits="userSpaceOnUse" x1="110.2476" y1="771.6131" x2="108.1155" y2="773.5618" gradientTransform="matrix(1 0 0 1 0 -703.6366)">
			<stop  offset="0" style="stop-color:#B33C8A"/>
			<stop  offset="1" style="stop-color:#EE4F86"/>
		</linearGradient>
		<path class="st15" d="M111.1814,69.6217c0.294,0.196,0.294,0.588,0.098,0.882c-0.098,0.196-0.294,0.294-0.49,0.294
			c-0.098,0-0.294,0-0.392-0.098l-2.842-2.058l0,0l0,0l0,0l0,0l0,0l0,0l0,0l0,0c-0.196-0.098-0.294-0.196-0.49-0.392
			c-0.294-0.196-0.294-0.588,0-0.882c0.098-0.098,0.294-0.196,0.49-0.196s0.294,0.098,0.392,0.196s0.196,0.196,0.392,0.294
			L111.1814,69.6217z"/>
	</g>
	<g>
		<path class="st16" d="M43.6486,14.0787c-0.098,0.196-0.294,0.294-0.49,0.294c-0.098,0-0.294,0-0.392-0.098l-3.332-2.45
			c-0.294-0.196-0.294-0.588-0.098-0.882c0.098-0.196,0.294-0.294,0.49-0.294c0.098,0,0.294,0,0.392,0.098
			c0,0,1.764,1.274,2.744,1.96c0,0,0,0,0.098,0l0,0l0,0l0,0l0,0l0,0l0,0l0,0l0,0l0.49,0.392
			C43.7466,13.3927,43.8446,13.7847,43.6486,14.0787z"/>
		<path class="st16" d="M41.2966,34.4627c0.196,0.294,0.196,0.686-0.098,0.882l-3.43,2.45c-0.098,0.098-0.196,0.098-0.392,0.098
			s-0.392-0.098-0.49-0.294c-0.196-0.294-0.196-0.686,0.098-0.882l3.332-2.45c0.098-0.098,0.196-0.098,0.392-0.098
			C40.9046,34.2667,41.1006,34.3647,41.2966,34.4627z"/>
		<path class="st16" d="M47.8626,29.6607c0.196,0.294,0.196,0.686-0.098,0.882c0,0-0.098,0-0.098,0.098l0,0l0,0l0,0l0,0l0,0l0,0
			c0,0-0.098,0-0.098,0.098l0,0l0,0l0,0c0,0-0.098,0-0.098,0.098l0,0l0,0l0,0l0,0l0,0l0,0l0,0l0,0l0,0l0,0l0,0l0,0h-0.098l0,0l0,0
			l0,0l0,0l0,0l0,0l0,0l0,0l0,0l0,0l0,0l0,0l0,0l0,0l0,0l0,0l0,0l0,0l0,0l0,0l0,0l0,0l0,0l0,0l0,0l0,0l0,0l0,0l0,0l0,0l0,0l0,0l0,0
			l0,0l0,0l-2.94,2.058c-0.098,0.098-0.196,0.098-0.392,0.098s-0.392-0.098-0.49-0.294c-0.196-0.294-0.196-0.686,0.098-0.882
			l3.234-2.352l0.098-0.098c0.098-0.098,0.196-0.098,0.392-0.098C47.5686,29.3667,47.7646,29.4647,47.8626,29.6607z"/>
		<path class="st16" d="M48.1566,18.8807c-0.098-0.686-0.588-1.274-1.274-1.764l-0.784-0.588c-0.294-0.196-0.294-0.588-0.098-0.882
			c0.098-0.196,0.294-0.294,0.49-0.294c0.098,0,0.294,0,0.392,0.098l0.784,0.588l0,0l0,0l0,0l0,0l0,0l0,0l0,0l0,0l0,0l0,0l0,0l0,0
			l0,0l0,0l0,0l0,0l0,0l0,0l0,0l0,0l0,0l0,0l0,0l0,0l0,0l0,0l0,0l0,0l0,0l0,0l0,0l0,0l0,0l0,0l0,0l0,0l0,0l0,0l0,0l0,0l0,0l0,0l0,0
			l0,0l0,0l0,0l0,0l0,0l0,0l0,0l0,0l0,0l0,0l0,0l0,0l0,0l0,0l0,0l0,0l0,0l0,0l0,0l0,0l0,0l0,0l0,0l0,0l0,0l0,0l0,0l0,0l0,0l0,0l0,0
			l0,0l0,0l0,0l0,0l0,0l0,0l0,0l0,0l0,0l0,0l0,0l0,0l0,0l0,0l0,0l0,0l0,0l0,0l0,0l0,0l0,0l0,0l0,0l0,0l0,0l0,0l0,0l0,0l0,0l0,0l0,0
			l0,0l0,0l0,0l0,0l0,0l0,0l0,0l0,0l0,0l0,0l0,0l0,0l0,0l0,0l0,0l0,0l0,0l0,0l0,0l0,0l0,0l0,0l0,0l0,0l0,0l0,0l0,0l0,0l0,0l0,0l0,0
			l0,0l0,0l0,0l0,0l0,0l0,0l0,0l0,0l0,0l0,0l0,0l0,0l0,0l0,0l0,0l0,0l0,0l0,0l0,0l0,0l0,0l0,0l0,0l0,0l0,0l0,0l0,0l0,0l0,0l0,0l0,0
			l0,0l0,0l0,0l0,0l0,0l0,0l0,0l0,0l0,0l0,0l0,0l0,0l0,0l0,0l0,0l0,0l0,0l0,0l0,0l0,0l0,0l0,0l0,0l0,0l0,0l0,0l0,0l0,0l0,0l0,0l0,0
			l0,0l0,0l0,0l0,0l0,0l0,0l0,0l0,0l0,0l0,0l0,0l0,0l0,0l0,0l0,0l0,0l0,0l0,0l0,0l0,0l0,0l0,0l0,0l0,0l0,0l0,0l0,0l0,0l0,0l0,0l0,0
			l0,0l0,0l0,0l0,0l0,0l0,0l0,0l0,0l0,0l0,0l0,0l0,0l0,0l0,0l0,0l0,0l0,0l0,0l0,0l0,0l0,0l0,0l0,0l0,0l0,0l0,0l0,0l0,0l0,0l0,0l0,0
			l0,0l0,0l0,0l0,0l0,0l0,0l0,0l0,0l0,0l0,0l0,0l0,0l0,0l0,0l0,0l0,0l0,0l0,0l0,0l0,0l0,0l0,0l0,0l0,0l0,0l0,0l0,0l0,0l0,0l0,0l0,0
			l0,0l0,0l0,0l0,0l0,0l0,0l0,0l0,0l0,0l0,0l0,0l0,0l0,0l0,0l0,0l0,0l0,0l0,0l0,0l0,0l0,0l0,0l0,0l0,0l0,0l0,0l0,0l0,0l0,0l0,0l0,0
			l0,0l0,0l0,0l0,0l0,0l0,0l0,0l0,0l0,0l0,0l0,0l0,0l0,0l0,0l0,0l0,0l0,0l0,0l0,0l0,0l0,0l0,0l0,0l0,0l0,0l0,0l0,0l0,0l0,0l0,0l0,0
			l0,0l0,0l0,0l0,0l0,0l0,0l0,0l0,0l0,0l0,0l0,0l0,0l0,0l0,0l0,0l0,0l0,0l0,0l0,0l0,0l0,0l0,0l0,0l0,0l0,0l0,0l0,0l0,0l0,0l0,0l0,0
			l0,0l0,0l0,0l0,0l0,0l0,0l0,0l0,0l0,0l0,0l0,0l0,0l0,0l0,0l0,0l0,0l0,0l0,0l0,0l0,0l0,0l0,0l0,0l0,0l0,0l0,0l0,0l0,0l0,0l0,0l0,0
			l0,0l0,0l0,0l0,0l0,0l0,0l0,0l0,0l0,0l0,0l0,0l0,0l0,0l0,0l0,0l0,0l0,0l0,0l0,0l0,0l0,0l0,0l0,0l0,0l0,0l0,0l0,0l0,0l0,0l0,0l0,0
			l0,0l0,0l0,0l0,0l0,0l0,0l0,0l0,0l0,0l0,0l0,0l0,0l0,0l0,0l0,0l0,0l0,0l0,0l0,0l0,0l0,0l0,0l0,0l0,0l0,0l0,0l0,0l0,0l0,0l0,0l0,0
			l0,0l0,0l0,0l0,0l0,0l0,0l0,0l0,0l0,0l0,0l0,0l0,0l0,0l0,0l0,0l0,0l0,0l0,0l0,0l0,0l0,0l0,0l0,0l0,0l0,0l0,0l0,0l0,0l0,0l0,0l0,0
			l0,0l0,0l0,0l0,0l0,0l0,0l0,0l0,0l0,0l0,0l0,0l0,0l0,0l0,0l0,0l0,0l0,0l0,0l0,0l0,0l0,0l0,0l0,0l0,0l0,0l0,0l0,0l0,0l0,0l0,0l0,0
			l0,0l0,0l0,0l0,0l0,0l0,0l0,0l0,0l0,0l0,0l0,0l0,0l0,0l0,0l0,0l0,0l0,0l0,0l0,0l0,0l0,0l0,0l0,0l0,0l0,0l0,0l0,0l0,0l0,0l0,0l0,0
			l0,0l0,0l0,0l0,0l0,0l0,0l0,0l0,0l0,0l0,0l0,0l0,0l0,0l0,0l0,0l0,0l0,0l0,0l0,0l0,0l0,0l0,0l0,0l0,0l0,0l0,0
			c0,0,0,0.098,0.098,0.098l0,0c0.098,0.294,0.196,0.588,0.294,0.882s-0.196,0.686-0.49,0.686h-0.098
			C48.4506,19.4687,48.1566,19.1747,48.1566,18.8807z"/>
		<path class="st16" d="M2.2926,18.1947c0.294-0.686,0.784-1.372,1.568-1.96l0,0l0,0l0,0l0,0l0,0l0,0l0,0l0,0l0,0l0,0l0,0l0,0l0,0
			l0,0l0,0l0,0l0,0l0,0l0,0l0,0l0,0l0,0l0,0l0,0l1.176-0.98c0.098,0,0.294-0.098,0.392-0.098c0.196,0,0.392,0.098,0.49,0.294
			c0.196,0.294,0.098,0.686-0.098,0.882l-1.274,0.882c-0.588,0.392-0.98,0.882-1.176,1.47c-0.098,0.294-0.294,0.392-0.588,0.392
			c-0.098,0-0.098,0-0.196,0C2.3906,18.8807,2.1946,18.4887,2.2926,18.1947z"/>
		<path class="st16" d="M49.4306,26.9167c0,0.294-0.294,0.588-0.588,0.588l0,0c-0.392,0-0.588-0.294-0.588-0.588v-4.116
			c0-0.294,0.294-0.588,0.588-0.588l0,0c0.392,0,0.588,0.294,0.588,0.588v1.764l0,0l0,0l0,0l0,0
			C49.4306,25.7407,49.4306,26.9167,49.4306,26.9167z"/>
		<path class="st16" d="M36.8866,9.2767c-0.098,0.196-0.294,0.294-0.49,0.294c-0.098,0-0.294,0-0.392-0.098l-3.332-2.45
			c-0.294-0.196-0.294-0.588-0.098-0.882c0.098-0.196,0.294-0.294,0.49-0.294c0.098,0,0.294,0,0.392,0.098
			c0,0,0.294,0.196,0.784,0.588l0,0l0,0l0,0l0,0l0,0l0,0l0,0l0,0l0,0l0,0l0,0l0,0l0,0l0,0l0,0l0,0l0,0l0,0l0,0l0,0l0,0l0,0l0,0l0,0
			l0,0l0,0l2.352,1.764C37.0826,8.5907,37.0826,8.9827,36.8866,9.2767z"/>
		<path class="st16" d="M12.4846,11.5307l-3.332,2.45c-0.098,0.098-0.196,0.098-0.392,0.098s-0.392-0.098-0.49-0.294
			c-0.196-0.294-0.098-0.686,0.098-0.882c0,0,0.784-0.588,1.666-1.176l0,0l0,0l0,0l0,0l0,0l0,0l0,0l0,0l0,0l0,0l0,0l0,0l0,0l0,0
			l1.666-1.176c0.098-0.098,0.196-0.098,0.392-0.098s0.392,0.098,0.49,0.294C12.8766,10.8447,12.7786,11.2367,12.4846,11.5307z"/>
		<path class="st16" d="M19.2466,6.6307l-3.332,2.45c-0.098,0.098-0.196,0.098-0.392,0.098s-0.392-0.098-0.49-0.294
			c-0.196-0.294-0.098-0.686,0.098-0.882l2.352-1.666l0,0l0,0l0,0l0,0l0,0l0,0l0,0l0,0l0,0l0,0l0,0l0,0l0,0l0,0l0,0l0,0l0,0l0,0
			c0,0,0,0,0.098,0l0,0c0.49-0.294,0.784-0.588,0.784-0.588c0.098-0.098,0.196-0.098,0.392-0.098s0.392,0.098,0.49,0.294
			C19.5406,6.0427,19.4426,6.4347,19.2466,6.6307z"/>
		<path class="st16" d="M14.0526,36.5207c0.294,0.196,0.294,0.588,0.098,0.882c-0.098,0.196-0.294,0.294-0.49,0.294
			c-0.098,0-0.294,0-0.392-0.098l-3.234-2.352l0,0l0,0l0,0l0,0l0,0l0,0l0,0l0,0l0,0l0,0l0,0l0,0l0,0l0,0l0,0l0,0l0,0l0,0l0,0l0,0
			l0,0l0,0l0,0l0,0l0,0l0,0l0,0l0,0l0,0l0,0l0,0l0,0l0,0l0,0l0,0l0,0l0,0l0,0l0,0l0,0l0,0l0,0l0,0l0,0l0,0l0,0l0,0l0,0l0,0l0,0l0,0
			l0,0l0,0l0,0l0,0c-0.294-0.196-0.294-0.588-0.098-0.882c0.098-0.196,0.294-0.294,0.49-0.294c0.098,0,0.294,0,0.392,0.098
			L14.0526,36.5207z"/>
		<path class="st16" d="M34.6326,39.3627c0.196,0.294,0.196,0.686-0.098,0.882l-1.274,0.98l0,0l0,0l0,0l0,0l0,0l0,0l0,0l0,0l0,0l0,0
			l0,0l0,0c-0.882,0.686-1.96,1.47-1.96,1.47c-0.098,0.098-0.196,0.098-0.392,0.098s-0.392-0.098-0.49-0.294
			c-0.196-0.294-0.196-0.686,0.098-0.882l3.332-2.45c0.098-0.098,0.196-0.098,0.392-0.098
			C34.3386,39.0687,34.4366,39.1667,34.6326,39.3627z"/>
		<path class="st16" d="M20.7166,41.3227c0.294,0.196,0.294,0.588,0.098,0.882c-0.098,0.196-0.294,0.294-0.49,0.294
			c-0.098,0-0.294,0-0.392-0.098c0,0-0.196-0.196-0.49-0.392l0,0l0,0l0,0l0,0l0,0l0,0l0,0l0,0l0,0l0,0l0,0l0,0l0,0l0,0l0,0l0,0l0,0
			l0,0l0,0l0,0l0,0l0,0l0,0l0,0l0,0l0,0l0,0l0,0l0,0l0,0l0,0l0,0l0,0l0,0l0,0l0,0l0,0l0,0l-2.646-1.96
			c-0.294-0.196-0.294-0.588-0.098-0.882c0.098-0.196,0.294-0.294,0.49-0.294c0.098,0,0.294,0,0.392,0.098L20.7166,41.3227z"/>
		<path class="st16" d="M28.0666,43.8707c0.098,0.294-0.098,0.686-0.49,0.784c-0.098,0-0.196,0-0.196,0.098l0,0l0,0l0,0l0,0l0,0l0,0
			l0,0l0,0l0,0l0,0l0,0l0,0l0,0l0,0l0,0l0,0c-0.49,0.098-0.98,0.098-1.47,0.098l0,0l0,0l0,0l0,0l0,0l0,0l0,0l0,0l0,0l0,0l0,0l0,0
			l0,0l0,0l0,0l0,0l0,0l0,0l0,0l0,0l0,0l0,0l0,0l0,0l0,0l0,0l0,0l0,0l0,0l0,0l0,0l0,0l0,0l0,0l0,0l0,0l0,0l0,0l0,0l0,0l0,0l0,0l0,0
			l0,0l0,0l0,0l0,0l0,0l0,0l0,0l0,0l0,0l0,0l0,0l0,0l0,0l0,0l0,0l0,0l0,0l0,0l0,0l0,0l0,0l0,0l0,0l0,0l0,0l0,0l0,0l0,0l0,0l0,0l0,0
			l0,0l0,0l0,0l0,0l0,0l0,0l0,0l0,0l0,0l0,0l0,0l0,0l0,0l0,0l0,0l0,0l0,0l0,0l0,0l0,0l0,0l0,0l0,0l0,0l0,0l0,0l0,0l0,0l0,0l0,0l0,0
			l0,0l0,0l0,0l0,0l0,0l0,0l0,0l0,0l0,0l0,0l0,0l0,0l0,0l0,0l0,0l0,0l0,0l0,0l0,0l0,0l0,0l0,0l0,0l0,0l0,0l0,0l0,0l0,0l0,0l0,0l0,0
			c-0.588,0-1.078-0.098-1.666-0.196l0,0l0,0l0,0l0,0l0,0l0,0l0,0l0,0l0,0l0,0l0,0l0,0l0,0l0,0l0,0l0,0l0,0l0,0l0,0l0,0l0,0l0,0l0,0
			l0,0l0,0l0,0l0,0l0,0l0,0l0,0l0,0l0,0l0,0l0,0l0,0l0,0l0,0l0,0l0,0l0,0l0,0l0,0l0,0l0,0l0,0l0,0l0,0l0,0l0,0l0,0l0,0l0,0l0,0l0,0
			l0,0l0,0l0,0l0,0l0,0l0,0l0,0l0,0l0,0c-0.098,0-0.098,0-0.196-0.098c-0.294-0.098-0.49-0.49-0.392-0.784s0.294-0.49,0.588-0.49
			c0.098,0,0.098,0,0.196,0c0.588,0.196,1.274,0.294,1.96,0.294c0.49,0,1.078-0.098,1.568-0.196c0.098,0,0.098,0,0.098,0
			C27.6746,43.3807,27.9686,43.5767,28.0666,43.8707z"/>
		<path class="st16" d="M30.2226,4.3767c-0.098,0.196-0.294,0.294-0.49,0.294c-0.098,0-0.294,0-0.392-0.098l-0.098-0.098
			c-0.784-0.588-1.862-0.98-3.038-0.98c-0.098,0-0.196,0-0.196,0c-0.098,0-0.098,0-0.196,0c-1.176,0-2.352,0.294-3.234,0.882
			c-0.098,0.098-0.196,0.098-0.294,0.098c-0.196,0-0.392-0.098-0.49-0.294c-0.196-0.294-0.098-0.686,0.196-0.882l0,0l0,0l0,0l0,0
			l0,0l0,0l0,0l0,0l0,0l0,0l0,0l0,0l0,0l0,0l0,0l0,0l0,0l0,0l0,0l0,0l0,0l0,0l0,0l0,0l0,0l0,0l0,0l0,0l0,0l0,0l0,0l0,0l0,0l0,0l0,0
			l0,0l0,0l0,0l0,0l0,0l0,0l0,0l0,0l0,0l0,0l0,0l0,0l0,0l0,0l0,0l0,0l0,0l0,0l0,0l0,0l0,0l0,0l0,0l0,0l0,0l0,0l0,0l0,0l0,0l0,0l0,0
			l0,0l0,0l0,0l0,0l0,0l0,0l0,0l0,0l0,0l0,0l0,0l0,0l0,0l0,0l0,0l0,0l0,0l0,0l0,0l0,0l0,0l0,0l0,0l0,0l0,0l0,0l0,0l0,0l0,0l0,0l0,0
			c0,0,0,0,0.098,0l0,0l0,0l0,0l0,0l0,0l0,0l0,0l0,0l0,0h0.098l0,0c0.686-0.294,1.47-0.588,2.254-0.686l0,0h0.098l0,0l0,0l0,0l0,0
			l0,0l0,0l0,0l0,0l0,0c0,0,0,0,0.098,0l0,0l0,0l0,0l0,0l0,0l0,0l0,0l0,0l0,0l0,0l0,0l0,0l0,0c0,0,0,0,0.098,0l0,0l0,0l0,0l0,0l0,0
			l0,0l0,0l0,0l0,0l0,0l0,0l0,0l0,0l0,0l0,0c0,0,0,0,0.098,0l0,0l0,0l0,0l0,0l0,0l0,0l0,0l0,0l0,0l0,0l0,0l0,0l0,0l0,0l0,0l0,0l0,0
			l0,0l0,0l0,0l0,0l0,0l0,0l0,0l0,0l0,0l0,0l0,0l0,0l0,0l0,0l0,0l0,0l0,0l0,0l0,0l0,0l0,0l0,0l0,0l0,0l0,0l0,0l0,0l0,0l0,0l0,0l0,0
			l0,0l0,0l0,0l0,0l0,0l0,0l0,0l0,0l0,0l0,0l0,0l0,0l0,0l0,0l0,0l0,0l0,0l0,0l0,0l0,0l0,0l0,0l0,0l0,0l0,0l0,0l0,0l0,0l0,0l0,0l0,0
			l0,0l0,0l0,0l0,0l0,0l0,0l0,0l0,0l0,0l0,0l0,0l0,0l0,0l0,0l0,0l0,0l0,0l0,0l0,0l0,0l0,0l0,0l0,0l0,0l0,0l0,0l0,0l0,0l0,0l0,0l0,0
			l0,0l0,0l0,0l0,0l0,0l0,0l0,0l0,0l0,0l0,0l0,0l0,0l0,0l0,0l0,0l0,0l0,0l0,0l0,0l0,0l0,0l0,0l0,0l0,0l0,0l0,0l0,0l0,0l0,0l0,0l0,0
			l0,0l0,0l0,0l0,0l0,0l0,0l0,0l0,0l0,0l0,0c0.098,0,0.196,0,0.294,0c0.098,0,0.098,0,0.196,0l0,0l0,0l0,0l0,0l0,0l0,0l0,0l0,0l0,0
			l0,0l0,0l0,0l0,0l0,0l0,0l0,0l0,0l0,0l0,0l0,0l0,0l0,0c0,0,0,0,0.098,0l0,0l0,0l0,0l0,0l0,0l0,0l0,0c0,0,0,0,0.098,0l0,0l0,0l0,0
			l0,0l0,0c1.176,0.098,2.352,0.49,3.234,1.078l0,0l0,0l0,0l0,0l0,0l0,0l0,0l0,0l0,0l0,0l0,0l0,0l0,0l0,0l0,0l0,0l0,0l0,0l0,0l0,0
			l0,0l0,0l0,0l0,0l0,0l0,0l0,0l0,0l0,0l0,0l0,0l0,0l0,0l0,0l0,0l0,0l0,0l0,0l0,0l0.098,0.098
			C30.4186,3.7887,30.4186,4.1807,30.2226,4.3767z"/>
		<path class="st16" d="M2.7826,27.0147c-0.294,0-0.588-0.294-0.588-0.588v-4.116c0-0.294,0.294-0.588,0.588-0.588
			s0.588,0.294,0.588,0.588v4.116C3.3706,26.7207,3.0766,27.0147,2.7826,27.0147z"/>
		<path class="st16" d="M7.3886,31.6207c0.294,0.196,0.294,0.588,0.098,0.882c-0.098,0.196-0.294,0.294-0.49,0.294
			c-0.098,0-0.294,0-0.392-0.098l-2.842-2.058l0,0l0,0l0,0l0,0l0,0l0,0l0,0l0,0c-0.196-0.098-0.294-0.196-0.49-0.392
			c-0.294-0.196-0.294-0.588,0-0.882c0.098-0.098,0.294-0.196,0.49-0.196s0.294,0.098,0.392,0.196s0.196,0.196,0.392,0.294
			L7.3886,31.6207z"/>
	</g>
	
		<linearGradient id="SVGID_17_" gradientUnits="userSpaceOnUse" x1="100.3232" y1="793.1954" x2="53.6199" y2="835.8827" gradientTransform="matrix(1 0 0 1 0 -703.6366)">
		<stop  offset="0" style="stop-color:#B33C8A"/>
		<stop  offset="1" style="stop-color:#EE4F86"/>
	</linearGradient>
	<path class="st17" d="M55.1054,118.0817l17.9,13.1c1.3,0.9,2.9,1.4,4.7,1.4c1.8,0,3.4-0.5,4.7-1.4l17.9-13.2c1.2-0.8,1.9-2,2-3.2
		c0-0.1,0-0.1,0-0.2v-8.5l0,0c0-0.1,0-0.1,0-0.2v-0.1c0,0,0,0,0-0.1s0-0.1,0-0.2c-0.2-1.2-0.9-2.3-2-3.2l-17.9-12.7
		c-2.6-1.9-6.7-1.9-9.3,0l-18,12.9c-1.2,0.8-1.9,2-2,3.2v0.2c0,0.2,0,0.4,0,0.6l0,0v7.7
		C53.0054,115.6817,53.7054,117.0817,55.1054,118.0817z"/>
	<path class="st18" d="M101.1054,109.1817v5.5v0.1c-0.1,0.9-0.6,1.8-1.5,2.4l-17.9,13.2c-1,0.8-2.5,1.2-4,1.2l0,0
		c-1.5,0-2.9-0.4-4-1.2l-17.9-13.2c-1-0.8-1.6-1.8-1.5-2.8v-5.2c0.2,0.2,0.5,0.4,0.7,0.6l0,0l17.9,13.2l0,0l0,0
		c0.3,0.2,0.7,0.4,1,0.6h0.1c1.1,0.5,2.3,0.8,3.6,0.8c1.8,0,3.4-0.5,4.7-1.4l9.4-6.9l8.5-6.2
		C100.6054,109.5817,100.9054,109.3817,101.1054,109.1817L101.1054,109.1817z"/>
	<path class="st18" d="M54.4054,105.8817c0.1-0.9,0.7-1.7,1.5-2.3l17.9-12.9c1.1-0.8,2.5-1.2,3.9-1.2s2.8,0.4,3.9,1.2l17.9,12.9
		c0.9,0.6,1.4,1.5,1.5,2.3c0,0.1,0,0.2,0,0.3c0,0.2,0,0.4-0.1,0.6v0.1c-0.1,0.2-0.1,0.4-0.2,0.6l-0.1,0.1c-0.1,0.2-0.2,0.4-0.4,0.6
		c0,0,0,0-0.1,0.1c-0.2,0.2-0.4,0.4-0.6,0.6l-9,6.6l-9,6.6c-0.3,0.2-0.6,0.4-0.9,0.5c-0.2,0.1-0.5,0.2-0.7,0.3
		c-0.1,0-0.2,0.1-0.2,0.1c-0.7,0.2-1.4,0.3-2.1,0.3l0,0c-1.1,0-2.2-0.2-3.1-0.7c-0.3-0.2-0.6-0.3-0.9-0.5l-18-13.1l0,0
		c-0.6-0.5-1.1-1-1.3-1.6v-0.1l0,0c-0.1-0.2-0.1-0.4-0.1-0.6s0-0.3,0-0.4h-0.3c0,0,0,0-0.1,0L54.4054,105.8817z"/>
	<g>
		
			<linearGradient id="SVGID_18_" gradientUnits="userSpaceOnUse" x1="100.3232" y1="769.1954" x2="53.6199" y2="811.8827" gradientTransform="matrix(1 0 0 1 0 -703.6366)">
			<stop  offset="0" style="stop-color:#B33C8A"/>
			<stop  offset="1" style="stop-color:#EE4F86"/>
		</linearGradient>
		<path class="st19" d="M55.1054,94.0817l17.9,13.1c1.3,0.9,2.9,1.4,4.7,1.4c1.8,0,3.4-0.5,4.7-1.4l17.9-13.2c1.2-0.8,1.9-2,2-3.2
			c0-0.1,0-0.1,0-0.2v-8.5l0,0c0-0.1,0-0.1,0-0.2v-0.1c0,0,0,0,0-0.1s0-0.1,0-0.2c-0.2-1.2-0.9-2.3-2-3.2l-17.9-12.7
			c-2.6-1.9-6.7-1.9-9.3,0l-18,12.9c-1.2,0.8-1.9,2-2,3.2v0.2c0,0.2,0,0.4,0,0.6l0,0v7.7
			C53.0054,91.6817,53.7054,93.0817,55.1054,94.0817z"/>
		<path class="st18" d="M101.1054,85.1817v5.5v0.1c-0.1,0.9-0.6,1.8-1.5,2.4l-17.9,13.2c-1,0.8-2.5,1.2-4,1.2l0,0
			c-1.5,0-2.9-0.4-4-1.2l-17.9-13.3c-1-0.8-1.6-1.8-1.5-2.8v-5.1c0.2,0.2,0.5,0.4,0.7,0.6l0,0l17.9,13.2l0,0l0,0
			c0.3,0.2,0.7,0.4,1,0.6h0.1c1.1,0.5,2.3,0.8,3.6,0.8c1.8,0,3.4-0.5,4.7-1.4l9.4-6.9l8.5-6.2
			C100.6054,85.5817,100.9054,85.3817,101.1054,85.1817L101.1054,85.1817z"/>
		<path class="st18" d="M54.4054,81.8817c0.1-0.9,0.7-1.7,1.5-2.3l17.9-12.9c1.1-0.8,2.5-1.2,3.9-1.2s2.8,0.4,3.9,1.2l17.9,12.9
			c0.9,0.6,1.4,1.5,1.5,2.3c0,0.1,0,0.2,0,0.3c0,0.2,0,0.4-0.1,0.6v0.1c-0.1,0.2-0.1,0.4-0.2,0.6l-0.1,0.1c-0.1,0.2-0.2,0.4-0.4,0.6
			c0,0,0,0-0.1,0.1c-0.2,0.2-0.4,0.4-0.6,0.6l-9,6.6l-9,6.6c-0.3,0.2-0.6,0.4-0.9,0.5c-0.2,0.1-0.5,0.2-0.7,0.3
			c-0.1,0-0.2,0.1-0.2,0.1c-0.7,0.2-1.4,0.3-2.1,0.3l0,0c-1.1,0-2.2-0.2-3.1-0.7c-0.3-0.2-0.6-0.3-0.9-0.5l-18-13.1l0,0
			c-0.6-0.5-1.1-1-1.3-1.6v-0.1l0,0c-0.1-0.2-0.1-0.4-0.1-0.6s0-0.3,0-0.4h-0.3c0,0,0,0-0.1,0L54.4054,81.8817z"/>
	</g>
	<g id="Layer_2_1_">
	</g>
</g>
<g id="old-slice">
	<g>
		<path class="st16" d="M54.5054,68.9817l17.9,13.2c1.3,0.9,2.9,1.4,4.7,1.4c1.8,0,3.4-0.5,4.7-1.4l17.9-13.2c1.2-0.8,1.9-2,2-3.2
			c0-0.1,0-0.1,0-0.2v-8.5l0,0c0-0.1,0-0.1,0-0.2v-0.1c0,0,0,0,0-0.1s0-0.1,0-0.2c-0.2-1.2-0.9-2.4-2-3.2l-18-12.8
			c-2.6-1.9-6.7-1.9-9.3,0l-17.9,12.9c-1.2,0.8-1.9,2-2,3.2v0.1c0,0.2,0,0.4,0,0.6l0,0v7.7
			C52.3054,66.5817,53.1054,67.9817,54.5054,68.9817z"/>
		<path class="st18" d="M100.5054,59.9817v5.5v0.1c-0.1,0.9-0.6,1.8-1.5,2.4l-17.9,13.1c-1,0.8-2.5,1.2-4,1.2l0,0
			c-1.5,0-2.9-0.4-4-1.2l-17.9-13.1c-1-0.8-1.6-1.8-1.5-2.9v-5.1c0.2,0.2,0.5,0.4,0.7,0.6l0,0l17.9,13.1l0,0l0,0
			c0.3,0.2,0.7,0.4,1,0.6h0.1c1.1,0.5,2.3,0.8,3.6,0.8c1.8,0,3.4-0.5,4.7-1.4l9.4-6.9l8.5-6.2
			C100.0054,60.4817,100.2054,60.2817,100.5054,59.9817C100.4054,60.0817,100.5054,60.0817,100.5054,59.9817z"/>
		<path class="st18" d="M53.7054,56.6817c0.1-0.9,0.7-1.7,1.5-2.3l17.9-12.9c1.1-0.8,2.5-1.2,3.9-1.2s2.8,0.4,3.9,1.2l18,12.9
			c0.9,0.6,1.4,1.5,1.5,2.3c0,0.1,0,0.2,0,0.3c0,0.2,0,0.4-0.1,0.6v0.1c-0.1,0.2-0.1,0.4-0.2,0.6l-0.1,0.1c-0.1,0.2-0.2,0.4-0.4,0.6
			c0,0,0,0-0.1,0.1c-0.2,0.2-0.4,0.4-0.6,0.5l-9,6.6l-9,6.6c-0.3,0.2-0.6,0.4-0.9,0.5c-0.2,0.1-0.5,0.2-0.7,0.3
			c-0.1,0-0.2,0.1-0.2,0.1c-0.7,0.2-1.4,0.3-2.1,0.3l0,0c-1.1,0-2.2-0.2-3.1-0.7c-0.3-0.2-0.6-0.3-0.9-0.5l-18-13.1l0,0
			c-0.6-0.5-1.1-1-1.3-1.6v-0.1l0,0c-0.1-0.2-0.1-0.4-0.1-0.6c0-0.1,0-0.3,0-0.5h-0.3c0,0,0,0-0.1,0L53.7054,56.6817z"/>
	</g>
</g>
<g id="old-slice-end">
	<g>
		<path class="st16" d="M3.1943,31.1433l17.9,13.2c1.3,0.9,2.9,1.4,4.7,1.4s3.4-0.5,4.7-1.4l17.9-13.2c1.2-0.8,1.9-2,2-3.2
			c0-0.1,0-0.1,0-0.2v-8.5l0,0c0-0.1,0-0.1,0-0.2v-0.1c0,0,0,0,0-0.1s0-0.1,0-0.2c-0.2-1.2-0.9-2.4-2-3.2l-18-12.8
			c-2.6-1.9-6.7-1.9-9.3,0l-17.9,12.9c-1.2,0.8-1.9,2-2,3.2v0.1c0,0.2,0,0.4,0,0.6l0,0v7.7
			C0.9943,28.7433,1.7943,30.1433,3.1943,31.1433z"/>
		<path class="st18" d="M49.1943,22.1433v5.5v0.1c-0.1,0.9-0.6,1.8-1.5,2.4l-17.9,13.1c-1,0.8-2.5,1.2-4,1.2l0,0
			c-1.5,0-2.9-0.4-4-1.2l-17.9-13.1c-1-0.8-1.6-1.8-1.5-2.9v-5.1c0.2,0.2,0.5,0.4,0.7,0.6l0,0l17.9,13.1l0,0l0,0
			c0.3,0.2,0.7,0.4,1,0.6h0.1c1.1,0.5,2.3,0.8,3.6,0.8c1.8,0,3.4-0.5,4.7-1.4l9.4-6.9l8.5-6.2
			C48.6943,22.6433,48.8943,22.4433,49.1943,22.1433C49.0943,22.2433,49.1943,22.2433,49.1943,22.1433z"/>
		<path class="st18" d="M2.3943,18.8433c0.1-0.9,0.7-1.7,1.5-2.3l17.9-12.9c1.1-0.8,2.5-1.2,3.9-1.2s2.8,0.4,3.9,1.2l18,12.9
			c0.9,0.6,1.4,1.5,1.5,2.3c0,0.1,0,0.2,0,0.3c0,0.2,0,0.4-0.1,0.6v0.1c-0.1,0.2-0.1,0.4-0.2,0.6l-0.1,0.1c-0.1,0.2-0.2,0.4-0.4,0.6
			c0,0,0,0-0.1,0.1c-0.2,0.2-0.4,0.4-0.6,0.5l-9,6.6l-9,6.6c-0.3,0.2-0.6,0.4-0.9,0.5c-0.2,0.1-0.5,0.2-0.7,0.3
			c-0.1,0-0.2,0.1-0.2,0.1c-0.7,0.2-1.4,0.3-2.1,0.3l0,0c-1.1,0-2.2-0.2-3.1-0.7c-0.3-0.2-0.6-0.3-0.9-0.5l-18-13.1l0,0
			c-0.6-0.5-1.1-1-1.3-1.6v-0.1l0,0c-0.1-0.2-0.1-0.4-0.1-0.6c0-0.1,0-0.3,0-0.5h-0.3c0,0,0,0-0.1,0L2.3943,18.8433z"/>
	</g>
</g>
<g id="new-slice">
	<g>
		
			<linearGradient id="SVGID_19_" gradientUnits="userSpaceOnUse" x1="152.2467" y1="-885.9606" x2="105.5435" y2="-928.6479" gradientTransform="matrix(1 0 0 -1 0 -845.4736)">
			<stop  offset="0" style="stop-color:#B33C8A"/>
			<stop  offset="1" style="stop-color:#EE4F86"/>
		</linearGradient>
		<path class="st20" d="M107.0054,68.9817l17.9,13.2c1.3,0.9,2.9,1.4,4.7,1.4s3.4-0.5,4.7-1.4l17.9-13.2c1.2-0.8,1.9-2,2-3.2
			c0-0.1,0-0.1,0-0.2v-8.5l0,0c0-0.1,0-0.1,0-0.2v-0.1c0,0,0,0,0-0.1s0-0.1,0-0.2c-0.1-1.2-0.9-2.4-2-3.2l-17.9-12.9
			c-2.6-1.9-6.7-1.9-9.3,0l-18,13c-1.2,0.8-1.9,2-2.1,3.2v0.1c0,0.2,0,0.4,0,0.6l0,0v7.7
			C104.8054,66.5817,105.6054,67.9817,107.0054,68.9817z"/>
		<path class="st18" d="M153.0054,59.9817v5.5v0.1c-0.1,0.9-0.6,1.8-1.5,2.4l-17.9,13.2c-1.1,0.8-2.4,1.2-3.9,1.2l0,0
			c-1.5,0-2.9-0.4-4-1.2l-18-13.2c-1-0.8-1.6-1.8-1.5-2.9v-5.1c0.2,0.2,0.5,0.4,0.7,0.6l0,0l18,13.2l0,0l0,0c0.3,0.2,0.7,0.4,1,0.6
			h0.1c1.1,0.5,2.3,0.8,3.6,0.8c1.8,0,3.4-0.5,4.7-1.4l9.4-6.9l8.5-6.2C152.5054,60.4817,152.7054,60.2817,153.0054,59.9817
			C152.9054,60.0817,153.0054,60.0817,153.0054,59.9817z"/>
		<path class="st18" d="M106.2054,56.6817c0.1-0.9,0.7-1.7,1.5-2.3l17.9-12.9c1.1-0.8,2.5-1.2,3.9-1.2s2.8,0.4,3.9,1.2l17.9,12.9
			c0.9,0.6,1.4,1.5,1.5,2.3c0,0.1,0,0.2,0,0.3c0,0.2,0,0.4-0.1,0.6v0.1c-0.1,0.2-0.1,0.4-0.2,0.6c0,0,0,0.1-0.1,0.1
			c-0.1,0.2-0.2,0.4-0.4,0.6c0,0,0,0-0.1,0.1c-0.2,0.2-0.4,0.4-0.6,0.5l-9,6.6l-9,6.6c-0.3,0.2-0.6,0.4-0.9,0.5
			c-0.2,0.1-0.5,0.2-0.7,0.3c-0.1,0-0.2,0.1-0.2,0.1c-0.7,0.2-1.4,0.3-2.1,0.3l0,0c-1.1,0-2.2-0.2-3.1-0.7c-0.3-0.2-0.6-0.3-0.9-0.5
			l-18-13.1l0,0c-0.6-0.5-1.1-1-1.3-1.6v-0.1l0,0c-0.1-0.2-0.1-0.4-0.1-0.6c0-0.1,0-0.3,0-0.5h-0.3c0,0,0,0-0.1,0L106.2054,56.6817z
			"/>
	</g>
</g>
<g id="top">
	<g id="Layer_4_1_">
		<g>
			
				<linearGradient id="SVGID_20_" gradientUnits="userSpaceOnUse" x1="100.3644" y1="-857.3275" x2="53.6611" y2="-900.0148" gradientTransform="matrix(1 0 0 -1 0 -845.4736)">
				<stop  offset="0" style="stop-color:#B33C8A"/>
				<stop  offset="1" style="stop-color:#EE4F86"/>
			</linearGradient>
			<path class="st21" d="M55.1054,40.3817l17.9,13.1c1.3,0.9,2.9,1.4,4.7,1.4c1.8,0,3.4-0.5,4.7-1.4l17.9-13.1c1.2-0.9,1.9-2,2-3.2
				c0-0.1,0-0.1,0-0.2v-8.5l0,0c0-0.1,0-0.1,0-0.2v-0.1c0,0,0,0,0-0.1s0-0.1,0-0.2c-0.2-1.2-0.9-2.4-2-3.2l-17.9-12.9
				c-2.6-1.9-6.7-1.9-9.3,0l-18,13c-1.2,0.8-1.9,2-2,3.2v0.1c0,0.2,0,0.4,0,0.6l0,0v7.7
				C53.0054,37.8817,53.7054,39.3817,55.1054,40.3817z"/>
			<path class="st18" d="M101.1054,31.3817v5.5v0.1c-0.1,0.9-0.6,1.8-1.5,2.4l-17.9,13.1c-1,0.8-2.5,1.2-4,1.2l0,0
				c-1.5,0-2.9-0.4-4-1.2l-17.9-13.1c-1-0.8-1.6-1.8-1.5-2.9v-5.1c0.2,0.2,0.5,0.4,0.7,0.6l0,0l18,13.2l0,0l0,0
				c0.3,0.2,0.7,0.4,1,0.6h0.1c1.1,0.5,2.3,0.8,3.6,0.8c1.8,0,3.4-0.5,4.7-1.4l9.4-6.9l8.5-6.2
				C100.6054,31.8817,100.9054,31.6817,101.1054,31.3817L101.1054,31.3817z"/>
			<path class="st18" d="M54.4054,28.0817c0.1-0.9,0.7-1.7,1.5-2.3l17.9-12.9c1.1-0.8,2.5-1.2,3.9-1.2s2.8,0.4,3.9,1.2l17.9,12.9
				c0.9,0.6,1.4,1.5,1.5,2.3c0,0.1,0,0.2,0,0.3c0,0.2,0,0.4-0.1,0.6v0.1c-0.1,0.2-0.1,0.4-0.2,0.6l-0.1,0.1
				c-0.1,0.2-0.2,0.4-0.4,0.6c0,0,0,0-0.1,0.1c-0.2,0.2-0.4,0.4-0.6,0.5l-9,6.6l-9,6.6c-0.3,0.2-0.6,0.4-0.9,0.5
				c-0.2,0.1-0.5,0.2-0.7,0.3c-0.1,0-0.2,0.1-0.2,0.1c-0.7,0.2-1.4,0.3-2.1,0.3l0,0c-1.1,0-2.2-0.2-3.1-0.7
				c-0.3-0.2-0.6-0.3-0.9-0.5l-18-13.1l0,0c-0.6-0.5-1.1-1-1.3-1.6v-0.1l0,0c-0.1-0.2-0.1-0.4-0.1-0.6c0-0.1,0-0.3,0-0.5h-0.3
				c0,0,0,0-0.1,0L54.4054,28.0817z"/>
		</g>
	</g>
</g>
</svg>
