<?xml version="1.0" encoding="utf-8"?>
<!-- Generator: Adobe Illustrator 22.1.0, SVG Export Plug-In . SVG Version: 6.00 Build 0)  -->
<svg version="1.1" id="Layer_1" xmlns="http://www.w3.org/2000/svg" xmlns:xlink="http://www.w3.org/1999/xlink" x="0px" y="0px"
	 width="142px" height="142px" viewBox="0 0 142 142" style="enable-background:new 0 0 142 142;" xml:space="preserve">
<style type="text/css">
	.st0{fill:url(#SVGID_1_);}
	.st1{fill:url(#SVGID_2_);}
	.st2{fill:url(#SVGID_3_);}
</style>
<linearGradient id="SVGID_1_" gradientUnits="userSpaceOnUse" x1="126.824" y1="-224.245" x2="20.5461" y2="-117.7462" gradientTransform="matrix(1 0 0 -1 0 -101.17)">
	<stop  offset="0" style="stop-color:#B33C8A"/>
	<stop  offset="1" style="stop-color:#EE4F86"/>
</linearGradient>
<path class="st0" d="M120.538,36.8319c0.09-0.08,0.18-0.15,0.26-0.24c4.25-4.25,4.25-11.18,0-15.44l0,0
	c-4.26-4.25-11.18-4.26-15.44,0c-0.08,0.08-0.16,0.18-0.24,0.26c-23.92-16.53-56.16-13.61-76.78,7.02
	c-21.99,21.98-23.49,57.54-3.57,81.27c-1.8,2.09-1.73,5.26,0.25,7.24l0,0c1.04,1.04,2.41,1.56,3.77,1.56c1.24,0,2.47-0.45,3.46-1.3
	c10.86,9.11,24.49,14.06,38.67,14.06c0.78,0,1.57-0.02,2.36-0.05c15.2-0.59,29.5-6.84,40.26-17.6
	C134.158,92.9919,137.078,60.7619,120.538,36.8319z M119.898,35.6919c-1.82,1.82-4.24,2.82-6.82,2.82c-2.36,0-4.59-0.84-6.35-2.39
	l13.6-13.6C123.648,26.3119,123.508,32.0919,119.898,35.6919z M119.438,21.6219l-13.6,13.6c-3.31-3.78-3.17-9.56,0.44-13.17
	C109.878,18.4519,115.648,18.3119,119.438,21.6219z M25.918,110.3019c1.38-1.38,3.71-1.55,5.26-0.42l-5.68,5.68
	C24.348,113.9719,24.488,111.7319,25.918,110.3019z M26.408,116.4619l5.68-5.68c1.15,1.59,1.01,3.83-0.42,5.26
	C30.228,117.4719,27.988,117.6119,26.408,116.4619z M73.228,129.9519c-14.67,0.57-28.9-4.29-40.11-13.68c1.49-2.09,1.31-5-0.56-6.87
	l0,0c-1.87-1.87-4.78-2.04-6.86-0.56c-19.45-23.23-17.97-58,3.54-79.51c20.16-20.16,51.66-23.04,75.07-6.92
	c-3.15,4.27-2.81,10.32,1.05,14.19l0,0c2.06,2.06,4.8,3.2,7.72,3.2c2.36,0,4.61-0.76,6.47-2.14c16.11,23.41,13.24,54.9-6.92,75.07
	C102.098,123.2519,88.108,129.3719,73.228,129.9519z"/>
<linearGradient id="SVGID_2_" gradientUnits="userSpaceOnUse" x1="123.0015" y1="-228.0885" x2="16.7236" y2="-121.5896" gradientTransform="matrix(1 0 0 -1 0 -101.17)">
	<stop  offset="0" style="stop-color:#B33C8A"/>
	<stop  offset="1" style="stop-color:#EE4F86"/>
</linearGradient>
<path class="st1" d="M41.7845,41.7244c-14.22,14.23-16.18,36.43-4.7,52.88c-2,2.89-1.72,6.88,0.85,9.45c0,0,0,0,0,0.01
	c1.45,1.45,3.35,2.17,5.24,2.17c1.48,0,2.95-0.44,4.21-1.32c7.16,5,15.41,7.45,23.62,7.45c10.65,0,21.23-4.12,29.25-12.15
	c7.81-7.81,12.11-18.2,12.11-29.24s-4.3-21.43-12.11-29.24C84.1445,25.6044,57.9045,25.6044,41.7845,41.7244z M38.8345,94.4744
	L38.8345,94.4744c2.24-2.24,5.8-2.38,8.21-0.43l-8.64,8.64C36.4545,100.2744,36.5945,96.7144,38.8345,94.4744z M39.3145,103.5844
	l8.63-8.64c1.96,2.41,1.81,5.97-0.43,8.21S41.7245,105.5344,39.3145,103.5844z M99.3645,99.3044c-13.69,13.7-35.04,15.65-50.95,4.75
	l0,0c2.89-2.89,2.89-7.59,0-10.49l0,0c-2.89-2.89-7.59-2.89-10.49,0l0,0c0,0,0,0,0,0.01c-10.9-15.91-8.95-37.25,4.75-50.95
	c15.63-15.62,41.05-15.62,56.68,0c7.57,7.57,11.74,17.63,11.74,28.34C111.1045,81.6744,106.9345,91.7344,99.3645,99.3044z"/>
<linearGradient id="SVGID_3_" gradientUnits="userSpaceOnUse" x1="124.9115" y1="-226.1885" x2="18.6336" y2="-119.6897" gradientTransform="matrix(1 0 0 -1 0 -101.17)">
	<stop  offset="0" style="stop-color:#B33C8A"/>
	<stop  offset="1" style="stop-color:#EE4F86"/>
</linearGradient>
<path class="st2" d="M87.47,54.525c-9.08-9.08-23.86-9.08-32.94,0c-4.4,4.4-6.82,10.25-6.82,16.47c0,6.22,2.42,12.07,6.82,16.47
	c4.4,4.4,10.25,6.82,16.47,6.82s12.07-2.42,16.47-6.82s6.82-10.25,6.82-16.47C94.29,64.775,91.87,58.925,87.47,54.525L87.47,54.525z
	 M55.43,55.435c8.43-8.43,22.06-8.58,30.68-0.45l-29.9,29.89l-1.23,1.23c-3.88-4.1-6-9.44-6-15.11
	C48.98,65.115,51.27,59.585,55.43,55.435z M86.57,86.565c-4.16,4.16-9.69,6.45-15.57,6.45c-5.67,0-11.01-2.13-15.11-6l31.12-31.12
	c3.88,4.1,6,9.44,6,15.11C93.02,76.875,90.73,82.405,86.57,86.565z"/>
<g id="Layer_2_1_">
</g>
</svg>
