<?xml version="1.0" encoding="utf-8"?>
<!-- Generator: Adobe Illustrator 22.1.0, SVG Export Plug-In . SVG Version: 6.00 Build 0)  -->
<svg version="1.1" id="Layer_1" xmlns="http://www.w3.org/2000/svg" xmlns:xlink="http://www.w3.org/1999/xlink" x="0px" y="0px"
	 width="138.6px" height="120.2px" viewBox="0 0 138.6 120.2" style="enable-background:new 0 0 138.6 120.2;" xml:space="preserve"
	>
<style type="text/css">
	.st0{fill:#FFFFFF;}
	.st1{fill:url(#SVGID_1_);}
	.st2{fill:url(#SVGID_2_);}
	.st3{fill:url(#SVGID_3_);}
	.st4{fill:url(#SVGID_4_);}
	.st5{fill:url(#SVGID_5_);}
	.st6{fill:url(#SVGID_6_);}
	.st7{fill:url(#SVGID_7_);}
</style>
<g>
	<path class="st0" d="M34,107.4L5.8,79.2c-6.1-6.1-6.1-16,0-22c2.9-2.9,6.9-4.6,11-4.6s8.1,1.6,11,4.6l5.7,5.7
		c0.2,0.2,0.7,0.2,0.9,0l5.7-5.7c2.9-2.9,6.8-4.6,11-4.6s8.1,1.6,11,4.6c2.9,2.9,4.6,6.9,4.6,11c0,4.2-1.6,8.1-4.6,11L34,107.4z"/>
	
		<linearGradient id="SVGID_1_" gradientUnits="userSpaceOnUse" x1="-10.9097" y1="802.1002" x2="86.9392" y2="802.1002" gradientTransform="matrix(1 0 0 1 0 -722.0002)">
		<stop  offset="0" style="stop-color:#B33C8A"/>
		<stop  offset="1" style="stop-color:#EE4F86"/>
	</linearGradient>
	<path class="st1" d="M34,107.4L5.8,79.2c-6.1-6.1-6.1-16,0-22c2.9-2.9,6.9-4.6,11-4.6s8.1,1.6,11,4.6l5.7,5.7
		c0.2,0.2,0.7,0.2,0.9,0l5.7-5.7c2.9-2.9,6.8-4.6,11-4.6s8.1,1.6,11,4.6c2.9,2.9,4.6,6.9,4.6,11c0,4.2-1.6,8.1-4.6,11L34,107.4z
		 M58.2,88v-0.6 M58.2,53L57,52.4c-1-0.4-2.1-0.7-3.2-0.8l-1.3-0.2c-0.5,0-0.9-0.1-1.3-0.1c-4.5,0-8.7,1.8-11.9,4.9L34,61.5
		l-5.2-5.2c-3.2-3.2-7.4-4.9-11.9-4.9S8.2,53.2,5,56.3c-6.6,6.6-6.6,17.3,0,23.8l28.6,28.6c0.1,0.1,0.3,0.2,0.5,0.2s0.3-0.1,0.5-0.2
		l18-18l1.3-1.3l3.2-3.2l1.3-1.3l4.8-4.8c3.2-3.2,4.9-7.4,4.9-11.9s-1.8-8.7-4.9-11.9C61.6,54.9,60,53.8,58.2,53"/>
	
		<linearGradient id="SVGID_2_" gradientUnits="userSpaceOnUse" x1="-105.2344" y1="730.6002" x2="74.3232" y2="730.6002" gradientTransform="matrix(1 0 0 1 0 -722.0002)">
		<stop  offset="0" style="stop-color:#B33C8A"/>
		<stop  offset="1" style="stop-color:#EE4F86"/>
	</linearGradient>
	<path class="st2" d="M50.4,17c0.1,0.1,0.3,0.2,0.5,0.2s0.3-0.1,0.5-0.2l8.1-8.1c2-2,2-5.3,0-7.4c-2-2-5.3-2-7.4,0l-1.2,1.2
		l-1.2-1.1c-1-1-2.3-1.5-3.7-1.5s-2.7,0.5-3.7,1.5s-1.5,2.3-1.5,3.7S41.3,8,42.3,9L50.4,17z M43.2,2.4C44,1.7,45,1.3,46,1.3
		s2,0.4,2.8,1.1L50.4,4c0.2,0.2,0.7,0.2,0.9,0l1.6-1.6c1.5-1.5,4-1.5,5.6,0C60,4,60,6.5,58.5,8l-7.6,7.6L43.2,8
		C42.4,7.3,42,6.3,42,5.2C42.1,4.2,42.5,3.2,43.2,2.4z"/>
</g>
<g id="Layer_2_1_">
</g>
<linearGradient id="SVGID_3_" gradientUnits="userSpaceOnUse" x1="94.1" y1="94.19" x2="94.1" y2="94.19" gradientTransform="matrix(1 0 0 -1 0 119.89)">
	<stop  offset="0" style="stop-color:#B33C8A"/>
	<stop  offset="1" style="stop-color:#EE4F86"/>
</linearGradient>
<path class="st3" d="M94.1,25.7"/>
<g>
	<path class="st0" d="M53.7,89.4v-53c0-4,3.2-7.2,7.2-7.2H97c4,0,7.2,3.2,7.2,7.2v75.2l0,0c0,4-3.2,7.2-7.2,7.2H61
		c-4,0-7.2-3.2-7.2-7.2L53.7,89.4L53.7,89.4z"/>
	
		<linearGradient id="SVGID_4_" gradientUnits="userSpaceOnUse" x1="43.9371" y1="796.0502" x2="120.451" y2="796.0502" gradientTransform="matrix(1 0 0 1 0 -722.0002)">
		<stop  offset="0" style="stop-color:#B33C8A"/>
		<stop  offset="1" style="stop-color:#EE4F86"/>
	</linearGradient>
	<path class="st4" d="M58.2,84.9V40.8c0-2,1.7-3.7,3.7-3.7h34.2c2.1,0,3.7,1.7,3.7,3.7v63.1c0,2.1-1.7,3.7-3.7,3.7H62
		c-2,0-3.7-1.7-3.7-3.7v-19H58.2z M57,86.2v17.7c0,2.8,2.2,5,5,5h34.2c2.8,0,5-2.2,5-5V40.8c0-2.8-2.2-5-5-5H62c-2.8,0-5,2.2-5,5
		V86.2L57,86.2z M53.7,89.4v-53c0-4,3.2-7.2,7.2-7.2H97c4,0,7.2,3.2,7.2,7.2v75.2l0,0c0,4-3.2,7.2-7.2,7.2H61c-4,0-7.2-3.2-7.2-7.2
		L53.7,89.4L53.7,89.4z M52.5,90.7v20.9c0,4.7,3.8,8.5,8.5,8.5h36.1c4.7,0,8.5-3.8,8.5-8.5V50.1l0,0V36.5c0-4.7-3.8-8.5-8.5-8.5H93
		H61c-4.7,0-8.5,3.8-8.5,8.5V90.7L52.5,90.7z"/>
	
		<linearGradient id="SVGID_5_" gradientUnits="userSpaceOnUse" x1="-65.6692" y1="754.4002" x2="165.3445" y2="754.4002" gradientTransform="matrix(1 0 0 1 0 -722.0002)">
		<stop  offset="0" style="stop-color:#B33C8A"/>
		<stop  offset="1" style="stop-color:#EE4F86"/>
	</linearGradient>
	<path class="st5" d="M82.9,31.8h-7.7c-0.3,0-0.6,0.3-0.6,0.6s0.3,0.6,0.6,0.6h7.7c0.3,0,0.6-0.3,0.6-0.6S83.2,31.8,82.9,31.8z"/>
	
		<linearGradient id="SVGID_6_" gradientUnits="userSpaceOnUse" x1="43.2644" y1="835.9002" x2="201.2423" y2="835.9002" gradientTransform="matrix(1 0 0 1 0 -722.0002)">
		<stop  offset="0" style="stop-color:#B33C8A"/>
		<stop  offset="1" style="stop-color:#EE4F86"/>
	</linearGradient>
	<path class="st6" d="M79,111.3c-1.5,0-2.6,1.2-2.6,2.6c0,1.5,1.2,2.6,2.6,2.6s2.6-1.2,2.6-2.6C81.7,112.4,80.5,111.3,79,111.3z
		 M79,115.3c-0.8,0-1.4-0.6-1.4-1.4s0.6-1.4,1.4-1.4s1.4,0.6,1.4,1.4S79.8,115.3,79,115.3z"/>
</g>
<g>
	
		<linearGradient id="SVGID_7_" gradientUnits="userSpaceOnUse" x1="84.9315" y1="79.9275" x2="151.5024" y2="79.9275" gradientTransform="matrix(1 0 0 -1 0 119.89)">
		<stop  offset="0" style="stop-color:#B33C8A"/>
		<stop  offset="1" style="stop-color:#EE4F86"/>
	</linearGradient>
	<path class="st7" d="M94.1,25.7c-0.7,1.2-2.4,5-1.4,9.2c1,4.4,4.6,6.8,4.6,6.8l8.4,8.3l9.4,9.4c0.1,0.1,0.3,0.2,0.4,0.2
		s0.3-0.1,0.4-0.2l19.3-19.3c2.2-2.2,3.4-5.1,3.4-8.2s-1.2-6-3.4-8.2c-4.5-4.5-11.9-4.5-16.4,0l-3.4,3.4l-3.4-3.4
		c-4.5-4.5-11.9-4.5-16.4,0C95,24.3,94.5,25,94.1,25.7"/>
	<path class="st0" d="M96.5,39.4c-4.3-4-2.6-10.3-2.2-11.4c0.5-1.1,1.2-2.4,2.2-3.3c4-4,10.6-4,14.6,0l3.8,3.8
		c0.2,0.2,0.7,0.2,0.9,0l3.8-3.8c4-4,10.6-4,14.6,0c1.9,2,3,4.5,3,7.3s-1.1,5.3-3,7.3l-18.9,18.9l-9.8-9.8L96.5,39.4z"/>
</g>
</svg>
