<?xml version="1.0" encoding="utf-8"?>
<!-- Generator: Adobe Illustrator 21.1.0, SVG Export Plug-In . SVG Version: 6.00 Build 0)  -->
<svg width="1646px" height="804px" version="1.1" id="Layer_1" xmlns="http://www.w3.org/2000/svg" xmlns:xlink="http://www.w3.org/1999/xlink" x="0px" y="0px"
	 viewBox="0 0 1646 804" style="enable-background:new 0 0 1646 804;" xml:space="preserve">
<style type="text/css">
		.st0{opacity:0.4;fill:none;stroke:#FFFFFF;stroke-width:8.5039;stroke-linecap:round;stroke-miterlimit:10;enable-background:new    ;}
</style>
<g>
	<polyline class="st0" points="1192.1,253.1 1179.8,253.7 1179,240.6 	"/>
	<polyline class="st0" points="1256.1,409 1247.8,399.9 1257.4,391 	"/>
	<polyline class="st0" points="1174.1,558.9 1176,546.7 1189,548.7 	"/>
	<polyline class="st0" points="1020.1,205.6 1013.3,215.9 1002.3,208.8 	"/>
	<polyline class="st0" points="884.5,307.8 888.3,319.5 875.8,323.6 	"/>
	<polyline class="st0" points="880.1,480.5 891.6,484.7 887.2,497.1 	"/>
	<polyline class="st0" points="1005.6,588.2 1016.3,582.2 1022.9,593.5 	"/>
	<polyline class="st0" points="647.7,210.7 637.2,217 630.3,205.9 	"/>
	<polyline class="st0" points="481.2,243.9 479.6,256.1 466.6,254.4 	"/>
	<polyline class="st0" points="402.4,394.3 410.8,403.2 401.3,412.3 	"/>
	<polyline class="st0" points="464.6,545.5 476.9,545 477.5,558.1 	"/>
	<polyline class="st0" points="631.8,596 638.9,586 649.7,593.4 	"/>
</g>
</svg>
