<?xml version="1.0" encoding="utf-8"?>
<!-- Generator: Adobe Illustrator 22.1.0, SVG Export Plug-In . SVG Version: 6.00 Build 0)  -->
<svg version="1.1" id="Layer_1" xmlns="http://www.w3.org/2000/svg" xmlns:xlink="http://www.w3.org/1999/xlink" x="0px" y="0px"
	 width="138.6px" height="120.2px" viewBox="0 0 138.6 120.2" style="enable-background:new 0 0 138.6 120.2;" xml:space="preserve"
	>
<style type="text/css">
	.st0{fill:#FFFFFF;}
	.st1{fill:url(#SVGID_1_);}
	.st2{fill:url(#SVGID_2_);}
	.st3{fill:url(#SVGID_3_);}
</style>
<g>
	<path class="st0" d="M34,107.4L5.8,79.2c-6.1-6.1-6.1-16,0-22c2.9-2.9,6.9-4.6,11-4.6s8.1,1.6,11,4.6l5.7,5.7
		c0.2,0.2,0.7,0.2,0.9,0l5.7-5.7c2.9-2.9,6.8-4.6,11-4.6s8.1,1.6,11,4.6c2.9,2.9,4.6,6.9,4.6,11c0,4.2-1.6,8.1-4.6,11L34,107.4z"/>
	
		<linearGradient id="SVGID_1_" gradientUnits="userSpaceOnUse" x1="-10.9097" y1="802.1002" x2="86.9392" y2="802.1002" gradientTransform="matrix(1 0 0 1 0 -722.0002)">
		<stop  offset="0" style="stop-color:#B33C8A"/>
		<stop  offset="1" style="stop-color:#EE4F86"/>
	</linearGradient>
	<path class="st1" d="M34,107.4L5.8,79.2c-6.1-6.1-6.1-16,0-22c2.9-2.9,6.9-4.6,11-4.6s8.1,1.6,11,4.6l5.7,5.7
		c0.2,0.2,0.7,0.2,0.9,0l5.7-5.7c2.9-2.9,6.8-4.6,11-4.6s8.1,1.6,11,4.6c2.9,2.9,4.6,6.9,4.6,11c0,4.2-1.6,8.1-4.6,11L34,107.4z
		 M58.2,88v-0.6 M58.2,53L57,52.4c-1-0.4-2.1-0.7-3.2-0.8l-1.3-0.2c-0.5,0-0.9-0.1-1.3-0.1c-4.5,0-8.7,1.8-11.9,4.9L34,61.5
		l-5.2-5.2c-3.2-3.2-7.4-4.9-11.9-4.9S8.2,53.2,5,56.3c-6.6,6.6-6.6,17.3,0,23.8l28.6,28.6c0.1,0.1,0.3,0.2,0.5,0.2s0.3-0.1,0.5-0.2
		l18-18l1.3-1.3l3.2-3.2l1.3-1.3l4.8-4.8c3.2-3.2,4.9-7.4,4.9-11.9s-1.8-8.7-4.9-11.9C61.6,54.9,60,53.8,58.2,53"/>
	
		<linearGradient id="SVGID_2_" gradientUnits="userSpaceOnUse" x1="-105.2344" y1="730.6002" x2="74.3232" y2="730.6002" gradientTransform="matrix(1 0 0 1 0 -722.0002)">
		<stop  offset="0" style="stop-color:#B33C8A"/>
		<stop  offset="1" style="stop-color:#EE4F86"/>
	</linearGradient>
	<path class="st2" d="M50.4,17c0.1,0.1,0.3,0.2,0.5,0.2s0.3-0.1,0.5-0.2l8.1-8.1c2-2,2-5.3,0-7.4c-2-2-5.3-2-7.4,0l-1.2,1.2
		l-1.2-1.1c-1-1-2.3-1.5-3.7-1.5s-2.7,0.5-3.7,1.5s-1.5,2.3-1.5,3.7S41.3,8,42.3,9L50.4,17z M43.2,2.4C44,1.7,45,1.3,46,1.3
		s2,0.4,2.8,1.1L50.4,4c0.2,0.2,0.7,0.2,0.9,0l1.6-1.6c1.5-1.5,4-1.5,5.6,0C60,4,60,6.5,58.5,8l-7.6,7.6L43.2,8
		C42.4,7.3,42,6.3,42,5.2C42.1,4.2,42.5,3.2,43.2,2.4z"/>
</g>
<g id="Layer_2_1_">
</g>
<linearGradient id="SVGID_3_" gradientUnits="userSpaceOnUse" x1="94.1" y1="94.19" x2="94.1" y2="94.19" gradientTransform="matrix(1 0 0 -1 0 119.89)">
	<stop  offset="0" style="stop-color:#B33C8A"/>
	<stop  offset="1" style="stop-color:#EE4F86"/>
</linearGradient>
<path class="st3" d="M94.1,25.7"/>
</svg>
