<?xml version="1.0" encoding="utf-8"?>
<!-- Generator: Adobe Illustrator 21.1.0, SVG Export Plug-In . SVG Version: 6.00 Build 0)  -->
<svg width="1646px" height="804px" version="1.1" id="Layer_1" xmlns="http://www.w3.org/2000/svg" xmlns:xlink="http://www.w3.org/1999/xlink" x="0px" y="0px"
	 viewBox="0 0 1646 804" style="enable-background:new 0 0 1646 804;" xml:space="preserve">
<style type="text/css">
	
		.st0{opacity:0.4;fill:none;stroke:#FFFFFF;stroke-width:8.5039;stroke-linecap:round;stroke-miterlimit:10;enable-background:new    ;}
</style>
<g>
	<polyline class="st0" points="1166.5,283.8 1154.3,284.5 1153.5,271.4 	"/>
	<polyline class="st0" points="1216.1,408.8 1207.8,399.7 1217.4,390.7 	"/>
	<polyline class="st0" points="1149.3,527.4 1151.2,515.3 1164.2,517.2 	"/>
	<polyline class="st0" points="1029.8,244.4 1023.1,254.7 1012,247.6 	"/>
	<polyline class="st0" points="920.8,324.6 924.6,336.3 912.1,340.4 	"/>
	<polyline class="st0" points="915.7,462.2 927.2,466.5 922.8,478.8 	"/>
	<polyline class="st0" points="1014.8,549.3 1025.4,543.3 1032,554.6 	"/>
	<polyline class="st0" points="639.7,249.9 629.2,256.2 622.3,245 	"/>
	<polyline class="st0" points="506.7,274.8 505,287 492,285.3 	"/>
	<polyline class="st0" points="442.4,393.9 450.8,402.9 441.3,412 	"/>
	<polyline class="st0" points="490.6,515.1 502.9,514.6 503.5,527.7 	"/>
	<polyline class="st0" points="623.4,556.9 630.5,546.9 641.3,554.3 	"/>
</g>
</svg>
