<?xml version="1.0" encoding="utf-8"?>
<!-- Generator: Adobe Illustrator 22.1.0, SVG Export Plug-In . SVG Version: 6.00 Build 0)  -->
<svg version="1.1" id="Layer_1" xmlns="http://www.w3.org/2000/svg" xmlns:xlink="http://www.w3.org/1999/xlink" x="0px" y="0px"
	 viewBox="0 0 156 134" style="enable-background:new 0 0 156 134;" xml:space="preserve">
<style type="text/css">
	.st0{fill:url(#SVGID_1_);}
	.st1{fill:#FFFFFF;}
</style>
<g id="new-slice">
	<g>
		
			<linearGradient id="SVGID_1_" gradientUnits="userSpaceOnUse" x1="152.2533" y1="2433.8579" x2="105.5501" y2="2476.5452" gradientTransform="matrix(1 0 0 1 0 -2395.3635)">
			<stop  offset="0" style="stop-color:#B33C8A"/>
			<stop  offset="1" style="stop-color:#EE4F86"/>
		</linearGradient>
		<path class="st0" d="M107,67l17.9,13.2c1.3,0.9,2.9,1.4,4.7,1.4s3.4-0.5,4.7-1.4L152.2,67c1.2-0.8,1.9-2,2-3.2c0-0.1,0-0.1,0-0.2
			v-8.5l0,0c0-0.1,0-0.1,0-0.2v-0.1c0,0,0,0,0-0.1s0-0.1,0-0.2c-0.1-1.2-0.9-2.4-2-3.2l-17.9-12.9c-2.6-1.9-6.7-1.9-9.3,0l-18,13
			c-1.2,0.8-1.9,2-2.1,3.2v0.1c0,0.2,0,0.4,0,0.6l0,0V63C104.8,64.6,105.6,66,107,67z"/>
		<path class="st1" d="M153,58v5.5v0.1c-0.1,0.9-0.6,1.8-1.5,2.4l-17.9,13.2c-1.1,0.8-2.4,1.2-3.9,1.2l0,0c-1.5,0-2.9-0.4-4-1.2
			l-18-13.2c-1-0.8-1.6-1.8-1.5-2.9V58c0.2,0.2,0.5,0.4,0.7,0.6l0,0l18,13.2l0,0l0,0c0.3,0.2,0.7,0.4,1,0.6h0.1
			c1.1,0.5,2.3,0.8,3.6,0.8c1.8,0,3.4-0.5,4.7-1.4l9.4-6.9l8.5-6.2C152.5,58.5,152.7,58.3,153,58C152.9,58.1,153,58.1,153,58z"/>
		<path class="st1" d="M106.2,54.7c0.1-0.9,0.7-1.7,1.5-2.3l17.9-12.9c1.1-0.8,2.5-1.2,3.9-1.2s2.8,0.4,3.9,1.2l17.9,12.9
			c0.9,0.6,1.4,1.5,1.5,2.3c0,0.1,0,0.2,0,0.3c0,0.2,0,0.4-0.1,0.6v0.1c-0.1,0.2-0.1,0.4-0.2,0.6c0,0,0,0.1-0.1,0.1
			c-0.1,0.2-0.2,0.4-0.4,0.6c0,0,0,0-0.1,0.1c-0.2,0.2-0.4,0.4-0.6,0.5l-9,6.6l-9,6.6c-0.3,0.2-0.6,0.4-0.9,0.5
			c-0.2,0.1-0.5,0.2-0.7,0.3c-0.1,0-0.2,0.1-0.2,0.1c-0.7,0.2-1.4,0.3-2.1,0.3l0,0c-1.1,0-2.2-0.2-3.1-0.7c-0.3-0.2-0.6-0.3-0.9-0.5
			l-18-13.1l0,0c-0.6-0.5-1.1-1-1.3-1.6V56l0,0c-0.1-0.2-0.1-0.4-0.1-0.6c0-0.1,0-0.3,0-0.5h-0.3c0,0,0,0-0.1,0L106.2,54.7z"/>
	</g>
</g>
</svg>
