<?xml version="1.0" encoding="utf-8"?>
<!-- Generator: Adobe Illustrator 23.0.2, SVG Export Plug-In . SVG Version: 6.00 Build 0)  -->
<svg version="1.1" xmlns="http://www.w3.org/2000/svg" xmlns:xlink="http://www.w3.org/1999/xlink" x="0px" y="0px"
	 viewBox="0 0 120.44 120.53" style="enable-background:new 0 0 120.44 120.53;" xml:space="preserve">
<style type="text/css">
	.st0{fill:none;stroke:#FFFF00;stroke-width:0.5;stroke-miterlimit:10;}
	.st1{fill:none;stroke:url(#SVGID_1_);stroke-width:1.2759;stroke-linecap:round;stroke-linejoin:round;stroke-miterlimit:10;}
	.st2{fill:none;stroke:url(#SVGID_2_);stroke-width:1.2759;stroke-linecap:round;stroke-linejoin:round;stroke-miterlimit:10;}
	.st3{fill:none;stroke:url(#SVGID_3_);stroke-width:1.2759;stroke-linecap:round;stroke-linejoin:round;stroke-miterlimit:10;}
	.st4{fill:none;stroke:url(#SVGID_4_);stroke-width:1.2759;stroke-linecap:round;stroke-linejoin:round;stroke-miterlimit:10;}
	.st5{fill:none;stroke:url(#SVGID_5_);stroke-width:1.2759;stroke-linecap:round;stroke-linejoin:round;stroke-miterlimit:10;}
	.st6{fill:none;stroke:url(#SVGID_6_);stroke-width:1.2759;stroke-linecap:round;stroke-linejoin:round;stroke-miterlimit:10;}
	.st7{fill:none;stroke:url(#SVGID_7_);stroke-width:1.2759;stroke-linecap:round;stroke-linejoin:round;stroke-miterlimit:10;}
	.st8{fill:none;stroke:url(#SVGID_8_);stroke-width:1.2759;stroke-linecap:round;stroke-linejoin:round;stroke-miterlimit:10;}
	.st9{fill:none;stroke:url(#SVGID_9_);stroke-width:1.2759;stroke-linecap:round;stroke-linejoin:round;stroke-miterlimit:10;}
	.st10{fill:none;stroke:url(#SVGID_10_);stroke-width:1.2759;stroke-linecap:round;stroke-linejoin:round;stroke-miterlimit:10;}
	.st11{fill:none;stroke:url(#SVGID_11_);stroke-width:1.2759;stroke-linecap:round;stroke-linejoin:round;stroke-miterlimit:10;}
	.st12{fill:none;stroke:url(#SVGID_12_);stroke-width:1.2759;stroke-linecap:round;stroke-linejoin:round;stroke-miterlimit:10;}
	.st13{fill:none;stroke:url(#SVGID_13_);stroke-width:1.2759;stroke-linecap:round;stroke-linejoin:round;stroke-miterlimit:10;}
	.st14{fill:none;stroke:url(#SVGID_14_);stroke-width:1.2759;stroke-linecap:round;stroke-linejoin:round;stroke-miterlimit:10;}
	.st15{fill:none;stroke:url(#SVGID_15_);stroke-width:1.2759;stroke-linecap:round;stroke-linejoin:round;stroke-miterlimit:10;}
	.st16{fill:none;stroke:url(#SVGID_16_);stroke-width:1.2759;stroke-linecap:round;stroke-linejoin:round;stroke-miterlimit:10;}
	.st17{fill:none;stroke:url(#SVGID_17_);stroke-width:1.2759;stroke-linecap:round;stroke-linejoin:round;stroke-miterlimit:10;}
	.st18{fill:none;stroke:url(#SVGID_18_);stroke-width:1.2759;stroke-linecap:round;stroke-linejoin:round;stroke-miterlimit:10;}
	.st19{fill:#F1F1F1;}
	.st20{fill:#DBDBDC;}
	.st21{fill:#837FA5;}
	.st22{fill:#633D81;}
	.st23{fill:#D0A1AC;}
	.st24{fill:#DB5480;}
	.st25{fill:#9C8EB9;}
	.st26{fill:#BB8F9A;}
	.st27{fill:#EE4F86;}
	.st28{fill:none;stroke:#F1F1F1;stroke-width:2.9771;stroke-linecap:round;stroke-linejoin:round;stroke-miterlimit:10;}
	.st29{fill:url(#SVGID_19_);}
	.st30{fill:url(#SVGID_20_);}
	.st31{fill:url(#SVGID_21_);}
	.st32{fill:url(#SVGID_22_);}
	.st33{fill:url(#SVGID_23_);}
	.st34{fill:url(#SVGID_24_);}
	.st35{fill:url(#SVGID_25_);}
	.st36{fill:url(#SVGID_26_);}
	.st37{fill:url(#SVGID_27_);}
	.st38{fill:url(#SVGID_28_);}
	.st39{fill:url(#SVGID_29_);}
	.st40{fill:url(#SVGID_30_);}
	.st41{fill:url(#SVGID_31_);}
	.st42{fill:url(#SVGID_32_);}
	.st43{fill:url(#SVGID_33_);}
	.st44{fill:url(#SVGID_34_);}
	.st45{fill:none;stroke:url(#SVGID_35_);stroke-width:1.2759;stroke-linecap:round;stroke-linejoin:round;stroke-miterlimit:10;}
	.st46{fill:none;stroke:url(#SVGID_36_);stroke-width:1.2759;stroke-linecap:round;stroke-linejoin:round;stroke-miterlimit:10;}
	.st47{fill:none;stroke:url(#SVGID_37_);stroke-width:1.2759;stroke-linecap:round;stroke-linejoin:round;stroke-miterlimit:10;}
	.st48{fill:none;stroke:url(#SVGID_38_);stroke-width:1.2759;stroke-linecap:round;stroke-linejoin:round;stroke-miterlimit:10;}
	.st49{fill:none;stroke:url(#SVGID_39_);stroke-width:1.2759;stroke-linecap:round;stroke-linejoin:round;stroke-miterlimit:10;}
	.st50{fill:none;stroke:url(#SVGID_40_);stroke-width:1.2759;stroke-linecap:round;stroke-linejoin:round;stroke-miterlimit:10;}
	.st51{fill:none;stroke:url(#SVGID_41_);stroke-width:1.2759;stroke-linecap:round;stroke-linejoin:round;stroke-miterlimit:10;}
	.st52{fill:none;stroke:url(#SVGID_42_);stroke-width:1.2759;stroke-linecap:round;stroke-linejoin:round;stroke-miterlimit:10;}
	.st53{fill:none;stroke:url(#SVGID_43_);stroke-width:1.2759;stroke-linecap:round;stroke-linejoin:round;stroke-miterlimit:10;}
	.st54{fill:none;stroke:url(#SVGID_44_);stroke-width:1.2759;stroke-linecap:round;stroke-linejoin:round;stroke-miterlimit:10;}
	.st55{fill:none;stroke:url(#SVGID_45_);stroke-width:1.2759;stroke-linecap:round;stroke-linejoin:round;stroke-miterlimit:10;}
	.st56{fill:none;stroke:url(#SVGID_46_);stroke-width:1.2759;stroke-linecap:round;stroke-linejoin:round;stroke-miterlimit:10;}
	.st57{fill:none;stroke:url(#SVGID_47_);stroke-width:1.2759;stroke-linecap:round;stroke-linejoin:round;stroke-miterlimit:10;}
	.st58{clip-path:url(#SVGID_49_);}
	.st59{fill:none;stroke:url(#SVGID_50_);stroke-width:1.2759;stroke-linecap:round;stroke-linejoin:round;stroke-miterlimit:10;}
	.st60{fill:none;stroke:url(#SVGID_51_);stroke-width:1.2759;stroke-linecap:round;stroke-linejoin:round;stroke-miterlimit:10;}
	.st61{fill:none;stroke:url(#SVGID_52_);stroke-width:1.2759;stroke-linecap:round;stroke-linejoin:round;stroke-miterlimit:10;}
	.st62{fill:none;stroke:url(#SVGID_53_);stroke-width:1.2759;stroke-linecap:round;stroke-linejoin:round;stroke-miterlimit:10;}
	.st63{fill:none;stroke:url(#SVGID_54_);stroke-width:1.2759;stroke-linecap:round;stroke-linejoin:round;stroke-miterlimit:10;}
	.st64{fill:none;stroke:url(#SVGID_55_);stroke-width:1.2759;stroke-linecap:round;stroke-linejoin:round;stroke-miterlimit:10;}
	.st65{fill:none;stroke:url(#SVGID_56_);stroke-width:1.2759;stroke-linecap:round;stroke-linejoin:round;stroke-miterlimit:10;}
	.st66{fill:none;stroke:url(#SVGID_57_);stroke-width:1.2759;stroke-linecap:round;stroke-linejoin:round;stroke-miterlimit:10;}
	.st67{fill:none;stroke:url(#SVGID_58_);stroke-width:1.2759;stroke-linecap:round;stroke-linejoin:round;stroke-miterlimit:10;}
	.st68{fill:none;stroke:url(#SVGID_59_);stroke-width:1.2759;stroke-linecap:round;stroke-linejoin:round;stroke-miterlimit:10;}
	.st69{fill:none;stroke:url(#SVGID_60_);stroke-width:1.2759;stroke-linecap:round;stroke-linejoin:round;stroke-miterlimit:10;}
	.st70{fill:none;stroke:url(#SVGID_61_);stroke-width:1.2759;stroke-linecap:round;stroke-linejoin:round;stroke-miterlimit:10;}
	.st71{fill:none;stroke:url(#SVGID_62_);stroke-width:1.2759;stroke-linecap:round;stroke-linejoin:round;stroke-miterlimit:10;}
	.st72{clip-path:url(#SVGID_64_);}
	.st73{fill:url(#SVGID_65_);}
	.st74{fill:url(#SVGID_66_);}
	.st75{fill:url(#SVGID_67_);}
</style>
<g id="Layer_4">
	<g>
		<linearGradient id="SVGID_1_" gradientUnits="userSpaceOnUse" x1="116.043" y1="112.3361" x2="9.7651" y2="5.8373">
			<stop  offset="0" style="stop-color:#B33C8A"/>
			<stop  offset="1" style="stop-color:#EE4F86"/>
		</linearGradient>
		<path style="fill:url(#SVGID_1_);" d="M109.76,26.09c0.09-0.08,0.18-0.15,0.26-0.24c4.25-4.25,4.25-11.18,0-15.44c0,0,0,0,0,0
			c-4.26-4.25-11.18-4.26-15.44,0c-0.08,0.08-0.16,0.18-0.24,0.26C70.42-5.86,38.18-2.94,17.56,17.69
			C-4.43,39.67-5.93,75.23,13.99,98.96c-1.8,2.09-1.73,5.26,0.25,7.24c0,0,0,0,0,0c1.04,1.04,2.41,1.56,3.77,1.56
			c1.24,0,2.47-0.45,3.46-1.3c10.86,9.11,24.49,14.06,38.67,14.06c0.78,0,1.57-0.02,2.36-0.05c15.2-0.59,29.5-6.84,40.26-17.6
			C123.38,82.25,126.3,50.02,109.76,26.09z M109.12,24.95c-1.82,1.82-4.24,2.82-6.82,2.82c-2.36,0-4.59-0.84-6.35-2.39l13.6-13.6
			C112.87,15.57,112.73,21.35,109.12,24.95z M108.66,10.88l-13.6,13.6c-3.31-3.78-3.17-9.56,0.44-13.17
			C99.1,7.71,104.87,7.57,108.66,10.88z M15.14,99.56c1.38-1.38,3.71-1.55,5.26-0.42l-5.68,5.68
			C13.57,103.23,13.71,100.99,15.14,99.56z M15.63,105.72l5.68-5.68c1.15,1.59,1.01,3.83-0.42,5.26
			C19.45,106.73,17.21,106.87,15.63,105.72z M62.45,119.21c-14.67,0.57-28.9-4.29-40.11-13.68c1.49-2.09,1.31-5-0.56-6.87
			c0,0,0,0,0,0c-1.87-1.87-4.78-2.04-6.86-0.56c-19.45-23.23-17.97-58,3.54-79.51C38.62-1.57,70.12-4.45,93.53,11.67
			c-3.15,4.27-2.81,10.32,1.05,14.19c0,0,0,0,0,0c2.06,2.06,4.8,3.2,7.72,3.2c2.36,0,4.61-0.76,6.47-2.14
			c16.11,23.41,13.24,54.9-6.92,75.07C91.32,112.51,77.33,118.63,62.45,119.21z"/>
		<linearGradient id="SVGID_2_" gradientUnits="userSpaceOnUse" x1="112.1441" y1="116.227" x2="5.8662" y2="9.7281">
			<stop  offset="0" style="stop-color:#B33C8A"/>
			<stop  offset="1" style="stop-color:#EE4F86"/>
		</linearGradient>
		<path style="fill:url(#SVGID_2_);" d="M30.92,31.04c-14.22,14.23-16.18,36.43-4.7,52.88c-2,2.89-1.72,6.88,0.85,9.45
			c0,0,0,0,0,0.01c1.45,1.45,3.35,2.17,5.24,2.17c1.48,0,2.95-0.44,4.21-1.32c7.16,5,15.41,7.45,23.62,7.45
			c10.65,0,21.23-4.12,29.25-12.15c7.81-7.81,12.11-18.2,12.11-29.24s-4.3-21.43-12.11-29.24C73.28,14.92,47.04,14.92,30.92,31.04z
			 M27.97,83.79L27.97,83.79c2.24-2.24,5.8-2.38,8.21-0.43l-8.64,8.64C25.59,89.59,25.73,86.03,27.97,83.79z M28.45,92.9l8.63-8.64
			c1.96,2.41,1.81,5.97-0.43,8.21C34.41,94.71,30.86,94.85,28.45,92.9z M88.5,88.62c-13.69,13.7-35.04,15.65-50.95,4.75c0,0,0,0,0,0
			c2.89-2.89,2.89-7.59,0-10.49c0,0,0,0,0,0c-2.89-2.89-7.59-2.89-10.49,0c0,0,0,0,0,0c0,0,0,0,0,0.01
			c-10.9-15.91-8.95-37.25,4.75-50.95c15.63-15.62,41.05-15.62,56.68,0c7.57,7.57,11.74,17.63,11.74,28.34
			C100.24,70.99,96.07,81.05,88.5,88.62z"/>
		<linearGradient id="SVGID_3_" gradientUnits="userSpaceOnUse" x1="114.0699" y1="114.3051" x2="7.792" y2="7.8063">
			<stop  offset="0" style="stop-color:#B33C8A"/>
			<stop  offset="1" style="stop-color:#EE4F86"/>
		</linearGradient>
		<path style="fill:url(#SVGID_3_);" d="M76.63,43.81c-9.08-9.08-23.86-9.08-32.94,0c-4.4,4.4-6.82,10.25-6.82,16.47
			c0,6.22,2.42,12.07,6.82,16.47c4.4,4.4,10.25,6.82,16.47,6.82c6.22,0,12.07-2.42,16.47-6.82c4.4-4.4,6.82-10.25,6.82-16.47
			C83.45,54.06,81.03,48.21,76.63,43.81C76.63,43.81,76.63,43.81,76.63,43.81z M44.59,44.72c8.43-8.43,22.06-8.58,30.68-0.45
			l-29.9,29.89l-1.23,1.23c-3.88-4.1-6-9.44-6-15.11C38.14,54.4,40.43,48.87,44.59,44.72z M75.73,75.85
			c-4.16,4.16-9.69,6.45-15.57,6.45c-5.67,0-11.01-2.13-15.11-6l31.12-31.12c3.88,4.1,6,9.44,6,15.11
			C82.18,66.16,79.89,71.69,75.73,75.85z"/>
	</g>
</g>
<g id="Layer_2">
</g>
</svg>
