<?xml version="1.0" encoding="utf-8"?>
<!-- Generator: Adobe Illustrator 22.1.0, SVG Export Plug-In . SVG Version: 6.00 Build 0)  -->
<svg version="1.1" id="Layer_1" xmlns="http://www.w3.org/2000/svg" xmlns:xlink="http://www.w3.org/1999/xlink" x="0px" y="0px"
	 width="156px" height="134px" viewBox="0 0 156 134" style="enable-background:new 0 0 156 134;" xml:space="preserve">
<style type="text/css">
	.st0{fill:url(#SVGID_1_);}
	.st1{fill:#FFFFFF;}
</style>
<g id="top">
	<g id="Layer_4_1_">
		<g>
			
				<linearGradient id="SVGID_1_" gradientUnits="userSpaceOnUse" x1="100.3644" y1="1699.2175" x2="53.6611" y2="1741.9048" gradientTransform="matrix(1 0 0 1 0 -1687.3635)">
				<stop  offset="0" style="stop-color:#B33C8A"/>
				<stop  offset="1" style="stop-color:#EE4F86"/>
			</linearGradient>
			<path class="st0" d="M55.1054,40.3817l17.9,13.1c1.3,0.9,2.9,1.4,4.7,1.4c1.8,0,3.4-0.5,4.7-1.4l17.9-13.1c1.2-0.9,1.9-2,2-3.2
				c0-0.1,0-0.1,0-0.2v-8.5l0,0c0-0.1,0-0.1,0-0.2v-0.1c0,0,0,0,0-0.1s0-0.1,0-0.2c-0.2-1.2-0.9-2.4-2-3.2l-17.9-12.9
				c-2.6-1.9-6.7-1.9-9.3,0l-18,13c-1.2,0.8-1.9,2-2,3.2v0.1c0,0.2,0,0.4,0,0.6l0,0v7.7
				C53.0054,37.8817,53.7054,39.3817,55.1054,40.3817z"/>
			<path class="st1" d="M101.1054,31.3817v5.5v0.1c-0.1,0.9-0.6,1.8-1.5,2.4l-17.9,13.1c-1,0.8-2.5,1.2-4,1.2l0,0
				c-1.5,0-2.9-0.4-4-1.2l-17.9-13.1c-1-0.8-1.6-1.8-1.5-2.9v-5.1c0.2,0.2,0.5,0.4,0.7,0.6l0,0l18,13.2l0,0l0,0
				c0.3,0.2,0.7,0.4,1,0.6h0.1c1.1,0.5,2.3,0.8,3.6,0.8c1.8,0,3.4-0.5,4.7-1.4l9.4-6.9l8.5-6.2
				C100.6054,31.8817,100.9054,31.6817,101.1054,31.3817L101.1054,31.3817z"/>
			<path class="st1" d="M54.4054,28.0817c0.1-0.9,0.7-1.7,1.5-2.3l17.9-12.9c1.1-0.8,2.5-1.2,3.9-1.2s2.8,0.4,3.9,1.2l17.9,12.9
				c0.9,0.6,1.4,1.5,1.5,2.3c0,0.1,0,0.2,0,0.3c0,0.2,0,0.4-0.1,0.6v0.1c-0.1,0.2-0.1,0.4-0.2,0.6l-0.1,0.1
				c-0.1,0.2-0.2,0.4-0.4,0.6c0,0,0,0-0.1,0.1c-0.2,0.2-0.4,0.4-0.6,0.5l-9,6.6l-9,6.6c-0.3,0.2-0.6,0.4-0.9,0.5
				c-0.2,0.1-0.5,0.2-0.7,0.3c-0.1,0-0.2,0.1-0.2,0.1c-0.7,0.2-1.4,0.3-2.1,0.3l0,0c-1.1,0-2.2-0.2-3.1-0.7
				c-0.3-0.2-0.6-0.3-0.9-0.5l-18-13.1l0,0c-0.6-0.5-1.1-1-1.3-1.6v-0.1l0,0c-0.1-0.2-0.1-0.4-0.1-0.6c0-0.1,0-0.3,0-0.5h-0.3
				c0,0,0,0-0.1,0L54.4054,28.0817z"/>
		</g>
	</g>
</g>
</svg>
