<?xml version="1.0" encoding="utf-8"?>
<!-- Generator: Adobe Illustrator 22.1.0, SVG Export Plug-In . SVG Version: 6.00 Build 0)  -->
<svg version="1.1" id="Layer_1" xmlns="http://www.w3.org/2000/svg" xmlns:xlink="http://www.w3.org/1999/xlink" x="0px" y="0px"
	 viewBox="0 0 137.5 129.5" style="enable-background:new 0 0 137.5 129.5;" xml:space="preserve">
<style type="text/css">
	.st0{fill:url(#SVGID_1_);}
	.st1{fill:url(#SVGID_2_);}
	.st2{fill:url(#SVGID_3_);}
	.st3{fill:url(#SVGID_4_);}
	.st4{fill:url(#SVGID_5_);}
	.st5{fill:url(#SVGID_6_);}
	.st6{fill:url(#SVGID_7_);}
	.st7{fill:url(#SVGID_8_);}
	.st8{fill:url(#SVGID_9_);}
	.st9{fill:url(#SVGID_10_);}
	.st10{fill:url(#SVGID_11_);}
	.st11{fill:url(#SVGID_12_);}
	.st12{fill:url(#SVGID_13_);}
	.st13{fill:url(#SVGID_14_);}
	.st14{fill:url(#SVGID_15_);}
	.st15{fill:url(#SVGID_16_);}
	.st16{fill:#653893;}
	.st17{fill:url(#SVGID_17_);}
	.st18{fill:#FFFFFF;}
	.st19{fill:url(#SVGID_18_);}
</style>
<g id="Layer_4">
	<g>
		<linearGradient id="SVGID_1_" gradientUnits="userSpaceOnUse" x1="128.758" y1="45.0861" x2="126.4948" y2="47.1548">
			<stop  offset="0" style="stop-color:#B33C8A"/>
			<stop  offset="1" style="stop-color:#EE4F86"/>
		</linearGradient>
		<path class="st0" d="M129.9,47.7c-0.1,0.2-0.3,0.3-0.5,0.3c-0.1,0-0.3,0-0.4-0.1l-3.4-2.5c-0.3-0.2-0.3-0.6-0.1-0.9
			c0.1-0.2,0.3-0.3,0.5-0.3c0.1,0,0.3,0,0.4,0.1c0,0,1.8,1.3,2.7,2c0,0,0,0,0.1,0l0,0l0,0l0,0l0,0l0,0l0,0l0,0l0,0l0.5,0.4
			C130,47,130.1,47.4,129.9,47.7z"/>
		<linearGradient id="SVGID_2_" gradientUnits="userSpaceOnUse" x1="128.0609" y1="67.5952" x2="122.281" y2="72.878">
			<stop  offset="0" style="stop-color:#B33C8A"/>
			<stop  offset="1" style="stop-color:#EE4F86"/>
		</linearGradient>
		<path class="st1" d="M127.5,68.5c0.2,0.3,0.2,0.7-0.1,0.9l-3.4,2.5c-0.1,0.1-0.2,0.1-0.4,0.1c-0.2,0-0.4-0.1-0.5-0.3
			c-0.2-0.3-0.2-0.7,0.1-0.9l3.4-2.5c0.1-0.1,0.2-0.1,0.4-0.1C127.2,68.3,127.3,68.4,127.5,68.5z"/>
		<linearGradient id="SVGID_3_" gradientUnits="userSpaceOnUse" x1="134.8238" y1="62.6371" x2="129.1057" y2="67.8635">
			<stop  offset="0" style="stop-color:#B33C8A"/>
			<stop  offset="1" style="stop-color:#EE4F86"/>
		</linearGradient>
		<path class="st2" d="M134.2,63.6c0.2,0.3,0.2,0.7-0.1,0.9c0,0-0.1,0-0.1,0.1l0,0l0,0l0,0l0,0l0,0c0,0,0,0,0,0c0,0-0.1,0-0.1,0.1
			c0,0,0,0,0,0l0,0l0,0c0,0-0.1,0-0.1,0.1l0,0c0,0,0,0,0,0l0,0l0,0l0,0c0,0,0,0,0,0l0,0l0,0l0,0c0,0,0,0,0,0l0,0l0,0l-0.1,0l0,0h0
			l0,0l0,0l0,0l0,0l0,0l0,0l0,0l0,0l0,0l0,0l0,0l0,0l0,0l0,0l0,0l0,0l0,0l0,0l0,0l0,0l0,0l0,0l0,0l0,0l0,0l0,0l0,0l0,0l0,0l0,0l0,0
			l0,0l0,0l-2.9,2.1c-0.1,0.1-0.2,0.1-0.4,0.1c-0.2,0-0.4-0.1-0.5-0.3c-0.2-0.3-0.2-0.7,0.1-0.9l3.3-2.4l0.1-0.1
			c0.1-0.1,0.2-0.1,0.4-0.1C133.9,63.3,134.1,63.4,134.2,63.6z"/>
		<linearGradient id="SVGID_4_" gradientUnits="userSpaceOnUse" x1="134.6907" y1="49.9685" x2="132.8661" y2="51.6362">
			<stop  offset="0" style="stop-color:#B33C8A"/>
			<stop  offset="1" style="stop-color:#EE4F86"/>
		</linearGradient>
		<path class="st3" d="M134.5,52.6c-0.1-0.7-0.6-1.3-1.3-1.8l-0.8-0.6c-0.3-0.2-0.3-0.6-0.1-0.9c0.1-0.2,0.3-0.3,0.5-0.3
			c0.1,0,0.3,0,0.4,0.1l0.8,0.6c0,0,0,0,0,0l0,0c0,0,0,0,0,0l0,0c0,0,0,0,0,0l0,0c0,0,0,0,0,0l0,0c0,0,0,0,0,0l0,0c0,0,0,0,0,0l0,0
			c0,0,0,0,0,0l0,0c0,0,0,0,0,0l0,0c0,0,0,0,0,0l0,0l0,0l0,0l0,0l0,0l0,0l0,0l0,0l0,0c0,0,0,0,0,0l0,0c0,0,0,0,0,0l0,0l0,0l0,0
			c0,0,0,0,0,0l0,0c0,0,0,0,0,0l0,0l0,0l0,0l0,0l0,0l0,0l0,0l0,0l0,0c0,0,0,0,0,0l0,0l0,0l0,0l0,0l0,0l0,0l0,0l0,0l0,0l0,0l0,0l0,0
			l0,0l0,0l0,0l0,0l0,0l0,0l0,0l0,0l0,0l0,0l0,0l0,0l0,0l0,0l0,0l0,0l0,0l0,0l0,0l0,0l0,0l0,0l0,0l0,0l0,0l0,0l0,0l0,0l0,0l0,0l0,0
			l0,0l0,0l0,0l0,0l0,0l0,0l0,0l0,0l0,0l0,0l0,0l0,0l0,0l0,0l0,0l0,0l0,0l0,0l0,0l0,0l0,0l0,0l0,0l0,0l0,0l0,0l0,0l0,0l0,0l0,0l0,0
			l0,0l0,0l0,0l0,0l0,0l0,0l0,0l0,0l0,0l0,0l0,0l0,0l0,0l0,0l0,0l0,0l0,0l0,0l0,0l0,0l0,0l0,0l0,0l0,0l0,0l0,0l0,0l0,0l0,0l0,0l0,0
			l0,0l0,0l0,0l0,0l0,0l0,0l0,0l0,0l0,0l0,0l0,0l0,0l0,0l0,0l0,0l0,0l0,0l0,0l0,0l0,0l0,0l0,0l0,0l0,0l0,0l0,0l0,0l0,0l0,0l0,0l0,0
			l0,0l0,0l0,0l0,0l0,0l0,0l0,0l0,0l0,0l0,0l0,0l0,0l0,0l0,0l0,0l0,0l0,0l0,0l0,0l0,0l0,0l0,0l0,0l0,0l0,0l0,0l0,0l0,0l0,0l0,0l0,0
			l0,0l0,0l0,0l0,0l0,0l0,0l0,0l0,0l0,0l0,0l0,0l0,0l0,0l0,0l0,0l0,0l0,0l0,0l0,0l0,0l0,0l0,0l0,0l0,0l0,0l0,0l0,0l0,0l0,0l0,0l0,0
			l0,0l0,0l0,0l0,0l0,0l0,0l0,0l0,0l0,0l0,0l0,0l0,0l0,0l0,0l0,0l0,0l0,0l0,0l0,0l0,0l0,0l0,0l0,0l0,0l0,0l0,0l0,0l0,0l0,0l0,0l0,0
			l0,0l0,0l0,0l0,0l0,0l0,0l0,0l0,0l0,0l0,0l0,0l0,0l0,0l0,0l0,0l0,0l0,0l0,0l0,0l0,0l0,0l0,0l0,0l0,0l0,0l0,0l0,0l0,0l0,0l0,0l0,0
			l0,0l0,0l0,0l0,0l0,0l0,0l0,0l0,0l0,0l0,0l0,0l0,0l0,0l0,0l0,0l0,0l0,0l0,0l0,0l0,0l0,0l0,0l0,0l0,0l0,0l0,0l0,0l0,0l0,0l0,0l0,0
			l0,0l0,0l0,0l0,0l0,0l0,0l0,0l0,0l0,0l0,0l0,0l0,0l0,0l0,0l0,0l0,0l0,0l0,0l0,0l0,0l0,0l0,0l0,0l0,0l0,0l0,0l0,0l0,0l0,0l0,0l0,0
			l0,0l0,0l0,0l0,0l0,0l0,0l0,0l0,0l0,0l0,0l0,0l0,0l0,0l0,0l0,0l0,0l0,0l0,0l0,0l0,0l0,0l0,0l0,0l0,0l0,0l0,0l0,0l0,0l0,0l0,0l0,0
			l0,0l0,0l0,0l0,0l0,0l0,0l0,0c0,0,0,0,0,0l0,0l0,0l0,0l0,0l0,0l0,0l0,0l0,0l0,0l0,0l0,0l0,0l0,0c0,0,0,0,0,0l0,0l0,0l0,0l0,0l0,0
			l0,0l0,0l0,0l0,0l0,0l0,0l0,0l0,0c0,0,0,0,0,0l0,0l0,0l0,0l0,0l0,0l0,0l0,0l0,0l0,0l0,0l0,0l0,0l0,0c0,0,0,0,0,0l0,0l0,0l0,0l0,0
			l0,0l0,0l0,0l0,0l0,0l0,0l0,0l0,0c0,0,0,0,0,0l0,0l0,0l0,0l0,0l0,0l0,0l0,0l0,0l0,0l0,0l0,0l0,0c0,0,0,0,0,0l0,0l0,0l0,0l0,0l0,0
			l0,0l0,0l0,0l0,0l0,0l0,0l0,0l0,0l0,0l0,0l0,0l0,0l0,0l0,0l0,0l0,0l0,0l0,0l0,0l0,0l0,0l0,0c0,0,0,0,0,0l0,0l0,0l0,0l0,0l0,0l0,0
			l0,0l0,0l0,0l0,0l0,0l0,0l0,0c0,0,0,0,0,0c0,0,0,0,0,0l0,0l0,0l0,0l0,0l0,0l0,0l0,0c0,0,0,0,0,0l0,0c0,0,0,0,0,0l0,0l0,0l0,0l0,0
			l0,0l0,0l0,0l0,0l0,0c0,0,0,0,0,0s0,0,0,0l0,0c0,0,0,0,0,0l0,0l0,0l0,0l0,0l0,0l0,0l0,0c0,0,0,0,0,0l0,0l0,0l0,0l0,0l0,0l0,0l0,0
			l0,0l0,0c0,0,0,0,0,0l0,0c0,0,0,0,0,0l0,0c0,0,0,0,0,0l0,0l0,0l0,0c0,0,0,0,0,0l0,0c0,0,0,0,0,0s0,0,0,0l0,0l0,0l0,0l0,0l0,0l0,0
			l0,0c0,0,0,0,0,0l0,0c0,0,0,0,0,0l0,0c0,0,0,0,0,0l0,0c0,0,0,0,0,0l0,0l0,0l0,0l0,0l0,0l0,0l0,0c0,0,0,0,0,0l0,0c0,0,0,0,0,0l0,0
			c0,0,0,0,0,0l0,0c0,0,0,0.1,0.1,0.1l0,0c0.1,0.3,0.2,0.6,0.3,0.9c0.1,0.3-0.2,0.7-0.5,0.7c0,0-0.1,0-0.1,0
			C134.8,53.2,134.5,53,134.5,52.6z"/>
		<linearGradient id="SVGID_5_" gradientUnits="userSpaceOnUse" x1="92.0997" y1="48.389" x2="86.822" y2="53.2128">
			<stop  offset="0" style="stop-color:#B33C8A"/>
			<stop  offset="1" style="stop-color:#EE4F86"/>
		</linearGradient>
		<path class="st4" d="M87.7,51.9c0.3-0.7,0.8-1.4,1.6-2l0,0c0,0,0,0,0,0l0,0c0,0,0,0,0,0l0,0c0,0,0,0,0,0l0,0c0,0,0,0,0,0l0,0l0,0
			l0,0l0,0l0,0l0,0l0,0l0,0l0,0l0,0l0,0l0,0l0,0l0,0l0,0l0,0l1.2-0.9c0.1-0.1,0.2-0.1,0.4-0.1c0.2,0,0.4,0.1,0.5,0.3
			c0.2,0.3,0.1,0.7-0.1,0.9l-1.2,0.9c-0.6,0.4-1,0.9-1.2,1.5c-0.1,0.3-0.3,0.4-0.6,0.4c-0.1,0-0.1,0-0.2,0
			C87.8,52.6,87.6,52.2,87.7,51.9z"/>
		<linearGradient id="SVGID_6_" gradientUnits="userSpaceOnUse" x1="137.2552" y1="56.791" x2="132.9081" y2="60.7644">
			<stop  offset="0" style="stop-color:#B33C8A"/>
			<stop  offset="1" style="stop-color:#EE4F86"/>
		</linearGradient>
		<path class="st5" d="M135.8,60.8c0,0.3-0.3,0.6-0.6,0.6l0,0c-0.4,0-0.6-0.3-0.6-0.6l0-4.2c0-0.3,0.3-0.6,0.6-0.6l0,0
			c0.4,0,0.6,0.3,0.6,0.6l0,1.8l0,0v0v0v0C135.8,59.6,135.8,60.8,135.8,60.8z"/>
		<linearGradient id="SVGID_7_" gradientUnits="userSpaceOnUse" x1="121.9439" y1="40.1608" x2="119.6737" y2="42.2358">
			<stop  offset="0" style="stop-color:#B33C8A"/>
			<stop  offset="1" style="stop-color:#EE4F86"/>
		</linearGradient>
		<path class="st6" d="M123.1,42.8c-0.1,0.2-0.3,0.3-0.5,0.3c-0.1,0-0.3,0-0.4-0.1l-3.4-2.5c-0.3-0.2-0.3-0.6-0.1-0.9
			c0.1-0.2,0.3-0.3,0.5-0.3c0.1,0,0.3,0,0.4,0.1c0,0,0.3,0.2,0.8,0.6l0,0c0,0,0,0,0,0l0,0c0,0,0,0,0,0l0,0c0,0,0,0,0,0l0,0
			c0,0,0,0,0,0l0,0l0,0l0,0l0,0l0,0l0,0l0,0c0,0,0,0,0,0l0,0l0,0l0,0l0,0l0,0c0,0,0,0,0,0l0,0c0,0,0,0,0,0l0,0l0,0l2.4,1.8
			C123.2,42.1,123.3,42.5,123.1,42.8z"/>
		<linearGradient id="SVGID_8_" gradientUnits="userSpaceOnUse" x1="98.8356" y1="43.2527" x2="93.1114" y2="48.4847">
			<stop  offset="0" style="stop-color:#B33C8A"/>
			<stop  offset="1" style="stop-color:#EE4F86"/>
		</linearGradient>
		<path class="st7" d="M98.2,45.1l-3.4,2.5c-0.1,0.1-0.2,0.1-0.4,0.1c-0.2,0-0.4-0.1-0.5-0.3c-0.2-0.3-0.1-0.7,0.1-0.9
			c0,0,0.8-0.6,1.7-1.2l0,0l0,0l0,0l0,0l0,0l0,0l0,0l0,0l0,0l0,0l0,0l0,0l0,0l0,0l1.7-1.2c0.1-0.1,0.2-0.1,0.4-0.1
			c0.2,0,0.4,0.1,0.5,0.3C98.5,44.5,98.4,44.9,98.2,45.1z"/>
		<linearGradient id="SVGID_9_" gradientUnits="userSpaceOnUse" x1="105.6858" y1="38.3144" x2="99.9375" y2="43.5685">
			<stop  offset="0" style="stop-color:#B33C8A"/>
			<stop  offset="1" style="stop-color:#EE4F86"/>
		</linearGradient>
		<path class="st8" d="M105,40.1l-3.4,2.5c-0.1,0.1-0.2,0.1-0.4,0.1c-0.2,0-0.4-0.1-0.5-0.3c-0.2-0.3-0.1-0.7,0.1-0.9l2.4-1.7l0,0
			l0,0c0,0,0,0,0,0l0,0c0,0,0,0,0,0l0,0c0,0,0,0,0,0l0,0c0,0,0,0,0,0l0,0c0,0,0,0,0,0l0,0c0,0,0,0,0,0l0,0c0,0,0,0,0,0l0,0
			c0,0,0,0,0,0l0,0c0,0,0,0,0.1,0l0,0c0.5-0.3,0.8-0.6,0.8-0.6c0.1-0.1,0.2-0.1,0.4-0.1c0.2,0,0.4,0.1,0.5,0.3
			C105.3,39.5,105.3,39.9,105,40.1z"/>
		<linearGradient id="SVGID_10_" gradientUnits="userSpaceOnUse" x1="98.7326" y1="68.8949" x2="96.5123" y2="70.9242">
			<stop  offset="0" style="stop-color:#B33C8A"/>
			<stop  offset="1" style="stop-color:#EE4F86"/>
		</linearGradient>
		<path class="st9" d="M99.7,70.6c0.3,0.2,0.3,0.6,0.1,0.9c-0.1,0.2-0.3,0.3-0.5,0.3c-0.1,0-0.3,0-0.4-0.1l-3.3-2.4l0,0l0,0l0,0l0,0
			l0,0h0l0,0l0,0l0,0l0,0l0,0l0,0l0,0l0,0l0,0l0,0l0,0l0,0l0,0l0,0l0,0l0,0l0,0l0,0l0,0l0,0l0,0l0,0l0,0l0,0l0,0l0,0l0,0l0,0l0,0
			l0,0l0,0l0,0l0,0l0,0c0,0,0,0,0,0l0,0c0,0,0,0,0,0c0,0,0,0,0,0l0,0c0,0,0,0,0,0l0,0l0,0l0,0l0,0l0,0l0,0l0,0l0,0l0,0
			c-0.3-0.2-0.3-0.6-0.1-0.9c0.1-0.2,0.3-0.3,0.5-0.3c0.1,0,0.3,0,0.4,0.1L99.7,70.6z"/>
		<linearGradient id="SVGID_11_" gradientUnits="userSpaceOnUse" x1="121.27" y1="72.5647" x2="115.5214" y2="77.819">
			<stop  offset="0" style="stop-color:#B33C8A"/>
			<stop  offset="1" style="stop-color:#EE4F86"/>
		</linearGradient>
		<path class="st10" d="M120.7,73.5c0.2,0.3,0.2,0.7-0.1,0.9l-1.3,1c0,0,0,0,0,0l0,0c0,0,0,0,0,0h0l0,0l0,0l0,0l0,0l0,0l0,0l0,0l0,0
			c-0.9,0.7-2,1.5-2,1.5c-0.1,0.1-0.2,0.1-0.4,0.1c-0.2,0-0.4-0.1-0.5-0.3c-0.2-0.3-0.2-0.7,0.1-0.9l3.4-2.5
			c0.1-0.1,0.2-0.1,0.4-0.1C120.4,73.2,120.6,73.3,120.7,73.5z"/>
		<linearGradient id="SVGID_12_" gradientUnits="userSpaceOnUse" x1="105.5148" y1="73.8633" x2="103.2799" y2="75.906">
			<stop  offset="0" style="stop-color:#B33C8A"/>
			<stop  offset="1" style="stop-color:#EE4F86"/>
		</linearGradient>
		<path class="st11" d="M106.5,75.6c0.3,0.2,0.3,0.6,0.1,0.9c-0.1,0.2-0.3,0.3-0.5,0.3c-0.1,0-0.3,0-0.4-0.1c0,0-0.2-0.2-0.5-0.4
			l0,0c0,0,0,0,0,0l0,0l0,0h0l0,0l0,0l0,0l0,0l0,0l0,0l0,0l0,0c0,0,0,0,0,0l0,0l0,0l0,0c0,0,0,0,0,0l0,0l0,0l0,0l0,0l0,0
			c0,0,0,0,0,0l0,0c0,0,0,0,0,0l0,0c0,0,0,0,0,0l0,0l0,0l0,0l0,0l0,0l0,0l0,0l0,0l0,0l0,0l-2.7-2c-0.3-0.2-0.3-0.6-0.1-0.9
			c0.1-0.2,0.3-0.3,0.5-0.3c0.1,0,0.3,0,0.4,0.1L106.5,75.6z"/>
		<linearGradient id="SVGID_13_" gradientUnits="userSpaceOnUse" x1="113.6414" y1="76.3622" x2="109.6065" y2="80.0502">
			<stop  offset="0" style="stop-color:#B33C8A"/>
			<stop  offset="1" style="stop-color:#EE4F86"/>
		</linearGradient>
		<path class="st12" d="M114,78.1c0.1,0.3-0.1,0.7-0.5,0.8c-0.1,0-0.2,0-0.2,0.1l0,0l0,0l0,0c0,0,0,0,0,0l0,0l0,0c0,0,0,0,0,0l0,0
			l0,0l0,0c0,0,0,0,0,0l0,0c0,0,0,0,0,0l0,0c0,0,0,0,0,0l0,0c-0.5,0.1-1,0.1-1.5,0.1c0,0,0,0,0,0l0,0l0,0l0,0l0,0l0,0l0,0l0,0l0,0
			l0,0l0,0l0,0h0l0,0l0,0l0,0l0,0l0,0l0,0l0,0l0,0l0,0l0,0l0,0l0,0l0,0l0,0l0,0l0,0l0,0l0,0l0,0l0,0l0,0l0,0l0,0l0,0l0,0l0,0l0,0
			l0,0l0,0l0,0l0,0l0,0l0,0l0,0l0,0l0,0l0,0l0,0l0,0l0,0l0,0l0,0l0,0l0,0l0,0l0,0l0,0l0,0l0,0l0,0l0,0l0,0l0,0l0,0l0,0l0,0l0,0l0,0
			l0,0l0,0l0,0l0,0l0,0l0,0l0,0h0l0,0l0,0l0,0l0,0l0,0l0,0l0,0l0,0l0,0l0,0l0,0l0,0l0,0l0,0l0,0l0,0l0,0l0,0l0,0l0,0l0,0l0,0l0,0
			l0,0l0,0l0,0l0,0l0,0l0,0l0,0l0,0l0,0l0,0l0,0l0,0l0,0l0,0l0,0l0,0l0,0l0,0l0,0l0,0l0,0l0,0l0,0l0,0l0,0l0,0l0,0l0,0l0,0l0,0l0,0
			l0,0l0,0l0,0c-0.6,0-1.1-0.1-1.7-0.2l0,0l0,0l0,0l0,0l0,0l0,0l0,0l0,0l0,0l0,0l0,0l0,0l0,0l0,0l0,0l0,0l0,0l0,0l0,0l0,0l0,0l0,0
			l0,0l0,0l0,0l0,0l0,0l0,0l0,0l0,0l0,0l0,0l0,0l0,0l0,0l0,0l0,0l0,0l0,0l0,0l0,0l0,0l0,0l0,0l0,0l0,0l0,0l0,0l0,0l0,0l0,0l0,0l0,0
			l0,0l0,0l0,0l0,0l0,0l0,0l0,0l0,0l0,0l0,0c-0.1,0-0.1,0-0.2-0.1c-0.3-0.1-0.5-0.5-0.4-0.8c0.1-0.3,0.3-0.5,0.6-0.5
			c0.1,0,0.1,0,0.2,0c0.6,0.2,1.3,0.3,2,0.3c0.5,0,1.1-0.1,1.6-0.2c0.1,0,0.1,0,0.1,0C113.6,77.6,113.9,77.8,114,78.1z"/>
		<linearGradient id="SVGID_14_" gradientUnits="userSpaceOnUse" x1="115.2212" y1="34.2781" x2="108.182" y2="40.712">
			<stop  offset="0" style="stop-color:#B33C8A"/>
			<stop  offset="1" style="stop-color:#EE4F86"/>
		</linearGradient>
		<path class="st13" d="M116.2,37.9c-0.1,0.2-0.3,0.3-0.5,0.3c-0.1,0-0.3,0-0.4-0.1l-0.1-0.1c-0.8-0.6-1.9-1-3.1-1
			c-0.1,0-0.2,0-0.2,0c-0.1,0-0.1,0-0.2,0c-1.2,0-2.4,0.3-3.3,0.9c-0.1,0.1-0.2,0.1-0.3,0.1c-0.2,0-0.4-0.1-0.5-0.3
			c-0.2-0.3-0.1-0.7,0.2-0.9l0,0l0,0l0,0l0,0l0,0l0,0l0,0l0,0l0,0l0,0l0,0l0,0l0,0l0,0l0,0l0,0l0,0l0,0l0,0l0,0l0,0l0,0l0,0l0,0l0,0
			c0,0,0,0,0,0l0,0l0,0l0,0l0,0l0,0l0,0l0,0l0,0l0,0l0,0l0,0l0,0l0,0l0,0l0,0l0,0l0,0l0,0l0,0c0,0,0,0,0,0l0,0c0,0,0,0,0,0l0,0
			c0,0,0,0,0,0l0,0l0,0l0,0l0,0l0,0l0,0l0,0l0,0l0,0l0,0l0,0l0,0l0,0l0,0l0,0c0,0,0,0,0,0l0,0c0,0,0,0,0,0l0,0c0,0,0,0,0,0l0,0
			c0,0,0,0,0,0l0,0c0,0,0,0,0,0l0,0c0,0,0,0,0,0l0,0c0,0,0,0,0,0l0,0c0,0,0,0,0,0l0,0c0,0,0,0,0,0l0,0c0,0,0,0,0,0l0,0c0,0,0,0,0,0
			l0,0c0,0,0,0,0,0l0,0c0,0,0,0,0,0l0,0c0,0,0,0,0,0l0,0c0,0,0,0,0,0l0,0c0,0,0,0,0,0l0,0c0,0,0,0,0.1,0l0,0c0,0,0,0,0,0l0,0
			c0,0,0,0,0,0l0,0c0,0,0,0,0,0l0,0c0,0,0,0,0,0l0,0c0,0,0.1,0,0.1,0l0,0c0.7-0.3,1.5-0.6,2.3-0.7l0,0c0,0,0.1,0,0.1,0l0,0h0l0,0h0
			l0,0c0,0,0,0,0,0l0,0h0l0,0c0,0,0,0,0.1,0l0,0c0,0,0,0,0,0l0,0c0,0,0,0,0,0l0,0c0,0,0,0,0,0l0,0c0,0,0,0,0,0l0,0c0,0,0,0,0,0l0,0
			h0l0,0c0,0,0,0,0.1,0l0,0c0,0,0,0,0,0l0,0c0,0,0,0,0,0l0,0c0,0,0,0,0,0l0,0c0,0,0,0,0,0l0,0c0,0,0,0,0,0l0,0c0,0,0,0,0,0l0,0
			c0,0,0,0,0,0l0,0c0,0,0,0,0.1,0l0,0c0,0,0,0,0,0l0,0c0,0,0,0,0,0l0,0c0,0,0,0,0,0l0,0c0,0,0,0,0,0l0,0c0,0,0,0,0,0l0,0
			c0,0,0,0,0,0l0,0c0,0,0,0,0,0l0,0c0,0,0,0,0,0l0,0c0,0,0,0,0,0l0,0c0,0,0,0,0,0l0,0c0,0,0,0,0,0l0,0c0,0,0,0,0,0l0,0c0,0,0,0,0,0
			l0,0c0,0,0,0,0,0l0,0c0,0,0,0,0,0l0,0c0,0,0,0,0,0l0,0c0,0,0,0,0,0l0,0c0,0,0,0,0,0l0,0c0,0,0,0,0,0l0,0c0,0,0,0,0,0l0,0
			c0,0,0,0,0,0l0,0c0,0,0,0,0,0l0,0l0,0l0,0l0,0l0,0l0,0l0,0l0,0l0,0l0,0l0,0c0,0,0,0,0,0l0,0h0l0,0l0,0l0,0l0,0l0,0l0,0l0,0l0,0
			l0,0l0,0l0,0l0,0l0,0l0,0l0,0l0,0l0,0l0,0l0,0l0,0c0,0,0,0,0,0l0,0h0l0,0c0,0,0,0,0,0l0,0l0,0l0,0l0,0l0,0l0,0l0,0l0,0l0,0l0,0
			l0,0l0,0l0,0l0,0l0,0l0,0l0,0c0,0,0,0,0,0l0,0c0,0,0,0,0,0l0,0h0l0,0c0,0,0,0,0,0l0,0c0,0,0,0,0,0l0,0c0,0,0,0,0,0l0,0l0,0l0,0
			l0,0l0,0l0,0l0,0l0,0l0,0l0,0l0,0c0,0,0,0,0,0l0,0c0,0,0,0,0,0l0,0c0,0,0,0,0,0l0,0h0l0,0c0,0,0,0,0,0l0,0c0,0,0,0,0,0l0,0l0,0
			l0,0l0,0l0,0l0,0l0,0c0,0,0,0,0,0l0,0l0,0l0,0c0,0,0,0,0,0l0,0c0,0,0,0,0,0l0,0c0,0,0,0,0,0l0,0h0c0.1,0,0.2,0,0.3,0
			c0.1,0,0.1,0,0.2,0c0,0,0,0,0,0l0,0c0,0,0,0,0,0l0,0c0,0,0,0,0,0l0,0c0,0,0,0,0,0l0,0c0,0,0,0,0,0l0,0c0,0,0,0,0,0l0,0
			c0,0,0,0,0,0l0,0c0,0,0,0,0,0l0,0c0,0,0,0,0,0l0,0c0,0,0,0,0,0l0,0c0,0,0,0,0,0l0,0c0,0,0,0,0.1,0l0,0h0l0,0c0,0,0,0,0,0l0,0h0
			l0,0c0,0,0,0,0.1,0l0,0h0l0,0h0l0,0c1.2,0.1,2.4,0.5,3.3,1.1l0,0c0,0,0,0,0,0l0,0c0,0,0,0,0,0l0,0c0,0,0,0,0,0l0,0c0,0,0,0,0,0
			l0,0c0,0,0,0,0,0l0,0l0,0l0,0l0,0l0,0l0,0l0,0l0,0l0,0l0,0l0,0l0,0l0,0c0,0,0,0,0,0l0,0l0,0l0,0l0,0l0,0l0,0l0,0l0,0l0,0l0,0l0,0
			l0,0l0,0l0,0c0,0,0,0,0,0l0.1,0.1C116.4,37.2,116.4,37.6,116.2,37.9z"/>
		<linearGradient id="SVGID_15_" gradientUnits="userSpaceOnUse" x1="90.2838" y1="56.2627" x2="85.9285" y2="60.2436">
			<stop  offset="0" style="stop-color:#B33C8A"/>
			<stop  offset="1" style="stop-color:#EE4F86"/>
		</linearGradient>
		<path class="st14" d="M88.2,60.9c-0.3,0-0.6-0.3-0.6-0.6v-4.2c0-0.3,0.3-0.6,0.6-0.6s0.6,0.3,0.6,0.6v4.2
			C88.8,60.6,88.5,60.9,88.2,60.9z"/>
		<linearGradient id="SVGID_16_" gradientUnits="userSpaceOnUse" x1="91.9556" y1="63.9305" x2="89.78" y2="65.919">
			<stop  offset="0" style="stop-color:#B33C8A"/>
			<stop  offset="1" style="stop-color:#EE4F86"/>
		</linearGradient>
		<path class="st15" d="M92.9,65.6c0.3,0.2,0.3,0.6,0.1,0.9c-0.1,0.2-0.3,0.3-0.5,0.3c-0.1,0-0.3,0-0.4-0.1l-2.9-2.1l0,0l0,0l0,0
			l0,0l0,0l0,0l0,0l0,0c-0.2-0.1-0.3-0.2-0.5-0.4c-0.3-0.2-0.3-0.6,0-0.9c0.1-0.1,0.3-0.2,0.5-0.2c0.2,0,0.3,0.1,0.4,0.2
			c0.1,0.1,0.2,0.2,0.4,0.3L92.9,65.6z"/>
	</g>
	<g>
		<path class="st16" d="M47,16.8c-0.1,0.2-0.3,0.3-0.5,0.3c-0.1,0-0.3,0-0.4-0.1l-3.4-2.5c-0.3-0.2-0.3-0.6-0.1-0.9
			c0.1-0.2,0.3-0.3,0.5-0.3c0.1,0,0.3,0,0.4,0.1c0,0,1.8,1.3,2.8,2c0,0,0,0,0.1,0l0,0l0,0l0,0l0,0l0,0l0,0l0,0l0,0l0.5,0.4
			C47.1,16.1,47.2,16.5,47,16.8z"/>
		<path class="st16" d="M44.6,37.6c0.2,0.3,0.2,0.7-0.1,0.9L41,41c-0.1,0.1-0.2,0.1-0.4,0.1c-0.2,0-0.4-0.1-0.5-0.3
			c-0.2-0.3-0.2-0.7,0.1-0.9l3.4-2.5c0.1-0.1,0.2-0.1,0.4-0.1C44.2,37.4,44.4,37.5,44.6,37.6z"/>
		<path class="st16" d="M51.3,32.7c0.2,0.3,0.2,0.7-0.1,0.9c0,0-0.1,0-0.1,0.1l0,0l0,0l0,0l0,0l0,0c0,0,0,0,0,0c0,0-0.1,0-0.1,0.1
			c0,0,0,0,0,0l0,0l0,0c0,0-0.1,0-0.1,0.1l0,0c0,0,0,0,0,0l0,0l0,0l0,0c0,0,0,0,0,0l0,0l0,0l0,0c0,0,0,0,0,0l0,0l0,0l-0.1,0l0,0h0
			l0,0l0,0l0,0l0,0l0,0l0,0l0,0l0,0l0,0l0,0l0,0l0,0l0,0l0,0l0,0l0,0l0,0l0,0l0,0l0,0l0,0l0,0l0,0l0,0l0,0l0,0l0,0l0,0l0,0l0,0l0,0
			l0,0l0,0L47.8,36c-0.1,0.1-0.2,0.1-0.4,0.1c-0.2,0-0.4-0.1-0.5-0.3c-0.2-0.3-0.2-0.7,0.1-0.9l3.3-2.4l0.1-0.1
			c0.1-0.1,0.2-0.1,0.4-0.1C51,32.4,51.2,32.5,51.3,32.7z"/>
		<path class="st16" d="M51.6,21.7c-0.1-0.7-0.6-1.3-1.3-1.8l-0.8-0.6c-0.3-0.2-0.3-0.6-0.1-0.9c0.1-0.2,0.3-0.3,0.5-0.3
			c0.1,0,0.3,0,0.4,0.1l0.8,0.6c0,0,0,0,0,0l0,0c0,0,0,0,0,0l0,0c0,0,0,0,0,0l0,0c0,0,0,0,0,0l0,0c0,0,0,0,0,0l0,0c0,0,0,0,0,0l0,0
			c0,0,0,0,0,0l0,0c0,0,0,0,0,0l0,0c0,0,0,0,0,0l0,0l0,0l0,0l0,0l0,0l0,0l0,0l0,0l0,0c0,0,0,0,0,0l0,0c0,0,0,0,0,0l0,0l0,0l0,0
			c0,0,0,0,0,0l0,0c0,0,0,0,0,0l0,0l0,0l0,0l0,0l0,0l0,0l0,0l0,0l0,0c0,0,0,0,0,0l0,0l0,0l0,0l0,0l0,0l0,0l0,0l0,0l0,0l0,0l0,0l0,0
			l0,0l0,0l0,0l0,0l0,0l0,0l0,0l0,0l0,0l0,0l0,0l0,0l0,0l0,0l0,0l0,0l0,0l0,0l0,0l0,0l0,0l0,0l0,0l0,0l0,0l0,0l0,0l0,0l0,0l0,0l0,0
			l0,0l0,0l0,0l0,0l0,0l0,0l0,0l0,0l0,0l0,0l0,0l0,0l0,0l0,0l0,0l0,0l0,0l0,0l0,0l0,0l0,0l0,0l0,0l0,0l0,0l0,0l0,0l0,0l0,0l0,0l0,0
			l0,0l0,0l0,0l0,0l0,0l0,0l0,0l0,0l0,0l0,0l0,0l0,0l0,0l0,0l0,0l0,0l0,0l0,0l0,0l0,0l0,0l0,0l0,0l0,0l0,0l0,0l0,0l0,0l0,0l0,0l0,0
			l0,0l0,0l0,0l0,0l0,0l0,0l0,0l0,0l0,0l0,0l0,0l0,0l0,0l0,0l0,0l0,0l0,0l0,0l0,0l0,0l0,0l0,0l0,0l0,0l0,0l0,0l0,0l0,0l0,0l0,0l0,0
			l0,0l0,0l0,0l0,0l0,0l0,0l0,0l0,0l0,0l0,0l0,0l0,0l0,0l0,0l0,0l0,0l0,0l0,0l0,0l0,0l0,0l0,0l0,0l0,0l0,0l0,0l0,0l0,0l0,0l0,0l0,0
			l0,0l0,0l0,0l0,0l0,0l0,0l0,0l0,0l0,0l0,0l0,0l0,0l0,0l0,0l0,0l0,0l0,0l0,0l0,0l0,0l0,0l0,0l0,0l0,0l0,0l0,0l0,0l0,0l0,0l0,0l0,0
			l0,0l0,0l0,0l0,0l0,0l0,0l0,0l0,0l0,0l0,0l0,0l0,0l0,0l0,0l0,0l0,0l0,0l0,0l0,0l0,0l0,0l0,0l0,0l0,0l0,0l0,0l0,0l0,0l0,0l0,0l0,0
			l0,0l0,0l0,0l0,0l0,0l0,0l0,0l0,0l0,0l0,0l0,0l0,0l0,0l0,0l0,0l0,0l0,0l0,0l0,0l0,0l0,0l0,0l0,0l0,0l0,0l0,0l0,0l0,0l0,0l0,0l0,0
			l0,0l0,0l0,0l0,0l0,0l0,0l0,0l0,0l0,0l0,0l0,0l0,0l0,0l0,0l0,0l0,0l0,0l0,0l0,0l0,0l0,0l0,0l0,0l0,0l0,0l0,0l0,0l0,0l0,0l0,0l0,0
			l0,0l0,0l0,0l0,0l0,0l0,0l0,0l0,0l0,0l0,0l0,0l0,0l0,0l0,0l0,0l0,0l0,0l0,0l0,0l0,0l0,0l0,0l0,0l0,0l0,0l0,0l0,0l0,0l0,0l0,0l0,0
			l0,0l0,0l0,0l0,0l0,0l0,0l0,0l0,0l0,0l0,0l0,0l0,0l0,0l0,0l0,0l0,0l0,0l0,0l0,0l0,0l0,0l0,0l0,0l0,0l0,0l0,0l0,0l0,0l0,0l0,0l0,0
			l0,0l0,0l0,0l0,0l0,0l0,0l0,0c0,0,0,0,0,0l0,0l0,0l0,0l0,0l0,0l0,0l0,0l0,0l0,0l0,0l0,0l0,0l0,0c0,0,0,0,0,0l0,0l0,0l0,0l0,0l0,0
			l0,0l0,0l0,0l0,0l0,0l0,0l0,0l0,0c0,0,0,0,0,0l0,0l0,0l0,0l0,0l0,0l0,0l0,0l0,0l0,0l0,0l0,0l0,0l0,0c0,0,0,0,0,0l0,0l0,0l0,0l0,0
			l0,0l0,0l0,0l0,0l0,0l0,0l0,0l0,0c0,0,0,0,0,0l0,0l0,0l0,0l0,0l0,0l0,0l0,0l0,0l0,0l0,0l0,0l0,0c0,0,0,0,0,0l0,0l0,0l0,0l0,0l0,0
			l0,0l0,0l0,0l0,0l0,0l0,0l0,0l0,0l0,0l0,0l0,0l0,0l0,0l0,0l0,0l0,0l0,0l0,0l0,0l0,0l0,0l0,0c0,0,0,0,0,0l0,0l0,0l0,0l0,0l0,0l0,0
			l0,0l0,0l0,0l0,0l0,0l0,0l0,0c0,0,0,0,0,0c0,0,0,0,0,0l0,0l0,0l0,0l0,0l0,0l0,0l0,0c0,0,0,0,0,0l0,0c0,0,0,0,0,0l0,0l0,0l0,0l0,0
			l0,0l0,0l0,0l0,0l0,0c0,0,0,0,0,0s0,0,0,0l0,0c0,0,0,0,0,0l0,0l0,0l0,0l0,0l0,0l0,0l0,0c0,0,0,0,0,0l0,0l0,0l0,0l0,0l0,0l0,0l0,0
			l0,0l0,0c0,0,0,0,0,0l0,0c0,0,0,0,0,0l0,0c0,0,0,0,0,0l0,0l0,0l0,0c0,0,0,0,0,0l0,0c0,0,0,0,0,0s0,0,0,0l0,0l0,0l0,0l0,0l0,0l0,0
			l0,0c0,0,0,0,0,0l0,0c0,0,0,0,0,0l0,0c0,0,0,0,0,0l0,0c0,0,0,0,0,0l0,0l0,0l0,0l0,0l0,0l0,0l0,0c0,0,0,0,0,0l0,0c0,0,0,0,0,0l0,0
			c0,0,0,0,0,0l0,0c0,0,0,0.1,0.1,0.1l0,0c0.1,0.3,0.2,0.6,0.3,0.9c0.1,0.3-0.2,0.7-0.5,0.7c0,0-0.1,0-0.1,0
			C51.9,22.3,51.6,22,51.6,21.7z"/>
		<path class="st16" d="M4.8,21c0.3-0.7,0.8-1.4,1.6-2l0,0c0,0,0,0,0,0l0,0c0,0,0,0,0,0l0,0c0,0,0,0,0,0l0,0c0,0,0,0,0,0l0,0l0,0
			l0,0l0,0l0,0l0,0l0,0l0,0l0,0l0,0l0,0l0,0l0,0l0,0l0,0l0,0L7.6,18C7.7,18,7.9,17.9,8,17.9c0.2,0,0.4,0.1,0.5,0.3
			c0.2,0.3,0.1,0.7-0.1,0.9L7.1,20c-0.6,0.4-1,0.9-1.2,1.5c-0.1,0.3-0.3,0.4-0.6,0.4c-0.1,0-0.1,0-0.2,0C4.9,21.7,4.7,21.3,4.8,21z"
			/>
		<path class="st16" d="M52.9,29.9c0,0.3-0.3,0.6-0.6,0.6l0,0c-0.4,0-0.6-0.3-0.6-0.6l0-4.2c0-0.3,0.3-0.6,0.6-0.6l0,0
			c0.4,0,0.6,0.3,0.6,0.6l0,1.8l0,0v0v0v0C52.9,28.7,52.9,29.9,52.9,29.9z"/>
		<path class="st16" d="M40.1,11.9c-0.1,0.2-0.3,0.3-0.5,0.3c-0.1,0-0.3,0-0.4-0.1l-3.4-2.5c-0.3-0.2-0.3-0.6-0.1-0.9
			c0.1-0.2,0.3-0.3,0.5-0.3c0.1,0,0.3,0,0.4,0.1c0,0,0.3,0.2,0.8,0.6l0,0c0,0,0,0,0,0l0,0c0,0,0,0,0,0l0,0c0,0,0,0,0,0l0,0
			c0,0,0,0,0,0l0,0l0,0l0,0l0,0l0,0l0,0l0,0c0,0,0,0,0,0l0,0l0,0l0,0l0,0l0,0c0,0,0,0,0,0l0,0c0,0,0,0,0,0l0,0l0,0l2.4,1.8
			C40.3,11.2,40.3,11.6,40.1,11.9z"/>
		<path class="st16" d="M15.2,14.2l-3.4,2.5c-0.1,0.1-0.2,0.1-0.4,0.1c-0.2,0-0.4-0.1-0.5-0.3c-0.2-0.3-0.1-0.7,0.1-0.9
			c0,0,0.8-0.6,1.7-1.2l0,0l0,0l0,0l0,0l0,0l0,0l0,0l0,0l0,0l0,0l0,0l0,0l0,0l0,0l1.7-1.2c0.1-0.1,0.2-0.1,0.4-0.1
			c0.2,0,0.4,0.1,0.5,0.3C15.6,13.5,15.5,13.9,15.2,14.2z"/>
		<path class="st16" d="M22.1,9.2l-3.4,2.5c-0.1,0.1-0.2,0.1-0.4,0.1c-0.2,0-0.4-0.1-0.5-0.3c-0.2-0.3-0.1-0.7,0.1-0.9l2.4-1.7l0,0
			l0,0c0,0,0,0,0,0l0,0c0,0,0,0,0,0l0,0c0,0,0,0,0,0l0,0c0,0,0,0,0,0l0,0c0,0,0,0,0,0l0,0c0,0,0,0,0,0l0,0c0,0,0,0,0,0l0,0
			c0,0,0,0,0,0l0,0c0,0,0,0,0.1,0l0,0c0.5-0.3,0.8-0.6,0.8-0.6c0.1-0.1,0.2-0.1,0.4-0.1c0.2,0,0.4,0.1,0.5,0.3
			C22.4,8.6,22.3,9,22.1,9.2z"/>
		<path class="st16" d="M16.8,39.7c0.3,0.2,0.3,0.6,0.1,0.9c-0.1,0.2-0.3,0.3-0.5,0.3c-0.1,0-0.3,0-0.4-0.1l-3.3-2.4l0,0l0,0l0,0
			l0,0l0,0h0l0,0l0,0l0,0l0,0l0,0l0,0l0,0l0,0l0,0l0,0l0,0l0,0l0,0l0,0l0,0l0,0l0,0l0,0l0,0l0,0l0,0l0,0l0,0l0,0l0,0l0,0l0,0l0,0
			l0,0l0,0l0,0l0,0l0,0l0,0c0,0,0,0,0,0l0,0c0,0,0,0,0,0c0,0,0,0,0,0l0,0c0,0,0,0,0,0l0,0l0,0l0,0l0,0l0,0l0,0l0,0l0,0l0,0
			c-0.3-0.2-0.3-0.6-0.1-0.9c0.1-0.2,0.3-0.3,0.5-0.3c0.1,0,0.3,0,0.4,0.1L16.8,39.7z"/>
		<path class="st16" d="M37.8,42.6c0.2,0.3,0.2,0.7-0.1,0.9l-1.3,1c0,0,0,0,0,0l0,0c0,0,0,0,0,0h0l0,0l0,0l0,0l0,0l0,0l0,0l0,0l0,0
			c-0.9,0.7-2,1.5-2,1.5c-0.1,0.1-0.2,0.1-0.4,0.1c-0.2,0-0.4-0.1-0.5-0.3c-0.2-0.3-0.2-0.7,0.1-0.9l3.4-2.5
			c0.1-0.1,0.2-0.1,0.4-0.1C37.5,42.3,37.6,42.4,37.8,42.6z"/>
		<path class="st16" d="M23.6,44.6c0.3,0.2,0.3,0.6,0.1,0.9c-0.1,0.2-0.3,0.3-0.5,0.3c-0.1,0-0.3,0-0.4-0.1c0,0-0.2-0.2-0.5-0.4l0,0
			c0,0,0,0,0,0l0,0l0,0h0l0,0l0,0l0,0l0,0l0,0l0,0l0,0l0,0c0,0,0,0,0,0l0,0l0,0l0,0c0,0,0,0,0,0l0,0l0,0l0,0l0,0l0,0c0,0,0,0,0,0
			l0,0c0,0,0,0,0,0l0,0c0,0,0,0,0,0l0,0l0,0l0,0l0,0l0,0l0,0l0,0l0,0l0,0l0,0l-2.7-2c-0.3-0.2-0.3-0.6-0.1-0.9
			c0.1-0.2,0.3-0.3,0.5-0.3c0.1,0,0.3,0,0.4,0.1L23.6,44.6z"/>
		<path class="st16" d="M31.1,47.2c0.1,0.3-0.1,0.7-0.5,0.8c-0.1,0-0.2,0-0.2,0.1l0,0l0,0l0,0c0,0,0,0,0,0l0,0l0,0c0,0,0,0,0,0l0,0
			l0,0l0,0c0,0,0,0,0,0l0,0c0,0,0,0,0,0l0,0c0,0,0,0,0,0l0,0c-0.5,0.1-1,0.1-1.5,0.1c0,0,0,0,0,0l0,0l0,0l0,0l0,0l0,0l0,0l0,0l0,0
			l0,0l0,0l0,0h0l0,0l0,0l0,0l0,0l0,0l0,0l0,0l0,0l0,0l0,0l0,0l0,0l0,0l0,0l0,0l0,0l0,0l0,0l0,0l0,0l0,0l0,0l0,0l0,0l0,0l0,0l0,0
			l0,0l0,0l0,0l0,0l0,0l0,0l0,0l0,0l0,0l0,0l0,0l0,0l0,0l0,0l0,0l0,0l0,0l0,0l0,0l0,0l0,0l0,0l0,0l0,0l0,0l0,0l0,0l0,0l0,0l0,0l0,0
			l0,0l0,0l0,0l0,0l0,0l0,0l0,0h0l0,0l0,0l0,0l0,0l0,0l0,0l0,0l0,0l0,0l0,0l0,0l0,0l0,0l0,0l0,0l0,0l0,0l0,0l0,0l0,0l0,0l0,0l0,0
			l0,0l0,0l0,0l0,0l0,0l0,0l0,0l0,0l0,0l0,0l0,0l0,0l0,0l0,0l0,0l0,0l0,0l0,0l0,0l0,0l0,0l0,0l0,0l0,0l0,0l0,0l0,0l0,0l0,0l0,0l0,0
			l0,0l0,0l0,0c-0.6,0-1.1-0.1-1.7-0.2l0,0l0,0l0,0l0,0l0,0l0,0l0,0l0,0l0,0l0,0l0,0l0,0l0,0l0,0l0,0l0,0l0,0l0,0l0,0l0,0l0,0l0,0
			l0,0l0,0l0,0l0,0l0,0l0,0l0,0l0,0l0,0l0,0l0,0l0,0l0,0l0,0l0,0l0,0l0,0l0,0l0,0l0,0l0,0l0,0l0,0l0,0l0,0l0,0l0,0l0,0l0,0l0,0l0,0
			l0,0l0,0l0,0l0,0l0,0l0,0l0,0l0,0l0,0l0,0c-0.1,0-0.1,0-0.2-0.1c-0.3-0.1-0.5-0.5-0.4-0.8c0.1-0.3,0.3-0.5,0.6-0.5
			c0.1,0,0.1,0,0.2,0c0.6,0.2,1.3,0.3,2,0.3c0.5,0,1.1-0.1,1.6-0.2c0.1,0,0.1,0,0.1,0C30.7,46.7,31,46.9,31.1,47.2z"/>
		<path class="st16" d="M33.3,6.9c-0.1,0.2-0.3,0.3-0.5,0.3c-0.1,0-0.3,0-0.4-0.1L32.3,7c-0.8-0.6-1.9-1-3.1-1c-0.1,0-0.2,0-0.2,0
			c-0.1,0-0.1,0-0.2,0c-1.2,0-2.4,0.3-3.3,0.9c-0.1,0.1-0.2,0.1-0.3,0.1c-0.2,0-0.4-0.1-0.5-0.3c-0.2-0.3-0.1-0.7,0.2-0.9l0,0l0,0
			l0,0l0,0l0,0l0,0l0,0l0,0l0,0l0,0l0,0l0,0l0,0l0,0l0,0l0,0l0,0l0,0l0,0l0,0l0,0l0,0l0,0l0,0l0,0c0,0,0,0,0,0l0,0l0,0l0,0l0,0l0,0
			l0,0l0,0l0,0l0,0l0,0l0,0l0,0l0,0l0,0l0,0l0,0l0,0l0,0l0,0c0,0,0,0,0,0l0,0c0,0,0,0,0,0l0,0c0,0,0,0,0,0l0,0l0,0l0,0l0,0l0,0l0,0
			l0,0l0,0l0,0l0,0l0,0l0,0l0,0l0,0l0,0c0,0,0,0,0,0l0,0c0,0,0,0,0,0l0,0c0,0,0,0,0,0l0,0c0,0,0,0,0,0l0,0c0,0,0,0,0,0l0,0
			c0,0,0,0,0,0l0,0c0,0,0,0,0,0l0,0c0,0,0,0,0,0l0,0c0,0,0,0,0,0l0,0c0,0,0,0,0,0l0,0c0,0,0,0,0,0l0,0c0,0,0,0,0,0l0,0c0,0,0,0,0,0
			l0,0c0,0,0,0,0,0l0,0c0,0,0,0,0,0l0,0c0,0,0,0,0,0l0,0c0,0,0,0,0.1,0l0,0c0,0,0,0,0,0l0,0c0,0,0,0,0,0l0,0c0,0,0,0,0,0l0,0
			c0,0,0,0,0,0l0,0c0,0,0.1,0,0.1,0l0,0c0.7-0.3,1.5-0.6,2.3-0.7l0,0c0,0,0.1,0,0.1,0l0,0h0l0,0h0l0,0c0,0,0,0,0,0l0,0h0l0,0
			c0,0,0,0,0.1,0l0,0c0,0,0,0,0,0l0,0c0,0,0,0,0,0l0,0c0,0,0,0,0,0l0,0c0,0,0,0,0,0l0,0c0,0,0,0,0,0l0,0h0l0,0c0,0,0,0,0.1,0l0,0
			c0,0,0,0,0,0l0,0c0,0,0,0,0,0l0,0c0,0,0,0,0,0l0,0c0,0,0,0,0,0l0,0c0,0,0,0,0,0l0,0c0,0,0,0,0,0l0,0c0,0,0,0,0,0l0,0
			c0,0,0,0,0.1,0l0,0c0,0,0,0,0,0l0,0c0,0,0,0,0,0l0,0c0,0,0,0,0,0l0,0c0,0,0,0,0,0l0,0c0,0,0,0,0,0l0,0c0,0,0,0,0,0l0,0
			c0,0,0,0,0,0l0,0c0,0,0,0,0,0l0,0c0,0,0,0,0,0l0,0c0,0,0,0,0,0l0,0c0,0,0,0,0,0l0,0c0,0,0,0,0,0l0,0c0,0,0,0,0,0l0,0c0,0,0,0,0,0
			l0,0c0,0,0,0,0,0l0,0c0,0,0,0,0,0l0,0c0,0,0,0,0,0l0,0c0,0,0,0,0,0l0,0c0,0,0,0,0,0l0,0c0,0,0,0,0,0l0,0c0,0,0,0,0,0l0,0
			c0,0,0,0,0,0l0,0l0,0l0,0l0,0l0,0l0,0l0,0l0,0l0,0l0,0l0,0c0,0,0,0,0,0l0,0h0l0,0l0,0l0,0l0,0l0,0l0,0l0,0l0,0l0,0l0,0l0,0l0,0
			l0,0l0,0l0,0l0,0l0,0l0,0l0,0l0,0c0,0,0,0,0,0l0,0h0l0,0c0,0,0,0,0,0l0,0l0,0l0,0l0,0l0,0l0,0l0,0l0,0l0,0l0,0l0,0l0,0l0,0l0,0
			l0,0l0,0l0,0c0,0,0,0,0,0l0,0c0,0,0,0,0,0l0,0h0l0,0c0,0,0,0,0,0l0,0c0,0,0,0,0,0l0,0c0,0,0,0,0,0l0,0l0,0l0,0l0,0l0,0l0,0l0,0
			l0,0l0,0l0,0l0,0c0,0,0,0,0,0l0,0c0,0,0,0,0,0l0,0c0,0,0,0,0,0l0,0h0l0,0c0,0,0,0,0,0l0,0c0,0,0,0,0,0l0,0l0,0l0,0l0,0l0,0l0,0
			l0,0c0,0,0,0,0,0l0,0l0,0l0,0c0,0,0,0,0,0l0,0c0,0,0,0,0,0l0,0c0,0,0,0,0,0l0,0h0c0.1,0,0.2,0,0.3,0c0.1,0,0.1,0,0.2,0
			c0,0,0,0,0,0l0,0c0,0,0,0,0,0l0,0c0,0,0,0,0,0l0,0c0,0,0,0,0,0l0,0c0,0,0,0,0,0l0,0c0,0,0,0,0,0l0,0c0,0,0,0,0,0l0,0c0,0,0,0,0,0
			l0,0c0,0,0,0,0,0l0,0c0,0,0,0,0,0l0,0c0,0,0,0,0,0l0,0c0,0,0,0,0.1,0l0,0h0l0,0c0,0,0,0,0,0l0,0h0l0,0c0,0,0,0,0.1,0l0,0h0l0,0h0
			l0,0c1.2,0.1,2.4,0.5,3.3,1.1l0,0c0,0,0,0,0,0l0,0c0,0,0,0,0,0l0,0c0,0,0,0,0,0l0,0c0,0,0,0,0,0l0,0c0,0,0,0,0,0l0,0l0,0l0,0l0,0
			l0,0l0,0l0,0l0,0l0,0l0,0l0,0l0,0l0,0c0,0,0,0,0,0l0,0l0,0l0,0l0,0l0,0l0,0l0,0l0,0l0,0l0,0l0,0l0,0l0,0l0,0c0,0,0,0,0,0l0.1,0.1
			C33.5,6.3,33.5,6.7,33.3,6.9z"/>
		<path class="st16" d="M5.3,30c-0.3,0-0.6-0.3-0.6-0.6v-4.2c0-0.3,0.3-0.6,0.6-0.6s0.6,0.3,0.6,0.6v4.2C5.9,29.7,5.6,30,5.3,30z"/>
		<path class="st16" d="M10,34.7c0.3,0.2,0.3,0.6,0.1,0.9c-0.1,0.2-0.3,0.3-0.5,0.3c-0.1,0-0.3,0-0.4-0.1l-2.9-2.1l0,0l0,0l0,0l0,0
			l0,0l0,0l0,0l0,0c-0.2-0.1-0.3-0.2-0.5-0.4c-0.3-0.2-0.3-0.6,0-0.9c0.1-0.1,0.3-0.2,0.5-0.2c0.2,0,0.3,0.1,0.4,0.2
			c0.1,0.1,0.2,0.2,0.4,0.3L10,34.7z"/>
	</g>
	<linearGradient id="SVGID_17_" gradientUnits="userSpaceOnUse" x1="82.4829" y1="85.4483" x2="35.7796" y2="128.1356">
		<stop  offset="0" style="stop-color:#B33C8A"/>
		<stop  offset="1" style="stop-color:#EE4F86"/>
	</linearGradient>
	<path class="st17" d="M37.2,113.9l17.9,13.1c1.3,0.9,2.9,1.4,4.7,1.4s3.4-0.5,4.7-1.4l17.9-13.2c1.2-0.8,1.9-2,2-3.2
		c0-0.1,0-0.1,0-0.2l0-8.5c0,0,0,0,0,0c0-0.1,0-0.1,0-0.2v-0.1c0,0,0,0,0-0.1c0-0.1,0-0.1,0-0.2c-0.2-1.2-0.9-2.3-2-3.2L64.5,85.4
		c-2.6-1.9-6.7-1.9-9.3,0L37.2,98.3c-1.2,0.8-1.9,2-2,3.2l0,0.2c0,0.2,0,0.4,0,0.6c0,0,0,0,0,0v7.7
		C35.1,111.5,35.8,112.9,37.2,113.9z"/>
	<path class="st18" d="M83.2,105v5.5c0,0,0,0.1,0,0.1c-0.1,0.9-0.6,1.8-1.5,2.4l-17.9,13.2c-1,0.8-2.5,1.2-4,1.2l0,0
		c-1.5,0-2.9-0.4-4-1.2l-17.9-13.2c-1-0.8-1.6-1.8-1.5-2.8V105c0.2,0.2,0.5,0.4,0.7,0.6l0,0l17.9,13.2l0,0l0,0
		c0.3,0.2,0.7,0.4,1,0.6c0,0,0.1,0,0.1,0c1.1,0.5,2.3,0.8,3.6,0.8c1.8,0,3.4-0.5,4.7-1.4l9.4-6.9l8.5-6.2
		C82.7,105.4,83,105.2,83.2,105C83.2,105,83.2,105,83.2,105z"/>
	<path class="st18" d="M36.5,101.7c0.1-0.9,0.7-1.7,1.5-2.3l17.9-12.9c1.1-0.8,2.5-1.2,3.9-1.2s2.8,0.4,3.9,1.2l17.9,12.9
		c0.9,0.6,1.4,1.5,1.5,2.3c0,0.1,0,0.2,0,0.3c0,0.2,0,0.4-0.1,0.6c0,0,0,0.1,0,0.1c-0.1,0.2-0.1,0.4-0.2,0.6c0,0-0.1,0.1-0.1,0.1
		c-0.1,0.2-0.2,0.4-0.4,0.6c0,0,0,0-0.1,0.1c-0.2,0.2-0.4,0.4-0.6,0.6l-9,6.6l-9,6.6c-0.3,0.2-0.6,0.4-0.9,0.5
		c-0.2,0.1-0.5,0.2-0.7,0.3c-0.1,0-0.2,0.1-0.2,0.1c-0.7,0.2-1.4,0.3-2.1,0.3l0,0c-1.1,0-2.2-0.2-3.1-0.7c-0.3-0.2-0.6-0.3-0.9-0.5
		l-18-13.1l0,0c-0.6-0.5-1.1-1-1.3-1.6c0,0,0-0.1,0-0.1c0,0,0,0,0,0c-0.1-0.2-0.1-0.4-0.1-0.6c0-0.2,0-0.3,0-0.4l-0.3,0
		c0,0,0,0-0.1,0L36.5,101.7z"/>
	<g>
		<linearGradient id="SVGID_18_" gradientUnits="userSpaceOnUse" x1="82.4829" y1="61.4483" x2="35.7796" y2="104.1356">
			<stop  offset="0" style="stop-color:#B33C8A"/>
			<stop  offset="1" style="stop-color:#EE4F86"/>
		</linearGradient>
		<path class="st19" d="M37.2,89.9l17.9,13.1c1.3,0.9,2.9,1.4,4.7,1.4s3.4-0.5,4.7-1.4l17.9-13.2c1.2-0.8,1.9-2,2-3.2
			c0-0.1,0-0.1,0-0.2l0-8.5c0,0,0,0,0,0c0-0.1,0-0.1,0-0.2v-0.1c0,0,0,0,0-0.1c0-0.1,0-0.1,0-0.2c-0.2-1.2-0.9-2.3-2-3.2L64.5,61.4
			c-2.6-1.9-6.7-1.9-9.3,0L37.2,74.3c-1.2,0.8-1.9,2-2,3.2l0,0.2c0,0.2,0,0.4,0,0.6c0,0,0,0,0,0V86C35.1,87.5,35.8,88.9,37.2,89.9z"
			/>
		<path class="st18" d="M83.2,81v5.5c0,0,0,0.1,0,0.1c-0.1,0.9-0.6,1.8-1.5,2.4l-17.9,13.2c-1,0.8-2.5,1.2-4,1.2l0,0
			c-1.5,0-2.9-0.4-4-1.2L37.9,88.9c-1-0.8-1.6-1.8-1.5-2.8V81c0.2,0.2,0.5,0.4,0.7,0.6l0,0l17.9,13.2l0,0l0,0c0.3,0.2,0.7,0.4,1,0.6
			c0,0,0.1,0,0.1,0c1.1,0.5,2.3,0.8,3.6,0.8c1.8,0,3.4-0.5,4.7-1.4l9.4-6.9l8.5-6.2C82.7,81.4,83,81.2,83.2,81
			C83.2,81,83.2,81,83.2,81z"/>
		<path class="st18" d="M36.5,77.7c0.1-0.9,0.7-1.7,1.5-2.3l17.9-12.9c1.1-0.8,2.5-1.2,3.9-1.2s2.8,0.4,3.9,1.2l17.9,12.9
			c0.9,0.6,1.4,1.5,1.5,2.3c0,0.1,0,0.2,0,0.3c0,0.2,0,0.4-0.1,0.6c0,0,0,0.1,0,0.1c-0.1,0.2-0.1,0.4-0.2,0.6c0,0-0.1,0.1-0.1,0.1
			c-0.1,0.2-0.2,0.4-0.4,0.6c0,0,0,0-0.1,0.1c-0.2,0.2-0.4,0.4-0.6,0.6l-9,6.6l-9,6.6c-0.3,0.2-0.6,0.4-0.9,0.5
			c-0.2,0.1-0.5,0.2-0.7,0.3c-0.1,0-0.2,0.1-0.2,0.1c-0.7,0.2-1.4,0.3-2.1,0.3l0,0c-1.1,0-2.2-0.2-3.1-0.7c-0.3-0.2-0.6-0.3-0.9-0.5
			l-18-13.1l0,0c-0.6-0.5-1.1-1-1.3-1.6c0,0,0-0.1,0-0.1c0,0,0,0,0,0c-0.1-0.2-0.1-0.4-0.1-0.6c0-0.2,0-0.3,0-0.4l-0.3,0
			c0,0,0,0-0.1,0L36.5,77.7z"/>
	</g>
</g>
<g id="Layer_2_1_">
</g>
</svg>
