<?xml version="1.0" encoding="utf-8"?>
<!-- Generator: Adobe Illustrator 21.1.0, SVG Export Plug-In . SVG Version: 6.00 Build 0)  -->
<svg width="335px" height="607px" version="1.1" id="Layer_1" xmlns="http://www.w3.org/2000/svg" xmlns:xlink="http://www.w3.org/1999/xlink" x="0px" y="0px"
	 viewBox="0 0 335 607" style="enable-background:new 0 0 335 607;" xml:space="preserve">
<style type="text/css">
	
		.st0{opacity:0.4;fill:none;stroke:#FFFFFF;stroke-width:4.252;stroke-linecap:round;stroke-miterlimit:10;enable-background:new    ;}
</style>
<g>
	<polyline class="st0" points="243.1,230.2 240.8,226.3 244.6,223.8 	"/>
	<polyline class="st0" points="232,163.1 227.5,162.4 228,157.8 	"/>
	<polyline class="st0" points="171.3,129.1 167.9,132.2 164.7,129 	"/>
	<polyline class="st0" points="107.8,155.3 108.2,159.9 103.6,160.4 	"/>
	<polyline class="st0" points="89.2,224.7 93.1,227.2 90.8,231.1 	"/>
	<polyline class="st0" points="225.9,449.4 225.7,444.8 230.2,444.4 	"/>
	<polyline class="st0" points="245.7,380 241.8,377.6 244.1,373.6 	"/>
	<polyline class="st0" points="204.4,325 200.1,326.5 198.5,322.2 	"/>
	<polyline class="st0" points="136.6,322.4 135,326.7 130.6,325.3 	"/>
	<polyline class="st0" points="91.2,374.6 93.6,378.5 89.8,381 	"/>
	<polyline class="st0" points="103.8,442.3 108.4,442.9 108,447.5 	"/>
	<polyline class="st0" points="163.4,474.6 166.7,471.5 170,474.7 	"/>
</g>
</svg>
