<?xml version="1.0" encoding="utf-8"?>
<!-- Generator: Adobe Illustrator 22.1.0, SVG Export Plug-In . SVG Version: 6.00 Build 0)  -->
<svg version="1.1" id="Layer_1" xmlns="http://www.w3.org/2000/svg" xmlns:xlink="http://www.w3.org/1999/xlink" x="0px" y="0px"
	 viewBox="0 0 156 134" style="enable-background:new 0 0 156 134;" xml:space="preserve">
<style type="text/css">
	.st0{fill:#653893;}
	.st1{fill:#FFFFFF;}
</style>
<g id="old-slice">
	<g>
		<path class="st0" d="M54.5,68l17.9,13.2c1.3,0.9,2.9,1.4,4.7,1.4c1.8,0,3.4-0.5,4.7-1.4L99.7,68c1.2-0.8,1.9-2,2-3.2
			c0-0.1,0-0.1,0-0.2v-8.5l0,0c0-0.1,0-0.1,0-0.2v-0.1c0,0,0,0,0-0.1s0-0.1,0-0.2c-0.2-1.2-0.9-2.4-2-3.2l-18-12.8
			c-2.6-1.9-6.7-1.9-9.3,0L54.5,52.4c-1.2,0.8-1.9,2-2,3.2v0.1c0,0.2,0,0.4,0,0.6l0,0V64C52.3,65.6,53.1,67,54.5,68z"/>
		<path class="st1" d="M100.5,59v5.5v0.1c-0.1,0.9-0.6,1.8-1.5,2.4L81.1,80.1c-1,0.8-2.5,1.2-4,1.2l0,0c-1.5,0-2.9-0.4-4-1.2
			L55.2,67c-1-0.8-1.6-1.8-1.5-2.9V59c0.2,0.2,0.5,0.4,0.7,0.6l0,0l17.9,13.1l0,0l0,0c0.3,0.2,0.7,0.4,1,0.6h0.1
			c1.1,0.5,2.3,0.8,3.6,0.8c1.8,0,3.4-0.5,4.7-1.4l9.4-6.9l8.5-6.2C100,59.5,100.2,59.3,100.5,59C100.4,59.1,100.5,59.1,100.5,59z"
			/>
		<path class="st1" d="M53.7,55.7c0.1-0.9,0.7-1.7,1.5-2.3l17.9-12.9c1.1-0.8,2.5-1.2,3.9-1.2s2.8,0.4,3.9,1.2l18,12.9
			c0.9,0.6,1.4,1.5,1.5,2.3c0,0.1,0,0.2,0,0.3c0,0.2,0,0.4-0.1,0.6v0.1c-0.1,0.2-0.1,0.4-0.2,0.6l-0.1,0.1c-0.1,0.2-0.2,0.4-0.4,0.6
			c0,0,0,0-0.1,0.1c-0.2,0.2-0.4,0.4-0.6,0.5l-9,6.6l-9,6.6c-0.3,0.2-0.6,0.4-0.9,0.5c-0.2,0.1-0.5,0.2-0.7,0.3
			c-0.1,0-0.2,0.1-0.2,0.1C78.4,72.9,77.7,73,77,73l0,0c-1.1,0-2.2-0.2-3.1-0.7c-0.3-0.2-0.6-0.3-0.9-0.5L55,58.7l0,0
			c-0.6-0.5-1.1-1-1.3-1.6V57l0,0c-0.1-0.2-0.1-0.4-0.1-0.6c0-0.1,0-0.3,0-0.5h-0.3c0,0,0,0-0.1,0L53.7,55.7z"/>
	</g>
</g>
</svg>
