<?xml version="1.0" encoding="utf-8"?>
<!-- Generator: Adobe Illustrator 22.1.0, SVG Export Plug-In . SVG Version: 6.00 Build 0)  -->
<svg version="1.1" id="Layer_1" xmlns="http://www.w3.org/2000/svg" xmlns:xlink="http://www.w3.org/1999/xlink" x="0px" y="0px"
	 viewBox="0 0 138.6 120.2" style="enable-background:new 0 0 138.6 120.2;" xml:space="preserve">
<style type="text/css">
	.st0{fill:url(#SVGID_1_);}
	.st1{fill:#FFFFFF;}
	.st2{fill:url(#SVGID_2_);}
</style>
<g id="Layer_4">
	<g>
		<linearGradient id="SVGID_1_" gradientUnits="userSpaceOnUse" x1="84.9315" y1="39.965" x2="151.5024" y2="39.965">
			<stop  offset="0" style="stop-color:#B33C8A"/>
			<stop  offset="1" style="stop-color:#EE4F86"/>
		</linearGradient>
		<path class="st0" d="M94.1,25.7c-0.7,1.2-2.4,5-1.4,9.2c1,4.4,4.6,6.8,4.6,6.8l8.4,8.3l9.4,9.4c0.1,0.1,0.3,0.2,0.4,0.2
			s0.3-0.1,0.4-0.2l19.3-19.3c2.2-2.2,3.4-5.1,3.4-8.2c0-3.1-1.2-6-3.4-8.2c-4.5-4.5-11.9-4.5-16.4,0l-3.4,3.4l-3.4-3.4
			c-4.5-4.5-11.9-4.5-16.4,0C95,24.3,94.5,25,94.1,25.7"/>
		<path class="st1" d="M96.5,39.4c-4.3-4-2.6-10.3-2.2-11.4c0.5-1.1,1.2-2.4,2.2-3.3c4-4,10.6-4,14.6,0l3.8,3.8
			c0.2,0.2,0.7,0.2,0.9,0l3.8-3.8c4-4,10.6-4,14.6,0c1.9,2,3,4.5,3,7.3c0,2.8-1.1,5.3-3,7.3l-18.9,18.9l-9.8-9.8L96.5,39.4z"/>
		<linearGradient id="SVGID_2_" gradientUnits="userSpaceOnUse" x1="94.0713" y1="25.6787" x2="94.0713" y2="25.6787">
			<stop  offset="0" style="stop-color:#B33C8A"/>
			<stop  offset="1" style="stop-color:#EE4F86"/>
		</linearGradient>
		<path class="st2" d="M94.1,25.7"/>
	</g>
</g>
<g id="Layer_2_1_">
</g>
</svg>
