<?xml version="1.0" encoding="utf-8"?>
<!-- Generator: Adobe Illustrator 22.1.0, SVG Export Plug-In . SVG Version: 6.00 Build 0)  -->
<svg version="1.1" id="Layer_1" xmlns="http://www.w3.org/2000/svg" xmlns:xlink="http://www.w3.org/1999/xlink" x="0px" y="0px"
	 width="142px" height="142px" viewBox="0 0 142 142" style="enable-background:new 0 0 142 142;" xml:space="preserve">
<style type="text/css">
	.st0{fill:url(#SVGID_1_);}
</style>
<linearGradient id="SVGID_1_" gradientUnits="userSpaceOnUse" x1="123.0015" y1="1069.9785" x2="16.7236" y2="963.4796" gradientTransform="matrix(1 0 0 1 0 -943.06)">
	<stop  offset="0" style="stop-color:#B33C8A"/>
	<stop  offset="1" style="stop-color:#EE4F86"/>
</linearGradient>
<path class="st0" d="M41.7845,41.7244c-14.22,14.23-16.18,36.43-4.7,52.88c-2,2.89-1.72,6.88,0.85,9.45c0,0,0,0,0,0.01
	c1.45,1.45,3.35,2.17,5.24,2.17c1.48,0,2.95-0.44,4.21-1.32c7.16,5,15.41,7.45,23.62,7.45c10.65,0,21.23-4.12,29.25-12.15
	c7.81-7.81,12.11-18.2,12.11-29.24s-4.3-21.43-12.11-29.24C84.1445,25.6044,57.9045,25.6044,41.7845,41.7244z M38.8345,94.4744
	L38.8345,94.4744c2.24-2.24,5.8-2.38,8.21-0.43l-8.64,8.64C36.4545,100.2744,36.5945,96.7144,38.8345,94.4744z M39.3145,103.5844
	l8.63-8.64c1.96,2.41,1.81,5.97-0.43,8.21S41.7245,105.5344,39.3145,103.5844z M99.3645,99.3044c-13.69,13.7-35.04,15.65-50.95,4.75
	l0,0c2.89-2.89,2.89-7.59,0-10.49l0,0c-2.89-2.89-7.59-2.89-10.49,0l0,0c0,0,0,0,0,0.01c-10.9-15.91-8.95-37.25,4.75-50.95
	c15.63-15.62,41.05-15.62,56.68,0c7.57,7.57,11.74,17.63,11.74,28.34C111.1045,81.6744,106.9345,91.7344,99.3645,99.3044z"/>
<g id="Layer_2_1_">
</g>
</svg>
