<?xml version="1.0" encoding="utf-8"?>
<!-- Generator: Adobe Illustrator 22.1.0, SVG Export Plug-In . SVG Version: 6.00 Build 0)  -->
<svg version="1.1" id="Layer_1" xmlns="http://www.w3.org/2000/svg" xmlns:xlink="http://www.w3.org/1999/xlink" x="0px" y="0px"
	 viewBox="0 0 137.5 129.5" style="enable-background:new 0 0 137.5 129.5;" xml:space="preserve">
<style type="text/css">
	.st0{fill:url(#SVGID_1_);}
	.st1{fill:#FFFFFF;}
</style>
<g id="Layer_4">
	<g>
		
			<linearGradient id="SVGID_1_" gradientUnits="userSpaceOnUse" x1="82.459" y1="122.2176" x2="35.7557" y2="79.5303" gradientTransform="matrix(1 0 0 -1 0 129.8898)">
			<stop  offset="0" style="stop-color:#B33C8A"/>
			<stop  offset="1" style="stop-color:#EE4F86"/>
		</linearGradient>
		<path class="st0" d="M37.2,36.2l17.9,13.1c1.3,0.9,2.9,1.4,4.7,1.4s3.4-0.5,4.7-1.4l17.9-13.1c1.2-0.9,1.9-2,2-3.2
			c0-0.1,0-0.1,0-0.2v-8.5l0,0c0-0.1,0-0.1,0-0.2V24c0,0,0,0,0-0.1s0-0.1,0-0.2c-0.2-1.2-0.9-2.4-2-3.2L64.5,7.6
			c-2.6-1.9-6.7-1.9-9.3,0l-18,13c-1.2,0.8-1.9,2-2,3.2v0.1c0,0.2,0,0.4,0,0.6l0,0v7.7C35.1,33.7,35.8,35.2,37.2,36.2z"/>
		<path class="st1" d="M83.2,27.2v5.5v0.1c-0.1,0.9-0.6,1.8-1.5,2.4L63.8,48.3c-1,0.8-2.5,1.2-4,1.2l0,0c-1.5,0-2.9-0.4-4-1.2
			L37.9,35.2c-1-0.8-1.6-1.8-1.5-2.9v-5.1c0.2,0.2,0.5,0.4,0.7,0.6l0,0l18,13.2l0,0l0,0c0.3,0.2,0.7,0.4,1,0.6h0.1
			c1.1,0.5,2.3,0.8,3.6,0.8c1.8,0,3.4-0.5,4.7-1.4l9.4-6.9l8.5-6.2C82.7,27.7,83,27.5,83.2,27.2L83.2,27.2z"/>
		<path class="st1" d="M36.5,23.9c0.1-0.9,0.7-1.7,1.5-2.3L55.9,8.7c1.1-0.8,2.5-1.2,3.9-1.2s2.8,0.4,3.9,1.2l17.9,12.9
			c0.9,0.6,1.4,1.5,1.5,2.3c0,0.1,0,0.2,0,0.3c0,0.2,0,0.4-0.1,0.6v0.1c-0.1,0.2-0.1,0.4-0.2,0.6l-0.1,0.1c-0.1,0.2-0.2,0.4-0.4,0.6
			c0,0,0,0-0.1,0.1c-0.2,0.2-0.4,0.4-0.6,0.5l-9,6.6l-9,6.6c-0.3,0.2-0.6,0.4-0.9,0.5c-0.2,0.1-0.5,0.2-0.7,0.3
			c-0.1,0-0.2,0.1-0.2,0.1c-0.7,0.2-1.4,0.3-2.1,0.3l0,0c-1.1,0-2.2-0.2-3.1-0.7c-0.3-0.2-0.6-0.3-0.9-0.5l-18-13.1l0,0
			c-0.6-0.5-1.1-1-1.3-1.6v-0.1l0,0c-0.1-0.2-0.1-0.4-0.1-0.6c0-0.1,0-0.3,0-0.5H36c0,0,0,0-0.1,0L36.5,23.9z"/>
	</g>
</g>
<g id="Layer_2_1_">
</g>
</svg>
