<?xml version="1.0" encoding="utf-8"?>
<!-- Generator: Adobe Illustrator 23.0.2, SVG Export Plug-In . SVG Version: 6.00 Build 0)  -->
<svg version="1.1" xmlns="http://www.w3.org/2000/svg" xmlns:xlink="http://www.w3.org/1999/xlink" x="0px" y="0px"
	 viewBox="0 0 131.29 123.29" style="enable-background:new 0 0 131.29 123.29;" xml:space="preserve">
<style type="text/css">
	.st0{fill:none;stroke:#FFFF00;stroke-width:0.5;stroke-miterlimit:10;}
	.st1{fill:none;stroke:url(#SVGID_1_);stroke-width:1.2759;stroke-linecap:round;stroke-linejoin:round;stroke-miterlimit:10;}
	.st2{fill:none;stroke:url(#SVGID_2_);stroke-width:1.2759;stroke-linecap:round;stroke-linejoin:round;stroke-miterlimit:10;}
	.st3{fill:none;stroke:url(#SVGID_3_);stroke-width:1.2759;stroke-linecap:round;stroke-linejoin:round;stroke-miterlimit:10;}
	.st4{fill:none;stroke:url(#SVGID_4_);stroke-width:1.2759;stroke-linecap:round;stroke-linejoin:round;stroke-miterlimit:10;}
	.st5{fill:none;stroke:url(#SVGID_5_);stroke-width:1.2759;stroke-linecap:round;stroke-linejoin:round;stroke-miterlimit:10;}
	.st6{fill:none;stroke:url(#SVGID_6_);stroke-width:1.2759;stroke-linecap:round;stroke-linejoin:round;stroke-miterlimit:10;}
	.st7{fill:none;stroke:url(#SVGID_7_);stroke-width:1.2759;stroke-linecap:round;stroke-linejoin:round;stroke-miterlimit:10;}
	.st8{fill:none;stroke:url(#SVGID_8_);stroke-width:1.2759;stroke-linecap:round;stroke-linejoin:round;stroke-miterlimit:10;}
	.st9{fill:none;stroke:url(#SVGID_9_);stroke-width:1.2759;stroke-linecap:round;stroke-linejoin:round;stroke-miterlimit:10;}
	.st10{fill:none;stroke:url(#SVGID_10_);stroke-width:1.2759;stroke-linecap:round;stroke-linejoin:round;stroke-miterlimit:10;}
	.st11{fill:none;stroke:url(#SVGID_11_);stroke-width:1.2759;stroke-linecap:round;stroke-linejoin:round;stroke-miterlimit:10;}
	.st12{fill:none;stroke:url(#SVGID_12_);stroke-width:1.2759;stroke-linecap:round;stroke-linejoin:round;stroke-miterlimit:10;}
	.st13{fill:none;stroke:url(#SVGID_13_);stroke-width:1.2759;stroke-linecap:round;stroke-linejoin:round;stroke-miterlimit:10;}
	.st14{fill:none;stroke:url(#SVGID_14_);stroke-width:1.2759;stroke-linecap:round;stroke-linejoin:round;stroke-miterlimit:10;}
	.st15{fill:none;stroke:url(#SVGID_15_);stroke-width:1.2759;stroke-linecap:round;stroke-linejoin:round;stroke-miterlimit:10;}
	.st16{fill:none;stroke:url(#SVGID_16_);stroke-width:1.2759;stroke-linecap:round;stroke-linejoin:round;stroke-miterlimit:10;}
	.st17{fill:none;stroke:url(#SVGID_17_);stroke-width:1.2759;stroke-linecap:round;stroke-linejoin:round;stroke-miterlimit:10;}
	.st18{fill:none;stroke:url(#SVGID_18_);stroke-width:1.2759;stroke-linecap:round;stroke-linejoin:round;stroke-miterlimit:10;}
	.st19{fill:#F1F1F1;}
	.st20{fill:#DBDBDC;}
	.st21{fill:#837FA5;}
	.st22{fill:#633D81;}
	.st23{fill:#D0A1AC;}
	.st24{fill:#DB5480;}
	.st25{fill:#9C8EB9;}
	.st26{fill:#BB8F9A;}
	.st27{fill:#EE4F86;}
	.st28{fill:none;stroke:#F1F1F1;stroke-width:2.9771;stroke-linecap:round;stroke-linejoin:round;stroke-miterlimit:10;}
	.st29{fill:url(#SVGID_19_);}
	.st30{fill:url(#SVGID_20_);}
	.st31{fill:url(#SVGID_21_);}
	.st32{fill:url(#SVGID_22_);}
	.st33{fill:url(#SVGID_23_);}
	.st34{fill:url(#SVGID_24_);}
	.st35{fill:url(#SVGID_25_);}
	.st36{fill:url(#SVGID_26_);}
	.st37{fill:url(#SVGID_27_);}
	.st38{fill:url(#SVGID_28_);}
	.st39{fill:url(#SVGID_29_);}
	.st40{fill:url(#SVGID_30_);}
	.st41{fill:url(#SVGID_31_);}
	.st42{fill:url(#SVGID_32_);}
	.st43{fill:url(#SVGID_33_);}
	.st44{fill:url(#SVGID_34_);}
	.st45{fill:none;stroke:url(#SVGID_35_);stroke-width:1.2759;stroke-linecap:round;stroke-linejoin:round;stroke-miterlimit:10;}
	.st46{fill:none;stroke:url(#SVGID_36_);stroke-width:1.2759;stroke-linecap:round;stroke-linejoin:round;stroke-miterlimit:10;}
	.st47{fill:none;stroke:url(#SVGID_37_);stroke-width:1.2759;stroke-linecap:round;stroke-linejoin:round;stroke-miterlimit:10;}
	.st48{fill:none;stroke:url(#SVGID_38_);stroke-width:1.2759;stroke-linecap:round;stroke-linejoin:round;stroke-miterlimit:10;}
	.st49{fill:none;stroke:url(#SVGID_39_);stroke-width:1.2759;stroke-linecap:round;stroke-linejoin:round;stroke-miterlimit:10;}
	.st50{fill:none;stroke:url(#SVGID_40_);stroke-width:1.2759;stroke-linecap:round;stroke-linejoin:round;stroke-miterlimit:10;}
	.st51{fill:none;stroke:url(#SVGID_41_);stroke-width:1.2759;stroke-linecap:round;stroke-linejoin:round;stroke-miterlimit:10;}
	.st52{fill:none;stroke:url(#SVGID_42_);stroke-width:1.2759;stroke-linecap:round;stroke-linejoin:round;stroke-miterlimit:10;}
	.st53{fill:none;stroke:url(#SVGID_43_);stroke-width:1.2759;stroke-linecap:round;stroke-linejoin:round;stroke-miterlimit:10;}
	.st54{fill:none;stroke:url(#SVGID_44_);stroke-width:1.2759;stroke-linecap:round;stroke-linejoin:round;stroke-miterlimit:10;}
	.st55{fill:none;stroke:url(#SVGID_45_);stroke-width:1.2759;stroke-linecap:round;stroke-linejoin:round;stroke-miterlimit:10;}
	.st56{fill:none;stroke:url(#SVGID_46_);stroke-width:1.2759;stroke-linecap:round;stroke-linejoin:round;stroke-miterlimit:10;}
	.st57{fill:none;stroke:url(#SVGID_47_);stroke-width:1.2759;stroke-linecap:round;stroke-linejoin:round;stroke-miterlimit:10;}
	.st58{clip-path:url(#SVGID_49_);}
	.st59{fill:none;stroke:url(#SVGID_50_);stroke-width:1.2759;stroke-linecap:round;stroke-linejoin:round;stroke-miterlimit:10;}
	.st60{fill:none;stroke:url(#SVGID_51_);stroke-width:1.2759;stroke-linecap:round;stroke-linejoin:round;stroke-miterlimit:10;}
	.st61{fill:none;stroke:url(#SVGID_52_);stroke-width:1.2759;stroke-linecap:round;stroke-linejoin:round;stroke-miterlimit:10;}
	.st62{fill:none;stroke:url(#SVGID_53_);stroke-width:1.2759;stroke-linecap:round;stroke-linejoin:round;stroke-miterlimit:10;}
	.st63{fill:none;stroke:url(#SVGID_54_);stroke-width:1.2759;stroke-linecap:round;stroke-linejoin:round;stroke-miterlimit:10;}
	.st64{fill:none;stroke:url(#SVGID_55_);stroke-width:1.2759;stroke-linecap:round;stroke-linejoin:round;stroke-miterlimit:10;}
	.st65{fill:none;stroke:url(#SVGID_56_);stroke-width:1.2759;stroke-linecap:round;stroke-linejoin:round;stroke-miterlimit:10;}
	.st66{fill:none;stroke:url(#SVGID_57_);stroke-width:1.2759;stroke-linecap:round;stroke-linejoin:round;stroke-miterlimit:10;}
	.st67{fill:none;stroke:url(#SVGID_58_);stroke-width:1.2759;stroke-linecap:round;stroke-linejoin:round;stroke-miterlimit:10;}
	.st68{fill:none;stroke:url(#SVGID_59_);stroke-width:1.2759;stroke-linecap:round;stroke-linejoin:round;stroke-miterlimit:10;}
	.st69{fill:none;stroke:url(#SVGID_60_);stroke-width:1.2759;stroke-linecap:round;stroke-linejoin:round;stroke-miterlimit:10;}
	.st70{fill:none;stroke:url(#SVGID_61_);stroke-width:1.2759;stroke-linecap:round;stroke-linejoin:round;stroke-miterlimit:10;}
	.st71{fill:none;stroke:url(#SVGID_62_);stroke-width:1.2759;stroke-linecap:round;stroke-linejoin:round;stroke-miterlimit:10;}
	.st72{clip-path:url(#SVGID_64_);}
	.st73{fill:url(#SVGID_65_);}
	.st74{fill:url(#SVGID_66_);}
	.st75{fill:url(#SVGID_67_);}
</style>
<g id="Layer_4">
	<linearGradient id="SVGID_1_" gradientUnits="userSpaceOnUse" x1="118.2022" y1="116.3751" x2="0.872" y2="9.1338">
		<stop  offset="0" style="stop-color:#B33C8A"/>
		<stop  offset="1" style="stop-color:#EE4F86"/>
	</linearGradient>
	<path style="fill:url(#SVGID_1_);" d="M80.95,81.39c0.02-0.06,0.03-0.12,0.03-0.19l0-8.66c0-0.03-0.01-0.05-0.02-0.07
		c0-0.1,0-0.21-0.02-0.31c-0.15-1.22-0.88-2.35-2.04-3.19L60.96,56.05c-2.6-1.88-6.68-1.88-9.28,0l-2.38,1.72l0-7.06
		c0-0.02-0.01-0.03-0.01-0.05c0-0.13,0-0.25-0.02-0.38c-0.15-1.22-0.88-2.35-2.05-3.19L29.29,34.16c-2.6-1.88-6.68-1.87-9.28,0
		L2.07,47.08c-1.17,0.84-1.89,1.97-2.05,3.19c0,0-0.01,0.15-0.01,0.16c-0.02,0.2-0.01,0.41,0,0.61c0,0,0,0,0,0.01l0,7.72
		c-0.13,1.48,0.6,2.92,1.99,3.94l17.93,13.15c1.27,0.93,2.94,1.44,4.71,1.44c0,0,0,0,0.01,0c1.77,0,3.44-0.51,4.71-1.44l2.33-1.71
		l0,6.51c-0.12,1.48,0.6,2.92,1.99,3.94l5.87,4.3l-5.8,4.18c-1.17,0.84-1.89,1.97-2.05,3.19l-0.01,0.15c-0.02,0.2,0,8.35,0,8.35
		c-0.12,1.48,0.6,2.92,1.99,3.94l17.93,13.15c1.27,0.93,2.94,1.44,4.71,1.44c0,0,0,0,0.01,0c1.77,0,3.45-0.51,4.71-1.44l17.93-13.15
		c1.16-0.85,1.86-1.98,1.98-3.2c0.02-0.06,0.03-0.12,0.03-0.19v-8.97c0-0.12-0.04-0.22-0.09-0.31c-0.21-1.13-0.9-2.17-1.99-2.96
		l-5.8-4.18l5.87-4.3C80.12,83.75,80.82,82.61,80.95,81.39z M52.43,57.08c2.15-1.55,5.64-1.55,7.79,0L78.15,70
		c0.88,0.63,1.42,1.45,1.52,2.32c0.01,0.11,0.02,0.21,0.02,0.32c0,0.21-0.03,0.41-0.07,0.61c-0.01,0.04-0.02,0.09-0.03,0.13
		c-0.06,0.19-0.13,0.39-0.23,0.57c-0.02,0.04-0.05,0.08-0.07,0.13c-0.11,0.19-0.24,0.37-0.4,0.55c-0.02,0.02-0.04,0.04-0.07,0.07
		c-0.18,0.19-0.37,0.37-0.6,0.53l-10.13,7.42l-7.81,5.72c-0.27,0.2-0.56,0.37-0.86,0.52c-0.21,0.1-0.43,0.18-0.66,0.26
		c-0.1,0.04-0.19,0.08-0.29,0.11c-0.67,0.2-1.39,0.31-2.14,0.31c-0.75,0-1.48-0.11-2.15-0.31c-0.05-0.01-0.09-0.04-0.14-0.05
		c-0.28-0.09-0.55-0.19-0.81-0.32c-0.3-0.15-0.59-0.32-0.86-0.52L37.42,77.4l-2.98-2.19c-0.77-0.57-1.25-1.29-1.41-2.05l14.26-10.46
		c1.16-0.85,1.86-1.98,1.98-3.21c0.01-0.05,0.02-0.1,0.02-0.16L52.43,57.08z M1.29,50.43c0.11-0.86,0.65-1.68,1.53-2.31L20.75,35.2
		c2.15-1.55,5.64-1.55,7.79,0l17.93,12.92c0.88,0.63,1.42,1.45,1.52,2.31c0.01,0.12,0.02,0.24,0.02,0.36c0,0.21-0.03,0.41-0.08,0.61
		c-0.01,0.04-0.02,0.08-0.03,0.13c-0.06,0.19-0.14,0.38-0.24,0.56c-0.02,0.04-0.05,0.08-0.08,0.13c-0.11,0.18-0.24,0.36-0.4,0.53
		c-0.02,0.03-0.05,0.05-0.07,0.07c-0.17,0.18-0.36,0.36-0.58,0.52L34.58,62.1l-5.98,4.38c-0.27,0.2-0.56,0.37-0.86,0.51
		c-0.26,0.12-0.53,0.22-0.81,0.31c-0.05,0.02-0.09,0.04-0.14,0.05c-0.67,0.2-1.39,0.31-2.14,0.31c0,0-0.01,0-0.01,0
		c-0.75,0-1.47-0.11-2.14-0.31c-0.02-0.01-0.04-0.02-0.06-0.02c-0.31-0.1-0.61-0.21-0.89-0.35c-0.3-0.15-0.59-0.32-0.86-0.51
		L2.76,53.33l0,0c-0.16-0.12-0.3-0.25-0.43-0.38c-0.17-0.16-0.32-0.34-0.45-0.51c-0.05-0.06-0.11-0.12-0.15-0.19
		c-0.01-0.02-0.02-0.04-0.03-0.06c-0.23-0.38-0.37-0.79-0.41-1.2c0,0,0,0,0,0c-0.01-0.15-0.01-0.3,0-0.43L1.29,50.43z M28.6,74.83
		c-1.05,0.77-2.45,1.19-3.95,1.19c-0.01,0-0.01,0-0.01,0c-1.5,0-2.9-0.42-3.95-1.19L2.76,61.68c-1.04-0.76-1.56-1.75-1.47-2.85
		v-5.08C1.5,53.96,1.74,54.17,2,54.36l10.26,7.52l7.67,5.63c0,0,0,0,0,0l0,0c0.32,0.24,0.67,0.44,1.04,0.62c0.01,0,0.01,0,0.02,0.01
		c1.08,0.52,2.34,0.81,3.65,0.81c0,0,0.01,0,0.01,0c1.77,0,3.44-0.51,4.71-1.44l6.95-5.1l10.98-8.05c0.24-0.18,0.45-0.37,0.65-0.57
		c0.02-0.02,0.06-0.04,0.08-0.07l0,5.46c-0.01,0.03-0.01,0.06-0.01,0.09c-0.06,0.9-0.58,1.75-1.48,2.41L28.6,74.83z M79.7,105.17
		c-0.01,0.03-0.01,0.06-0.01,0.09c-0.06,0.9-0.58,1.75-1.48,2.41l-17.93,13.15c-1.05,0.77-2.45,1.19-3.95,1.19
		c-1.5,0-2.91-0.42-3.96-1.19l-17.93-13.15c-1.04-0.76-1.56-1.76-1.47-2.85v-5.09c0.21,0.21,0.44,0.41,0.7,0.6
		c0.01,0.01,0.01,0.01,0.02,0.02l4.18,3.07l13.75,10.08c1.27,0.93,2.94,1.44,4.71,1.44c1.77,0,3.44-0.51,4.71-1.44l13.5-9.9
		l4.43-3.25c0.24-0.18,0.46-0.37,0.66-0.57c0.02-0.02,0.05-0.04,0.08-0.07V105.17z M78.15,94.11c0.87,0.63,1.42,1.45,1.52,2.31
		c0.02,0.16,0.02,0.32,0.01,0.48c-0.05,0.9-0.57,1.76-1.48,2.42l-8.28,6.07l-9.66,7.08c-0.27,0.2-0.56,0.37-0.87,0.52
		c-0.12,0.06-0.24,0.09-0.37,0.14c-0.19,0.08-0.38,0.17-0.59,0.23c-0.66,0.2-1.38,0.3-2.13,0.3c0,0,0,0,0,0
		c-0.75,0-1.48-0.11-2.14-0.31c-0.06-0.02-0.12-0.05-0.18-0.07c-0.26-0.09-0.53-0.18-0.77-0.3c-0.3-0.15-0.59-0.32-0.86-0.52
		l-9.57-7.02l-8.36-6.13c-0.62-0.46-1.06-1.01-1.29-1.61c-0.01-0.03-0.03-0.06-0.04-0.08c-0.01-0.02-0.01-0.04-0.01-0.05
		c-0.06-0.19-0.11-0.39-0.13-0.59c-0.01-0.15-0.01-0.3,0-0.45l0.01-0.11c0.11-0.86,0.65-1.68,1.53-2.31l6.14-4.42l10.98,8.05
		c1.27,0.93,2.94,1.44,4.71,1.44c1.77,0,3.44-0.51,4.71-1.44l10.98-8.05L78.15,94.11z M78.21,83.56L60.28,96.71
		c-1.05,0.77-2.45,1.19-3.95,1.19c0,0,0,0,0,0c-1.5,0-2.91-0.42-3.96-1.19L34.43,83.56c-1.04-0.76-1.56-1.76-1.47-2.85v-5.09
		c0.21,0.22,0.45,0.43,0.72,0.62c0,0,0,0,0,0l4.88,3.58l13.05,9.57c1.27,0.93,2.94,1.44,4.71,1.44c1.77,0,3.44-0.51,4.71-1.44
		L72,81.35l6.96-5.1c0.24-0.18,0.45-0.37,0.65-0.57c0.03-0.02,0.06-0.05,0.08-0.07v5.45c-0.01,0.03-0.01,0.06-0.01,0.09
		C79.63,82.06,79.1,82.91,78.21,83.56z M33.68,29.95L51.61,43.1c1.27,0.93,2.94,1.44,4.71,1.44c1.77,0,3.44-0.51,4.71-1.44
		l17.93-13.15c1.16-0.85,1.86-1.98,1.98-3.2c0.02-0.06,0.03-0.12,0.03-0.19l-0.01-8.46c0-0.01,0-0.02,0-0.02c0-0.06,0-0.12,0-0.18
		v-0.13c0-0.02-0.01-0.04-0.02-0.06c-0.01-0.06,0-0.13-0.01-0.19c-0.15-1.22-0.88-2.35-2.04-3.19L60.96,1.4
		c-2.6-1.87-6.68-1.87-9.28,0L33.75,14.32c-1.17,0.84-1.89,1.97-2.05,3.19l-0.01,0.15c-0.02,0.2-0.01,0.41,0,0.61
		c0,0.01,0,0.01,0,0.01l0,7.72C31.57,27.5,32.29,28.93,33.68,29.95z M79.7,20.96v5.46c-0.01,0.03-0.01,0.06-0.01,0.09
		c-0.06,0.9-0.58,1.75-1.48,2.41L60.28,42.07c-1.05,0.77-2.45,1.19-3.95,1.19c0,0,0,0,0,0c-1.5,0-2.91-0.42-3.96-1.19L34.43,28.92
		c-1.04-0.76-1.56-1.76-1.47-2.85v-5.09c0.22,0.22,0.45,0.43,0.72,0.62h0l17.93,13.15c0,0,0,0,0,0l0,0
		c0.32,0.24,0.67,0.44,1.04,0.62c0.03,0.01,0.06,0.02,0.09,0.03c1.07,0.5,2.3,0.78,3.59,0.78c1.77,0,3.44-0.51,4.71-1.44l9.43-6.91
		l8.51-6.24c0.25-0.18,0.47-0.38,0.67-0.59C79.66,21,79.68,20.98,79.7,20.96z M32.97,17.67c0.11-0.86,0.65-1.68,1.53-2.31
		L52.43,2.44c1.07-0.77,2.48-1.16,3.9-1.16s2.82,0.39,3.9,1.16l17.93,12.92c0.87,0.63,1.42,1.45,1.52,2.31
		c0.01,0.09,0.01,0.18,0.01,0.27c0,0.21-0.02,0.42-0.06,0.63c-0.01,0.04-0.02,0.09-0.03,0.13c-0.05,0.2-0.13,0.39-0.23,0.58
		c-0.02,0.04-0.05,0.08-0.07,0.12c-0.11,0.19-0.24,0.38-0.4,0.56c-0.02,0.02-0.04,0.04-0.06,0.06c-0.18,0.19-0.38,0.38-0.61,0.55
		l-8.97,6.57l-8.97,6.57c-0.27,0.2-0.56,0.37-0.86,0.52c-0.22,0.11-0.46,0.19-0.7,0.27c-0.08,0.03-0.16,0.07-0.25,0.1
		c-0.67,0.2-1.39,0.31-2.14,0.31c0,0,0,0,0,0c-1.13,0-2.2-0.24-3.1-0.68c-0.3-0.15-0.59-0.32-0.86-0.51L34.43,20.58c0,0,0,0,0,0
		c-0.62-0.46-1.06-1.01-1.29-1.61c-0.01-0.03-0.03-0.06-0.04-0.08c-0.01-0.02-0.01-0.04-0.01-0.05c-0.06-0.19-0.11-0.39-0.13-0.59
		c-0.01-0.15-0.01-0.3,0-0.45l-0.31-0.03c-0.03-0.02-0.05-0.04-0.08-0.05L32.97,17.67z M125.38,54.94
		c-0.12,0.17-0.32,0.27-0.52,0.27c-0.13,0-0.26-0.04-0.37-0.12l-3.41-2.46c-0.29-0.21-0.35-0.6-0.14-0.89
		c0.12-0.17,0.32-0.27,0.52-0.27c0.13,0,0.26,0.04,0.37,0.12c0,0,1.76,1.27,2.75,1.98c0.02,0.02,0.04,0.03,0.06,0.04l0,0
		c0,0,0,0,0,0l0,0c0,0,0,0,0,0l0.01,0.01c0,0,0,0,0,0l0.03,0.02l0,0l0.54,0.39C125.52,54.25,125.59,54.65,125.38,54.94z
		 M122.97,75.79c0.21,0.28,0.15,0.68-0.14,0.89l-3.39,2.49c-0.11,0.08-0.25,0.12-0.38,0.12c-0.2,0-0.39-0.09-0.52-0.26
		c-0.21-0.28-0.15-0.68,0.14-0.89l3.39-2.49c0.11-0.08,0.25-0.12,0.38-0.12C122.65,75.53,122.85,75.62,122.97,75.79z M129.74,70.82
		c0.21,0.28,0.16,0.67-0.11,0.88c-0.03,0.02-0.05,0.04-0.08,0.06c0,0,0,0,0,0c0,0,0,0,0,0c0,0,0,0,0,0c0,0,0,0,0,0c0,0,0,0,0,0
		c0,0-0.01,0.01-0.04,0.03c-0.02,0.02-0.06,0.04-0.1,0.07c0,0-0.01,0-0.01,0.01l0,0c0,0,0,0,0,0c-0.02,0.02-0.05,0.03-0.07,0.05l0,0
		c-0.01,0.01-0.03,0.02-0.04,0.03l0,0c0,0-0.01,0.01-0.01,0.01l0,0c0,0,0,0-0.01,0l0,0c0,0,0,0,0,0l0,0c0,0-0.01,0-0.01,0.01l0,0
		c0,0,0,0,0,0L129.21,72c0,0,0,0,0,0l-0.01,0c0,0,0,0,0,0l0,0c0,0,0,0,0,0l0,0c0,0,0,0,0,0l0,0c0,0,0,0,0,0l0,0c0,0,0,0,0,0l0,0
		c0,0,0,0,0,0l-0.01,0.01l0,0l0,0c0,0,0,0,0,0l0,0c0,0,0,0,0,0l0,0c0,0,0,0,0,0l0,0c0,0,0,0,0,0l-0.01,0.01c0,0,0,0,0,0l0,0
		c0,0,0,0,0,0l-0.01,0.01c0,0,0,0,0,0l-0.02,0.01l0,0l-0.01,0.01h0l-0.02,0.01c0,0,0,0,0,0l-2.87,2.1
		c-0.11,0.08-0.25,0.12-0.38,0.12c-0.2,0-0.39-0.09-0.52-0.26c-0.21-0.28-0.15-0.68,0.14-0.89l3.31-2.43l0.06-0.05
		c0.12-0.09,0.25-0.13,0.38-0.13C129.42,70.56,129.61,70.65,129.74,70.82z M129.98,59.9c-0.12-0.65-0.56-1.27-1.26-1.77l-0.82-0.59
		c-0.29-0.21-0.35-0.6-0.14-0.89c0.12-0.17,0.32-0.27,0.52-0.27c0.13,0,0.26,0.04,0.37,0.12l0.82,0.59c0,0,0,0,0.01,0c0,0,0,0,0,0
		c0,0,0,0,0.01,0c0,0,0,0,0,0c0,0,0,0,0.01,0c0,0,0,0,0,0c0,0,0,0,0.01,0c0,0,0,0,0,0c0,0,0,0,0.01,0c0,0,0,0,0,0c0,0,0,0,0.01,0
		c0,0,0,0,0,0c0,0,0,0,0.01,0c0,0,0,0,0,0c0,0,0,0,0.01,0c0,0,0,0,0,0c0,0,0,0,0.01,0c0,0,0,0,0,0c0,0,0,0,0,0c0,0,0,0,0,0
		c0,0,0,0,0,0c0,0,0,0,0,0c0,0,0,0,0,0c0,0,0,0,0,0c0,0,0,0,0,0c0,0,0,0,0,0c0,0,0,0,0.01,0c0,0,0,0,0,0c0,0,0,0,0.01,0c0,0,0,0,0,0
		c0,0,0,0,0,0c0,0,0,0,0,0c0,0,0,0,0.01,0c0,0,0,0,0,0c0,0,0,0,0.01,0c0,0,0,0,0,0c0,0,0,0,0,0c0,0,0,0,0,0c0,0,0,0,0,0c0,0,0,0,0,0
		c0,0,0,0,0,0c0,0,0,0,0,0c0,0,0,0,0,0c0,0,0,0,0,0c0,0,0,0,0.01,0c0,0,0,0,0,0c0,0,0,0,0,0c0,0,0,0,0,0c0,0,0,0,0,0c0,0,0,0,0,0
		c0,0,0,0,0,0c0,0,0,0,0,0c0,0,0,0,0,0c0,0,0,0,0,0c0,0,0,0,0,0c0,0,0,0,0,0c0,0,0,0,0,0c0,0,0,0,0,0c0,0,0,0,0,0c0,0,0,0,0,0
		c0,0,0,0,0,0c0,0,0,0,0,0c0,0,0,0,0,0c0,0,0,0,0,0c0,0,0,0,0,0c0,0,0,0,0,0c0,0,0,0,0,0c0,0,0,0,0,0c0,0,0,0,0,0c0,0,0,0,0,0
		c0,0,0,0,0,0c0,0,0,0,0,0c0,0,0,0,0,0c0,0,0,0,0,0c0,0,0,0,0,0c0,0,0,0,0,0c0,0,0,0,0,0c0,0,0,0,0,0c0,0,0,0,0,0c0,0,0,0,0,0
		c0,0,0,0,0,0c0,0,0,0,0,0c0,0,0,0,0,0c0,0,0,0,0,0c0,0,0,0,0,0c0,0,0,0,0,0c0,0,0,0,0,0c0,0,0,0,0,0c0,0,0,0,0,0c0,0,0,0,0,0
		c0,0,0,0,0,0c0,0,0,0,0,0c0,0,0,0,0,0c0,0,0,0,0,0c0,0,0,0,0,0c0,0,0,0,0,0c0,0,0,0,0,0c0,0,0,0,0,0c0,0,0,0,0,0c0,0,0,0,0,0
		c0,0,0,0,0,0c0,0,0,0,0,0c0,0,0,0,0,0c0,0,0,0,0,0c0,0,0,0,0,0c0,0,0,0,0,0c0,0,0,0,0,0c0,0,0,0,0,0c0,0,0,0,0,0c0,0,0,0,0,0
		c0,0,0,0,0,0c0,0,0,0,0,0c0,0,0,0,0,0c0,0,0,0,0,0c0,0,0,0,0,0c0,0,0,0,0,0c0,0,0,0,0,0c0,0,0,0,0,0c0,0,0,0,0,0c0,0,0,0,0,0
		c0,0,0,0,0,0c0,0,0,0,0,0c0,0,0,0,0,0c0,0,0,0,0,0c0,0,0,0,0,0c0,0,0,0,0,0c0,0,0,0,0,0c0,0,0,0,0,0c0,0,0,0,0,0c0,0,0,0,0,0
		c0,0,0,0,0,0c0,0,0,0,0,0c0,0,0,0,0,0c0,0,0,0,0,0c0,0,0,0,0,0c0,0,0,0,0,0c0,0,0,0,0,0c0,0,0,0,0,0c0,0,0,0,0,0c0,0,0,0,0,0
		c0,0,0,0,0,0c0,0,0,0,0,0c0,0,0,0,0,0c0,0,0,0,0,0c0,0,0,0,0,0c0,0,0,0,0,0c0,0,0,0,0,0c0,0,0,0,0,0c0,0,0,0,0,0c0,0,0,0,0,0
		c0,0,0,0,0,0c0,0,0,0,0,0c0,0,0.01,0.01,0.01,0.01c0,0,0,0,0,0c0,0,0,0,0,0c0,0,0,0,0,0c0,0,0,0,0,0c0,0,0,0,0,0c0,0,0,0,0,0
		c0,0,0,0,0,0c0,0,0,0,0,0c0,0,0,0,0,0c0,0,0,0,0,0c0,0,0,0,0,0c0,0,0,0,0,0c0,0,0,0,0,0c0,0,0,0,0,0c0,0,0,0,0,0c0,0,0,0,0,0
		c0,0,0,0,0,0c0,0,0,0,0,0c0,0,0,0,0,0c0,0,0,0,0,0c0,0,0,0,0,0c0,0,0,0,0,0c0,0,0,0,0,0c0,0,0,0,0,0c0,0,0,0,0,0c0,0,0,0,0,0
		c0,0,0,0,0,0c0,0,0,0,0,0c0,0,0,0,0,0c0,0,0,0,0,0c0,0,0,0,0,0c0,0,0,0,0,0c0,0,0,0,0,0c0,0,0,0,0,0c0,0,0,0,0,0c0,0,0,0,0,0
		c0,0,0,0,0,0c0,0,0,0,0,0c0,0,0,0,0,0c0,0,0,0,0,0c0,0,0,0,0,0c0,0,0,0,0,0c0,0,0,0,0,0c0,0,0,0,0,0c0,0,0,0,0,0c0,0,0,0,0,0
		c0,0,0,0,0,0c0,0,0,0,0,0c0,0,0,0,0,0c0,0,0,0,0,0c0,0,0,0,0,0c0,0,0,0,0,0c0,0,0,0,0,0c0,0,0,0,0,0c0,0,0,0,0,0c0,0,0,0,0,0
		c0,0,0,0,0,0c0,0,0,0,0,0c0,0,0,0,0,0c0,0,0,0,0,0c0,0,0,0,0,0c0,0,0,0,0,0c0,0,0,0,0,0c0,0,0,0,0,0c0,0,0,0,0,0c0,0,0,0,0,0
		c0,0,0,0,0,0c0,0,0,0,0,0c0,0,0,0,0,0c0,0,0,0,0,0c0,0,0,0,0,0c0,0,0,0,0,0c0,0,0,0,0,0c0,0,0,0,0,0c0,0,0,0,0,0c0,0,0,0,0,0
		c0,0,0,0,0,0c0,0,0,0,0,0c0,0,0,0,0,0c0,0,0,0,0,0c0,0,0,0,0,0c0,0,0,0,0,0c0,0,0,0,0,0c0,0,0,0,0,0c0,0,0,0,0,0c0,0,0,0,0,0
		c0,0,0,0,0,0c0,0,0,0,0,0c0,0,0,0,0,0c0,0,0,0,0,0c0,0,0,0,0,0c0,0,0,0,0,0c0,0,0,0,0,0c0,0,0,0,0,0c0,0,0,0,0,0c0,0,0,0,0,0
		c0,0,0,0,0,0c0,0,0,0,0,0c0,0,0,0,0,0c0,0,0,0,0,0c0,0,0,0,0,0c0,0,0,0,0,0c0,0,0,0,0,0c0,0,0,0,0,0c0,0,0,0,0,0c0,0,0,0,0,0
		c0,0,0,0,0,0c0,0,0,0,0,0c0,0,0,0,0,0c0,0,0,0,0,0c0,0,0,0,0,0c0,0,0,0,0,0c0,0,0,0,0,0c0,0,0,0,0,0c0,0,0,0,0,0c0,0,0,0,0,0
		c0,0,0,0,0,0c0,0,0,0,0,0c0,0,0,0,0,0c0,0,0,0,0,0c0,0,0,0,0,0c0,0,0,0,0,0c0,0,0,0,0,0c0,0,0,0,0,0c0,0,0,0,0,0c0,0,0,0,0,0
		c0,0,0,0,0,0c0,0,0,0,0,0c0,0,0,0,0,0c0,0,0,0,0,0c0,0,0,0,0,0c0,0,0,0,0,0c0,0,0,0,0,0c0,0,0,0,0,0c0,0,0,0,0,0c0,0,0,0,0,0
		c0,0,0,0,0,0c0,0,0,0,0,0c0,0,0,0,0,0c0,0,0,0,0,0c0,0,0,0,0,0c0,0,0,0,0,0c0,0,0,0,0,0c0,0,0,0,0,0c0,0,0,0,0,0c0,0,0,0,0,0
		c0,0,0,0,0,0c0,0,0,0,0,0c0,0,0,0,0,0c0,0,0,0,0,0c0,0,0,0,0,0c0,0,0.01,0.01,0.01,0.01c0,0,0,0,0,0c0,0,0,0,0,0c0,0,0,0,0,0
		c0,0,0,0,0,0c0,0,0,0,0,0c0,0,0,0,0,0c0,0,0,0,0,0c0,0,0,0,0,0c0,0,0,0,0,0c0,0,0,0,0,0c0,0,0,0,0,0c0,0,0,0,0,0c0,0,0,0,0,0
		c0,0,0,0,0,0c0,0,0,0,0,0c0,0,0,0,0,0c0,0,0,0,0,0c0,0,0,0,0,0c0,0,0,0,0,0c0,0,0,0,0,0c0,0,0,0,0,0c0,0,0,0,0,0c0,0,0,0,0,0
		c0,0,0,0,0,0c0,0,0,0,0,0c0,0,0,0,0,0c0,0,0,0,0,0c0,0,0.01,0.01,0.01,0.01c0,0,0,0,0,0c0,0,0,0,0,0c0,0,0,0,0,0c0,0,0,0,0,0
		c0,0,0,0,0,0c0,0,0,0,0,0c0,0,0,0,0,0c0,0,0,0,0,0c0,0,0,0,0,0c0,0,0,0,0,0c0,0,0,0,0,0c0,0,0,0,0,0c0,0,0,0,0,0c0,0,0,0,0,0
		c0,0,0,0,0,0c0,0,0,0,0,0c0,0,0,0,0,0c0,0,0,0,0,0c0,0,0,0,0,0c0,0,0,0,0,0c0,0,0,0,0,0c0,0,0,0,0,0c0,0,0,0,0,0c0,0,0,0,0,0
		c0,0,0,0,0,0c0,0,0,0,0,0c0,0,0,0,0,0c0,0,0,0,0,0c0,0,0,0,0,0c0,0,0,0,0,0c0,0,0,0,0,0c0,0,0,0,0,0c0,0,0,0,0,0c0,0,0,0,0,0
		c0,0,0,0,0,0c0,0,0,0,0,0c0,0,0,0,0,0c0,0,0,0,0,0c0,0,0,0,0,0c0,0,0,0,0,0c0,0,0,0,0,0c0,0,0,0,0,0c0,0,0,0,0,0c0,0,0,0,0,0
		c0,0,0,0,0,0c0,0,0,0,0,0c0,0,0,0,0,0c0,0,0,0,0,0c0,0,0,0,0,0c0,0,0,0,0,0c0,0,0,0,0,0c0,0,0,0,0,0c0,0,0,0,0,0c0,0,0,0,0,0
		c0,0,0,0,0,0c0,0,0,0,0,0c0,0,0,0,0,0c0,0,0,0,0,0c0,0,0,0,0,0c0,0,0,0,0,0c0,0,0,0,0,0c0,0,0,0,0,0c0,0,0,0,0,0c0,0,0,0,0,0
		c0,0,0,0,0,0c0,0,0,0,0,0c0,0,0,0,0,0c0,0,0,0,0,0c0,0,0,0,0,0c0,0,0,0,0,0c0,0,0,0,0,0c0,0,0,0,0,0c0,0,0,0.01,0.01,0.01
		c0,0,0,0,0,0c0,0,0,0,0,0c0,0,0,0,0,0c0,0,0,0,0,0c0,0,0,0,0,0c0,0,0,0,0,0c0,0,0,0,0,0c0,0,0,0,0,0c0,0,0,0,0,0c0,0,0,0,0,0
		c0,0,0,0,0,0c0,0,0,0,0,0c0,0,0,0,0,0c0,0,0,0.01,0.01,0.01c0,0,0,0,0,0c0,0,0,0,0,0c0,0,0,0,0,0c0,0,0,0,0,0c0,0,0,0,0,0
		c0,0,0,0,0,0c0,0,0,0,0,0c0,0,0,0,0,0c0,0,0,0,0,0c0,0,0,0,0,0c0,0,0,0,0,0c0,0,0,0,0,0c0,0,0,0,0,0c0,0,0,0.01,0.01,0.01
		c0,0,0,0,0,0c0,0,0,0,0,0c0,0,0,0,0,0c0,0,0,0,0,0c0,0,0,0,0,0c0,0,0,0,0,0c0,0,0,0,0,0c0,0,0,0,0,0c0,0,0,0,0,0c0,0,0,0,0,0
		c0,0,0,0,0,0c0,0,0,0,0,0c0,0,0,0,0,0c0,0,0,0.01,0.01,0.01c0,0,0,0,0,0c0,0,0,0,0,0c0,0,0,0,0,0c0,0,0,0,0,0c0,0,0,0,0,0
		c0,0,0,0,0,0c0,0,0,0,0,0c0,0,0,0,0,0c0,0,0,0,0,0c0,0,0,0,0,0c0,0,0,0,0,0c0,0,0,0,0,0c0,0,0,0,0,0.01c0,0,0,0,0,0c0,0,0,0,0,0
		c0,0,0,0,0,0c0,0,0,0,0,0c0,0,0,0,0,0c0,0,0,0,0,0c0,0,0,0,0,0c0,0,0,0,0,0c0,0,0,0,0,0c0,0,0,0,0,0c0,0,0,0,0,0c0,0,0,0,0,0
		c0,0,0,0.01,0.01,0.01c0,0,0,0,0,0c0,0,0,0,0,0c0,0,0,0,0,0c0,0,0,0,0,0c0,0,0,0,0,0c0,0,0,0,0,0c0,0,0,0,0,0c0,0,0,0,0,0
		c0,0,0,0,0,0c0,0,0,0,0,0c0,0,0,0,0,0c0,0,0,0,0,0c0,0,0,0,0,0c0,0,0,0,0,0l0,0c0,0,0,0,0,0c0,0,0,0,0,0c0,0,0,0,0,0c0,0,0,0,0,0
		c0,0,0,0,0,0c0,0,0,0,0,0c0,0,0,0,0,0c0,0,0,0,0,0c0,0,0,0,0,0c0,0,0,0,0,0c0,0,0,0,0,0c0,0,0,0,0,0c0,0,0,0.01,0.01,0.01
		c0,0,0,0,0,0c0,0,0,0,0,0c0,0,0,0,0,0c0,0,0,0,0,0c0,0,0,0,0,0c0,0,0,0,0,0c0,0,0,0,0,0c0,0,0,0,0,0c0,0,0,0,0,0c0,0,0,0,0,0
		c0,0,0,0,0,0c0,0,0,0,0,0c0,0,0,0,0,0c0,0,0,0.01,0.01,0.01c0,0,0,0,0,0.01c0,0,0,0,0,0c0,0,0,0,0,0c0,0,0,0,0,0c0,0,0,0,0,0
		c0,0,0,0,0,0c0,0,0,0,0,0c0,0,0,0,0,0c0,0,0,0,0,0.01c0,0,0,0,0,0c0,0.01,0.01,0.01,0.01,0.02l0,0c0,0,0,0,0,0c0,0,0,0,0,0
		c0,0,0,0,0,0c0,0,0,0,0,0c0,0,0,0,0,0c0,0,0,0,0,0c0,0,0,0,0,0c0,0,0,0,0,0c0,0,0,0,0,0.01c0,0.01,0.01,0.01,0.01,0.02c0,0,0,0,0,0
		c0,0,0,0,0,0.01c0,0,0,0,0,0c0,0,0,0,0,0c0,0,0,0,0,0c0,0,0,0,0,0c0,0,0,0,0,0c0,0,0,0,0,0c0,0,0,0,0,0c0,0.01,0.01,0.01,0.01,0.02
		c0,0,0,0,0,0c0,0,0,0,0,0c0,0,0,0,0,0c0,0,0,0,0,0c0,0,0,0,0,0c0,0,0,0,0,0c0,0,0,0,0,0c0,0,0,0,0,0c0,0,0,0,0,0
		c0,0.01,0.01,0.01,0.01,0.02l0,0c0,0,0,0,0,0.01c0,0,0,0,0,0c0,0,0,0,0,0.01c0,0,0,0,0,0c0,0,0,0,0,0c0,0,0,0,0,0c0,0,0,0,0,0.01
		c0,0,0,0,0,0c0,0,0,0,0,0.01c0,0.01,0.01,0.01,0.01,0.02c0,0,0,0,0,0c0,0,0,0,0,0c0,0,0,0,0,0c0,0,0,0,0,0c0,0,0,0,0,0c0,0,0,0,0,0
		c0,0,0,0,0,0c0,0,0,0,0,0.01c0,0,0,0,0,0c0,0,0,0.01,0.01,0.01v0c0,0,0,0,0,0.01l0,0c0,0,0,0,0,0.01c0,0,0,0,0,0c0,0,0,0,0,0
		c0,0,0,0,0,0c0,0,0,0,0,0c0,0,0,0,0,0c0,0,0,0,0,0c0,0,0,0,0,0c0,0.01,0.01,0.02,0.01,0.03c0,0,0,0,0,0c0,0,0,0,0,0.01v0
		c0,0,0,0,0,0.01l0,0c0.02,0.04,0.04,0.08,0.06,0.12c0,0,0,0,0,0c0.14,0.29,0.23,0.58,0.29,0.88c0.06,0.35-0.16,0.68-0.51,0.74
		c-0.04,0.01-0.08,0.01-0.12,0.01C130.3,60.42,130.04,60.21,129.98,59.9z M83.21,59.16c0.26-0.73,0.77-1.43,1.55-2.01c0,0,0,0,0,0
		c0,0,0.01,0,0.01-0.01c0,0,0,0,0,0c0,0,0.01,0,0.01-0.01c0,0,0,0,0,0c0,0,0.01,0,0.01-0.01c0,0,0,0,0,0c0,0,0.01,0,0.01-0.01
		c0,0,0,0,0,0c0,0,0,0,0,0c0,0,0,0,0,0c0,0,0,0,0,0c0,0,0,0,0,0c0,0,0,0,0,0c0,0,0,0,0,0c0,0,0,0,0,0c0,0,0,0,0,0c0,0,0,0,0,0
		c0,0,0,0,0,0c0,0,0,0,0,0c0,0,0,0,0,0c0,0,0,0,0,0c0,0,0,0,0,0c0,0,0,0,0,0l1.24-0.9c0.11-0.08,0.24-0.12,0.37-0.12
		c0.2,0,0.39,0.09,0.52,0.27c0.21,0.29,0.14,0.68-0.14,0.89l-1.24,0.9c-0.58,0.42-0.98,0.92-1.17,1.45
		c-0.09,0.26-0.34,0.43-0.6,0.43c-0.07,0-0.14-0.01-0.21-0.04C83.27,59.86,83.09,59.49,83.21,59.16z M131.29,68.07
		c0,0.35-0.28,0.64-0.64,0.64c0,0,0,0,0,0c-0.35,0-0.64-0.28-0.64-0.64l-0.01-4.2c0-0.35,0.28-0.64,0.64-0.64c0,0,0,0,0,0
		c0.35,0,0.64,0.28,0.64,0.63l0.01,1.82c0,0,0,0,0,0v0.01c0,0,0,0.01,0,0.01v0.01C131.29,66.85,131.29,68.07,131.29,68.07z
		 M118.56,50.02c-0.12,0.17-0.32,0.27-0.52,0.27c-0.13,0-0.26-0.04-0.37-0.12l-3.41-2.46c-0.29-0.21-0.35-0.6-0.14-0.89
		c0.12-0.17,0.32-0.27,0.52-0.27c0.13,0,0.26,0.04,0.37,0.12c0,0,0.33,0.24,0.79,0.57l0,0c0.01,0.01,0.02,0.02,0.03,0.02l0,0
		c0.01,0.01,0.02,0.02,0.03,0.02l0,0c0.01,0,0.01,0.01,0.02,0.01l0,0c0,0,0.01,0,0.01,0.01l0,0c0,0,0,0,0,0l0,0c0,0,0,0,0,0
		l0.01,0.01c0,0,0,0,0,0l0,0c0,0,0,0,0.01,0l0,0c0,0,0,0,0,0l0.03,0.02c0,0,0,0,0,0l0,0c0,0,0,0,0.01,0l0,0c0,0,0,0,0.01,0l0,0
		c0,0,0,0,0,0l2.43,1.75C118.7,49.34,118.76,49.74,118.56,50.02z M93.65,52.32l-3.41,2.46c-0.11,0.08-0.24,0.12-0.37,0.12
		c-0.2,0-0.39-0.09-0.52-0.27c-0.21-0.29-0.14-0.68,0.14-0.89c0,0,0.84-0.6,1.69-1.21l0,0c0,0,0.01-0.01,0.01-0.01l0,0c0,0,0,0,0,0
		l0,0c0,0,0,0,0,0l0,0c0,0,0,0,0,0l0.02-0.01c0,0,0,0,0,0l0,0h0l0,0c0,0,0,0,0,0l1.67-1.2c0.11-0.08,0.24-0.12,0.37-0.12
		c0.2,0,0.39,0.09,0.52,0.27C94,51.71,93.94,52.11,93.65,52.32z M100.48,47.4l-3.41,2.46c-0.11,0.08-0.24,0.12-0.37,0.12
		c-0.2,0-0.39-0.09-0.52-0.27c-0.21-0.29-0.14-0.68,0.14-0.89l2.42-1.74c0,0,0,0,0,0l0.02-0.01c0,0,0,0,0.01,0l0,0
		c0.01,0,0.01-0.01,0.02-0.01l0,0c0,0,0,0,0.01,0l0.02-0.02c0,0,0,0,0.01,0l0,0c0,0,0,0,0.01,0l0,0c0,0,0,0,0.01,0l0,0
		c0.01,0,0.01-0.01,0.02-0.01l0,0c0.01,0,0.01-0.01,0.02-0.01l0,0c0.02-0.02,0.04-0.03,0.07-0.05l0,0c0.46-0.33,0.79-0.57,0.79-0.57
		c0.11-0.08,0.24-0.12,0.37-0.12c0.2,0,0.39,0.09,0.52,0.27C100.83,46.8,100.76,47.2,100.48,47.4z M95.21,77.84
		c0.28,0.21,0.35,0.61,0.14,0.89c-0.12,0.17-0.32,0.26-0.52,0.26c-0.13,0-0.26-0.04-0.37-0.12l-3.31-2.43c0,0,0,0,0,0l0,0
		c0,0,0,0,0,0l0,0c0,0,0,0,0,0l-0.01,0c0,0,0,0,0,0l0,0c0,0,0,0,0,0l0,0c0,0,0,0,0,0l0,0c0,0,0,0,0,0l0,0c0,0,0,0,0,0l0,0
		c0,0,0,0,0,0l0,0c0,0,0,0,0,0l0,0c0,0,0,0,0,0l0,0c0,0,0,0,0,0l0,0c0,0,0,0,0,0l0,0c0,0,0,0,0,0l0,0c0,0,0,0,0,0l0,0c0,0,0,0,0,0
		l0,0c0,0,0,0,0,0l0,0c0,0,0,0,0,0l0,0c0,0,0,0,0,0h0c0,0,0,0,0,0l0,0c0,0-0.01,0-0.01-0.01l0,0c0,0,0,0-0.01,0c0,0,0,0-0.01,0l0,0
		c0,0-0.01,0-0.01-0.01l0,0c0,0,0,0,0,0h0c0,0,0,0,0,0l0,0c0,0,0,0,0,0v0c0,0,0,0,0,0l0,0c-0.28-0.21-0.35-0.61-0.14-0.89
		c0.12-0.17,0.32-0.26,0.52-0.26c0.13,0,0.26,0.04,0.38,0.12L95.21,77.84z M116.19,80.76c0.21,0.28,0.15,0.68-0.14,0.89l-1.35,0.99
		c0,0,0,0-0.01,0l0,0c0,0,0,0-0.01,0l-0.01,0c0,0,0,0,0,0l0,0c0,0,0,0,0,0l0,0c0,0,0,0,0,0l0,0c0,0,0,0,0,0l0,0
		c-0.94,0.69-2,1.47-2,1.47c-0.11,0.08-0.25,0.12-0.38,0.12c-0.2,0-0.39-0.09-0.52-0.26c-0.21-0.28-0.15-0.68,0.14-0.89l3.39-2.49
		c0.11-0.08,0.25-0.12,0.38-0.12C115.87,80.5,116.06,80.59,116.19,80.76z M101.99,82.81c0.28,0.21,0.35,0.61,0.14,0.89
		c-0.12,0.17-0.32,0.26-0.52,0.26c-0.13,0-0.26-0.04-0.38-0.12c0,0-0.21-0.15-0.51-0.38l0,0c0,0,0,0-0.01,0l0,0c0,0,0,0,0,0l-0.01,0
		c0,0,0,0,0,0l0,0c0,0,0,0,0,0l0,0c0,0,0,0,0,0l0,0c0,0,0,0,0,0l0,0c0,0-0.01,0-0.01-0.01l0,0c0,0-0.01-0.01-0.01-0.01l0,0
		c0,0,0,0-0.01,0l0,0c0,0,0,0,0,0l-0.01-0.01c0,0,0,0,0,0l0,0c0,0,0,0-0.01,0l0,0c0,0,0,0-0.01,0l0,0c0,0,0,0-0.01,0l0,0
		c0,0-0.01-0.01-0.01-0.01l-0.03-0.02c0,0,0,0,0,0l-0.01-0.01c0,0,0,0,0,0l0,0c0,0,0,0,0,0l-0.01-0.01c0,0,0,0,0,0l-2.7-1.98
		c-0.28-0.21-0.34-0.61-0.14-0.89c0.12-0.17,0.32-0.26,0.52-0.26c0.13,0,0.26,0.04,0.38,0.12L101.99,82.81z M109.47,85.34
		c0.08,0.34-0.14,0.68-0.48,0.76c-0.08,0.02-0.16,0.04-0.25,0.05c0,0,0,0,0,0c0,0,0,0,0,0c0,0,0,0,0,0c0,0,0,0-0.01,0c0,0,0,0,0,0
		c0,0,0,0,0,0c0,0,0,0-0.01,0c0,0,0,0,0,0c0,0,0,0,0,0c0,0,0,0,0,0c0,0,0,0-0.01,0c0,0,0,0,0,0c0,0,0,0-0.01,0c0,0,0,0,0,0
		c0,0,0,0-0.01,0c0,0,0,0,0,0c-0.5,0.09-1.02,0.14-1.54,0.14c-0.01,0-0.01,0-0.02,0c0,0,0,0,0,0c0,0,0,0,0,0c0,0,0,0,0,0
		c0,0,0,0,0,0c0,0,0,0,0,0c0,0,0,0,0,0c0,0,0,0,0,0c0,0,0,0,0,0c0,0,0,0,0,0c0,0,0,0,0,0c0,0,0,0,0,0c0,0-0.01,0-0.01,0c0,0,0,0,0,0
		c0,0,0,0,0,0c0,0,0,0,0,0c0,0,0,0,0,0c0,0,0,0,0,0c0,0,0,0,0,0c0,0,0,0,0,0c0,0,0,0,0,0c0,0,0,0,0,0c0,0,0,0,0,0c0,0,0,0,0,0
		c0,0,0,0,0,0c0,0,0,0,0,0c0,0,0,0,0,0c0,0,0,0,0,0c0,0,0,0,0,0c0,0,0,0,0,0c0,0,0,0,0,0c0,0,0,0,0,0c0,0,0,0,0,0c0,0,0,0,0,0
		c0,0,0,0,0,0c0,0,0,0,0,0c0,0,0,0,0,0c0,0,0,0,0,0c0,0,0,0,0,0c0,0,0,0,0,0c0,0,0,0,0,0c0,0,0,0,0,0c0,0,0,0,0,0c0,0,0,0,0,0
		c0,0,0,0,0,0c0,0,0,0,0,0c0,0,0,0,0,0c0,0,0,0,0,0c0,0,0,0,0,0c0,0,0,0,0,0c0,0,0,0,0,0c0,0,0,0,0,0c0,0,0,0,0,0c0,0,0,0,0,0
		c0,0,0,0,0,0c0,0,0,0,0,0c0,0,0,0,0,0c0,0,0,0,0,0c0,0,0,0,0,0c0,0,0,0,0,0c0,0,0,0,0,0c0,0,0,0,0,0c0,0,0,0,0,0c0,0,0,0,0,0
		c0,0,0,0,0,0c0,0,0,0,0,0c0,0,0,0,0,0c0,0,0,0,0,0c0,0,0,0,0,0c0,0,0,0,0,0c0,0,0,0,0,0c0,0,0,0,0,0c0,0,0,0,0,0c0,0,0,0,0,0
		c0,0,0,0,0,0c0,0,0,0,0,0c0,0,0,0,0,0c0,0,0,0,0,0c0,0-0.01,0-0.01,0c0,0,0,0,0,0c0,0,0,0,0,0c0,0,0,0,0,0c0,0,0,0,0,0c0,0,0,0,0,0
		c0,0,0,0,0,0c0,0,0,0,0,0c0,0,0,0,0,0c0,0,0,0,0,0c0,0,0,0,0,0c0,0,0,0,0,0c0,0,0,0,0,0c0,0,0,0,0,0c0,0,0,0,0,0c0,0,0,0,0,0
		c0,0,0,0,0,0c0,0,0,0,0,0c0,0,0,0,0,0c0,0,0,0,0,0c0,0,0,0,0,0c0,0,0,0,0,0c0,0,0,0,0,0c0,0,0,0,0,0c0,0,0,0,0,0c0,0,0,0,0,0
		c0,0,0,0,0,0c0,0,0,0,0,0c0,0,0,0,0,0c0,0,0,0,0,0c0,0,0,0,0,0c0,0,0,0,0,0c0,0,0,0,0,0c0,0,0,0,0,0c0,0,0,0,0,0c0,0,0,0,0,0
		c0,0,0,0,0,0c0,0,0,0,0,0c0,0,0,0,0,0c0,0,0,0,0,0c0,0,0,0,0,0c0,0,0,0,0,0c0,0,0,0,0,0c0,0,0,0,0,0c0,0,0,0,0,0c0,0,0,0,0,0
		c0,0,0,0,0,0c0,0,0,0,0,0c0,0,0,0,0,0c0,0,0,0,0,0c0,0,0,0,0,0c0,0,0,0,0,0c0,0,0,0,0,0c0,0,0,0,0,0c0,0,0,0,0,0c0,0,0,0,0,0
		c0,0,0,0,0,0c0,0,0,0,0,0c-0.57-0.02-1.13-0.1-1.67-0.24c0,0,0,0,0,0c0,0,0,0,0,0c0,0,0,0,0,0c0,0,0,0,0,0c0,0,0,0,0,0c0,0,0,0,0,0
		c0,0,0,0,0,0c0,0,0,0,0,0c0,0,0,0,0,0c0,0,0,0,0,0c0,0,0,0,0,0c0,0,0,0,0,0c0,0,0,0,0,0c0,0,0,0,0,0c0,0,0,0,0,0c0,0,0,0,0,0
		c0,0,0,0,0,0c0,0,0,0,0,0c0,0,0,0,0,0c0,0,0,0,0,0c0,0,0,0,0,0c0,0,0,0,0,0c0,0,0,0,0,0c0,0,0,0,0,0c0,0,0,0,0,0c0,0,0,0,0,0
		c0,0,0,0,0,0c0,0,0,0,0,0c0,0,0,0,0,0s0,0,0,0c0,0,0,0,0,0c0,0,0,0,0,0c0,0,0,0,0,0c0,0,0,0,0,0c0,0,0,0,0,0c0,0,0,0,0,0
		c0,0,0,0,0,0c0,0,0,0,0,0c0,0,0,0,0,0c0,0,0,0,0,0c0,0,0,0,0,0c0,0,0,0,0,0c0,0,0,0,0,0c0,0,0,0,0,0c0,0,0,0,0,0c0,0,0,0,0,0
		c0,0,0,0,0,0c0,0,0,0,0,0c0,0,0,0,0,0c0,0,0,0,0,0c0,0,0,0,0,0c0,0,0,0,0,0c0,0,0,0,0,0c0,0,0,0,0,0c0,0,0,0,0,0c0,0,0,0,0,0
		c0,0,0,0,0,0c0,0,0,0,0,0c0,0,0,0,0,0c0,0,0,0,0,0c0,0,0,0,0,0c0,0,0,0,0,0c0,0,0,0,0,0c-0.06-0.02-0.11-0.03-0.17-0.05
		c-0.34-0.1-0.53-0.46-0.43-0.79c0.08-0.28,0.34-0.46,0.61-0.46c0.06,0,0.12,0.01,0.18,0.03c0.62,0.19,1.28,0.28,1.96,0.28
		c0.53,0,1.05-0.06,1.55-0.17c0.05-0.01,0.1-0.02,0.14-0.02C109.14,84.84,109.4,85.04,109.47,85.34z M111.73,45.11
		c-0.12,0.17-0.32,0.27-0.52,0.27c-0.13,0-0.26-0.04-0.37-0.12l-0.14-0.1c-0.82-0.59-1.92-0.95-3.1-1.03
		c-0.08,0-0.15-0.02-0.22-0.05c-0.07,0.03-0.14,0.04-0.22,0.04c-1.24,0-2.42,0.32-3.32,0.89c-0.11,0.07-0.22,0.1-0.34,0.1
		c-0.21,0-0.42-0.1-0.54-0.3c-0.19-0.3-0.1-0.69,0.2-0.88c0,0,0,0,0,0c0,0,0,0,0,0c0,0,0.01-0.01,0.01-0.01c0,0,0,0,0,0c0,0,0,0,0,0
		c0,0,0,0,0,0c0,0,0,0,0,0c0,0,0,0,0,0c0,0,0,0,0,0c0,0,0,0,0,0c0,0,0,0,0,0c0,0,0,0,0,0c0,0,0,0,0,0c0,0,0,0,0,0c0,0,0,0,0,0
		c0,0,0,0,0,0s0,0,0,0c0,0,0,0,0,0c0,0,0,0,0,0c0,0,0,0,0,0s0,0,0,0c0,0,0,0,0,0c0,0,0,0,0,0c0,0,0,0,0,0c0,0,0,0,0,0
		c0,0,0,0,0.01,0c0,0,0,0,0,0c0,0,0,0,0,0c0,0,0,0,0,0c0,0,0,0,0,0c0,0,0,0,0,0c0,0,0,0,0,0c0,0,0,0,0,0c0,0,0,0,0,0c0,0,0,0,0,0
		c0,0,0,0,0,0c0,0,0,0,0,0c0,0,0,0,0,0c0,0,0,0,0,0c0,0,0,0,0,0c0,0,0,0,0,0c0,0,0,0,0,0c0,0,0,0,0,0c0,0,0,0,0,0c0,0,0,0,0,0
		c0,0,0,0,0.01,0c0,0,0,0,0,0c0.01,0,0.01-0.01,0.02-0.01c0,0,0,0,0,0c0,0,0,0,0.01,0c0,0,0,0,0,0c0,0,0,0,0,0c0,0,0,0,0,0
		c0,0,0,0,0,0c0,0,0,0,0,0c0,0,0,0,0,0c0,0,0,0,0,0c0,0,0,0,0,0c0,0,0,0,0,0c0,0,0,0,0,0c0,0,0,0,0,0c0,0,0,0,0,0c0,0,0,0,0,0
		c0,0,0,0,0,0c0,0,0,0,0,0c0,0,0,0,0.01,0c0,0,0,0,0,0c0.01-0.01,0.02-0.01,0.03-0.02c0,0,0,0,0,0c0,0,0,0,0.01,0c0,0,0,0,0,0
		c0,0,0,0,0.01,0c0,0,0,0,0,0c0,0,0,0,0.01,0c0,0,0,0,0,0c0,0,0,0,0.01,0c0,0,0,0,0,0c0,0,0,0,0.01,0c0,0,0,0,0,0c0,0,0,0,0.01,0
		c0,0,0,0,0,0c0,0,0,0,0.01,0c0,0,0,0,0,0c0.01-0.01,0.03-0.01,0.04-0.02c0,0,0,0,0,0c0,0,0,0,0.01,0c0,0,0,0,0,0c0,0,0,0,0.01,0
		c0,0,0,0,0,0c0,0,0,0,0.01,0c0,0,0,0,0,0c0,0,0,0,0.01,0c0,0,0,0,0,0c0,0,0,0,0.01,0c0,0,0,0,0,0c0,0,0,0,0.01,0c0,0,0,0,0,0
		c0.02-0.01,0.04-0.02,0.06-0.03c0,0,0,0,0,0c0,0,0,0,0.01,0c0,0,0,0,0,0c0,0,0,0,0.01,0c0,0,0,0,0,0c0,0,0,0,0.01,0c0,0,0,0,0,0
		c0,0,0,0,0.01,0c0,0,0,0,0,0c0.02-0.01,0.05-0.02,0.07-0.04h0c0.71-0.35,1.49-0.58,2.3-0.69c0,0,0,0,0,0
		c0.03,0,0.06-0.01,0.09-0.01c0,0,0,0,0,0c0,0,0.01,0,0.01,0c0,0,0,0,0,0c0,0,0.01,0,0.01,0c0,0,0,0,0,0c0,0,0,0,0.01,0c0,0,0,0,0,0
		c0,0,0.01,0,0.01,0c0,0,0,0,0,0c0.02,0,0.04-0.01,0.07-0.01c0,0,0,0,0,0c0,0,0,0,0.01,0c0,0,0,0,0,0c0,0,0,0,0.01,0c0,0,0,0,0,0
		c0,0,0,0,0.01,0c0,0,0,0,0,0c0,0,0,0,0.01,0c0,0,0,0,0,0c0,0,0,0,0.01,0c0,0,0,0,0,0c0,0,0.01,0,0.01,0c0,0,0,0,0,0
		c0.02,0,0.03,0,0.05-0.01c0,0,0,0,0,0c0,0,0,0,0.01,0c0,0,0,0,0,0c0,0,0,0,0.01,0c0,0,0,0,0,0c0,0,0,0,0.01,0c0,0,0,0,0,0
		c0,0,0,0,0.01,0c0,0,0,0,0,0c0,0,0,0,0.01,0c0,0,0,0,0,0c0,0,0,0,0.01,0c0,0,0,0,0,0c0,0,0,0,0.01,0c0,0,0,0,0,0
		c0.02,0,0.03,0,0.05,0c0,0,0,0,0,0c0,0,0,0,0.01,0c0,0,0,0,0,0c0,0,0,0,0.01,0c0,0,0,0,0,0c0,0,0,0,0.01,0c0,0,0,0,0,0
		c0,0,0,0,0.01,0c0,0,0,0,0,0c0,0,0,0,0.01,0c0,0,0,0,0,0c0,0,0,0,0.01,0c0,0,0,0,0,0c0,0,0,0,0.01,0c0,0,0,0,0,0
		c0.01,0,0.03,0,0.04,0c0,0,0,0,0,0c0,0,0,0,0.01,0c0,0,0,0,0,0c0,0,0,0,0.01,0c0,0,0,0,0,0c0,0,0,0,0.01,0c0,0,0,0,0,0
		c0,0,0,0,0.01,0c0,0,0,0,0,0c0,0,0,0,0.01,0c0,0,0,0,0,0c0,0,0,0,0.01,0c0,0,0,0,0,0c0,0,0,0,0.01,0c0,0,0,0,0,0c0,0,0,0,0.01,0
		c0,0,0,0,0,0c0,0,0,0,0.01,0c0,0,0,0,0,0c0.01,0,0.01,0,0.02,0c0,0,0,0,0,0c0,0,0,0,0.01,0c0,0,0,0,0,0c0,0,0,0,0.01,0c0,0,0,0,0,0
		c0,0,0,0,0.01,0c0,0,0,0,0,0c0,0,0,0,0.01,0c0,0,0,0,0,0c0,0,0,0,0,0c0,0,0,0,0,0c0,0,0,0,0,0c0,0,0,0,0,0c0,0,0,0,0,0c0,0,0,0,0,0
		c0,0,0,0,0,0c0,0,0,0,0,0c0,0,0,0,0,0c0,0,0,0,0,0c0,0,0,0,0.01,0c0,0,0,0,0,0c0,0,0.01,0,0.01,0c0,0,0,0,0,0c0,0,0,0,0,0
		c0,0,0,0,0,0c0,0,0,0,0,0c0,0,0,0,0,0c0,0,0,0,0,0c0,0,0,0,0,0c0,0,0,0,0,0c0,0,0,0,0,0c0,0,0,0,0,0c0,0,0,0,0,0c0,0,0,0,0,0
		c0,0,0,0,0,0c0,0,0,0,0,0c0,0,0,0,0,0c0,0,0,0,0,0c0,0,0,0,0,0c0,0,0,0,0,0c0,0,0,0,0,0c0,0,0,0,0,0c0,0,0,0,0.01,0c0,0,0,0,0,0
		c0,0,0.01,0,0.01,0c0,0,0,0,0,0c0,0,0,0,0.01,0c0,0,0,0,0,0c0,0,0,0,0,0c0,0,0,0,0,0c0,0,0,0,0,0c0,0,0,0,0,0c0,0,0,0,0,0
		c0,0,0,0,0,0c0,0,0,0,0,0c0,0,0,0,0,0c0,0,0,0,0,0c0,0,0,0,0,0c0,0,0,0,0,0c0,0,0,0,0,0c0,0,0,0,0,0c0,0,0,0,0,0c0,0,0,0,0,0
		c0,0,0,0,0,0c0,0,0,0,0.01,0c0,0,0,0,0,0c0,0,0,0,0.01,0c0,0,0,0,0,0c0,0,0.01,0,0.01,0c0,0,0,0,0,0c0,0,0,0,0.01,0c0,0,0,0,0,0
		c0,0,0,0,0.01,0c0,0,0,0,0,0c0,0,0,0,0.01,0c0,0,0,0,0,0c0,0,0,0,0,0c0,0,0,0,0,0c0,0,0,0,0,0c0,0,0,0,0,0c0,0,0,0,0,0c0,0,0,0,0,0
		c0,0,0,0,0,0c0,0,0,0,0,0c0,0,0,0,0,0c0,0,0,0,0,0c0,0,0,0,0.01,0c0,0,0,0,0,0c0,0,0,0,0.01,0c0,0,0,0,0,0c0,0,0,0,0.01,0
		c0,0,0,0,0,0c0,0,0.01,0,0.01,0c0,0,0,0,0,0c0,0,0,0,0.01,0c0,0,0,0,0,0c0,0,0,0,0.01,0c0,0,0,0,0,0c0,0,0,0,0,0c0,0,0,0,0,0
		c0,0,0,0,0,0c0,0,0,0,0,0c0,0,0,0,0,0c0,0,0,0,0,0c0,0,0,0,0.01,0c0,0,0,0,0,0c0,0,0,0,0,0c0,0,0,0,0,0c0,0,0,0,0.01,0c0,0,0,0,0,0
		c0,0,0,0,0.01,0c0,0,0,0,0,0c0,0,0,0,0.01,0c0,0,0,0,0,0c0,0,0.01,0,0.01,0c0.09,0,0.18,0.02,0.26,0.05
		c0.07-0.03,0.14-0.04,0.22-0.04c0.01,0,0.03,0,0.04,0c0,0,0,0,0,0c0,0,0,0,0.01,0c0,0,0,0,0,0c0.01,0,0.03,0,0.04,0c0,0,0,0,0,0
		c0,0,0,0,0.01,0c0,0,0,0,0,0c0,0,0,0,0.01,0c0,0,0,0,0,0c0,0,0,0,0.01,0c0,0,0,0,0,0c0,0,0,0,0.01,0c0,0,0,0,0,0
		c0.01,0,0.03,0,0.04,0c0,0,0,0,0,0c0,0,0,0,0.01,0c0,0,0,0,0,0c0,0,0,0,0.01,0c0,0,0,0,0,0c0,0,0,0,0.01,0c0,0,0,0,0,0
		c0.02,0,0.03,0,0.05,0c0,0,0,0,0,0c0,0,0.01,0,0.01,0c0,0,0,0,0,0c0,0,0,0,0.01,0c0,0,0,0,0,0c0,0,0.01,0,0.01,0c0,0,0,0,0,0
		c0.02,0,0.04,0,0.06,0.01c0,0,0,0,0,0c0,0,0.01,0,0.01,0c0,0,0,0,0,0c0,0,0.01,0,0.01,0c0,0,0,0,0,0c1.21,0.12,2.38,0.5,3.33,1.14
		c0,0,0,0,0,0c0,0,0,0,0.01,0c0,0,0,0,0,0c0,0,0,0,0.01,0c0,0,0,0,0,0c0,0,0,0,0.01,0c0,0,0,0,0,0c0,0,0,0,0.01,0h0
		c0.01,0.01,0.02,0.01,0.02,0.02c0,0,0,0,0,0c0,0,0,0,0,0c0,0,0,0,0,0c0,0,0,0,0,0c0,0,0,0,0,0c0,0,0,0,0,0c0,0,0,0,0,0c0,0,0,0,0,0
		c0,0,0,0,0,0c0,0,0,0,0,0c0,0,0,0,0,0c0,0,0,0,0,0c0,0,0,0,0,0c0,0,0.01,0,0.01,0.01c0,0,0,0,0,0c0,0,0,0,0,0c0,0,0,0,0,0
		c0,0,0,0,0,0c0,0,0,0,0,0c0,0,0,0,0,0c0,0,0,0,0,0c0,0,0,0,0,0c0,0,0,0,0,0c0,0,0,0,0,0c0,0,0,0,0,0c0,0,0,0,0,0c0,0,0,0,0,0
		c0,0,0,0,0,0c0,0,0,0,0.01,0l0.14,0.1C111.87,44.42,111.94,44.82,111.73,45.11z M83.67,68.19c-0.35,0-0.64-0.29-0.64-0.64v-4.21
		c0-0.35,0.29-0.64,0.64-0.64s0.64,0.29,0.64,0.64v4.21C84.31,67.9,84.02,68.19,83.67,68.19z M88.43,72.86
		c0.28,0.21,0.35,0.61,0.14,0.89c-0.12,0.17-0.32,0.26-0.52,0.26c-0.13,0-0.26-0.04-0.38-0.12l-2.9-2.13c0,0,0,0,0,0c0,0,0,0,0,0
		c0,0,0,0,0,0c0,0,0,0,0,0c0,0,0,0,0,0c0,0,0,0,0,0c0,0,0,0,0,0c0,0,0,0,0,0c-0.16-0.12-0.32-0.25-0.46-0.38
		c-0.26-0.24-0.27-0.64-0.03-0.9c0.13-0.14,0.3-0.2,0.47-0.2c0.16,0,0.31,0.06,0.43,0.17c0.11,0.1,0.23,0.2,0.36,0.29L88.43,72.86z"
		/>
</g>
<g id="Layer_2">
</g>
</svg>
