<?xml version="1.0" encoding="utf-8"?>
<!-- Generator: Adobe Illustrator 22.1.0, SVG Export Plug-In . SVG Version: 6.00 Build 0)  -->
<svg version="1.1" id="Layer_1" xmlns="http://www.w3.org/2000/svg" xmlns:xlink="http://www.w3.org/1999/xlink" x="0px" y="0px"
	 width="142px" height="142px" viewBox="0 0 142 142" style="enable-background:new 0 0 142 142;" xml:space="preserve">
<style type="text/css">
	.st0{fill:url(#SVGID_1_);}
</style>
<linearGradient id="SVGID_1_" gradientUnits="userSpaceOnUse" x1="124.9115" y1="1068.0785" x2="18.6336" y2="961.5797" gradientTransform="matrix(1 0 0 1 0 -943.06)">
	<stop  offset="0" style="stop-color:#B33C8A"/>
	<stop  offset="1" style="stop-color:#EE4F86"/>
</linearGradient>
<path class="st0" d="M87.47,54.525c-9.08-9.08-23.86-9.08-32.94,0c-4.4,4.4-6.82,10.25-6.82,16.47s2.42,12.07,6.82,16.47
	s10.25,6.82,16.47,6.82s12.07-2.42,16.47-6.82s6.82-10.25,6.82-16.47S91.87,58.925,87.47,54.525L87.47,54.525z M55.43,55.435
	c8.43-8.43,22.06-8.58,30.68-0.45l-29.9,29.89l-1.23,1.23c-3.88-4.1-6-9.44-6-15.11C48.98,65.115,51.27,59.585,55.43,55.435z
	 M86.57,86.565c-4.16,4.16-9.69,6.45-15.57,6.45c-5.67,0-11.01-2.13-15.11-6l31.12-31.12c3.88,4.1,6,9.44,6,15.11
	C93.02,76.875,90.73,82.405,86.57,86.565z"/>
<g id="Layer_2_1_">
</g>
</svg>
