<?xml version="1.0" encoding="utf-8"?>
<!-- Generator: Adobe Illustrator 21.1.0, SVG Export Plug-In . SVG Version: 6.00 Build 0)  -->
<svg width="75px" height="82px" version="1.1" id="Layer_1" xmlns="http://www.w3.org/2000/svg" xmlns:xlink="http://www.w3.org/1999/xlink" x="0px" y="0px"
	 viewBox="0 0 75 82" style="enable-background:new 0 0 75 82;" xml:space="preserve">
<style type="text/css">
	.st0{fill:#D51F34;}
	.st1{fill:#663994;}
</style>
<g>
	<g>
		<path class="st0" d="M74.8,56.3L50.6,10.7C45.4,0.9,33.2-2.9,23.4,2.3c-9.5,5-13.2,16.6-8.7,26.3L0,44.3l22.2-1.5l17.1,32.3
			L74.8,56.3z M21.9,28.6c-3.6-6.9-1-15.4,5.9-19.1c6.9-3.6,15.4-1,19.1,5.9c3.6,6.9,1,15.4-5.9,19.1C34.1,38.2,25.5,35.5,21.9,28.6
			z"/>
		<path class="st0" d="M32,17.5c-2.5,1.4-3.4,4.3-2.1,6.8s4.3,3.4,6.8,2.1s3.4-4.3,2.1-6.8S34.5,16.2,32,17.5z M35.7,24.6
			c-1.4,0.7-3.2,0.2-3.9-1.2C31,22,31.6,20.3,33,19.5c1.4-0.8,3.1-0.2,3.9,1.2C37.7,22.1,37.1,23.8,35.7,24.6z"/>
	</g>
	<g>
		<path class="st1" d="M63.8,62.2l-4.7,2.5l5.1,9.6c0.7,1.3,2.3,1.8,3.6,1.1s1.8-2.3,1.1-3.6L63.8,62.2z"/>
		<path class="st1" d="M53.1,67.8l-4.7,2.5l5.1,9.6c0.7,1.3,2.3,1.8,3.6,1.1c1.2-0.7,1.7-2.3,1.1-3.6L53.1,67.8z"/>
	</g>
</g>
</svg>
