<?xml version="1.0" encoding="utf-8"?>
<!-- Generator: Adobe Illustrator 18.0.0, SVG Export Plug-In . SVG Version: 6.00 Build 0)  -->
<!DOCTYPE svg PUBLIC "-//W3C//DTD SVG 1.1//EN" "http://www.w3.org/Graphics/SVG/1.1/DTD/svg11.dtd">
<svg version="1.1" id="Layer_1" xmlns="http://www.w3.org/2000/svg" xmlns:xlink="http://www.w3.org/1999/xlink" x="0px" y="0px"
	 width="1044px" height="599px" viewBox="0 0 1044 599" enable-background="new 0 0 1044 599" xml:space="preserve">
<g>
	<g>
		<g opacity="0.7">
			
				<linearGradient id="SVGID_1_" gradientUnits="userSpaceOnUse" x1="105.7081" y1="327.25" x2="949.6678" y2="327.25" gradientTransform="matrix(1 0 0 -1 0 618)">
				<stop  offset="5.454550e-02" style="stop-color:#8C8C8C"/>
				<stop  offset="0.2182" style="stop-color:#A0A0A0"/>
				<stop  offset="0.4" style="stop-color:#787878"/>
				<stop  offset="0.6424" style="stop-color:#A0A0A0"/>
				<stop  offset="0.8364" style="stop-color:#787878"/>
				<stop  offset="1" style="stop-color:#A0A0A0"/>
			</linearGradient>
			<path fill="url(#SVGID_1_)" d="M910.8,9H134c-14.5,0-26.3,11.8-26.3,26.3v23.6v151.3v195.7v138.6v10.1c0,9.9,8.1,17.9,17.9,17.9
				h793.5c9.9,0,17.9-8.1,17.9-17.9v-10.1V405.9V210.2V58.8V35.3C937.1,20.8,925.2,9,910.8,9z"/>
			
				<linearGradient id="SVGID_2_" gradientUnits="userSpaceOnUse" x1="105.3" y1="327.3" x2="949.2593" y2="327.3" gradientTransform="matrix(1 0 0 -1 0 618)">
				<stop  offset="5.454550e-02" style="stop-color:#8C8C8C"/>
				<stop  offset="0.2182" style="stop-color:#A0A0A0"/>
				<stop  offset="0.4" style="stop-color:#787878"/>
				<stop  offset="0.6424" style="stop-color:#A0A0A0"/>
				<stop  offset="0.8364" style="stop-color:#787878"/>
				<stop  offset="1" style="stop-color:#A0A0A0"/>
			</linearGradient>
			<path fill="url(#SVGID_2_)" d="M919.2,574.8H125.6c-11.2,0-20.3-9.1-20.3-20.3V35.3c0-15.8,12.9-28.7,28.7-28.7h776.8
				c15.8,0,28.7,12.9,28.7,28.7v519.3C939.5,565.7,930.4,574.8,919.2,574.8z M134,11.4c-13.2,0-23.9,10.7-23.9,23.9v519.3
				c0,8.6,7,15.5,15.5,15.5h793.5c8.6,0,15.5-7,15.5-15.5V35.3c0-13.2-10.7-23.9-23.9-23.9H134z"/>
		</g>
		<g>
			<path fill="#1C1F23" d="M937.1,557.4c0,8.2-6.8,15-15,15H122.7c-8.2,0-15-6.8-15-15V55.9c0-8.2,6.8-15,15-15h799.4
				c8.2,0,15,6.8,15,15L937.1,557.4L937.1,557.4z"/>
		</g>
		
			<linearGradient id="SVGID_3_" gradientUnits="userSpaceOnUse" x1="522.4" y1="51.3808" x2="522.4" y2="63.9243" gradientTransform="matrix(1 0 0 -1 0 618)">
			<stop  offset="0" style="stop-color:#2B2C2E"/>
			<stop  offset="0.5879" style="stop-color:#272B30"/>
			<stop  offset="0.7879" style="stop-color:#0A0E11"/>
			<stop  offset="1" style="stop-color:#070B0E"/>
		</linearGradient>
		<rect x="193.6" y="554.1" fill="url(#SVGID_3_)" width="657.6" height="12.5"/>
		<path fill="#000003" stroke="#323232" stroke-miterlimit="10" d="M910.8,9H134c-14.5,0-26.3,11.8-26.3,26.3v174.9v195.7v138.6
			c0,5.3,4.3,9.6,9.6,9.6h810.1c5.3,0,9.6-4.3,9.6-9.6V405.9V210.2V35.3C937.1,20.8,925.2,9,910.8,9z"/>
		<g>
			<g>
				<rect id="SVGID_124_" x="130.8" y="40.9" fill="#E8E9EA" width="783" height="492.8"/>
			</g>
		</g>
		
			<linearGradient id="SVGID_4_" gradientUnits="userSpaceOnUse" x1="8.7" y1="41.7" x2="1034.1" y2="41.7" gradientTransform="matrix(1 0 0 -1 0 618)">
			<stop  offset="0" style="stop-color:#828387"/>
			<stop  offset="5.801720e-03" style="stop-color:#D0D1D3"/>
			<stop  offset="2.559890e-02" style="stop-color:#929397"/>
			<stop  offset="5.416330e-02" style="stop-color:#D1D2D5"/>
			<stop  offset="0.5091" style="stop-color:#F3F3F4"/>
			<stop  offset="0.9364" style="stop-color:#D1D2D5"/>
			<stop  offset="0.9672" style="stop-color:#929397"/>
			<stop  offset="0.9894" style="stop-color:#E6E6E6"/>
			<stop  offset="0.9955" style="stop-color:#D0D1D3"/>
			<stop  offset="1" style="stop-color:#828387"/>
		</linearGradient>
		<rect x="8.7" y="566.8" fill="url(#SVGID_4_)" width="1025.4" height="19"/>
		
			<linearGradient id="SVGID_5_" gradientUnits="userSpaceOnUse" x1="449.9791" y1="45.05" x2="593" y2="45.05" gradientTransform="matrix(1 0 0 -1 0 618)">
			<stop  offset="0" style="stop-color:#95969B"/>
			<stop  offset="7.878790e-02" style="stop-color:#D8D9DB"/>
			<stop  offset="0.5455" style="stop-color:#D7D8DB"/>
			<stop  offset="0.9212" style="stop-color:#D8D9DB"/>
			<stop  offset="1" style="stop-color:#95969B"/>
		</linearGradient>
		<path fill="url(#SVGID_5_)" d="M583.2,579h-61.7h-62.4c0,0-4-0.6-6.8-4.7c-2.7-4-2.3-7.4-2.3-7.4h71.5H593c0,0-0.5,5-3.3,8.2
			C586.6,578.3,583.2,579,583.2,579z"/>
		
			<linearGradient id="SVGID_6_" gradientUnits="userSpaceOnUse" x1="521.4" y1="18.9013" x2="521.4" y2="32.1771" gradientTransform="matrix(1 0 0 -1 0 618)">
			<stop  offset="0" style="stop-color:#2B2C2E"/>
			<stop  offset="0.1452" style="stop-color:#3C3D40"/>
			<stop  offset="0.3721" style="stop-color:#5F6064"/>
			<stop  offset="0.7504" style="stop-color:#88898D"/>
			<stop  offset="1" style="stop-color:#909195"/>
		</linearGradient>
		<path fill="url(#SVGID_6_)" d="M8.7,585.8c0,0,5.9,4.8,22.5,9.6c13.9,4,37.6,3.6,37.6,3.6H974c0,0,23.8,0.4,37.6-3.6
			c16.7-4.8,22.5-9.6,22.5-9.6H8.7z"/>
		<defs>
			<filter id="Adobe_OpacityMaskFilter" filterUnits="userSpaceOnUse" x="8.7" y="599.2" width="1025.4" height="13.2">
				<feColorMatrix  type="matrix" values="1 0 0 0 0  0 1 0 0 0  0 0 1 0 0  0 0 0 1 0"/>
			</filter>
		</defs>
		<mask maskUnits="userSpaceOnUse" x="8.7" y="599.2" width="1025.4" height="13.2" id="SVGID_9_">
			<g filter="url(#Adobe_OpacityMaskFilter)">
				
					<linearGradient id="SVGID_7_" gradientUnits="userSpaceOnUse" x1="518.6" y1="20.6579" x2="518.6" y2="6.2265" gradientTransform="matrix(1 0 0 -1 0 618)">
					<stop  offset="0" style="stop-color:#FFFFFF"/>
					<stop  offset="1" style="stop-color:#000000"/>
				</linearGradient>
				<rect x="-1.8" y="591.5" fill="url(#SVGID_7_)" width="1040.8" height="25.7"/>
			</g>
		</mask>
		<path opacity="0.55" mask="url(#SVGID_9_)" fill="#B9BABD" enable-background="new    " d="M8.7,612.4c0,0,5.9-4.8,22.5-9.6
			c13.9-4,37.6-3.6,37.6-3.6H974c0,0,23.8-0.3,37.6,3.6c16.7,4.8,22.5,9.6,22.5,9.6H8.7z"/>
	</g>
</g>
<rect x="126.3" y="36.7" fill="#000003" width="793.3" height="500"/>
</svg>
