<?xml version="1.0" encoding="utf-8"?>
<!-- Generator: Adobe Illustrator 22.1.0, SVG Export Plug-In . SVG Version: 6.00 Build 0)  -->
<svg width="1172px" height="398px" version="1.1" id="Layer_1" xmlns="http://www.w3.org/2000/svg" xmlns:xlink="http://www.w3.org/1999/xlink" x="0px" y="0px"
	 viewBox="0 0 1172 398" style="enable-background:new 0 0 1172 398;" xml:space="preserve">
<style type="text/css">
	.st0{fill:url(#XMLID_13_);}
	.st1{fill:url(#XMLID_18_);}
	.st2{fill:#633694;}
	.st3{fill:#4F2D9F;}
	.st4{fill:url(#XMLID_19_);}
	.st5{fill:url(#XMLID_20_);}
	.st6{fill:#D5032F;}
	.st7{fill:url(#XMLID_21_);}
	.st8{fill:#EB6C9A;}
	.st9{fill:none;}
	.st10{fill:#E43373;}
	.st11{fill:url(#XMLID_22_);}
	.st12{fill:url(#XMLID_23_);}
	.st13{fill:url(#XMLID_24_);}
	.st14{fill:#50358B;}
	.st15{fill:#FFFFFF;filter:url(#Adobe_OpacityMaskFilter);}
	.st16{mask:url(#mask_2_);}
	.st17{fill:#ED4D86;stroke:#D5032F;stroke-width:26.625;stroke-linecap:round;stroke-linejoin:round;}
	.st18{fill:none;stroke:#D5032F;stroke-width:26.625;stroke-linecap:round;stroke-linejoin:round;}
	.st19{fill:none;stroke:#D5032F;stroke-width:17.75;stroke-linecap:round;stroke-linejoin:round;}
	.st20{fill:#FFFFFF;}
	.st21{fill:none;stroke:#FFFFFF;stroke-width:11.0938;stroke-linecap:round;stroke-linejoin:round;}
	.st22{fill:#ED4D86;stroke:#FFFFFF;stroke-width:13.3125;stroke-linecap:round;stroke-linejoin:round;}
	.st23{fill:#EE4D87;}
</style>
<linearGradient id="XMLID_13_" gradientUnits="userSpaceOnUse" x1="1075.9971" y1="310.6991" x2="1075.9971" y2="241.9875">
	<stop  offset="0" style="stop-color:#EB6C9A"/>
	<stop  offset="1" style="stop-color:#633694"/>
</linearGradient>
<path id="XMLID_315_" class="st0" d="M1075.9971,241.9875c-30.3472,0-54.9484,24.6012-54.9484,54.9484v2.7735
	c0,6.0443,4.9454,10.9896,10.9897,10.9896h87.9175c6.0443,0,10.9896-4.9454,10.9896-10.9896v-2.7735
	C1130.9454,266.5887,1106.3442,241.9875,1075.9971,241.9875z"/>
<linearGradient id="XMLID_18_" gradientUnits="userSpaceOnUse" x1="404.9971" y1="306.6991" x2="404.9971" y2="237.9875">
	<stop  offset="0" style="stop-color:#EB6C9A"/>
	<stop  offset="1" style="stop-color:#633694"/>
</linearGradient>
<path id="XMLID_1_" class="st1" d="M404.9971,237.9875c-30.3472,0-54.9485,24.6012-54.9485,54.9484v2.7735
	c0,6.0443,4.9454,10.9896,10.9897,10.9896h87.9175c6.0443,0,10.9896-4.9454,10.9896-10.9896v-2.7735
	C459.9455,262.5887,435.3443,237.9875,404.9971,237.9875z"/>
<g id="XMLID_256_">
	<path id="XMLID_314_" class="st2" d="M995.1255,59.548c-4.1413-1.553-6.9326,5.6721-4.5692,5.6721
		C992.9197,65.2201,997.6464,60.4934,995.1255,59.548z"/>
	<path id="XMLID_313_" class="st2" d="M972.2197,86.0178c-1.3235,0.509-4.0966,4.4116-2.8361,5.0419
		c1.2604,0.6302,6.3023-1.8907,6.3023-3.1512S974.2679,85.23,972.2197,86.0178z"/>
	<path id="XMLID_312_" class="st2" d="M1001.7141,71.7669c-1.3235,0.509-4.0965,4.4116-2.836,5.0419
		c1.2604,0.6302,6.3023-1.8907,6.3023-3.1512S1003.7624,70.9791,1001.7141,71.7669z"/>
	<path id="XMLID_311_" class="st2" d="M988.4321,70.6411c-4.1713,0.7454-8.6619,5.832-7.532,6.4152
		c1.1298,0.5832,9.4151-3.6159,9.4151-5.1322S991.696,70.0579,988.4321,70.6411z"/>
	<path id="XMLID_310_" class="st2" d="M1030.8934,54.1238c-3.6309,2.5935-5.9872,5.8297-3.4663,5.5145
		c2.521-0.3151,12.4471-6.4599,10.714-7.4052S1033.0992,52.5482,1030.8934,54.1238z"/>
	<path id="XMLID_309_" class="st2" d="M986.1447,81.6062c-3.3331,2.0511-5.9872,4.4116-3.4663,4.4116s9.296-1.5756,9.296-4.0965
		S988.1929,80.3457,986.1447,81.6062z"/>
	<path id="XMLID_308_" class="st2" d="M981.733,69.0015c2.8964-1.1586,5.0419-5.9872,2.0482-4.7268
		c-2.9936,1.2605-6.6174,3.4663-6.6174,4.5692C977.1638,69.9469,980.1574,69.6318,981.733,69.0015z"/>
	<path id="XMLID_307_" class="st2" d="M1012.9578,34.7137c-4.1412-1.553-6.9326,5.6721-4.5692,5.6721
		C1010.752,40.3858,1015.4787,35.6591,1012.9578,34.7137z"/>
	<path id="XMLID_306_" class="st2" d="M1027.905,42.4501c-1.3235,0.509-4.0965,4.4116-2.8361,5.0419
		c1.2605,0.6302,6.3024-1.8907,6.3024-3.1512S1029.9534,41.6623,1027.905,42.4501z"/>
	<path id="XMLID_305_" class="st2" d="M1017.2728,50.8647c-4.1714,0.7454-8.6619,5.832-7.532,6.4152s9.415-3.6159,9.415-5.1322
		S1020.5367,50.2815,1017.2728,50.8647z"/>
	<path id="XMLID_304_" class="st2" d="M991.1721,51.4091c-3.6309,2.5935-5.9872,5.8297-3.4663,5.5145s12.4471-6.4599,10.714-7.4052
		S993.3779,49.8335,991.1721,51.4091z"/>
	<path id="XMLID_303_" class="st2" d="M990.7237,97.6053c-3.3331,2.0511-5.9872,4.4116-3.4663,4.4116s9.296-1.5756,9.296-4.0965
		S992.772,96.3448,990.7237,97.6053z"/>
	<path id="XMLID_302_" class="st2" d="M1010.5736,49.2251c2.8964-1.1586,5.0419-5.9872,2.0483-4.7268s-6.6174,3.4663-6.6174,4.5692
		S1008.998,49.8553,1010.5736,49.2251z"/>
	<path id="XMLID_301_" class="st2" d="M1025.406,25.9606c-4.1413-1.553-6.9326,5.6721-4.5693,5.6721
		C1023.2001,31.6327,1027.9269,26.9059,1025.406,25.9606z"/>
	<path id="XMLID_300_" class="st2" d="M1056.7457,22.6737c-1.3236,0.509-4.0966,4.4116-2.8361,5.0419
		c1.2604,0.6302,6.3022-1.8907,6.3022-3.1512S1058.7939,21.8859,1056.7457,22.6737z"/>
	<path id="XMLID_299_" class="st2" d="M1040.3782,32.8217c-4.1714,0.7454-8.6619,5.832-7.532,6.4152
		c1.1298,0.5832,9.415-3.6159,9.415-5.1322S1043.6421,32.2385,1040.3782,32.8217z"/>
	<path id="XMLID_298_" class="st2" d="M1056.9032,32.7574c-3.6309,2.5935-5.9872,5.8297-3.4663,5.5145
		c2.521-0.3151,12.4471-6.4599,10.714-7.4052C1062.4177,29.9213,1059.109,31.1818,1056.9032,32.7574z"/>
	<path id="XMLID_297_" class="st2" d="M1075.3575,81.5083c-3.6309,2.5935-5.9872,5.8297-3.4662,5.5145
		c2.5209-0.3151,12.447-6.4599,10.7139-7.4052S1077.5634,79.9328,1075.3575,81.5083z"/>
	<path id="XMLID_296_" class="st2" d="M1043.8259,42.0533c-3.3331,2.0511-5.9873,4.4116-3.4663,4.4116
		c2.5209,0,9.2959-1.5756,9.2959-4.0965C1049.6555,39.8475,1045.8741,40.7929,1043.8259,42.0533z"/>
	<path id="XMLID_295_" class="st2" d="M1040.0093,23.2007c2.8964-1.1586,5.0419-5.9872,2.0482-4.7268
		c-2.9935,1.2605-6.6174,3.4663-6.6174,4.5692S1038.4337,23.8309,1040.0093,23.2007z"/>
	<path id="XMLID_294_" class="st2" d="M1081.6473,0.2187c-4.1412-1.553-6.9326,5.6721-4.5692,5.6721
		S1084.1682,1.1641,1081.6473,0.2187z"/>
	<path id="XMLID_293_" class="st2" d="M1085.5863,2.8972c-1.3235,0.509-4.0966,4.4116-2.8361,5.0419s6.3024-1.8907,6.3024-3.1512
		S1087.6345,2.1094,1085.5863,2.8972z"/>
	<path id="XMLID_292_" class="st2" d="M1071.9259,23.3925c-1.3236,0.509-4.0966,4.4116-2.8361,5.0419
		c1.2604,0.6302,6.3022-1.8907,6.3022-3.1512S1073.9741,22.6047,1071.9259,23.3925z"/>
	<path id="XMLID_291_" class="st2" d="M1074.954,11.3119c-4.1714,0.7454-8.6619,5.832-7.532,6.4152
		c1.1298,0.5832,9.415-3.6159,9.415-5.1322S1078.2179,10.7286,1074.954,11.3119z"/>
	<path id="XMLID_290_" class="st2" d="M1085.7439,12.981c-3.631,2.5935-5.9873,5.8297-3.4663,5.5145
		c2.5209-0.3151,12.4471-6.4599,10.714-7.4052C1091.2584,10.1449,1087.9497,11.4054,1085.7439,12.981z"/>
	<path id="XMLID_289_" class="st2" d="M1057.9176,12.6803c-3.3331,2.0511-5.9873,4.4116-3.4663,4.4116
		c2.5209,0,9.2959-1.5756,9.2959-4.0965S1059.9658,11.4198,1057.9176,12.6803z"/>
	<path id="XMLID_288_" class="st2" d="M1052.5985,12.0138c2.8964-1.1586,5.0419-5.9872,2.0482-4.7268
		c-2.9935,1.2605-6.6174,3.4663-6.6174,4.5692S1051.0229,12.644,1052.5985,12.0138z"/>
	<path id="XMLID_287_" class="st2" d="M1022.3181,80.1485c-4.1412-1.553-6.9326,5.6721-4.5692,5.6721
		C1020.1122,85.8206,1024.839,81.0938,1022.3181,80.1485z"/>
	<path id="XMLID_286_" class="st2" d="M1026.2571,82.8269c-1.3236,0.509-4.0966,4.4116-2.8361,5.0419s6.3023-1.8907,6.3023-3.1512
		S1028.3053,82.0392,1026.2571,82.8269z"/>
	<path id="XMLID_285_" class="st2" d="M1028.9067,92.3673c-1.3235,0.509-4.0966,4.4116-2.8361,5.0419s6.3024-1.8907,6.3024-3.1512
		S1030.955,91.5795,1028.9067,92.3673z"/>
	<path id="XMLID_284_" class="st2" d="M1058.0861,74.7242c-3.6309,2.5935-5.9873,5.8297-3.4663,5.5145
		c2.5209-0.3151,12.4471-6.4599,10.714-7.4052S1060.2919,73.1487,1058.0861,74.7242z"/>
	<path id="XMLID_283_" class="st2" d="M1013.3372,102.2066c-3.3331,2.0511-5.9872,4.4116-3.4662,4.4116s9.2959-1.5756,9.2959-4.0965
		S1015.3855,100.9462,1013.3372,102.2066z"/>
	<path id="XMLID_282_" class="st2" d="M1008.9256,89.602c2.8964-1.1586,5.0419-5.9872,2.0483-4.7268
		c-2.9937,1.2605-6.6175,3.4663-6.6175,4.5692C1004.3564,90.5473,1007.35,90.2322,1008.9256,89.602z"/>
	<path id="XMLID_281_" class="st2" d="M1057.7509,48.8358c-4.1414-1.553-6.9326,5.6721-4.5692,5.6721
		S1060.2717,49.7811,1057.7509,48.8358z"/>
	<path id="XMLID_280_" class="st2" d="M1055.0977,63.0505c-1.3235,0.509-4.0966,4.4116-2.8361,5.0419s6.3024-1.8907,6.3024-3.1512
		S1057.1459,62.2627,1055.0977,63.0505z"/>
	<path id="XMLID_279_" class="st2" d="M1044.4653,71.4651c-4.1714,0.7454-8.6619,5.832-7.532,6.4152
		c1.1298,0.5832,9.415-3.6159,9.415-5.1322S1047.7292,70.8819,1044.4653,71.4651z"/>
	<path id="XMLID_278_" class="st2" d="M980.9443,92.5702c-3.6309,2.5935-5.9872,5.8297-3.4662,5.5145s12.4471-6.4599,10.7139-7.4053
		C986.4589,89.7341,983.1501,90.9946,980.9443,92.5702z"/>
	<path id="XMLID_277_" class="st2" d="M968.6636,75.3342c-3.3331,2.0511-5.9872,4.4116-3.4662,4.4116s9.2959-1.5756,9.2959-4.0965
		S970.7119,74.0738,968.6636,75.3342z"/>
	<path id="XMLID_276_" class="st2" d="M1040.213,65.2c2.8964-1.1585,5.0417-5.9872,2.0482-4.7267
		c-2.9937,1.2605-6.6174,3.4663-6.6174,4.5692C1035.6438,66.1454,1038.6373,65.8303,1040.213,65.2z"/>
	<path id="XMLID_275_" class="st2" d="M1079.9993,40.5956c-4.1412-1.553-6.9325,5.6721-4.5692,5.6721
		C1077.7935,46.2677,1082.5203,41.541,1079.9993,40.5956z"/>
	<path id="XMLID_274_" class="st2" d="M1085.9342,25.8645c-1.3236,0.509-4.0966,4.4116-2.8361,5.0419
		c1.2604,0.6302,6.3022-1.8907,6.3022-3.1512C1089.4004,26.4948,1087.9824,25.0767,1085.9342,25.8645z"/>
	<path id="XMLID_273_" class="st2" d="M1073.3059,51.6887c-4.1713,0.7454-8.6619,5.832-7.532,6.4152
		c1.1298,0.5832,9.415-3.6159,9.415-5.1322S1076.5698,51.1055,1073.3059,51.6887z"/>
	<path id="XMLID_269_" class="st2" d="M1084.0958,53.3578c-3.6309,2.5935-5.9872,5.8297-3.4663,5.5145
		c2.521-0.3151,12.4471-6.4599,10.714-7.4052S1086.3016,51.7823,1084.0958,53.3578z"/>
	<path id="XMLID_268_" class="st2" d="M1080.3031,68.3241c-3.3331,2.0511-5.9872,4.4116-3.4663,4.4116
		c2.521,0,9.296-1.5756,9.296-4.0965S1082.3514,67.0636,1080.3031,68.3241z"/>
	<path id="XMLID_267_" class="st2" d="M1066.6068,50.0491c2.8964-1.1586,5.0419-5.9872,2.0482-4.7268
		c-2.9935,1.2605-6.6174,3.4663-6.6174,4.5692S1065.0312,50.6793,1066.6068,50.0491z"/>
	<path id="XMLID_266_" class="st2" d="M1111.312,8.4589c-4.1414-1.553-6.9326,5.6721-4.5692,5.6721
		S1113.8329,9.4043,1111.312,8.4589z"/>
	<path id="XMLID_265_" class="st2" d="M1112.7789,23.4977c-1.3236,0.509-4.0966,4.4116-2.8361,5.0419
		c1.2604,0.6302,6.3022-1.8907,6.3022-3.1512S1114.8271,22.7099,1112.7789,23.4977z"/>
	<path id="XMLID_264_" class="st2" d="M1102.4146,44.8169c-1.3236,0.509-4.0966,4.4116-2.8361,5.0419
		c1.2604,0.6302,6.3022-1.8907,6.3022-3.1512S1104.4628,44.0292,1102.4146,44.8169z"/>
	<path id="XMLID_263_" class="st2" d="M1102.1466,31.9123c-4.1714,0.7454-8.6619,5.832-7.5321,6.4152
		c1.1299,0.5832,9.415-3.6159,9.415-5.1322C1104.0295,31.679,1105.4105,31.3291,1102.1466,31.9123z"/>
	<path id="XMLID_259_" class="st2" d="M1112.9364,33.5814c-3.6309,2.5935-5.9872,5.8297-3.4663,5.5145
		c2.521-0.3151,12.4471-6.4599,10.714-7.4052C1118.4509,30.7454,1115.1422,32.0058,1112.9364,33.5814z"/>
	<path id="XMLID_258_" class="st2" d="M1071.9259,34.9287c-3.3331,2.0511-5.9873,4.4116-3.4663,4.4116
		c2.5209,0,9.2959-1.5756,9.2959-4.0965C1077.7555,32.7229,1073.9741,33.6683,1071.9259,34.9287z"/>
	<path id="XMLID_257_" class="st2" d="M1095.4474,30.2727c2.8965-1.1586,5.0419-5.9872,2.0483-4.7268
		c-2.9937,1.2605-6.6174,3.4663-6.6174,4.5692S1093.8718,30.9029,1095.4474,30.2727z"/>
</g>
<path id="XMLID_246_" class="st3" d="M419.8938,246.1111c-3.2778,0-5.9448-2.667-5.9448-5.944v-30.0344
	c-14.2097-0.5046-25.8291-2.9763-26.3416-3.0865l-8.2415-1.7756l8.0228-2.599c0.1-0.032,9.0633-2.9794,15.969-8.6594
	c-9.0571-0.9218-15.4378-2.2826-15.7502-2.3498l-8.2399-1.7764l8.0212-2.5982c0.1-0.032,9.0633-2.9794,15.969-8.6594
	c-9.0571-0.921-15.4378-2.2818-15.7502-2.349l-8.2415-1.7756l8.0228-2.599c0.1078-0.0351,10.746-3.5333,17.7751-10.2569
	c-4.4121-0.5671-7.3291-1.1897-7.4869-1.2233l-8.2321-1.7733l8.0118-2.6013c0.0734-0.0234,7.3572-2.4232,11.9287-6.9955
	c3.4669-3.4669,5.8417-9.1258,6.7026-11.3983c0.6281-1.8491,2.0092-2.0381,2.5763-2.0381c0.7031,0,1.9686,0.2562,2.5529,1.9678
	c0.8999,2.3756,3.2716,8.0134,6.726,11.4678c4.5731,4.5731,11.8568,6.9729,11.9302,6.9963l7.9228,2.5717l-8.1321,1.7999
	c-0.1562,0.0344-3.0576,0.6703-7.4791,1.2437c7.0275,6.7127,17.6485,10.2046,17.7563,10.2398l7.9369,2.5709l-8.1447,1.8006
	c-0.3093,0.0687-6.6479,1.4553-15.7315,2.3771c6.9025,5.6628,15.8393,8.6024,15.9393,8.6344l7.9353,2.5701l-8.1431,1.8014
	c-0.3093,0.0687-6.6479,1.4561-15.733,2.3771c6.9041,5.6636,15.8409,8.6032,15.9408,8.6352l7.9353,2.5701l-8.1431,1.8014
	c-0.4515,0.1-10.7085,2.3412-23.8964,2.9998v30.1242C425.837,243.4441,423.1716,246.1111,419.8938,246.1111z M396.1223,203.9184
	c5.1261,0.7554,12.3661,1.5858,20.1389,1.7421l2.2217,0.0445v34.4621c0,0.7765,0.6328,1.4085,1.4108,1.4085
	c0.7765,0,1.4093-0.632,1.4093-1.4085v-34.4856l2.1873-0.0773c6.901-0.243,13.1833-0.9827,17.7579-1.6655
	c-3.97-1.9576-8.8477-4.8676-12.7427-8.7625c-0.4703-0.4695-0.9234-0.9648-1.3686-1.4718l-3.0263-3.4364l4.5684-0.3234
	c4.8261-0.3422,9.168-0.8812,12.5692-1.3897c-3.97-1.9576-8.8477-4.8676-12.7427-8.7618c-0.4703-0.4703-0.9234-0.9648-1.3686-1.4718
	l-3.0263-3.4364l4.5668-0.3234c4.8324-0.3429,9.1742-0.882,12.5724-1.3897c-3.9716-1.9569-8.8493-4.8668-12.7443-8.7618
	c-0.9093-0.9101-1.803-1.9311-2.7326-3.124l-2.5529-3.2778l4.1371-0.3742c1.4514-0.1312,2.817-0.2851,4.0606-0.4445
	c-2.2357-1.2593-4.6512-2.899-6.6807-4.9293c-2.6279-2.6263-4.6574-6.1229-6.0729-9.0938c-1.4155,2.974-3.445,6.4682-6.0729,9.0946
	c-2.0217,2.0217-4.4247,3.6559-6.6526,4.9129c1.2437,0.1578,2.6045,0.3109,4.0481,0.4422l4.1294,0.3765l-2.5451,3.2732
	c-0.9343,1.2015-1.8327,2.2303-2.7466,3.1443c-3.8825,3.8825-8.743,6.7861-12.7068,8.7438
	c3.4106,0.5031,7.7509,1.039,12.5552,1.3858l4.5434,0.3281l-3.0013,3.427c-0.4515,0.5164-0.9124,1.021-1.3905,1.4983
	c-3.8825,3.8825-8.743,6.7869-12.7068,8.7438c3.4091,0.5031,7.7509,1.0398,12.5552,1.3866l4.548,0.3281l-3.0075,3.4286
	c-0.4515,0.514-0.9109,1.0179-1.3874,1.4952C404.9435,199.057,400.0845,201.9615,396.1223,203.9184z"/>
<path id="XMLID_245_" class="st3" d="M749.5598,121.0112c-0.8984,0-1.7499-0.539-2.1045-1.4249
	c-0.4656-1.1632,0.0984-2.4826,1.2624-2.9482l190.4325-76.2319c1.153-0.4632,2.481,0.1,2.9466,1.2624
	c0.4656,1.1632-0.0984,2.4826-1.2624,2.9482l-190.4325,76.2319C750.127,120.9588,749.8411,121.0112,749.5598,121.0112z"/>
<path id="XMLID_244_" class="st3" d="M756.7592,104.2134c-0.8984,0-1.7499-0.539-2.1045-1.4249
	c-0.4656-1.1632,0.0984-2.4826,1.2624-2.9482l190.4325-76.2319c1.153-0.4609,2.481,0.0992,2.9466,1.2624
	c0.4656,1.1632-0.0984,2.4826-1.2624,2.9482l-190.4325,76.2319C757.3264,104.161,757.0404,104.2134,756.7592,104.2134z"/>
<path id="XMLID_243_" class="st3" d="M2.2678,355.7315c-0.8984,0-1.7499-0.539-2.1045-1.4249
	c-0.4656-1.1632,0.0984-2.4826,1.2624-2.9482l190.4325-76.2319c1.153-0.4633,2.481,0.1,2.9466,1.2624
	c0.4656,1.1632-0.0984,2.4826-1.2624,2.9482L3.1099,355.569C2.8349,355.6791,2.549,355.7315,2.2678,355.7315z"/>
<path id="XMLID_242_" class="st3" d="M9.4672,338.9337c-0.8984,0-1.7499-0.539-2.1045-1.4249
	c-0.4656-1.1632,0.0984-2.4826,1.2624-2.9482l190.4325-76.2319c1.153-0.4609,2.481,0.0992,2.9466,1.2624
	c0.4656,1.1632-0.0984,2.4826-1.2624,2.9482L10.3093,338.7712C10.0343,338.8813,9.7484,338.9337,9.4672,338.9337z"/>
<linearGradient id="XMLID_19_" gradientUnits="userSpaceOnUse" x1="709.7416" y1="307.0154" x2="709.7416" y2="125.9984">
	<stop  offset="0" style="stop-color:#EB6C9A"/>
	<stop  offset="1" style="stop-color:#633694"/>
</linearGradient>
<path id="XMLID_236_" class="st4" d="M709.7416,125.9984c-79.9478,0-144.7584,64.8106-144.7584,144.7588v7.3066
	c0,15.9232,13.0281,28.9515,28.9518,28.9515h231.6138c15.9232,0,28.9514-13.0283,28.9514-28.9515v-7.3066
	C854.5001,190.809,789.6895,125.9984,709.7416,125.9984z M817.3176,228.3484c-5.7416,2.3924-8.134-0.9569-10.0479-5.7417
	c-1.9139-4.7847-9.5695-21.5313-33.0146-46.8903s-67.0085-34.7366-67.0085-34.7366c51.3975,0,95.4267,31.5441,113.7853,76.3289
	C821.0318,217.3088,823.0592,225.956,817.3176,228.3484z"/>
<linearGradient id="XMLID_20_" gradientUnits="userSpaceOnUse" x1="519.6945" y1="306.4029" x2="519.6945" y2="179.776">
	<stop  offset="0" style="stop-color:#EB6C9A"/>
	<stop  offset="1" style="stop-color:#633694"/>
</linearGradient>
<path id="XMLID_222_" class="st5" d="M583.8522,245.936c0.0465-0.4328,0.0731-0.8711,0.0731-1.3156v-3.1158
	c0-34.0919-27.6368-61.7286-61.7288-61.7286c-34.0917,0-61.7285,27.6367-61.7285,61.7286v3.1158
	c0,0.4416,0.0258,0.8773,0.0715,1.3072c-0.7195,33.4165-27.975,60.2952-61.5453,60.3752v0.1001h241.4005v-0.3269
	C609.1626,303.4922,584.5397,277.6698,583.8522,245.936z M551.5276,223.1104c-0.7078-1.7698-1.3651-8.9736-10.0366-18.3531
	c-8.6716-9.3795-20.705-13.6401-20.705-13.6401c19.0101,0,35.2955,11.6672,42.0856,28.2317c0,0,1.5604,6.0555-2.7412,7.2025
	C554.4184,228.0749,552.2354,224.8801,551.5276,223.1104z M560.796,245.9555c-3.6465,0-6.6025-2.9561-6.6025-6.6027
	s2.956-6.6028,6.6025-6.6028c3.6466,0,6.6026,2.9562,6.6026,6.6028S564.4426,245.9555,560.796,245.9555z"/>
<g id="XMLID_205_">
	<g id="XMLID_219_">
		<path id="XMLID_221_" class="st6" d="M892.4593,93.2276c0,0-12.4661,7.5176-16.6179,7.5176c-4.1519,0-7.5177-3.3658-7.5177-7.5176
			c0-4.1519,3.3658-7.5177,7.5177-7.5177C879.9932,85.71,892.4593,93.2276,892.4593,93.2276z"/>
		<path id="XMLID_220_" class="st6" d="M893.2506,93.2276c0,0,12.4661-7.5177,16.618-7.5177c4.1519,0,7.5176,3.3658,7.5176,7.5177
			c0,4.1519-3.3657,7.5176-7.5176,7.5176C905.7167,100.7453,893.2506,93.2276,893.2506,93.2276z"/>
	</g>
	<g id="XMLID_213_">
		<path id="XMLID_215_" class="st6" d="M892.4593,115.6257c0,0-12.4661,7.5176-16.6179,7.5176
			c-4.1519,0-7.5177-3.3658-7.5177-7.5176s3.3658-7.5177,7.5177-7.5177C879.9932,108.1081,892.4593,115.6257,892.4593,115.6257z"/>
		<path id="XMLID_214_" class="st6" d="M893.2506,115.6257c0,0,12.4661-7.5177,16.618-7.5177c4.1519,0,7.5176,3.3658,7.5176,7.5177
			s-3.3657,7.5176-7.5176,7.5176C905.7167,123.1434,893.2506,115.6257,893.2506,115.6257z"/>
	</g>
	<g id="XMLID_210_">
		<path id="XMLID_212_" class="st6" d="M892.4593,138.0239c0,0-12.4661,7.5177-16.6179,7.5177
			c-4.1519,0-7.5177-3.3658-7.5177-7.5177s3.3658-7.5177,7.5177-7.5177C879.9932,130.5062,892.4593,138.0239,892.4593,138.0239z"/>
		<path id="XMLID_211_" class="st6" d="M893.2506,138.0239c0,0,12.4661-7.5177,16.618-7.5177c4.1519,0,7.5176,3.3658,7.5176,7.5177
			s-3.3657,7.5177-7.5176,7.5177C905.7167,145.5415,893.2506,138.0239,893.2506,138.0239z"/>
	</g>
	<rect id="XMLID_209_" x="892.6571" y="68.6963" class="st6" width="1.5827" height="117.9084"/>
	<circle id="XMLID_208_" class="st6" cx="893.0527" cy="66.718" r="13.057"/>
	<path id="XMLID_207_" class="st2" d="M906.0836,67.5093c0.0157-0.262,0.0261-0.5254,0.0261-0.7913
		c0-7.2112-5.8458-13.057-13.057-13.057c-7.2111,0-13.0569,5.8458-13.0569,13.057c0,0.2659,0.0104,0.5293,0.0261,0.7913H906.0836z"
		/>
	<circle id="XMLID_206_" class="st2" cx="893.4484" cy="50.6932" r="5.935"/>
</g>
<linearGradient id="XMLID_21_" gradientUnits="userSpaceOnUse" x1="911.346" y1="286.3423" x2="911.346" y2="171.5864">
	<stop  offset="0" style="stop-color:#EB6C9A"/>
	<stop  offset="1" style="stop-color:#633694"/>
</linearGradient>
<path id="XMLID_199_" class="st7" d="M911.3462,171.5864c-50.6833,0-91.7701,41.0867-91.7701,91.77v4.632
	c0,10.0947,8.2591,18.3539,18.3539,18.3539h146.8318c10.0948,0,18.3539-8.2592,18.3539-18.3539v-4.632
	C1003.1158,212.6731,962.0291,171.5864,911.3462,171.5864z M980.8607,236.4987c-3.3751,1.4062-8.9774-0.2944-10.1022-3.1068
	c-1.1253-2.8124-3.0502-12.6353-16.8306-27.541c-13.7809-14.9057-37.7656-20.7062-37.7656-20.7062
	c30.2108,0,56.0906,18.5412,66.8812,44.8651C983.0433,230.0099,984.2354,235.0925,980.8607,236.4987z"/>
<path id="XMLID_191_" class="st8" d="M785.2177,332.577v26.9916v3.1259v3.1261c0,4.6393-3.7611,8.4004-8.4004,8.4004h-3.1167
	l-0.0099,0.0005l-0.0099-0.0005h-3.1167c-4.6392,0-8.4003-3.761-8.4003-8.4004v-3.1261v-3.1259v-34.6805
	c0-3.7817-2.4323-6.9876-5.8141-8.1612l0.0012-0.0023h-0.0012l0.0046-0.0104c-3.3312-1.2012-5.7174-4.3807-5.7174-8.1257V290.166
	l0.0002-0.0027v-3.1232c0-4.6404,3.761-8.4016,8.4004-8.4016h6.2531c4.6393,0,8.4004,3.7612,8.4004,8.4016v6.252l-0.0003,0.003
	v22.9767c0,3.7633,2.4094,6.9566,5.7669,8.1429l-0.0068,0.0183C782.8084,325.6204,785.2177,328.8136,785.2177,332.577z"/>
<path id="XMLID_183_" class="st3" d="M640.877,311.9127c-3.2778,0-5.9448-2.667-5.9448-5.9441v-27.6336
	c-14.2097-0.5046-25.829-2.9763-26.3415-3.0865l-8.2415-1.7756l8.0228-2.599c0.1-0.032,9.0633-2.9795,15.969-8.6595
	c-9.0571-0.9218-15.4378-2.2826-15.7502-2.3498l-8.24-1.7764l8.0212-2.5982c0.1-0.032,9.0633-2.9794,15.969-8.6594
	c-9.0571-0.921-15.4378-2.2818-15.7502-2.349l-8.2415-1.7756l8.0228-2.599c0.1078-0.0352,10.746-3.5333,17.7751-10.257
	c-4.4122-0.5671-7.3291-1.1897-7.4869-1.2233l-8.2321-1.7733l8.0118-2.6013c0.0735-0.0234,7.3572-2.4232,11.9287-6.9955
	c3.4669-3.4669,5.8417-9.1258,6.7026-11.3983c0.6281-1.8491,2.0092-2.0381,2.5764-2.0381c0.7031,0,1.9686,0.2562,2.5529,1.9678
	c0.8999,2.3756,3.2716,8.0134,6.726,11.4678c4.573,4.5731,11.8568,6.9729,11.9302,6.9963l7.9228,2.5717l-8.1321,1.7999
	c-0.1562,0.0344-3.0576,0.6703-7.4791,1.2436c7.0275,6.7127,17.6485,10.2046,17.7563,10.2398l7.9369,2.5709l-8.1447,1.8006
	c-0.3094,0.0687-6.6479,1.4554-15.7315,2.3772c6.9025,5.6628,15.8393,8.6024,15.9393,8.6344l7.9353,2.5701l-8.1431,1.8014
	c-0.3094,0.0687-6.6479,1.4561-15.7331,2.3771c6.9041,5.6636,15.8409,8.6032,15.9409,8.6352l7.9353,2.5701l-8.1431,1.8014
	c-0.4515,0.1-10.7085,2.3412-23.8964,2.9998v27.7234C646.8203,309.2457,644.1549,311.9127,640.877,311.9127z M617.1056,272.1207
	c5.1262,0.7554,12.3661,1.5858,20.1389,1.742l2.2217,0.0445v32.0614c0,0.7765,0.6328,1.4085,1.4108,1.4085
	c0.7765,0,1.4093-0.632,1.4093-1.4085v-32.0848l2.1873-0.0773c6.9009-0.243,13.1832-0.9827,17.7579-1.6655
	c-3.97-1.9576-8.8477-4.8676-12.7427-8.7625c-0.4703-0.4695-0.9234-0.9648-1.3687-1.4717l-3.0263-3.4364l4.5684-0.3234
	c4.8262-0.3422,9.168-0.8812,12.5693-1.3897c-3.97-1.9577-8.8477-4.8676-12.7427-8.7618c-0.4703-0.4703-0.9234-0.9648-1.3687-1.4717
	l-3.0263-3.4364l4.5668-0.3234c4.8324-0.3429,9.1742-0.882,12.5723-1.3897c-3.9715-1.9569-8.8492-4.8668-12.7442-8.7618
	c-0.9093-0.9101-1.803-1.9311-2.7326-3.1239l-2.5529-3.2779l4.1371-0.3742c1.4515-0.1312,2.817-0.2851,4.0606-0.4445
	c-2.2357-1.2593-4.6512-2.899-6.6807-4.9293c-2.6279-2.6263-4.6575-6.1229-6.0729-9.0938c-1.4155,2.974-3.445,6.4682-6.0729,9.0945
	c-2.0217,2.0217-4.4246,3.6559-6.6526,4.9129c1.2437,0.1578,2.6045,0.3109,4.0481,0.4422l4.1293,0.3765l-2.545,3.2732
	c-0.9343,1.2015-1.8327,2.2303-2.7466,3.1443c-3.8825,3.8825-8.743,6.7861-12.7068,8.7438
	c3.4106,0.5031,7.7509,1.039,12.5552,1.3858l4.5433,0.3281l-3.0013,3.4271c-0.4515,0.5164-0.9125,1.021-1.3905,1.4983
	c-3.8825,3.8825-8.743,6.7869-12.7068,8.7438c3.4091,0.5031,7.7509,1.0398,12.5552,1.3866l4.548,0.3281l-3.0076,3.4286
	c-0.4515,0.514-0.9109,1.0179-1.3874,1.4952C625.9267,267.2594,621.0677,270.1638,617.1056,272.1207z"/>
<polygon id="XMLID_182_" class="st9" points="337.4314,139.6481 340.1482,145.0197 346.0964,145.9436 341.8272,150.1873 
	342.7867,156.1298 337.4314,153.381 332.0762,156.1298 333.0356,150.1873 328.7665,145.9436 334.7147,145.0197 "/>
<polygon id="XMLID_181_" class="st9" points="516.624,70.8523 519.3407,76.2238 525.2889,77.1477 521.0198,81.3914 521.9792,87.334 
	516.624,84.5852 511.2687,87.334 512.2281,81.3914 507.959,77.1477 513.9072,76.2238 "/>
<polygon id="XMLID_180_" class="st9" points="862.0135,138.5679 864.7303,143.9395 870.6785,144.8634 866.4094,149.107 
	867.3688,155.0496 862.0135,152.3008 856.6583,155.0496 857.6177,149.107 853.3486,144.8634 859.2968,143.9395 "/>
<path id="XMLID_177_" class="st3" d="M1036.5676,271.9062c-3.2778,0-5.9448-2.6654-5.9448-5.9432v-27.6336
	c-14.2098-0.5046-25.8291-2.9763-26.3416-3.0865l-8.2415-1.7756l8.0228-2.599c0.1-0.032,9.0633-2.9794,15.969-8.6594
	c-9.0571-0.9218-15.4378-2.2826-15.7502-2.3498l-8.24-1.7764l8.0212-2.5982c0.1-0.032,9.0633-2.9794,15.969-8.6594
	c-9.0571-0.921-15.4378-2.2818-15.7502-2.349l-8.2415-1.7756l8.0228-2.599c0.1078-0.0352,10.746-3.5333,17.7751-10.257
	c-4.4122-0.5671-7.3291-1.1897-7.4869-1.2233l-8.2321-1.7733l8.0118-2.6013c0.0735-0.0234,7.3572-2.4232,11.9287-6.9955
	c3.4669-3.4669,5.8417-9.1258,6.7025-11.3983c0.6282-1.8491,2.0093-2.0381,2.5764-2.0381c0.703,0,1.9686,0.2562,2.5529,1.9678
	c0.9,2.3756,3.2716,8.0134,6.7261,11.4678c4.573,4.5731,11.8568,6.9729,11.9302,6.9963l7.9229,2.5717l-8.1322,1.7998
	c-0.1562,0.0344-3.0575,0.6703-7.479,1.2437c7.0275,6.7127,17.6486,10.2046,17.7563,10.2398l7.9368,2.5709l-8.1447,1.8006
	c-0.3093,0.0687-6.6478,1.4553-15.7314,2.3771c6.9026,5.6628,15.8394,8.6024,15.9393,8.6344l7.9352,2.5701l-8.1431,1.8014
	c-0.3093,0.0687-6.6478,1.4561-15.733,2.3771c6.9042,5.6636,15.8409,8.6032,15.9409,8.6352l7.9352,2.5701l-8.1431,1.8014
	c-0.4514,0.1-10.7084,2.3412-23.8964,2.9998v27.7235C1042.5109,269.2408,1039.8455,271.9062,1036.5676,271.9062z
	 M1012.7961,232.1151c5.1261,0.7554,12.3661,1.5858,20.1389,1.7421l2.2217,0.0445v32.0614c0,0.7765,0.6328,1.4085,1.4109,1.4085
	c0.7765,0,1.4092-0.632,1.4092-1.4085v-32.0848l2.1874-0.0773c6.901-0.243,13.1832-0.9827,17.7578-1.6655
	c-3.97-1.9576-8.8477-4.8676-12.7427-8.7625c-0.4702-0.4695-0.9233-0.9648-1.3685-1.4718l-3.0264-3.4364l4.5684-0.3234
	c4.8262-0.3421,9.168-0.8812,12.5692-1.3897c-3.97-1.9576-8.8477-4.8676-12.7427-8.7618c-0.4702-0.4703-0.9233-0.9648-1.3685-1.4718
	l-3.0264-3.4364l4.5668-0.3234c4.8324-0.3429,9.1743-0.882,12.5724-1.3897c-3.9716-1.9569-8.8492-4.8668-12.7443-8.7618
	c-0.9093-0.9101-1.803-1.9311-2.7325-3.124l-2.5529-3.2778l4.1371-0.3742c1.4514-0.1312,2.817-0.2851,4.0607-0.4445
	c-2.2358-1.2593-4.6512-2.899-6.6808-4.9293c-2.6278-2.6263-4.6573-6.1229-6.0729-9.0938c-1.4155,2.974-3.4451,6.4682-6.073,9.0946
	c-2.0216,2.0217-4.4246,3.6559-6.6525,4.9129c1.2437,0.1578,2.6044,0.3109,4.0482,0.4422l4.1293,0.3765l-2.545,3.2732
	c-0.9343,1.2015-1.8326,2.2303-2.7467,3.1443c-3.8824,3.8825-8.743,6.7861-12.7067,8.7438
	c3.4106,0.5031,7.7509,1.039,12.5552,1.3858l4.5433,0.3281l-3.0013,3.4271c-0.4515,0.5164-0.9124,1.021-1.3905,1.4983
	c-3.8824,3.8825-8.743,6.7869-12.7067,8.7438c3.4091,0.5031,7.7509,1.0397,12.5552,1.3866l4.548,0.3281l-3.0074,3.4286
	c-0.4515,0.514-0.9109,1.0179-1.3875,1.4952C1021.6172,227.2537,1016.7583,230.1582,1012.7961,232.1151z"/>
<path id="XMLID_142_" class="st6" d="M1037.0427,272.3231c-54.131-11.0412-241.4953-16.3059-244.0237,10.6387
	c-2.5284,26.9446,38.2443,38.0071,98.0733,50.2105c59.8289,12.2034,180.0246,33.974,184.0577,14.2014
	c4.0331-19.7726-47.7866-27.5963-45.3668-39.4599c2.4198-11.8636,38.0323-4.5996,35.9098-16.0167
	C1063.5704,280.4801,1062.6837,277.5532,1037.0427,272.3231z"/>
<path id="XMLID_134_" class="st10" d="M946.7355,318.242c-2.3795-0.0141-4.1223-1.7155-5.6605-3.2169
	c-1.2858-1.2546-2.4966-2.4373-3.7778-2.4467c-1.3234,0-2.6537,1.178-4.0629,2.4248c-1.7374,1.5342-3.52,3.1091-5.8464,3.1091
	c-2.3256-0.0156-4.1918-1.5764-5.9963-3.0857c-1.5163-1.2702-3.0763-2.5764-4.5535-2.5873c-1.2975,0-2.2975,0.8984-3.7935,2.3764
	c-1.4999,1.4811-3.2005,3.1591-5.6815,3.1607c-2.5646-0.0188-4.3098-1.7561-5.8503-3.2888c-1.2225-1.2171-2.3779-2.367-3.627-2.3764
	c-1.3506,0-2.681,1.2155-4.0895,2.4998c-1.6522,1.5155-3.3123,3.0373-5.3949,3.0373c-0.7796-0.0063-1.3866-0.6203-1.3811-1.3702
	c0.0031-0.3922,0.1742-0.7656,0.4711-1.0218c0.246-0.2125,0.5632-0.3297,0.8921-0.3297c0.9796,0,2.0811-0.9468,3.5325-2.2826
	c1.7498-1.6014,3.5528-3.2529,5.9526-3.2529c2.3983,0.0172,4.0793,1.6905,5.5621,3.1654c1.2858,1.2796,2.4998,2.4889,3.9122,2.4982
	c1.2881,0,2.2904-0.8968,3.7903-2.3733c1.5023-1.4827,3.2037-3.1622,5.6839-3.1622c2.4936,0.0172,4.4356,1.6421,6.3143,3.2138
	c1.5022,1.2593,2.9216,2.4482,4.2379,2.4592c1.3273,0,2.7186-1.2343,4.0645-2.4279c1.728-1.5264,3.5145-3.106,5.8456-3.106
	c2.4147,0.0157,4.1575,1.717,5.6956,3.2185c1.2898,1.2577,2.4982,2.4357,3.7763,2.4467c0.3655,0.0016,0.7062,0.1453,0.9608,0.4031
	c0.2554,0.2593,0.3945,0.6015,0.3922,0.9655c-0.0054,0.7452-0.6148,1.3499-1.3585,1.3514L946.7355,318.242z M962.1599,304.8947
	c-2.3802-0.0156-4.123-1.717-5.6605-3.2169c-1.2834-1.253-2.4958-2.4373-3.7778-2.4467c-1.3241,0-2.6537,1.178-4.0622,2.4248
	c-1.735,1.5327-3.52,3.1091-5.8495,3.1091c-2.3279-0.0172-4.1949-1.5811-6.0018-3.0935c-1.5147-1.2671-3.0717-2.5685-4.5457-2.5795
	c-1.2975,0-2.2975,0.8984-3.7935,2.3764c-1.4999,1.4796-3.2005,3.1591-5.6815,3.1591c-2.56-0.0172-4.3067-1.7529-5.848-3.2856
	c-1.2249-1.2187-2.3803-2.3686-3.6294-2.3779c-1.3538,0-2.6857,1.2171-4.0958,2.506c-1.6428,1.5061-3.3036,3.0294-5.3878,3.0294
	c-0.3945-0.0031-0.7351-0.1469-0.9897-0.4046c-0.2555-0.2594-0.3945-0.6015-0.3922-0.9655c0.0023-0.3922,0.1742-0.764,0.471-1.0202
	c0.2461-0.2125,0.5609-0.3312,0.8859-0.3312c0.9898,0.0016,2.0905-0.9452,3.5396-2.2826c1.7538-1.6046,3.5544-3.2528,5.9518-3.2528
	c2.3975,0.0172,4.0793,1.6905,5.5629,3.1669c1.2874,1.2796,2.5013,2.4873,3.9098,2.4982c1.2889,0,2.292-0.8984,3.7927-2.3748
	c1.5022-1.4827,3.2036-3.1622,5.6862-3.1622c2.4897,0.0172,4.4317,1.6421,6.3089,3.2138c1.5115,1.2639,2.9286,2.4498,4.2426,2.4592
	c1.3249,0,2.6544-1.178,4.0621-2.4248c1.728-1.528,3.5145-3.1091,5.8456-3.1091c2.4162,0.0172,4.1591,1.7186,5.6964,3.2185
	c1.2835,1.253,2.4959,2.4373,3.777,2.4467c0.7499,0.0047,1.3569,0.6187,1.3514,1.3687c-0.0062,0.7452-0.6155,1.3514-1.3585,1.353
	L962.1599,304.8947z M977.5852,291.5458c-2.3795-0.0141-4.1223-1.7155-5.6605-3.2169c-1.2835-1.253-2.4943-2.4357-3.7762-2.4467
	c-1.3272,0-2.6568,1.1796-4.0645,2.4279c-1.7342,1.5296-3.5192,3.106-5.8464,3.106c-2.3311-0.0156-4.1989-1.5795-6.0049-3.0919
	c-1.5077-1.2639-3.0677-2.5701-4.545-2.581c-1.296,0-2.2966,0.8983-3.7934,2.3779c-1.4999,1.4796-3.2005,3.1591-5.6847,3.1591
	c-2.5599-0.0172-4.3066-1.7561-5.8472-3.2888c-1.2225-1.2171-2.3779-2.367-3.627-2.3763c-1.3483,0-2.6771,1.2124-4.0833,2.4935
	c-1.6546,1.5186-3.3154,3.0435-5.4011,3.0435c-0.7797-0.0062-1.3866-0.6202-1.3812-1.3702c0.0031-0.3922,0.1742-0.764,0.4695-1.0202
	c0.2477-0.2141,0.564-0.3312,0.8937-0.3312c0.9796,0,2.0811-0.9468,3.5325-2.2826c1.7522-1.603,3.5544-3.2528,5.9526-3.2528
	c2.3983,0.0172,4.0793,1.6905,5.562,3.1653c1.2851,1.2796,2.4998,2.4889,3.9106,2.4998c1.2881,0,2.2912-0.8984,3.7919-2.3748
	c1.5014-1.4827,3.2013-3.1622,5.687-3.1622c2.4912,0.0172,4.4324,1.6421,6.3104,3.2138c1.5069,1.2624,2.9255,2.4498,4.2402,2.4592
	c1.3242,0,2.6545-1.1796,4.0622-2.4279c1.728-1.5265,3.5137-3.106,5.8464-3.106c2.4139,0.0156,4.1559,1.7171,5.6933,3.2169
	c1.2858,1.2546,2.4982,2.4389,3.7802,2.4482c0.7499,0.0047,1.3561,0.6187,1.3514,1.3687c-0.0055,0.7452-0.6148,1.3499-1.3585,1.3514
	L977.5852,291.5458z"/>
<polygon id="XMLID_133_" class="st3" points="580.1642,86.3637 582.8519,91.6777 588.7363,92.5917 584.5129,96.7899 
	585.4621,102.6687 580.1642,99.9494 574.8665,102.6687 575.8156,96.7899 571.5922,92.5917 577.4766,91.6777 "/>
<linearGradient id="XMLID_22_" gradientUnits="userSpaceOnUse" x1="187.3778" y1="310.6991" x2="187.3778" y2="274.5939">
	<stop  offset="0" style="stop-color:#EB6C9A"/>
	<stop  offset="1" style="stop-color:#633694"/>
</linearGradient>
<path id="XMLID_131_" class="st11" d="M187.3778,274.5939c-15.9462,0-28.8732,12.9269-28.8732,28.8732v1.4574
	c0,3.176,2.5986,5.7746,5.7747,5.7746h46.1971c3.1761,0,5.7746-2.5986,5.7746-5.7746v-1.4574
	C216.251,287.5209,203.324,274.5939,187.3778,274.5939z"/>
<linearGradient id="XMLID_23_" gradientUnits="userSpaceOnUse" x1="350.4342" y1="306.6991" x2="350.4342" y2="270.5939">
	<stop  offset="0" style="stop-color:#EB6C9A"/>
	<stop  offset="1" style="stop-color:#633694"/>
</linearGradient>
<path id="XMLID_129_" class="st12" d="M350.4343,270.5939c-15.9462,0-28.8732,12.9269-28.8732,28.8732v1.4574
	c0,3.176,2.5986,5.7746,5.7747,5.7746h46.1971c3.1761,0,5.7746-2.5986,5.7746-5.7746v-1.4574
	C379.3074,283.5209,366.3805,270.5939,350.4343,270.5939z"/>
<linearGradient id="XMLID_24_" gradientUnits="userSpaceOnUse" x1="1143.276" y1="310.6991" x2="1143.276" y2="274.5939">
	<stop  offset="0" style="stop-color:#EB6C9A"/>
	<stop  offset="1" style="stop-color:#633694"/>
</linearGradient>
<path id="XMLID_127_" class="st13" d="M1143.276,274.5939c-15.9463,0-28.8732,12.9269-28.8732,28.8732v1.4574
	c0,3.176,2.5985,5.7746,5.7747,5.7746h46.197c3.176,0,5.7747-2.5986,5.7747-5.7746v-1.4574
	C1172.1492,287.5209,1159.2222,274.5939,1143.276,274.5939z"/>
<g id="XMLID_49_">
	<path id="XMLID_116_" class="st2" d="M224.9743,258.5387c-4.1413-1.553-6.9326,5.6721-4.5692,5.6721
		S227.4953,259.4841,224.9743,258.5387z"/>
	<path id="XMLID_115_" class="st2" d="M202.0686,285.0085c-1.3235,0.509-4.0965,4.4116-2.836,5.0419
		c1.2605,0.6302,6.3023-1.8907,6.3023-3.1512S204.1168,284.2207,202.0686,285.0085z"/>
	<path id="XMLID_114_" class="st2" d="M231.563,270.7576c-1.3235,0.509-4.0965,4.4117-2.8361,5.0419
		c1.2605,0.6302,6.3023-1.8907,6.3023-3.1512S233.6113,269.9698,231.563,270.7576z"/>
	<path id="XMLID_113_" class="st2" d="M218.281,269.6318c-4.1714,0.7454-8.6619,5.832-7.5321,6.4152s9.4151-3.6158,9.4151-5.1322
		S221.5449,269.0486,218.281,269.6318z"/>
	<path id="XMLID_112_" class="st2" d="M260.7423,253.1145c-3.6309,2.5935-5.9872,5.8297-3.4663,5.5145
		c2.5209-0.3151,12.4471-6.4599,10.714-7.4052C266.2568,250.2785,262.9481,251.5389,260.7423,253.1145z"/>
	<path id="XMLID_110_" class="st2" d="M215.9935,280.5969c-3.3331,2.0511-5.9872,4.4117-3.4663,4.4117s9.2959-1.5756,9.2959-4.0965
		S218.0418,279.3364,215.9935,280.5969z"/>
	<path id="XMLID_109_" class="st2" d="M211.5819,267.9922c2.8964-1.1585,5.0419-5.9872,2.0483-4.7267s-6.6175,3.4663-6.6175,4.5692
		C207.0127,268.9376,210.0063,268.6225,211.5819,267.9922z"/>
	<path id="XMLID_108_" class="st2" d="M253.815,238.7623c-4.1413-1.553-6.9326,5.6721-4.5692,5.6721
		C251.6091,244.4344,256.3359,239.7077,253.815,238.7623z"/>
	<path id="XMLID_107_" class="st2" d="M257.7539,241.4408c-1.3235,0.509-4.0965,4.4116-2.8361,5.0419s6.3023-1.8907,6.3023-3.1512
		S259.8022,240.653,257.7539,241.4408z"/>
	<path id="XMLID_106_" class="st2" d="M247.1216,249.8554c-4.1714,0.7454-8.6619,5.832-7.5321,6.4152
		c1.1298,0.5832,9.4151-3.6158,9.4151-5.1322S250.3855,249.2722,247.1216,249.8554z"/>
	<path id="XMLID_105_" class="st2" d="M221.021,250.3998c-3.6309,2.5935-5.9872,5.8297-3.4663,5.5145
		c2.5209-0.3151,12.4471-6.4599,10.714-7.4052C226.5355,247.5638,223.2268,248.8242,221.021,250.3998z"/>
	<path id="XMLID_104_" class="st2" d="M244.8341,260.8205c-3.3331,2.0511-5.9872,4.4117-3.4663,4.4117s9.2959-1.5756,9.2959-4.0965
		S246.8824,259.56,244.8341,260.8205z"/>
	<path id="XMLID_103_" class="st2" d="M240.4225,248.2158c2.8964-1.1586,5.0419-5.9872,2.0483-4.7267
		c-2.9936,1.2605-6.6175,3.4663-6.6175,4.5692S238.8469,248.846,240.4225,248.2158z"/>
	<path id="XMLID_102_" class="st2" d="M255.2548,224.9513c-4.1413-1.553-6.9326,5.6721-4.5692,5.6721
		S257.7758,225.8966,255.2548,224.9513z"/>
	<path id="XMLID_101_" class="st2" d="M286.5945,221.6644c-1.3235,0.509-4.0965,4.4116-2.8361,5.0419s6.3023-1.8907,6.3023-3.1512
		S288.6428,220.8766,286.5945,221.6644z"/>
	<path id="XMLID_100_" class="st2" d="M270.2271,231.8124c-4.1714,0.7454-8.6619,5.832-7.532,6.4152
		c1.1298,0.5832,9.4151-3.6159,9.4151-5.1322S273.491,231.2292,270.2271,231.8124z"/>
	<path id="XMLID_99_" class="st2" d="M286.7521,231.7481c-3.6309,2.5935-5.9872,5.8297-3.4663,5.5145
		c2.5209-0.3151,12.4471-6.4599,10.714-7.4052C292.2666,228.9121,288.9579,230.1725,286.7521,231.7481z"/>
	<path id="XMLID_98_" class="st2" d="M292.7105,278.4164c-3.6309,2.5935-5.9872,5.8297-3.4663,5.5146s12.4471-6.4599,10.714-7.4052
		C298.2251,275.5804,294.9164,276.8408,292.7105,278.4164z"/>
	<path id="XMLID_97_" class="st2" d="M273.6747,241.0441c-3.3331,2.0511-5.9872,4.4116-3.4663,4.4116s9.296-1.5756,9.296-4.0965
		S275.723,239.7836,273.6747,241.0441z"/>
	<path id="XMLID_96_" class="st2" d="M269.2631,228.4394c2.8964-1.1586,5.0419-5.9872,2.0482-4.7267s-6.6175,3.4663-6.6175,4.5692
		C264.6939,229.3847,267.6875,229.0696,269.2631,228.4394z"/>
	<path id="XMLID_95_" class="st2" d="M311.4962,199.2095c-4.1413-1.553-6.9326,5.6721-4.5692,5.6721
		S314.0171,200.1548,311.4962,199.2095z"/>
	<path id="XMLID_94_" class="st2" d="M315.4352,201.888c-1.3235,0.509-4.0965,4.4116-2.8361,5.0419s6.3023-1.8907,6.3023-3.1512
		S317.4834,201.1002,315.4352,201.888z"/>
	<path id="XMLID_93_" class="st2" d="M301.7747,222.3832c-1.3235,0.509-4.0965,4.4116-2.8361,5.0419s6.3023-1.8907,6.3023-3.1512
		S303.823,221.5954,301.7747,222.3832z"/>
	<path id="XMLID_92_" class="st2" d="M304.8029,210.3026c-4.1714,0.7453-8.6619,5.832-7.532,6.4152
		c1.1298,0.5832,9.4151-3.6159,9.4151-5.1322S308.0668,209.7194,304.8029,210.3026z"/>
	<path id="XMLID_91_" class="st2" d="M315.5927,211.9717c-3.6309,2.5935-5.9872,5.8297-3.4663,5.5146
		c2.5209-0.3151,12.4471-6.4599,10.714-7.4053C321.1073,209.1356,317.7985,210.3961,315.5927,211.9717z"/>
	<path id="XMLID_90_" class="st2" d="M287.7664,211.671c-3.3331,2.0511-5.9872,4.4116-3.4663,4.4116s9.2959-1.5756,9.2959-4.0965
		S289.8147,210.4105,287.7664,211.671z"/>
	<path id="XMLID_89_" class="st2" d="M282.4474,211.0045c2.8964-1.1585,5.0419-5.9872,2.0483-4.7267
		c-2.9936,1.2605-6.6175,3.4663-6.6175,4.5692S280.8718,211.6347,282.4474,211.0045z"/>
	<path id="XMLID_88_" class="st2" d="M252.1669,279.1392c-4.1413-1.553-6.9326,5.6721-4.5692,5.6721
		S254.6879,280.0845,252.1669,279.1392z"/>
	<path id="XMLID_87_" class="st2" d="M256.1059,281.8177c-1.3235,0.509-4.0965,4.4116-2.8361,5.0419
		c1.2605,0.6302,6.3023-1.8907,6.3023-3.1512S258.1541,281.0299,256.1059,281.8177z"/>
	<path id="XMLID_86_" class="st2" d="M258.7556,291.358c-1.3235,0.5091-4.0965,4.4117-2.8361,5.0419
		c1.2605,0.6302,6.3023-1.8907,6.3023-3.1512S260.8038,290.5702,258.7556,291.358z"/>
	<path id="XMLID_85_" class="st2" d="M227.6131,296.5448c-4.1714,0.7454-8.6619,5.832-7.5321,6.4153
		c1.1298,0.5832,9.4151-3.6159,9.4151-5.1322S230.877,295.9616,227.6131,296.5448z"/>
	<path id="XMLID_84_" class="st2" d="M287.9349,273.715c-3.6309,2.5935-5.9872,5.8297-3.4663,5.5145s12.4471-6.4599,10.714-7.4052
		C293.4494,270.8789,290.1407,272.1394,287.9349,273.715z"/>
	<path id="XMLID_83_" class="st2" d="M243.1861,301.1973c-3.3331,2.0511-5.9872,4.4117-3.4663,4.4117s9.2959-1.5756,9.2959-4.0965
		S245.2344,299.9369,243.1861,301.1973z"/>
	<path id="XMLID_82_" class="st2" d="M238.7745,288.5927c2.8964-1.1586,5.0419-5.9872,2.0483-4.7268s-6.6175,3.4663-6.6175,4.5692
		S237.1989,289.2229,238.7745,288.5927z"/>
	<path id="XMLID_81_" class="st2" d="M287.5997,247.8265c-4.1413-1.553-6.9326,5.6721-4.5692,5.6721
		S290.1206,248.7719,287.5997,247.8265z"/>
	<path id="XMLID_80_" class="st2" d="M284.9465,262.0412c-1.3235,0.509-4.0965,4.4117-2.8361,5.0419
		c1.2605,0.6302,6.3023-1.8907,6.3023-3.1512S286.9948,261.2534,284.9465,262.0412z"/>
	<path id="XMLID_79_" class="st2" d="M274.3142,270.4558c-4.1714,0.7454-8.6619,5.832-7.532,6.4152
		c1.1298,0.5832,9.4151-3.6158,9.4151-5.1322S277.5781,269.8727,274.3142,270.4558z"/>
	<path id="XMLID_78_" class="st2" d="M248.2136,271.0002c-3.6309,2.5935-5.9872,5.8297-3.4663,5.5145
		c2.5209-0.3151,12.4471-6.4599,10.714-7.4052C253.7281,268.1642,250.4194,269.4247,248.2136,271.0002z"/>
	<path id="XMLID_77_" class="st2" d="M277.0542,289.1286c-3.3331,2.0511-5.9872,4.4116-3.4663,4.4116s9.296-1.5756,9.296-4.0965
		C282.8839,286.9228,279.1024,287.8682,277.0542,289.1286z"/>
	<path id="XMLID_76_" class="st2" d="M270.0618,264.1907c2.8964-1.1585,5.0419-5.9872,2.0482-4.7267s-6.6175,3.4663-6.6175,4.5692
		S268.4862,264.821,270.0618,264.1907z"/>
	<path id="XMLID_75_" class="st2" d="M309.8481,239.5863c-4.1413-1.553-6.9326,5.6721-4.5692,5.6721
		S312.3691,240.5317,309.8481,239.5863z"/>
	<path id="XMLID_74_" class="st2" d="M315.783,224.8553c-1.3235,0.509-4.0965,4.4116-2.8361,5.0419s6.3023-1.8907,6.3023-3.1512
		S317.8313,224.0675,315.783,224.8553z"/>
	<path id="XMLID_73_" class="st2" d="M303.1548,250.6794c-4.1714,0.7453-8.6619,5.832-7.5321,6.4152
		c1.1298,0.5832,9.4151-3.6159,9.4151-5.1322S306.4187,250.0962,303.1548,250.6794z"/>
	<path id="XMLID_68_" class="st2" d="M313.9447,252.3486c-3.6309,2.5935-5.9872,5.8297-3.4663,5.5145s12.4471-6.4599,10.714-7.4052
		C319.4592,249.5125,316.1505,250.773,313.9447,252.3486z"/>
	<path id="XMLID_64_" class="st2" d="M308.3669,265.2321c-3.3331,2.0511-5.9872,4.4116-3.4663,4.4116s9.2959-1.5756,9.2959-4.0965
		S310.4151,263.9716,308.3669,265.2321z"/>
	<path id="XMLID_63_" class="st2" d="M296.4557,249.0398c2.8964-1.1586,5.0419-5.9872,2.0483-4.7268
		c-2.9936,1.2605-6.6175,3.4663-6.6175,4.5692S294.8801,249.6701,296.4557,249.0398z"/>
	<path id="XMLID_62_" class="st2" d="M341.1608,207.4496c-4.1413-1.553-6.9326,5.6721-4.5692,5.6721
		S343.6818,208.395,341.1608,207.4496z"/>
	<path id="XMLID_61_" class="st2" d="M342.6277,222.4884c-1.3235,0.509-4.0965,4.4116-2.8361,5.0419s6.3023-1.8907,6.3023-3.1512
		S344.676,221.7006,342.6277,222.4884z"/>
	<path id="XMLID_58_" class="st2" d="M332.2634,243.8076c-1.3235,0.509-4.0965,4.4116-2.8361,5.0419s6.3023-1.8907,6.3023-3.1512
		S334.3116,243.0199,332.2634,243.8076z"/>
	<path id="XMLID_57_" class="st2" d="M331.9955,230.903c-4.1714,0.7454-8.6619,5.832-7.5321,6.4152
		c1.1298,0.5832,9.4151-3.6159,9.4151-5.1322S335.2593,230.3198,331.9955,230.903z"/>
	<path id="XMLID_56_" class="st2" d="M342.7853,232.5721c-3.6309,2.5935-5.9872,5.8297-3.4663,5.5145
		c2.5209-0.3151,12.4471-6.4599,10.714-7.4052C348.2998,229.7361,344.9911,230.9965,342.7853,232.5721z"/>
	<path id="XMLID_55_" class="st2" d="M301.7747,233.9194c-3.3331,2.0511-5.9872,4.4116-3.4663,4.4116s9.2959-1.5756,9.2959-4.0965
		S303.823,232.659,301.7747,233.9194z"/>
	<path id="XMLID_54_" class="st2" d="M325.2963,229.2634c2.8964-1.1586,5.0418-5.9872,2.0482-4.7267
		c-2.9936,1.2605-6.6175,3.4663-6.6175,4.5692C320.7271,230.2088,323.7207,229.8936,325.2963,229.2634z"/>
</g>
<g id="XMLID_41_">
	<path id="XMLID_46_" class="st3" d="M1036.6482,132.6167c-12.3209,0-17.1044-2.3139-17.4569-4.2955
		c-0.2971-1.6679,2.2968-4.7197,10.4679-8.2826c7.5044-3.2721,17.7561-6.1631,28.8665-8.14
		c9.01-1.6036,17.6991-2.4508,25.1283-2.4508c12.3214,0,17.1049,2.3139,17.4574,4.295c0.2971,1.6679-2.2969,4.7196-10.4679,8.2826
		c-7.5044,3.2721-17.7561,6.1631-28.8665,8.14C1052.7665,131.769,1044.0774,132.6167,1036.6482,132.6167z M1078.3177,110.1073
		c-5.854,0-12.6896,0.6657-19.7677,1.9251c-16.1644,2.877-32.8037,8.9701-31.8031,14.596c0.6849,3.846,8.5989,4.6533,15.1171,4.6533
		h0.0021c5.853,0,12.6875-0.6657,19.7667-1.9251c8.7368-1.5549,16.8151-3.8357,22.7465-6.4223
		c6.4725-2.822,9.519-5.572,9.056-8.1737C1092.751,110.9145,1084.8365,110.1073,1078.3177,110.1073z"/>
	<path id="XMLID_45_" class="st3" d="M1041.3647,127.6145c-8.0239,0-10.3943-1.4066-10.5265-2.1501
		c-0.265-1.488,4.6102-4.3619,13.3262-7.0465c-4.0026,1.6674-5.8099,3.2633-5.5237,4.8731
		c0.1191,0.6688,0.4816,2.7043,8.6158,2.7043c3.8424,0,8.6503-0.4791,13.5378-1.3485c5.4948-0.9778,10.5903-2.3471,14.3472-3.8559
		c4.3204-1.7343,6.2761-3.3898,5.979-5.0592c-0.1105-0.6191-0.4282-2.4073-6.9143-2.6717c1.5632-0.0866,3.0574-0.1312,4.4609-0.1312
		c8.0238,0,10.3943,1.4066,10.5265,2.1501c0.1156,0.6491-1.2957,2.5307-7.4639,5.0074c-5.4124,2.1734-12.7834,4.1514-20.7555,5.5699
		C1053.879,126.9192,1046.915,127.6145,1041.3647,127.6145z"/>
	<g id="XMLID_42_">
		<path id="XMLID_44_" class="st3" d="M1046.6775,122.4661c-1.7052,0-3.0647-0.07-4.0446-0.1472
			c-0.3604-8.6175,5.6343-16.139,14.2175-17.6664c1.0063-0.1794,2.0303-0.2701,3.0428-0.2701
			c7.4862,0,14.1273,4.884,16.4014,11.9648c-2.1652,1.0406-7.6154,3.3301-16.3806,4.8897
			C1055.3303,122.0528,1050.8766,122.4661,1046.6775,122.4661z"/>
		<path id="XMLID_43_" class="st3" d="M1059.8529,138.898c-3.9352,0-7.7905-1.388-10.8485-3.8595
			c3.6071-0.3121,8.3174-0.8322,13.067-1.6773c4.631-0.8244,9.1573-1.9334,12.6088-2.8635
			c-2.5525,4.2644-6.8329,7.2493-11.7833,8.1301c-1.0063,0.1794-2.0303,0.2701-3.0435,0.2701H1059.8529z"/>
	</g>
</g>
<polygon id="XMLID_40_" class="st3" points="790.0001,24.0281 792.7168,29.3997 798.665,30.3236 794.3959,34.5673 795.3553,40.5098 
	790.0001,37.761 784.6448,40.5098 785.6042,34.5673 781.3351,30.3236 787.2833,29.3997 "/>
<polygon id="XMLID_39_" class="st3" points="375.1246,84.9856 377.8414,90.3571 383.7896,91.281 379.5204,95.5247 
	380.4798,101.4673 375.1246,98.7184 369.7694,101.4673 370.7288,95.5247 366.4597,91.281 372.4078,90.3571 "/>
<g id="XMLID_32_">
	<rect id="XMLID_38_" x="794.0663" y="107.0214" class="st14" width="2.7081" height="45.3473"/>
	
		<rect id="XMLID_37_" x="794.0663" y="107.0214" transform="matrix(0.866 -0.5 0.5 0.866 41.7186 415.086)" class="st14" width="2.7081" height="45.3473"/>
	
		<rect id="XMLID_36_" x="794.0663" y="107.0214" transform="matrix(0.5 -0.866 0.866 0.5 285.391 753.7018)" class="st14" width="2.7081" height="45.3473"/>
	
		<rect id="XMLID_35_" x="794.0663" y="107.0214" transform="matrix(4.433171e-11 -1 1 4.433171e-11 665.7253 925.1154)" class="st14" width="2.7081" height="45.3473"/>
	
		<rect id="XMLID_34_" x="794.0663" y="107.0214" transform="matrix(-0.5 -0.866 0.866 -0.5 1080.8113 883.3969)" class="st14" width="2.7081" height="45.3473"/>
	
		<rect id="XMLID_33_" x="794.0663" y="107.0214" transform="matrix(-0.866 -0.5 0.5 -0.866 1419.4271 639.7245)" class="st14" width="2.7081" height="45.3473"/>
</g>
<g id="XMLID_3_">
	<g id="XMLID_8_">
		<path id="XMLID_10_" class="st6" d="M485.7284,304.802c0,0-12.4661,7.5177-16.618,7.5177c-4.1519,0-7.5176-3.3658-7.5176-7.5177
			s3.3658-7.5176,7.5176-7.5176C473.2623,297.2844,485.7284,304.802,485.7284,304.802z"/>
		<path id="XMLID_9_" class="st6" d="M486.5197,304.802c0,0,12.4661-7.5176,16.618-7.5176s7.5176,3.3658,7.5176,7.5176
			s-3.3658,7.5177-7.5176,7.5177S486.5197,304.802,486.5197,304.802z"/>
	</g>
	<rect id="XMLID_7_" x="485.9262" y="280.2708" class="st6" width="1.5827" height="117.9084"/>
	<circle id="XMLID_6_" class="st6" cx="486.3219" cy="278.2924" r="13.057"/>
	<path id="XMLID_5_" class="st2" d="M499.3528,279.0837c0.0157-0.262,0.0261-0.5254,0.0261-0.7913
		c0-7.2112-5.8458-13.0569-13.057-13.0569c-7.2112,0-13.057,5.8458-13.057,13.0569c0,0.2659,0.0104,0.5294,0.0261,0.7913H499.3528z"
		/>
	<circle id="XMLID_4_" class="st2" cx="486.7175" cy="262.2677" r="5.935"/>
</g>
<path id="XMLID_2_" class="st6" d="M966.5889,75.796c-0.436-0.436-0.8563-0.8964-1.2694-1.3667
	c11.6519-0.8252,20.405-2.7606,20.405-2.7606s-11.6314-3.7521-19.1356-11.2562c-1.4443-1.4443-2.7595-3.0987-3.9481-4.8256
	c6.4681-0.5446,11.1838-1.5868,11.1838-1.5868s-7.1052-2.292-11.689-6.8759c-3.345-3.3449-5.5901-8.5172-6.5599-11.0698
	c-0.1275-0.3356-0.1441-0.5618-0.4305-0.5618c-0.2865,0-0.2946,0.2027-0.4152,0.5212c-0.9612,2.538-3.2125,7.7477-6.5753,11.1105
	c-4.5839,4.5839-11.689,6.8759-11.689,6.8759s4.7522,1.0231,11.1943,1.5716c-1.1912,1.7324-2.5101,3.3923-3.9587,4.8408
	c-7.5042,7.5041-19.1356,11.2562-19.1356,11.2562s8.8256,1.9019,20.4235,2.739c-0.4189,0.4778-0.8454,0.9457-1.288,1.3882
	c-7.5042,7.5041-19.1356,11.2562-19.1356,11.2562s8.8256,1.9019,20.4235,2.739c-0.4189,0.4778-0.8454,0.9457-1.288,1.3882
	c-7.5042,7.5041-19.1356,11.2562-19.1356,11.2562s8.8256,1.9019,20.4235,2.739c-0.4189,0.4779-0.8454,0.9457-1.288,1.3883
	c-7.5042,7.5041-19.1356,11.2562-19.1356,11.2562s8.8256,1.9019,20.4235,2.739c-0.4189,0.4779-0.8454,0.9457-1.288,1.3883
	c-7.5042,7.5041-19.1356,11.2562-19.1356,11.2562s8.8256,1.9019,20.4235,2.739c-0.4189,0.4778-0.8454,0.9457-1.288,1.3882
	c-7.5042,7.5041-19.1356,11.2562-19.1356,11.2562s12.9733,2.7942,28.1315,3.0985v29.8387c0,2.0304,1.6459,3.6764,3.6763,3.6764
	c2.0305,0,3.6764-1.646,3.6764-3.6764v-29.8959c14.1807-0.4996,25.6745-3.0414,25.6745-3.0414s-11.6314-3.7521-19.1356-11.2562
	c-0.436-0.436-0.8563-0.8964-1.2694-1.3667c11.6519-0.8252,20.405-2.7606,20.405-2.7606s-11.6314-3.7521-19.1356-11.2562
	c-0.436-0.436-0.8563-0.8964-1.2694-1.3667c11.6519-0.8252,20.405-2.7606,20.405-2.7606s-11.6314-3.7521-19.1356-11.2562
	c-0.436-0.436-0.8563-0.8964-1.2694-1.3667c11.6519-0.8252,20.405-2.7606,20.405-2.7606s-11.6314-3.7521-19.1356-11.2562
	c-0.436-0.436-0.8563-0.8964-1.2694-1.3667c11.6519-0.8252,20.405-2.7606,20.405-2.7606S974.093,83.3002,966.5889,75.796z"/>
<defs>
	<filter id="Adobe_OpacityMaskFilter" filterUnits="userSpaceOnUse" x="71.7367" y="101.2041" width="260.625" height="248.5">
		<feColorMatrix  type="matrix" values="1 0 0 0 0  0 1 0 0 0  0 0 1 0 0  0 0 0 1 0"/>
	</filter>
</defs>
<mask maskUnits="userSpaceOnUse" x="71.7367" y="101.2041" width="260.625" height="248.5" id="mask_2_">
	<rect x="-24.857" y="25.7666" class="st15" width="443.75" height="443.75"/>
</mask>
<g class="st16">
	<g>
		<g transform="translate(0, 0)">
			<g>
				<g transform="translate(-120)">
					<g transform="translate(0, 200)">
						<path class="st17" d="M263.768,136.3916v-88.75"/>
					</g>
				</g>
				<g transform="translate(120)">
					<g transform="translate(0, 200)">
						<path class="st17" d="M130.268,136.3916v-88.75"/>
					</g>
				</g>
			</g>
			<g>
				<g>
					<g transform="scale(-1, 1)">
						<g>
							<g transform="rotate(0) translate(125, 0) rotate(45)">
								<path class="st18" d="M-13.3697,363.5877c22.0646-22.0646,57.8384-22.0646,79.903,0c0,0,0,0,0,0"/>
							</g>
						</g>
					</g>
					<g transform="scale(1, 1)">
						<g>
							<g transform="rotate(0) translate(125, 0) rotate(0)">
								<path class="st18" d="M127.4867,247.6416h66.5625"/>
							</g>
						</g>
					</g>
				</g>
				<g>
					<path class="st6" d="M130.4555,158.8916h133.125l0,0v177.5l0,0h-133.125l0,0V158.8916L130.4555,158.8916z"/>
				</g>
				<g>
					<path class="st19" d="M163.7367,163.3291v-53.25 M230.2992,110.0791v53.25"/>
				</g>
				<g>
					<g>
						<g>
							<g transform="translate(-100, 0)">
								<path class="st20" d="M285.9242,242.0947c0,18.3713-11.0938,33.2813-33.2812,33.2813s-33.2812-14.91-33.2812-33.2813
									s0-22.1875,33.2812-22.1875S285.9242,223.7235,285.9242,242.0947z M271.5023,230.3353H258.678
									c-1.4644,0-2.6625,0.9319-3.1506,2.2188c-0.4438,1.2869-1.6862,2.2188-3.1506,2.2188h-14.2
									c-1.8194,0-3.3281,1.5088-3.3281,3.3281v2.2188c0,1.8194,1.5088,3.3281,3.3281,3.3281h11.2269
									c1.4644,0,2.6625-0.9319,3.1506-2.2188c0.4438-1.2869,1.6862-2.2188,3.1506-2.2188h15.7531
									c1.8194,0,3.3281-1.5087,3.3281-3.3281v-2.2188C274.8305,231.7997,273.3217,230.3353,271.5023,230.3353 M271.5023,248.0853
									h-18.7262c-1.4644,0-2.6625,0.9319-3.1506,2.2188c-0.4438,1.2869-1.6862,2.2188-3.1506,2.2188h-12.6912
									c-1.8194,0-3.3281,1.5088-3.3281,3.3281v2.2188c0,1.8194,1.5087,3.3281,3.3281,3.3281h9.7625
									c1.4644,0,2.6625-0.9319,3.1506-2.2188c0.4438-1.2869,1.6862-2.2188,3.1506-2.2188h21.6994
									c1.8194,0,3.3281-1.5088,3.3281-3.3281v-2.2188C274.8305,249.5941,273.3217,248.0853,271.5023,248.0853"/>
							</g>
							<g transform="translate(100, 0)">
								<path class="st20" d="M174.6742,242.0947c0,18.3713-11.0938,33.2813-33.2812,33.2813s-33.2812-14.91-33.2812-33.2813
									s0-22.1875,33.2812-22.1875S174.6742,223.7235,174.6742,242.0947z M160.2523,230.3353H147.428
									c-1.4644,0-2.6625,0.9319-3.1506,2.2188c-0.4438,1.2869-1.6862,2.2188-3.1506,2.2188h-14.2
									c-1.8194,0-3.3281,1.5088-3.3281,3.3281v2.2188c0,1.8194,1.5088,3.3281,3.3281,3.3281h11.2269
									c1.4644,0,2.6625-0.9319,3.1506-2.2188c0.4438-1.2869,1.6862-2.2188,3.1506-2.2188h15.7531
									c1.8194,0,3.3281-1.5087,3.3281-3.3281v-2.2188C163.5805,231.7997,162.0717,230.3353,160.2523,230.3353 M160.2523,248.0853
									h-18.7262c-1.4644,0-2.6625,0.9319-3.1506,2.2188c-0.4438,1.2869-1.6863,2.2188-3.1506,2.2188h-12.6912
									c-1.8194,0-3.3281,1.5088-3.3281,3.3281v2.2188c0,1.8194,1.5088,3.3281,3.3281,3.3281h9.7625
									c1.4644,0,2.6625-0.9319,3.1506-2.2188c0.4438-1.2869,1.6862-2.2188,3.1506-2.2188h21.6994
									c1.8194,0,3.3281-1.5088,3.3281-3.3281v-2.2188C163.5805,249.5941,162.0717,248.0853,160.2523,248.0853"/>
							</g>
							<path class="st21" d="M180.3774,243.2041c0-9.1904,7.4503-16.6406,16.6406-16.6406c9.1904,0,16.6406,7.4503,16.6406,16.6406"
								/>
						</g>
					</g>
					<g transform="translate(0, 150)">
						<path class="st22" d="M174.8305,153.1103c13.7297,7.9268,30.6453,7.9268,44.375,0"/>
					</g>
				</g>
			</g>
		</g>
	</g>
</g>
<g id="XMLID_771_">
	<path id="XMLID_773_" class="st23" d="M555.9484,181.1228H341.1921c-17.6555,0-32.1009-14.4454-32.1009-32.1009v-7.9882
		c0-17.6555,14.4454-32.1009,32.1009-32.1009h214.7563c17.6555,0,32.1009,14.4454,32.1009,32.1009v7.9882
		C588.0493,166.6774,573.6038,181.1228,555.9484,181.1228z"/>
	<polygon id="XMLID_772_" class="st23" points="319.7486,151.5326 291.0492,188.1993 331.9241,168.2945 	"/>
</g>
<g>
	<path class="st20" d="M371.8794,134.6685c0.2197,0,0.4097,0.0801,0.5703,0.2402c0.1597,0.1602,0.2397,0.3501,0.2397,0.5698v4.8301
		c0,0.2202-0.0801,0.4102-0.2397,0.5698c-0.1606,0.1602-0.3506,0.2402-0.5703,0.2402h-4.98v13.7397
		c0,0.2202-0.0801,0.4102-0.2397,0.5698c-0.1606,0.1606-0.3501,0.2402-0.5703,0.2402h-6c-0.2202,0-0.4102-0.0796-0.5698-0.2402
		c-0.1602-0.1597-0.2402-0.3496-0.2402-0.5698v-13.7397h-4.98c-0.2202,0-0.4102-0.0801-0.5698-0.2402
		c-0.1602-0.1597-0.2402-0.3496-0.2402-0.5698v-4.8301c0-0.2197,0.0801-0.4097,0.2402-0.5698
		c0.1597-0.1602,0.3496-0.2402,0.5698-0.2402H371.8794z"/>
	<path class="st20" d="M393.8994,134.6685c0.2197,0,0.4097,0.0801,0.5698,0.2402c0.1597,0.1602,0.2397,0.3501,0.2397,0.5698v19.3799
		c0,0.2202-0.0801,0.4102-0.2397,0.5698c-0.1602,0.1606-0.3501,0.2402-0.5698,0.2402h-5.8804c-0.2202,0-0.4102-0.0796-0.5698-0.2402
		c-0.1602-0.1597-0.2402-0.3496-0.2402-0.5698v-6.48h-4.8599v6.48c0,0.2202-0.0801,0.4102-0.2397,0.5698
		c-0.1606,0.1606-0.3501,0.2402-0.5703,0.2402h-5.8799c-0.2202,0-0.4102-0.0752-0.5698-0.2251
		c-0.1606-0.1499-0.2402-0.3447-0.2402-0.585v-19.3799c0-0.2197,0.0796-0.4097,0.2402-0.5698
		c0.1597-0.1602,0.3496-0.2402,0.5698-0.2402h5.8799c0.2202,0,0.4097,0.0801,0.5703,0.2402
		c0.1597,0.1602,0.2397,0.3501,0.2397,0.5698v6.2998h4.8599v-6.2998c0-0.2197,0.0801-0.4097,0.2402-0.5698
		c0.1597-0.1602,0.3496-0.2402,0.5698-0.2402H393.8994z"/>
	<path class="st20" d="M410.939,134.6685c0.3999,0,0.7095,0.1104,0.9297,0.3301c0.2202,0.2202,0.3604,0.4399,0.4204,0.6602
		l6.6899,19.1396c0.0195,0.0601,0.0298,0.1304,0.0298,0.21c0,0.1802-0.0649,0.3354-0.1948,0.4653
		c-0.1304,0.1304-0.2852,0.1948-0.4648,0.1948h-5.5503c-0.4004,0-0.6802-0.085-0.8398-0.2549
		c-0.1606-0.1699-0.27-0.335-0.3301-0.4951l-0.7202-1.98h-6.4497l-0.7202,1.98c-0.0601,0.1602-0.1699,0.3252-0.3301,0.4951
		s-0.4399,0.2549-0.8398,0.2549h-5.5498c-0.1802,0-0.3354-0.0645-0.4653-0.1948c-0.1304-0.1299-0.1948-0.2852-0.1948-0.4653
		c0-0.0796,0.0098-0.1499,0.0298-0.21l6.6904-19.1396c0.0596-0.2202,0.1997-0.4399,0.4199-0.6602
		c0.2197-0.2197,0.5298-0.3301,0.9297-0.3301H410.939z M409.3789,147.0884l-1.71-5.5801l-1.6802,5.5801H409.3789z"/>
	<path class="st20" d="M438.749,134.6685c0.2197,0,0.4097,0.0801,0.5698,0.2402c0.1597,0.1602,0.2397,0.3501,0.2397,0.5698v19.3799
		c0,0.2202-0.0801,0.4102-0.2397,0.5698c-0.1602,0.1606-0.3501,0.2402-0.5698,0.2402h-4.7402c-0.4004,0-0.6899-0.0898-0.8701-0.27
		c-0.1797-0.1802-0.2998-0.3198-0.3599-0.4199l-5.0698-7.6499v7.5298c0,0.2202-0.0806,0.4102-0.2402,0.5698
		c-0.1602,0.1606-0.3501,0.2402-0.5698,0.2402h-5.4302c-0.2202,0-0.4102-0.0796-0.5698-0.2402
		c-0.1606-0.1597-0.2402-0.3496-0.2402-0.5698v-19.3799c0-0.2197,0.0796-0.4097,0.2402-0.5698
		c0.1597-0.1602,0.3496-0.2402,0.5698-0.2402h4.7402c0.3994,0,0.6899,0.0898,0.8696,0.27c0.1802,0.1802,0.3003,0.3203,0.3604,0.4199
		l5.0698,8.3101v-8.1899c0-0.2197,0.0796-0.4097,0.2402-0.5698c0.1597-0.1602,0.3496-0.2402,0.5698-0.2402H438.749z"/>
	<path class="st20" d="M462.5083,154.6782c0.0601,0.1006,0.0903,0.2104,0.0903,0.3301c0,0.1802-0.0654,0.3354-0.1953,0.4653
		c-0.1304,0.1304-0.2847,0.1948-0.4648,0.1948h-6.8398c-0.4004,0-0.6953-0.0898-0.8853-0.27
		c-0.1904-0.1802-0.3052-0.3198-0.3447-0.4199l-3.6602-6.54v6.4199c0,0.2202-0.0801,0.4102-0.2402,0.5698
		c-0.1602,0.1606-0.3501,0.2402-0.5698,0.2402h-5.73c-0.2202,0-0.4102-0.0796-0.5698-0.2402
		c-0.1606-0.1597-0.2402-0.3496-0.2402-0.5698v-19.3799c0-0.2197,0.0796-0.4097,0.2402-0.5698
		c0.1597-0.1602,0.3496-0.2402,0.5698-0.2402h5.73c0.2197,0,0.4097,0.0801,0.5698,0.2402s0.2402,0.3501,0.2402,0.5698v5.9399
		l3.3901-6.0898c0.0996-0.1602,0.2397-0.3101,0.4199-0.4502c0.1802-0.1396,0.4395-0.21,0.7798-0.21h6.6304
		c0.1797,0,0.3345,0.0649,0.4648,0.1948c0.1299,0.1304,0.1948,0.2852,0.1948,0.4653c0,0.1401-0.0298,0.25-0.0898,0.3301
		l-5.3999,9.0596L462.5083,154.6782z"/>
	<path class="st20" d="M475.1382,155.6685c-0.2202,0-0.4102-0.0796-0.5698-0.2402c-0.1606-0.1597-0.2402-0.3496-0.2402-0.5698
		v-5.9102l-6.75-13.3496c-0.04-0.0801-0.0601-0.1699-0.0601-0.27c0-0.1802,0.0649-0.335,0.1953-0.4653
		c0.1299-0.1299,0.2847-0.1948,0.4648-0.1948h5.6401c0.3999,0,0.6997,0.1001,0.8999,0.2998
		c0.1997,0.2002,0.3198,0.3506,0.3599,0.4502l3,6.0298l3-6.0298c0.04-0.0996,0.1602-0.25,0.3599-0.4502
		c0.1997-0.1997,0.5-0.2998,0.9004-0.2998h5.6396c0.1802,0,0.335,0.0649,0.4653,0.1948c0.1299,0.1304,0.1948,0.2852,0.1948,0.4653
		c0,0.1001-0.02,0.1899-0.0601,0.27l-6.75,13.3496v5.9102c0,0.2202-0.0801,0.4102-0.2397,0.5698
		c-0.1606,0.1606-0.3501,0.2402-0.5703,0.2402H475.1382z"/>
	<path class="st20" d="M508.8579,142.5884c0.04,0.8604,0.0601,1.7505,0.0601,2.6699c0,0.9204-0.02,1.7905-0.0601,2.6104
		c-0.0601,1.3398-0.3403,2.5151-0.8398,3.5249c-0.5,1.0103-1.1851,1.855-2.0552,2.5347c-0.8701,0.6802-1.9102,1.1904-3.1201,1.5303
		s-2.5449,0.5098-4.0049,0.5098c-1.48,0-2.8198-0.1699-4.02-0.5098c-1.1997-0.3398-2.2349-0.8501-3.105-1.5303
		c-0.8701-0.6797-1.5552-1.5244-2.0547-2.5347c-0.5005-1.0098-0.7803-2.1851-0.8403-3.5249
		c-0.04-0.8198-0.0601-1.6899-0.0601-2.6104c0-0.9194,0.02-1.8096,0.0601-2.6699c0.0601-1.3198,0.3398-2.4897,0.8403-3.5098
		c0.4995-1.02,1.1846-1.8799,2.0547-2.5801c0.8701-0.6997,1.9053-1.23,3.105-1.5898c1.2002-0.3604,2.54-0.54,4.02-0.54
		c1.46,0,2.7949,0.1797,4.0049,0.54c1.21,0.3599,2.25,0.8901,3.1201,1.5898c0.8701,0.7002,1.5552,1.5601,2.0552,2.5801
		C508.5176,140.0986,508.7979,141.2686,508.8579,142.5884z M496.6182,147.6885c0.0396,0.8398,0.2549,1.4551,0.645,1.8452
		c0.3896,0.3896,0.915,0.585,1.5747,0.585c0.6602,0,1.1851-0.1953,1.5752-0.585c0.3901-0.3901,0.6045-1.0054,0.645-1.8452
		c0.0601-1.6997,0.0601-3.3799,0-5.04c-0.0405-0.8398-0.2603-1.4551-0.6602-1.8452c-0.4004-0.3896-0.9199-0.585-1.5601-0.585
		s-1.1602,0.1953-1.5601,0.585c-0.3999,0.3901-0.6201,1.0054-0.6597,1.8452C496.5581,144.3086,496.5581,145.9888,496.6182,147.6885z
		"/>
	<path class="st20" d="M530.0679,134.6685c0.2197,0,0.4097,0.0801,0.5698,0.2402s0.2402,0.3501,0.2402,0.5698v12.27
		c0,1.4204-0.2402,2.645-0.7202,3.6748c-0.48,1.0303-1.145,1.8853-1.9951,2.5649c-0.8501,0.6802-1.8701,1.1807-3.0601,1.5
		c-1.1899,0.3198-2.4951,0.48-3.9146,0.48c-1.4404,0-2.7603-0.1602-3.9604-0.48c-1.1997-0.3193-2.2251-0.8198-3.0747-1.5
		c-0.8506-0.6797-1.5151-1.5347-1.9951-2.5649c-0.48-1.0298-0.7197-2.2544-0.7197-3.6748v-12.27
		c0-0.2197,0.0796-0.4097,0.2397-0.5698c0.1597-0.1602,0.3496-0.2402,0.5698-0.2402h5.8804c0.2197,0,0.4097,0.0801,0.5698,0.2402
		c0.1597,0.1602,0.2402,0.3501,0.2402,0.5698v12.1499c0,1.5405,0.7393,2.3101,2.2197,2.3101c1.48,0,2.2202-0.7695,2.2202-2.3101
		v-12.1499c0-0.2197,0.0796-0.4097,0.2397-0.5698s0.3496-0.2402,0.5703-0.2402H530.0679z"/>
</g>
<path class="st6" d="M221.3617,110.1993l-28.5833,16.3333v-12.25l-20.4167,4.0833l28.5833-16.3333v12.25"/>
</svg>
