<?xml version="1.0" encoding="utf-8"?>
<!-- Generator: Adobe Illustrator 21.1.0, SVG Export Plug-In . SVG Version: 6.00 Build 0)  -->
<svg width="1300px" height="500px" version="1.1" id="Layer_1" xmlns="http://www.w3.org/2000/svg" xmlns:xlink="http://www.w3.org/1999/xlink" x="0px" y="0px"
	 viewBox="0 0 1300 500" style="enable-background:new 0 0 1300 500;" xml:space="preserve">
<style type="text/css">
	.st0{fill:url(#XMLID_2_);}
	.st1{fill:#643794;}
	.st2{fill:#51368B;}
	.st3{fill:url(#XMLID_3_);}
	.st4{fill:url(#XMLID_4_);}
	.st5{fill:#D51F33;}
	.st6{fill:url(#XMLID_5_);}
	.st7{fill:url(#XMLID_6_);}
	.st8{fill:#EA6D9A;}
	.st9{fill:url(#XMLID_7_);}
	.st10{fill:none;}
	.st11{fill:#FFFFFF;}
	.st12{fill:#E43574;}
	.st13{fill:url(#XMLID_8_);}
	.st14{fill:url(#XMLID_9_);}
	.st15{fill:url(#XMLID_10_);}
	.st16{fill:url(#XMLID_11_);}
</style>
<g id="XMLID_332_">
	
		<linearGradient id="XMLID_2_" gradientUnits="userSpaceOnUse" x1="1203.05" y1="1812.0414" x2="1203.05" y2="1743.3414" gradientTransform="matrix(1 0 0 1 0 -1402)">
		<stop  offset="0" style="stop-color:#EA6D9A"/>
		<stop  offset="1" style="stop-color:#643794"/>
	</linearGradient>
	<path id="XMLID_603_" class="st0" d="M1203,341.3c-30.3,0-54.9,24.6-54.9,54.9v2.8c0,6,4.9,11,11,11h87.9c6,0,11-4.9,11-11v-2.8
		C1257.9,365.9,1233.3,341.3,1203,341.3z"/>
	<g id="XMLID_550_">
		<path id="XMLID_602_" class="st1" d="M1122.1,158.8c-4.1-1.6-6.9,5.7-4.6,5.7S1124.6,159.8,1122.1,158.8z"/>
		<path id="XMLID_601_" class="st1" d="M1099.2,185.3c-1.3,0.5-4.1,4.4-2.8,5c1.3,0.6,6.3-1.9,6.3-3.2
			C1102.7,185.8,1101.3,184.5,1099.2,185.3z"/>
		<path id="XMLID_600_" class="st1" d="M1128.7,171.1c-1.3,0.5-4.1,4.4-2.8,5c1.3,0.6,6.3-1.9,6.3-3.2
			C1132.2,171.6,1130.8,170.3,1128.7,171.1z"/>
		<path id="XMLID_599_" class="st1" d="M1115.4,169.9c-4.2,0.7-8.7,5.8-7.5,6.4c1.1,0.6,9.4-3.6,9.4-5.1S1118.7,169.3,1115.4,169.9z
			"/>
		<path id="XMLID_598_" class="st1" d="M1157.9,153.4c-3.6,2.6-6,5.8-3.5,5.5s12.4-6.5,10.7-7.4
			C1163.4,150.6,1160.1,151.8,1157.9,153.4z"/>
		<path id="XMLID_597_" class="st1" d="M1113.1,180.9c-3.3,2.1-6,4.4-3.5,4.4s9.3-1.6,9.3-4.1S1115.2,179.6,1113.1,180.9z"/>
		<path id="XMLID_596_" class="st1" d="M1108.7,168.3c2.9-1.2,5-6,2-4.7s-6.6,3.5-6.6,4.6C1104.1,169.3,1107.2,168.9,1108.7,168.3z"
			/>
		<path id="XMLID_595_" class="st1" d="M1140,134c-4.1-1.6-6.9,5.7-4.6,5.7S1142.5,134.9,1140,134z"/>
		<path id="XMLID_594_" class="st1" d="M1154.9,141.7c-1.3,0.5-4.1,4.4-2.8,5c1.3,0.6,6.3-1.9,6.3-3.2
			C1158.4,142.2,1157,141,1154.9,141.7z"/>
		<path id="XMLID_593_" class="st1" d="M1144.3,150.2c-4.2,0.7-8.7,5.8-7.5,6.4c1.1,0.6,9.4-3.6,9.4-5.1S1147.5,149.6,1144.3,150.2z
			"/>
		<path id="XMLID_592_" class="st1" d="M1118.2,150.7c-3.6,2.6-6,5.8-3.5,5.5s12.4-6.5,10.7-7.4
			C1123.7,147.9,1120.4,149.1,1118.2,150.7z"/>
		<path id="XMLID_591_" class="st1" d="M1117.7,196.9c-3.3,2.1-6,4.4-3.5,4.4s9.3-1.6,9.3-4.1
			C1123.6,194.7,1119.8,195.6,1117.7,196.9z"/>
		<path id="XMLID_590_" class="st1" d="M1137.6,148.5c2.9-1.2,5-6,2-4.7c-3,1.3-6.6,3.5-6.6,4.6S1136,149.1,1137.6,148.5z"/>
		<path id="XMLID_589_" class="st1" d="M1152.4,125.3c-4.1-1.6-6.9,5.7-4.6,5.7C1150.2,130.9,1154.9,126.2,1152.4,125.3z"/>
		<path id="XMLID_588_" class="st1" d="M1183.7,122c-1.3,0.5-4.1,4.4-2.8,5c1.3,0.6,6.3-1.9,6.3-3.2
			C1187.2,122.5,1185.8,121.2,1183.7,122z"/>
		<path id="XMLID_587_" class="st1" d="M1167.4,132.1c-4.2,0.7-8.7,5.8-7.5,6.4c1.1,0.6,9.4-3.6,9.4-5.1S1170.6,131.5,1167.4,132.1z
			"/>
		<path id="XMLID_586_" class="st1" d="M1183.9,132c-3.6,2.6-6,5.8-3.5,5.5c2.5-0.3,12.4-6.5,10.7-7.4
			C1189.4,129.2,1186.1,130.5,1183.9,132z"/>
		<path id="XMLID_585_" class="st1" d="M1202.4,180.8c-3.6,2.6-6,5.8-3.5,5.5s12.4-6.5,10.7-7.4
			C1207.9,178,1204.6,179.2,1202.4,180.8z"/>
		<path id="XMLID_584_" class="st1" d="M1170.8,141.3c-3.3,2.1-6,4.4-3.5,4.4s9.3-1.6,9.3-4.1S1172.9,140.1,1170.8,141.3z"/>
		<path id="XMLID_583_" class="st1" d="M1167,122.5c2.9-1.2,5-6,2-4.7c-3,1.3-6.6,3.5-6.6,4.6S1165.4,123.1,1167,122.5z"/>
		<path id="XMLID_582_" class="st1" d="M1208.6,99.5c-4.1-1.6-6.9,5.7-4.6,5.7S1211.2,100.5,1208.6,99.5z"/>
		<path id="XMLID_581_" class="st1" d="M1212.6,102.2c-1.3,0.5-4.1,4.4-2.8,5c1.3,0.6,6.3-1.9,6.3-3.2
			C1216.1,102.7,1214.6,101.4,1212.6,102.2z"/>
		<path id="XMLID_580_" class="st1" d="M1198.9,122.7c-1.3,0.5-4.1,4.4-2.8,5c1.3,0.6,6.3-1.9,6.3-3.2
			C1202.4,123.2,1201,121.9,1198.9,122.7z"/>
		<path id="XMLID_579_" class="st1" d="M1202,110.6c-4.2,0.7-8.7,5.8-7.5,6.4c1.1,0.6,9.4-3.6,9.4-5.1S1205.2,110,1202,110.6z"/>
		<path id="XMLID_578_" class="st1" d="M1212.7,112.3c-3.6,2.6-6,5.8-3.5,5.5s12.4-6.5,10.7-7.4
			C1218.3,109.4,1214.9,110.7,1212.7,112.3z"/>
		<path id="XMLID_577_" class="st1" d="M1184.9,112c-3.3,2.1-6,4.4-3.5,4.4s9.3-1.6,9.3-4.1S1187,110.7,1184.9,112z"/>
		<path id="XMLID_576_" class="st1" d="M1179.6,111.3c2.9-1.2,5-6,2-4.7c-3,1.3-6.6,3.5-6.6,4.6S1178,111.9,1179.6,111.3z"/>
		<path id="XMLID_575_" class="st1" d="M1149.3,179.4c-4.1-1.6-6.9,5.7-4.6,5.7C1147.1,185.1,1151.8,180.4,1149.3,179.4z"/>
		<path id="XMLID_574_" class="st1" d="M1153.3,182.1c-1.3,0.5-4.1,4.4-2.8,5c1.3,0.6,6.3-1.9,6.3-3.2
			C1156.8,182.6,1155.3,181.3,1153.3,182.1z"/>
		<path id="XMLID_573_" class="st1" d="M1155.9,191.7c-1.3,0.5-4.1,4.4-2.8,5c1.3,0.6,6.3-1.9,6.3-3.2
			C1159.4,192.2,1158,190.9,1155.9,191.7z"/>
		<path id="XMLID_572_" class="st1" d="M1185.1,174c-3.6,2.6-6,5.8-3.5,5.5s12.4-6.5,10.7-7.4C1190.6,171.2,1187.3,172.4,1185.1,174
			z"/>
		<path id="XMLID_571_" class="st1" d="M1140.3,201.5c-3.3,2.1-6,4.4-3.5,4.4s9.3-1.6,9.3-4.1S1142.4,200.2,1140.3,201.5z"/>
		<path id="XMLID_570_" class="st1" d="M1135.9,188.9c2.9-1.2,5-6,2-4.7s-6.6,3.5-6.6,4.6C1131.4,189.8,1134.3,189.5,1135.9,188.9z"
			/>
		<path id="XMLID_569_" class="st1" d="M1184.8,148.1c-4.1-1.6-6.9,5.7-4.6,5.7S1187.3,149.1,1184.8,148.1z"/>
		<path id="XMLID_568_" class="st1" d="M1182.1,162.3c-1.3,0.5-4.1,4.4-2.8,5c1.3,0.6,6.3-1.9,6.3-3.2
			C1185.6,162.8,1184.1,161.6,1182.1,162.3z"/>
		<path id="XMLID_567_" class="st1" d="M1171.5,170.8c-4.2,0.7-8.7,5.8-7.5,6.4c1.1,0.6,9.4-3.6,9.4-5.1S1174.7,170.2,1171.5,170.8z
			"/>
		<path id="XMLID_566_" class="st1" d="M1107.9,191.9c-3.6,2.6-6,5.8-3.5,5.5s12.4-6.5,10.7-7.4
			C1113.5,189,1110.2,190.3,1107.9,191.9z"/>
		<path id="XMLID_565_" class="st1" d="M1095.7,174.6c-3.3,2.1-6,4.4-3.5,4.4s9.3-1.6,9.3-4.1S1097.7,173.4,1095.7,174.6z"/>
		<path id="XMLID_564_" class="st1" d="M1167.2,164.5c2.9-1.2,5-6,2-4.7s-6.6,3.5-6.6,4.6C1162.6,165.5,1165.6,165.1,1167.2,164.5z"
			/>
		<path id="XMLID_563_" class="st1" d="M1207,139.9c-4.1-1.6-6.9,5.7-4.6,5.7C1204.8,145.6,1209.5,140.8,1207,139.9z"/>
		<path id="XMLID_562_" class="st1" d="M1212.9,125.2c-1.3,0.5-4.1,4.4-2.8,5c1.3,0.6,6.3-1.9,6.3-3.2S1215,124.4,1212.9,125.2z"/>
		<path id="XMLID_561_" class="st1" d="M1200.3,151c-4.2,0.7-8.7,5.8-7.5,6.4c1.1,0.6,9.4-3.6,9.4-5.1S1203.6,150.4,1200.3,151z"/>
		<path id="XMLID_560_" class="st1" d="M1211.1,152.6c-3.6,2.6-6,5.8-3.5,5.5s12.4-6.5,10.7-7.4
			C1216.6,149.8,1213.3,151.1,1211.1,152.6z"/>
		<path id="XMLID_559_" class="st1" d="M1207.3,167.6c-3.3,2.1-6,4.4-3.5,4.4s9.3-1.6,9.3-4.1S1209.4,166.4,1207.3,167.6z"/>
		<path id="XMLID_558_" class="st1" d="M1193.6,149.3c2.9-1.2,5-6,2-4.7s-6.6,3.5-6.6,4.6C1189,150.3,1192,150,1193.6,149.3z"/>
		<path id="XMLID_557_" class="st1" d="M1238.3,107.7c-4.1-1.6-6.9,5.7-4.6,5.7S1240.8,108.7,1238.3,107.7z"/>
		<path id="XMLID_556_" class="st1" d="M1239.8,122.8c-1.3,0.5-4.1,4.4-2.8,5c1.3,0.6,6.3-1.9,6.3-3.2
			C1243.3,123.3,1241.8,122,1239.8,122.8z"/>
		<path id="XMLID_555_" class="st1" d="M1229.4,144.1c-1.3,0.5-4.1,4.4-2.8,5c1.3,0.6,6.3-1.9,6.3-3.2S1231.5,143.3,1229.4,144.1z"
			/>
		<path id="XMLID_554_" class="st1" d="M1229.1,131.2c-4.2,0.7-8.7,5.8-7.5,6.4c1.1,0.6,9.4-3.6,9.4-5.1S1232.4,130.6,1229.1,131.2z
			"/>
		<path id="XMLID_553_" class="st1" d="M1239.9,132.9c-3.6,2.6-6,5.8-3.5,5.5s12.4-6.5,10.7-7.4
			C1245.4,130.1,1242.1,131.3,1239.9,132.9z"/>
		<path id="XMLID_552_" class="st1" d="M1198.9,134.2c-3.3,2.1-6,4.4-3.5,4.4s9.3-1.6,9.3-4.1S1201,133,1198.9,134.2z"/>
		<path id="XMLID_551_" class="st1" d="M1222.4,129.6c2.9-1.2,5-6,2-4.7c-3,1.3-6.6,3.5-6.6,4.6
			C1217.9,130.5,1220.9,130.2,1222.4,129.6z"/>
	</g>
	<path id="XMLID_544_" class="st2" d="M269.9,323.4c-3.3,0-5.9-2.7-5.9-5.9v-30c-14.2-0.5-25.8-3-26.3-3.1l-8.2-1.8l8-2.6
		c0.1,0,9.1-3,16-8.7c-9.1-0.9-15.4-2.3-15.8-2.3l-8.2-1.8l8-2.6c0.1,0,9.1-3,16-8.7c-9.1-0.9-15.4-2.3-15.8-2.3l-8.2-1.8l8-2.6
		c0.1,0,10.7-3.5,17.8-10.3c-4.4-0.6-7.3-1.2-7.5-1.2l-8.2-1.8l8-2.6c0.1,0,7.4-2.4,11.9-7c3.5-3.5,5.8-9.1,6.7-11.4
		c0.6-1.8,2-2,2.6-2c0.7,0,2,0.3,2.6,2c0.9,2.4,3.3,8,6.7,11.5c4.6,4.6,11.9,7,11.9,7l7.9,2.6l-8.1,1.8c-0.2,0-3.1,0.7-7.5,1.2
		c7,6.7,17.6,10.2,17.8,10.2l7.9,2.6l-8.1,1.8c-0.3,0.1-6.6,1.5-15.7,2.4c6.9,5.7,15.8,8.6,15.9,8.6l7.9,2.6l-8.1,1.8
		c-0.3,0.1-6.6,1.5-15.7,2.4c6.9,5.7,15.8,8.6,15.9,8.6l7.9,2.6l-8.1,1.8c-0.5,0.1-10.7,2.3-23.9,3v30.1
		C275.8,320.7,273.2,323.4,269.9,323.4z M246.1,281.2c5.1,0.8,12.4,1.6,20.1,1.7h2.2v34.5c0,0.8,0.6,1.4,1.4,1.4s1.4-0.6,1.4-1.4
		v-34.5l2.2-0.1c6.9-0.2,13.2-1,17.8-1.7c-4-2-8.8-4.9-12.7-8.8c-0.5-0.5-0.9-1-1.4-1.5l-3-3.4l4.6-0.3c4.8-0.3,9.2-0.9,12.6-1.4
		c-4-2-8.8-4.9-12.7-8.8c-0.5-0.5-0.9-1-1.4-1.5l-3-3.4l4.6-0.3c4.8-0.3,9.2-0.9,12.6-1.4c-4-2-8.8-4.9-12.7-8.8
		c-0.9-0.9-1.8-1.9-2.7-3.1l-2.6-3.3l4.1-0.4c1.5-0.1,2.8-0.3,4.1-0.4c-2.2-1.3-4.7-2.9-6.7-4.9c-2.6-2.6-4.7-6.1-6.1-9.1
		c-1.4,3-3.4,6.5-6.1,9.1c-2,2-4.4,3.7-6.7,4.9c1.2,0.2,2.6,0.3,4,0.4l4.1,0.4l-2.5,3.3c-0.9,1.2-1.8,2.2-2.7,3.1
		c-3.9,3.9-8.7,6.8-12.7,8.7c3.4,0.5,7.8,1,12.6,1.4l4.5,0.3l-3,3.4c-0.5,0.5-0.9,1-1.4,1.5c-3.9,3.9-8.7,6.8-12.7,8.7
		c3.4,0.5,7.8,1,12.6,1.4l4.5,0.3l-3,3.4c-0.5,0.5-0.9,1-1.4,1.5C254.9,276.3,250.1,279.3,246.1,281.2z"/>
	<path id="XMLID_543_" class="st2" d="M806.6,220.3c-0.9,0-1.7-0.5-2.1-1.4c-0.5-1.2,0.1-2.5,1.3-2.9l190.4-76.2
		c1.2-0.5,2.5,0.1,2.9,1.3c0.5,1.2-0.1,2.5-1.3,2.9l-190.4,76.2C807.1,220.2,806.8,220.3,806.6,220.3z"/>
	<path id="XMLID_542_" class="st2" d="M813.8,203.5c-0.9,0-1.7-0.5-2.1-1.4c-0.5-1.2,0.1-2.5,1.3-2.9l190.4-76.2
		c1.2-0.5,2.5,0.1,2.9,1.3c0.5,1.2-0.1,2.5-1.3,2.9l-190.4,76.2C814.3,203.5,814,203.5,813.8,203.5z"/>
	<path id="XMLID_541_" class="st2" d="M2.3,492c-0.9,0-1.7-0.5-2.1-1.4c-0.5-1.2,0.1-2.5,1.3-2.9l190.4-76.2
		c1.2-0.5,2.5,0.1,2.9,1.3c0.5,1.2-0.1,2.5-1.3,2.9L3.1,491.9C2.8,492,2.5,492,2.3,492z"/>
	<path id="XMLID_540_" class="st2" d="M9.5,475.2c-0.9,0-1.7-0.5-2.1-1.4c-0.5-1.2,0.1-2.5,1.3-2.9l190.4-76.2
		c1.2-0.5,2.5,0.1,2.9,1.3c0.5,1.2-0.1,2.5-1.3,2.9L10.3,475.1C10,475.2,9.7,475.2,9.5,475.2z"/>
	
		<linearGradient id="XMLID_3_" gradientUnits="userSpaceOnUse" x1="766.7" y1="1808.4414" x2="766.7" y2="1627.3414" gradientTransform="matrix(1 0 0 1 0 -1402)">
		<stop  offset="0" style="stop-color:#EA6D9A"/>
		<stop  offset="1" style="stop-color:#643794"/>
	</linearGradient>
	<path id="XMLID_534_" class="st3" d="M766.7,225.3c-79.9,0-144.8,64.8-144.8,144.8v7.3c0,15.9,13,29,29,29h231.6
		c15.9,0,29-13,29-29v-7.3C911.5,290.1,846.7,225.3,766.7,225.3z M874.3,327.6c-5.7,2.4-8.1-1-10-5.7c-1.9-4.7-9.6-21.5-33-46.9
		s-67-34.7-67-34.7c51.4,0,95.4,31.5,113.8,76.3C878,316.6,880.1,325.2,874.3,327.6z"/>
	
		<linearGradient id="XMLID_4_" gradientUnits="userSpaceOnUse" x1="561.9" y1="1807.7415" x2="561.9" y2="1681.1415" gradientTransform="matrix(1 0 0 1 0 -1402)">
		<stop  offset="0" style="stop-color:#EA6D9A"/>
		<stop  offset="1" style="stop-color:#643794"/>
	</linearGradient>
	<path id="XMLID_526_" class="st4" d="M625.9,345.2c0-0.4,0.1-0.9,0.1-1.3v-3.1c0-34.1-27.6-61.7-61.7-61.7
		c-34.1,0-61.7,27.6-61.7,61.7v3.1c0,0.4,0,0.9,0.1,1.3c-0.7,33.4-28,60.3-61.5,60.4v0.1h241.4v-0.3
		C651.2,402.8,626.5,377,625.9,345.2z M593.5,322.4c-0.7-1.8-1.4-9-10-18.4c-8.7-9.4-20.7-13.6-20.7-13.6c19,0,35.3,11.7,42.1,28.2
		c0,0,1.6,6.1-2.7,7.2C596.4,327.4,594.2,324.2,593.5,322.4z M602.8,345.2c-3.6,0-6.6-3-6.6-6.6s3-6.6,6.6-6.6s6.6,3,6.6,6.6
		S606.4,345.2,602.8,345.2z"/>
	<g id="XMLID_512_">
		<g id="XMLID_523_">
			<path id="XMLID_525_" class="st5" d="M1019.5,192.5c0,0-12.5,7.5-16.6,7.5c-4.2,0-7.5-3.4-7.5-7.5c0-4.1,3.4-7.5,7.5-7.5
				S1019.5,192.5,1019.5,192.5z"/>
			<path id="XMLID_524_" class="st5" d="M1020.3,192.5c0,0,12.5-7.5,16.6-7.5c4.2,0,7.5,3.4,7.5,7.5c0,4.1-3.4,7.5-7.5,7.5
				C1032.7,200,1020.3,192.5,1020.3,192.5z"/>
		</g>
		<g id="XMLID_520_">
			<path id="XMLID_522_" class="st5" d="M1019.5,214.9c0,0-12.5,7.5-16.6,7.5c-4.2,0-7.5-3.4-7.5-7.5s3.4-7.5,7.5-7.5
				S1019.5,214.9,1019.5,214.9z"/>
			<path id="XMLID_521_" class="st5" d="M1020.3,214.9c0,0,12.5-7.5,16.6-7.5c4.2,0,7.5,3.4,7.5,7.5c0,4.1-3.4,7.5-7.5,7.5
				C1032.7,222.4,1020.3,214.9,1020.3,214.9z"/>
		</g>
		<g id="XMLID_517_">
			<path id="XMLID_519_" class="st5" d="M1019.5,237.3c0,0-12.5,7.5-16.6,7.5c-4.2,0-7.5-3.4-7.5-7.5s3.4-7.5,7.5-7.5
				S1019.5,237.3,1019.5,237.3z"/>
			<path id="XMLID_518_" class="st5" d="M1020.3,237.3c0,0,12.5-7.5,16.6-7.5c4.2,0,7.5,3.4,7.5,7.5s-3.4,7.5-7.5,7.5
				C1032.7,244.8,1020.3,237.3,1020.3,237.3z"/>
		</g>
		<rect id="XMLID_516_" x="1019.7" y="168" class="st5" width="1.6" height="117.9"/>
		<circle id="XMLID_515_" class="st5" cx="1020.1" cy="166" r="13.1"/>
		<path id="XMLID_514_" class="st1" d="M1033.1,166.8c0-0.3,0-0.5,0-0.8c0-7.2-5.8-13.1-13.1-13.1c-7.2,0-13.1,5.8-13.1,13.1
			c0,0.3,0,0.5,0,0.8H1033.1z"/>
		<circle id="XMLID_513_" class="st1" cx="1020.4" cy="150" r="5.9"/>
	</g>
	
		<linearGradient id="XMLID_5_" gradientUnits="userSpaceOnUse" x1="1038.3" y1="1787.7415" x2="1038.3" y2="1672.9414" gradientTransform="matrix(1 0 0 1 0 -1402)">
		<stop  offset="0" style="stop-color:#EA6D9A"/>
		<stop  offset="1" style="stop-color:#643794"/>
	</linearGradient>
	<path id="XMLID_506_" class="st6" d="M1038.3,270.9c-50.7,0-91.8,41.1-91.8,91.8v4.6c0,10.1,8.3,18.4,18.4,18.4h146.8
		c10.1,0,18.4-8.3,18.4-18.4v-4.6C1130.1,312,1089,270.9,1038.3,270.9z M1107.9,335.8c-3.4,1.4-9-0.3-10.1-3.1
		c-1.1-2.8-3.1-12.6-16.8-27.5c-13.8-14.9-37.8-20.7-37.8-20.7c30.2,0,56.1,18.5,66.9,44.9C1110,329.3,1111.2,334.4,1107.9,335.8z"
		/>
	
		<linearGradient id="XMLID_6_" gradientUnits="userSpaceOnUse" x1="153.6" y1="1811.6415" x2="153.6" y2="1696.8414" gradientTransform="matrix(1 0 0 1 0 -1402)">
		<stop  offset="0" style="stop-color:#EA6D9A"/>
		<stop  offset="1" style="stop-color:#643794"/>
	</linearGradient>
	<path id="XMLID_500_" class="st7" d="M153.6,294.8c-50.7,0-91.8,41.1-91.8,91.8v4.6c0,10.1,8.3,18.4,18.4,18.4H227
		c10.1,0,18.4-8.3,18.4-18.4v-4.6C245.4,335.9,204.3,294.8,153.6,294.8z M223.1,359.7c-3.4,1.4-9-0.3-10.1-3.1
		c-1.1-2.8-3.1-12.6-16.8-27.5c-13.8-14.9-37.8-20.7-37.8-20.7c30.2,0,56.1,18.5,66.9,44.9C225.3,353.2,226.5,358.3,223.1,359.7z"/>
	<path id="XMLID_498_" class="st8" d="M842.2,431.9v27v3.1v3.1c0,4.6-3.8,8.4-8.4,8.4h-3.1l0,0l0,0h-3.1c-4.6,0-8.4-3.8-8.4-8.4V462
		v-3.1v-34.7c0-3.8-2.4-7-5.8-8.2l0,0l0,0l0,0c-3.3-1.2-5.7-4.4-5.7-8.1v-18.4l0,0v-3.1c0-4.6,3.8-8.4,8.4-8.4h6.3
		c4.6,0,8.4,3.8,8.4,8.4v6.3l0,0v23c0,3.8,2.4,7,5.8,8.1l0,0C839.8,424.9,842.2,428.1,842.2,431.9z"/>
	
		<linearGradient id="XMLID_7_" gradientUnits="userSpaceOnUse" x1="339.8501" y1="1812.0415" x2="339.8501" y2="1682.4414" gradientTransform="matrix(1 0 0 1 0 -1402)">
		<stop  offset="0" style="stop-color:#EA6D9A"/>
		<stop  offset="1" style="stop-color:#643794"/>
	</linearGradient>
	<path id="XMLID_496_" class="st9" d="M339.9,280.4c-57.3,0-103.7,46.4-103.7,103.7v5.2c0,11.4,9.3,20.7,20.7,20.7h165.9
		c11.4,0,20.7-9.3,20.7-20.7v-5.2C443.6,326.8,397.2,280.4,339.9,280.4z"/>
	<path id="XMLID_490_" class="st1" d="M697.9,373.2c-3.3,0-5.9-2.7-5.9-5.9v-27.6c-14.2-0.5-25.8-3-26.3-3.1l-8.2-1.8l8-2.6
		c0.1,0,9.1-3,16-8.7c-9.1-0.9-15.4-2.3-15.8-2.3l-8.2-1.8l8-2.6c0.1,0,9.1-3,16-8.7c-9.1-0.9-15.4-2.3-15.8-2.3l-8.2-1.8l8-2.6
		c0.1,0,10.7-3.5,17.8-10.3c-4.4-0.6-7.3-1.2-7.5-1.2l-8.2-1.8l8-2.6c0.1,0,7.4-2.4,11.9-7c3.5-3.5,5.8-9.1,6.7-11.4
		c0.6-1.8,2-2,2.6-2c0.7,0,2,0.3,2.6,2c0.9,2.4,3.3,8,6.7,11.5c4.6,4.6,11.9,7,11.9,7l7.9,2.6l-8.1,1.8c-0.2,0-3.1,0.7-7.5,1.2
		c7,6.7,17.6,10.2,17.8,10.2l7.9,2.6l-8.1,1.8c-0.3,0.1-6.6,1.5-15.7,2.4c6.9,5.7,15.8,8.6,15.9,8.6l7.9,2.6l-8.1,1.8
		c-0.3,0.1-6.6,1.5-15.7,2.4c6.9,5.7,15.8,8.6,15.9,8.6l7.9,2.6l-8.1,1.8c-0.5,0.1-10.7,2.3-23.9,3v27.7
		C703.8,370.5,701.2,373.2,697.9,373.2z M674.1,333.4c5.1,0.8,12.4,1.6,20.1,1.7h2.2v32.1c0,0.8,0.6,1.4,1.4,1.4
		c0.8,0,1.4-0.6,1.4-1.4v-32.1l2.2-0.1c6.9-0.2,13.2-1,17.8-1.7c-4-2-8.8-4.9-12.7-8.8c-0.5-0.5-0.9-1-1.4-1.5l-3-3.4l4.6-0.3
		c4.8-0.3,9.2-0.9,12.6-1.4c-4-2-8.8-4.9-12.7-8.8c-0.5-0.5-0.9-1-1.4-1.5l-3-3.4l4.6-0.3c4.8-0.3,9.2-0.9,12.6-1.4
		c-4-2-8.8-4.9-12.7-8.8c-0.9-0.9-1.8-1.9-2.7-3.1l-2.6-3.3l4.1-0.4c1.5-0.1,2.8-0.3,4.1-0.4c-2.2-1.3-4.7-2.9-6.7-4.9
		c-2.6-2.6-4.7-6.1-6.1-9.1c-1.4,3-3.4,6.5-6.1,9.1c-2,2-4.4,3.7-6.7,4.9c1.2,0.2,2.6,0.3,4,0.4l4.1,0.4l-2.5,3.3
		c-0.9,1.2-1.8,2.2-2.7,3.1c-3.9,3.9-8.7,6.8-12.7,8.7c3.4,0.5,7.8,1,12.6,1.4l4.5,0.3l-3,3.4c-0.5,0.5-0.9,1-1.4,1.5
		c-3.9,3.9-8.7,6.8-12.7,8.7c3.4,0.5,7.8,1,12.6,1.4l4.5,0.3l-3,3.4c-0.5,0.5-0.9,1-1.4,1.5C682.9,328.5,678.1,331.5,674.1,333.4z"
		/>
	<polygon id="XMLID_489_" class="st10" points="394.4,238.9 397.1,244.3 403.1,245.2 398.8,249.5 399.8,255.4 394.4,252.7 
		389.1,255.4 390,249.5 385.8,245.2 391.7,244.3 	"/>
	<polygon id="XMLID_488_" class="st10" points="573.6,170.1 576.3,175.5 582.3,176.4 578,180.7 579,186.6 573.6,183.9 568.3,186.6 
		569.2,180.7 565,176.4 570.9,175.5 	"/>
	<polygon id="XMLID_487_" class="st10" points="989,237.9 991.7,243.2 997.7,244.2 993.4,248.4 994.4,254.3 989,251.6 983.7,254.3 
		984.6,248.4 980.3,244.2 986.3,243.2 	"/>
	<path id="XMLID_484_" class="st2" d="M1163.6,371.2c-3.3,0-5.9-2.7-5.9-5.9v-27.6c-14.2-0.5-25.8-3-26.3-3.1l-8.2-1.8l8-2.6
		c0.1,0,9.1-3,16-8.7c-9.1-0.9-15.4-2.3-15.8-2.3l-8.2-1.8l8-2.6c0.1,0,9.1-3,16-8.7c-9.1-0.9-15.4-2.3-15.8-2.3l-8.2-1.8l8-2.6
		c0.1,0,10.7-3.5,17.8-10.3c-4.4-0.6-7.3-1.2-7.5-1.2l-8.2-1.8l8-2.6c0.1,0,7.4-2.4,11.9-7c3.5-3.5,5.8-9.1,6.7-11.4
		c0.6-1.8,2-2,2.6-2c0.7,0,2,0.3,2.6,2c0.9,2.4,3.3,8,6.7,11.5c4.6,4.6,11.9,7,11.9,7l7.9,2.6l-8.1,1.8c-0.2,0-3.1,0.7-7.5,1.2
		c7,6.7,17.6,10.2,17.8,10.2l7.9,2.6l-8.1,1.8c-0.3,0.1-6.6,1.5-15.7,2.4c6.9,5.7,15.8,8.6,15.9,8.6l7.9,2.6l-8.1,1.8
		c-0.3,0.1-6.6,1.5-15.7,2.4c6.9,5.7,15.8,8.6,15.9,8.6l7.9,2.6l-8.1,1.8c-0.5,0.1-10.7,2.3-23.9,3v27.7
		C1169.5,368.5,1166.8,371.2,1163.6,371.2z M1139.8,331.4c5.1,0.8,12.4,1.6,20.1,1.7h2.2v32.1c0,0.8,0.6,1.4,1.4,1.4
		s1.4-0.6,1.4-1.4v-32.1l2.2-0.1c6.9-0.2,13.2-1,17.8-1.7c-4-2-8.8-4.9-12.7-8.8c-0.5-0.5-0.9-1-1.4-1.5l-3-3.4l4.6-0.3
		c4.8-0.3,9.2-0.9,12.6-1.4c-4-2-8.8-4.9-12.7-8.8c-0.5-0.5-0.9-1-1.4-1.5l-3-3.4l4.6-0.3c4.8-0.3,9.2-0.9,12.6-1.4
		c-4-2-8.8-4.9-12.7-8.8c-0.9-0.9-1.8-1.9-2.7-3.1l-2.6-3.3l4.1-0.4c1.5-0.1,2.8-0.3,4.1-0.4c-2.2-1.3-4.7-2.9-6.7-4.9
		c-2.6-2.6-4.7-6.1-6.1-9.1c-1.4,3-3.4,6.5-6.1,9.1c-2,2-4.4,3.7-6.7,4.9c1.2,0.2,2.6,0.3,4,0.4l4.1,0.4l-2.5,3.3
		c-0.9,1.2-1.8,2.2-2.7,3.1c-3.9,3.9-8.7,6.8-12.7,8.7c3.4,0.5,7.8,1,12.6,1.4l4.5,0.3l-3,3.4c-0.5,0.5-0.9,1-1.4,1.5
		c-3.9,3.9-8.7,6.8-12.7,8.7c3.4,0.5,7.8,1,12.6,1.4l4.5,0.3l-3,3.4c-0.5,0.5-0.9,1-1.4,1.5C1148.6,326.5,1143.8,329.4,1139.8,331.4
		z"/>
	<circle id="XMLID_483_" class="st11" cx="918.2" cy="329.5" r="6.6"/>
	<rect id="XMLID_482_" x="749.4" y="321.6" class="st1" width="24" height="48"/>
	<polygon id="XMLID_481_" class="st12" points="773.8,321.6 759.5,321.6 759.5,362.3 773.8,369.5 	"/>
	<g id="XMLID_457_">
		<polyline id="XMLID_480_" class="st5" points="452,233.5 411,249.1 411.4,430.7 459.9,448.1 498.5,428.1 501.5,250.6 456,231.6 		
			"/>
		<g id="XMLID_458_">
			<path id="XMLID_479_" class="st2" d="M451.7,396.6c0-1.5-0.9-3.1-2.2-4h-0.1l0,0c-1.3-1-2.3-2.6-2.3-4.1v-16.4l0,0v-1.3
				c0-1.8-1.5-3.9-3.3-4.5l-2.5-0.9c-1.8-0.7-3.3,0.3-3.3,2.1v2.5l0,0v12.1c0,1.5,0.9,3.1,2.3,4l0,0l0.1,0.1c1.3,1,2.2,2.5,2.2,4
				v6.6l0,0v3.5c0,1.8,1.5,3.9,3.3,4.5l1.2,0.4l0,0l0,0l1.2,0.4c1.8,0.7,3.3-0.3,3.3-2.1v-1.2l0,0L451.7,396.6L451.7,396.6z"/>
			<path id="XMLID_477_" class="st2" d="M431.7,382.3V393v1.2v1.2c0,1.8-1.5,2.8-3.3,2.1l-1.2-0.4l0,0l0,0l-1.2-0.4
				c-1.8-0.7-3.3-2.7-3.3-4.5V391v-1.2v-13.7c0-1.5-1-3.1-2.3-4.1l0,0l0,0l0,0c-1.3-1-2.3-2.6-2.3-4v-7.3l0,0v-1.2
				c0-1.8,1.5-2.8,3.3-2.1l2.5,0.9c1.8,0.7,3.3,2.7,3.3,4.5v2.5l0,0v9.1c0,1.5,1,3.1,2.3,4.1l0,0
				C430.7,379.2,431.7,380.8,431.7,382.3z"/>
			<path id="XMLID_476_" class="st2" d="M451.7,346.7c0-1.5-0.9-3.1-2.2-4h-0.1l0,0c-1.3-1-2.3-2.6-2.3-4.1v-16.4l0,0V321
				c0-1.8-1.5-3.9-3.3-4.5l-2.5-0.9c-1.8-0.7-3.3,0.3-3.3,2.1v2.5l0,0v12.1c0,1.5,0.9,3.1,2.3,4l0,0l0.1,0.1c1.3,1,2.2,2.5,2.2,4
				v6.6l0,0v3.5c0,1.8,1.5,3.9,3.3,4.5l1.2,0.4l0,0l0,0l1.2,0.4c1.8,0.7,3.3-0.3,3.3-2.1v-1.2l0,0L451.7,346.7L451.7,346.7z"/>
			<path id="XMLID_474_" class="st2" d="M431.7,332.3V343v1.2v1.2c0,1.8-1.5,2.8-3.3,2.1l-1.2-0.4l0,0l0,0l-1.2-0.4
				c-1.8-0.7-3.3-2.7-3.3-4.5V341v-1.2v-13.7c0-1.5-1-3.1-2.3-4.1l0,0l0,0l0,0c-1.3-1-2.3-2.6-2.3-4v-7.3l0,0v-1.2
				c0-1.8,1.5-2.8,3.3-2.1l2.5,0.9c1.8,0.7,3.3,2.7,3.3,4.5v2.5l0,0v9.1c0,1.5,1,3.1,2.3,4.1l0,0
				C430.7,329.2,431.7,330.9,431.7,332.3z"/>
			<g id="XMLID_472_">
				<path id="XMLID_473_" class="st2" d="M501.7,435.2c3-0.5,5.4-2.7,6.1-5.8c0.4-2.1,3.9-20.8-4.6-32.9
					c-9-12.9-24.6-13.1-25.2-13.1l-0.1,14.8h-0.1c0.1,0,8.6,0.3,13.2,6.8c4.1,5.9,2.9,17.7,2.2,21.4c-0.8,4,1.8,7.9,5.8,8.7
					C500,435.4,500.9,435.4,501.7,435.2z"/>
			</g>
			<path id="XMLID_471_" class="st2" d="M435.3,421.2c8.4,2.5,14.1,1,14.3,1c1.6-0.5,2.2-2.4,1.2-4.3c-0.9-1.9-3-3.1-4.6-2.6
				c-0.1,0-4.4,1.1-10.9-0.8c-6.5-2-10.9-5.6-10.9-5.6c-1.6-1.4-3.7-1.5-4.6-0.1s-0.3,3.6,1.3,5
				C421.3,413.8,426.9,418.6,435.3,421.2z"/>
			<path id="XMLID_468_" class="st2" d="M459.9,449.7c-0.3,0-0.6-0.1-0.9-0.3c-0.5-0.3-0.7-0.8-0.7-1.4V267.5c0-0.6,0.4-1.2,1-1.5
				l39.9-17c0.5-0.2,1.1-0.2,1.5,0.1c0.5,0.3,0.7,0.8,0.7,1.3l0.3,178.6c0,0.6-0.4,1.2-0.9,1.5l-40.2,18.9
				C460.4,449.6,460.2,449.7,459.9,449.7z M461.5,268.6v176.9l37-17.4l-0.3-175.2L461.5,268.6z"/>
			<path id="XMLID_465_" class="st2" d="M459.9,449.7c-0.2,0-0.4,0-0.6-0.1l-47.9-18.9c-0.6-0.2-1-0.8-1-1.5l-0.3-178.6
				c0-0.5,0.3-1,0.7-1.3c0.4-0.3,1-0.4,1.5-0.2l48.2,17c0.6,0.2,1.1,0.8,1.1,1.5v180.5c0,0.5-0.3,1-0.7,1.3
				C460.6,449.6,460.2,449.7,459.9,449.7z M413.6,428.1l44.7,17.6v-177l-45-15.8L413.6,428.1z"/>
			<path id="XMLID_462_" class="st2" d="M459.9,269.1c-0.2,0-0.4,0-0.5-0.1l-48.2-17c-0.6-0.2-1-0.8-1.1-1.4c0-0.7,0.3-1.3,0.9-1.5
				l40.2-18.9c0.4-0.2,0.9-0.2,1.3,0l47.9,18.9c0.6,0.2,1,0.8,1,1.5s-0.4,1.2-1,1.5l-40,17C460.4,269.1,460.1,269.1,459.9,269.1z
				 M415.9,250.4l43.9,15.5l35.8-15.2L452,233.5L415.9,250.4z"/>
			<path id="XMLID_461_" class="st2" d="M391.7,328.3c1.1-3,3.9-4.8,6.9-4.8c0.9,0,1.8,0.2,2.6,0.5c3.8,1.4,5.8,5.7,4.3,9.5
				c-1.3,3.5-4.4,15-1.3,21.5c1.5,3,3.8,5.1,6.1,6.4v16.1c-5-1.6-14.4-5.8-19.4-16.1C384.5,348.2,391,330.3,391.7,328.3z"/>
			<path id="XMLID_460_" class="st2" d="M459.9,448.1l10.1-4.8l0.1,19.2c0,4.1-3.3,7.4-7.4,7.4l0,0c-4.1,0-7.4-3.3-7.4-7.4
				l-0.1-16.7L459.9,448.1z"/>
			<path id="XMLID_459_" class="st2" d="M437.8,439l0.1,15.9c0,4.1-3.3,7.4-7.4,7.4l0,0c-4.1,0-7.4-3.3-7.4-7.4L423,433L437.8,439z"
				/>
		</g>
	</g>
	<path id="XMLID_456_" class="st5" d="M1164,371.6c-54.1-11-241.5-16.3-244,10.6s38.2,38,98.1,50.2c59.8,12.2,180,34,184.1,14.2
		c4-19.8-47.8-27.6-45.4-39.5s38-4.6,35.9-16S1189.7,376.8,1164,371.6z"/>
	<path id="XMLID_448_" class="st12" d="M1073.7,417.5c-2.4,0-4.1-1.7-5.7-3.2c-1.3-1.3-2.5-2.4-3.8-2.4s-2.7,1.2-4.1,2.4
		c-1.7,1.5-3.5,3.1-5.8,3.1s-4.2-1.6-6-3.1c-1.5-1.3-3.1-2.6-4.6-2.6c-1.3,0-2.3,0.9-3.8,2.4s-3.2,3.2-5.7,3.2
		c-2.6,0-4.3-1.8-5.9-3.3c-1.2-1.2-2.4-2.4-3.6-2.4c-1.4,0-2.7,1.2-4.1,2.5c-1.7,1.5-3.3,3-5.4,3c-0.8,0-1.4-0.6-1.4-1.4
		c0-0.4,0.2-0.8,0.5-1c0.2-0.2,0.6-0.3,0.9-0.3c1,0,2.1-0.9,3.5-2.3c1.7-1.6,3.6-3.3,6-3.3s4.1,1.7,5.6,3.2c1.3,1.3,2.5,2.5,3.9,2.5
		c1.3,0,2.3-0.9,3.8-2.4s3.2-3.2,5.7-3.2s4.4,1.6,6.3,3.2c1.5,1.3,2.9,2.4,4.2,2.5c1.3,0,2.7-1.2,4.1-2.4c1.7-1.5,3.5-3.1,5.8-3.1
		c2.4,0,4.2,1.7,5.7,3.2c1.3,1.3,2.5,2.4,3.8,2.4c0.4,0,0.7,0.1,1,0.4s0.4,0.6,0.4,1C1075.1,416.9,1074.5,417.5,1073.7,417.5
		L1073.7,417.5z M1089.2,404.2c-2.4,0-4.1-1.7-5.7-3.2c-1.3-1.3-2.5-2.4-3.8-2.4s-2.7,1.2-4.1,2.4c-1.7,1.5-3.5,3.1-5.8,3.1
		s-4.2-1.6-6-3.1c-1.5-1.3-3.1-2.6-4.5-2.6c-1.3,0-2.3,0.9-3.8,2.4s-3.2,3.2-5.7,3.2c-2.6,0-4.3-1.8-5.8-3.3
		c-1.2-1.2-2.4-2.4-3.6-2.4c-1.4,0-2.7,1.2-4.1,2.5c-1.6,1.5-3.3,3-5.4,3c-0.4,0-0.7-0.1-1-0.4s-0.4-0.6-0.4-1s0.2-0.8,0.5-1
		c0.2-0.2,0.6-0.3,0.9-0.3c1,0,2.1-0.9,3.5-2.3c1.8-1.6,3.6-3.3,6-3.3s4.1,1.7,5.6,3.2c1.3,1.3,2.5,2.5,3.9,2.5
		c1.3,0,2.3-0.9,3.8-2.4s3.2-3.2,5.7-3.2s4.4,1.6,6.3,3.2c1.5,1.3,2.9,2.4,4.2,2.5c1.3,0,2.7-1.2,4.1-2.4c1.7-1.5,3.5-3.1,5.8-3.1
		c2.4,0,4.2,1.7,5.7,3.2c1.3,1.3,2.5,2.4,3.8,2.4c0.7,0,1.4,0.6,1.4,1.4C1090.5,403.6,1089.9,404.2,1089.2,404.2L1089.2,404.2z
		 M1104.6,390.8c-2.4,0-4.1-1.7-5.7-3.2c-1.3-1.3-2.5-2.4-3.8-2.4s-2.7,1.2-4.1,2.4c-1.7,1.5-3.5,3.1-5.8,3.1s-4.2-1.6-6-3.1
		c-1.5-1.3-3.1-2.6-4.5-2.6c-1.3,0-2.3,0.9-3.8,2.4s-3.2,3.2-5.7,3.2c-2.6,0-4.3-1.8-5.8-3.3c-1.2-1.2-2.4-2.4-3.6-2.4
		c-1.3,0-2.7,1.2-4.1,2.5c-1.7,1.5-3.3,3-5.4,3c-0.8,0-1.4-0.6-1.4-1.4c0-0.4,0.2-0.8,0.5-1c0.2-0.2,0.6-0.3,0.9-0.3
		c1,0,2.1-0.9,3.5-2.3c1.8-1.6,3.6-3.3,6-3.3s4.1,1.7,5.6,3.2c1.3,1.3,2.5,2.5,3.9,2.5c1.3,0,2.3-0.9,3.8-2.4s3.2-3.2,5.7-3.2
		s4.4,1.6,6.3,3.2c1.5,1.3,2.9,2.4,4.2,2.5c1.3,0,2.7-1.2,4.1-2.4c1.7-1.5,3.5-3.1,5.8-3.1c2.4,0,4.2,1.7,5.7,3.2
		c1.3,1.3,2.5,2.4,3.8,2.4c0.7,0,1.4,0.6,1.4,1.4C1105.9,390.2,1105.3,390.8,1104.6,390.8L1104.6,390.8z"/>
	<polygon id="XMLID_447_" class="st2" points="637.2,185.7 639.9,191 645.7,191.9 641.5,196.1 642.5,202 637.2,199.2 631.9,202 
		632.8,196.1 628.6,191.9 634.5,191 	"/>
	
		<linearGradient id="XMLID_8_" gradientUnits="userSpaceOnUse" x1="244.4" y1="1812.0408" x2="244.4" y2="1775.9357" gradientTransform="matrix(1 0 0 1 0 -1402)">
		<stop  offset="0" style="stop-color:#EA6D9A"/>
		<stop  offset="1" style="stop-color:#643794"/>
	</linearGradient>
	<path id="XMLID_445_" class="st13" d="M244.4,373.9c-15.9,0-28.9,12.9-28.9,28.9v1.5c0,3.2,2.6,5.8,5.8,5.8h46.2
		c3.2,0,5.8-2.6,5.8-5.8v-1.5C273.3,386.8,260.3,373.9,244.4,373.9z"/>
	
		<linearGradient id="XMLID_9_" gradientUnits="userSpaceOnUse" x1="57.4" y1="1812.0408" x2="57.4" y2="1775.9357" gradientTransform="matrix(1 0 0 1 0 -1402)">
		<stop  offset="0" style="stop-color:#EA6D9A"/>
		<stop  offset="1" style="stop-color:#643794"/>
	</linearGradient>
	<path id="XMLID_443_" class="st14" d="M57.4,373.9c-15.9,0-28.9,12.9-28.9,28.9v1.5c0,3.2,2.6,5.8,5.8,5.8h46.2
		c3.2,0,5.8-2.6,5.8-5.8v-1.5C86.3,386.8,73.4,373.9,57.4,373.9z"/>
	
		<linearGradient id="XMLID_10_" gradientUnits="userSpaceOnUse" x1="1270.3" y1="1812.0408" x2="1270.3" y2="1775.9357" gradientTransform="matrix(1 0 0 1 0 -1402)">
		<stop  offset="0" style="stop-color:#EA6D9A"/>
		<stop  offset="1" style="stop-color:#643794"/>
	</linearGradient>
	<path id="XMLID_441_" class="st15" d="M1270.3,373.9c-15.9,0-28.9,12.9-28.9,28.9v1.5c0,3.2,2.6,5.8,5.8,5.8h46.2
		c3.2,0,5.8-2.6,5.8-5.8v-1.5C1299.1,386.8,1286.2,373.9,1270.3,373.9z"/>
	<circle id="XMLID_440_" class="st12" cx="847" cy="346.1" r="27.2"/>
	
		<linearGradient id="XMLID_11_" gradientUnits="userSpaceOnUse" x1="887.2999" y1="1807.7415" x2="887.2999" y2="1673.1415" gradientTransform="matrix(1 0 0 1 0 -1402)">
		<stop  offset="0" style="stop-color:#EA6D9A"/>
		<stop  offset="1" style="stop-color:#643794"/>
	</linearGradient>
	<path id="XMLID_434_" class="st16" d="M1011.8,405.6c-35.8,0-64.8-28.6-65.6-64.2c0-0.5,0.1-0.9,0.1-1.4v-3.3
		c0-36.2-29.4-65.6-65.6-65.6c-3.8,0-7.6,0.3-11.2,1c-4.6,5.2-11.5,15-6.9,22.6c3.9,6.4,11.7,8.7,19.2,10.8
		c7.3,2.1,14.2,4.1,17.7,10c3.8,6.5,2.6,11.6,1,14.6c-4.2,7.7-15.9,11.9-35.9,13c-29.8,1.5-31,5.2-31.9,10.3c1.5,0.7,5.4,1,7.9,1.3
		c5.8,0.5,11.7,1.1,15.6,4.5c5,4.4,2.6,10.5,1.1,14.1c-0.5,1.3-1.5,3.8-1.3,4.5c0,0,0.7,0.9,4.1,1.6c16.4,3.4,74.8,2.7,75.3,2.6
		l0.1,9.1c-0.7,0-6.4,0.1-14.5,0.1c-18.8,0-50.6-0.4-62.8-2.9c-5.3-1.1-8.6-3.1-10.3-6.2c-2.3-4.2-0.6-8.6,0.8-12.1
		c0.5-1.2,1.3-3.2,1.3-4c-1.8-1.4-6.7-1.9-10.4-2.2c-6-0.6-11.6-1.1-14.5-4.9c-1-1.3-2-3.4-1.5-6.5c2.1-13,10.4-16.8,40.4-18.3
		c22.8-1.2,27.5-6.6,28.4-8.2c0.3-0.6,1.2-2.2-0.8-5.8c-1.6-2.8-6.8-4.3-12.4-5.9c-8.3-2.4-18.6-5.4-24.4-14.8
		c-4.9-8-2.9-16.5,0.7-23.3c-23.8,9.9-40.5,33.3-40.5,60.6v3.3c0,0.5,0,0.9,0.1,1.4c-0.7,32.9-25.6,59.8-57.6,63.7v0.6h259.6v-0.3
		C1015.5,405.5,1013.7,405.6,1011.8,405.6z M930.7,321.1c-2.6,1.1-7-0.2-7.9-2.4c-0.9-2.2-2.4-9.9-13.2-21.6S880,280.8,880,280.8
		c23.7,0,44,14.5,52.4,35.2C932.4,316,933.4,320,930.7,321.1z"/>
	<g id="XMLID_380_">
		<path id="XMLID_433_" class="st1" d="M282,357.8c-4.1-1.6-6.9,5.7-4.6,5.7S284.5,358.8,282,357.8z"/>
		<path id="XMLID_432_" class="st1" d="M259.1,384.3c-1.3,0.5-4.1,4.4-2.8,5c1.3,0.6,6.3-1.9,6.3-3.2S261.1,383.5,259.1,384.3z"/>
		<path id="XMLID_431_" class="st1" d="M288.6,370c-1.3,0.5-4.1,4.4-2.8,5c1.3,0.6,6.3-1.9,6.3-3.2S290.6,369.3,288.6,370z"/>
		<path id="XMLID_430_" class="st1" d="M275.3,368.9c-4.2,0.7-8.7,5.8-7.5,6.4c1.1,0.6,9.4-3.6,9.4-5.1S278.5,368.3,275.3,368.9z"/>
		<path id="XMLID_429_" class="st1" d="M317.7,352.4c-3.6,2.6-6,5.8-3.5,5.5s12.4-6.5,10.7-7.4C323.3,349.6,319.9,350.8,317.7,352.4
			z"/>
		<path id="XMLID_428_" class="st1" d="M273,379.9c-3.3,2.1-6,4.4-3.5,4.4s9.3-1.6,9.3-4.1S275,378.6,273,379.9z"/>
		<path id="XMLID_427_" class="st1" d="M268.6,367.3c2.9-1.2,5-6,2-4.7s-6.6,3.5-6.6,4.6S267,367.9,268.6,367.3z"/>
		<path id="XMLID_426_" class="st1" d="M310.8,338.1c-4.1-1.6-6.9,5.7-4.6,5.7S313.3,339,310.8,338.1z"/>
		<path id="XMLID_425_" class="st1" d="M314.8,340.7c-1.3,0.5-4.1,4.4-2.8,5c1.3,0.6,6.3-1.9,6.3-3.2
			C318.3,341.2,316.8,339.9,314.8,340.7z"/>
		<path id="XMLID_424_" class="st1" d="M304.1,349.1c-4.2,0.7-8.7,5.8-7.5,6.4c1.1,0.6,9.4-3.6,9.4-5.1S307.4,348.6,304.1,349.1z"/>
		<path id="XMLID_423_" class="st1" d="M278,349.7c-3.6,2.6-6,5.8-3.5,5.5s12.4-6.5,10.7-7.4C283.5,346.9,280.2,348.1,278,349.7z"/>
		<path id="XMLID_422_" class="st1" d="M301.8,360.1c-3.3,2.1-6,4.4-3.5,4.4s9.3-1.6,9.3-4.1S303.9,358.9,301.8,360.1z"/>
		<path id="XMLID_421_" class="st1" d="M297.4,347.5c2.9-1.2,5-6,2-4.7c-3,1.3-6.6,3.5-6.6,4.6S295.8,348.1,297.4,347.5z"/>
		<path id="XMLID_420_" class="st1" d="M312.3,324.2c-4.1-1.6-6.9,5.7-4.6,5.7C310,329.9,314.8,325.2,312.3,324.2z"/>
		<path id="XMLID_419_" class="st1" d="M343.6,321c-1.3,0.5-4.1,4.4-2.8,5c1.3,0.6,6.3-1.9,6.3-3.2
			C347.1,321.5,345.6,320.2,343.6,321z"/>
		<path id="XMLID_418_" class="st1" d="M327.2,331.1c-4.2,0.7-8.7,5.8-7.5,6.4c1.1,0.6,9.4-3.6,9.4-5.1S330.5,330.5,327.2,331.1z"/>
		<path id="XMLID_417_" class="st1" d="M343.8,331c-3.6,2.6-6,5.8-3.5,5.5c2.5-0.3,12.4-6.5,10.7-7.4S346,329.5,343.8,331z"/>
		<path id="XMLID_416_" class="st1" d="M349.7,377.7c-3.6,2.6-6,5.8-3.5,5.5s12.4-6.5,10.7-7.4C355.2,374.9,351.9,376.1,349.7,377.7
			z"/>
		<path id="XMLID_415_" class="st1" d="M330.7,340.3c-3.3,2.1-6,4.4-3.5,4.4s9.3-1.6,9.3-4.1S332.7,339.1,330.7,340.3z"/>
		<path id="XMLID_414_" class="st1" d="M326.3,327.7c2.9-1.2,5-6,2-4.7c-3,1.3-6.6,3.5-6.6,4.6C321.7,328.7,324.7,328.4,326.3,327.7
			z"/>
		<path id="XMLID_413_" class="st1" d="M368.5,298.5c-4.1-1.6-6.9,5.7-4.6,5.7S371,299.4,368.5,298.5z"/>
		<path id="XMLID_412_" class="st1" d="M372.4,301.2c-1.3,0.5-4.1,4.4-2.8,5c1.3,0.6,6.3-1.9,6.3-3.2
			C375.9,301.7,374.5,300.4,372.4,301.2z"/>
		<path id="XMLID_411_" class="st1" d="M358.8,321.7c-1.3,0.5-4.1,4.4-2.8,5c1.3,0.6,6.3-1.9,6.3-3.2
			C362.3,322.2,360.8,320.9,358.8,321.7z"/>
		<path id="XMLID_410_" class="st1" d="M361.8,309.6c-4.2,0.7-8.7,5.8-7.5,6.4c1.1,0.6,9.4-3.6,9.4-5.1S365.1,309,361.8,309.6z"/>
		<path id="XMLID_409_" class="st1" d="M372.6,311.3c-3.6,2.6-6,5.8-3.5,5.5c2.5-0.3,12.4-6.5,10.7-7.4
			C378.1,308.4,374.8,309.7,372.6,311.3z"/>
		<path id="XMLID_408_" class="st1" d="M344.8,311c-3.3,2.1-6,4.4-3.5,4.4s9.3-1.6,9.3-4.1S346.8,309.7,344.8,311z"/>
		<path id="XMLID_407_" class="st1" d="M339.4,310.3c2.9-1.2,5-6,2-4.7c-3,1.3-6.6,3.5-6.6,4.6C334.9,311.2,337.9,310.9,339.4,310.3
			z"/>
		<path id="XMLID_406_" class="st1" d="M309.2,378.4c-4.1-1.6-6.9,5.7-4.6,5.7C307,384.1,311.7,379.4,309.2,378.4z"/>
		<path id="XMLID_405_" class="st1" d="M313.1,381.1c-1.3,0.5-4.1,4.4-2.8,5c1.3,0.6,6.3-1.9,6.3-3.2S315.2,380.3,313.1,381.1z"/>
		<path id="XMLID_404_" class="st1" d="M315.8,390.6c-1.3,0.5-4.1,4.4-2.8,5c1.3,0.6,6.3-1.9,6.3-3.2S317.8,389.9,315.8,390.6z"/>
		<path id="XMLID_403_" class="st1" d="M284.6,395.8c-4.2,0.7-8.7,5.8-7.5,6.4c1.1,0.6,9.4-3.6,9.4-5.1S287.9,395.3,284.6,395.8z"/>
		<path id="XMLID_402_" class="st1" d="M344.9,373c-3.6,2.6-6,5.8-3.5,5.5s12.4-6.5,10.7-7.4C350.4,370.2,347.1,371.4,344.9,373z"/>
		<path id="XMLID_401_" class="st1" d="M300.2,400.5c-3.3,2.1-6,4.4-3.5,4.4s9.3-1.6,9.3-4.1S302.2,399.2,300.2,400.5z"/>
		<path id="XMLID_400_" class="st1" d="M295.8,387.9c2.9-1.2,5-6,2-4.7s-6.6,3.5-6.6,4.6S294.2,388.5,295.8,387.9z"/>
		<path id="XMLID_399_" class="st1" d="M344.6,347.1c-4.1-1.6-6.9,5.7-4.6,5.7S347.1,348.1,344.6,347.1z"/>
		<path id="XMLID_398_" class="st1" d="M341.9,361.3c-1.3,0.5-4.1,4.4-2.8,5c1.3,0.6,6.3-1.9,6.3-3.2S344,360.5,341.9,361.3z"/>
		<path id="XMLID_397_" class="st1" d="M331.3,369.7c-4.2,0.7-8.7,5.8-7.5,6.4c1.1,0.6,9.4-3.6,9.4-5.1S334.6,369.2,331.3,369.7z"/>
		<path id="XMLID_396_" class="st1" d="M305.2,370.3c-3.6,2.6-6,5.8-3.5,5.5s12.4-6.5,10.7-7.4C310.7,367.5,307.4,368.7,305.2,370.3
			z"/>
		<path id="XMLID_395_" class="st1" d="M334.1,388.4c-3.3,2.1-6,4.4-3.5,4.4s9.3-1.6,9.3-4.1S336.1,387.2,334.1,388.4z"/>
		<path id="XMLID_394_" class="st1" d="M327.1,363.5c2.9-1.2,5-6,2-4.7s-6.6,3.5-6.6,4.6S325.5,364.1,327.1,363.5z"/>
		<path id="XMLID_393_" class="st1" d="M366.8,338.9c-4.1-1.6-6.9,5.7-4.6,5.7S369.4,339.8,366.8,338.9z"/>
		<path id="XMLID_392_" class="st1" d="M372.8,324.1c-1.3,0.5-4.1,4.4-2.8,5c1.3,0.6,6.3-1.9,6.3-3.2
			C376.3,324.6,374.8,323.4,372.8,324.1z"/>
		<path id="XMLID_391_" class="st1" d="M360.2,350c-4.2,0.7-8.7,5.8-7.5,6.4c1.1,0.6,9.4-3.6,9.4-5.1S363.4,349.4,360.2,350z"/>
		<path id="XMLID_390_" class="st1" d="M370.9,351.6c-3.6,2.6-6,5.8-3.5,5.5s12.4-6.5,10.7-7.4C376.5,348.8,373.2,350.1,370.9,351.6
			z"/>
		<path id="XMLID_389_" class="st1" d="M365.4,364.5c-3.3,2.1-6,4.4-3.5,4.4s9.3-1.6,9.3-4.1S367.4,363.3,365.4,364.5z"/>
		<path id="XMLID_388_" class="st1" d="M353.5,348.3c2.9-1.2,5-6,2-4.7c-3,1.3-6.6,3.5-6.6,4.6S351.9,349,353.5,348.3z"/>
		<path id="XMLID_387_" class="st1" d="M398.2,306.7c-4.1-1.6-6.9,5.7-4.6,5.7S400.7,307.7,398.2,306.7z"/>
		<path id="XMLID_386_" class="st1" d="M399.6,321.8c-1.3,0.5-4.1,4.4-2.8,5c1.3,0.6,6.3-1.9,6.3-3.2
			C403.1,322.3,401.7,321,399.6,321.8z"/>
		<path id="XMLID_385_" class="st1" d="M389.3,343.1c-1.3,0.5-4.1,4.4-2.8,5c1.3,0.6,6.3-1.9,6.3-3.2
			C392.8,343.6,391.3,342.3,389.3,343.1z"/>
		<path id="XMLID_384_" class="st1" d="M389,330.2c-4.2,0.7-8.7,5.8-7.5,6.4c1.1,0.6,9.4-3.6,9.4-5.1S392.3,329.6,389,330.2z"/>
		<path id="XMLID_383_" class="st1" d="M399.8,331.9c-3.6,2.6-6,5.8-3.5,5.5c2.5-0.3,12.4-6.5,10.7-7.4
			C405.3,329,402,330.3,399.8,331.9z"/>
		<path id="XMLID_382_" class="st1" d="M358.8,333.2c-3.3,2.1-6,4.4-3.5,4.4s9.3-1.6,9.3-4.1S360.8,331.9,358.8,333.2z"/>
		<path id="XMLID_381_" class="st1" d="M382.3,328.6c2.9-1.2,5-6,2-4.7c-3,1.3-6.6,3.5-6.6,4.6S380.7,329.2,382.3,328.6z"/>
	</g>
	<g id="XMLID_372_">
		<path id="XMLID_377_" class="st2" d="M1163.6,231.9c-12.3,0-17.1-2.3-17.5-4.3c-0.3-1.7,2.3-4.7,10.5-8.3
			c7.5-3.3,17.8-6.2,28.9-8.1c9-1.6,17.7-2.5,25.1-2.5c12.3,0,17.1,2.3,17.5,4.3c0.3,1.7-2.3,4.7-10.5,8.3
			c-7.5,3.3-17.8,6.2-28.9,8.1C1179.8,231.1,1171.1,231.9,1163.6,231.9z M1205.3,209.4c-5.9,0-12.7,0.7-19.8,1.9
			c-16.2,2.9-32.8,9-31.8,14.6c0.7,3.8,8.6,4.7,15.1,4.7l0,0c5.9,0,12.7-0.7,19.8-1.9c8.7-1.6,16.8-3.8,22.7-6.4
			c6.5-2.8,9.5-5.6,9.1-8.2C1219.8,210.2,1211.8,209.4,1205.3,209.4z"/>
		<path id="XMLID_376_" class="st2" d="M1168.4,226.9c-8,0-10.4-1.4-10.5-2.2c-0.3-1.5,4.6-4.4,13.3-7c-4,1.7-5.8,3.3-5.5,4.9
			c0.1,0.7,0.5,2.7,8.6,2.7c3.8,0,8.7-0.5,13.5-1.3c5.5-1,10.6-2.3,14.3-3.9c4.3-1.7,6.3-3.4,6-5.1c-0.1-0.6-0.4-2.4-6.9-2.7
			c1.6-0.1,3.1-0.1,4.5-0.1c8,0,10.4,1.4,10.5,2.2c0.1,0.6-1.3,2.5-7.5,5c-5.4,2.2-12.8,4.2-20.8,5.6
			C1180.9,226.2,1173.9,226.9,1168.4,226.9z"/>
		<g id="XMLID_373_">
			<path id="XMLID_375_" class="st2" d="M1173.7,221.8c-1.7,0-3.1-0.1-4-0.1c-0.4-8.6,5.6-16.1,14.2-17.7c1-0.2,2-0.3,3-0.3
				c7.5,0,14.1,4.9,16.4,12c-2.2,1-7.6,3.3-16.4,4.9C1182.3,221.3,1177.9,221.8,1173.7,221.8z"/>
			<path id="XMLID_374_" class="st2" d="M1186.9,238.2c-3.9,0-7.8-1.4-10.8-3.9c3.6-0.3,8.3-0.8,13.1-1.7c4.6-0.8,9.2-1.9,12.6-2.9
				c-2.6,4.3-6.8,7.2-11.8,8.1C1188.9,238.1,1187.9,238.2,1186.9,238.2L1186.9,238.2z"/>
		</g>
	</g>
	<polygon id="XMLID_371_" class="st2" points="917,123.3 919.7,128.7 925.7,129.6 921.4,133.9 922.4,139.8 917,137.1 911.6,139.8 
		912.6,133.9 908.3,129.6 914.3,128.7 	"/>
	<polygon id="XMLID_370_" class="st2" points="432.1,184.3 434.8,189.6 440.8,190.6 436.5,194.8 437.5,200.8 432.1,198 426.8,200.8 
		427.7,194.8 423.5,190.6 429.4,189.6 	"/>
	<g id="XMLID_363_">
		<rect id="XMLID_369_" x="921.1" y="206.3" class="st2" width="2.7" height="45.3"/>
		
			<rect id="XMLID_368_" x="921.1" y="206.3" transform="matrix(0.866 -0.5 0.5 0.866 9.0977 491.9028)" class="st2" width="2.7" height="45.3"/>
		
			<rect id="XMLID_367_" x="921" y="206.4" transform="matrix(0.5 -0.866 0.866 0.5 262.788 913.291)" class="st2" width="2.7" height="45.3"/>
		<rect id="XMLID_366_" x="899.7" y="227.6" class="st2" width="45.3" height="2.7"/>
		
			<rect id="XMLID_365_" x="899.7" y="227.8" transform="matrix(0.866 -0.5 0.5 0.866 9.0239 491.882)" class="st2" width="45.3" height="2.7"/>
		
			<rect id="XMLID_364_" x="899.8" y="227.7" transform="matrix(0.5 -0.866 0.866 0.5 262.849 913.3724)" class="st2" width="45.3" height="2.7"/>
	</g>
	<g id="XMLID_342_">
		<polygon id="XMLID_362_" class="st5" points="971.8,433.3 930.5,415.3 928.4,318.1 978.3,299 1016.6,316.4 1017.8,415.2 		"/>
		<g id="XMLID_343_">
			<g id="XMLID_360_">
				<path id="XMLID_361_" class="st2" d="M927.2,422.6c-3-0.5-5.6-2.8-6.2-6c-0.4-2.1-4-21.4,4.7-33.8c9.3-13.2,25.3-13.5,25.9-13.5
					l0.1,15.3h0.1c-0.1,0-8.9,0.3-13.6,7c-4.2,6-3,18.2-2.3,22c0.8,4.1-1.8,8.1-6,9C929,422.7,928.1,422.7,927.2,422.6z"/>
			</g>
			<path id="XMLID_359_" class="st2" d="M995.5,408.1c-8.7,2.6-14.5,1.1-14.7,1c-1.7-0.5-2.2-2.4-1.3-4.4c1-2,3.1-3.2,4.8-2.7
				c0.1,0,4.5,1.1,11.2-0.9s11.2-5.8,11.2-5.8c1.7-1.5,3.8-1.5,4.8-0.1s0.4,3.7-1.3,5.2C1009.9,400.6,1004.1,405.5,995.5,408.1z"/>
			<path id="XMLID_358_" class="st2" d="M1012.8,367.6c0-1.5-1-2.5-2.3-2.6h-0.1l0,0c-1.4-0.1-2.4-1.1-2.4-2.6v-16.9l0,0v-1.3
				c0-1.9-1.5-3-3.4-2.4l-2.6,0.8c-1.9,0.6-3.4,2.6-3.4,4.5v2.5l0,0v12.5c0,1.5,1,2.5,2.3,2.6l0,0h0.1c1.3,0.1,2.3,1.1,2.3,2.6v6.8
				l0,0v3.6c0,1.9,1.5,3,3.4,2.4l1.3-0.4l0,0l0,0l1.3-0.4c1.9-0.6,3.4-2.6,3.4-4.5v-1.3l0,0v-5.9L1012.8,367.6L1012.8,367.6z"/>
			<path id="XMLID_356_" class="st2" d="M992.2,368.4v11v1.3v1.3c0,1.9-1.5,3.9-3.4,4.5l-1.3,0.4l0,0l0,0l-1.3,0.4
				c-1.9,0.6-3.4-0.5-3.4-2.4v-1.3v-1.3v-14.1c0-1.5-1-2.6-2.4-2.6l0,0l0,0l0,0c-1.4-0.1-2.3-1.1-2.3-2.6v-7.5l0,0v-1.3
				c0-1.9,1.5-3.9,3.4-4.5l2.6-0.8c1.9-0.6,3.4,0.5,3.4,2.4v2.5l0,0v9.4c0,1.5,1,2.5,2.4,2.6l0,0
				C991.3,365.9,992.2,366.9,992.2,368.4z"/>
			<path id="XMLID_353_" class="st2" d="M970.2,437.4c-0.2,0-0.5-0.1-0.7-0.2l-41.4-19.4c-0.6-0.3-1-0.9-1-1.5l0.3-99.8
				c0-0.6,0.3-1.1,0.7-1.4c0.5-0.3,1.1-0.4,1.6-0.1l41.1,17.5c0.6,0.3,1,0.9,1,1.5v101.8c0,0.6-0.3,1.1-0.8,1.4
				C970.8,437.3,970.5,437.4,970.2,437.4z M930.5,415.3l38.1,17.9v-98l-37.8-16.1L930.5,415.3z"/>
			<path id="XMLID_350_" class="st2" d="M970.2,437.4c-0.3,0-0.7-0.1-0.9-0.3c-0.5-0.3-0.7-0.8-0.7-1.4V334c0-0.7,0.4-1.3,1.1-1.6
				l49.6-17.5c0.5-0.2,1.1-0.1,1.5,0.2c0.4,0.3,0.7,0.8,0.7,1.4l-0.3,99.8c0,0.7-0.4,1.3-1.1,1.5l-49.3,19.4
				C970.6,437.4,970.4,437.4,970.2,437.4z M971.8,335.2v98.1l46-18.1l0.3-96.3L971.8,335.2z"/>
			<path id="XMLID_347_" class="st2" d="M970.2,335.7c-0.2,0-0.4,0-0.6-0.1l-41.1-17.5c-0.6-0.3-1-0.9-1-1.5c0-0.7,0.4-1.3,1-1.5
				l49.3-19.4c0.4-0.2,0.9-0.2,1.3,0l41.4,19.4c0.6,0.3,1,0.9,1,1.6s-0.5,1.3-1.1,1.5l-49.6,17.5
				C970.6,335.7,970.4,335.7,970.2,335.7z M933.5,316.6l36.8,15.6l45.2-15.9l-37.1-17.4L933.5,316.6z"/>
			<path id="XMLID_346_" class="st2" d="M1040.3,312.6c-1.2-3-4.1-4.9-7.1-4.9c-0.9,0-1.8,0.2-2.7,0.5c-3.9,1.5-5.9,5.9-4.5,9.8
				c1.4,3.6,4.5,15.5,1.3,22.1c-1.5,3.1-3.9,5.2-6.2,6.6v16.6c5.2-1.6,14.8-6,20-16.5C1047.7,333,1041.1,314.7,1040.3,312.6z"/>
			<path id="XMLID_345_" class="st2" d="M970.2,435.8l-10.4-4.9l-0.1,19.7c0,4.2,3.4,7.6,7.6,7.7l0,0c4.2,0,7.6-3.4,7.6-7.6
				l0.1-17.2L970.2,435.8z"/>
			<path id="XMLID_344_" class="st2" d="M992.9,426.4l-0.1,16.3c0,4.2,3.4,7.6,7.6,7.7l0,0c4.2,0,7.6-3.4,7.6-7.6l0.1-22.6
				L992.9,426.4z"/>
		</g>
	</g>
	<g id="XMLID_334_">
		<g id="XMLID_339_">
			<path id="XMLID_341_" class="st5" d="M542.7,404.1c0,0-12.5,7.5-16.6,7.5c-4.2,0-7.5-3.4-7.5-7.5s3.4-7.5,7.5-7.5
				C530.3,396.6,542.7,404.1,542.7,404.1z"/>
			<path id="XMLID_340_" class="st5" d="M543.5,404.1c0,0,12.5-7.5,16.6-7.5c4.2,0,7.5,3.4,7.5,7.5s-3.4,7.5-7.5,7.5
				S543.5,404.1,543.5,404.1z"/>
		</g>
		<rect id="XMLID_338_" x="542.9" y="379.6" class="st5" width="1.6" height="117.9"/>
		<circle id="XMLID_337_" class="st5" cx="543.3" cy="377.6" r="13.1"/>
		<path id="XMLID_336_" class="st1" d="M556.4,378.4c0-0.3,0-0.5,0-0.8c0-7.2-5.8-13.1-13.1-13.1c-7.2,0-13.1,5.8-13.1,13.1
			c0,0.3,0,0.5,0,0.8H556.4z"/>
		<circle id="XMLID_335_" class="st1" cx="543.7" cy="361.6" r="5.9"/>
	</g>
	<path id="XMLID_333_" class="st5" d="M1093.6,175.1c-0.4-0.4-0.9-0.9-1.3-1.4c11.7-0.8,20.4-2.8,20.4-2.8s-11.6-3.8-19.1-11.3
		c-1.4-1.4-2.8-3.1-3.9-4.8c6.5-0.5,11.2-1.6,11.2-1.6s-7.1-2.3-11.7-6.9c-3.3-3.3-5.6-8.5-6.6-11.1c-0.1-0.3-0.1-0.6-0.4-0.6
		s-0.3,0.2-0.4,0.5c-1,2.5-3.2,7.7-6.6,11.1c-4.6,4.6-11.7,6.9-11.7,6.9s4.8,1,11.2,1.6c-1.2,1.7-2.5,3.4-4,4.8
		c-7.5,7.5-19.1,11.3-19.1,11.3s8.8,1.9,20.4,2.7c-0.4,0.5-0.8,0.9-1.3,1.4c-7.5,7.5-19.1,11.3-19.1,11.3s8.8,1.9,20.4,2.7
		c-0.4,0.5-0.8,0.9-1.3,1.4c-7.5,7.5-19.1,11.3-19.1,11.3s8.8,1.9,20.4,2.7c-0.4,0.5-0.8,0.9-1.3,1.4c-7.5,7.5-19.1,11.3-19.1,11.3
		s8.8,1.9,20.4,2.7c-0.4,0.5-0.8,0.9-1.3,1.4c-7.5,7.5-19.1,11.3-19.1,11.3s8.8,1.9,20.4,2.7c-0.4,0.5-0.8,0.9-1.3,1.4
		c-7.5,7.5-19.1,11.3-19.1,11.3s13,2.8,28.1,3.1v29.9c0,2,1.6,3.7,3.7,3.7s3.7-1.6,3.7-3.7v-29.9c14.2-0.5,25.7-3,25.7-3
		s-11.6-3.8-19.1-11.3c-0.4-0.4-0.9-0.9-1.3-1.4c11.7-0.8,20.4-2.8,20.4-2.8s-11.6-3.8-19.1-11.3c-0.4-0.4-0.9-0.9-1.3-1.4
		c11.7-0.8,20.4-2.8,20.4-2.8s-11.6-3.8-19.1-11.3c-0.4-0.4-0.9-0.9-1.3-1.4c11.7-0.8,20.4-2.8,20.4-2.8s-11.6-3.8-19.1-11.3
		c-0.4-0.4-0.9-0.9-1.3-1.4c11.7-0.8,20.4-2.8,20.4-2.8S1101.1,182.6,1093.6,175.1z"/>
</g>
</svg>
