<?xml version="1.0" encoding="utf-8"?>
<!-- Generator: Adobe Illustrator 23.0.2, SVG Export Plug-In . SVG Version: 6.00 Build 0)  -->
<svg version="1.1" xmlns="http://www.w3.org/2000/svg" xmlns:xlink="http://www.w3.org/1999/xlink" x="0px" y="0px"
	 viewBox="0 0 70.37 141" style="enable-background:new 0 0 70.37 141;" xml:space="preserve">
<style type="text/css">
	.st0{fill:none;stroke:url(#SVGID_1_);stroke-width:2;stroke-linecap:round;stroke-linejoin:round;stroke-miterlimit:10;}
	.st1{fill:none;stroke:url(#SVGID_2_);stroke-width:2;stroke-linecap:round;stroke-linejoin:round;stroke-miterlimit:10;}
	.st2{fill:none;stroke:url(#SVGID_3_);stroke-width:2;stroke-linecap:round;stroke-linejoin:round;stroke-miterlimit:10;}
	.st3{fill:none;stroke:url(#SVGID_4_);stroke-width:2;stroke-linecap:round;stroke-linejoin:round;stroke-miterlimit:10;}
	.st4{fill:none;stroke:url(#SVGID_5_);stroke-width:2.0685;stroke-linecap:round;stroke-miterlimit:10;}
	.st5{fill:none;stroke:url(#SVGID_6_);stroke-width:2.0685;stroke-linecap:round;stroke-miterlimit:10;}
	.st6{fill:none;stroke:url(#SVGID_7_);stroke-width:2;stroke-linecap:round;stroke-linejoin:round;stroke-miterlimit:10;}
	.st7{fill:none;stroke:url(#SVGID_8_);stroke-width:2;stroke-linecap:round;stroke-linejoin:round;stroke-miterlimit:10;}
	.st8{fill:url(#SVGID_9_);}
	.st9{fill:url(#SVGID_10_);}
	.st10{fill:url(#SVGID_11_);}
	.st11{fill:none;stroke:url(#SVGID_12_);stroke-width:2;stroke-linecap:round;stroke-miterlimit:10;}
	.st12{fill:none;stroke:url(#SVGID_13_);stroke-width:2;stroke-linecap:round;stroke-linejoin:round;stroke-miterlimit:10;}
	.st13{fill:none;stroke:url(#SVGID_14_);stroke-width:2;stroke-linecap:round;stroke-linejoin:round;stroke-miterlimit:10;}
	.st14{fill:none;stroke:url(#SVGID_15_);stroke-width:2;stroke-linecap:round;stroke-linejoin:round;stroke-miterlimit:10;}
	.st15{fill:none;stroke:url(#SVGID_16_);stroke-width:2;stroke-linecap:round;stroke-linejoin:round;stroke-miterlimit:10;}
	.st16{fill:none;stroke:url(#SVGID_17_);stroke-width:2.0685;stroke-linecap:round;stroke-linejoin:round;stroke-miterlimit:10;}
	.st17{fill:none;stroke:url(#SVGID_18_);stroke-width:2.0685;stroke-linecap:round;stroke-miterlimit:10;}
	.st18{fill:none;stroke:url(#SVGID_22_);stroke-width:2.0685;stroke-linecap:round;stroke-linejoin:round;stroke-miterlimit:10;}
	.st19{fill:none;stroke:url(#SVGID_23_);stroke-width:2.0685;stroke-linecap:round;stroke-miterlimit:10;}
	.st20{fill:none;stroke:url(#SVGID_24_);stroke-width:2.0685;stroke-linecap:round;stroke-miterlimit:10;}
	
		.st21{clip-path:url(#SVGID_26_);fill:none;stroke:url(#SVGID_27_);stroke-width:2.0685;stroke-linecap:round;stroke-miterlimit:10;}
	
		.st22{clip-path:url(#SVGID_26_);fill:none;stroke:url(#SVGID_28_);stroke-width:2.0685;stroke-linecap:round;stroke-miterlimit:10;}
	
		.st23{clip-path:url(#SVGID_26_);fill:none;stroke:url(#SVGID_29_);stroke-width:2.0685;stroke-linecap:round;stroke-miterlimit:10;}
	
		.st24{clip-path:url(#SVGID_26_);fill:none;stroke:url(#SVGID_30_);stroke-width:2.0685;stroke-linecap:round;stroke-miterlimit:10;}
	
		.st25{clip-path:url(#SVGID_26_);fill:none;stroke:url(#SVGID_31_);stroke-width:2.0685;stroke-linecap:round;stroke-miterlimit:10;}
	
		.st26{clip-path:url(#SVGID_26_);fill:none;stroke:url(#SVGID_32_);stroke-width:2.0685;stroke-linecap:round;stroke-miterlimit:10;}
	
		.st27{clip-path:url(#SVGID_26_);fill:none;stroke:url(#SVGID_33_);stroke-width:2.0685;stroke-linecap:round;stroke-miterlimit:10;}
	
		.st28{clip-path:url(#SVGID_26_);fill:none;stroke:url(#SVGID_34_);stroke-width:2.0685;stroke-linecap:round;stroke-miterlimit:10;}
	
		.st29{clip-path:url(#SVGID_26_);fill:none;stroke:url(#SVGID_35_);stroke-width:2.0685;stroke-linecap:round;stroke-miterlimit:10;}
	
		.st30{clip-path:url(#SVGID_26_);fill:none;stroke:url(#SVGID_36_);stroke-width:2.0685;stroke-linecap:round;stroke-miterlimit:10;}
	
		.st31{clip-path:url(#SVGID_26_);fill:none;stroke:url(#SVGID_37_);stroke-width:2.0685;stroke-linecap:round;stroke-miterlimit:10;}
	
		.st32{clip-path:url(#SVGID_26_);fill:none;stroke:url(#SVGID_38_);stroke-width:2.0685;stroke-linecap:round;stroke-miterlimit:10;}
	
		.st33{clip-path:url(#SVGID_26_);fill:none;stroke:url(#SVGID_39_);stroke-width:2.0685;stroke-linecap:round;stroke-miterlimit:10;}
	
		.st34{clip-path:url(#SVGID_26_);fill:none;stroke:url(#SVGID_40_);stroke-width:2.0685;stroke-linecap:round;stroke-miterlimit:10;}
	
		.st35{clip-path:url(#SVGID_26_);fill:none;stroke:url(#SVGID_41_);stroke-width:2.0685;stroke-linecap:round;stroke-miterlimit:10;}
	
		.st36{clip-path:url(#SVGID_26_);fill:none;stroke:url(#SVGID_42_);stroke-width:2.0685;stroke-linecap:round;stroke-miterlimit:10;}
	.st37{fill:none;stroke:url(#SVGID_44_);stroke-width:2.0685;stroke-linecap:round;stroke-miterlimit:10;}
	.st38{fill:none;stroke:url(#SVGID_45_);stroke-width:2.0685;stroke-linecap:round;stroke-linejoin:round;stroke-miterlimit:10;}
	.st39{fill:none;stroke:url(#SVGID_46_);stroke-width:2.0685;stroke-linecap:round;stroke-linejoin:round;stroke-miterlimit:10;}
	.st40{fill:none;stroke:url(#SVGID_47_);stroke-width:2.0685;stroke-linecap:round;stroke-miterlimit:10;}
	.st41{fill:none;stroke:url(#SVGID_48_);stroke-width:2.0685;stroke-linecap:round;stroke-miterlimit:10;}
	.st42{fill:none;stroke:url(#SVGID_49_);stroke-width:2.0685;stroke-linecap:round;stroke-miterlimit:10;}
	.st43{fill:none;stroke:url(#SVGID_50_);stroke-width:2.0685;stroke-linecap:round;stroke-linejoin:bevel;stroke-miterlimit:10;}
	.st44{fill:none;stroke:url(#SVGID_51_);stroke-width:2.0685;stroke-linecap:round;stroke-linejoin:bevel;stroke-miterlimit:10;}
	.st45{fill:none;stroke:url(#SVGID_52_);stroke-width:2.0685;stroke-linecap:round;stroke-linejoin:round;stroke-miterlimit:10;}
	.st46{fill:none;stroke:url(#SVGID_53_);stroke-width:2.0685;stroke-linecap:round;stroke-linejoin:round;stroke-miterlimit:10;}
	.st47{fill:none;stroke:url(#SVGID_54_);stroke-width:2.0685;stroke-linecap:round;stroke-linejoin:round;stroke-miterlimit:10;}
	.st48{fill:none;stroke:url(#SVGID_55_);stroke-width:2.0685;stroke-linecap:round;stroke-linejoin:round;stroke-miterlimit:10;}
	.st49{fill:none;stroke:url(#SVGID_56_);stroke-width:2.0685;stroke-linecap:round;stroke-linejoin:round;stroke-miterlimit:10;}
	.st50{fill:none;stroke:url(#SVGID_57_);stroke-width:2.0685;stroke-linecap:round;stroke-linejoin:round;stroke-miterlimit:10;}
	.st51{fill:none;stroke:url(#SVGID_58_);stroke-width:2.0685;stroke-linecap:round;stroke-linejoin:round;stroke-miterlimit:10;}
	.st52{fill:none;stroke:url(#SVGID_59_);stroke-width:2.0685;stroke-linecap:round;stroke-linejoin:round;stroke-miterlimit:10;}
	.st53{fill:none;stroke:url(#SVGID_60_);stroke-width:2.0685;stroke-linecap:round;stroke-linejoin:round;stroke-miterlimit:10;}
	.st54{fill:none;stroke:url(#SVGID_61_);stroke-width:2.0685;stroke-linecap:round;stroke-linejoin:round;stroke-miterlimit:10;}
	.st55{fill:none;stroke:url(#SVGID_62_);stroke-width:2.0685;stroke-linecap:round;stroke-linejoin:round;stroke-miterlimit:10;}
	.st56{fill:none;stroke:url(#SVGID_63_);stroke-width:2.0685;stroke-linecap:round;stroke-linejoin:round;stroke-miterlimit:10;}
	
		.st57{clip-path:url(#SVGID_65_);fill:none;stroke:url(#SVGID_66_);stroke-width:2.0685;stroke-linecap:round;stroke-linejoin:round;stroke-miterlimit:10;}
	.st58{fill:none;stroke:url(#SVGID_68_);stroke-width:2.0685;stroke-linecap:round;stroke-linejoin:round;stroke-miterlimit:10;}
	.st59{fill:none;stroke:url(#SVGID_69_);stroke-width:2.0685;stroke-linecap:round;stroke-linejoin:round;stroke-miterlimit:10;}
	
		.st60{clip-path:url(#SVGID_71_);fill:none;stroke:url(#SVGID_72_);stroke-width:2.0685;stroke-linecap:round;stroke-linejoin:round;stroke-miterlimit:10;}
	.st61{fill:none;stroke:url(#SVGID_74_);stroke-width:2.0685;stroke-linecap:round;stroke-linejoin:round;stroke-miterlimit:10;}
	.st62{fill:none;stroke:url(#SVGID_75_);stroke-width:2.0685;stroke-linecap:round;stroke-linejoin:round;stroke-miterlimit:10;}
	
		.st63{clip-path:url(#SVGID_77_);fill:none;stroke:url(#SVGID_78_);stroke-width:2.0685;stroke-linecap:round;stroke-linejoin:round;stroke-miterlimit:10;}
	.st64{fill:none;stroke:url(#SVGID_80_);stroke-width:2.0685;stroke-linecap:round;stroke-linejoin:round;stroke-miterlimit:10;}
	.st65{fill:none;stroke:#67C7BF;stroke-width:2;stroke-linecap:round;stroke-linejoin:round;stroke-miterlimit:10;}
	.st66{fill:none;stroke:url(#SVGID_81_);stroke-width:2.0685;stroke-linecap:round;stroke-linejoin:round;stroke-miterlimit:10;}
	.st67{fill:none;stroke:url(#SVGID_82_);stroke-width:2.0685;stroke-linecap:round;stroke-linejoin:round;stroke-miterlimit:10;}
	.st68{fill:none;stroke:url(#SVGID_83_);stroke-width:2.0685;stroke-linecap:round;stroke-linejoin:round;stroke-miterlimit:10;}
	.st69{fill:none;stroke:url(#SVGID_84_);stroke-width:2.0685;stroke-linecap:round;stroke-linejoin:round;stroke-miterlimit:10;}
	.st70{fill:none;stroke:url(#SVGID_85_);stroke-width:2.0685;stroke-linecap:round;stroke-linejoin:round;stroke-miterlimit:10;}
	.st71{fill:none;stroke:url(#SVGID_86_);stroke-width:2.0685;stroke-linecap:round;stroke-linejoin:round;stroke-miterlimit:10;}
	.st72{fill:none;stroke:url(#SVGID_87_);stroke-width:2.0685;stroke-linecap:round;stroke-linejoin:round;stroke-miterlimit:10;}
	.st73{fill:none;stroke:url(#SVGID_88_);stroke-width:2.0685;stroke-linecap:round;stroke-linejoin:round;stroke-miterlimit:10;}
	.st74{fill:none;stroke:url(#SVGID_89_);stroke-width:2.0685;stroke-linecap:round;stroke-linejoin:round;stroke-miterlimit:10;}
	.st75{fill:none;stroke:url(#SVGID_90_);stroke-width:2.0685;stroke-linecap:round;stroke-linejoin:round;stroke-miterlimit:10;}
	.st76{fill:none;stroke:url(#SVGID_91_);stroke-width:2.0685;stroke-linecap:round;stroke-linejoin:round;stroke-miterlimit:10;}
	.st77{fill:none;stroke:url(#SVGID_92_);stroke-width:2;stroke-linecap:round;stroke-linejoin:round;stroke-miterlimit:10;}
	.st78{fill:none;stroke:url(#SVGID_93_);stroke-width:2;stroke-linecap:round;stroke-linejoin:round;stroke-miterlimit:10;}
	.st79{fill:none;stroke:url(#SVGID_94_);stroke-width:2;stroke-linecap:round;stroke-linejoin:round;stroke-miterlimit:10;}
	.st80{fill:none;stroke:url(#SVGID_95_);stroke-width:2;stroke-linecap:round;stroke-linejoin:round;stroke-miterlimit:10;}
	.st81{fill:none;stroke:url(#SVGID_96_);stroke-width:2;stroke-linecap:round;stroke-linejoin:round;stroke-miterlimit:10;}
	.st82{fill:none;stroke:url(#SVGID_97_);stroke-width:2;stroke-linecap:round;stroke-linejoin:round;stroke-miterlimit:10;}
	.st83{fill:none;stroke:url(#SVGID_98_);stroke-width:2;stroke-linecap:round;stroke-linejoin:round;stroke-miterlimit:10;}
	
		.st84{fill-rule:evenodd;clip-rule:evenodd;fill:none;stroke:url(#SVGID_99_);stroke-width:2;stroke-linecap:round;stroke-linejoin:round;stroke-miterlimit:10;}
	
		.st85{fill-rule:evenodd;clip-rule:evenodd;fill:none;stroke:url(#SVGID_100_);stroke-width:2;stroke-linecap:round;stroke-linejoin:round;stroke-miterlimit:10;}
	
		.st86{fill-rule:evenodd;clip-rule:evenodd;fill:none;stroke:url(#SVGID_101_);stroke-width:2;stroke-linecap:round;stroke-linejoin:round;stroke-miterlimit:10;}
	
		.st87{fill-rule:evenodd;clip-rule:evenodd;fill:none;stroke:url(#SVGID_102_);stroke-width:2;stroke-linecap:round;stroke-linejoin:round;stroke-miterlimit:10;}
	
		.st88{fill-rule:evenodd;clip-rule:evenodd;fill:none;stroke:url(#SVGID_103_);stroke-width:2;stroke-linecap:round;stroke-linejoin:round;stroke-miterlimit:10;}
	.st89{fill:none;stroke:url(#SVGID_104_);stroke-width:2;stroke-linecap:round;stroke-linejoin:round;stroke-miterlimit:10;}
	.st90{fill:none;stroke:url(#SVGID_105_);stroke-width:2;stroke-linecap:round;stroke-linejoin:round;stroke-miterlimit:10;}
	.st91{fill:none;stroke:url(#SVGID_106_);stroke-width:2;stroke-linecap:round;stroke-linejoin:round;stroke-miterlimit:10;}
	.st92{fill:none;stroke:url(#SVGID_107_);stroke-width:2;stroke-linecap:round;stroke-linejoin:round;stroke-miterlimit:10;}
	.st93{fill:none;stroke:url(#SVGID_108_);stroke-width:2;stroke-linecap:round;stroke-linejoin:round;stroke-miterlimit:10;}
	.st94{fill:none;stroke:url(#SVGID_109_);stroke-width:2;stroke-linecap:round;stroke-linejoin:round;stroke-miterlimit:10;}
	.st95{fill:none;stroke:url(#SVGID_110_);stroke-width:2;stroke-linecap:round;stroke-linejoin:round;stroke-miterlimit:10;}
	.st96{fill:none;stroke:url(#SVGID_111_);stroke-width:2;stroke-linecap:round;stroke-linejoin:round;stroke-miterlimit:10;}
	.st97{fill:none;stroke:url(#SVGID_112_);stroke-width:2;stroke-linecap:round;stroke-linejoin:round;stroke-miterlimit:10;}
	.st98{fill:none;stroke:url(#SVGID_113_);stroke-width:2;stroke-linecap:round;stroke-linejoin:round;stroke-miterlimit:10;}
	.st99{fill:none;stroke:url(#SVGID_114_);stroke-width:2;stroke-linecap:round;stroke-linejoin:round;stroke-miterlimit:10;}
	.st100{fill:none;stroke:url(#SVGID_115_);stroke-width:2;stroke-linecap:round;stroke-linejoin:round;stroke-miterlimit:10;}
	.st101{fill:none;stroke:url(#SVGID_116_);stroke-width:2;stroke-linecap:round;stroke-linejoin:round;stroke-miterlimit:10;}
	.st102{fill:none;stroke:#CACACA;stroke-width:0.5;stroke-miterlimit:10;}
	.st103{fill:none;stroke:#949495;stroke-width:1.0606;stroke-miterlimit:10;}
	.st104{fill:url(#SVGID_117_);}
	.st105{fill:url(#SVGID_118_);}
	.st106{fill:url(#SVGID_119_);}
	.st107{fill:url(#SVGID_120_);}
	.st108{fill:url(#SVGID_121_);}
	.st109{fill:url(#SVGID_122_);}
	.st110{fill:url(#SVGID_123_);}
	.st111{fill:url(#SVGID_124_);}
	.st112{fill:url(#SVGID_125_);}
	.st113{fill:url(#SVGID_126_);}
	.st114{fill:url(#SVGID_127_);}
	.st115{fill:url(#SVGID_128_);}
	.st116{fill:url(#SVGID_129_);}
	.st117{fill:url(#SVGID_130_);}
	.st118{fill:#B33C8A;}
	.st119{fill:#EE4F86;}
	.st120{opacity:0.3;fill:url(#SVGID_131_);}
	.st121{opacity:0.3;fill:#EAA322;}
	.st122{opacity:0.5;fill:#EE4F86;}
	.st123{opacity:0.2;fill:url(#SVGID_132_);}
	.st124{opacity:0.2;fill:#7F58A4;}
	.st125{opacity:0.5;fill:url(#SVGID_133_);}
	.st126{opacity:0.5;fill:#66C6BE;}
	.st127{opacity:0.5;fill:#C5CC7C;}
	.st128{fill:#B8B7B8;}
	.st129{clip-path:url(#SVGID_135_);}
	.st130{clip-path:url(#SVGID_137_);}
	.st131{clip-path:url(#SVGID_139_);}
	.st132{fill:#221F1F;}
	.st133{fill-rule:evenodd;clip-rule:evenodd;fill:#E4136A;}
	.st134{fill:none;stroke:#B8B7B8;stroke-width:0.5;stroke-miterlimit:10;}
	.st135{fill:none;stroke:url(#SVGID_142_);stroke-width:0.8;stroke-linecap:round;stroke-linejoin:round;stroke-miterlimit:10;}
	.st136{fill:url(#SVGID_143_);}
	.st137{fill:url(#SVGID_144_);}
	.st138{fill:url(#SVGID_145_);}
	.st139{fill:url(#SVGID_146_);}
	.st140{fill:url(#SVGID_147_);}
	.st141{fill:url(#SVGID_148_);}
	.st142{fill:url(#SVGID_149_);}
	.st143{fill:url(#SVGID_150_);}
	.st144{fill:url(#SVGID_151_);}
	.st145{fill:none;stroke:url(#SVGID_152_);stroke-width:0.8;stroke-linecap:round;stroke-linejoin:round;stroke-miterlimit:10;}
	.st146{fill:url(#SVGID_153_);}
	.st147{fill:url(#SVGID_154_);}
	.st148{fill:url(#SVGID_155_);}
	.st149{fill:url(#SVGID_156_);}
	.st150{fill:url(#SVGID_157_);}
	.st151{fill:url(#SVGID_158_);}
	.st152{fill:url(#SVGID_159_);}
	.st153{fill:url(#SVGID_160_);}
	.st154{fill:url(#SVGID_161_);}
	.st155{fill:url(#SVGID_162_);}
	.st156{fill:url(#SVGID_163_);}
	.st157{fill:url(#SVGID_164_);}
	.st158{fill:url(#SVGID_165_);}
	.st159{fill:url(#SVGID_166_);}
	.st160{fill:none;stroke:url(#SVGID_167_);stroke-width:0.8;stroke-linecap:round;stroke-linejoin:round;stroke-miterlimit:10;}
	.st161{fill:url(#SVGID_168_);}
	.st162{fill:url(#SVGID_169_);}
	.st163{fill:url(#SVGID_170_);}
	.st164{fill:url(#SVGID_171_);}
	.st165{fill:url(#SVGID_172_);}
	.st166{fill:url(#SVGID_173_);}
	.st167{fill:url(#SVGID_174_);}
	.st168{fill:url(#SVGID_175_);}
	.st169{fill:#3C3835;}
	.st170{fill:#FFD007;}
	.st171{fill:#8D2969;}
	.st172{fill:#E21C3D;}
	.st173{fill:#C92030;}
	.st174{fill:#DB1E3C;}
	.st175{fill:#D2202E;}
	.st176{fill:#A62738;}
	.st177{fill:#C42039;}
	.st178{fill:#DA1E34;}
	.st179{fill:#A42360;}
	.st180{fill:#B42D84;}
	.st181{fill:#A52847;}
	.st182{fill:#8D2869;}
	.st183{fill:#9D2367;}
	.st184{fill:#AE235F;}
	.st185{fill:#662C82;}
	.st186{fill:#6B4A97;}
	.st187{fill:#5B2A75;}
	.st188{fill:#454084;}
	.st189{fill:#6F2260;}
	.st190{fill:#623482;}
	.st191{fill:#17457A;}
	.st192{fill:#36568E;}
	.st193{fill:#045DA8;}
	.st194{fill:#2673B1;}
	.st195{fill:#0D4F90;}
	.st196{fill:#1A478B;}
	.st197{fill:#263878;}
	.st198{fill-rule:evenodd;clip-rule:evenodd;fill:#FFFFFF;}
	.st199{fill:#4E4E50;}
	.st200{fill-rule:evenodd;clip-rule:evenodd;fill:#4E4E50;}
	.st201{fill:#F7B916;}
	.st202{fill:#FFFFFF;}
	.st203{fill:#010101;}
	.st204{fill:#99969B;}
	.st205{fill:#908E8F;}
	.st206{fill:#D81F27;}
	.st207{fill:#D3D1D1;}
	.st208{fill:#294EA0;}
	.st209{fill:#F7B119;}
	.st210{fill:#ED2E32;}
	.st211{fill:#00613C;}
	.st212{fill:none;stroke:url(#SVGID_176_);stroke-width:2.0685;stroke-linecap:round;stroke-linejoin:round;stroke-miterlimit:10;}
	.st213{fill:none;stroke:url(#SVGID_177_);stroke-width:2.0685;stroke-linecap:round;stroke-linejoin:round;stroke-miterlimit:10;}
	.st214{fill:none;stroke:url(#SVGID_178_);stroke-width:2.0685;stroke-linecap:round;stroke-linejoin:round;stroke-miterlimit:10;}
	.st215{fill:none;stroke:url(#SVGID_179_);stroke-width:2.0685;stroke-linecap:round;stroke-linejoin:round;stroke-miterlimit:10;}
	.st216{fill:none;stroke:url(#SVGID_180_);stroke-width:2.0685;stroke-linecap:round;stroke-miterlimit:10;}
	.st217{fill:none;stroke:url(#SVGID_181_);stroke-width:2.0685;stroke-linecap:round;stroke-miterlimit:10;}
	.st218{fill:none;stroke:url(#SVGID_182_);stroke-width:2.0685;stroke-linecap:round;stroke-miterlimit:10;}
	.st219{fill:none;stroke:url(#SVGID_183_);stroke-width:2.0685;stroke-linecap:round;stroke-miterlimit:10;}
	.st220{fill:none;stroke:url(#SVGID_184_);stroke-width:2.0685;stroke-linecap:round;stroke-miterlimit:10;}
	.st221{fill:none;stroke:url(#SVGID_185_);stroke-width:2.0685;stroke-linecap:round;stroke-miterlimit:10;}
	.st222{fill:none;stroke:url(#SVGID_186_);stroke-width:2.0685;stroke-linecap:round;stroke-miterlimit:10;}
	.st223{fill:none;stroke:url(#SVGID_187_);stroke-width:2.0685;stroke-linecap:round;stroke-miterlimit:10;}
	.st224{fill:#FFFFFF;stroke:url(#SVGID_188_);stroke-width:2.5857;stroke-linecap:round;stroke-miterlimit:10;}
	.st225{fill:none;stroke:url(#SVGID_189_);stroke-width:2.9204;stroke-linecap:round;stroke-miterlimit:10;}
	.st226{fill:none;stroke:url(#SVGID_190_);stroke-width:2.0685;stroke-linecap:round;stroke-miterlimit:10;}
	.st227{fill:#FFFFFF;stroke:url(#SVGID_191_);stroke-width:2.5857;stroke-linecap:round;stroke-miterlimit:10;}
	.st228{fill:none;stroke:url(#SVGID_192_);stroke-width:2.9204;stroke-linecap:round;stroke-miterlimit:10;}
	.st229{fill:none;stroke:url(#SVGID_193_);stroke-width:2.0685;stroke-linecap:round;stroke-linejoin:round;stroke-miterlimit:10;}
	.st230{fill:none;stroke:url(#SVGID_194_);stroke-width:2.0685;stroke-linecap:round;stroke-linejoin:round;stroke-miterlimit:10;}
	.st231{fill:none;stroke:url(#SVGID_195_);stroke-width:2;stroke-linecap:round;stroke-linejoin:round;stroke-miterlimit:10;}
	.st232{fill:url(#SVGID_196_);}
	.st233{fill:url(#SVGID_197_);}
	.st234{fill:url(#SVGID_198_);}
	.st235{fill:url(#SVGID_199_);}
	.st236{fill:url(#SVGID_200_);}
	.st237{fill:url(#SVGID_201_);}
	.st238{fill:url(#SVGID_202_);}
	.st239{fill:url(#SVGID_203_);}
	.st240{fill:url(#SVGID_204_);}
	.st241{fill:url(#SVGID_205_);}
	.st242{fill:url(#SVGID_206_);}
	.st243{fill:url(#SVGID_207_);}
	.st244{fill:url(#SVGID_208_);}
	.st245{fill:url(#SVGID_209_);}
	.st246{fill:url(#SVGID_210_);}
	.st247{fill:url(#SVGID_211_);}
	.st248{fill:url(#SVGID_212_);}
	.st249{fill:url(#SVGID_213_);}
	.st250{fill:url(#SVGID_214_);}
	.st251{fill:url(#SVGID_215_);}
	.st252{fill:url(#SVGID_216_);}
	.st253{fill:url(#SVGID_217_);}
	.st254{fill:none;stroke:url(#SVGID_218_);stroke-width:1.2759;stroke-linecap:round;stroke-linejoin:round;stroke-miterlimit:10;}
	.st255{fill:none;stroke:url(#SVGID_219_);stroke-width:1.2759;stroke-linecap:round;stroke-linejoin:round;stroke-miterlimit:10;}
	.st256{fill:none;stroke:url(#SVGID_220_);stroke-width:1.2759;stroke-linecap:round;stroke-linejoin:round;stroke-miterlimit:10;}
	.st257{fill:none;stroke:url(#SVGID_221_);stroke-width:1.2759;stroke-linecap:round;stroke-linejoin:round;stroke-miterlimit:10;}
	.st258{fill:none;stroke:url(#SVGID_222_);stroke-width:1.2759;stroke-linecap:round;stroke-linejoin:round;stroke-miterlimit:10;}
	.st259{fill:none;stroke:url(#SVGID_223_);stroke-width:1.2759;stroke-linecap:round;stroke-linejoin:round;stroke-miterlimit:10;}
	.st260{fill:none;stroke:url(#SVGID_224_);stroke-width:1.2759;stroke-linecap:round;stroke-linejoin:round;stroke-miterlimit:10;}
	.st261{fill:none;stroke:url(#SVGID_225_);stroke-width:1.2759;stroke-linecap:round;stroke-linejoin:round;stroke-miterlimit:10;}
	.st262{fill:none;stroke:url(#SVGID_226_);stroke-width:1.2759;stroke-linecap:round;stroke-linejoin:round;stroke-miterlimit:10;}
	.st263{fill:none;stroke:url(#SVGID_227_);stroke-width:1.2759;stroke-linecap:round;stroke-linejoin:round;stroke-miterlimit:10;}
	.st264{fill:none;stroke:url(#SVGID_228_);stroke-width:1.2759;stroke-linecap:round;stroke-linejoin:round;stroke-miterlimit:10;}
	.st265{fill:none;stroke:url(#SVGID_229_);stroke-width:1.2759;stroke-linecap:round;stroke-linejoin:round;stroke-miterlimit:10;}
	.st266{fill:none;stroke:url(#SVGID_230_);stroke-width:1.2759;stroke-linecap:round;stroke-linejoin:round;stroke-miterlimit:10;}
	.st267{fill:none;stroke:url(#SVGID_231_);stroke-width:1.2759;stroke-linecap:round;stroke-linejoin:round;stroke-miterlimit:10;}
	.st268{fill:none;stroke:url(#SVGID_232_);stroke-width:1.2759;stroke-linecap:round;stroke-linejoin:round;stroke-miterlimit:10;}
	.st269{fill:none;stroke:url(#SVGID_233_);stroke-width:1.2759;stroke-linecap:round;stroke-linejoin:round;stroke-miterlimit:10;}
	.st270{fill:none;stroke:url(#SVGID_234_);stroke-width:1.2759;stroke-linecap:round;stroke-linejoin:round;stroke-miterlimit:10;}
	.st271{fill:none;stroke:url(#SVGID_235_);stroke-width:1.2759;stroke-linecap:round;stroke-linejoin:round;stroke-miterlimit:10;}
	.st272{fill:none;stroke:url(#SVGID_236_);stroke-width:1.2759;stroke-linecap:round;stroke-linejoin:round;stroke-miterlimit:10;}
	.st273{fill:none;stroke:url(#SVGID_237_);stroke-width:1.2759;stroke-linecap:round;stroke-linejoin:round;stroke-miterlimit:10;}
	.st274{fill:none;stroke:url(#SVGID_238_);stroke-width:1.2759;stroke-linecap:round;stroke-linejoin:round;stroke-miterlimit:10;}
	.st275{fill:none;stroke:url(#SVGID_239_);stroke-width:1.2759;stroke-linecap:round;stroke-linejoin:round;stroke-miterlimit:10;}
	.st276{fill:none;stroke:url(#SVGID_240_);stroke-width:1.2759;stroke-linecap:round;stroke-linejoin:round;stroke-miterlimit:10;}
	.st277{fill:none;stroke:url(#SVGID_241_);stroke-width:1.2759;stroke-linecap:round;stroke-linejoin:round;stroke-miterlimit:10;}
	.st278{fill:none;stroke:url(#SVGID_242_);stroke-width:1.2759;stroke-linecap:round;stroke-linejoin:round;stroke-miterlimit:10;}
	.st279{fill:none;stroke:url(#SVGID_243_);stroke-width:1.2759;stroke-linecap:round;stroke-linejoin:round;stroke-miterlimit:10;}
	.st280{fill:none;stroke:url(#SVGID_244_);stroke-width:1.2759;stroke-linecap:round;stroke-linejoin:round;stroke-miterlimit:10;}
	.st281{fill:none;stroke:url(#SVGID_245_);stroke-width:1.2759;stroke-linecap:round;stroke-linejoin:round;stroke-miterlimit:10;}
	.st282{fill:none;stroke:url(#SVGID_246_);stroke-width:1.2759;stroke-linecap:round;stroke-linejoin:round;stroke-miterlimit:10;}
	.st283{fill:none;stroke:url(#SVGID_247_);stroke-width:1.2759;stroke-linecap:round;stroke-linejoin:round;stroke-miterlimit:10;}
	.st284{fill:none;stroke:url(#SVGID_248_);stroke-width:1.2759;stroke-linecap:round;stroke-linejoin:round;stroke-miterlimit:10;}
	.st285{fill:none;stroke:url(#SVGID_249_);stroke-width:1.2759;stroke-linecap:round;stroke-linejoin:round;stroke-miterlimit:10;}
	.st286{fill:none;stroke:url(#SVGID_250_);stroke-width:1.2759;stroke-linecap:round;stroke-linejoin:round;stroke-miterlimit:10;}
	.st287{fill:none;stroke:url(#SVGID_251_);stroke-width:1.2759;stroke-linecap:round;stroke-linejoin:round;stroke-miterlimit:10;}
	.st288{fill:none;stroke:url(#SVGID_252_);stroke-width:1.2759;stroke-linecap:round;stroke-linejoin:round;stroke-miterlimit:10;}
	.st289{fill:none;stroke:url(#SVGID_253_);stroke-width:1.2759;stroke-linecap:round;stroke-linejoin:round;stroke-miterlimit:10;}
	.st290{fill:none;stroke:url(#SVGID_254_);stroke-width:1.2759;stroke-linecap:round;stroke-linejoin:round;stroke-miterlimit:10;}
	.st291{fill:none;stroke:url(#SVGID_255_);stroke-width:1.2759;stroke-linecap:round;stroke-linejoin:round;stroke-miterlimit:10;}
	.st292{fill:none;stroke:url(#SVGID_256_);stroke-width:1.2759;stroke-linecap:round;stroke-linejoin:round;stroke-miterlimit:10;}
	.st293{fill:none;stroke:url(#SVGID_257_);stroke-width:1.2759;stroke-linecap:round;stroke-linejoin:round;stroke-miterlimit:10;}
	.st294{fill:none;stroke:url(#SVGID_258_);stroke-width:1.2759;stroke-linecap:round;stroke-linejoin:round;stroke-miterlimit:10;}
	.st295{fill:none;stroke:url(#SVGID_259_);stroke-width:1.2759;stroke-linecap:round;stroke-linejoin:round;stroke-miterlimit:10;}
	.st296{fill:none;stroke:url(#SVGID_260_);stroke-width:1.2759;stroke-linecap:round;stroke-linejoin:round;stroke-miterlimit:10;}
	.st297{fill:none;stroke:url(#SVGID_261_);stroke-width:1.2759;stroke-linecap:round;stroke-linejoin:round;stroke-miterlimit:10;}
	.st298{fill:none;stroke:url(#SVGID_262_);stroke-width:1.2759;stroke-linecap:round;stroke-linejoin:round;stroke-miterlimit:10;}
	.st299{fill:none;stroke:url(#SVGID_263_);stroke-width:1.2759;stroke-linecap:round;stroke-linejoin:round;stroke-miterlimit:10;}
	.st300{fill:none;stroke:url(#SVGID_264_);stroke-width:1.2759;stroke-linecap:round;stroke-linejoin:round;stroke-miterlimit:10;}
	.st301{fill:none;stroke:url(#SVGID_265_);stroke-width:1.2759;stroke-linecap:round;stroke-linejoin:round;stroke-miterlimit:10;}
	.st302{fill:none;stroke:url(#SVGID_266_);stroke-width:1.2759;stroke-linecap:round;stroke-linejoin:round;stroke-miterlimit:10;}
	.st303{fill:none;stroke:url(#SVGID_267_);stroke-width:1.2759;stroke-linecap:round;stroke-linejoin:round;stroke-miterlimit:10;}
	.st304{fill:none;stroke:url(#SVGID_268_);stroke-width:1.2759;stroke-linecap:round;stroke-linejoin:round;stroke-miterlimit:10;}
	.st305{fill:none;stroke:url(#SVGID_269_);stroke-width:1.2759;stroke-linecap:round;stroke-linejoin:round;stroke-miterlimit:10;}
	.st306{fill:none;stroke:url(#SVGID_270_);stroke-width:1.2759;stroke-linecap:round;stroke-linejoin:round;stroke-miterlimit:10;}
	.st307{fill:none;stroke:url(#SVGID_271_);stroke-width:1.2759;stroke-linecap:round;stroke-linejoin:round;stroke-miterlimit:10;}
	.st308{fill:none;stroke:url(#SVGID_272_);stroke-width:1.2759;stroke-linecap:round;stroke-linejoin:round;stroke-miterlimit:10;}
	.st309{fill:none;stroke:url(#SVGID_273_);stroke-width:1.2759;stroke-linecap:round;stroke-linejoin:round;stroke-miterlimit:10;}
	.st310{fill:none;stroke:url(#SVGID_274_);stroke-width:1.2759;stroke-linecap:round;stroke-linejoin:round;stroke-miterlimit:10;}
	.st311{fill:none;stroke:url(#SVGID_275_);stroke-width:1.2759;stroke-linecap:round;stroke-linejoin:round;stroke-miterlimit:10;}
	.st312{fill:none;stroke:url(#SVGID_276_);stroke-width:1.2759;stroke-linecap:round;stroke-linejoin:round;stroke-miterlimit:10;}
	.st313{fill:none;stroke:url(#SVGID_277_);stroke-width:1.2759;stroke-linecap:round;stroke-linejoin:round;stroke-miterlimit:10;}
	.st314{fill:none;stroke:url(#SVGID_278_);stroke-width:1.2759;stroke-linecap:round;stroke-linejoin:round;stroke-miterlimit:10;}
	.st315{fill:none;stroke:url(#SVGID_279_);stroke-width:1.2759;stroke-linecap:round;stroke-linejoin:round;stroke-miterlimit:10;}
	.st316{fill:none;stroke:url(#SVGID_280_);stroke-width:1.2759;stroke-linecap:round;stroke-linejoin:round;stroke-miterlimit:10;}
	.st317{fill:none;stroke:url(#SVGID_281_);stroke-width:1.2759;stroke-linecap:round;stroke-linejoin:round;stroke-miterlimit:10;}
	.st318{fill:none;stroke:url(#SVGID_282_);stroke-width:1.2759;stroke-linecap:round;stroke-linejoin:round;stroke-miterlimit:10;}
	.st319{fill:none;stroke:url(#SVGID_283_);stroke-width:1.2759;stroke-linecap:round;stroke-linejoin:round;stroke-miterlimit:10;}
	.st320{fill:none;stroke:url(#SVGID_284_);stroke-width:1.2759;stroke-linecap:round;stroke-linejoin:round;stroke-miterlimit:10;}
	.st321{fill:none;stroke:url(#SVGID_285_);stroke-width:1.2759;stroke-linecap:round;stroke-linejoin:round;stroke-miterlimit:10;}
	.st322{fill:none;stroke:url(#SVGID_286_);stroke-width:1.2759;stroke-linecap:round;stroke-linejoin:round;stroke-miterlimit:10;}
	.st323{fill:none;stroke:url(#SVGID_287_);stroke-width:1.2759;stroke-linecap:round;stroke-linejoin:round;stroke-miterlimit:10;}
	.st324{fill:none;stroke:url(#SVGID_288_);stroke-width:1.2759;stroke-linecap:round;stroke-linejoin:round;stroke-miterlimit:10;}
	.st325{fill:none;stroke:url(#SVGID_289_);stroke-width:1.2759;stroke-linecap:round;stroke-linejoin:round;stroke-miterlimit:10;}
	.st326{fill:none;stroke:url(#SVGID_290_);stroke-width:1.2759;stroke-linecap:round;stroke-linejoin:round;stroke-miterlimit:10;}
	.st327{fill:none;stroke:url(#SVGID_291_);stroke-width:1.2759;stroke-linecap:round;stroke-linejoin:round;stroke-miterlimit:10;}
	.st328{fill:none;stroke:url(#SVGID_292_);stroke-width:1.2759;stroke-linecap:round;stroke-linejoin:round;stroke-miterlimit:10;}
	.st329{fill:none;stroke:url(#SVGID_293_);stroke-width:1.2759;stroke-linecap:round;stroke-linejoin:round;stroke-miterlimit:10;}
	.st330{fill:none;stroke:url(#SVGID_294_);stroke-width:1.2759;stroke-linecap:round;stroke-linejoin:round;stroke-miterlimit:10;}
	.st331{fill:none;stroke:url(#SVGID_295_);stroke-width:1.2759;stroke-linecap:round;stroke-linejoin:round;stroke-miterlimit:10;}
	.st332{fill:none;stroke:url(#SVGID_296_);stroke-width:1.2759;stroke-linecap:round;stroke-linejoin:round;stroke-miterlimit:10;}
	.st333{fill:none;stroke:url(#SVGID_297_);stroke-width:1.2759;stroke-linecap:round;stroke-linejoin:round;stroke-miterlimit:10;}
	.st334{fill:none;stroke:url(#SVGID_298_);stroke-width:1.2759;stroke-linecap:round;stroke-linejoin:round;stroke-miterlimit:10;}
	.st335{fill:none;stroke:url(#SVGID_299_);stroke-width:1.2759;stroke-linecap:round;stroke-linejoin:round;stroke-miterlimit:10;}
	.st336{fill:none;stroke:url(#SVGID_300_);stroke-width:1.2759;stroke-linecap:round;stroke-linejoin:round;stroke-miterlimit:10;}
	.st337{fill:none;stroke:url(#SVGID_301_);stroke-width:1.2759;stroke-linecap:round;stroke-linejoin:round;stroke-miterlimit:10;}
	.st338{fill:none;stroke:url(#SVGID_302_);stroke-width:1.2759;stroke-linecap:round;stroke-linejoin:round;stroke-miterlimit:10;}
	.st339{fill:none;stroke:url(#SVGID_303_);stroke-width:1.2759;stroke-linecap:round;stroke-linejoin:round;stroke-miterlimit:10;}
	.st340{fill:none;stroke:url(#SVGID_304_);stroke-width:1.2759;stroke-linecap:round;stroke-linejoin:round;stroke-miterlimit:10;}
	.st341{fill:none;stroke:url(#SVGID_305_);stroke-width:1.2759;stroke-linecap:round;stroke-linejoin:round;stroke-miterlimit:10;}
	.st342{fill:none;stroke:url(#SVGID_306_);stroke-width:1.2759;stroke-linecap:round;stroke-linejoin:round;stroke-miterlimit:10;}
	.st343{fill:none;stroke:url(#SVGID_307_);stroke-width:1.2759;stroke-linecap:round;stroke-linejoin:round;stroke-miterlimit:10;}
	.st344{fill:none;stroke:url(#SVGID_308_);stroke-width:1.2759;stroke-linecap:round;stroke-linejoin:round;stroke-miterlimit:10;}
	.st345{fill:none;stroke:url(#SVGID_309_);stroke-width:1.2759;stroke-linecap:round;stroke-linejoin:round;stroke-miterlimit:10;}
</style>
<g id="Layer_1">
	<g>
		<linearGradient id="SVGID_1_" gradientUnits="userSpaceOnUse" x1="95.33" y1="-7.951" x2="-17.0986" y2="138.8773">
			<stop  offset="0" style="stop-color:#B33C8A"/>
			<stop  offset="1" style="stop-color:#EE4F86"/>
		</linearGradient>
		<path style="fill:url(#SVGID_1_);" d="M54.58,62.99c-0.83-1.25-2.02-1.92-3.43-1.92c-0.91,0-1.88,0.29-2.8,0.83
			c-0.3,0.18-0.41,0.57-0.23,0.87c0.18,0.3,0.57,0.41,0.87,0.23c0.73-0.43,1.48-0.65,2.16-0.65c0.98,0,1.78,0.45,2.37,1.35
			c1.33,2,3.36,9.16-6.36,32.51h-4.48c1.69-7.93,5.23-26.69,4.82-43.03C47,33.53,39.23,24.01,35.72,23
			c-0.1-0.06-0.21-0.09-0.33-0.09h-0.22c-0.12,0-0.23,0.03-0.33,0.09c-3.51,1.01-11.28,10.52-11.77,30.18
			c-0.41,16.35,3.13,35.11,4.82,43.03h-4.48c-9.71-23.35-7.69-30.51-6.36-32.51c0.6-0.9,1.39-1.35,2.37-1.35
			c0.68,0,1.43,0.23,2.16,0.65c0.31,0.18,0.7,0.08,0.87-0.23c0.18-0.3,0.08-0.7-0.23-0.87c-0.93-0.54-1.9-0.83-2.8-0.83
			c-1.41,0-2.6,0.66-3.43,1.92c-3.1,4.66-0.85,16.69,6.32,33.89c-0.39,1.47-0.73,2.73-1,3.7c-0.21,0.77-0.06,1.57,0.42,2.21
			c0.48,0.63,1.22,1,2.02,1c0,0,0,0,0,0h5.7h0h1.5h8.66h1.52h0h5.67c0,0,0,0,0,0c0.8,0,1.53-0.36,2.02-1
			c0.48-0.63,0.64-1.44,0.42-2.21c-0.27-0.98-0.61-2.23-1-3.7C55.43,79.69,57.68,67.65,54.58,62.99z M24.35,53.21
			c0.51-20.4,8.91-28.59,10.93-29c2.02,0.42,10.42,8.6,10.93,29c0.42,16.65-3.44,36.41-4.81,42.85H29.16
			C27.79,89.62,23.93,69.86,24.35,53.21z M23.75,102.52C23.75,102.52,23.75,102.52,23.75,102.52c-0.4,0-0.76-0.18-1-0.5
			c-0.24-0.31-0.32-0.71-0.21-1.09c0.26-0.92,0.57-2.08,0.93-3.44l4.38,0c-0.32,1.21-0.61,2.26-0.84,3.1
			c-0.18,0.66-0.08,1.35,0.26,1.93H23.75z M39.61,102.52h-8.66h-1.5h0c-0.4,0-0.76-0.18-1-0.5c-0.24-0.31-0.32-0.71-0.21-1.09
			c0.26-0.92,0.57-2.08,0.93-3.44l1.52,0l1.03,0c0,0,0,0,0,0l7.11,0c0,0,0,0,0,0l2.58,0c0.36,1.36,0.68,2.52,0.93,3.44
			c0.11,0.38,0.03,0.78-0.21,1.09c-0.24,0.32-0.6,0.48-1,0.5H39.61z M47.81,102.02c-0.24,0.32-0.6,0.5-1,0.5c0,0,0,0,0,0h-3.49
			c0.34-0.58,0.44-1.27,0.26-1.93c-0.23-0.84-0.52-1.89-0.84-3.1l4.35,0c0.36,1.36,0.68,2.52,0.93,3.44
			C48.13,101.31,48.05,101.71,47.81,102.02z"/>
		<linearGradient id="SVGID_2_" gradientUnits="userSpaceOnUse" x1="64.4737" y1="-31.5781" x2="-47.9548" y2="115.2502">
			<stop  offset="0" style="stop-color:#B33C8A"/>
			<stop  offset="1" style="stop-color:#EE4F86"/>
		</linearGradient>
		<path style="fill:url(#SVGID_2_);" d="M8.75,19.42c-0.31-0.17-0.7-0.05-0.86,0.26C2.17,30.48-0.46,43.51,0.07,58.41
			c0.15,4.26,0.57,8.76,1.23,13.37c0.05,0.32,0.32,0.55,0.63,0.55c0.03,0,0.06,0,0.09-0.01c0.35-0.05,0.59-0.37,0.54-0.72
			c-0.66-4.57-1.07-9.02-1.22-13.24C0.82,43.69,3.4,30.88,9.02,20.29C9.18,19.98,9.06,19.59,8.75,19.42z"/>
		<linearGradient id="SVGID_3_" gradientUnits="userSpaceOnUse" x1="84.1543" y1="-16.5083" x2="-28.2742" y2="130.32">
			<stop  offset="0" style="stop-color:#B33C8A"/>
			<stop  offset="1" style="stop-color:#EE4F86"/>
		</linearGradient>
		<path style="fill:url(#SVGID_3_);" d="M3.59,77.77c-0.06-0.35-0.4-0.58-0.74-0.51C2.5,77.32,2.27,77.66,2.34,78
			c1.31,6.98,2.95,13.19,4.24,17.82c0.08,0.28,0.33,0.47,0.61,0.47c0.06,0,0.11-0.01,0.17-0.02c0.34-0.09,0.54-0.45,0.44-0.79
			C6.52,90.88,4.89,84.7,3.59,77.77z"/>
		<linearGradient id="SVGID_4_" gradientUnits="userSpaceOnUse" x1="83.2366" y1="-17.211" x2="-29.1919" y2="129.6173">
			<stop  offset="0" style="stop-color:#B33C8A"/>
			<stop  offset="1" style="stop-color:#EE4F86"/>
		</linearGradient>
		<path style="fill:url(#SVGID_4_);" d="M46.29,2.65C42.94,0.92,39.17,0,35.39,0h-0.22c-3.15,0-6.22,0.61-9.1,1.82
			c-2.42,0.96-4.75,2.3-6.93,3.98c-0.28,0.22-0.33,0.62-0.12,0.9c0.22,0.28,0.62,0.33,0.9,0.12C22.01,5.2,24.23,3.92,26.55,3
			c2.74-1.14,5.64-1.72,8.62-1.72h0.22c3.57,0,7.14,0.87,10.33,2.52c17.12,8.38,24.9,27.42,23.14,56.59
			c-0.02,0.35,0.25,0.65,0.6,0.68c0.01,0,0.03,0,0.04,0c0.33,0,0.62-0.26,0.64-0.6C71.91,31.15,63.66,11.15,46.29,2.65z"/>
		<linearGradient id="SVGID_5_" gradientUnits="userSpaceOnUse" x1="78.9912" y1="-20.4618" x2="-33.4373" y2="126.3665">
			<stop  offset="0" style="stop-color:#B33C8A"/>
			<stop  offset="1" style="stop-color:#EE4F86"/>
		</linearGradient>
		<path style="fill:url(#SVGID_5_);" d="M35.56,12.11C35.56,12.11,35.56,12.11,35.56,12.11c-10.06,0-18.85,11.4-22.4,29.03
			c-0.07,0.35,0.15,0.68,0.5,0.75c0.04,0.01,0.08,0.01,0.13,0.01c0.3,0,0.56-0.21,0.62-0.51c3.42-17.01,11.72-28.01,21.15-28.01
			c9.38,0,17.35,10.73,20.82,28.01c0.07,0.35,0.41,0.57,0.75,0.5c0.34-0.07,0.57-0.41,0.5-0.75C54.03,23.24,45.58,12.11,35.56,12.11
			z"/>
		<linearGradient id="SVGID_6_" gradientUnits="userSpaceOnUse" x1="120.9264" y1="11.6486" x2="8.4979" y2="158.4769">
			<stop  offset="0" style="stop-color:#B33C8A"/>
			<stop  offset="1" style="stop-color:#EE4F86"/>
		</linearGradient>
		<path style="fill:url(#SVGID_6_);" d="M68.13,73.51c-0.34-0.05-0.67,0.19-0.72,0.54c-0.86,5.79-2.05,11.75-3.51,17.72
			c-0.08,0.34,0.12,0.69,0.47,0.77c0.05,0.01,0.1,0.02,0.15,0.02c0.29,0,0.55-0.19,0.62-0.49c1.48-6,2.66-12,3.53-17.83
			C68.72,73.88,68.48,73.56,68.13,73.51z"/>
		<linearGradient id="SVGID_7_" gradientUnits="userSpaceOnUse" x1="117.824" y1="9.273" x2="5.3955" y2="156.1013">
			<stop  offset="0" style="stop-color:#B33C8A"/>
			<stop  offset="1" style="stop-color:#EE4F86"/>
		</linearGradient>
		<path style="fill:url(#SVGID_7_);" d="M46.23,107.42c-0.01,0-0.01,0-0.02,0c-0.34,0-0.63,0.27-0.64,0.62
			c-0.31,10.71-7.44,25.46-10.29,30.95c-2.84-5.48-9.99-20.27-10.3-30.95c-0.01-0.35-0.34-0.62-0.66-0.62
			c-0.35,0.01-0.63,0.3-0.62,0.66c0.34,11.58,8.43,27.71,10.9,32.37l0.11,0.21c0.01,0.01,0.02,0.02,0.03,0.03
			c0.04,0.07,0.1,0.13,0.17,0.19c0.02,0.01,0.03,0.03,0.05,0.04c0.01,0,0.01,0.01,0.02,0.02c0.09,0.05,0.19,0.07,0.29,0.07
			c0,0,0,0,0,0s0,0,0,0c0.1,0,0.2-0.02,0.29-0.07c0.01,0,0.01-0.01,0.02-0.02c0.02-0.01,0.03-0.03,0.05-0.04
			c0.07-0.05,0.13-0.11,0.18-0.19c0.01-0.01,0.02-0.02,0.03-0.03l0.1-0.19c2.47-4.66,10.56-20.77,10.9-32.39
			C46.86,107.73,46.59,107.43,46.23,107.42z"/>
		<linearGradient id="SVGID_8_" gradientUnits="userSpaceOnUse" x1="116.435" y1="8.2094" x2="4.0064" y2="155.0377">
			<stop  offset="0" style="stop-color:#B33C8A"/>
			<stop  offset="1" style="stop-color:#EE4F86"/>
		</linearGradient>
		<path style="fill:url(#SVGID_8_);" d="M35.28,127.93c0.24,0,0.46-0.13,0.57-0.35c0.05-0.1,5.29-11.53,5.41-19.51
			c0-0.35-0.28-0.64-0.63-0.65c0,0-0.01,0-0.01,0c-0.35,0-0.63,0.28-0.64,0.63c-0.09,6.05-3.36,14.45-4.7,17.65
			c-1.34-3.19-4.61-11.55-4.7-17.65c0-0.35-0.29-0.63-0.64-0.63c0,0-0.01,0-0.01,0c-0.35,0-0.63,0.29-0.63,0.65
			c0.12,7.99,5.36,19.41,5.41,19.52C34.83,127.8,35.05,127.93,35.28,127.93z"/>
		<linearGradient id="SVGID_9_" gradientUnits="userSpaceOnUse" x1="88.721" y1="-13.0116" x2="-23.7075" y2="133.8167">
			<stop  offset="0" style="stop-color:#B33C8A"/>
			<stop  offset="1" style="stop-color:#EE4F86"/>
		</linearGradient>
		<path class="st8" d="M34.03,58.95l-1.78,8.57c-0.09,0.38,0.12,0.77,0.49,0.9c0.09,0.03,0.18,0.05,0.28,0.05
			c0.27,0,0.52-0.14,0.62-0.35l7.87-12.08c0.19-0.29,0.21-0.66,0.05-0.96c-0.16-0.3-0.47-0.48-0.81-0.48h-4.61l1.86-8.16
			c0-0.01,0-0.01,0-0.02c0.08-0.41-0.17-0.81-0.56-0.91c-0.33-0.08-0.66,0.06-0.81,0.34L28.87,57.5c-0.19,0.29-0.21,0.66-0.05,0.96
			c0.16,0.3,0.47,0.48,0.81,0.48H34.03z M36.12,48.9l-1.41,6.19c-0.04,0.19,0,0.39,0.12,0.54c0.12,0.15,0.3,0.24,0.5,0.24h4.76
			l-6.05,9.29l1.39-6.71c0.04-0.19-0.01-0.38-0.13-0.53c-0.12-0.15-0.3-0.24-0.5-0.24h-4.52L36.12,48.9z"/>
	</g>
</g>
<g id="Layer_2">
</g>
</svg>
