<svg id="Layer_1" data-name="Layer 1" xmlns="http://www.w3.org/2000/svg" xmlns:xlink="http://www.w3.org/1999/xlink" viewBox="0 0 459.37 141"><defs><style>.cls-1{fill:url(#linear-gradient);}.cls-2{fill:url(#linear-gradient-2);}.cls-3{fill:url(#linear-gradient-3);}.cls-4{fill:url(#linear-gradient-4);}.cls-5{fill:url(#linear-gradient-5);}.cls-6{fill:url(#linear-gradient-6);}.cls-7{fill:url(#linear-gradient-7);}.cls-8{fill:url(#linear-gradient-8);}.cls-9{fill:url(#linear-gradient-9);}.cls-10{fill:url(#linear-gradient-10);}.cls-11{fill:url(#linear-gradient-11);}.cls-12{fill:url(#linear-gradient-12);}.cls-13{fill:url(#linear-gradient-13);}.cls-14{fill:url(#linear-gradient-14);}.cls-15{fill:url(#linear-gradient-15);}.cls-16{fill:url(#linear-gradient-16);}.cls-17{fill:url(#linear-gradient-17);}.cls-18{fill:url(#linear-gradient-18);}.cls-19{fill:url(#linear-gradient-19);}.cls-20{fill:url(#linear-gradient-20);}.cls-21{fill:url(#linear-gradient-21);}.cls-22{fill:url(#linear-gradient-22);}</style><linearGradient id="linear-gradient" x1="481.92" y1="143.7" x2="374.89" y2="3.92" gradientTransform="matrix(1, 0, 0, -1, 0, 141.89)" gradientUnits="userSpaceOnUse"><stop offset="0" stop-color="#b33c8a"/><stop offset="1" stop-color="#ee4f86"/></linearGradient><linearGradient id="linear-gradient-2" x1="452.55" y1="166.19" x2="345.51" y2="26.41" xlink:href="#linear-gradient"/><linearGradient id="linear-gradient-3" x1="471.29" y1="151.84" x2="364.26" y2="12.05" xlink:href="#linear-gradient"/><linearGradient id="linear-gradient-4" x1="470.42" y1="152.51" x2="363.39" y2="12.72" xlink:href="#linear-gradient"/><linearGradient id="linear-gradient-5" x1="466.37" y1="155.61" x2="359.34" y2="15.82" xlink:href="#linear-gradient"/><linearGradient id="linear-gradient-6" x1="506.31" y1="125.03" x2="399.27" y2="-14.76" xlink:href="#linear-gradient"/><linearGradient id="linear-gradient-7" x1="503.34" y1="127.3" x2="396.3" y2="-12.48" xlink:href="#linear-gradient"/><linearGradient id="linear-gradient-8" x1="502.02" y1="128.31" x2="394.98" y2="-11.47" xlink:href="#linear-gradient"/><linearGradient id="linear-gradient-9" x1="475.65" y1="148.51" x2="368.61" y2="8.72" xlink:href="#linear-gradient"/><linearGradient id="linear-gradient-10" x1="141.54" y1="81.55" x2="4.1" y2="81.55" xlink:href="#linear-gradient"/><linearGradient id="linear-gradient-11" x1="141.54" y1="41.44" x2="4.1" y2="41.44" xlink:href="#linear-gradient"/><linearGradient id="linear-gradient-12" x1="141.54" y1="29.69" x2="4.1" y2="29.69" xlink:href="#linear-gradient"/><linearGradient id="linear-gradient-13" x1="141.54" y1="100.81" x2="4.1" y2="100.81" xlink:href="#linear-gradient"/><linearGradient id="linear-gradient-14" x1="141.54" y1="63.46" x2="4.1" y2="63.46" xlink:href="#linear-gradient"/><linearGradient id="linear-gradient-15" x1="306.48" y1="29.38" x2="193.9" y2="29.38" xlink:href="#linear-gradient"/><linearGradient id="linear-gradient-16" x1="306.48" y1="29.39" x2="193.9" y2="29.39" xlink:href="#linear-gradient"/><linearGradient id="linear-gradient-17" x1="306.48" y1="70.5" x2="193.9" y2="70.5" xlink:href="#linear-gradient"/><linearGradient id="linear-gradient-18" x1="306.48" y1="100.09" x2="193.9" y2="100.09" xlink:href="#linear-gradient"/><linearGradient id="linear-gradient-19" x1="306.48" y1="87.38" x2="193.9" y2="87.38" xlink:href="#linear-gradient"/><linearGradient id="linear-gradient-20" x1="306.48" y1="96.24" x2="193.9" y2="96.24" xlink:href="#linear-gradient"/><linearGradient id="linear-gradient-21" x1="306.48" y1="121.41" x2="193.9" y2="121.41" xlink:href="#linear-gradient"/><linearGradient id="linear-gradient-22" x1="306.48" y1="64.64" x2="193.9" y2="64.64" xlink:href="#linear-gradient"/></defs><title>Artboard 1</title><g id="Layer_1-2" data-name="Layer 1"><path class="cls-1" d="M443.13,65.73a3.81,3.81,0,0,0-3.26-1.83,5.4,5.4,0,0,0-2.67.79.62.62,0,0,0-.22.83.61.61,0,0,0,.83.22,4.14,4.14,0,0,1,2.06-.62,2.61,2.61,0,0,1,2.26,1.29c1.26,1.9,3.19,8.72-6.06,31h-4.26c1.6-7.55,5-25.41,4.58-41-.47-18.71-7.87-27.77-11.21-28.73a.59.59,0,0,0-.32-.09h-.2a.59.59,0,0,0-.32.09c-3.34,1-10.74,10-11.2,28.73-.39,15.57,3,33.43,4.58,41h-4.26c-9.24-22.23-7.32-29-6.06-30.95a2.62,2.62,0,0,1,2.26-1.29,4.24,4.24,0,0,1,2.06.62.6.6,0,0,0,.83-.22.61.61,0,0,0-.22-.83,5.46,5.46,0,0,0-2.67-.79,3.79,3.79,0,0,0-3.26,1.83c-3,4.44-.81,15.89,6,32.27-.37,1.4-.69,2.6-1,3.52a2.42,2.42,0,0,0,2.32,3.06h22a2.4,2.4,0,0,0,1.92-1,2.36,2.36,0,0,0,.4-2.1c-.26-.93-.58-2.12-.95-3.52C443.94,81.63,446.09,70.17,443.13,65.73Zm-28.78-9.31c.49-19.42,8.49-27.22,10.41-27.61,1.92.4,9.92,8.19,10.41,27.61.4,15.85-3.28,34.66-4.58,40.8H418.93C417.63,91.08,414,72.27,414.35,56.42Zm-.57,47h0a1.2,1.2,0,0,1-1.15-1.52c.25-.87.54-2,.89-3.27h4.17c-.31,1.15-.58,2.15-.8,3a2.41,2.41,0,0,0,.24,1.84Zm15.1,0h-9.67a1.19,1.19,0,0,1-.95-.48,1.15,1.15,0,0,1-.2-1c.25-.87.54-2,.88-3.27H430.6c.34,1.29.64,2.4.88,3.27a1.15,1.15,0,0,1-.2,1,1.25,1.25,0,0,1-.95.48Zm7.81-.48a1.19,1.19,0,0,1-.95.48h-3.33a2.37,2.37,0,0,0,.25-1.84c-.22-.8-.49-1.8-.8-3H436c.35,1.29.65,2.4.89,3.27A1.18,1.18,0,0,1,436.69,102.89Z"/><path class="cls-2" d="M399.5,24.25a.6.6,0,0,0-.82.25c-5.44,10.28-7.95,22.69-7.44,36.87a119,119,0,0,0,1.17,12.73.6.6,0,0,0,.6.52h.09a.59.59,0,0,0,.51-.68,116.81,116.81,0,0,1-1.16-12.61c-.5-14,2-26.16,7.31-36.24A.62.62,0,0,0,399.5,24.25Z"/><path class="cls-3" d="M394.59,79.8a.61.61,0,0,0-1.19.22c1.25,6.65,2.81,12.56,4,17a.6.6,0,0,0,.58.44h.16a.62.62,0,0,0,.42-.76C397.38,92.28,395.83,86.4,394.59,79.8Z"/><path class="cls-4" d="M435.24,8.29a22.7,22.7,0,0,0-10.38-2.53h-.2A22.15,22.15,0,0,0,416,7.5a27.7,27.7,0,0,0-6.6,3.78.63.63,0,0,0-.11.86.62.62,0,0,0,.86.12,25.75,25.75,0,0,1,6.31-3.64A21.18,21.18,0,0,1,424.66,7h.2a21.53,21.53,0,0,1,9.84,2.4c16.3,8,23.71,26.11,22,53.88a.61.61,0,0,0,.57.64h0a.61.61,0,0,0,.61-.57C459.63,35.42,451.78,16.38,435.24,8.29Z"/><path class="cls-5" d="M425,17.29h0c-9.58,0-17.95,10.86-21.33,27.64a.59.59,0,0,0,.48.71h.12a.6.6,0,0,0,.59-.48C408.15,29,416.05,18.5,425,18.5s16.51,10.22,19.82,26.67a.6.6,0,0,0,.71.47.61.61,0,0,0,.48-.71C442.61,27.89,434.57,17.29,425,17.29Z"/><path class="cls-6" d="M456,75.75a.6.6,0,0,0-.68.51c-.82,5.51-2,11.19-3.34,16.87a.59.59,0,0,0,.45.73l.14,0a.61.61,0,0,0,.59-.46c1.41-5.72,2.53-11.43,3.36-17A.6.6,0,0,0,456,75.75Z"/><path class="cls-7" d="M435.19,108h0a.61.61,0,0,0-.61.59c-.3,10.2-7.09,24.24-9.8,29.47-2.7-5.22-9.51-19.3-9.81-29.47a.64.64,0,0,0-.62-.59.61.61,0,0,0-.59.63c.32,11,8,26.38,10.37,30.82l.11.2,0,0a.65.65,0,0,0,.16.18l0,0s0,0,0,0a.58.58,0,0,0,.28.07h0a.55.55,0,0,0,.28-.07s0,0,0,0l0,0a.58.58,0,0,0,.17-.18l0,0,.1-.18c2.35-4.44,10.05-19.78,10.38-30.84A.6.6,0,0,0,435.19,108Z"/><path class="cls-8" d="M424.76,127.56a.6.6,0,0,0,.54-.34c.05-.09,5-11,5.15-18.57a.62.62,0,0,0-.6-.62h0a.62.62,0,0,0-.61.6c-.08,5.76-3.19,13.76-4.47,16.8-1.28-3-4.39-11-4.47-16.8a.61.61,0,0,0-.61-.6h0a.61.61,0,0,0-.6.62c.11,7.61,5.1,18.48,5.15,18.58A.63.63,0,0,0,424.76,127.56Z"/><path class="cls-9" d="M423.57,61.89,421.88,70a.72.72,0,0,0,.46.86.81.81,0,0,0,.27,0,.65.65,0,0,0,.59-.33l7.49-11.5a.92.92,0,0,0,.05-.92.88.88,0,0,0-.77-.46h-4.39L427.35,50v0a.75.75,0,0,0-.53-.87.68.68,0,0,0-.77.32l-7.39,11.1a.9.9,0,0,0-.05.91.88.88,0,0,0,.77.46h4.19Zm2-9.57-1.34,5.89a.61.61,0,0,0,.11.51.6.6,0,0,0,.48.23h4.53l-5.76,8.85,1.32-6.39a.61.61,0,0,0-.6-.73H420Z"/></g><g id="Layer_1-3" data-name="Layer 1"><path class="cls-10" d="M98.06,70a15.86,15.86,0,0,0,8.38,2.27h.15A15.86,15.86,0,0,0,115,70a17.19,17.19,0,0,0,3.24-2.56A16.08,16.08,0,0,0,123,55.64a15.4,15.4,0,0,0-1.41-6.82.64.64,0,0,0-1.16.54,12.86,12.86,0,0,1,.74,2,15,15,0,0,1-5,1.58c-.6-2.07-.88-3.13-.88-3.13a.63.63,0,0,0-.56-.47.64.64,0,0,0-.63.37,25.46,25.46,0,0,0-1.42,3.71c-12.44,1.22-19-1.09-21.19-2.15a1.09,1.09,0,0,0-.39-.14.63.63,0,0,0-.68.48,16.36,16.36,0,0,0-.44,4,16.12,16.12,0,0,0,4.83,11.77A17.16,17.16,0,0,0,98.06,70ZM91.5,52.65c3.19,1.38,9.92,3.2,21.79,2a.63.63,0,0,0,.56-.54,11.89,11.89,0,0,1,.71-2.2c.15.53.34,1.19.57,2a.63.63,0,0,0,.71.45,18.39,18.39,0,0,0,5.67-1.64,14.63,14.63,0,0,1,.24,3,14.82,14.82,0,0,1-4.46,10.86,16.16,16.16,0,0,1-3,2.38A14.65,14.65,0,0,1,106.58,71h-.15a14.63,14.63,0,0,1-7.71-2.08,16.16,16.16,0,0,1-3-2.38,14.85,14.85,0,0,1-4.46-10.88A16.06,16.06,0,0,1,91.5,52.65Z"/><path class="cls-11" d="M34.22,98.08H29.61l1.86-8.17v0a.77.77,0,0,0-.56-.91.72.72,0,0,0-.82.34L22.34,101a1,1,0,0,0-.05,1,.91.91,0,0,0,.81.48h4.4L25.72,111a.77.77,0,0,0,.49.9.92.92,0,0,0,.28,0,.68.68,0,0,0,.62-.35L35,99.51a1,1,0,0,0,.05-1A.92.92,0,0,0,34.22,98.08Zm-6.7,10.56,1.39-6.72a.64.64,0,0,0-.63-.77H23.77l5.83-8.77-1.41,6.19a.65.65,0,0,0,.12.54.64.64,0,0,0,.5.24h4.76Z"/><path class="cls-12" d="M126.25,101.72a.64.64,0,0,0-.85.29l-2,4.17a.67.67,0,0,0-.06.28v15.65a.64.64,0,1,0,1.28,0v-15.5l2-4A.66.66,0,0,0,126.25,101.72Z"/><path class="cls-13" d="M53.26,52.63a18.28,18.28,0,0,0,3.42,5.81,14.28,14.28,0,0,0,21.86,0,17.67,17.67,0,0,0,3.15-5c1.69-2.21,3.48-7.46,3.48-13,0-13.18-11.68-15.25-20.2-16.75l-1.77-.32c-3.68-.69-3.36-3.66-3.31-4a.64.64,0,0,0-1.16-.46c-3.43,5-13.81,20-5.49,33.61C53.25,52.56,53.25,52.6,53.26,52.63Zm24.33,5a13,13,0,0,1-20,0,17.08,17.08,0,0,1-3.09-5.18.52.52,0,0,0,0-.17c-.16-.87-.7-11.87,2.78-14.71a32.66,32.66,0,0,0,9.83,2.37,53,53,0,0,0,12.7-.21c.46,1.92,1.83,8.41.69,13.17A16.57,16.57,0,0,1,77.59,57.6ZM58.78,21.12A4.81,4.81,0,0,0,63,24.62l1.78.32c8.53,1.51,19.15,3.39,19.15,15.5a26.63,26.63,0,0,1-1.66,9.22,40.63,40.63,0,0,0-1.3-10.84.63.63,0,0,0-.73-.46,51.22,51.22,0,0,1-12.94.29,30.43,30.43,0,0,1-9.74-2.41.62.62,0,0,0-.63,0c-3.31,2.16-3.81,9.37-3.75,13.45C51,45.26,48.85,36.27,58.78,21.12Z"/><path class="cls-14" d="M127.76,80.69c-.49-.49-1-.93-1.46-1.35V54.54c0-9.86-6.19-20.47-19.79-20.47S86.72,44.68,86.72,54.54V69.88c-6-4.45-12-4.37-20.39-4.24l-1.94,0a33.51,33.51,0,0,0-10,1.21.62.62,0,0,0-.38,0,3,3,0,0,1-2.62-.62c-1.09-.88-2.38-3.08-2.34-8.5.07-7.88-2-14.2-6.08-18.28-3.49-3.52-8.36-5.3-14.49-5.3s-11,1.78-14.49,5.3c-4,4.08-6.14,10.4-6.08,18.28,0,5.42-1.25,7.62-2.34,8.5a3.1,3.1,0,0,1-2.68.61.64.64,0,0,0-.57.18.66.66,0,0,0-.18.57c.83,4.47,5.6,6,9.43,6a12.61,12.61,0,0,0,8.55-3.31.42.42,0,0,0,.1-.17,15.88,15.88,0,0,0,8.17,2.15A16.05,16.05,0,0,0,36.69,70a.57.57,0,0,0,.13.21,12.47,12.47,0,0,0,7.74,3.26A18.75,18.75,0,0,0,43,75.78a17.48,17.48,0,0,0-5-1.45l-.07,0a.71.71,0,0,0-.29,0,17.69,17.69,0,0,0-1.93-.11c-1.9,0-3.66,0-5.31,0-10.07-.16-16.14-.26-23,6.57A21,21,0,0,0,1.27,95.79v7.64a3,3,0,0,0,1.65,2.69v16a.64.64,0,1,0,1.28,0V106.54c2.49.65,6.59,1.24,8.06,1.44v14.13a.64.64,0,1,0,1.28,0V106.46a.67.67,0,0,0-.06-.28l-2-4.17a.67.67,0,0,0-.87-.29.63.63,0,0,0-.29.85l2,4v.08a70.41,70.41,0,0,1-8.51-1.61,1.73,1.73,0,0,1-1.2-1.66V95.77a19.64,19.64,0,0,1,5.78-14.2A18.77,18.77,0,0,1,19.2,75.76a10.08,10.08,0,0,0,9.43,6.34h.25a10.08,10.08,0,0,0,9.26-6.47,16.42,16.42,0,0,1,4.23,1.25,29.81,29.81,0,0,0-3.23,13.27v3.46a3.1,3.1,0,0,0,1.71,2.78v25.7a.64.64,0,0,0,1.28,0V96.83c2.6.68,6.9,1.3,8.42,1.51v23.77a.64.64,0,1,0,1.28,0V94.9a.67.67,0,0,0-.06-.28l-2.12-4.33a.64.64,0,0,0-1.14.56L50.57,95v2a73.84,73.84,0,0,1-8.87-1.67,1.83,1.83,0,0,1-1.27-1.75V90.17c0-6.36,2.47-13.27,6-16.81,5.43-5.43,10.32-6.44,18-6.49l2,0c9.84-.15,15.78-.25,22.49,6.45a16.11,16.11,0,0,1,2.57,3.48v0s0,0,0,0a25.57,25.57,0,0,1,2.08,4.84l0,.08a29.45,29.45,0,0,1,1.19,5.92h0c.08.82.12,1.63.12,2.44v3.46a1.84,1.84,0,0,1-1.27,1.75,71.57,71.57,0,0,1-8.87,1.67V95l2.06-4.19a.64.64,0,1,0-1.14-.56l-2.12,4.33a.67.67,0,0,0-.06.28v27.22a.64.64,0,0,0,1.28,0V98.34c1.52-.21,5.83-.83,8.42-1.51v25.28a.64.64,0,0,0,1.28,0V96.41a3.09,3.09,0,0,0,1.71-2.78V90.22L105.93,107v15.14a.64.64,0,1,0,1.28,0V107l13.9-23.83a.63.63,0,0,0-.16-.82l-4.09-3.2a.64.64,0,0,0-.79,1L119.72,83l-11.43,19.59c4.74-18.73,6.26-24.84,6.63-26.94a18.8,18.8,0,0,1,12,6,19.63,19.63,0,0,1,5.77,14.2v26.33a.64.64,0,0,0,1.28,0V95.79A21.13,21.13,0,0,0,127.76,80.69Zm-98.93.16a8.72,8.72,0,0,1-8.33-5.24,78.54,78.54,0,0,1,9.87-.21c1.66,0,3.43,0,5.33,0,.37,0,.74,0,1.11.06A8.74,8.74,0,0,1,28.83,80.85Zm-8.13-12a16.16,16.16,0,0,1-3-2.38,14.85,14.85,0,0,1-4.46-10.88,14.06,14.06,0,0,1,3.29-9.41c2.68,4.54,11.15,15.64,27.19,10.3a14.64,14.64,0,0,1-4.51,10A14.76,14.76,0,0,1,28.42,71,14.66,14.66,0,0,1,20.7,68.87Zm17.06.49a16.59,16.59,0,0,0,2.35-2A16.12,16.12,0,0,0,45,55.62a.64.64,0,0,0-.67-.64.61.61,0,0,0-.26,0C27.67,61,19.43,48.82,17.29,45l-.11-.2a.63.63,0,0,0-1-.09A15.43,15.43,0,0,0,12,55.62,16.12,16.12,0,0,0,16.8,67.39a17.77,17.77,0,0,0,2.38,2,11.45,11.45,0,0,1-7.59,2.88c-3.08,0-6.83-1.11-7.95-4.16a4.3,4.3,0,0,0,2.74-1c1.91-1.54,2.85-4.74,2.81-9.5C9.13,50.1,11.1,44.09,14.9,40.26c3.24-3.27,7.81-4.92,13.59-4.92S38.84,37,42.08,40.26c3.8,3.83,5.77,9.83,5.71,17.37,0,4.76.91,8,2.81,9.5a4.5,4.5,0,0,0,1.2.69,22.89,22.89,0,0,0-6.09,4.44h-.32a11.48,11.48,0,0,1-7.62-2.9S37.76,69.37,37.76,69.36ZM88,70.89V54.54c0-9.24,5.79-19.19,18.51-19.19S125,45.3,125,54.54V78.3a19.74,19.74,0,0,0-10.43-4,.58.58,0,0,0-.26,0,85.29,85.29,0,0,0-9.55-.18c-1.65,0-3.42,0-5.31,0a17.38,17.38,0,0,0-7.24,1.59,17.65,17.65,0,0,0-2.5-3.29C89.14,71.89,88.57,71.38,88,70.89Zm8,16.55a30.57,30.57,0,0,0-1.12-5.62L97,80.12a.64.64,0,1,0-.79-1l-1.8,1.41a27.87,27.87,0,0,0-1.56-3.64,16.1,16.1,0,0,1,5.28-1.37c.33,2,1.82,8,6.65,27.05Zm10.56,16.77c-2.8-11.08-6.45-25.64-7.15-28.76h.1c1.91,0,3.68,0,5.33,0,3.4-.06,6.27-.09,8.84.12C112.92,78.74,109.3,93.19,106.51,104.21Z"/></g><g id="Layer_1-4" data-name="Layer 1"><path class="cls-15" d="M225.34,94.52a.69.69,0,0,0-.82-.35.82.82,0,0,0-.59,1v0l3.18,13.93H219a1,1,0,0,0-.91.55,1.07,1.07,0,0,0,0,1.09L231,130.45a.74.74,0,0,0,.68.42,1.26,1.26,0,0,0,.27,0,.81.81,0,0,0,.51-.92l-3-14.62h7.77a1.06,1.06,0,0,0,.92-.55,1.09,1.09,0,0,0-.06-1.1Zm3.37,19.59a.63.63,0,0,0-.46.22.58.58,0,0,0-.12.49l2.78,13.36-11.69-17.94h8.63a.58.58,0,0,0,.46-.22.56.56,0,0,0,.11-.5L225.56,97,237,114.11Z"/><path class="cls-16" d="M305,109.62a1,1,0,0,0-.92-.55h-8.13l3.18-13.93h0a.81.81,0,0,0-.57-1,.72.72,0,0,0-.83.35L285,113.62a1.08,1.08,0,0,0-.05,1.1,1,1,0,0,0,.91.55h7.77l-3,14.6a.79.79,0,0,0,.51.94.92.92,0,0,0,.28.05.72.72,0,0,0,.64-.36l12.88-19.78A1.09,1.09,0,0,0,305,109.62Zm-12.83,18.57,2.78-13.37a.59.59,0,0,0-.58-.71h-8.26L297.49,97l-2.87,12.58a.63.63,0,0,0,.11.5.58.58,0,0,0,.46.22h8.63Z"/><path class="cls-17" d="M286.1,69.58a5.18,5.18,0,0,0-2.77-2.91c-.18-.09-.36-.12-.54-.19l.56-.21a5.24,5.24,0,0,0-.55-10,5.25,5.25,0,0,0,1.88-2.23,5.25,5.25,0,0,0-3.51-7.22,5.2,5.2,0,0,0,1.66-2.05,5.15,5.15,0,0,0,.1-4,5.27,5.27,0,0,0-6.78-3l-2.25.86-.32.17-9-23a6.11,6.11,0,0,0-3.27-3.41,6.18,6.18,0,0,0-4.72-.1l-23.8,9.29a6.11,6.11,0,0,0-3.41,3.27,6.18,6.18,0,0,0-.1,4.72L237,49.35a11.83,11.83,0,0,0-3.51.81.58.58,0,0,0-.35.71c1.37,4.67,2.59,8.79,3.66,12.44,6.37,21.64,7.88,26.78,9.68,29.87a18.69,18.69,0,0,0,2.08,2.91A7.68,7.68,0,0,1,250,98.26c1.16,2.87,1.47,9.76,1.47,32a.59.59,0,0,0,1.18,0c0-22.71-.33-29.39-1.56-32.46a8.56,8.56,0,0,0-1.61-2.49,18.89,18.89,0,0,1-2-2.75c-1.72-3-3.23-8.08-9.56-29.61-1-3.5-2.2-7.46-3.51-11.91a8,8,0,0,1,6.66.29c5.28,2.87,7.22,12,8.27,17,.06.32.12.6.19.88-.37-.11-.74-.22-1.12-.3a.58.58,0,1,0-.26,1.14,15.85,15.85,0,0,1,12,14.32.49.49,0,0,0,0,.24,13,13,0,0,1-.2,2.72.57.57,0,0,0,.45.68h.11a.56.56,0,0,0,.57-.47,13.4,13.4,0,0,0,.25-2.69l16.21-6.32a.62.62,0,0,0,.21-.15,4,4,0,0,0,.59-.17l2.77-1.07c1.12,7.59-1.2,11.46-3.66,15.54-2,3.33-4.09,6.79-4.09,12.34v25.26a.59.59,0,1,0,1.17,0V105c0-5.23,1.91-8.39,3.92-11.74,2.48-4.12,5-8.39,3.78-16.57l.85-.33A5.26,5.26,0,0,0,286.1,69.58Zm-.82-9.68a4.09,4.09,0,0,1-.07,3.13,4,4,0,0,1-2.28,2.15l-5.61,2.16a4.09,4.09,0,1,1-2.95-7.62L280,57.56a4.14,4.14,0,0,1,1.46-.27A4.09,4.09,0,0,1,285.28,59.9Zm-1.59-9.43a4.09,4.09,0,0,1-.08,3.13,4,4,0,0,1-2.27,2.16l-6.94,2.69A4.1,4.1,0,0,1,269.18,53a4,4,0,0,1,2.27-2.15l6.13-2.38h.09l.87-.33a3.9,3.9,0,0,1,1.33-.24A4.06,4.06,0,0,1,283.69,50.47ZM274.31,39.7l2.25-.86a4.1,4.1,0,0,1,5.27,2.35,4,4,0,0,1-.08,3.12,4.06,4.06,0,0,1-2.26,2.16l-1.27.48L278,47l-.83.33A4.1,4.1,0,0,1,272,45a4,4,0,0,1,.08-3.12A4.16,4.16,0,0,1,274.31,39.7ZM230.49,25.34a5,5,0,0,1,2.76-2.65l23.81-9.29a5,5,0,0,1,3.82.08,5,5,0,0,1,2.65,2.76l9,23.15a5.1,5.1,0,0,0-1.46,1.79l-8.34-21.37A3.67,3.67,0,0,0,258,17.73l-22.52,8.78a3.66,3.66,0,0,0-2.08,4.76l7.24,18.59a8.16,8.16,0,0,0-2.36-.51l-7.87-20.19A5,5,0,0,1,230.49,25.34Zm20.37,44.31c-.1-.45-.22-1-.35-1.59-1-4.94-3-14-8.29-17.39l-7.73-19.82a2.49,2.49,0,0,1,1.42-3.25l22.52-8.78a2.49,2.49,0,0,1,3.24,1.42L270.56,43h0a5.14,5.14,0,0,0,.3,2.36h0a5.24,5.24,0,0,0,3.3,3.11L271,49.73a5.19,5.19,0,0,0-2.91,2.76,5.25,5.25,0,0,0,4,7.33A5.5,5.5,0,0,0,271,61.4a5.28,5.28,0,0,0-.1,4,5.21,5.21,0,0,0,3.35,3.12A5.29,5.29,0,0,0,271.76,71l-13.15,5.13a16.61,16.61,0,0,0-1.31-1.75A17,17,0,0,0,250.86,69.65Zm8.37,7.49,12.07-4.71a5.23,5.23,0,0,0,3.05,5.69c.17.07.36.15.53.2l-13.59,5.3A16.08,16.08,0,0,0,259.23,77.14Zm18.72,0A4.08,4.08,0,1,1,275,69.51l4.74-1.84a4.09,4.09,0,0,1,2.95,7.63Z"/><path class="cls-18" d="M259,33.24a.58.58,0,0,0-.78.27l-7.69,16.08a.6.6,0,0,0,.28.78.55.55,0,0,0,.26.05.59.59,0,0,0,.53-.33L259.23,34A.6.6,0,0,0,259,33.24Z"/><path class="cls-19" d="M257.11,52.33a.58.58,0,0,0-.78.27l-1.6,3.32a.6.6,0,0,0,.28.78.55.55,0,0,0,.26,0,.58.58,0,0,0,.53-.33l1.58-3.3A.6.6,0,0,0,257.11,52.33Z"/><path class="cls-20" d="M259.05,49.64l3.57-7.47a.58.58,0,0,0-.27-.78.58.58,0,0,0-.78.28L258,49.13a.59.59,0,0,0,.53.84A.6.6,0,0,0,259.05,49.64Z"/><path class="cls-21" d="M243.58,22.05a.52.52,0,0,0,.21,0l5.05-2a.57.57,0,0,0,.33-.76.59.59,0,0,0-.76-.33l-5,2a.58.58,0,0,0-.33.76A.6.6,0,0,0,243.58,22.05Z"/><path class="cls-22" d="M267.52,75.38a2,2,0,0,0-.07,3.7,2.06,2.06,0,0,0,.81.17,2,2,0,0,0,.72-.13,2,2,0,1,0-1.46-3.74Zm1,2.64a.88.88,0,0,1-.64,0,.86.86,0,0,1-.44-.46.83.83,0,0,1,.48-1.08.8.8,0,0,1,.3-.06.84.84,0,0,1,.34.08A.86.86,0,0,1,269,77,.84.84,0,0,1,268.55,78Z"/></g></svg>