<?xml version="1.0" encoding="utf-8"?>
<!-- Generator: Adobe Illustrator 23.0.2, SVG Export Plug-In . SVG Version: 6.00 Build 0)  -->
<svg version="1.1" xmlns="http://www.w3.org/2000/svg" xmlns:xlink="http://www.w3.org/1999/xlink" x="0px" y="0px"
	 viewBox="0 0 95.12 129.86" style="enable-background:new 0 0 95.12 129.86;" xml:space="preserve">
<style type="text/css">
	.st0{fill:none;stroke:url(#SVGID_1_);stroke-width:2;stroke-linecap:round;stroke-linejoin:round;stroke-miterlimit:10;}
	.st1{fill:none;stroke:url(#SVGID_2_);stroke-width:2;stroke-linecap:round;stroke-linejoin:round;stroke-miterlimit:10;}
	.st2{fill:none;stroke:url(#SVGID_3_);stroke-width:2;stroke-linecap:round;stroke-linejoin:round;stroke-miterlimit:10;}
	.st3{fill:none;stroke:url(#SVGID_4_);stroke-width:2;stroke-linecap:round;stroke-linejoin:round;stroke-miterlimit:10;}
	.st4{fill:none;stroke:url(#SVGID_5_);stroke-width:2.0685;stroke-linecap:round;stroke-miterlimit:10;}
	.st5{fill:none;stroke:url(#SVGID_6_);stroke-width:2.0685;stroke-linecap:round;stroke-miterlimit:10;}
	.st6{fill:none;stroke:url(#SVGID_7_);stroke-width:2;stroke-linecap:round;stroke-linejoin:round;stroke-miterlimit:10;}
	.st7{fill:none;stroke:url(#SVGID_8_);stroke-width:2;stroke-linecap:round;stroke-linejoin:round;stroke-miterlimit:10;}
	.st8{fill:url(#SVGID_9_);}
	.st9{fill:url(#SVGID_10_);}
	.st10{fill:url(#SVGID_11_);}
	.st11{fill:none;stroke:url(#SVGID_12_);stroke-width:2;stroke-linecap:round;stroke-miterlimit:10;}
	.st12{fill:none;stroke:url(#SVGID_13_);stroke-width:2;stroke-linecap:round;stroke-linejoin:round;stroke-miterlimit:10;}
	.st13{fill:none;stroke:url(#SVGID_14_);stroke-width:2;stroke-linecap:round;stroke-linejoin:round;stroke-miterlimit:10;}
	.st14{fill:none;stroke:url(#SVGID_15_);stroke-width:2;stroke-linecap:round;stroke-linejoin:round;stroke-miterlimit:10;}
	.st15{fill:none;stroke:url(#SVGID_16_);stroke-width:2;stroke-linecap:round;stroke-linejoin:round;stroke-miterlimit:10;}
	.st16{fill:none;stroke:url(#SVGID_17_);stroke-width:2.0685;stroke-linecap:round;stroke-linejoin:round;stroke-miterlimit:10;}
	.st17{fill:none;stroke:url(#SVGID_18_);stroke-width:2.0685;stroke-linecap:round;stroke-miterlimit:10;}
	.st18{fill:none;stroke:url(#SVGID_22_);stroke-width:2.0685;stroke-linecap:round;stroke-linejoin:round;stroke-miterlimit:10;}
	.st19{fill:none;stroke:url(#SVGID_23_);stroke-width:2.0685;stroke-linecap:round;stroke-miterlimit:10;}
	.st20{fill:none;stroke:url(#SVGID_24_);stroke-width:2.0685;stroke-linecap:round;stroke-miterlimit:10;}
	
		.st21{clip-path:url(#SVGID_26_);fill:none;stroke:url(#SVGID_27_);stroke-width:2.0685;stroke-linecap:round;stroke-miterlimit:10;}
	
		.st22{clip-path:url(#SVGID_26_);fill:none;stroke:url(#SVGID_28_);stroke-width:2.0685;stroke-linecap:round;stroke-miterlimit:10;}
	
		.st23{clip-path:url(#SVGID_26_);fill:none;stroke:url(#SVGID_29_);stroke-width:2.0685;stroke-linecap:round;stroke-miterlimit:10;}
	
		.st24{clip-path:url(#SVGID_26_);fill:none;stroke:url(#SVGID_30_);stroke-width:2.0685;stroke-linecap:round;stroke-miterlimit:10;}
	
		.st25{clip-path:url(#SVGID_26_);fill:none;stroke:url(#SVGID_31_);stroke-width:2.0685;stroke-linecap:round;stroke-miterlimit:10;}
	
		.st26{clip-path:url(#SVGID_26_);fill:none;stroke:url(#SVGID_32_);stroke-width:2.0685;stroke-linecap:round;stroke-miterlimit:10;}
	
		.st27{clip-path:url(#SVGID_26_);fill:none;stroke:url(#SVGID_33_);stroke-width:2.0685;stroke-linecap:round;stroke-miterlimit:10;}
	
		.st28{clip-path:url(#SVGID_26_);fill:none;stroke:url(#SVGID_34_);stroke-width:2.0685;stroke-linecap:round;stroke-miterlimit:10;}
	
		.st29{clip-path:url(#SVGID_26_);fill:none;stroke:url(#SVGID_35_);stroke-width:2.0685;stroke-linecap:round;stroke-miterlimit:10;}
	
		.st30{clip-path:url(#SVGID_26_);fill:none;stroke:url(#SVGID_36_);stroke-width:2.0685;stroke-linecap:round;stroke-miterlimit:10;}
	
		.st31{clip-path:url(#SVGID_26_);fill:none;stroke:url(#SVGID_37_);stroke-width:2.0685;stroke-linecap:round;stroke-miterlimit:10;}
	
		.st32{clip-path:url(#SVGID_26_);fill:none;stroke:url(#SVGID_38_);stroke-width:2.0685;stroke-linecap:round;stroke-miterlimit:10;}
	
		.st33{clip-path:url(#SVGID_26_);fill:none;stroke:url(#SVGID_39_);stroke-width:2.0685;stroke-linecap:round;stroke-miterlimit:10;}
	
		.st34{clip-path:url(#SVGID_26_);fill:none;stroke:url(#SVGID_40_);stroke-width:2.0685;stroke-linecap:round;stroke-miterlimit:10;}
	
		.st35{clip-path:url(#SVGID_26_);fill:none;stroke:url(#SVGID_41_);stroke-width:2.0685;stroke-linecap:round;stroke-miterlimit:10;}
	
		.st36{clip-path:url(#SVGID_26_);fill:none;stroke:url(#SVGID_42_);stroke-width:2.0685;stroke-linecap:round;stroke-miterlimit:10;}
	.st37{fill:none;stroke:url(#SVGID_44_);stroke-width:2.0685;stroke-linecap:round;stroke-miterlimit:10;}
	.st38{fill:none;stroke:url(#SVGID_45_);stroke-width:2.0685;stroke-linecap:round;stroke-linejoin:round;stroke-miterlimit:10;}
	.st39{fill:none;stroke:url(#SVGID_46_);stroke-width:2.0685;stroke-linecap:round;stroke-linejoin:round;stroke-miterlimit:10;}
	.st40{fill:none;stroke:url(#SVGID_47_);stroke-width:2.0685;stroke-linecap:round;stroke-miterlimit:10;}
	.st41{fill:none;stroke:url(#SVGID_48_);stroke-width:2.0685;stroke-linecap:round;stroke-miterlimit:10;}
	.st42{fill:none;stroke:url(#SVGID_49_);stroke-width:2.0685;stroke-linecap:round;stroke-miterlimit:10;}
	.st43{fill:none;stroke:url(#SVGID_50_);stroke-width:2.0685;stroke-linecap:round;stroke-linejoin:bevel;stroke-miterlimit:10;}
	.st44{fill:none;stroke:url(#SVGID_51_);stroke-width:2.0685;stroke-linecap:round;stroke-linejoin:bevel;stroke-miterlimit:10;}
	.st45{fill:none;stroke:url(#SVGID_52_);stroke-width:2.0685;stroke-linecap:round;stroke-linejoin:round;stroke-miterlimit:10;}
	.st46{fill:none;stroke:url(#SVGID_53_);stroke-width:2.0685;stroke-linecap:round;stroke-linejoin:round;stroke-miterlimit:10;}
	.st47{fill:none;stroke:url(#SVGID_54_);stroke-width:2.0685;stroke-linecap:round;stroke-linejoin:round;stroke-miterlimit:10;}
	.st48{fill:none;stroke:url(#SVGID_55_);stroke-width:2.0685;stroke-linecap:round;stroke-linejoin:round;stroke-miterlimit:10;}
	.st49{fill:none;stroke:url(#SVGID_56_);stroke-width:2.0685;stroke-linecap:round;stroke-linejoin:round;stroke-miterlimit:10;}
	.st50{fill:none;stroke:url(#SVGID_57_);stroke-width:2.0685;stroke-linecap:round;stroke-linejoin:round;stroke-miterlimit:10;}
	.st51{fill:none;stroke:url(#SVGID_58_);stroke-width:2.0685;stroke-linecap:round;stroke-linejoin:round;stroke-miterlimit:10;}
	.st52{fill:none;stroke:url(#SVGID_59_);stroke-width:2.0685;stroke-linecap:round;stroke-linejoin:round;stroke-miterlimit:10;}
	.st53{fill:none;stroke:url(#SVGID_60_);stroke-width:2.0685;stroke-linecap:round;stroke-linejoin:round;stroke-miterlimit:10;}
	.st54{fill:none;stroke:url(#SVGID_61_);stroke-width:2.0685;stroke-linecap:round;stroke-linejoin:round;stroke-miterlimit:10;}
	.st55{fill:none;stroke:url(#SVGID_62_);stroke-width:2.0685;stroke-linecap:round;stroke-linejoin:round;stroke-miterlimit:10;}
	.st56{fill:none;stroke:url(#SVGID_63_);stroke-width:2.0685;stroke-linecap:round;stroke-linejoin:round;stroke-miterlimit:10;}
	
		.st57{clip-path:url(#SVGID_65_);fill:none;stroke:url(#SVGID_66_);stroke-width:2.0685;stroke-linecap:round;stroke-linejoin:round;stroke-miterlimit:10;}
	.st58{fill:none;stroke:url(#SVGID_68_);stroke-width:2.0685;stroke-linecap:round;stroke-linejoin:round;stroke-miterlimit:10;}
	.st59{fill:none;stroke:url(#SVGID_69_);stroke-width:2.0685;stroke-linecap:round;stroke-linejoin:round;stroke-miterlimit:10;}
	
		.st60{clip-path:url(#SVGID_71_);fill:none;stroke:url(#SVGID_72_);stroke-width:2.0685;stroke-linecap:round;stroke-linejoin:round;stroke-miterlimit:10;}
	.st61{fill:none;stroke:url(#SVGID_74_);stroke-width:2.0685;stroke-linecap:round;stroke-linejoin:round;stroke-miterlimit:10;}
	.st62{fill:none;stroke:url(#SVGID_75_);stroke-width:2.0685;stroke-linecap:round;stroke-linejoin:round;stroke-miterlimit:10;}
	
		.st63{clip-path:url(#SVGID_77_);fill:none;stroke:url(#SVGID_78_);stroke-width:2.0685;stroke-linecap:round;stroke-linejoin:round;stroke-miterlimit:10;}
	.st64{fill:none;stroke:url(#SVGID_80_);stroke-width:2.0685;stroke-linecap:round;stroke-linejoin:round;stroke-miterlimit:10;}
	.st65{fill:none;stroke:#67C7BF;stroke-width:2;stroke-linecap:round;stroke-linejoin:round;stroke-miterlimit:10;}
	.st66{fill:none;stroke:url(#SVGID_81_);stroke-width:2.0685;stroke-linecap:round;stroke-linejoin:round;stroke-miterlimit:10;}
	.st67{fill:none;stroke:url(#SVGID_82_);stroke-width:2.0685;stroke-linecap:round;stroke-linejoin:round;stroke-miterlimit:10;}
	.st68{fill:none;stroke:url(#SVGID_83_);stroke-width:2.0685;stroke-linecap:round;stroke-linejoin:round;stroke-miterlimit:10;}
	.st69{fill:none;stroke:url(#SVGID_84_);stroke-width:2.0685;stroke-linecap:round;stroke-linejoin:round;stroke-miterlimit:10;}
	.st70{fill:none;stroke:url(#SVGID_85_);stroke-width:2.0685;stroke-linecap:round;stroke-linejoin:round;stroke-miterlimit:10;}
	.st71{fill:none;stroke:url(#SVGID_86_);stroke-width:2.0685;stroke-linecap:round;stroke-linejoin:round;stroke-miterlimit:10;}
	.st72{fill:none;stroke:url(#SVGID_87_);stroke-width:2.0685;stroke-linecap:round;stroke-linejoin:round;stroke-miterlimit:10;}
	.st73{fill:none;stroke:url(#SVGID_88_);stroke-width:2.0685;stroke-linecap:round;stroke-linejoin:round;stroke-miterlimit:10;}
	.st74{fill:none;stroke:url(#SVGID_89_);stroke-width:2.0685;stroke-linecap:round;stroke-linejoin:round;stroke-miterlimit:10;}
	.st75{fill:none;stroke:url(#SVGID_90_);stroke-width:2.0685;stroke-linecap:round;stroke-linejoin:round;stroke-miterlimit:10;}
	.st76{fill:none;stroke:url(#SVGID_91_);stroke-width:2.0685;stroke-linecap:round;stroke-linejoin:round;stroke-miterlimit:10;}
	.st77{fill:none;stroke:url(#SVGID_92_);stroke-width:2;stroke-linecap:round;stroke-linejoin:round;stroke-miterlimit:10;}
	.st78{fill:none;stroke:url(#SVGID_93_);stroke-width:2;stroke-linecap:round;stroke-linejoin:round;stroke-miterlimit:10;}
	.st79{fill:none;stroke:url(#SVGID_94_);stroke-width:2;stroke-linecap:round;stroke-linejoin:round;stroke-miterlimit:10;}
	.st80{fill:none;stroke:url(#SVGID_95_);stroke-width:2;stroke-linecap:round;stroke-linejoin:round;stroke-miterlimit:10;}
	.st81{fill:none;stroke:url(#SVGID_96_);stroke-width:2;stroke-linecap:round;stroke-linejoin:round;stroke-miterlimit:10;}
	.st82{fill:none;stroke:url(#SVGID_97_);stroke-width:2;stroke-linecap:round;stroke-linejoin:round;stroke-miterlimit:10;}
	.st83{fill:none;stroke:url(#SVGID_98_);stroke-width:2;stroke-linecap:round;stroke-linejoin:round;stroke-miterlimit:10;}
	
		.st84{fill-rule:evenodd;clip-rule:evenodd;fill:none;stroke:url(#SVGID_99_);stroke-width:2;stroke-linecap:round;stroke-linejoin:round;stroke-miterlimit:10;}
	
		.st85{fill-rule:evenodd;clip-rule:evenodd;fill:none;stroke:url(#SVGID_100_);stroke-width:2;stroke-linecap:round;stroke-linejoin:round;stroke-miterlimit:10;}
	
		.st86{fill-rule:evenodd;clip-rule:evenodd;fill:none;stroke:url(#SVGID_101_);stroke-width:2;stroke-linecap:round;stroke-linejoin:round;stroke-miterlimit:10;}
	
		.st87{fill-rule:evenodd;clip-rule:evenodd;fill:none;stroke:url(#SVGID_102_);stroke-width:2;stroke-linecap:round;stroke-linejoin:round;stroke-miterlimit:10;}
	
		.st88{fill-rule:evenodd;clip-rule:evenodd;fill:none;stroke:url(#SVGID_103_);stroke-width:2;stroke-linecap:round;stroke-linejoin:round;stroke-miterlimit:10;}
	.st89{fill:none;stroke:url(#SVGID_104_);stroke-width:2;stroke-linecap:round;stroke-linejoin:round;stroke-miterlimit:10;}
	.st90{fill:none;stroke:url(#SVGID_105_);stroke-width:2;stroke-linecap:round;stroke-linejoin:round;stroke-miterlimit:10;}
	.st91{fill:none;stroke:url(#SVGID_106_);stroke-width:2;stroke-linecap:round;stroke-linejoin:round;stroke-miterlimit:10;}
	.st92{fill:none;stroke:url(#SVGID_107_);stroke-width:2;stroke-linecap:round;stroke-linejoin:round;stroke-miterlimit:10;}
	.st93{fill:none;stroke:url(#SVGID_108_);stroke-width:2;stroke-linecap:round;stroke-linejoin:round;stroke-miterlimit:10;}
	.st94{fill:none;stroke:url(#SVGID_109_);stroke-width:2;stroke-linecap:round;stroke-linejoin:round;stroke-miterlimit:10;}
	.st95{fill:none;stroke:url(#SVGID_110_);stroke-width:2;stroke-linecap:round;stroke-linejoin:round;stroke-miterlimit:10;}
	.st96{fill:none;stroke:url(#SVGID_111_);stroke-width:2;stroke-linecap:round;stroke-linejoin:round;stroke-miterlimit:10;}
	.st97{fill:none;stroke:url(#SVGID_112_);stroke-width:2;stroke-linecap:round;stroke-linejoin:round;stroke-miterlimit:10;}
	.st98{fill:none;stroke:url(#SVGID_113_);stroke-width:2;stroke-linecap:round;stroke-linejoin:round;stroke-miterlimit:10;}
	.st99{fill:none;stroke:url(#SVGID_114_);stroke-width:2;stroke-linecap:round;stroke-linejoin:round;stroke-miterlimit:10;}
	.st100{fill:none;stroke:url(#SVGID_115_);stroke-width:2;stroke-linecap:round;stroke-linejoin:round;stroke-miterlimit:10;}
	.st101{fill:none;stroke:url(#SVGID_116_);stroke-width:2;stroke-linecap:round;stroke-linejoin:round;stroke-miterlimit:10;}
	.st102{fill:none;stroke:#CACACA;stroke-width:0.5;stroke-miterlimit:10;}
	.st103{fill:none;stroke:#949495;stroke-width:1.0606;stroke-miterlimit:10;}
	.st104{fill:url(#SVGID_117_);}
	.st105{fill:url(#SVGID_118_);}
	.st106{fill:url(#SVGID_119_);}
	.st107{fill:url(#SVGID_120_);}
	.st108{fill:url(#SVGID_121_);}
	.st109{fill:url(#SVGID_122_);}
	.st110{fill:url(#SVGID_123_);}
	.st111{fill:url(#SVGID_124_);}
	.st112{fill:url(#SVGID_125_);}
	.st113{fill:url(#SVGID_126_);}
	.st114{fill:url(#SVGID_127_);}
	.st115{fill:url(#SVGID_128_);}
	.st116{fill:url(#SVGID_129_);}
	.st117{fill:url(#SVGID_130_);}
	.st118{fill:#B33C8A;}
	.st119{fill:#EE4F86;}
	.st120{opacity:0.3;fill:url(#SVGID_131_);}
	.st121{opacity:0.3;fill:#EAA322;}
	.st122{opacity:0.5;fill:#EE4F86;}
	.st123{opacity:0.2;fill:url(#SVGID_132_);}
	.st124{opacity:0.2;fill:#7F58A4;}
	.st125{opacity:0.5;fill:url(#SVGID_133_);}
	.st126{opacity:0.5;fill:#66C6BE;}
	.st127{opacity:0.5;fill:#C5CC7C;}
	.st128{fill:#B8B7B8;}
	.st129{clip-path:url(#SVGID_135_);}
	.st130{clip-path:url(#SVGID_137_);}
	.st131{clip-path:url(#SVGID_139_);}
	.st132{fill:#221F1F;}
	.st133{fill-rule:evenodd;clip-rule:evenodd;fill:#E4136A;}
	.st134{fill:none;stroke:#B8B7B8;stroke-width:0.5;stroke-miterlimit:10;}
	.st135{fill:none;stroke:url(#SVGID_142_);stroke-width:0.8;stroke-linecap:round;stroke-linejoin:round;stroke-miterlimit:10;}
	.st136{fill:url(#SVGID_143_);}
	.st137{fill:url(#SVGID_144_);}
	.st138{fill:url(#SVGID_145_);}
	.st139{fill:url(#SVGID_146_);}
	.st140{fill:url(#SVGID_147_);}
	.st141{fill:url(#SVGID_148_);}
	.st142{fill:url(#SVGID_149_);}
	.st143{fill:url(#SVGID_150_);}
	.st144{fill:url(#SVGID_151_);}
	.st145{fill:none;stroke:url(#SVGID_152_);stroke-width:0.8;stroke-linecap:round;stroke-linejoin:round;stroke-miterlimit:10;}
	.st146{fill:url(#SVGID_153_);}
	.st147{fill:url(#SVGID_154_);}
	.st148{fill:url(#SVGID_155_);}
	.st149{fill:url(#SVGID_156_);}
	.st150{fill:url(#SVGID_157_);}
	.st151{fill:url(#SVGID_158_);}
	.st152{fill:url(#SVGID_159_);}
	.st153{fill:url(#SVGID_160_);}
	.st154{fill:url(#SVGID_161_);}
	.st155{fill:url(#SVGID_162_);}
	.st156{fill:url(#SVGID_163_);}
	.st157{fill:url(#SVGID_164_);}
	.st158{fill:url(#SVGID_165_);}
	.st159{fill:url(#SVGID_166_);}
	.st160{fill:none;stroke:url(#SVGID_167_);stroke-width:0.8;stroke-linecap:round;stroke-linejoin:round;stroke-miterlimit:10;}
	.st161{fill:url(#SVGID_168_);}
	.st162{fill:url(#SVGID_169_);}
	.st163{fill:url(#SVGID_170_);}
	.st164{fill:url(#SVGID_171_);}
	.st165{fill:url(#SVGID_172_);}
	.st166{fill:url(#SVGID_173_);}
	.st167{fill:url(#SVGID_174_);}
	.st168{fill:url(#SVGID_175_);}
	.st169{fill:#3C3835;}
	.st170{fill:#FFD007;}
	.st171{fill:#8D2969;}
	.st172{fill:#E21C3D;}
	.st173{fill:#C92030;}
	.st174{fill:#DB1E3C;}
	.st175{fill:#D2202E;}
	.st176{fill:#A62738;}
	.st177{fill:#C42039;}
	.st178{fill:#DA1E34;}
	.st179{fill:#A42360;}
	.st180{fill:#B42D84;}
	.st181{fill:#A52847;}
	.st182{fill:#8D2869;}
	.st183{fill:#9D2367;}
	.st184{fill:#AE235F;}
	.st185{fill:#662C82;}
	.st186{fill:#6B4A97;}
	.st187{fill:#5B2A75;}
	.st188{fill:#454084;}
	.st189{fill:#6F2260;}
	.st190{fill:#623482;}
	.st191{fill:#17457A;}
	.st192{fill:#36568E;}
	.st193{fill:#045DA8;}
	.st194{fill:#2673B1;}
	.st195{fill:#0D4F90;}
	.st196{fill:#1A478B;}
	.st197{fill:#263878;}
	.st198{fill-rule:evenodd;clip-rule:evenodd;fill:#FFFFFF;}
	.st199{fill:#4E4E50;}
	.st200{fill-rule:evenodd;clip-rule:evenodd;fill:#4E4E50;}
	.st201{fill:#F7B916;}
	.st202{fill:#FFFFFF;}
	.st203{fill:#010101;}
	.st204{fill:#99969B;}
	.st205{fill:#908E8F;}
	.st206{fill:#D81F27;}
	.st207{fill:#D3D1D1;}
	.st208{fill:#294EA0;}
	.st209{fill:#F7B119;}
	.st210{fill:#ED2E32;}
	.st211{fill:#00613C;}
	.st212{fill:none;stroke:url(#SVGID_176_);stroke-width:2.0685;stroke-linecap:round;stroke-linejoin:round;stroke-miterlimit:10;}
	.st213{fill:none;stroke:url(#SVGID_177_);stroke-width:2.0685;stroke-linecap:round;stroke-linejoin:round;stroke-miterlimit:10;}
	.st214{fill:none;stroke:url(#SVGID_178_);stroke-width:2.0685;stroke-linecap:round;stroke-linejoin:round;stroke-miterlimit:10;}
	.st215{fill:none;stroke:url(#SVGID_179_);stroke-width:2.0685;stroke-linecap:round;stroke-linejoin:round;stroke-miterlimit:10;}
	.st216{fill:none;stroke:url(#SVGID_180_);stroke-width:2.0685;stroke-linecap:round;stroke-miterlimit:10;}
	.st217{fill:none;stroke:url(#SVGID_181_);stroke-width:2.0685;stroke-linecap:round;stroke-miterlimit:10;}
	.st218{fill:none;stroke:url(#SVGID_182_);stroke-width:2.0685;stroke-linecap:round;stroke-miterlimit:10;}
	.st219{fill:none;stroke:url(#SVGID_183_);stroke-width:2.0685;stroke-linecap:round;stroke-miterlimit:10;}
	.st220{fill:none;stroke:url(#SVGID_184_);stroke-width:2.0685;stroke-linecap:round;stroke-miterlimit:10;}
	.st221{fill:none;stroke:url(#SVGID_185_);stroke-width:2.0685;stroke-linecap:round;stroke-miterlimit:10;}
	.st222{fill:none;stroke:url(#SVGID_186_);stroke-width:2.0685;stroke-linecap:round;stroke-miterlimit:10;}
	.st223{fill:none;stroke:url(#SVGID_187_);stroke-width:2.0685;stroke-linecap:round;stroke-miterlimit:10;}
	.st224{fill:#FFFFFF;stroke:url(#SVGID_188_);stroke-width:2.5857;stroke-linecap:round;stroke-miterlimit:10;}
	.st225{fill:none;stroke:url(#SVGID_189_);stroke-width:2.9204;stroke-linecap:round;stroke-miterlimit:10;}
	.st226{fill:none;stroke:url(#SVGID_190_);stroke-width:2.0685;stroke-linecap:round;stroke-miterlimit:10;}
	.st227{fill:#FFFFFF;stroke:url(#SVGID_191_);stroke-width:2.5857;stroke-linecap:round;stroke-miterlimit:10;}
	.st228{fill:none;stroke:url(#SVGID_192_);stroke-width:2.9204;stroke-linecap:round;stroke-miterlimit:10;}
	.st229{fill:none;stroke:url(#SVGID_193_);stroke-width:2.0685;stroke-linecap:round;stroke-linejoin:round;stroke-miterlimit:10;}
	.st230{fill:none;stroke:url(#SVGID_194_);stroke-width:2.0685;stroke-linecap:round;stroke-linejoin:round;stroke-miterlimit:10;}
	.st231{fill:none;stroke:url(#SVGID_195_);stroke-width:2;stroke-linecap:round;stroke-linejoin:round;stroke-miterlimit:10;}
	.st232{fill:url(#SVGID_196_);}
	.st233{fill:url(#SVGID_197_);}
	.st234{fill:url(#SVGID_198_);}
	.st235{fill:url(#SVGID_199_);}
	.st236{fill:url(#SVGID_200_);}
	.st237{fill:url(#SVGID_201_);}
	.st238{fill:url(#SVGID_202_);}
	.st239{fill:url(#SVGID_203_);}
	.st240{fill:url(#SVGID_204_);}
	.st241{fill:url(#SVGID_205_);}
	.st242{fill:url(#SVGID_206_);}
	.st243{fill:url(#SVGID_207_);}
	.st244{fill:url(#SVGID_208_);}
	.st245{fill:url(#SVGID_209_);}
	.st246{fill:url(#SVGID_210_);}
	.st247{fill:url(#SVGID_211_);}
	.st248{fill:url(#SVGID_212_);}
	.st249{fill:url(#SVGID_213_);}
	.st250{fill:url(#SVGID_214_);}
	.st251{fill:url(#SVGID_215_);}
	.st252{fill:url(#SVGID_216_);}
	.st253{fill:url(#SVGID_217_);}
	.st254{fill:none;stroke:url(#SVGID_218_);stroke-width:1.2759;stroke-linecap:round;stroke-linejoin:round;stroke-miterlimit:10;}
	.st255{fill:none;stroke:url(#SVGID_219_);stroke-width:1.2759;stroke-linecap:round;stroke-linejoin:round;stroke-miterlimit:10;}
	.st256{fill:none;stroke:url(#SVGID_220_);stroke-width:1.2759;stroke-linecap:round;stroke-linejoin:round;stroke-miterlimit:10;}
	.st257{fill:none;stroke:url(#SVGID_221_);stroke-width:1.2759;stroke-linecap:round;stroke-linejoin:round;stroke-miterlimit:10;}
	.st258{fill:none;stroke:url(#SVGID_222_);stroke-width:1.2759;stroke-linecap:round;stroke-linejoin:round;stroke-miterlimit:10;}
	.st259{fill:none;stroke:url(#SVGID_223_);stroke-width:1.2759;stroke-linecap:round;stroke-linejoin:round;stroke-miterlimit:10;}
	.st260{fill:none;stroke:url(#SVGID_224_);stroke-width:1.2759;stroke-linecap:round;stroke-linejoin:round;stroke-miterlimit:10;}
	.st261{fill:none;stroke:url(#SVGID_225_);stroke-width:1.2759;stroke-linecap:round;stroke-linejoin:round;stroke-miterlimit:10;}
	.st262{fill:none;stroke:url(#SVGID_226_);stroke-width:1.2759;stroke-linecap:round;stroke-linejoin:round;stroke-miterlimit:10;}
	.st263{fill:none;stroke:url(#SVGID_227_);stroke-width:1.2759;stroke-linecap:round;stroke-linejoin:round;stroke-miterlimit:10;}
	.st264{fill:none;stroke:url(#SVGID_228_);stroke-width:1.2759;stroke-linecap:round;stroke-linejoin:round;stroke-miterlimit:10;}
	.st265{fill:none;stroke:url(#SVGID_229_);stroke-width:1.2759;stroke-linecap:round;stroke-linejoin:round;stroke-miterlimit:10;}
	.st266{fill:none;stroke:url(#SVGID_230_);stroke-width:1.2759;stroke-linecap:round;stroke-linejoin:round;stroke-miterlimit:10;}
	.st267{fill:none;stroke:url(#SVGID_231_);stroke-width:1.2759;stroke-linecap:round;stroke-linejoin:round;stroke-miterlimit:10;}
	.st268{fill:none;stroke:url(#SVGID_232_);stroke-width:1.2759;stroke-linecap:round;stroke-linejoin:round;stroke-miterlimit:10;}
	.st269{fill:none;stroke:url(#SVGID_233_);stroke-width:1.2759;stroke-linecap:round;stroke-linejoin:round;stroke-miterlimit:10;}
	.st270{fill:none;stroke:url(#SVGID_234_);stroke-width:1.2759;stroke-linecap:round;stroke-linejoin:round;stroke-miterlimit:10;}
	.st271{fill:none;stroke:url(#SVGID_235_);stroke-width:1.2759;stroke-linecap:round;stroke-linejoin:round;stroke-miterlimit:10;}
	.st272{fill:none;stroke:url(#SVGID_236_);stroke-width:1.2759;stroke-linecap:round;stroke-linejoin:round;stroke-miterlimit:10;}
	.st273{fill:none;stroke:url(#SVGID_237_);stroke-width:1.2759;stroke-linecap:round;stroke-linejoin:round;stroke-miterlimit:10;}
	.st274{fill:none;stroke:url(#SVGID_238_);stroke-width:1.2759;stroke-linecap:round;stroke-linejoin:round;stroke-miterlimit:10;}
	.st275{fill:none;stroke:url(#SVGID_239_);stroke-width:1.2759;stroke-linecap:round;stroke-linejoin:round;stroke-miterlimit:10;}
	.st276{fill:none;stroke:url(#SVGID_240_);stroke-width:1.2759;stroke-linecap:round;stroke-linejoin:round;stroke-miterlimit:10;}
	.st277{fill:none;stroke:url(#SVGID_241_);stroke-width:1.2759;stroke-linecap:round;stroke-linejoin:round;stroke-miterlimit:10;}
	.st278{fill:none;stroke:url(#SVGID_242_);stroke-width:1.2759;stroke-linecap:round;stroke-linejoin:round;stroke-miterlimit:10;}
	.st279{fill:none;stroke:url(#SVGID_243_);stroke-width:1.2759;stroke-linecap:round;stroke-linejoin:round;stroke-miterlimit:10;}
	.st280{fill:none;stroke:url(#SVGID_244_);stroke-width:1.2759;stroke-linecap:round;stroke-linejoin:round;stroke-miterlimit:10;}
	.st281{fill:none;stroke:url(#SVGID_245_);stroke-width:1.2759;stroke-linecap:round;stroke-linejoin:round;stroke-miterlimit:10;}
	.st282{fill:none;stroke:url(#SVGID_246_);stroke-width:1.2759;stroke-linecap:round;stroke-linejoin:round;stroke-miterlimit:10;}
	.st283{fill:none;stroke:url(#SVGID_247_);stroke-width:1.2759;stroke-linecap:round;stroke-linejoin:round;stroke-miterlimit:10;}
	.st284{fill:none;stroke:url(#SVGID_248_);stroke-width:1.2759;stroke-linecap:round;stroke-linejoin:round;stroke-miterlimit:10;}
	.st285{fill:none;stroke:url(#SVGID_249_);stroke-width:1.2759;stroke-linecap:round;stroke-linejoin:round;stroke-miterlimit:10;}
	.st286{fill:none;stroke:url(#SVGID_250_);stroke-width:1.2759;stroke-linecap:round;stroke-linejoin:round;stroke-miterlimit:10;}
	.st287{fill:none;stroke:url(#SVGID_251_);stroke-width:1.2759;stroke-linecap:round;stroke-linejoin:round;stroke-miterlimit:10;}
	.st288{fill:none;stroke:url(#SVGID_252_);stroke-width:1.2759;stroke-linecap:round;stroke-linejoin:round;stroke-miterlimit:10;}
	.st289{fill:none;stroke:url(#SVGID_253_);stroke-width:1.2759;stroke-linecap:round;stroke-linejoin:round;stroke-miterlimit:10;}
	.st290{fill:none;stroke:url(#SVGID_254_);stroke-width:1.2759;stroke-linecap:round;stroke-linejoin:round;stroke-miterlimit:10;}
	.st291{fill:none;stroke:url(#SVGID_255_);stroke-width:1.2759;stroke-linecap:round;stroke-linejoin:round;stroke-miterlimit:10;}
	.st292{fill:none;stroke:url(#SVGID_256_);stroke-width:1.2759;stroke-linecap:round;stroke-linejoin:round;stroke-miterlimit:10;}
	.st293{fill:none;stroke:url(#SVGID_257_);stroke-width:1.2759;stroke-linecap:round;stroke-linejoin:round;stroke-miterlimit:10;}
	.st294{fill:none;stroke:url(#SVGID_258_);stroke-width:1.2759;stroke-linecap:round;stroke-linejoin:round;stroke-miterlimit:10;}
	.st295{fill:none;stroke:url(#SVGID_259_);stroke-width:1.2759;stroke-linecap:round;stroke-linejoin:round;stroke-miterlimit:10;}
	.st296{fill:none;stroke:url(#SVGID_260_);stroke-width:1.2759;stroke-linecap:round;stroke-linejoin:round;stroke-miterlimit:10;}
	.st297{fill:none;stroke:url(#SVGID_261_);stroke-width:1.2759;stroke-linecap:round;stroke-linejoin:round;stroke-miterlimit:10;}
	.st298{fill:none;stroke:url(#SVGID_262_);stroke-width:1.2759;stroke-linecap:round;stroke-linejoin:round;stroke-miterlimit:10;}
	.st299{fill:none;stroke:url(#SVGID_263_);stroke-width:1.2759;stroke-linecap:round;stroke-linejoin:round;stroke-miterlimit:10;}
	.st300{fill:none;stroke:url(#SVGID_264_);stroke-width:1.2759;stroke-linecap:round;stroke-linejoin:round;stroke-miterlimit:10;}
	.st301{fill:none;stroke:url(#SVGID_265_);stroke-width:1.2759;stroke-linecap:round;stroke-linejoin:round;stroke-miterlimit:10;}
	.st302{fill:none;stroke:url(#SVGID_266_);stroke-width:1.2759;stroke-linecap:round;stroke-linejoin:round;stroke-miterlimit:10;}
	.st303{fill:none;stroke:url(#SVGID_267_);stroke-width:1.2759;stroke-linecap:round;stroke-linejoin:round;stroke-miterlimit:10;}
	.st304{fill:none;stroke:url(#SVGID_268_);stroke-width:1.2759;stroke-linecap:round;stroke-linejoin:round;stroke-miterlimit:10;}
	.st305{fill:none;stroke:url(#SVGID_269_);stroke-width:1.2759;stroke-linecap:round;stroke-linejoin:round;stroke-miterlimit:10;}
	.st306{fill:none;stroke:url(#SVGID_270_);stroke-width:1.2759;stroke-linecap:round;stroke-linejoin:round;stroke-miterlimit:10;}
	.st307{fill:none;stroke:url(#SVGID_271_);stroke-width:1.2759;stroke-linecap:round;stroke-linejoin:round;stroke-miterlimit:10;}
	.st308{fill:none;stroke:url(#SVGID_272_);stroke-width:1.2759;stroke-linecap:round;stroke-linejoin:round;stroke-miterlimit:10;}
	.st309{fill:none;stroke:url(#SVGID_273_);stroke-width:1.2759;stroke-linecap:round;stroke-linejoin:round;stroke-miterlimit:10;}
	.st310{fill:none;stroke:url(#SVGID_274_);stroke-width:1.2759;stroke-linecap:round;stroke-linejoin:round;stroke-miterlimit:10;}
	.st311{fill:none;stroke:url(#SVGID_275_);stroke-width:1.2759;stroke-linecap:round;stroke-linejoin:round;stroke-miterlimit:10;}
	.st312{fill:none;stroke:url(#SVGID_276_);stroke-width:1.2759;stroke-linecap:round;stroke-linejoin:round;stroke-miterlimit:10;}
	.st313{fill:none;stroke:url(#SVGID_277_);stroke-width:1.2759;stroke-linecap:round;stroke-linejoin:round;stroke-miterlimit:10;}
	.st314{fill:none;stroke:url(#SVGID_278_);stroke-width:1.2759;stroke-linecap:round;stroke-linejoin:round;stroke-miterlimit:10;}
	.st315{fill:none;stroke:url(#SVGID_279_);stroke-width:1.2759;stroke-linecap:round;stroke-linejoin:round;stroke-miterlimit:10;}
	.st316{fill:none;stroke:url(#SVGID_280_);stroke-width:1.2759;stroke-linecap:round;stroke-linejoin:round;stroke-miterlimit:10;}
	.st317{fill:none;stroke:url(#SVGID_281_);stroke-width:1.2759;stroke-linecap:round;stroke-linejoin:round;stroke-miterlimit:10;}
	.st318{fill:none;stroke:url(#SVGID_282_);stroke-width:1.2759;stroke-linecap:round;stroke-linejoin:round;stroke-miterlimit:10;}
	.st319{fill:none;stroke:url(#SVGID_283_);stroke-width:1.2759;stroke-linecap:round;stroke-linejoin:round;stroke-miterlimit:10;}
	.st320{fill:none;stroke:url(#SVGID_284_);stroke-width:1.2759;stroke-linecap:round;stroke-linejoin:round;stroke-miterlimit:10;}
	.st321{fill:none;stroke:url(#SVGID_285_);stroke-width:1.2759;stroke-linecap:round;stroke-linejoin:round;stroke-miterlimit:10;}
	.st322{fill:none;stroke:url(#SVGID_286_);stroke-width:1.2759;stroke-linecap:round;stroke-linejoin:round;stroke-miterlimit:10;}
	.st323{fill:none;stroke:url(#SVGID_287_);stroke-width:1.2759;stroke-linecap:round;stroke-linejoin:round;stroke-miterlimit:10;}
	.st324{fill:none;stroke:url(#SVGID_288_);stroke-width:1.2759;stroke-linecap:round;stroke-linejoin:round;stroke-miterlimit:10;}
	.st325{fill:none;stroke:url(#SVGID_289_);stroke-width:1.2759;stroke-linecap:round;stroke-linejoin:round;stroke-miterlimit:10;}
	.st326{fill:none;stroke:url(#SVGID_290_);stroke-width:1.2759;stroke-linecap:round;stroke-linejoin:round;stroke-miterlimit:10;}
	.st327{fill:none;stroke:url(#SVGID_291_);stroke-width:1.2759;stroke-linecap:round;stroke-linejoin:round;stroke-miterlimit:10;}
	.st328{fill:none;stroke:url(#SVGID_292_);stroke-width:1.2759;stroke-linecap:round;stroke-linejoin:round;stroke-miterlimit:10;}
	.st329{fill:none;stroke:url(#SVGID_293_);stroke-width:1.2759;stroke-linecap:round;stroke-linejoin:round;stroke-miterlimit:10;}
	.st330{fill:none;stroke:url(#SVGID_294_);stroke-width:1.2759;stroke-linecap:round;stroke-linejoin:round;stroke-miterlimit:10;}
	.st331{fill:none;stroke:url(#SVGID_295_);stroke-width:1.2759;stroke-linecap:round;stroke-linejoin:round;stroke-miterlimit:10;}
	.st332{fill:none;stroke:url(#SVGID_296_);stroke-width:1.2759;stroke-linecap:round;stroke-linejoin:round;stroke-miterlimit:10;}
	.st333{fill:none;stroke:url(#SVGID_297_);stroke-width:1.2759;stroke-linecap:round;stroke-linejoin:round;stroke-miterlimit:10;}
	.st334{fill:none;stroke:url(#SVGID_298_);stroke-width:1.2759;stroke-linecap:round;stroke-linejoin:round;stroke-miterlimit:10;}
	.st335{fill:none;stroke:url(#SVGID_299_);stroke-width:1.2759;stroke-linecap:round;stroke-linejoin:round;stroke-miterlimit:10;}
	.st336{fill:none;stroke:url(#SVGID_300_);stroke-width:1.2759;stroke-linecap:round;stroke-linejoin:round;stroke-miterlimit:10;}
	.st337{fill:none;stroke:url(#SVGID_301_);stroke-width:1.2759;stroke-linecap:round;stroke-linejoin:round;stroke-miterlimit:10;}
	.st338{fill:none;stroke:url(#SVGID_302_);stroke-width:1.2759;stroke-linecap:round;stroke-linejoin:round;stroke-miterlimit:10;}
	.st339{fill:none;stroke:url(#SVGID_303_);stroke-width:1.2759;stroke-linecap:round;stroke-linejoin:round;stroke-miterlimit:10;}
	.st340{fill:none;stroke:url(#SVGID_304_);stroke-width:1.2759;stroke-linecap:round;stroke-linejoin:round;stroke-miterlimit:10;}
	.st341{fill:none;stroke:url(#SVGID_305_);stroke-width:1.2759;stroke-linecap:round;stroke-linejoin:round;stroke-miterlimit:10;}
	.st342{fill:none;stroke:url(#SVGID_306_);stroke-width:1.2759;stroke-linecap:round;stroke-linejoin:round;stroke-miterlimit:10;}
	.st343{fill:none;stroke:url(#SVGID_307_);stroke-width:1.2759;stroke-linecap:round;stroke-linejoin:round;stroke-miterlimit:10;}
	.st344{fill:none;stroke:url(#SVGID_308_);stroke-width:1.2759;stroke-linecap:round;stroke-linejoin:round;stroke-miterlimit:10;}
	.st345{fill:none;stroke:url(#SVGID_309_);stroke-width:1.2759;stroke-linecap:round;stroke-linejoin:round;stroke-miterlimit:10;}
</style>
<g id="Layer_1">
	<linearGradient id="SVGID_1_" gradientUnits="userSpaceOnUse" x1="96.6206" y1="109.8245" x2="-26.2646" y2="109.8245">
		<stop  offset="0" style="stop-color:#B33C8A"/>
		<stop  offset="1" style="stop-color:#EE4F86"/>
	</linearGradient>
	<path style="fill:url(#SVGID_1_);" d="M8.06,90.19c-0.16-0.32-0.53-0.48-0.9-0.38c-0.46,0.12-0.73,0.57-0.64,1.05
		c0,0.01,0,0.01,0,0.02l3.47,15.2H1.14c-0.42,0-0.8,0.23-1,0.6c-0.2,0.38-0.18,0.84,0.06,1.2l14.03,21.53
		c0.15,0.29,0.43,0.46,0.74,0.46c0.1,0,0.2-0.02,0.3-0.05c0.42-0.16,0.66-0.59,0.56-1l-3.31-15.96h8.48c0.42,0,0.8-0.23,1-0.6
		c0.2-0.38,0.18-0.84-0.06-1.2L8.06,90.19z M11.73,111.58c-0.19,0-0.37,0.09-0.5,0.24c-0.12,0.15-0.17,0.34-0.13,0.53l3.03,14.58
		L1.38,107.35h9.42c0.19,0,0.38-0.09,0.5-0.24c0.12-0.15,0.17-0.35,0.12-0.54L8.29,92.84l12.45,18.73H11.73z"/>
	<linearGradient id="SVGID_2_" gradientUnits="userSpaceOnUse" x1="96.6206" y1="109.8248" x2="-26.2646" y2="109.8248">
		<stop  offset="0" style="stop-color:#B33C8A"/>
		<stop  offset="1" style="stop-color:#EE4F86"/>
	</linearGradient>
	<path style="fill:url(#SVGID_2_);" d="M94.98,106.67c-0.2-0.37-0.58-0.6-1-0.6h-8.87l3.47-15.2c0,0,0-0.01,0-0.01
		c0.1-0.48-0.18-0.93-0.63-1.05c-0.37-0.09-0.73,0.06-0.9,0.38l-13.86,20.85c-0.24,0.36-0.26,0.82-0.06,1.2c0.2,0.37,0.58,0.6,1,0.6
		h8.48l-3.31,15.94c-0.11,0.43,0.13,0.87,0.55,1.02c0.1,0.04,0.21,0.06,0.31,0.06c0.3,0,0.58-0.16,0.7-0.4l14.06-21.59
		C95.16,107.51,95.18,107.05,94.98,106.67z M80.98,126.94l3.03-14.59c0.04-0.19-0.01-0.38-0.13-0.53c-0.12-0.15-0.3-0.24-0.5-0.24
		h-9.02l12.45-18.73l-3.13,13.73c-0.04,0.19,0,0.39,0.12,0.54c0.12,0.15,0.3,0.24,0.5,0.24h9.42L80.98,126.94z"/>
	<linearGradient id="SVGID_3_" gradientUnits="userSpaceOnUse" x1="96.6206" y1="64.9316" x2="-26.2646" y2="64.9316">
		<stop  offset="0" style="stop-color:#B33C8A"/>
		<stop  offset="1" style="stop-color:#EE4F86"/>
	</linearGradient>
	<path style="fill:url(#SVGID_3_);" d="M74.38,62.97c-0.55-1.43-1.63-2.56-3.03-3.18c-0.19-0.09-0.39-0.13-0.59-0.2l0.61-0.23
		c1.43-0.55,2.56-1.62,3.19-3.03c0.62-1.4,0.66-2.96,0.11-4.39c-0.69-1.78-2.18-3.02-3.9-3.47c0.89-0.6,1.61-1.42,2.06-2.43
		c0.62-1.4,0.66-2.96,0.11-4.39c-0.69-1.8-2.21-3.05-3.95-3.49c0.78-0.58,1.41-1.33,1.82-2.24c0.62-1.4,0.67-2.96,0.11-4.39
		c-1.14-2.94-4.46-4.43-7.41-3.3l-2.45,0.94c-0.12,0.05-0.23,0.12-0.35,0.18L50.93,4.29c-0.65-1.68-1.92-3-3.57-3.72
		c-1.65-0.72-3.48-0.76-5.15-0.11L16.23,10.6c-1.68,0.65-3,1.92-3.72,3.57c-0.72,1.65-0.76,3.48-0.11,5.15l8.41,21.57
		c-1.22,0.08-2.5,0.37-3.83,0.88c-0.31,0.12-0.48,0.46-0.38,0.78c1.5,5.09,2.83,9.59,4,13.58c6.95,23.62,8.6,29.23,10.56,32.6
		c0.88,1.52,1.66,2.44,2.27,3.18c0.67,0.8,1.15,1.37,1.55,2.37c1.27,3.13,1.61,10.65,1.61,34.96c0,0.35,0.29,0.64,0.64,0.64
		s0.64-0.29,0.64-0.64c0-24.79-0.35-32.08-1.7-35.44c-0.48-1.18-1.07-1.89-1.75-2.71c-0.62-0.74-1.32-1.58-2.15-3
		c-1.88-3.24-3.53-8.82-10.44-32.32c-1.13-3.83-2.4-8.15-3.83-13c2.73-0.93,5.17-0.83,7.27,0.31c5.76,3.13,7.88,13.13,9.02,18.51
		c0.07,0.35,0.14,0.66,0.21,0.97c-0.4-0.12-0.81-0.24-1.22-0.33c-0.34-0.08-0.68,0.14-0.76,0.48c-0.08,0.34,0.14,0.68,0.48,0.76
		c3.38,0.77,6.57,2.75,8.98,5.57c2.51,2.95,3.94,6.54,4.09,10.06c-0.02,0.09-0.02,0.17,0,0.26c0.03,1-0.03,2-0.22,2.97
		c-0.07,0.35,0.16,0.68,0.5,0.75c0.04,0.01,0.08,0.01,0.12,0.01c0.3,0,0.57-0.21,0.62-0.52c0.19-0.96,0.27-1.94,0.27-2.93l17.69-6.9
		c0.09-0.04,0.17-0.09,0.23-0.16c0.22-0.06,0.44-0.1,0.65-0.19l3.02-1.17c1.22,8.29-1.31,12.51-3.99,16.96
		c-2.2,3.64-4.47,7.41-4.47,13.47v27.58c0,0.35,0.29,0.64,0.64,0.64s0.64-0.29,0.64-0.64v-27.58c0-5.7,2.08-9.15,4.28-12.81
		c2.71-4.5,5.5-9.16,4.12-18.09l0.93-0.36C74.05,69.25,75.52,65.92,74.38,62.97z M73.48,52.4c0.43,1.11,0.4,2.33-0.08,3.42
		c-0.48,1.09-1.36,1.93-2.48,2.35l-6.13,2.36c-2.3,0.88-4.88-0.27-5.77-2.56c-0.43-1.11-0.4-2.32,0.08-3.41
		c0.48-1.09,1.36-1.92,2.47-2.35l6.15-2.36c0.52-0.2,1.06-0.3,1.59-0.3C71.1,49.55,72.8,50.64,73.48,52.4z M71.74,42.11
		c0.43,1.11,0.4,2.33-0.08,3.42c-0.48,1.09-1.36,1.93-2.48,2.36l-7.58,2.93c-2.3,0.88-4.88-0.27-5.77-2.56
		c-0.43-1.11-0.4-2.32,0.08-3.41c0.48-1.09,1.36-1.92,2.48-2.35l6.69-2.59c0.03-0.01,0.06-0.01,0.09-0.02l0.95-0.36
		c0.48-0.17,0.97-0.26,1.46-0.26C69.37,39.25,71.06,40.34,71.74,42.11z M61.51,30.36l2.45-0.94c2.29-0.88,4.88,0.28,5.76,2.56
		c0.43,1.11,0.4,2.32-0.09,3.41c-0.49,1.09-1.36,1.93-2.47,2.35l-1.39,0.53c-0.08,0.03-0.17,0.05-0.25,0.08l-0.9,0.35
		c-2.27,0.82-4.81-0.33-5.68-2.59c-0.43-1.11-0.39-2.32,0.09-3.41C59.53,31.62,60.4,30.78,61.51,30.36z M13.68,14.68
		c0.58-1.33,1.65-2.36,3.01-2.89L42.68,1.65c1.36-0.53,2.84-0.5,4.17,0.09c1.33,0.59,2.36,1.66,2.89,3.01l9.86,25.27
		c-0.67,0.52-1.21,1.17-1.6,1.95L48.9,8.65c-0.8-2.06-3.13-3.08-5.19-2.28l-24.58,9.59c-1,0.39-1.78,1.14-2.21,2.12
		s-0.45,2.07-0.06,3.07l7.91,20.29c-0.82-0.31-1.68-0.49-2.58-0.55L13.6,18.85C13.07,17.5,13.1,16.01,13.68,14.68z M35.91,63.05
		c-0.11-0.49-0.24-1.07-0.38-1.74c-1.14-5.39-3.24-15.24-9.05-18.98l-8.44-21.64c-0.27-0.68-0.25-1.42,0.04-2.09
		s0.83-1.18,1.51-1.45l24.58-9.59c1.4-0.55,2.99,0.15,3.54,1.55l9.7,24.88c0,0,0,0,0,0.01c-0.08,0.87,0.01,1.75,0.33,2.58
		c0,0,0,0,0,0c0.65,1.68,2.01,2.88,3.6,3.39l-3.43,1.33c-1.43,0.55-2.56,1.62-3.18,3.02c-0.62,1.4-0.66,2.96-0.11,4.39
		c0.77,1.98,2.52,3.3,4.49,3.61c-0.49,0.49-0.9,1.07-1.19,1.72c-0.62,1.4-0.66,2.96-0.11,4.39c0.65,1.7,2.04,2.91,3.65,3.41
		c-1.23,0.57-2.18,1.53-2.74,2.67l-14.35,5.6c-0.43-0.66-0.91-1.3-1.43-1.91C40.99,65.91,38.56,64.14,35.91,63.05z M45.05,71.22
		l13.17-5.14c-0.17,0.99-0.09,2.03,0.3,3.03c0.55,1.43,1.63,2.56,3.03,3.18c0.19,0.08,0.39,0.16,0.58,0.22L47.3,78.29
		C47.08,75.87,46.31,73.45,45.05,71.22z M65.48,71.2c-1.11,0.43-2.32,0.4-3.41-0.08c-1.09-0.48-1.93-1.36-2.36-2.47
		c-0.88-2.29,0.26-4.88,2.55-5.76l5.17-2c1.11-0.43,2.32-0.4,3.41,0.08c1.09,0.48,1.93,1.36,2.36,2.47
		c0.88,2.29-0.26,4.88-2.55,5.77L65.48,71.2z"/>
	<linearGradient id="SVGID_4_" gradientUnits="userSpaceOnUse" x1="96.6206" y1="32.6514" x2="-26.2646" y2="32.6514">
		<stop  offset="0" style="stop-color:#B33C8A"/>
		<stop  offset="1" style="stop-color:#EE4F86"/>
	</linearGradient>
	<path style="fill:url(#SVGID_4_);" d="M44.74,23.3c-0.32-0.15-0.7-0.02-0.85,0.3l-8.39,17.55c-0.15,0.32-0.02,0.7,0.3,0.85
		c0.09,0.04,0.18,0.06,0.28,0.06c0.24,0,0.47-0.13,0.58-0.36l8.39-17.55C45.19,23.83,45.05,23.45,44.74,23.3z"/>
	<linearGradient id="SVGID_5_" gradientUnits="userSpaceOnUse" x1="96.6206" y1="46.5288" x2="-26.2646" y2="46.5288">
		<stop  offset="0" style="stop-color:#B33C8A"/>
		<stop  offset="1" style="stop-color:#EE4F86"/>
	</linearGradient>
	<path style="fill:url(#SVGID_5_);" d="M42.73,44.14c-0.32-0.15-0.7-0.02-0.85,0.3l-1.74,3.62c-0.15,0.32-0.02,0.7,0.3,0.85
		c0.09,0.04,0.18,0.06,0.28,0.06c0.24,0,0.47-0.13,0.58-0.36L43.03,45C43.18,44.68,43.04,44.3,42.73,44.14z"/>
	<linearGradient id="SVGID_6_" gradientUnits="userSpaceOnUse" x1="96.6206" y1="36.8436" x2="-26.2646" y2="36.8436">
		<stop  offset="0" style="stop-color:#B33C8A"/>
		<stop  offset="1" style="stop-color:#EE4F86"/>
	</linearGradient>
	<path style="fill:url(#SVGID_6_);" d="M44.85,41.2l3.9-8.15c0.15-0.32,0.02-0.7-0.3-0.85c-0.32-0.15-0.7-0.02-0.85,0.3l-3.9,8.15
		c-0.15,0.32-0.02,0.7,0.3,0.85c0.09,0.04,0.18,0.06,0.28,0.06C44.51,41.56,44.74,41.42,44.85,41.2z"/>
	<linearGradient id="SVGID_7_" gradientUnits="userSpaceOnUse" x1="96.6206" y1="9.3716" x2="-26.2646" y2="9.3716">
		<stop  offset="0" style="stop-color:#B33C8A"/>
		<stop  offset="1" style="stop-color:#EE4F86"/>
	</linearGradient>
	<path style="fill:url(#SVGID_7_);" d="M27.96,11.09c0.08,0,0.16-0.01,0.23-0.04l5.52-2.16c0.33-0.13,0.49-0.5,0.36-0.83
		c-0.13-0.33-0.5-0.49-0.83-0.36l-5.52,2.16c-0.33,0.13-0.49,0.5-0.36,0.83C27.46,10.93,27.7,11.09,27.96,11.09z"/>
	<linearGradient id="SVGID_8_" gradientUnits="userSpaceOnUse" x1="96.6206" y1="71.3341" x2="-26.2646" y2="71.3341">
		<stop  offset="0" style="stop-color:#B33C8A"/>
		<stop  offset="1" style="stop-color:#EE4F86"/>
	</linearGradient>
	<path style="fill:url(#SVGID_8_);" d="M54.1,69.3c-1.12,0.44-1.68,1.71-1.24,2.83c0.21,0.54,0.62,0.97,1.16,1.21
		c0.28,0.12,0.58,0.19,0.88,0.19c0.27,0,0.54-0.05,0.79-0.15c1.12-0.44,1.68-1.71,1.24-2.83C56.49,69.42,55.22,68.86,54.1,69.3z
		 M55.22,72.18c-0.23,0.09-0.47,0.08-0.7-0.01c-0.22-0.1-0.39-0.28-0.48-0.5c-0.18-0.47,0.05-1,0.52-1.18
		c0.11-0.04,0.22-0.06,0.33-0.06c0.12,0,0.25,0.03,0.37,0.08c0.22,0.1,0.39,0.28,0.48,0.5C55.92,71.47,55.69,72,55.22,72.18z"/>
</g>
<g id="Layer_2">
</g>
</svg>
