<?xml version="1.0" encoding="utf-8"?>
<!-- Generator: Adobe Illustrator 19.1.0, SVG Export Plug-In . SVG Version: 6.00 Build 0)  -->
<svg version="1.1" id="Layer_1" xmlns="http://www.w3.org/2000/svg" xmlns:xlink="http://www.w3.org/1999/xlink" x="0px" y="0px"
	 width="16.2px" height="16.2px" viewBox="-587 412.7 16.2 16.2" style="enable-background:new -587 412.7 16.2 16.2;"
	 xml:space="preserve">
<style type="text/css">
	.st0{fill:#61319F;}
</style>
<g id="XMLID_285_">
	<path id="XMLID_287_" class="st0" d="M-577.3,419.3c0.1,0.1,0.3,0.2,0.3,0.4v8.6c0,0.4-0.3,0.6-0.7,0.6c-0.4,0-0.7-0.3-0.7-0.6
		v-7.8h-8c-0.3,0-0.6-0.4-0.6-0.7c0-0.4,0.3-0.7,0.6-0.7h8.6C-577.6,419.1-577.4,419.2-577.3,419.3z"/>
	<path id="XMLID_286_" class="st0" d="M-578.3,419.2l-8.3,8.3c-0.3,0.3-0.2,0.7,0,0.9c0.3,0.3,0.7,0.3,0.9,0l8.3-8.3L-578.3,419.2z"
		/>
</g>
</svg>
