<?xml version="1.0" encoding="utf-8"?>
<!-- Generator: Adobe Illustrator 19.1.0, SVG Export Plug-In . SVG Version: 6.00 Build 0)  -->
<svg version="1.1" id="Layer_1" xmlns="http://www.w3.org/2000/svg" xmlns:xlink="http://www.w3.org/1999/xlink" x="0px" y="0px"
	 width="16.2px" height="16.2px" viewBox="0 0 16.2 16.2" style="enable-background:new 0 0 16.2 16.2;" xml:space="preserve">
<style type="text/css">
	.st0{fill:#FFFFFF;}
</style>
<g id="XMLID_285_">
	<path id="XMLID_287_" class="st0" d="M9.7,6.6C9.8,6.7,10,6.8,10,7v8.6c0,0.4-0.3,0.6-0.7,0.6c-0.4,0-0.7-0.3-0.7-0.6V7.8h-8
		C0.3,7.8,0,7.4,0,7.1c0-0.4,0.3-0.7,0.6-0.7h8.6C9.4,6.4,9.6,6.5,9.7,6.6z"/>
	<path id="XMLID_286_" class="st0" d="M8.7,6.5l-8.3,8.3c-0.3,0.3-0.2,0.7,0,0.9c0.3,0.3,0.7,0.3,0.9,0l8.3-8.3L8.7,6.5z"/>
</g>
</svg>
