<?xml version="1.0" encoding="utf-8"?>
<!-- Generator: Adobe Illustrator 21.1.0, SVG Export Plug-In . SVG Version: 6.00 Build 0)  -->
<svg width="993px" height="993px" version="1.1" id="Layer_1" xmlns="http://www.w3.org/2000/svg" xmlns:xlink="http://www.w3.org/1999/xlink" x="0px" y="0px"
	 viewBox="0 0 993 993" style="enable-background:new 0 0 993 993;" xml:space="preserve">
<style type="text/css">
	.st0{opacity:0.16;fill:#ED4F86;enable-background:new    ;}
	.st1{fill:none;stroke:#643794;stroke-width:0.9567;stroke-miterlimit:10;}
	.st2{opacity:0.2;fill:url(#SVGID_1_);enable-background:new    ;}
	.st3{fill:#DF1D3E;}
	.st4{fill:#643794;}
</style>
<path class="st0" d="M496.5,937.5c-59.5,0-117.3-11.7-171.7-34.7c-52.5-22.2-99.7-54-140.2-94.5s-72.3-87.7-94.5-140.2
	c-23-54.4-34.7-112.1-34.7-171.7c0-59.5,11.7-117.3,34.7-171.7c22.2-52.5,54-99.7,94.5-140.2s87.7-72.3,140.2-94.5
	c54.4-23,112.1-34.7,171.7-34.7S613.8,67,668.2,90c52.5,22.2,99.7,54,140.2,94.5s72.3,87.7,94.5,140.2
	c23,54.4,34.7,112.1,34.7,171.7c0,59.5-11.7,117.3-34.7,171.7c-22.2,52.5-54,99.7-94.5,140.2s-87.7,72.3-140.2,94.5
	C613.8,925.8,556,937.5,496.5,937.5z M496.5,93.8c-54.4,0-107.1,10.6-156.8,31.6c-48,20.3-91,49.3-128,86.3s-66,80.1-86.3,128
	c-21,49.6-31.6,102.4-31.6,156.8s10.6,107.1,31.6,156.8c20.3,48,49.3,91,86.3,128s80.1,66,128,86.3c49.6,21,102.4,31.6,156.8,31.6
	s107.1-10.6,156.8-31.6c48-20.3,91-49.3,128-86.3s66-80.1,86.3-128c21-49.6,31.6-102.4,31.6-156.8s-10.6-107.1-31.6-156.8
	c-20.3-48-49.3-91-86.3-128s-80.1-66-128-86.3C603.6,104.4,550.9,93.8,496.5,93.8z"/>
<circle class="st1" cx="496.5" cy="496.5" r="421.9"/>
<linearGradient id="SVGID_1_" gradientUnits="userSpaceOnUse" x1="107.8" y1="346.5" x2="885.2" y2="346.5" gradientTransform="matrix(1 0 0 1 0 150)">
	<stop  offset="0" style="stop-color:#EA6E9A"/>
	<stop  offset="1" style="stop-color:#643794"/>
</linearGradient>
<circle class="st2" cx="496.5" cy="496.5" r="388.7"/>
<g>
	<path class="st3" d="M825.2,848c-5.8-5.9-8.4-29.7-8.4-29.7s23.8,2.7,29.7,8.6s5.8,15.4-0.1,21.2C840.5,853.9,831,853.9,825.2,848z
		"/>
	
		<ellipse transform="matrix(0.7088 -0.7054 0.7054 0.7088 -347.3536 833.4749)" class="st4" cx="835.8" cy="837.5" rx="9.7" ry="9.7"/>
</g>
<g>
	<path class="st3" d="M880.4,786.8c-6.8-4.8-13.4-27.8-13.4-27.8s23.9-1.4,30.7,3.4c6.8,4.8,8.4,14.2,3.6,20.9
		C896.5,790,887.1,791.6,880.4,786.8z"/>
	<ellipse transform="matrix(0.578 -0.816 0.816 0.578 -256.8592 1052.3687)" class="st4" cx="889" cy="774.5" rx="9.7" ry="9.7"/>
</g>
<g>
	<path class="st3" d="M136.9,176.7c6.4,5.3,11.1,28.8,11.1,28.8s-24-0.5-30.3-5.8c-6.4-5.3-7.2-14.8-1.9-21.1
		C121.1,172.2,130.5,171.4,136.9,176.7z"/>
	<ellipse transform="matrix(0.641 -0.7676 0.7676 0.641 -98.7428 165.2553)" class="st4" cx="127.3" cy="188.2" rx="9.7" ry="9.7"/>
</g>
</svg>
