<?xml version="1.0" encoding="utf-8"?>
<!-- Generator: Adobe Illustrator 21.1.0, SVG Export Plug-In . SVG Version: 6.00 Build 0)  -->
<svg width="335px" height="607px" version="1.1" id="Layer_1" xmlns="http://www.w3.org/2000/svg" xmlns:xlink="http://www.w3.org/1999/xlink" x="0px" y="0px"
	 viewBox="0 0 335 607" style="enable-background:new 0 0 335 607;" xml:space="preserve">
<style type="text/css">
	
		.st0{opacity:0.4;fill:none;stroke:#FFFFFF;stroke-width:4.252;stroke-linecap:round;stroke-miterlimit:10;enable-background:new    ;}
</style>
<g>
	<polyline class="st0" points="234.3,228.1 232,224.1 235.9,221.7 	"/>
	<polyline class="st0" points="224.8,168.5 220.3,167.8 220.8,163.2 	"/>
	<polyline class="st0" points="171.1,138.1 167.8,141.2 164.5,138 	"/>
	<polyline class="st0" points="114.7,161 115.1,165.6 110.5,166.1 	"/>
	<polyline class="st0" points="97.9,222.5 101.8,224.9 99.5,228.9 	"/>
	<polyline class="st0" points="219.1,443.6 218.8,439 223.4,438.5 	"/>
	<polyline class="st0" points="236.9,382.2 233,379.7 235.4,375.7 	"/>
	<polyline class="st0" points="200.6,333.1 196.3,334.6 194.6,330.3 	"/>
	<polyline class="st0" points="140.5,330.5 138.9,334.9 134.5,333.4 	"/>
	<polyline class="st0" points="100,376.6 102.4,380.5 98.5,383 	"/>
	<polyline class="st0" points="110.9,436.7 115.4,437.3 115,441.9 	"/>
	<polyline class="st0" points="163.5,465.6 166.9,462.5 170.1,465.7 	"/>
</g>
</svg>
