<?xml version="1.0" encoding="utf-8"?>
<!-- Generator: Adobe Illustrator 21.1.0, SVG Export Plug-In . SVG Version: 6.00 Build 0)  -->
<svg width="560px" height="573px" version="1.1" id="Layer_1" xmlns="http://www.w3.org/2000/svg" xmlns:xlink="http://www.w3.org/1999/xlink" x="0px" y="0px"
	 viewBox="0 0 560 573" style="enable-background:new 0 0 560 573;" xml:space="preserve">
<style type="text/css">
	.st0{fill:#643794;}
	.st1{fill:#EF4F88;}
</style>
<path class="st0" d="M450.2,147.9l-38.5-36.6c-8.5-8.1-8.8-21.5-0.8-30.1c8.1-8.5,21.5-8.8,30.1-0.8l8,7.7l6.3-6.5
	c8.2-8.4,21.6-8.6,30.1-0.4c8.4,8.2,8.6,21.6,0.4,30.1L450.2,147.9z"/>
<path class="st1" d="M514.9,63.8L496.1,46c-4-3.8-4.1-10.1-0.4-14c3.8-4,10.1-4.1,14-0.4l4.5,4.3l3.6-3.7c3.8-3.9,10.1-4,14-0.2
	c3.9,3.8,4,10.1,0.2,14L514.9,63.8z"/>
<path class="st1" d="M452,296.4L380,228c-14.2-13.5-14.7-35.9-1.3-50.1s35.9-14.7,50.1-1.3l21.2,20.1l17.5-18
	c13.6-14,36.1-14.4,50.1-0.7c14,13.6,14.4,36.1,0.7,50.1L452,296.4z"/>
</svg>
