<?xml version="1.0" encoding="utf-8"?>
<!-- Generator: Adobe Illustrator 21.1.0, SVG Export Plug-In . SVG Version: 6.00 Build 0)  -->
<svg width="1646px" height="804px" version="1.1" id="Layer_1" xmlns="http://www.w3.org/2000/svg" xmlns:xlink="http://www.w3.org/1999/xlink" x="0px" y="0px"
	 viewBox="0 0 1646 804" style="enable-background:new 0 0 1646 804;" xml:space="preserve">
<style type="text/css">
	
		.st0{opacity:0.4;fill:none;stroke:#FFFFFF;stroke-width:8.5039;stroke-linecap:round;stroke-miterlimit:10;enable-background:new    ;}
</style>
<g>
	<polyline class="st0" points="1179.3,268.5 1167.1,269.1 1166.2,256 	"/>
	<polyline class="st0" points="1236.1,408.9 1227.8,399.8 1237.4,390.9 	"/>
	<polyline class="st0" points="1161.7,543.1 1163.6,531 1176.6,533 	"/>
	<polyline class="st0" points="1024.9,225 1018.2,235.3 1007.2,228.2 	"/>
	<polyline class="st0" points="902.7,316.2 906.4,327.9 894,332 	"/>
	<polyline class="st0" points="897.9,471.4 909.4,475.6 905,488 	"/>
	<polyline class="st0" points="1010.2,568.8 1020.9,562.7 1027.5,574.1 	"/>
	<polyline class="st0" points="643.7,230.3 633.2,236.6 626.3,225.4 	"/>
	<polyline class="st0" points="494,259.4 492.3,271.5 479.3,269.9 	"/>
	<polyline class="st0" points="422.4,394.1 430.8,403.1 421.3,412.1 	"/>
	<polyline class="st0" points="477.6,530.3 489.9,529.8 490.5,542.9 	"/>
	<polyline class="st0" points="627.6,576.4 634.7,566.4 645.5,573.9 	"/>
</g>
</svg>
