<?xml version="1.0" encoding="utf-8"?>
<!-- Generator: Adobe Illustrator 22.1.0, SVG Export Plug-In . SVG Version: 6.00 Build 0)  -->
<svg version="1.1" id="Layer_1" xmlns="http://www.w3.org/2000/svg" xmlns:xlink="http://www.w3.org/1999/xlink" x="0px" y="0px"
	 viewBox="0 0 1051 760" style="enable-background:new 0 0 1051 760;" xml:space="preserve">
<style type="text/css">
	.st0{opacity:0.1;fill:url(#SVGID_1_);stroke:#B3B3B3;stroke-width:5.6693;stroke-miterlimit:10;}
	.st1{fill:#FFFFFF;stroke:#CCCCCC;stroke-width:2.8346;stroke-miterlimit:10;}
	.st2{opacity:0.8;}
	.st3{fill:#FFFFFF;}
	.st4{fill:#FFFFFF;stroke:#B3B3B3;stroke-width:2.8346;stroke-miterlimit:10;}
	.st5{fill:#CCCCCC;}
	.st6{clip-path:url(#SVGID_3_);}
	.st7{opacity:0.3;fill:#FFFFFF;}
</style>
<linearGradient id="SVGID_1_" gradientUnits="userSpaceOnUse" x1="528.6778" y1="717.8957" x2="528.6778" y2="656.391">
	<stop  offset="0" style="stop-color:#FFFFFF"/>
	<stop  offset="1" style="stop-color:#000000"/>
</linearGradient>
<path class="st0" d="M636.1605,748.0999h-214.497c-4.0506,0-11.9677-0.9206-1.3809-10.0859
	c4.4549-3.8568,12.8071-12.155,13.1205-12.4685c11.3912-11.3912,13.7036-23.454,13.7036-23.454l9.1421-103.1269
	c0-4.0505,8.3141-7.3647,12.3647-7.3647l155.5794,3.6824c4.0505,0-22.6177-0.3682-22.6177,3.6823l9.1003,102.6456
	c0,0,2.1112,13.8425,12.2039,23.9353c4.0687,4.0687,11.4484,11.0048,14.4068,13.4462
	C647.2075,747.1793,640.2111,748.0999,636.1605,748.0999z"/>
<path class="st1" d="M636.1605,748.0999h-214.497c-4.0506,0-11.9677-0.9206-1.3809-10.0859
	c4.4549-3.8568,12.8071-12.155,13.1205-12.4685c11.3912-11.3912,13.7036-23.454,13.7036-23.454l9.1421-103.1269
	c0-4.0505,8.3141-7.3647,12.3647-7.3647l155.5794,3.6824c4.0505,0-22.6177-0.3682-22.6177,3.6823l9.1003,102.6456
	c0,0,2.1112,13.8425,12.2039,23.9353c4.0687,4.0687,11.4484,11.0048,14.4068,13.4462
	C647.2075,747.1793,640.2111,748.0999,636.1605,748.0999z"/>
<g class="st2">
	
		<image style="overflow:visible;opacity:0.7;" width="1015" height="709" xlink:href="869206804C6F127C.png"  transform="matrix(1 0 0 1 22.0931 15.0931)">
	</image>
	<g>
		<polygon class="st3" points="943.0908,633.0999 110.8846,633.0999 116.1482,103.4758 947,103.4758 		"/>
	</g>
</g>
<path class="st4" d="M933.6259,655.0999h-814.5c-17.6,0-32-14.4-32-32v-511c0-17.6,14.4-32,32-32h814.5c17.6,0,32,14.4,32,32v511
	C965.6259,640.6998,951.2259,655.0999,933.6259,655.0999z"/>
<path class="st5" d="M918.2368,156.502H134.1007c-8.189,0-14.8891-6.7001-14.8891-14.8891v-10.3674
	c0-8.189,6.7001-14.8891,14.8891-14.8891h784.1361c8.189,0,14.889,6.7001,14.889,14.8891v10.3674
	C933.1259,149.8019,926.4258,156.502,918.2368,156.502z"/>
<path class="st3" d="M919.5649,139.985H175.3895c-3.0973,0-5.6082-2.5109-5.6082-5.6082v-7.938
	c0-3.0973,2.5109-5.6082,5.6082-5.6082h744.1755c3.0974,0,5.6082,2.5109,5.6082,5.6082v7.938
	C925.1732,137.4741,922.6623,139.985,919.5649,139.985z"/>
<g>
	<defs>
		<rect id="SVGID_2_" x="119.2116" y="141.6129" width="812.744" height="457.2747"/>
	</defs>
	<clipPath id="SVGID_3_">
		<use xlink:href="#SVGID_2_"  style="overflow:visible;"/>
	</clipPath>
	<g class="st6">
		<defs>
			<rect id="SVGID_4_" x="121.2961" y="143.7077" width="810.6595" height="495"/>
		</defs>
		<clipPath id="SVGID_5_">
			<use xlink:href="#SVGID_4_"  style="overflow:visible;"/>
		</clipPath>
		<g style="clip-path:url(#SVGID_5_);">
			
				<image style="overflow:visible;" width="2880" height="2134" xlink:href="869206804C6F127D.png"  transform="matrix(0.2888 0 0 0.2888 111.4649 36.7266)">
			</image>
		</g>
	</g>
</g>
<g>
	<path class="st5" d="M931.6937,143.6539v455.3539H120.6289V143.6539H931.6937 M933.1111,142.2365H119.2116v458.1887h813.8995
		V142.2365L933.1111,142.2365z"/>
</g>
<polygon class="st7" points="931.9556,595.7808 745.1302,595.7808 535.5248,116.3565 931.9556,116.3565 "/>
</svg>
