<?xml version="1.0" encoding="utf-8"?>
<!-- Generator: Adobe Illustrator 21.1.0, SVG Export Plug-In . SVG Version: 6.00 Build 0)  -->
<svg width="335px" height="607px" version="1.1" id="Layer_1" xmlns="http://www.w3.org/2000/svg" xmlns:xlink="http://www.w3.org/1999/xlink" x="0px" y="0px"
	 viewBox="0 0 335 607" style="enable-background:new 0 0 335 607;" xml:space="preserve">
<style type="text/css">
	
		.st0{opacity:0.4;fill:none;stroke:#FFFFFF;stroke-width:4.252;stroke-linecap:round;stroke-miterlimit:10;enable-background:new    ;}
</style>
<g>
	<polyline class="st0" points="225.6,226 223.3,222 227.1,219.6 	"/>
	<polyline class="st0" points="217.7,173.9 213.1,173.2 213.7,168.7 	"/>
	<polyline class="st0" points="171,147.1 167.7,150.2 164.4,147 	"/>
	<polyline class="st0" points="121.7,166.7 122,171.3 117.5,171.8 	"/>
	<polyline class="st0" points="106.6,220.3 110.5,222.7 108.3,226.7 	"/>
	<polyline class="st0" points="212.3,437.7 212,433.1 216.5,432.7 	"/>
	<polyline class="st0" points="228.2,384.3 224.3,381.8 226.6,377.8 	"/>
	<polyline class="st0" points="196.8,341.3 192.5,342.8 190.8,338.5 	"/>
	<polyline class="st0" points="144.3,338.7 142.7,343 138.4,341.5 	"/>
	<polyline class="st0" points="108.8,378.6 111.2,382.5 107.3,385 	"/>
	<polyline class="st0" points="117.9,431.1 122.5,431.7 122,436.3 	"/>
	<polyline class="st0" points="163.7,456.6 167,453.5 170.3,456.7 	"/>
</g>
</svg>
