<?xml version="1.0" encoding="utf-8"?>
<!-- Generator: Adobe Illustrator 21.1.0, SVG Export Plug-In . SVG Version: 6.00 Build 0)  -->
<svg width="410px" height="325px" version="1.1" xmlns="http://www.w3.org/2000/svg" xmlns:xlink="http://www.w3.org/1999/xlink" x="0px" y="0px"
	 viewBox="0 0 410 325" style="enable-background:new 0 0 410 325;" xml:space="preserve">
<style type="text/css">
	.st0{fill:#AD9BCA;}
	.st1{fill:#653893;}
	.st2{opacity:0.5;fill:#7D5EA2;enable-background:new    ;}
</style>
<g id="Layer_1">
</g>
<g id="Layer_2">
</g>
<g id="Layer_3">
</g>
<g id="Layer_4">
	<g>
		<path class="st0" d="M194.1,144l-40.5-29c-2.8-2-4.2-5.1-4.2-8.1c0-2-0.3-19.7-0.3-19.7c0.6-3.6,3.1-5.4,4.5-6.8l40.5-29
			c7-5,16.3-5,23.3,0l40.5,29c1.6,1.1,4.1,3.5,4.1,6.9c0,4,0.1,11,0.1,19.7c0,3.1-1.4,6.1-4.2,8.1l-40.5,29
			C210.5,149,201.1,149,194.1,144z"/>
		<path class="st1" d="M194.1,125.6l-40.5-29c-5.6-4-5.6-12.3,0-16.3l40.5-29c7-5,16.3-5,23.3,0l40.8,29.2c5.6,4,5.3,12.1-0.2,16.1
			l-40.5,29C210.5,130.6,201.1,130.6,194.1,125.6z"/>
		<path class="st2" d="M205,129.3c0,0,6.3,0.7,12.5-3.7s41-29.4,41-29.4s3.6-3.1,3.6-7.2l0.1,18.7c0,0,0.3,4.1-3.8,7
			c-4,2.9-40.9,29.4-40.9,29.4s-5.1,3.9-12.5,3.7V129.3z"/>
	</g>
</g>
</svg>
