<?xml version="1.0" encoding="utf-8"?>
<!-- Generator: Adobe Illustrator 21.1.0, SVG Export Plug-In . SVG Version: 6.00 Build 0)  -->
<svg width="560px" height="573px" version="1.1" id="Layer_1" xmlns="http://www.w3.org/2000/svg" xmlns:xlink="http://www.w3.org/1999/xlink" x="0px" y="0px"
	 viewBox="0 0 560 573" style="enable-background:new 0 0 560 573;" xml:space="preserve">
<style type="text/css">
	.st0{fill:#EF4F88;}
	.st1{fill:#643794;}
</style>
<path class="st0" d="M19.9,206.5l-17.1-18c-3.8-4-3.6-10.2,0.3-14c4-3.8,10.2-3.6,14,0.3l3.6,3.8l4.6-4.3c4-3.7,10.3-3.5,14,0.5
	c3.7,4,3.5,10.3-0.5,14L19.9,206.5z"/>
<path class="st0" d="M61.4,116.5l-17.1-18c-3.8-4-3.6-10.2,0.3-14c4-3.8,10.2-3.6,14,0.3l3.6,3.8l4.6-4.3c4-3.7,10.3-3.5,14,0.5
	c3.7,4,3.5,10.3-0.5,14L61.4,116.5z"/>
<path class="st1" d="M118.2,208.2l-35.2-37c-8.1-8.5-7.8-22,0.7-30.1c8.5-8.1,22-7.8,30.1,0.7l6.2,6.6l8.1-7.6c8.6-8,22-7.5,30,1.1
	s7.5,22-1.1,30L118.2,208.2z"/>
</svg>
