<?xml version="1.0" encoding="utf-8"?>
<!-- Generator: Adobe Illustrator 22.1.0, SVG Export Plug-In . SVG Version: 6.00 Build 0)  -->
<svg width="368px" height="311px" version="1.1" id="Layer_1" xmlns="http://www.w3.org/2000/svg" xmlns:xlink="http://www.w3.org/1999/xlink" x="0px" y="0px"
	 viewBox="0 0 368 311" style="enable-background:new 0 0 368 311;" xml:space="preserve">
<style type="text/css">
	.st0{fill:#6344AE;}
	.st1{fill:url(#XMLID_5_);}
	.st2{fill:url(#XMLID_6_);}
	.st3{fill:url(#XMLID_7_);}
	.st4{fill:#634B9D;}
	.st5{fill:#774CA5;}
	
		.st6{fill:#774CA5;stroke:#EF6796;stroke-width:1.6604;stroke-linecap:round;stroke-miterlimit:10;stroke-dasharray:12.4526,2.2401;}
	.st7{fill:#774CA5;stroke:#774CA5;stroke-width:3.1319;stroke-miterlimit:10;}
	.st8{fill:none;stroke:#EF6796;stroke-width:3.1319;stroke-linecap:round;stroke-miterlimit:10;stroke-dasharray:9.3958,9.2296;}
	.st9{fill:#634B9D;stroke:#634B9D;stroke-width:3.1319;stroke-miterlimit:10;}
	.st10{fill:#634B9D;stroke:#634B9D;stroke-width:1.566;stroke-miterlimit:10;}
	.st11{fill:#F36898;stroke:#F36898;stroke-width:1.566;stroke-miterlimit:10;}
	.st12{fill:#FFFFFF;stroke:#F36898;stroke-width:1.566;stroke-linecap:round;stroke-miterlimit:10;}
	.st13{fill:#FFFFFF;stroke:#EF6796;stroke-width:3.1319;stroke-miterlimit:10;}
	.st14{fill:#FFFFFF;stroke:#F36898;stroke-width:1.566;stroke-miterlimit:10;}
	.st15{fill:#624D9E;}
	.st16{fill:#DE223E;}
	.st17{fill:#6344AE;stroke:#6344AE;stroke-width:3.1319;}
	.st18{fill:#6344AE;stroke:#F36898;stroke-width:2.5731;}
	.st19{fill:#6344AE;stroke:#F36898;stroke-width:2.6204;}
	.st20{fill:#EB4F86;}
	.st21{fill:#DE223D;}
	.st22{fill:#E8364D;}
	.st23{fill:#231E20;}
</style>
<path id="XMLID_777_" class="st0" d="M240.0947,230.3882c-52.65-4.4377-231.2053,11.5019-230.5955,37.3776
	c0.6098,25.8757,40.5739,31.8266,98.766,36.7314s174.7924,12.1501,176.4134-7.0815c1.6209-19.2316-48.4741-20.8715-47.5015-32.4105
	c0.9726-11.539,35.6107-8.6195,32.3186-19.2267C266.2036,235.1712,265.0342,232.4903,240.0947,230.3882z"/>
<linearGradient id="XMLID_5_" gradientUnits="userSpaceOnUse" x1="68.7032" y1="246.1135" x2="68.7032" y2="200.6082">
	<stop  offset="0" style="stop-color:#F183A8"/>
	<stop  offset="1" style="stop-color:#774CA5"/>
</linearGradient>
<path id="XMLID_775_" class="st1" d="M68.7032,200.6082c-20.0979,0-36.3904,16.2925-36.3904,36.3904v1.8368
	c0,4.0029,3.2751,7.2781,7.2781,7.2781h58.2247c4.003,0,7.2781-3.2751,7.2781-7.2781v-1.8368
	C105.0936,216.9007,88.8011,200.6082,68.7032,200.6082z"/>
<linearGradient id="XMLID_6_" gradientUnits="userSpaceOnUse" x1="283.9869" y1="246.1135" x2="283.9869" y2="200.6082">
	<stop  offset="0" style="stop-color:#F183A8"/>
	<stop  offset="1" style="stop-color:#774CA5"/>
</linearGradient>
<path id="XMLID_773_" class="st2" d="M283.9869,200.6082c-20.0979,0-36.3904,16.2925-36.3904,36.3904v1.8368
	c0,4.0029,3.2751,7.2781,7.2781,7.2781h58.2247c4.003,0,7.278-3.2751,7.278-7.2781v-1.8368
	C320.3773,216.9007,304.0848,200.6082,283.9869,200.6082z"/>
<linearGradient id="XMLID_7_" gradientUnits="userSpaceOnUse" x1="169.0898" y1="245.7109" x2="169.0898" y2="144.2634">
	<stop  offset="0" style="stop-color:#F183A8"/>
	<stop  offset="1" style="stop-color:#774CA5"/>
</linearGradient>
<path id="XMLID_763_" class="st3" d="M169.0899,144.2634c-44.8055,0-81.1274,36.3218-81.1274,81.1273v4.0949
	c0,8.924,7.3013,16.2254,16.2254,16.2254h129.8036c8.9241,0,16.2254-7.3014,16.2254-16.2254v-4.0949
	C250.217,180.5852,213.8951,144.2634,169.0899,144.2634z M230.5428,201.6477c-2.9837,1.2431-7.9362-0.2603-8.9307-2.7465
	c-0.9948-2.4862-2.6964-11.1699-14.8788-24.347c-12.1827-13.177-33.3859-18.3049-33.3859-18.3049
	c26.7072,0,49.5857,16.391,59.1248,39.662C232.4723,195.9114,233.5261,200.4046,230.5428,201.6477z"/>
<polyline class="st4" points="175.3033,108.1366 190.2716,100.388 190.2716,101.5599 190.2716,237.8035 175.3033,245.5502 "/>
<g>
	<g>
		<rect x="183.6189" y="144.7066" class="st5" width="22.6922" height="101.1861"/>
		<g>
			<line class="st6" x1="197.2736" y1="149.356" x2="197.2736" y2="240.1157"/>
			<line class="st6" x1="192.6593" y1="149.356" x2="192.6593" y2="240.1157"/>
			<line class="st6" x1="188.0467" y1="149.356" x2="188.0467" y2="240.1157"/>
			<line class="st6" x1="201.8832" y1="149.356" x2="201.8832" y2="240.1157"/>
		</g>
	</g>
	<polyline class="st4" points="206.311,144.7066 214.7847,140.7503 214.7847,169.9754 214.7847,241.7755 206.311,245.8616 	"/>
	<polygon class="st5" points="214.7847,140.7542 192.0926,140.7542 183.6189,144.7066 206.311,144.7066 	"/>
	<polygon class="st0" points="190.2716,100.388 156.2523,107.5768 141.284,115.003 175.3033,108.6233 	"/>
</g>
<g>
	<path class="st7" d="M122.914,110.63v129.9853c0,2.4185-8.5986,4.3776-19.2164,4.3776c-10.6116,0-19.2105-1.9591-19.2105-4.3776
		V110.63"/>
	<path class="st8" d="M122.914,150.5305c0,2.4185-8.5986,4.3714-19.2164,4.3714c-10.6116,0-19.2105-1.953-19.2105-4.3714"/>
	<path class="st8" d="M122.914,165.3484c0,2.4169-8.5986,4.3758-19.2164,4.3758c-10.6116,0-19.2105-1.9588-19.2105-4.3758"/>
	<path class="st8" d="M122.914,180.1721c0,2.4157-8.5986,4.3687-19.2164,4.3687c-10.6116,0-19.2105-1.953-19.2105-4.3687"/>
	<path class="st8" d="M122.914,194.9871c0,2.4169-8.5986,4.3742-19.2164,4.3742c-10.6116,0-19.2105-1.9573-19.2105-4.3742"/>
	<path class="st8" d="M122.914,209.8077c0,2.4157-8.5986,4.3776-19.2164,4.3776c-10.6116,0-19.2105-1.9619-19.2105-4.3776"/>
	<path class="st8" d="M122.914,224.6317c0,2.4126-8.5986,4.3684-19.2164,4.3684c-10.6116,0-19.2105-1.9557-19.2105-4.3684"/>
	<path class="st8" d="M122.914,135.7112c0,2.4169-8.5986,4.3758-19.2164,4.3758c-10.6116,0-19.2105-1.9588-19.2105-4.3758"/>
	<path class="st8" d="M122.914,120.8887c0,2.4215-8.5986,4.3761-19.2164,4.3761c-10.6116,0-19.2105-1.9545-19.2105-4.3761"/>
	<path class="st9" d="M122.914,110.63c0,2.4172-8.5986,4.373-19.2164,4.373c-10.6116,0-19.2105-1.9558-19.2105-4.373
		c0-2.42,8.5989-4.373,19.2105-4.373C114.3154,106.257,122.914,108.21,122.914,110.63z"/>
	<path class="st10" d="M120.4023,101.1918v142.0675c0,0.8217-1.8567,1.4872-4.1521,1.4872c-2.2896,0-4.1493-0.6655-4.1493-1.4872
		V101.1918"/>
	<path class="st11" d="M120.4023,101.1918c0,0.8202-1.8567,1.4915-4.1521,1.4915c-2.2896,0-4.1493-0.6713-4.1493-1.4915
		c0-0.8233,1.8598-1.4872,4.1493-1.4872C118.5456,99.7046,120.4023,100.3685,120.4023,101.1918z"/>
	<line class="st12" x1="116.2502" y1="99.7046" x2="116.2502" y2="95.7688"/>
	<line class="st12" x1="120.4023" y1="101.1918" x2="127.1021" y2="101.1918"/>
	<line class="st12" x1="112.1009" y1="101.1918" x2="105.0858" y2="102.2673"/>
	<line class="st12" x1="116.2502" y1="102.6833" x2="116.2502" y2="107.3193"/>
	<line class="st12" x1="119.1194" y1="102.2673" x2="122.914" y2="106.257"/>
	<line class="st12" x1="113.3869" y1="102.2673" x2="110.0248" y2="106.257"/>
	<line class="st12" x1="113.3869" y1="99.7046" x2="110.0248" y2="97.7334"/>
	<line class="st12" x1="119.1194" y1="99.7046" x2="122.914" y2="97.7334"/>
</g>
<g>
	<polygon class="st0" points="258.965,199.7424 224.7022,199.7424 223.4555,208.3306 260.2177,208.3306 	"/>
	<rect x="213.4057" y="235.5058" class="st0" width="56.8498" height="10.6297"/>
	<polygon class="st0" points="268.6902,228.0787 214.9738,228.0787 213.7241,235.3135 269.9371,235.3135 	"/>
	<polygon class="st0" points="266.3376,221.1205 217.3265,221.1205 216.0676,227.8864 267.5876,227.8864 	"/>
	<polygon class="st0" points="263.7899,214.8471 219.8772,214.8471 218.6183,220.9267 265.0427,220.9267 	"/>
	<polygon class="st0" points="261.4705,209.1958 222.1966,209.1958 220.9528,214.6521 262.7143,214.6521 	"/>
	<g>
		<line class="st13" x1="261.4345" y1="245.5211" x2="261.4345" y2="238.0113"/>
		<line class="st13" x1="255.9004" y1="245.5211" x2="255.9004" y2="238.0113"/>
		<line class="st13" x1="250.366" y1="245.5211" x2="250.366" y2="238.0113"/>
		<line class="st13" x1="244.832" y1="245.5211" x2="244.832" y2="238.0113"/>
		<line class="st13" x1="239.2979" y1="245.5211" x2="239.2979" y2="238.0113"/>
		<line class="st13" x1="233.7666" y1="245.5211" x2="233.7666" y2="238.0113"/>
		<line class="st13" x1="228.2356" y1="245.5211" x2="228.2356" y2="238.0113"/>
		<line class="st13" x1="222.7015" y1="245.5211" x2="222.7015" y2="238.0113"/>
		<line class="st13" x1="217.1613" y1="245.5211" x2="217.1613" y2="238.0113"/>
		<line class="st13" x1="266.9686" y1="245.5211" x2="266.9686" y2="238.0113"/>
	</g>
	<line class="st14" x1="241.7554" y1="199.5876" x2="241.7554" y2="181.7339"/>
</g>
<path id="XMLID_414_" class="st15" d="M342.2538,245.1792c-2.1085,0-3.824-1.7155-3.824-3.8235v-19.3194
	c-9.1403-0.3246-16.6144-1.9145-16.944-1.9854l-5.3013-1.1422l5.1606-1.6718c0.0643-0.0206,5.8299-1.9165,10.2719-5.5701
	c-5.8259-0.5929-9.9303-1.4683-10.1313-1.5115l-5.3003-1.1427l5.1596-1.6713c0.0643-0.0206,5.8299-1.9165,10.2719-5.5701
	c-5.8259-0.5924-9.9303-1.4678-10.1313-1.511l-5.3013-1.1422l5.1606-1.6718c0.0693-0.0226,6.9123-2.2728,11.4337-6.5977
	c-2.8381-0.3648-4.7144-0.7653-4.8159-0.7869l-5.2953-1.1407l5.1536-1.6733c0.0472-0.0151,4.7325-1.5587,7.6731-4.4998
	c2.23-2.2301,3.7576-5.8701,4.3114-7.3319c0.404-1.1894,1.2924-1.311,1.6572-1.311c0.4522,0,1.2663,0.1648,1.6421,1.2658
	c0.5789,1.5281,2.1045,5.1546,4.3265,7.3766c2.9416,2.9416,7.6268,4.4852,7.674,4.5003l5.0963,1.6542l-5.231,1.1577
	c-0.1005,0.0221-1.9667,0.4311-4.8109,0.8c4.5204,4.3179,11.3523,6.5641,11.4216,6.5867l5.1053,1.6537l-5.239,1.1582
	c-0.199,0.0442-4.2762,0.9361-10.1192,1.5291c4.44,3.6426,10.1885,5.5334,10.2528,5.554l5.1043,1.6532l-5.2379,1.1587
	c-0.199,0.0442-4.2762,0.9366-10.1202,1.5291c4.441,3.6431,10.1895,5.534,10.2538,5.5546l5.1043,1.6532l-5.2379,1.1587
	c-0.2905,0.0643-6.8882,1.506-15.3712,1.9296v19.3772C346.0767,243.4637,344.3622,245.1792,342.2538,245.1792z M326.9629,218.039
	c3.2973,0.4859,7.9544,1.0201,12.9542,1.1206l1.4291,0.0286v22.1676c0,0.4995,0.407,0.906,0.9075,0.906
	c0.4995,0,0.9065-0.4065,0.9065-0.906v-22.1826l1.407-0.0497c4.439-0.1563,8.4801-0.6321,11.4227-1.0713
	c-2.5537-1.2592-5.6912-3.131-8.1967-5.6364c-0.3025-0.302-0.5939-0.6206-0.8804-0.9467l-1.9467-2.2104l2.9386-0.208
	c3.1044-0.2201,5.8972-0.5668,8.0851-0.8939c-2.5537-1.2592-5.6912-3.131-8.1967-5.6359c-0.3025-0.3025-0.5939-0.6206-0.8804-0.9467
	l-1.9467-2.2105l2.9376-0.208c3.1084-0.2206,5.9013-0.5673,8.0871-0.8939c-2.5547-1.2587-5.6922-3.1305-8.1977-5.6359
	c-0.5849-0.5854-1.1598-1.2422-1.7577-2.0095l-1.6422-2.1084l2.6612-0.2407c0.9337-0.0844,1.812-0.1834,2.612-0.2859
	c-1.4381-0.81-2.9919-1.8648-4.2973-3.1707c-1.6904-1.6894-2.9959-3.9385-3.9064-5.8495c-0.9105,1.913-2.216,4.1606-3.9064,5.85
	c-1.3004,1.3004-2.8461,2.3517-4.2792,3.1602c0.8,0.1015,1.6753,0.2,2.6039,0.2844l2.6562,0.2422l-1.6371,2.1054
	c-0.601,0.7728-1.1789,1.4346-1.7668,2.0225c-2.4974,2.4974-5.6239,4.3651-8.1735,5.6244c2.1939,0.3236,4.9857,0.6683,8.076,0.8914
	l2.9225,0.211l-1.9306,2.2044c-0.2904,0.3321-0.5869,0.6568-0.8944,0.9638c-2.4974,2.4974-5.6239,4.3656-8.1735,5.6244
	c2.1929,0.3236,4.9857,0.6688,8.076,0.8919l2.9255,0.211l-1.9346,2.2054c-0.2904,0.3306-0.5859,0.6547-0.8924,0.9618
	C332.6371,214.912,329.5116,216.7803,326.9629,218.039z"/>
<polygon id="XMLID_413_" class="st15" points="271.9745,91.3432 275.3986,98.1132 282.8954,99.2777 277.5148,104.6262 
	278.724,112.1159 271.9745,108.6515 265.2251,112.1159 266.4343,104.6262 261.0536,99.2777 268.5504,98.1132 "/>
<polygon id="XMLID_405_" class="st15" points="288.0795,145.7168 291.5036,152.4868 299.0004,153.6513 293.6198,158.9998 
	294.829,166.4895 288.0795,163.0251 281.33,166.4895 282.5392,158.9998 277.1586,153.6513 284.6554,152.4868 "/>
<polygon id="XMLID_404_" class="st15" points="32.3128,91.3432 35.7369,98.1132 43.2337,99.2777 37.8531,104.6262 39.0623,112.1159 
	32.3128,108.6515 25.5633,112.1159 26.7725,104.6262 21.3919,99.2777 28.8887,98.1132 "/>
<g id="XMLID_397_">
	<rect id="XMLID_403_" x="75.0506" y="36.2406" class="st15" width="3.4131" height="57.1537"/>
	
		<rect id="XMLID_402_" x="75.0506" y="36.2406" transform="matrix(0.866 -0.5 0.5 0.866 -22.1252 47.0625)" class="st15" width="3.4131" height="57.1537"/>
	
		<rect id="XMLID_401_" x="75.0506" y="36.2406" transform="matrix(0.5 -0.866 0.866 0.5 -17.755 98.8824)" class="st15" width="3.4131" height="57.1537"/>
	
		<rect id="XMLID_400_" x="75.0506" y="36.2406" transform="matrix(4.423401e-11 -1 1 4.423401e-11 11.9397 141.5746)" class="st15" width="3.4131" height="57.1537"/>
	
		<rect id="XMLID_399_" x="75.0506" y="36.2406" transform="matrix(-0.5 -0.866 0.866 -0.5 59.0022 163.6998)" class="st15" width="3.4131" height="57.1537"/>
	
		<rect id="XMLID_398_" x="75.0506" y="36.2406" transform="matrix(-0.866 -0.5 0.5 -0.866 110.8221 159.3296)" class="st15" width="3.4131" height="57.1537"/>
</g>
<path id="XMLID_389_" class="st16" d="M14.8494,211.7679c-0.1541-0.1541-0.3026-0.3168-0.4486-0.4829
	c4.1173-0.2916,7.2104-0.9755,7.2104-0.9755s-4.1101-1.3258-6.7618-3.9775c-0.5103-0.5103-0.9751-1.095-1.3951-1.7052
	c2.2856-0.1924,3.9519-0.5607,3.9519-0.5607s-2.5107-0.8099-4.1305-2.4297c-1.182-1.182-1.9753-3.0097-2.318-3.9117
	c-0.0451-0.1186-0.0509-0.1985-0.1522-0.1985c-0.1012,0-0.1041,0.0716-0.1467,0.1842c-0.3396,0.8968-1.1352,2.7377-2.3235,3.926
	c-1.6198,1.6198-4.1305,2.4297-4.1305,2.4297s1.6793,0.3615,3.9557,0.5554c-0.4209,0.6122-0.887,1.1987-1.3989,1.7106
	C4.1101,208.9836,0,210.3094,0,210.3094s3.1186,0.6721,7.2169,0.9679c-0.148,0.1689-0.2987,0.3342-0.4551,0.4906
	C4.1101,214.4195,0,215.7454,0,215.7454s3.1186,0.672,7.2169,0.9679c-0.148,0.1689-0.2987,0.3342-0.4551,0.4906
	C4.1101,219.8555,0,221.1813,0,221.1813s3.1186,0.6721,7.2169,0.9679c-0.148,0.1689-0.2987,0.3342-0.4551,0.4906
	C4.1101,225.2915,0,226.6173,0,226.6173s3.1186,0.672,7.2169,0.9679c-0.148,0.1689-0.2987,0.3342-0.4551,0.4906
	C4.1101,230.7274,0,232.0533,0,232.0533s3.1186,0.672,7.2169,0.9679c-0.148,0.1689-0.2987,0.3342-0.4551,0.4906
	C4.1101,236.1634,0,237.4892,0,237.4892s4.5843,0.9874,9.9406,1.0949v10.5439c0,0.7175,0.5816,1.2991,1.2991,1.2991
	c0.7175,0,1.2991-0.5816,1.2991-1.2991v-10.5641c5.0109-0.1765,9.0724-1.0747,9.0724-1.0747s-4.1101-1.3258-6.7618-3.9775
	c-0.1541-0.1541-0.3026-0.3168-0.4486-0.4829c4.1173-0.2916,7.2104-0.9755,7.2104-0.9755s-4.1101-1.3259-6.7618-3.9775
	c-0.1541-0.1541-0.3026-0.3168-0.4486-0.4829c4.1173-0.2916,7.2104-0.9755,7.2104-0.9755s-4.1101-1.3258-6.7618-3.9775
	c-0.1541-0.1541-0.3026-0.3168-0.4486-0.4829c4.1173-0.2916,7.2104-0.9755,7.2104-0.9755s-4.1101-1.3258-6.7618-3.9775
	c-0.1541-0.1541-0.3026-0.3168-0.4486-0.4829c4.1173-0.2916,7.2104-0.9755,7.2104-0.9755S17.5011,214.4195,14.8494,211.7679z"/>
<g>
	<polyline class="st17" points="99.7963,205.029 115.2242,197.1005 142.2371,197.1005 127.275,204.8533 	"/>
	<g>
		<polyline class="st17" points="100.1119,254.5751 126.8061,254.5751 126.8061,205.017 100.199,205.017 100.199,254.5751 		"/>
		<g>
			<line class="st18" x1="109.8433" y1="210.5123" x2="104.3631" y2="210.5123"/>
			<line class="st18" x1="104.3631" y1="215.8061" x2="109.8433" y2="215.8061"/>
			<line class="st18" x1="104.3631" y1="242.245" x2="109.8433" y2="242.245"/>
			<line class="st18" x1="104.3631" y1="236.9558" x2="109.8433" y2="236.9558"/>
			<line class="st18" x1="104.3631" y1="231.6694" x2="109.8433" y2="231.6694"/>
			<line class="st18" x1="104.3631" y1="226.3845" x2="109.8433" y2="226.3845"/>
			<line class="st18" x1="104.3631" y1="221.0907" x2="109.8433" y2="221.0907"/>
		</g>
		<g>
			<line class="st19" x1="115.7198" y1="210.5123" x2="121.2001" y2="210.5123"/>
			<line class="st19" x1="115.7198" y1="215.9984" x2="121.2001" y2="215.9984"/>
			<line class="st19" x1="115.7198" y1="243.4258" x2="121.2001" y2="243.4258"/>
			<line class="st19" x1="115.7198" y1="237.9397" x2="121.2001" y2="237.9397"/>
			<line class="st19" x1="115.7198" y1="232.4536" x2="121.2001" y2="232.4536"/>
			<line class="st19" x1="115.7198" y1="226.9721" x2="121.2001" y2="226.9721"/>
			<line class="st19" x1="115.7198" y1="221.4783" x2="121.2001" y2="221.4783"/>
		</g>
	</g>
	<polygon class="st5" points="142.7305,244.6233 127.8763,255.6265 127.9503,206.5672 142.7305,196.2095 	"/>
</g>
<path id="XMLID_380_" class="st20" d="M182.3444,288.6335c-2.294-0.0135-3.9742-1.6539-5.4572-3.1014
	c-1.2397-1.2095-2.407-2.3498-3.6421-2.3588c-1.2758,0-2.5584,1.1357-3.917,2.3377c-1.675,1.4791-3.3936,2.9974-5.6364,2.9974
	c-2.2421-0.015-4.0413-1.5198-5.781-2.9749c-1.4618-1.2246-2.9658-2.4838-4.39-2.4944c-1.2509,0-2.215,0.8661-3.6572,2.291
	c-1.446,1.4279-3.0856,3.0457-5.4775,3.0471c-2.4725-0.0181-4.155-1.693-5.6402-3.1707c-1.1786-1.1734-2.2925-2.282-3.4968-2.291
	c-1.3022,0-2.5847,1.1718-3.9426,2.41c-1.5929,1.4611-3.1933,2.9282-5.2011,2.9282c-0.7516-0.006-1.3368-0.598-1.3315-1.321
	c0.003-0.3781,0.1679-0.7381,0.4541-0.9851c0.2372-0.2048,0.543-0.3178,0.8601-0.3178c0.9444,0,2.0063-0.9128,3.4056-2.2007
	c1.687-1.5439,3.4252-3.136,5.7388-3.136c2.3121,0.0166,3.9328,1.6298,5.3623,3.0517c1.2396,1.2336,2.41,2.3995,3.7717,2.4085
	c1.2419,0,2.2082-0.8646,3.6542-2.288c1.4483-1.4294,3.0886-3.0487,5.4798-3.0487c2.404,0.0166,4.2763,1.5831,6.0875,3.0984
	c1.4483,1.2141,2.8167,2.3603,4.0857,2.3708c1.2796,0,2.6209-1.1899,3.9185-2.3407c1.6659-1.4716,3.3883-2.9944,5.6357-2.9944
	c2.3279,0.0151,4.0081,1.6554,5.4911,3.1029c1.2434,1.2125,2.4085,2.3482,3.6406,2.3588c0.3525,0.0015,0.6808,0.1401,0.9263,0.3886
	c0.2463,0.25,0.3803,0.5799,0.3781,0.9308c-0.0053,0.7185-0.5927,1.3014-1.3097,1.3029L182.3444,288.6335z M197.215,275.7656
	c-2.2948-0.015-3.975-1.6554-5.4572-3.1014c-1.2374-1.208-2.4062-2.3498-3.6421-2.3588c-1.2766,0-2.5584,1.1357-3.9163,2.3377
	c-1.6727,1.4776-3.3936,2.9974-5.6394,2.9974c-2.2443-0.0165-4.0443-1.5243-5.7863-2.9824
	c-1.4603-1.2216-2.9613-2.4763-4.3825-2.4868c-1.2509,0-2.2149,0.8661-3.6572,2.291c-1.446,1.4264-3.0856,3.0457-5.4775,3.0457
	c-2.468-0.0166-4.152-1.69-5.6379-3.1677c-1.1809-1.1749-2.2948-2.2835-3.499-2.2925c-1.3052,0-2.5893,1.1734-3.9487,2.416
	c-1.5838,1.452-3.185,2.9206-5.1943,2.9206c-0.3803-0.003-0.7087-0.1416-0.9542-0.3901c-0.2463-0.25-0.3803-0.5799-0.3781-0.9308
	c0.0023-0.3781,0.168-0.7366,0.4541-0.9836c0.2372-0.2049,0.5407-0.3193,0.854-0.3193c0.9542,0.0015,2.0154-0.9113,3.4124-2.2007
	c1.6908-1.5469,3.4267-3.136,5.7381-3.136c2.3113,0.0166,3.9328,1.6298,5.363,3.0532c1.2411,1.2336,2.4115,2.3979,3.7694,2.4085
	c1.2427,0,2.2097-0.8661,3.6564-2.2895c1.4483-1.4294,3.0886-3.0487,5.482-3.0487c2.4002,0.0166,4.2725,1.5831,6.0823,3.0984
	c1.4573,1.2186,2.8235,2.3618,4.0902,2.3708c1.2773,0,2.5591-1.1357,3.9163-2.3377c1.6659-1.4731,3.3883-2.9975,5.6357-2.9975
	c2.3294,0.0166,4.0096,1.6569,5.4918,3.1029c1.2374,1.208,2.4062,2.3497,3.6414,2.3588c0.723,0.0045,1.3082,0.5965,1.3029,1.3195
	c-0.006,0.7185-0.5935,1.3029-1.3097,1.3044L197.215,275.7656z M212.0862,262.8961c-2.294-0.0135-3.9743-1.6539-5.4572-3.1014
	c-1.2374-1.208-2.4047-2.3483-3.6406-2.3588c-1.2796,0-2.5614,1.1372-3.9185,2.3407c-1.6719,1.4746-3.3928,2.9944-5.6364,2.9944
	c-2.2473-0.015-4.0481-1.5228-5.7893-2.9809c-1.4535-1.2186-2.9575-2.4778-4.3817-2.4883c-1.2495,0-2.2142,0.8661-3.6572,2.2925
	c-1.446,1.4265-3.0856,3.0457-5.4805,3.0457c-2.468-0.0166-4.152-1.693-5.6372-3.1707c-1.1786-1.1734-2.2925-2.282-3.4968-2.291
	c-1.2999,0-2.581,1.1689-3.9366,2.404c-1.5951,1.4641-3.1963,2.9342-5.2071,2.9342c-0.7516-0.006-1.3368-0.598-1.3315-1.321
	c0.003-0.3781,0.168-0.7366,0.4526-0.9836c0.2387-0.2064,0.5438-0.3193,0.8616-0.3193c0.9444,0,2.0063-0.9128,3.4057-2.2006
	c1.6893-1.5454,3.4267-3.136,5.7388-3.136c2.3121,0.0166,3.9328,1.6298,5.3623,3.0517c1.2389,1.2336,2.41,2.3994,3.7702,2.41
	c1.2419,0,2.2089-0.8661,3.6557-2.2895c1.4475-1.4294,3.0863-3.0487,5.4828-3.0487c2.4017,0.0166,4.2733,1.5831,6.0838,3.0984
	c1.4528,1.217,2.8205,2.3618,4.088,2.3708c1.2766,0,2.5591-1.1372,3.9163-2.3407c1.6659-1.4716,3.3876-2.9944,5.6364-2.9944
	c2.3272,0.0151,4.0066,1.6554,5.4888,3.1014c1.2396,1.2095,2.4085,2.3513,3.6444,2.3603c0.723,0.0045,1.3074,0.5965,1.3029,1.3195
	c-0.0053,0.7185-0.5927,1.3014-1.3097,1.3029L212.0862,262.8961z"/>
<g id="XMLID_359_">
	<g id="XMLID_370_">
		<path id="XMLID_371_" class="st0" d="M295.2796,246.6774h-0.0035c-0.8294-0.0028-1.498-0.6761-1.4951-1.5036l0.0176-17.507
			c0.0028-0.8259,0.6732-1.4934,1.4984-1.4934h0.0053c0.8276,0.0028,1.4962,0.6761,1.4934,1.5036l-0.0176,17.507
			C296.7751,246.0098,296.1047,246.6774,295.2796,246.6774z"/>
	</g>
	<g id="XMLID_368_">
		<path id="XMLID_369_" class="st0" d="M288.3897,246.6774h-0.0053c-0.8276-0.0028-1.4962-0.6761-1.4933-1.5036l0.0176-17.507
			c0.0028-0.8259,0.6732-1.4934,1.4984-1.4934h0.0053c0.8276,0.0028,1.4962,0.6761,1.4934,1.5036l-0.0176,17.507
			C289.8853,246.0098,289.2148,246.6774,288.3897,246.6774z"/>
	</g>
	<path id="XMLID_362_" class="st21" d="M303.8419,209.7522L303.8419,209.7522l0.0001,29.2999h-22.7794v-29.2999h0.0001
		l-0.0001-0.0023c0-6.2912,5.0994-11.3906,11.3897-11.3906c6.2903,0,11.3897,5.0994,11.3897,11.3894L303.8419,209.7522z
		 M292.6935,212.7616c0.9086,0,1.6451-0.7365,1.6451-1.645c0-0.9085-0.7365-1.6451-1.6451-1.6451s-1.6451,0.7365-1.6451,1.6451
		C291.0484,212.0252,291.7849,212.7616,292.6935,212.7616z M292.6935,219.132c4.4197,0,8.0154-3.5956,8.0154-8.0154
		c0-4.4198-3.5957-8.0154-8.0154-8.0154s-8.0157,3.5955-8.0157,8.0154C284.6778,215.5364,288.2737,219.132,292.6935,219.132z
		 M292.6935,208.2445c1.5835,0,2.8719,1.2884,2.8719,2.8721c0,1.5837-1.2884,2.8721-2.8719,2.8721
		c-1.5837,0-2.8719-1.2883-2.8719-2.8721C289.8215,209.5329,291.1097,208.2445,292.6935,208.2445z"/>
	<polygon id="XMLID_360_" class="st21" points="281.6203,209.0121 269.563,213.1461 282.6537,219.0025 	"/>
</g>
<polygon class="st22" points="175.3033,108.6233 141.1851,115.2302 141.1851,245.3595 175.3033,245.3595 "/>
<g>
	<g>
		<g>
			<g>
				<path class="st23" d="M148.3197,124.7821c1.0563-0.248,2.1141,0.4142,2.3616,1.4796c0.2453,1.0663-0.4099,2.1327-1.4661,2.3823
					c-1.0568,0.2497-2.1141-0.4131-2.3605-1.48C146.6066,126.0992,147.2635,125.0313,148.3197,124.7821z"/>
			</g>
			<g>
				<path class="st23" d="M148.3197,134.3024c1.0563-0.248,2.1141,0.4142,2.3616,1.4796c0.2453,1.0663-0.4099,2.1327-1.4661,2.3823
					c-1.0568,0.2497-2.1141-0.4131-2.3605-1.48C146.6066,135.6195,147.2635,134.5516,148.3197,134.3024z"/>
			</g>
			<g>
				<path class="st23" d="M148.3197,143.8227c1.0563-0.248,2.1141,0.4142,2.3616,1.4796c0.2453,1.0663-0.4099,2.1327-1.4661,2.3823
					c-1.0568,0.2497-2.1141-0.4131-2.3605-1.48C146.6066,145.1398,147.2635,144.0719,148.3197,143.8227z"/>
			</g>
			<g>
				<path class="st23" d="M148.3197,153.343c1.0563-0.248,2.1141,0.4142,2.3616,1.4796c0.2453,1.0663-0.4099,2.1327-1.4661,2.3823
					c-1.0568,0.2497-2.1141-0.4131-2.3605-1.48C146.6066,154.66,147.2635,153.5922,148.3197,153.343z"/>
			</g>
			<g>
				<path class="st23" d="M148.3197,162.8633c1.0563-0.248,2.1141,0.4142,2.3616,1.4796c0.2453,1.0663-0.4099,2.1327-1.4661,2.3823
					c-1.0568,0.2497-2.1141-0.4131-2.3605-1.48C146.6066,164.1803,147.2635,163.1125,148.3197,162.8633z"/>
			</g>
			<g>
				<path class="st23" d="M148.3197,172.3835c1.0563-0.248,2.1141,0.4142,2.3616,1.4796c0.2453,1.0663-0.4099,2.1327-1.4661,2.3823
					c-1.0568,0.2497-2.1141-0.4131-2.3605-1.48C146.6066,173.7006,147.2635,172.6328,148.3197,172.3835z"/>
			</g>
			<g>
				<path class="st23" d="M148.3197,181.9038c1.0563-0.248,2.1141,0.4142,2.3616,1.4796c0.2453,1.0663-0.4099,2.1327-1.4661,2.3823
					c-1.0568,0.2497-2.1141-0.4131-2.3605-1.48C146.6066,183.2209,147.2635,182.1531,148.3197,181.9038z"/>
			</g>
			<g>
				<path class="st23" d="M148.3197,191.4241c1.0563-0.248,2.1141,0.4142,2.3616,1.4796c0.2453,1.0663-0.4099,2.1327-1.4661,2.3823
					c-1.0568,0.2497-2.1141-0.4131-2.3605-1.48C146.6066,192.7412,147.2635,191.6734,148.3197,191.4241z"/>
			</g>
			<g>
				<path class="st23" d="M148.3197,200.9444c1.0563-0.248,2.1141,0.4142,2.3616,1.4796c0.2453,1.0663-0.4099,2.1327-1.4661,2.3823
					c-1.0568,0.2497-2.1141-0.4131-2.3605-1.48C146.6066,202.2615,147.2635,201.1937,148.3197,200.9444z"/>
			</g>
			<g>
				<path class="st23" d="M148.3197,210.4647c1.0563-0.248,2.1141,0.4142,2.3616,1.4796c0.2453,1.0663-0.4099,2.1327-1.4661,2.3823
					c-1.0568,0.2497-2.1141-0.4131-2.3605-1.48C146.6066,211.7818,147.2635,210.714,148.3197,210.4647z"/>
			</g>
			<g>
				<path class="st23" d="M148.3197,219.985c1.0563-0.248,2.1141,0.4142,2.3616,1.4796c0.2453,1.0663-0.4099,2.1327-1.4661,2.3823
					c-1.0568,0.2497-2.1141-0.4131-2.3605-1.48C146.6066,221.3021,147.2635,220.2343,148.3197,219.985z"/>
			</g>
			<g>
				<path class="st23" d="M148.3197,229.5053c1.0563-0.248,2.1141,0.4142,2.3616,1.4796c0.2453,1.0663-0.4099,2.1327-1.4661,2.3823
					c-1.0568,0.2497-2.1141-0.4131-2.3605-1.48C146.6066,230.8224,147.2635,229.7545,148.3197,229.5053z"/>
			</g>
		</g>
	</g>
</g>
<g>
	<g>
		<g>
			<g>
				<path class="st23" d="M157.1318,124.4507c1.0563-0.2505,2.1141,0.4183,2.3616,1.494c0.2453,1.0767-0.4099,2.1535-1.4661,2.4056
					c-1.0569,0.2521-2.1141-0.4172-2.3605-1.4945C155.4188,125.7807,156.0756,124.7024,157.1318,124.4507z"/>
			</g>
			<g>
				<path class="st23" d="M157.1318,134.064c1.0563-0.2505,2.1141,0.4183,2.3616,1.494c0.2453,1.0767-0.4099,2.1535-1.4661,2.4056
					c-1.0569,0.2521-2.1141-0.4172-2.3605-1.4945C155.4188,135.394,156.0756,134.3157,157.1318,134.064z"/>
			</g>
			<g>
				<path class="st23" d="M157.1318,143.6773c1.0563-0.2505,2.1141,0.4183,2.3616,1.494c0.2453,1.0767-0.4099,2.1535-1.4661,2.4056
					c-1.0569,0.2521-2.1141-0.4172-2.3605-1.4944C155.4188,145.0073,156.0756,143.929,157.1318,143.6773z"/>
			</g>
			<g>
				<path class="st23" d="M157.1318,153.2906c1.0563-0.2505,2.1141,0.4183,2.3616,1.494c0.2453,1.0768-0.4099,2.1535-1.4661,2.4056
					c-1.0569,0.2521-2.1141-0.4172-2.3605-1.4944C155.4188,154.6206,156.0756,153.5423,157.1318,153.2906z"/>
			</g>
			<g>
				<path class="st23" d="M157.1318,162.9039c1.0563-0.2505,2.1141,0.4183,2.3616,1.494c0.2453,1.0768-0.4099,2.1535-1.4661,2.4056
					c-1.0569,0.2521-2.1141-0.4171-2.3605-1.4944C155.4188,164.2339,156.0756,163.1556,157.1318,162.9039z"/>
			</g>
			<g>
				<path class="st23" d="M157.1318,172.5172c1.0563-0.2505,2.1141,0.4183,2.3616,1.494c0.2453,1.0768-0.4099,2.1535-1.4661,2.4056
					c-1.0569,0.2521-2.1141-0.4172-2.3605-1.4945C155.4188,173.8472,156.0756,172.7689,157.1318,172.5172z"/>
			</g>
			<g>
				<path class="st23" d="M157.1318,182.1305c1.0563-0.2505,2.1141,0.4183,2.3616,1.494c0.2453,1.0768-0.4099,2.1535-1.4661,2.4056
					c-1.0569,0.2521-2.1141-0.4172-2.3605-1.4945C155.4188,183.4605,156.0756,182.3822,157.1318,182.1305z"/>
			</g>
			<g>
				<path class="st23" d="M157.1318,191.7438c1.0563-0.2505,2.1141,0.4183,2.3616,1.494c0.2453,1.0767-0.4099,2.1535-1.4661,2.4056
					c-1.0569,0.2521-2.1141-0.4172-2.3605-1.4945C155.4188,193.0738,156.0756,191.9955,157.1318,191.7438z"/>
			</g>
			<g>
				<path class="st23" d="M157.1318,201.3571c1.0563-0.2505,2.1141,0.4183,2.3616,1.494c0.2453,1.0767-0.4099,2.1535-1.4661,2.4056
					c-1.0569,0.2521-2.1141-0.4172-2.3605-1.4944C155.4188,202.6871,156.0756,201.6088,157.1318,201.3571z"/>
			</g>
			<g>
				<path class="st23" d="M157.1318,210.9704c1.0563-0.2505,2.1141,0.4183,2.3616,1.494c0.2453,1.0768-0.4099,2.1535-1.4661,2.4056
					c-1.0569,0.2521-2.1141-0.4171-2.3605-1.4944C155.4188,212.3004,156.0756,211.2221,157.1318,210.9704z"/>
			</g>
			<g>
				<path class="st23" d="M157.1318,220.5837c1.0563-0.2505,2.1141,0.4183,2.3616,1.494c0.2453,1.0768-0.4099,2.1535-1.4661,2.4056
					c-1.0569,0.2521-2.1141-0.4172-2.3605-1.4945C155.4188,221.9137,156.0756,220.8354,157.1318,220.5837z"/>
			</g>
			<g>
				<path class="st23" d="M157.1318,230.197c1.0563-0.2505,2.1141,0.4183,2.3616,1.494c0.2453,1.0768-0.4099,2.1535-1.4661,2.4056
					c-1.0569,0.2521-2.1141-0.4172-2.3605-1.4945C155.4188,231.527,156.0756,230.4487,157.1318,230.197z"/>
			</g>
		</g>
	</g>
</g>
<g>
	<g>
		<g>
			<g>
				<path class="st23" d="M165.9409,123.6665c1.0563-0.2505,2.1141,0.4183,2.3616,1.494c0.2453,1.0767-0.4099,2.1535-1.4661,2.4056
					c-1.0568,0.2521-2.1141-0.4172-2.3605-1.4945C164.2278,124.9965,164.8847,123.9182,165.9409,123.6665z"/>
			</g>
			<g>
				<path class="st23" d="M165.9409,133.2798c1.0563-0.2505,2.1141,0.4183,2.3616,1.494c0.2453,1.0767-0.4099,2.1535-1.4661,2.4056
					c-1.0568,0.2521-2.1141-0.4172-2.3605-1.4945C164.2278,134.6098,164.8847,133.5315,165.9409,133.2798z"/>
			</g>
			<g>
				<path class="st23" d="M165.9409,142.8931c1.0563-0.2505,2.1141,0.4183,2.3616,1.494c0.2453,1.0767-0.4099,2.1535-1.4661,2.4056
					c-1.0568,0.2521-2.1141-0.4172-2.3605-1.4944C164.2278,144.2231,164.8847,143.1448,165.9409,142.8931z"/>
			</g>
			<g>
				<path class="st23" d="M165.9409,152.5064c1.0563-0.2505,2.1141,0.4183,2.3616,1.494c0.2453,1.0768-0.4099,2.1535-1.4661,2.4056
					c-1.0568,0.2521-2.1141-0.4171-2.3605-1.4944C164.2278,153.8364,164.8847,152.7581,165.9409,152.5064z"/>
			</g>
			<g>
				<path class="st23" d="M165.9409,162.1197c1.0563-0.2505,2.1141,0.4183,2.3616,1.494c0.2453,1.0768-0.4099,2.1535-1.4661,2.4056
					c-1.0568,0.2521-2.1141-0.4171-2.3605-1.4944C164.2278,163.4497,164.8847,162.3714,165.9409,162.1197z"/>
			</g>
			<g>
				<path class="st23" d="M165.9409,171.733c1.0563-0.2505,2.1141,0.4183,2.3616,1.494c0.2453,1.0768-0.4099,2.1535-1.4661,2.4056
					c-1.0568,0.2521-2.1141-0.4172-2.3605-1.4945C164.2278,173.063,164.8847,171.9847,165.9409,171.733z"/>
			</g>
			<g>
				<path class="st23" d="M165.9409,181.3463c1.0563-0.2505,2.1141,0.4183,2.3616,1.494c0.2453,1.0768-0.4099,2.1535-1.4661,2.4056
					c-1.0568,0.2521-2.1141-0.4172-2.3605-1.4945C164.2278,182.6763,164.8847,181.598,165.9409,181.3463z"/>
			</g>
			<g>
				<path class="st23" d="M165.9409,190.9596c1.0563-0.2505,2.1141,0.4183,2.3616,1.494c0.2453,1.0767-0.4099,2.1535-1.4661,2.4056
					c-1.0568,0.2521-2.1141-0.4172-2.3605-1.4944C164.2278,192.2896,164.8847,191.2113,165.9409,190.9596z"/>
			</g>
			<g>
				<path class="st23" d="M165.9409,200.5729c1.0563-0.2505,2.1141,0.4183,2.3616,1.494c0.2453,1.0767-0.4099,2.1535-1.4661,2.4056
					c-1.0568,0.2521-2.1141-0.4172-2.3605-1.4944C164.2278,201.9029,164.8847,200.8246,165.9409,200.5729z"/>
			</g>
			<g>
				<path class="st23" d="M165.9409,210.1862c1.0563-0.2505,2.1141,0.4183,2.3616,1.494c0.2453,1.0768-0.4099,2.1535-1.4661,2.4056
					c-1.0568,0.2521-2.1141-0.4171-2.3605-1.4944C164.2278,211.5162,164.8847,210.4379,165.9409,210.1862z"/>
			</g>
			<g>
				<path class="st23" d="M165.9409,219.7995c1.0563-0.2505,2.1141,0.4182,2.3616,1.494c0.2453,1.0768-0.4099,2.1535-1.4661,2.4056
					c-1.0568,0.2521-2.1141-0.4172-2.3605-1.4945C164.2278,221.1295,164.8847,220.0512,165.9409,219.7995z"/>
			</g>
			<g>
				<path class="st23" d="M165.9409,229.4128c1.0563-0.2505,2.1141,0.4183,2.3616,1.494c0.2453,1.0768-0.4099,2.1535-1.4661,2.4056
					c-1.0568,0.2521-2.1141-0.4172-2.3605-1.4945C164.2278,230.7428,164.8847,229.6645,165.9409,229.4128z"/>
			</g>
		</g>
	</g>
</g>
<g>
	<path class="st22" d="M199.4359,22.8527c0,12.6212-22.8527,41.0502-22.8527,41.0502s-22.8527-28.429-22.8527-41.0502
		S163.962,0,176.5832,0C189.2044,0,199.4359,10.2315,199.4359,22.8527z"/>
	<circle class="st5" cx="176.5832" cy="22.8527" r="14.8119"/>
</g>
</svg>
