<?xml version="1.0" encoding="utf-8"?>
<!-- Generator: Adobe Illustrator 22.1.0, SVG Export Plug-In . SVG Version: 6.00 Build 0)  -->
<svg width="384px" height="270px" version="1.1" id="Layer_1" xmlns="http://www.w3.org/2000/svg" xmlns:xlink="http://www.w3.org/1999/xlink" x="0px" y="0px"
	 viewBox="0 0 384 270" style="enable-background:new 0 0 384 270;" xml:space="preserve">
<style type="text/css">
	.st0{fill:url(#XMLID_6_);}
	.st1{fill:url(#XMLID_7_);}
	.st2{fill:#624D9E;}
	.st3{fill:none;stroke:#6344AE;stroke-width:1.562;stroke-miterlimit:10;}
	.st4{fill:url(#XMLID_8_);}
	.st5{fill:#6344AE;stroke:#774CA5;stroke-width:2.4703;}
	.st6{fill:#6344AE;stroke:#774CA5;stroke-width:2.5367;}
	.st7{fill:none;stroke:#774CA5;stroke-width:2.5367;}
	.st8{fill:none;stroke:#F36898;stroke-width:3.805;stroke-miterlimit:10;}
	.st9{fill:none;stroke:#F36898;stroke-width:3.805;stroke-miterlimit:10;stroke-dasharray:1.2627,1.2627;}
	.st10{fill:#E8364D;}
	.st11{fill:url(#XMLID_9_);}
	.st12{fill:url(#XMLID_10_);}
	.st13{fill:#E8364D;stroke:#774CA5;stroke-width:3.4432;stroke-miterlimit:10;}
	.st14{fill:none;stroke:#774CA5;stroke-width:3.4432;stroke-miterlimit:10;stroke-dasharray:10.3297,0.8608;}
	.st15{fill:#6344AE;stroke:#774CA5;stroke-width:3.4432;stroke-miterlimit:10;}
	.st16{fill:#774CA5;stroke:#6344AE;stroke-width:4.1419;}
	.st17{fill:#6344AE;stroke:#6344AE;stroke-width:4.2532;}
	.st18{fill:none;stroke:#F36898;stroke-width:2.86;stroke-miterlimit:10;}
	.st19{fill:none;stroke:#F36898;stroke-width:2.86;stroke-miterlimit:10;stroke-dasharray:0.5181,1.4164;}
	.st20{fill:#774CA5;stroke:#6344AE;stroke-width:5.2111;}
	.st21{fill:#774CA5;stroke:#6344AE;stroke-width:5.3511;}
	.st22{fill:#FFFFFF;stroke:#414041;stroke-width:5.2111;}
	.st23{fill:none;stroke:#414041;stroke-width:5.3511;}
	.st24{fill:#E8364D;stroke:#E8364D;stroke-width:2.86;stroke-dasharray:2.6755,2.6755;}
	.st25{fill:#F36898;stroke:#6344AE;stroke-width:5.2111;}
	.st26{fill:#6344AE;stroke:#6344AE;stroke-width:5.3511;}
	.st27{fill:#6344AE;stroke:#6344AE;stroke-width:1.6655;}
	.st28{fill:#E8364D;stroke:#6344AE;stroke-width:1.6655;}
	.st29{fill:#774CA5;stroke:#6344AE;stroke-width:1.6655;}
	.st30{fill:#6344AE;stroke:#774CA5;stroke-width:1.6655;}
	.st31{fill:#E8364D;stroke:#774CA5;stroke-width:1.6655;}
	.st32{fill:#F36898;stroke:#6344AE;stroke-width:1.6655;}
	.st33{fill:#6344AE;stroke:#6344AE;stroke-width:3.845;}
	.st34{fill:#6344AE;stroke:#6344AE;stroke-width:3.9483;}
	.st35{fill:none;stroke:#F36898;stroke-width:5.9225;stroke-miterlimit:10;}
	.st36{fill:none;stroke:#F36898;stroke-width:5.9225;stroke-miterlimit:10;stroke-dasharray:1.9654,1.9654;}
	.st37{fill:none;stroke:#6344AE;stroke-width:2.6755;stroke-linecap:round;}
	.st38{fill:#774CA5;}
	.st39{fill:#6344AE;}
	.st40{fill:#DE223D;}
</style>
<linearGradient id="XMLID_6_" gradientUnits="userSpaceOnUse" x1="355.745" y1="236.1035" x2="355.745" y2="210.2834">
	<stop  offset="0" style="stop-color:#F183A8"/>
	<stop  offset="1" style="stop-color:#774CA5"/>
</linearGradient>
<path id="XMLID_771_" class="st0" d="M355.745,210.2834c-11.4037,0-20.6482,9.2445-20.6482,20.6482v1.0422
	c0,2.2713,1.8583,4.1296,4.1296,4.1296h33.0371c2.2713,0,4.1296-1.8583,4.1296-4.1296v-1.0422
	C376.3932,219.5279,367.1487,210.2834,355.745,210.2834z"/>
<linearGradient id="XMLID_7_" gradientUnits="userSpaceOnUse" x1="20.6482" y1="242.3001" x2="20.6482" y2="216.4801">
	<stop  offset="0" style="stop-color:#F183A8"/>
	<stop  offset="1" style="stop-color:#774CA5"/>
</linearGradient>
<path id="XMLID_769_" class="st1" d="M20.6482,216.4801C9.2445,216.4801,0,225.7246,0,237.1283v1.0422
	c0,2.2713,1.8583,4.1296,4.1297,4.1296h33.0371c2.2713,0,4.1296-1.8583,4.1296-4.1296v-1.0422
	C41.2964,225.7246,32.0519,216.4801,20.6482,216.4801z"/>
<polygon id="XMLID_412_" class="st2" points="15.3778,34.3432 18.8019,41.1132 26.2987,42.2777 20.9181,47.6262 22.1273,55.1159 
	15.3778,51.6515 8.6284,55.1159 9.8376,47.6262 4.4569,42.2777 11.9538,41.1132 "/>
<polygon id="XMLID_411_" class="st2" points="254.3778,40.2619 256.51,44.4777 261.1783,45.2028 257.8278,48.5333 258.5807,53.1972 
	254.3778,51.0398 250.1749,53.1972 250.9279,48.5333 247.5774,45.2028 252.2457,44.4777 "/>
<polygon id="XMLID_410_" class="st2" points="25.3778,138.2619 27.51,142.4777 32.1783,143.2028 28.8278,146.5333 29.5807,151.1972 
	25.3778,149.0398 21.1749,151.1972 21.9279,146.5333 18.5774,143.2028 23.2457,142.4777 "/>
<polygon id="XMLID_406_" class="st2" points="339.3778,122.2619 341.51,126.4777 346.1783,127.2028 342.8278,130.5333 
	343.5807,135.1972 339.3778,133.0398 335.1749,135.1972 335.9279,130.5333 332.5774,127.2028 337.2457,126.4777 "/>
<g id="XMLID_390_">
	<rect id="XMLID_396_" x="353.4539" y="23.2406" class="st2" width="3.4131" height="57.1537"/>
	
		<rect id="XMLID_395_" x="353.4539" y="23.2406" transform="matrix(0.866 -0.5 0.5 0.866 21.6738 184.5225)" class="st2" width="3.4131" height="57.1537"/>
	
		<rect id="XMLID_394_" x="353.4539" y="23.2406" transform="matrix(0.5 -0.866 0.866 0.5 132.705 333.4867)" class="st2" width="3.4131" height="57.1537"/>
	
		<rect id="XMLID_393_" x="353.4539" y="23.2406" transform="matrix(4.423401e-11 -1 1 4.423401e-11 303.343 406.9779)" class="st2" width="3.4131" height="57.1537"/>
	
		<rect id="XMLID_392_" x="353.4539" y="23.2406" transform="matrix(-0.5 -0.866 0.866 -0.5 487.8655 385.3042)" class="st2" width="3.4131" height="57.1537"/>
	
		<rect id="XMLID_391_" x="353.4539" y="23.2406" transform="matrix(-0.866 -0.5 0.5 -0.866 636.8298 274.2729)" class="st2" width="3.4131" height="57.1537"/>
</g>
<line class="st3" x1="207.794" y1="96.2629" x2="207.794" y2="117.1423"/>
<line class="st3" x1="202.7728" y1="102.7791" x2="212.8152" y2="102.7791"/>
<linearGradient id="XMLID_8_" gradientUnits="userSpaceOnUse" x1="62.8656" y1="243.806" x2="62.8656" y2="197.5979">
	<stop  offset="0" style="stop-color:#F183A8"/>
	<stop  offset="1" style="stop-color:#774CA5"/>
</linearGradient>
<path id="XMLID_301_" class="st4" d="M62.8656,197.5979c-20.4083,0-36.9525,16.5442-36.9525,36.9525v1.8652
	c0,4.0647,3.3257,7.3905,7.3905,7.3905h59.124c4.0648,0,7.3905-3.3257,7.3905-7.3905v-1.8652
	C99.8181,214.142,83.2739,197.5979,62.8656,197.5979z"/>
<g>
	<g>
		<polygon class="st5" points="66.5023,190.4125 46.1232,194.4248 46.1232,247.5126 66.5023,247.5126 		"/>
		<polyline class="st6" points="66.8505,190.1172 75.9407,185.4122 75.9407,186.1225 75.9407,242.9195 66.8505,247.6239 		"/>
		<line class="st5" x1="72.9242" y1="186.1296" x2="52.5451" y2="190.1475"/>
		<line class="st7" x1="45.6834" y1="193.9224" x2="54.7749" y2="189.2166"/>
	</g>
	<g>
		<g>
			<g>
				<line class="st8" x1="65.1519" y1="202.2421" x2="64.5177" y2="202.2421"/>
				<line class="st9" x1="63.255" y1="202.2421" x2="48.7334" y2="202.2421"/>
				<line class="st8" x1="48.102" y1="202.2421" x2="47.4678" y2="202.2421"/>
			</g>
		</g>
		<g>
			<g>
				<line class="st8" x1="65.1519" y1="218.4471" x2="64.5177" y2="218.4471"/>
				<line class="st9" x1="63.255" y1="218.4471" x2="48.7334" y2="218.4471"/>
				<line class="st8" x1="48.102" y1="218.4471" x2="47.4678" y2="218.4471"/>
			</g>
		</g>
		<g>
			<g>
				<line class="st8" x1="65.1519" y1="206.2933" x2="64.5177" y2="206.2933"/>
				<line class="st9" x1="63.255" y1="206.2933" x2="48.7334" y2="206.2933"/>
				<line class="st8" x1="48.102" y1="206.2933" x2="47.4678" y2="206.2933"/>
			</g>
		</g>
		<g>
			<g>
				<line class="st8" x1="65.1519" y1="222.4959" x2="64.5177" y2="222.4959"/>
				<line class="st9" x1="63.255" y1="222.4959" x2="48.7334" y2="222.4959"/>
				<line class="st8" x1="48.102" y1="222.4959" x2="47.4678" y2="222.4959"/>
			</g>
		</g>
		<g>
			<g>
				<line class="st8" x1="65.1519" y1="210.345" x2="64.5177" y2="210.345"/>
				<line class="st9" x1="63.255" y1="210.345" x2="48.7334" y2="210.345"/>
				<line class="st8" x1="48.102" y1="210.345" x2="47.4678" y2="210.345"/>
			</g>
		</g>
		<g>
			<g>
				<line class="st8" x1="65.1519" y1="194.1387" x2="64.5177" y2="194.1387"/>
				<line class="st9" x1="63.255" y1="194.1387" x2="48.7334" y2="194.1387"/>
				<line class="st8" x1="48.102" y1="194.1387" x2="47.4678" y2="194.1387"/>
			</g>
		</g>
		<g>
			<g>
				<line class="st8" x1="65.1519" y1="226.5512" x2="64.5177" y2="226.5512"/>
				<line class="st9" x1="63.255" y1="226.5512" x2="48.7334" y2="226.5512"/>
				<line class="st8" x1="48.102" y1="226.5512" x2="47.4678" y2="226.5512"/>
			</g>
		</g>
		<g>
			<g>
				<line class="st8" x1="65.1519" y1="214.3952" x2="64.5177" y2="214.3952"/>
				<line class="st9" x1="63.255" y1="214.3952" x2="48.7334" y2="214.3952"/>
				<line class="st8" x1="48.102" y1="214.3952" x2="47.4678" y2="214.3952"/>
			</g>
		</g>
		<g>
			<g>
				<line class="st8" x1="65.1519" y1="198.1912" x2="64.5177" y2="198.1912"/>
				<line class="st9" x1="63.255" y1="198.1912" x2="48.7334" y2="198.1912"/>
				<line class="st8" x1="48.102" y1="198.1912" x2="47.4678" y2="198.1912"/>
			</g>
		</g>
		<g>
			<g>
				<line class="st8" x1="65.1519" y1="230.6023" x2="64.5177" y2="230.6023"/>
				<line class="st9" x1="63.255" y1="230.6023" x2="48.7334" y2="230.6023"/>
				<line class="st8" x1="48.102" y1="230.6023" x2="47.4678" y2="230.6023"/>
			</g>
		</g>
		<g>
			<g>
				<line class="st8" x1="65.1519" y1="242.7539" x2="64.5177" y2="242.7539"/>
				<line class="st9" x1="63.255" y1="242.7539" x2="48.7334" y2="242.7539"/>
				<line class="st8" x1="48.102" y1="242.7539" x2="47.4678" y2="242.7539"/>
			</g>
		</g>
		<g>
			<g>
				<line class="st8" x1="65.1519" y1="238.705" x2="64.5177" y2="238.705"/>
				<line class="st9" x1="63.255" y1="238.705" x2="48.7334" y2="238.705"/>
				<line class="st8" x1="48.102" y1="238.705" x2="47.4678" y2="238.705"/>
			</g>
		</g>
		<g>
			<g>
				<line class="st8" x1="65.1519" y1="234.6491" x2="64.5177" y2="234.6491"/>
				<line class="st9" x1="63.255" y1="234.6491" x2="48.7334" y2="234.6491"/>
				<line class="st8" x1="48.102" y1="234.6491" x2="47.4678" y2="234.6491"/>
			</g>
		</g>
		<g>
			<g>
				<line class="st8" x1="65.1519" y1="246.8049" x2="64.5177" y2="246.8049"/>
				<line class="st9" x1="63.255" y1="246.8049" x2="48.7334" y2="246.8049"/>
				<line class="st8" x1="48.102" y1="246.8049" x2="47.4678" y2="246.8049"/>
			</g>
		</g>
	</g>
</g>
<polygon class="st10" points="207.7686,112.5212 196.4664,174.4344 222.2006,174.4344 "/>
<linearGradient id="XMLID_9_" gradientUnits="userSpaceOnUse" x1="322.4776" y1="241.8994" x2="322.4776" y2="195.6912">
	<stop  offset="0" style="stop-color:#F183A8"/>
	<stop  offset="1" style="stop-color:#774CA5"/>
</linearGradient>
<path id="XMLID_299_" class="st11" d="M322.4777,195.6912c-20.4083,0-36.9525,16.5442-36.9525,36.9525v1.8652
	c0,4.0647,3.3257,7.3905,7.3905,7.3905h59.124c4.0648,0,7.3905-3.3257,7.3905-7.3905v-1.8652
	C359.4301,212.2354,342.886,195.6912,322.4777,195.6912z"/>
<linearGradient id="XMLID_10_" gradientUnits="userSpaceOnUse" x1="164.8027" y1="248.1639" x2="164.8027" y2="145.1495">
	<stop  offset="0" style="stop-color:#F183A8"/>
	<stop  offset="1" style="stop-color:#774CA5"/>
</linearGradient>
<path id="XMLID_269_" class="st12" d="M164.8028,145.1495c-45.4975,0-82.3804,36.8828-82.3804,82.3803v4.1581
	c0,9.0618,7.414,16.476,16.476,16.476h131.8085c9.062,0,16.476-7.4142,16.476-16.476v-4.1581
	C247.1829,182.0323,210.3,145.1495,164.8028,145.1495z M227.2048,203.4202c-3.0298,1.2623-8.0588-0.2643-9.0686-2.7889
	c-1.0101-2.5246-2.7381-11.3425-15.1086-24.7231c-12.3709-13.3806-33.9015-18.5876-33.9015-18.5876
	c27.1197,0,50.3516,16.6441,60.038,40.2746C229.1641,197.5953,230.2342,202.1578,227.2048,203.4202z"/>
<g>
	<path class="st13" d="M107.9255,79.4508v163.6306c0,3.0419-8.2596,5.5046-18.4503,5.5046c-10.1885,0-18.4456-2.4627-18.4456-5.5046
		V79.4508"/>
	<path class="st14" d="M107.9255,129.6803c0,3.0454-8.2596,5.5031-18.4503,5.5031c-10.1885,0-18.4456-2.4578-18.4456-5.5031"/>
	<path class="st14" d="M107.9255,148.337c0,3.0419-8.2596,5.5056-18.4503,5.5056c-10.1885,0-18.4456-2.4637-18.4456-5.5056"/>
	<path class="st14" d="M107.9255,166.989c0,3.0417-8.2596,5.5078-18.4503,5.5078c-10.1885,0-18.4456-2.4661-18.4456-5.5078"/>
	<path class="st14" d="M107.9255,185.6456c0,3.0441-8.2596,5.5007-18.4503,5.5007c-10.1885,0-18.4456-2.4565-18.4456-5.5007"/>
	<path class="st14" d="M107.9255,204.2998c0,3.0444-8.2596,5.508-18.4503,5.508c-10.1885,0-18.4456-2.4637-18.4456-5.508"/>
	<path class="st14" d="M107.9255,222.9555c0,3.0454-8.2596,5.5044-18.4503,5.5044c-10.1885,0-18.4456-2.459-18.4456-5.5044"/>
	<path class="st14" d="M107.9255,111.0234c0,3.0444-8.2596,5.5093-18.4503,5.5093c-10.1885,0-18.4456-2.4649-18.4456-5.5093"/>
	<path class="st14" d="M107.9255,92.3704c0,3.0419-8.2596,5.5056-18.4503,5.5056c-10.1885,0-18.4456-2.4637-18.4456-5.5056"/>
	<path class="st15" d="M107.9255,79.4508c0,3.0441-8.2596,5.5056-18.4503,5.5056c-10.1885,0-18.4456-2.4614-18.4456-5.5056
		c0-3.0444,8.2572-5.5022,18.4456-5.5022C99.6659,73.9486,107.9255,76.4064,107.9255,79.4508z"/>
</g>
<g>
	<g>
		<polygon class="st16" points="173.0634,53.0886 130.693,62.7379 130.693,252.7458 173.0634,252.7458 		"/>
		<polyline class="st17" points="173.7874,52.378 192.6822,41.0667 192.6822,42.7819 192.6822,241.7083 173.7874,253.0197 		"/>
	</g>
	<g>
		<g>
			<g>
				<line class="st18" x1="170.2577" y1="143.9355" x2="169.9984" y2="143.9355"/>
				<line class="st19" x1="168.582" y1="143.9355" x2="134.4684" y2="143.9355"/>
				<line class="st18" x1="133.7601" y1="143.9355" x2="133.5008" y2="143.9355"/>
			</g>
		</g>
		<g>
			<g>
				<line class="st18" x1="170.2577" y1="104.984" x2="169.9984" y2="104.984"/>
				<line class="st19" x1="168.582" y1="104.984" x2="134.4684" y2="104.984"/>
				<line class="st18" x1="133.7601" y1="104.984" x2="133.5008" y2="104.984"/>
			</g>
		</g>
		<g>
			<g>
				<line class="st18" x1="170.2577" y1="75.7723" x2="169.9984" y2="75.7723"/>
				<line class="st19" x1="168.582" y1="75.7723" x2="134.4684" y2="75.7723"/>
				<line class="st18" x1="133.7601" y1="75.7723" x2="133.5008" y2="75.7723"/>
			</g>
		</g>
		<g>
			<g>
				<line class="st18" x1="170.2577" y1="182.8868" x2="169.9984" y2="182.8868"/>
				<line class="st19" x1="168.582" y1="182.8868" x2="134.4684" y2="182.8868"/>
				<line class="st18" x1="133.7601" y1="182.8868" x2="133.5008" y2="182.8868"/>
			</g>
		</g>
		<g>
			<g>
				<line class="st18" x1="170.2577" y1="153.676" x2="169.9984" y2="153.676"/>
				<line class="st19" x1="168.582" y1="153.676" x2="134.4684" y2="153.676"/>
				<line class="st18" x1="133.7601" y1="153.676" x2="133.5008" y2="153.676"/>
			</g>
		</g>
		<g>
			<g>
				<line class="st18" x1="170.2577" y1="114.7224" x2="169.9984" y2="114.7224"/>
				<line class="st19" x1="168.582" y1="114.7224" x2="134.4684" y2="114.7224"/>
				<line class="st18" x1="133.7601" y1="114.7224" x2="133.5008" y2="114.7224"/>
			</g>
		</g>
		<g>
			<g>
				<line class="st18" x1="170.2577" y1="85.5084" x2="169.9984" y2="85.5084"/>
				<line class="st19" x1="168.582" y1="85.5084" x2="134.4684" y2="85.5084"/>
				<line class="st18" x1="133.7601" y1="85.5084" x2="133.5008" y2="85.5084"/>
			</g>
		</g>
		<g>
			<g>
				<line class="st18" x1="170.2577" y1="192.6228" x2="169.9984" y2="192.6228"/>
				<line class="st19" x1="168.582" y1="192.6228" x2="134.4684" y2="192.6228"/>
				<line class="st18" x1="133.7601" y1="192.6228" x2="133.5008" y2="192.6228"/>
			</g>
		</g>
		<g>
			<g>
				<line class="st18" x1="170.2577" y1="163.412" x2="169.9984" y2="163.412"/>
				<line class="st19" x1="168.582" y1="163.412" x2="134.4684" y2="163.412"/>
				<line class="st18" x1="133.7601" y1="163.412" x2="133.5008" y2="163.412"/>
			</g>
		</g>
		<g>
			<g>
				<line class="st18" x1="170.2577" y1="124.4608" x2="169.9984" y2="124.4608"/>
				<line class="st19" x1="168.582" y1="124.4608" x2="134.4684" y2="124.4608"/>
				<line class="st18" x1="133.7601" y1="124.4608" x2="133.5008" y2="124.4608"/>
			</g>
		</g>
		<g>
			<g>
				<line class="st18" x1="170.2577" y1="95.2468" x2="169.9984" y2="95.2468"/>
				<line class="st19" x1="168.582" y1="95.2468" x2="134.4684" y2="95.2468"/>
				<line class="st18" x1="133.7601" y1="95.2468" x2="133.5008" y2="95.2468"/>
			</g>
		</g>
		<g>
			<g>
				<line class="st18" x1="170.2577" y1="202.3624" x2="169.9984" y2="202.3624"/>
				<line class="st19" x1="168.582" y1="202.3624" x2="134.4684" y2="202.3624"/>
				<line class="st18" x1="133.7601" y1="202.3624" x2="133.5008" y2="202.3624"/>
			</g>
		</g>
		<g>
			<g>
				<line class="st18" x1="170.2577" y1="173.1461" x2="169.9984" y2="173.1461"/>
				<line class="st19" x1="168.582" y1="173.1461" x2="134.4684" y2="173.1461"/>
				<line class="st18" x1="133.7601" y1="173.1461" x2="133.5008" y2="173.1461"/>
			</g>
		</g>
		<g>
			<g>
				<line class="st18" x1="170.2577" y1="134.1948" x2="169.9984" y2="134.1948"/>
				<line class="st19" x1="168.582" y1="134.1948" x2="134.4684" y2="134.1948"/>
				<line class="st18" x1="133.7601" y1="134.1948" x2="133.5008" y2="134.1948"/>
			</g>
		</g>
		<g>
			<g>
				<line class="st18" x1="170.2577" y1="66.035" x2="169.9984" y2="66.035"/>
				<line class="st19" x1="168.582" y1="66.035" x2="134.4684" y2="66.035"/>
				<line class="st18" x1="133.7601" y1="66.035" x2="133.5008" y2="66.035"/>
			</g>
		</g>
		<g>
			<g>
				<line class="st18" x1="170.2577" y1="212.0985" x2="169.9984" y2="212.0985"/>
				<line class="st19" x1="168.582" y1="212.0985" x2="134.4684" y2="212.0985"/>
				<line class="st18" x1="133.7601" y1="212.0985" x2="133.5008" y2="212.0985"/>
			</g>
		</g>
		<g>
			<g>
				<line class="st18" x1="170.2577" y1="241.3148" x2="169.9984" y2="241.3148"/>
				<line class="st19" x1="168.582" y1="241.3148" x2="134.4684" y2="241.3148"/>
				<line class="st18" x1="133.7601" y1="241.3148" x2="133.5008" y2="241.3148"/>
			</g>
		</g>
		<g>
			<g>
				<line class="st18" x1="170.2577" y1="231.5785" x2="169.9984" y2="231.5785"/>
				<line class="st19" x1="168.582" y1="231.5785" x2="134.4684" y2="231.5785"/>
				<line class="st18" x1="133.7601" y1="231.5785" x2="133.5008" y2="231.5785"/>
			</g>
		</g>
		<g>
			<g>
				<line class="st18" x1="170.2577" y1="221.8392" x2="169.9984" y2="221.8392"/>
				<line class="st19" x1="168.582" y1="221.8392" x2="134.4684" y2="221.8392"/>
				<line class="st18" x1="133.7601" y1="221.8392" x2="133.5008" y2="221.8392"/>
			</g>
		</g>
		<g>
			<g>
				<line class="st18" x1="170.2577" y1="251.0509" x2="169.9984" y2="251.0509"/>
				<line class="st19" x1="168.582" y1="251.0509" x2="134.4684" y2="251.0509"/>
				<line class="st18" x1="133.7601" y1="251.0509" x2="133.5008" y2="251.0509"/>
			</g>
		</g>
	</g>
</g>
<g>
	<polygon class="st20" points="131.6916,106.9916 97.2935,113.7642 97.2935,247.1683 131.6916,247.1683 	"/>
	<polyline class="st21" points="132.2745,106.4911 147.614,109.9416 147.614,111.1422 147.614,239.4191 132.2745,247.3545 	"/>
	<path class="st22" d="M108.1331,106.543"/>
	<path class="st22" d="M142.5314,99.7672"/>
	<path class="st23" d="M111.8947,104.9719"/>
	<path class="st23" d="M96.5612,112.9101"/>
	<line class="st24" x1="105.0762" y1="117.8127" x2="105.0762" y2="240.6181"/>
	<line class="st24" x1="114.1038" y1="117.4115" x2="114.1038" y2="241.4266"/>
	<line class="st24" x1="123.1342" y1="116.6109" x2="123.1342" y2="240.6181"/>
</g>
<g>
	<polygon class="st25" points="278.0479,106.9916 243.6498,113.7642 243.6498,247.1683 278.0479,247.1683 	"/>
	<polyline class="st26" points="278.6308,106.4911 293.9702,109.9416 293.9702,111.1422 293.9702,239.4191 278.6308,247.3545 	"/>
	<path class="st22" d="M254.4893,106.543"/>
	<path class="st22" d="M288.8877,99.7672"/>
	<path class="st23" d="M258.251,104.9719"/>
	<path class="st23" d="M242.9175,112.9101"/>
</g>
<g>
	<polygon class="st27" points="159.7828,248.2272 208.4473,225.4664 208.4473,243.5081 159.6884,268.5341 	"/>
	<rect x="102.0421" y="248.0775" class="st28" width="57.6463" height="20.4566"/>
	<polygon class="st29" points="152.6346,223.7075 209.0463,224.5582 159.6884,248.0775 102.0421,248.0775 	"/>
</g>
<g>
	<polygon class="st30" points="155.5386,229.8488 188.8794,214.255 188.8794,227.6054 155.4739,244.4614 	"/>
	<rect x="115.9795" y="230.1697" class="st31" width="39.4944" height="14.2917"/>
	<polygon class="st30" points="150.6412,213.4734 189.2898,214.0563 155.4739,230.1697 115.9795,230.1697 	"/>
</g>
<g>
	<polygon class="st29" points="161.2649,213.7005 179.3652,205.2349 179.3652,217.3696 161.2298,226.5205 	"/>
	<rect x="139.7888" y="213.9998" class="st28" width="21.4409" height="12.2908"/>
	<polygon class="st29" points="158.6062,204.9356 179.5879,205.252 161.2298,213.9998 139.7888,213.9998 	"/>
</g>
<path class="st28" d="M162.9656,211.0318h-1.13c-1.814,0-6.2454-0.9109-6.2454-2.725v-9.1586h14.7507v8.9579
	C170.3409,210.031,164.8905,211.0318,162.9656,211.0318z"/>
<ellipse class="st32" cx="162.9426" cy="198.6033" rx="7.3984" ry="1.9466"/>
<g>
	<g>
		<polygon class="st33" points="228.0649,164.3028 196.4425,163.0934 196.3452,253.178 228.0649,253.178 		"/>
		<polyline class="st34" points="228.6068,163.8432 242.7556,156.52 242.7556,157.6255 242.7556,246.0289 228.6068,253.3512 		"/>
	</g>
	<g>
		<g>
			<g>
				<line class="st35" x1="225.963" y1="182.7154" x2="224.976" y2="182.7154"/>
				<line class="st36" x1="223.0105" y1="182.7154" x2="200.4079" y2="182.7154"/>
				<line class="st35" x1="199.4252" y1="182.7154" x2="198.4381" y2="182.7154"/>
			</g>
		</g>
		<g>
			<g>
				<line class="st35" x1="225.963" y1="207.938" x2="224.976" y2="207.938"/>
				<line class="st36" x1="223.0105" y1="207.938" x2="200.4079" y2="207.938"/>
				<line class="st35" x1="199.4252" y1="207.938" x2="198.4381" y2="207.938"/>
			</g>
		</g>
		<g>
			<g>
				<line class="st35" x1="225.963" y1="189.0209" x2="224.976" y2="189.0209"/>
				<line class="st36" x1="223.0105" y1="189.0209" x2="200.4079" y2="189.0209"/>
				<line class="st35" x1="199.4252" y1="189.0209" x2="198.4381" y2="189.0209"/>
			</g>
		</g>
		<g>
			<g>
				<line class="st35" x1="225.963" y1="214.24" x2="224.976" y2="214.24"/>
				<line class="st36" x1="223.0105" y1="214.24" x2="200.4079" y2="214.24"/>
				<line class="st35" x1="199.4252" y1="214.24" x2="198.4381" y2="214.24"/>
			</g>
		</g>
		<g>
			<g>
				<line class="st35" x1="225.963" y1="195.3273" x2="224.976" y2="195.3273"/>
				<line class="st36" x1="223.0105" y1="195.3273" x2="200.4079" y2="195.3273"/>
				<line class="st35" x1="199.4252" y1="195.3273" x2="198.4381" y2="195.3273"/>
			</g>
		</g>
		<g>
			<g>
				<line class="st35" x1="225.963" y1="170.1026" x2="224.976" y2="170.1026"/>
				<line class="st36" x1="223.0105" y1="170.1026" x2="200.4079" y2="170.1026"/>
				<line class="st35" x1="199.4252" y1="170.1026" x2="198.4381" y2="170.1026"/>
			</g>
		</g>
		<g>
			<g>
				<line class="st35" x1="225.963" y1="220.552" x2="224.976" y2="220.552"/>
				<line class="st36" x1="223.0105" y1="220.552" x2="200.4079" y2="220.552"/>
				<line class="st35" x1="199.4252" y1="220.552" x2="198.4381" y2="220.552"/>
			</g>
		</g>
		<g>
			<g>
				<line class="st35" x1="225.963" y1="201.6314" x2="224.976" y2="201.6314"/>
				<line class="st36" x1="223.0105" y1="201.6314" x2="200.4079" y2="201.6314"/>
				<line class="st35" x1="199.4252" y1="201.6314" x2="198.4381" y2="201.6314"/>
			</g>
		</g>
		<g>
			<g>
				<line class="st35" x1="225.963" y1="176.4101" x2="224.976" y2="176.4101"/>
				<line class="st36" x1="223.0105" y1="176.4101" x2="200.4079" y2="176.4101"/>
				<line class="st35" x1="199.4252" y1="176.4101" x2="198.4381" y2="176.4101"/>
			</g>
		</g>
		<g>
			<g>
				<line class="st35" x1="225.963" y1="226.8575" x2="224.976" y2="226.8575"/>
				<line class="st36" x1="223.0105" y1="226.8575" x2="200.4079" y2="226.8575"/>
				<line class="st35" x1="199.4252" y1="226.8575" x2="198.4381" y2="226.8575"/>
			</g>
		</g>
		<g>
			<g>
				<line class="st35" x1="225.963" y1="245.7713" x2="224.976" y2="245.7713"/>
				<line class="st36" x1="223.0105" y1="245.7713" x2="200.4079" y2="245.7713"/>
				<line class="st35" x1="199.4252" y1="245.7713" x2="198.4381" y2="245.7713"/>
			</g>
		</g>
		<g>
			<g>
				<line class="st35" x1="225.963" y1="239.4691" x2="224.976" y2="239.4691"/>
				<line class="st36" x1="223.0105" y1="239.4691" x2="200.4079" y2="239.4691"/>
				<line class="st35" x1="199.4252" y1="239.4691" x2="198.4381" y2="239.4691"/>
			</g>
		</g>
		<g>
			<g>
				<line class="st35" x1="225.963" y1="233.1562" x2="224.976" y2="233.1562"/>
				<line class="st36" x1="223.0105" y1="233.1562" x2="200.4079" y2="233.1562"/>
				<line class="st35" x1="199.4252" y1="233.1562" x2="198.4381" y2="233.1562"/>
			</g>
		</g>
		<g>
			<g>
				<line class="st35" x1="225.963" y1="252.0765" x2="224.976" y2="252.0765"/>
				<line class="st36" x1="223.0105" y1="252.0765" x2="200.4079" y2="252.0765"/>
				<line class="st35" x1="199.4252" y1="252.0765" x2="198.4381" y2="252.0765"/>
			</g>
		</g>
	</g>
</g>
<line class="st37" x1="250.157" y1="125.5448" x2="271.9073" y2="123.4064"/>
<line class="st37" x1="250.157" y1="138.3004" x2="271.9073" y2="136.1621"/>
<line class="st37" x1="250.157" y1="151.056" x2="271.9073" y2="148.9177"/>
<line class="st37" x1="250.157" y1="163.8116" x2="271.9073" y2="161.6733"/>
<line class="st37" x1="250.157" y1="176.5672" x2="271.9073" y2="174.4289"/>
<line class="st37" x1="250.157" y1="189.3228" x2="271.9073" y2="187.1845"/>
<line class="st37" x1="250.157" y1="202.0785" x2="271.9073" y2="199.9401"/>
<line class="st37" x1="250.157" y1="214.8341" x2="271.9073" y2="212.6957"/>
<line class="st37" x1="250.157" y1="227.5897" x2="271.9073" y2="225.4513"/>
<g>
	<polygon class="st38" points="201.9033,162.9028 213.8672,158.4951 242.0039,155.3687 227.6211,162.9028 	"/>
	<path class="st39" d="M236.0859,157.1773l-8.7463,4.5814h-19.0218l5.8143-2.1421L236.0859,157.1773 M247.9225,153.5601h0.005
		H247.9225z M247.9225,153.5601l-34.32,3.8133l-18.1133,6.6733h32.4133L247.9225,153.5601L247.9225,153.5601z"/>
</g>
<g id="XMLID_148_">
	<g id="XMLID_263_">
		<path id="XMLID_267_" class="st40" d="M333.7097,212.7391c0,0-5.2354,3.1572-6.979,3.1572s-3.1572-1.4135-3.1572-3.1572
			c0-1.7437,1.4135-3.1572,3.1572-3.1572S333.7097,212.7391,333.7097,212.7391z"/>
		<path id="XMLID_265_" class="st40" d="M334.0421,212.7391c0,0,5.2354-3.1572,6.979-3.1572s3.1572,1.4135,3.1572,3.1572
			c0,1.7437-1.4135,3.1572-3.1572,3.1572S334.0421,212.7391,334.0421,212.7391z"/>
	</g>
	<g id="XMLID_259_">
		<path id="XMLID_261_" class="st40" d="M333.7097,222.1456c0,0-5.2354,3.1572-6.979,3.1572s-3.1572-1.4135-3.1572-3.1572
			c0-1.7437,1.4135-3.1572,3.1572-3.1572S333.7097,222.1456,333.7097,222.1456z"/>
		<path id="XMLID_260_" class="st40" d="M334.0421,222.1456c0,0,5.2354-3.1572,6.979-3.1572s3.1572,1.4135,3.1572,3.1572
			c0,1.7437-1.4135,3.1572-3.1572,3.1572S334.0421,222.1456,334.0421,222.1456z"/>
	</g>
	<g id="XMLID_255_">
		<path id="XMLID_258_" class="st40" d="M333.7097,231.5521c0,0-5.2354,3.1572-6.979,3.1572s-3.1572-1.4135-3.1572-3.1572
			c0-1.7437,1.4135-3.1572,3.1572-3.1572S333.7097,231.5521,333.7097,231.5521z"/>
		<path id="XMLID_257_" class="st40" d="M334.0421,231.5521c0,0,5.2354-3.1572,6.979-3.1572s3.1572,1.4135,3.1572,3.1572
			c0,1.7437-1.4135,3.1572-3.1572,3.1572S334.0421,231.5521,334.0421,231.5521z"/>
	</g>
	<rect id="XMLID_254_" x="333.7928" y="202.4367" class="st40" width="0.6647" height="49.5178"/>
	<circle id="XMLID_253_" class="st40" cx="333.959" cy="201.6059" r="5.4835"/>
	<path id="XMLID_248_" class="st39" d="M339.4315,201.9382c0.0066-0.11,0.011-0.2206,0.011-0.3323
		c0-3.0285-2.455-5.4835-5.4835-5.4835c-3.0284,0-5.4835,2.455-5.4835,5.4835c0,0.1117,0.0044,0.2223,0.0109,0.3323H339.4315z"/>
	<circle id="XMLID_247_" class="st39" cx="334.1252" cy="194.876" r="2.4925"/>
</g>
<g id="XMLID_105_">
	<g id="XMLID_145_">
		<path id="XMLID_147_" class="st40" d="M365.7097,203.7391c0,0-5.2354,3.1572-6.979,3.1572s-3.1572-1.4135-3.1572-3.1572
			c0-1.7437,1.4135-3.1572,3.1572-3.1572S365.7097,203.7391,365.7097,203.7391z"/>
		<path id="XMLID_146_" class="st40" d="M366.0421,203.7391c0,0,5.2354-3.1572,6.979-3.1572s3.1572,1.4135,3.1572,3.1572
			c0,1.7437-1.4135,3.1572-3.1572,3.1572S366.0421,203.7391,366.0421,203.7391z"/>
	</g>
	<g id="XMLID_125_">
		<path id="XMLID_144_" class="st40" d="M365.7097,213.1456c0,0-5.2354,3.1572-6.979,3.1572s-3.1572-1.4135-3.1572-3.1572
			c0-1.7437,1.4135-3.1572,3.1572-3.1572S365.7097,213.1456,365.7097,213.1456z"/>
		<path id="XMLID_143_" class="st40" d="M366.0421,213.1456c0,0,5.2354-3.1572,6.979-3.1572s3.1572,1.4135,3.1572,3.1572
			c0,1.7437-1.4135,3.1572-3.1572,3.1572S366.0421,213.1456,366.0421,213.1456z"/>
	</g>
	<g id="XMLID_110_">
		<path id="XMLID_124_" class="st40" d="M365.7097,222.5521c0,0-5.2354,3.1572-6.979,3.1572s-3.1572-1.4135-3.1572-3.1572
			c0-1.7437,1.4135-3.1572,3.1572-3.1572S365.7097,222.5521,365.7097,222.5521z"/>
		<path id="XMLID_111_" class="st40" d="M366.0421,222.5521c0,0,5.2354-3.1572,6.979-3.1572s3.1572,1.4135,3.1572,3.1572
			c0,1.7437-1.4135,3.1572-3.1572,3.1572S366.0421,222.5521,366.0421,222.5521z"/>
	</g>
	<rect id="XMLID_109_" x="365.7928" y="193.4367" class="st40" width="0.6647" height="49.5178"/>
	<circle id="XMLID_108_" class="st40" cx="365.959" cy="192.6059" r="5.4835"/>
	<path id="XMLID_107_" class="st39" d="M371.4315,192.9382c0.0066-0.11,0.011-0.2206,0.011-0.3323
		c0-3.0285-2.455-5.4835-5.4835-5.4835c-3.0284,0-5.4835,2.455-5.4835,5.4835c0,0.1117,0.0044,0.2223,0.0109,0.3323H371.4315z"/>
	<circle id="XMLID_106_" class="st39" cx="366.1252" cy="185.876" r="2.4925"/>
</g>
<g id="XMLID_48_">
	<g id="XMLID_101_">
		<path id="XMLID_103_" class="st40" d="M25.7098,206.7391c0,0-5.2354,3.1572-6.979,3.1572c-1.7437,0-3.1572-1.4135-3.1572-3.1572
			c0-1.7437,1.4135-3.1572,3.1572-3.1572C20.4744,203.5819,25.7098,206.7391,25.7098,206.7391z"/>
		<path id="XMLID_102_" class="st40" d="M26.0421,206.7391c0,0,5.2354-3.1572,6.979-3.1572c1.7437,0,3.1572,1.4135,3.1572,3.1572
			c0,1.7437-1.4135,3.1572-3.1572,3.1572C31.2775,209.8963,26.0421,206.7391,26.0421,206.7391z"/>
	</g>
	<g id="XMLID_57_">
		<path id="XMLID_59_" class="st40" d="M25.7098,216.1456c0,0-5.2354,3.1572-6.979,3.1572c-1.7437,0-3.1572-1.4135-3.1572-3.1572
			c0-1.7437,1.4135-3.1572,3.1572-3.1572C20.4744,212.9884,25.7098,216.1456,25.7098,216.1456z"/>
		<path id="XMLID_58_" class="st40" d="M26.0421,216.1456c0,0,5.2354-3.1572,6.979-3.1572c1.7437,0,3.1572,1.4135,3.1572,3.1572
			c0,1.7437-1.4135,3.1572-3.1572,3.1572C31.2775,219.3027,26.0421,216.1456,26.0421,216.1456z"/>
	</g>
	<g id="XMLID_53_">
		<path id="XMLID_56_" class="st40" d="M25.7098,225.5521c0,0-5.2354,3.1572-6.979,3.1572c-1.7437,0-3.1572-1.4135-3.1572-3.1572
			c0-1.7437,1.4135-3.1572,3.1572-3.1572C20.4744,222.3949,25.7098,225.5521,25.7098,225.5521z"/>
		<path id="XMLID_54_" class="st40" d="M26.0421,225.5521c0,0,5.2354-3.1572,6.979-3.1572c1.7437,0,3.1572,1.4135,3.1572,3.1572
			c0,1.7437-1.4135,3.1572-3.1572,3.1572C31.2775,228.7093,26.0421,225.5521,26.0421,225.5521z"/>
	</g>
	<rect id="XMLID_52_" x="25.7928" y="196.4367" class="st40" width="0.6647" height="49.5178"/>
	<circle id="XMLID_51_" class="st40" cx="25.959" cy="195.6059" r="5.4835"/>
	<path id="XMLID_50_" class="st39" d="M31.4316,195.9382c0.0066-0.11,0.011-0.2206,0.011-0.3323
		c0-3.0285-2.4551-5.4835-5.4835-5.4835s-5.4835,2.455-5.4835,5.4835c0,0.1117,0.0044,0.2223,0.011,0.3323H31.4316z"/>
	<circle id="XMLID_49_" class="st39" cx="26.1252" cy="188.876" r="2.4925"/>
</g>
<g>
	<path class="st10" d="M202.7727,22.8527c0,12.6212-22.8527,41.0502-22.8527,41.0502s-22.8527-28.429-22.8527-41.0502
		S167.2988,0,179.92,0C192.5412,0,202.7727,10.2315,202.7727,22.8527z"/>
	<circle class="st38" cx="179.92" cy="22.8527" r="14.8119"/>
</g>
</svg>
