<?xml version="1.0" encoding="utf-8"?>
<!-- Generator: Adobe Illustrator 22.1.0, SVG Export Plug-In . SVG Version: 6.00 Build 0)  -->
<svg width="365" height="147" version="1.1" id="Layer_1" xmlns="http://www.w3.org/2000/svg" xmlns:xlink="http://www.w3.org/1999/xlink" x="0px" y="0px"
	 viewBox="0 0 365 147" style="enable-background:new 0 0 365 147;" xml:space="preserve">
<style type="text/css">
	.st0{fill:#EE4D87;}
	.st1{fill:#FFFFFF;}
	.st2{fill:#50358B;}
</style>
<polyline class="st0" points="112.3148,49.9399 89.3192,60.0686 98.5233,49.9399 "/>
<path class="st0" d="M112.3148,49.9399h245.5632c2.6334,0,4.7682-2.1348,4.7682-4.7682V4.7682c0-2.6334-2.1348-4.7682-4.7682-4.7682
	L82.5837,0c-2.6334,0-4.7682,2.1348-4.7682,4.7682v40.4035c0,2.6334,2.1348,4.7682,4.7682,4.7682h15.6484"/>
<g>
	<path class="st1" d="M112.25,19.3945c0.1172,0,0.2183,0.043,0.3037,0.1279c0.0854,0.0859,0.1279,0.1865,0.1279,0.3037v0.5762
		c0,0.1172-0.0425,0.2188-0.1279,0.3037c-0.0854,0.0859-0.1865,0.1289-0.3037,0.1289h-5.2642v3.6953h4.9438
		c0.1172,0,0.2188,0.043,0.3042,0.1279c0.0854,0.0859,0.1279,0.1875,0.1279,0.3047v0.5752c0,0.1182-0.0425,0.2188-0.1279,0.3047
		c-0.0854,0.085-0.187,0.1279-0.3042,0.1279h-4.9438v4.1914c0,0.1182-0.0425,0.2188-0.1279,0.3047
		c-0.0854,0.085-0.187,0.1279-0.3042,0.1279h-0.6558c-0.1177,0-0.2188-0.043-0.3042-0.1279
		c-0.0854-0.0859-0.1279-0.1865-0.1279-0.3047V19.8262c0-0.1172,0.0425-0.2178,0.1279-0.3037
		c0.0854-0.085,0.1865-0.1279,0.3042-0.1279H112.25z"/>
	<path class="st1" d="M121.6416,29.1543c0.1172,0,0.2188,0.043,0.3042,0.1279c0.0854,0.0859,0.1279,0.1865,0.1279,0.3047v0.5752
		c0,0.1182-0.0425,0.2188-0.1279,0.3047c-0.0854,0.085-0.187,0.1279-0.3042,0.1279h-6.5117c-0.1177,0-0.2188-0.043-0.3042-0.1279
		c-0.0854-0.0859-0.1279-0.1865-0.1279-0.3047V19.8262c0-0.1172,0.0425-0.2178,0.1279-0.3037
		c0.0854-0.085,0.1865-0.1279,0.3042-0.1279h0.6562c0.1172,0,0.2183,0.043,0.3037,0.1279c0.085,0.0859,0.1279,0.1865,0.1279,0.3037
		v9.3281H121.6416z"/>
	<path class="st1" d="M131.5298,19.3945c0.1172,0,0.2183,0.043,0.3042,0.1279c0.085,0.0859,0.1279,0.1865,0.1279,0.3037v6.4004
		c0,0.6611-0.083,1.2666-0.248,1.8164c-0.1655,0.5488-0.4219,1.0264-0.7681,1.4316c-0.3472,0.4053-0.792,0.7197-1.3364,0.9443
		c-0.5439,0.2236-1.1943,0.3359-1.9517,0.3359c-0.7681,0-1.4243-0.1123-1.9683-0.3359c-0.5439-0.2246-0.9893-0.5391-1.3359-0.9443
		s-0.5996-0.8828-0.7598-1.4316c-0.1602-0.5498-0.2402-1.1553-0.2402-1.8164v-6.4004c0-0.1172,0.043-0.2178,0.1279-0.3037
		c0.0854-0.085,0.1865-0.1279,0.3042-0.1279h0.6558c0.1177,0,0.2188,0.043,0.3047,0.1279c0.085,0.0859,0.1279,0.1865,0.1279,0.3037
		v6.4805c0,1.0449,0.2451,1.8213,0.7354,2.3281c0.4912,0.5068,1.1738,0.7598,2.0483,0.7598s1.5601-0.2529,2.0562-0.7598
		s0.7441-1.2832,0.7441-2.3281v-6.4805c0-0.1172,0.042-0.2178,0.1279-0.3037c0.085-0.085,0.1865-0.1279,0.3037-0.1279H131.5298z"/>
	<path class="st1" d="M138.3135,26.0986l-3.0078,4.1279c-0.0537,0.0635-0.123,0.1416-0.208,0.2314
		c-0.0854,0.0908-0.2344,0.1367-0.4482,0.1367h-0.6875c-0.0962,0-0.1787-0.0352-0.248-0.1045s-0.1045-0.1514-0.1045-0.248
		c0-0.0205,0.0029-0.0449,0.0083-0.0713c0.0054-0.0273,0.0186-0.0615,0.04-0.1045l3.7759-5.1836l-3.6162-4.96
		c-0.0317-0.0645-0.0479-0.123-0.0479-0.1768c0-0.0957,0.0347-0.1777,0.1045-0.248c0.0688-0.0684,0.1514-0.1035,0.2476-0.1035
		h0.7524c0.2129,0,0.3677,0.0537,0.4639,0.1602c0.0957,0.1064,0.165,0.1865,0.208,0.2402l2.8477,3.9033l2.7842-3.8877
		c0.0425-0.0537,0.1123-0.1357,0.208-0.248s0.2505-0.168,0.4639-0.168h0.688c0.0962,0,0.1787,0.0352,0.248,0.1035
		c0.0693,0.0703,0.104,0.1523,0.104,0.248c0,0.0537-0.0156,0.1123-0.0479,0.1768l-3.5684,4.9912l3.7603,5.1523
		c0.021,0.043,0.0347,0.0771,0.04,0.1045c0.0054,0.0264,0.0083,0.0508,0.0083,0.0713c0,0.0967-0.0352,0.1787-0.1045,0.248
		s-0.1519,0.1045-0.248,0.1045h-0.752c-0.2134,0-0.3623-0.0459-0.4478-0.1367c-0.0854-0.0898-0.1548-0.168-0.208-0.2314
		L138.3135,26.0986z"/>
	<path class="st1" d="M149.6733,23.6504c-0.0215,0.4805-0.0317,0.9277-0.0317,1.3438s0.0103,0.8643,0.0317,1.3447
		c0.0317,0.8848,0.3013,1.6025,0.8081,2.1514c0.5063,0.5498,1.2344,0.8242,2.1836,0.8242c0.5122,0,0.9443-0.0645,1.2964-0.1924
		s0.6421-0.293,0.8716-0.4951c0.2295-0.2031,0.4053-0.4346,0.5283-0.6963c0.1226-0.2617,0.2158-0.5254,0.2803-0.792
		c0.021-0.1172,0.0742-0.2051,0.1597-0.2646c0.0854-0.0576,0.1704-0.0879,0.2563-0.0879h0.7358
		c0.0962,0,0.1782,0.0352,0.2476,0.1045s0.1045,0.1523,0.1045,0.248c-0.0107,0.3516-0.1016,0.7354-0.2725,1.1514
		c-0.1704,0.416-0.4346,0.8086-0.792,1.1768s-0.8154,0.6748-1.376,0.9199c-0.5596,0.2451-1.2397,0.3682-2.04,0.3682
		c-0.6934,0-1.3115-0.1104-1.8555-0.3281c-0.5439-0.2188-1.0107-0.5205-1.4004-0.9043s-0.6904-0.8398-0.9038-1.3682
		c-0.2134-0.5273-0.3306-1.1064-0.3521-1.7354c-0.0322-0.9502-0.0322-1.8994,0-2.8486c0.0215-0.6182,0.1387-1.1943,0.3521-1.7275
		s0.5142-0.9922,0.9038-1.376c0.3896-0.3848,0.8564-0.6855,1.4004-0.9043s1.1621-0.3281,1.8555-0.3281
		c0.8003,0,1.4805,0.123,2.04,0.3682c0.5605,0.2451,1.0186,0.5518,1.376,0.9199s0.6216,0.7598,0.792,1.1758
		c0.1709,0.416,0.2617,0.7998,0.2725,1.1523c0,0.0957-0.0352,0.1787-0.1045,0.248s-0.1514,0.1035-0.2476,0.1035h-0.7358
		c-0.0859,0-0.1709-0.0293-0.2563-0.0879s-0.1387-0.1465-0.1597-0.2637c-0.0645-0.2666-0.1577-0.5303-0.2803-0.792
		c-0.123-0.2617-0.2988-0.4932-0.5283-0.6963c-0.2295-0.2021-0.5195-0.3682-0.8716-0.4961s-0.7842-0.1914-1.2964-0.1914
		c-0.9492,0-1.6772,0.2744-2.1836,0.8232C149.9746,22.0479,149.7051,22.7656,149.6733,23.6504z"/>
	<path class="st1" d="M165.9775,28.0664h-5.5522l-0.832,2.1279c-0.0317,0.0859-0.0908,0.1738-0.1763,0.2637
		c-0.085,0.0908-0.2344,0.1367-0.4478,0.1367h-0.5923c-0.0957,0-0.1787-0.0352-0.2476-0.1045
		c-0.0698-0.0693-0.104-0.1514-0.104-0.248c0-0.0527,0.0215-0.1279,0.064-0.2236l3.9199-10.0957
		c0.0532-0.1172,0.1333-0.2354,0.2397-0.3525s0.2666-0.1758,0.4805-0.1758h0.96c0.2129,0,0.373,0.0586,0.4795,0.1758
		c0.1069,0.1172,0.1865,0.2354,0.2402,0.3525l3.9043,10.0957c0.042,0.0957,0.0635,0.1709,0.0635,0.2236
		c0,0.0967-0.0342,0.1787-0.1035,0.248s-0.1523,0.1045-0.248,0.1045h-0.5918c-0.2139,0-0.3633-0.0459-0.4482-0.1367
		c-0.0854-0.0898-0.144-0.1777-0.1758-0.2637L165.9775,28.0664z M160.9854,26.627h4.4316l-2.208-5.7129L160.9854,26.627z"/>
	<path class="st1" d="M177.3853,30.5947c-0.1499,0-0.2749-0.0508-0.376-0.1523c-0.1016-0.1016-0.1899-0.21-0.2642-0.3281
		l-5.2002-7.8242v7.8721c0,0.1182-0.0425,0.2188-0.1279,0.3047c-0.085,0.085-0.1865,0.1279-0.3037,0.1279h-0.6562
		c-0.1172,0-0.2188-0.043-0.3037-0.1279c-0.0859-0.0859-0.1279-0.1865-0.1279-0.3047V19.8262c0-0.1172,0.042-0.2178,0.1279-0.3037
		c0.085-0.085,0.1865-0.1279,0.3037-0.1279h0.5601c0.1494,0,0.2749,0.0508,0.376,0.1523s0.1895,0.21,0.2642,0.3271l5.2002,7.8242
		v-7.8721c0-0.1172,0.042-0.2178,0.1279-0.3037c0.085-0.085,0.1865-0.1279,0.3037-0.1279h0.6562
		c0.1172,0,0.2183,0.043,0.3037,0.1279c0.0854,0.0859,0.1279,0.1865,0.1279,0.3037v10.3359c0,0.1182-0.0425,0.2188-0.1279,0.3047
		c-0.0854,0.085-0.1865,0.1279-0.3037,0.1279H177.3853z"/>
	<path class="st1" d="M193.2725,19.3945c0.1172,0,0.2188,0.043,0.3042,0.1279c0.0854,0.0859,0.1284,0.1865,0.1284,0.3037v10.3359
		c0,0.1182-0.043,0.2188-0.1284,0.3047c-0.0854,0.085-0.187,0.1279-0.3042,0.1279h-0.6558c-0.1177,0-0.2188-0.043-0.3042-0.1279
		c-0.085-0.0859-0.1279-0.1865-0.1279-0.3047v-4.5117h-5.6318v4.5117c0,0.1182-0.043,0.2188-0.1279,0.3047
		c-0.0854,0.085-0.1865,0.1279-0.3037,0.1279h-0.6562c-0.1177,0-0.2188-0.04-0.3042-0.1201s-0.1279-0.1846-0.1279-0.3125V19.8262
		c0-0.1172,0.0425-0.2178,0.1279-0.3037c0.0854-0.085,0.1865-0.1279,0.3042-0.1279h0.6562c0.1172,0,0.2183,0.043,0.3037,0.1279
		c0.085,0.0859,0.1279,0.1865,0.1279,0.3037v4.3848h5.6318v-4.3848c0-0.1172,0.043-0.2178,0.1279-0.3037
		c0.0854-0.085,0.1865-0.1279,0.3042-0.1279H193.2725z"/>
	<path class="st1" d="M203.3525,29.1543c0.1172,0,0.2188,0.043,0.3037,0.1279c0.0854,0.0859,0.1284,0.1865,0.1284,0.3047v0.5752
		c0,0.1182-0.043,0.2188-0.1284,0.3047c-0.085,0.085-0.1865,0.1279-0.3037,0.1279h-6.4639c-0.1177,0-0.2188-0.043-0.3042-0.1279
		c-0.0854-0.0859-0.1279-0.1865-0.1279-0.3047V19.8262c0-0.1172,0.0425-0.2178,0.1279-0.3037
		c0.0854-0.085,0.1865-0.1279,0.3042-0.1279h6.3359c0.1172,0,0.2188,0.043,0.3037,0.1279c0.0854,0.0859,0.1279,0.1865,0.1279,0.3037
		v0.5762c0,0.1172-0.0425,0.2188-0.1279,0.3037c-0.085,0.0859-0.1865,0.1289-0.3037,0.1289h-5.248v3.376h4.896
		c0.1172,0,0.2183,0.042,0.3042,0.1279c0.085,0.085,0.1279,0.1865,0.1279,0.3037v0.5762c0,0.1172-0.043,0.2188-0.1279,0.3037
		c-0.0859,0.0859-0.187,0.1279-0.3042,0.1279h-4.896v3.5039H203.3525z"/>
	<path class="st1" d="M212.8726,29.1543c0.1172,0,0.2183,0.043,0.3042,0.1279c0.085,0.0859,0.1279,0.1865,0.1279,0.3047v0.5752
		c0,0.1182-0.043,0.2188-0.1279,0.3047c-0.0859,0.085-0.187,0.1279-0.3042,0.1279h-6.5122c-0.1172,0-0.2188-0.043-0.3037-0.1279
		c-0.0859-0.0859-0.1279-0.1865-0.1279-0.3047V19.8262c0-0.1172,0.042-0.2178,0.1279-0.3037
		c0.085-0.085,0.1865-0.1279,0.3037-0.1279h0.6562c0.1172,0,0.2188,0.043,0.3037,0.1279c0.0854,0.0859,0.1279,0.1865,0.1279,0.3037
		v9.3281H212.8726z"/>
	<path class="st1" d="M219.4482,19.3945c0.5225,0,1.0161,0.0664,1.4805,0.2002c0.4639,0.1328,0.8716,0.3389,1.2236,0.6162
		s0.6318,0.6289,0.8398,1.0557s0.3125,0.9336,0.3125,1.5195c0,0.5869-0.1045,1.0967-0.3125,1.5283s-0.4878,0.792-0.8398,1.0801
		s-0.7598,0.501-1.2236,0.6396c-0.4644,0.1387-0.958,0.208-1.4805,0.208h-2.9438v3.9199c0,0.1182-0.0425,0.2188-0.1279,0.3047
		c-0.0854,0.085-0.187,0.1279-0.3042,0.1279h-0.6558c-0.1177,0-0.2188-0.043-0.3042-0.1279
		c-0.0854-0.0859-0.1279-0.1865-0.1279-0.3047V19.8262c0-0.1172,0.0425-0.2178,0.1279-0.3037
		c0.0854-0.085,0.1865-0.1279,0.3042-0.1279H219.4482z M216.5044,24.8027h2.8638c0.7686,0,1.3628-0.165,1.7842-0.4961
		s0.6318-0.8379,0.6318-1.5205s-0.2104-1.1777-0.6318-1.4873s-1.0156-0.4639-1.7842-0.4639h-2.8638V24.8027z"/>
	<path class="st1" d="M232.8242,30.1621c0,0.1182-0.0425,0.2188-0.1279,0.3047c-0.0854,0.085-0.1865,0.1279-0.3037,0.1279h-0.6562
		c-0.1172,0-0.2188-0.043-0.3037-0.1279c-0.0859-0.0859-0.1279-0.1865-0.1279-0.3047v-3.7432l-3.8242-6.4482
		c-0.0537-0.0967-0.0801-0.1709-0.0801-0.2246c0-0.0957,0.0342-0.1777,0.104-0.248c0.0693-0.0684,0.1519-0.1035,0.248-0.1035h0.688
		c0.2129,0,0.3652,0.043,0.4561,0.1279c0.0903,0.0859,0.1621,0.1758,0.2158,0.2725l2.9443,5.0879l2.96-5.0879
		c0.0527-0.0967,0.125-0.1865,0.2158-0.2725c0.0908-0.085,0.2422-0.1279,0.4561-0.1279h0.688c0.0962,0,0.1782,0.0352,0.248,0.1035
		c0.0688,0.0703,0.104,0.1523,0.104,0.248c0,0.0537-0.0269,0.1279-0.0801,0.2246l-3.8242,6.4482V30.1621z"/>
	<path class="st1" d="M237.6724,23.5703c0.0103-0.5967,0.1147-1.1602,0.312-1.6875c0.1973-0.5283,0.4824-0.9873,0.856-1.376
		c0.3735-0.3896,0.832-0.6992,1.376-0.9287c0.5444-0.2285,1.1685-0.3438,1.8721-0.3438c0.7041,0,1.3281,0.1152,1.8721,0.3438
		c0.5439,0.2295,1.0024,0.5391,1.376,0.9287c0.3735,0.3887,0.6587,0.8477,0.856,1.376c0.1973,0.5273,0.3013,1.0908,0.312,1.6875
		c0.0317,0.9492,0.0317,1.8984,0,2.8486c-0.0215,0.5967-0.1309,1.1592-0.3276,1.6875c-0.1978,0.5283-0.4834,0.9893-0.8564,1.3838
		s-0.8291,0.7041-1.3682,0.9287c-0.5386,0.2236-1.1597,0.3359-1.8638,0.3359c-0.7036,0-1.3257-0.1123-1.8638-0.3359
		c-0.5391-0.2246-0.9951-0.5342-1.3682-0.9287c-0.3735-0.3945-0.6587-0.8555-0.856-1.3838
		c-0.1978-0.5283-0.3071-1.0908-0.3281-1.6875C237.6406,25.4688,237.6406,24.5195,237.6724,23.5703z M244.9844,23.6504
		c-0.0215-0.501-0.104-0.9385-0.248-1.3115c-0.144-0.374-0.3438-0.6826-0.5996-0.9287c-0.2563-0.2451-0.5576-0.4287-0.9043-0.5518
		c-0.3467-0.1221-0.728-0.1836-1.144-0.1836s-0.7974,0.0615-1.144,0.1836c-0.3467,0.123-0.6479,0.3066-0.9043,0.5518
		c-0.2559,0.2461-0.4585,0.5547-0.6074,0.9287c-0.1494,0.373-0.2295,0.8105-0.2402,1.3115
		c-0.0215,0.4805-0.0322,0.9277-0.0322,1.3438s0.0107,0.8643,0.0322,1.3447c0.0107,0.501,0.0908,0.9385,0.2402,1.3115
		c0.1489,0.374,0.3516,0.6826,0.6074,0.9277c0.2563,0.2461,0.5576,0.4297,0.9043,0.5527c0.3467,0.1221,0.728,0.1836,1.144,0.1836
		s0.7974-0.0615,1.144-0.1836c0.3467-0.123,0.6479-0.3066,0.9043-0.5527c0.2559-0.2451,0.4556-0.5537,0.5996-0.9277
		c0.144-0.373,0.2266-0.8105,0.248-1.3115c0.0215-0.4805,0.0322-0.9287,0.0322-1.3447S245.0059,24.1309,244.9844,23.6504z"/>
	<path class="st1" d="M256.9204,19.3945c0.1172,0,0.2183,0.043,0.3042,0.1279c0.085,0.0859,0.1279,0.1865,0.1279,0.3037v6.4004
		c0,0.6611-0.083,1.2666-0.248,1.8164c-0.1655,0.5488-0.4219,1.0264-0.7681,1.4316c-0.3472,0.4053-0.792,0.7197-1.3364,0.9443
		c-0.5439,0.2236-1.1943,0.3359-1.9517,0.3359c-0.7681,0-1.4243-0.1123-1.9683-0.3359c-0.5439-0.2246-0.9893-0.5391-1.3359-0.9443
		s-0.5996-0.8828-0.7598-1.4316c-0.1602-0.5498-0.2402-1.1553-0.2402-1.8164v-6.4004c0-0.1172,0.043-0.2178,0.1279-0.3037
		c0.0854-0.085,0.1865-0.1279,0.3042-0.1279h0.6558c0.1177,0,0.2188,0.043,0.3047,0.1279c0.085,0.0859,0.1279,0.1865,0.1279,0.3037
		v6.4805c0,1.0449,0.2451,1.8213,0.7354,2.3281c0.4912,0.5068,1.1738,0.7598,2.0483,0.7598s1.5601-0.2529,2.0562-0.7598
		s0.7441-1.2832,0.7441-2.3281v-6.4805c0-0.1172,0.042-0.2178,0.1279-0.3037c0.085-0.085,0.1865-0.1279,0.3037-0.1279H256.9204z"/>
	<path class="st1" d="M263.4961,23.5381c0.0215-0.5859,0.125-1.1406,0.312-1.6641c0.1865-0.5225,0.4692-0.9805,0.8481-1.376
		c0.3784-0.3945,0.8506-0.7031,1.416-0.9277c0.5654-0.2236,1.2319-0.3359,2-0.3359c0.7251,0,1.3623,0.1064,1.9121,0.3203
		c0.5488,0.2129,1.0078,0.4775,1.376,0.792c0.3677,0.3145,0.645,0.6504,0.832,1.0078c0.1865,0.3574,0.2852,0.6797,0.2959,0.9678
		c0.0103,0.0967-0.0215,0.1787-0.0962,0.248s-0.1597,0.1045-0.2559,0.1045h-0.6558c-0.2563,0-0.4111-0.0586-0.4644-0.1768
		c-0.1279-0.2559-0.2749-0.4951-0.4399-0.7197c-0.1655-0.2236-0.3604-0.416-0.584-0.5762
		c-0.2241-0.1592-0.4937-0.2881-0.8081-0.3838c-0.3149-0.0957-0.6855-0.1436-1.1118-0.1436c-0.4375,0-0.8398,0.0615-1.208,0.1836
		c-0.3682,0.123-0.6855,0.3066-0.9521,0.5518c-0.2666,0.2461-0.48,0.5527-0.6396,0.9199c-0.1602,0.3682-0.2461,0.7979-0.2563,1.2881
		c-0.0215,0.4805-0.0317,0.9229-0.0317,1.3281s0.0103,0.8486,0.0317,1.3281c0.0103,0.5117,0.0962,0.96,0.2563,1.3438
		c0.1597,0.3848,0.373,0.7021,0.6396,0.9521c0.2666,0.251,0.584,0.4375,0.9521,0.5605c0.3682,0.1221,0.7705,0.1836,1.208,0.1836
		c0.4263,0,0.8262-0.0527,1.2002-0.1602c0.373-0.1064,0.6982-0.2803,0.9756-0.5195c0.2773-0.2402,0.4932-0.5527,0.6484-0.9365
		c0.1543-0.3838,0.2314-0.8525,0.2314-1.4082v-0.4473h-2.3037c-0.1177,0-0.2188-0.043-0.3042-0.1279
		c-0.0854-0.0859-0.1279-0.1865-0.1279-0.3047V24.835c0-0.1182,0.0425-0.2188,0.1279-0.3047
		c0.0854-0.085,0.1865-0.1279,0.3042-0.1279h3.3916c0.1177,0,0.2188,0.043,0.3042,0.1279c0.0854,0.0859,0.1284,0.1865,0.1284,0.3047
		v1.5195c0,0.6396-0.1016,1.2295-0.3042,1.7676c-0.2026,0.5391-0.4985,1.0029-0.8882,1.3926s-0.8691,0.6934-1.4399,0.9121
		c-0.5708,0.2178-1.2188,0.3281-1.9438,0.3281c-0.7681,0-1.4346-0.1152-2-0.3447c-0.5654-0.2285-1.0352-0.541-1.4082-0.9355
		c-0.3735-0.3945-0.6562-0.8584-0.8477-1.3926c-0.1924-0.5332-0.2988-1.1084-0.3203-1.7275
		C263.4639,25.416,263.4639,24.4775,263.4961,23.5381z"/>
	<path class="st1" d="M281.752,29.1543c0.1172,0,0.2188,0.043,0.3037,0.1279c0.0854,0.0859,0.1284,0.1865,0.1284,0.3047v0.5752
		c0,0.1182-0.043,0.2188-0.1284,0.3047c-0.085,0.085-0.1865,0.1279-0.3037,0.1279h-6.4639c-0.1177,0-0.2188-0.043-0.3042-0.1279
		c-0.0854-0.0859-0.1279-0.1865-0.1279-0.3047V19.8262c0-0.1172,0.0425-0.2178,0.1279-0.3037
		c0.0854-0.085,0.1865-0.1279,0.3042-0.1279h6.3359c0.1172,0,0.2188,0.043,0.3037,0.1279c0.0854,0.0859,0.1279,0.1865,0.1279,0.3037
		v0.5762c0,0.1172-0.0425,0.2188-0.1279,0.3037c-0.085,0.0859-0.1865,0.1289-0.3037,0.1289h-5.248v3.376h4.896
		c0.1172,0,0.2183,0.042,0.3042,0.1279c0.085,0.085,0.1279,0.1865,0.1279,0.3037v0.5762c0,0.1172-0.043,0.2188-0.1279,0.3037
		c-0.0859,0.0859-0.187,0.1279-0.3042,0.1279h-4.896v3.5039H281.752z"/>
	<path class="st1" d="M291.2559,19.3945c0.1172,0,0.2188,0.043,0.3037,0.1279c0.0859,0.0859,0.1284,0.1865,0.1284,0.3037v0.5762
		c0,0.1172-0.0425,0.2188-0.1284,0.3037c-0.085,0.0859-0.1865,0.1289-0.3037,0.1289h-2.9922v9.3271
		c0,0.1182-0.0425,0.2188-0.1279,0.3047c-0.0854,0.085-0.1865,0.1279-0.3037,0.1279h-0.6562c-0.1172,0-0.2188-0.043-0.3037-0.1279
		c-0.0859-0.0859-0.1279-0.1865-0.1279-0.3047V20.835h-2.9922c-0.1172,0-0.2188-0.043-0.3037-0.1289
		c-0.0859-0.085-0.1284-0.1865-0.1284-0.3037v-0.5762c0-0.1172,0.0425-0.2178,0.1284-0.3037
		c0.085-0.085,0.1865-0.1279,0.3037-0.1279H291.2559z"/>
	<path class="st1" d="M305.1597,19.3945c0.1172,0,0.2183,0.043,0.3042,0.1279c0.085,0.0859,0.1279,0.1865,0.1279,0.3037v10.3359
		c0,0.1182-0.043,0.2188-0.1279,0.3047c-0.0859,0.085-0.187,0.1279-0.3042,0.1279h-0.6558c-0.1177,0-0.2188-0.043-0.3042-0.1279
		c-0.0854-0.0859-0.1279-0.1865-0.1279-0.3047v-4.5117h-5.6323v4.5117c0,0.1182-0.0425,0.2188-0.1279,0.3047
		c-0.085,0.085-0.1865,0.1279-0.3037,0.1279h-0.6562c-0.1172,0-0.2188-0.04-0.3037-0.1201
		c-0.0859-0.0801-0.1279-0.1846-0.1279-0.3125V19.8262c0-0.1172,0.042-0.2178,0.1279-0.3037
		c0.085-0.085,0.1865-0.1279,0.3037-0.1279h0.6562c0.1172,0,0.2188,0.043,0.3037,0.1279c0.0854,0.0859,0.1279,0.1865,0.1279,0.3037
		v4.3848h5.6323v-4.3848c0-0.1172,0.0425-0.2178,0.1279-0.3037c0.0854-0.085,0.1865-0.1279,0.3042-0.1279H305.1597z"/>
	<path class="st1" d="M315.2393,29.1543c0.1172,0,0.2188,0.043,0.3042,0.1279c0.0854,0.0859,0.1284,0.1865,0.1284,0.3047v0.5752
		c0,0.1182-0.043,0.2188-0.1284,0.3047c-0.0854,0.085-0.187,0.1279-0.3042,0.1279h-6.4639c-0.1172,0-0.2188-0.043-0.3037-0.1279
		c-0.0859-0.0859-0.1279-0.1865-0.1279-0.3047V19.8262c0-0.1172,0.042-0.2178,0.1279-0.3037
		c0.085-0.085,0.1865-0.1279,0.3037-0.1279h6.3359c0.1172,0,0.2188,0.043,0.3042,0.1279c0.0854,0.0859,0.1279,0.1865,0.1279,0.3037
		v0.5762c0,0.1172-0.0425,0.2188-0.1279,0.3037c-0.0854,0.0859-0.187,0.1289-0.3042,0.1289h-5.248v3.376h4.8965
		c0.1172,0,0.2183,0.042,0.3037,0.1279c0.085,0.085,0.1279,0.1865,0.1279,0.3037v0.5762c0,0.1172-0.043,0.2188-0.1279,0.3037
		c-0.0854,0.0859-0.1865,0.1279-0.3037,0.1279h-4.8965v3.5039H315.2393z"/>
	<path class="st1" d="M322.1191,19.3945c0.5225,0,1.0166,0.0635,1.4805,0.1924c0.4639,0.1279,0.8721,0.3252,1.2236,0.5918
		c0.3525,0.2666,0.6323,0.6074,0.8403,1.0234c0.2075,0.416,0.312,0.918,0.312,1.5039c0,0.8643-0.2158,1.5527-0.6484,2.0645
		c-0.4316,0.5117-0.9834,0.875-1.6558,1.0879l2.416,4.208c0.0317,0.0645,0.0483,0.123,0.0483,0.1758
		c0,0.0967-0.0352,0.1787-0.1045,0.248s-0.1519,0.1045-0.248,0.1045h-0.6875c-0.2139,0-0.3711-0.0537-0.4722-0.1602
		c-0.1016-0.1064-0.1733-0.1973-0.2163-0.2725l-2.3198-4.0801h-2.752v4.0801c0,0.1182-0.0425,0.2188-0.1279,0.3047
		c-0.0854,0.085-0.187,0.1279-0.3042,0.1279h-0.6558c-0.1177,0-0.2188-0.043-0.3042-0.1279
		c-0.0854-0.0859-0.1279-0.1865-0.1279-0.3047V19.8262c0-0.1172,0.0425-0.2178,0.1279-0.3037
		c0.0854-0.085,0.1865-0.1279,0.3042-0.1279H322.1191z M319.3354,24.6426h2.7041c0.7681,0,1.3623-0.1523,1.7837-0.4561
		s0.6323-0.7969,0.6323-1.4805c0-0.6816-0.2109-1.165-0.6323-1.4473c-0.4214-0.2832-1.0156-0.4238-1.7837-0.4238h-2.7041V24.6426z"
		/>
	<path class="st1" d="M335.127,29.1543c0.1172,0,0.2188,0.043,0.3042,0.1279c0.0854,0.0859,0.1284,0.1865,0.1284,0.3047v0.5752
		c0,0.1182-0.043,0.2188-0.1284,0.3047c-0.0854,0.085-0.187,0.1279-0.3042,0.1279h-6.4639c-0.1172,0-0.2188-0.043-0.3037-0.1279
		c-0.0859-0.0859-0.1279-0.1865-0.1279-0.3047V19.8262c0-0.1172,0.042-0.2178,0.1279-0.3037
		c0.085-0.085,0.1865-0.1279,0.3037-0.1279h6.3359c0.1172,0,0.2188,0.043,0.3042,0.1279c0.0854,0.0859,0.1279,0.1865,0.1279,0.3037
		v0.5762c0,0.1172-0.0425,0.2188-0.1279,0.3037c-0.0854,0.0859-0.187,0.1289-0.3042,0.1289h-5.248v3.376h4.8965
		c0.1172,0,0.2183,0.042,0.3037,0.1279c0.085,0.085,0.1279,0.1865,0.1279,0.3037v0.5762c0,0.1172-0.043,0.2188-0.1279,0.3037
		c-0.0854,0.0859-0.1865,0.1279-0.3037,0.1279h-4.8965v3.5039H335.127z"/>
</g>
<g>
	<circle class="st2" cx="40" cy="130.2322" r="9"/>
	<g id="XMLID_931_">
		<polyline id="XMLID_954_" class="st0" points="29.3617,9.1795 50.5161,17.2598 50.315,110.9704 25.2662,119.9348 5.3337,109.6531 
			3.8147,18.0011 27.3095,8.2 		"/>
		<g id="XMLID_932_">
			<path id="XMLID_953_" class="st2" d="M29.5059,93.373c0-0.758,0.4781-1.5744,1.1482-2.0676l0.0324-0.0225l-0.0019-0.0047
				c0.6868-0.4906,1.1797-1.3217,1.1797-2.0917v-8.4841l0.0001-0.0008v-0.6372c0-0.9494,0.7695-1.9965,1.7187-2.3388l1.2794-0.4614
				c0.9492-0.3423,1.7187,0.1498,1.7187,1.0992v1.2792l-0.0001,0.0006v6.2703c0,0.7662-0.488,1.5927-1.1696,2.0843l0.0019,0.0048
				l-0.0546,0.0378c-0.6637,0.4943-1.136,1.305-1.1362,2.0583v3.4109l0.0001,0.001v1.822c0,0.9492-0.7695,1.9962-1.7187,2.3385
				l-0.6321,0.228l-0.0051,0.0022l-0.0103,0.0033l-0.6319,0.2279c-0.9492,0.3423-1.7187-0.1497-1.7187-1.099v-0.6369l-0.0001-0.0024
				V93.373z"/>
			<path id="XMLID_951_" class="st2" d="M39.8318,85.9795v5.5226v0.6396v0.6396c0,0.9492,0.7695,1.4412,1.7187,1.099l0.6377-0.2299
				l0.002-0.0006l0.002-0.0008l0.6377-0.2299c0.9492-0.3423,1.7187-1.3893,1.7187-2.3385v-0.6396v-0.6396v-7.0957
				c0-0.7738,0.4977-1.6091,1.1896-2.0988l-0.0002-0.0004l0.0002-0.0001l-0.0009-0.0018c0.6816-0.4916,1.1698-1.3181,1.1698-2.0844
				v-3.7693l0-0.0008v-0.6387c0-0.9494-0.7695-1.4415-1.7187-1.0992l-1.2794,0.4614c-0.9492,0.3423-1.7187,1.3893-1.7187,2.3388
				v1.2792l0.0001,0.0006v4.7011c0,0.77-0.493,1.6011-1.1799,2.0915l0.0014,0.0033C40.3248,84.3784,39.8318,85.2095,39.8318,85.9795
				z"/>
			<path id="XMLID_950_" class="st2" d="M29.5059,67.6117c0-0.758,0.4781-1.5744,1.1482-2.0676l0.0324-0.0225l-0.0019-0.0047
				c0.6868-0.4906,1.1797-1.3217,1.1797-2.0917V54.941l0.0001-0.0008V54.303c0-0.9494,0.7695-1.9965,1.7187-2.3388l1.2794-0.4614
				c0.9492-0.3423,1.7187,0.1498,1.7187,1.0992v1.2792l-0.0001,0.0006v6.2703c0,0.7662-0.488,1.5927-1.1696,2.0843l0.0019,0.0048
				L35.359,62.279c-0.6637,0.4943-1.136,1.305-1.1362,2.0583v3.4109l0.0001,0.001v1.822c0,0.9492-0.7695,1.9962-1.7187,2.3385
				l-0.6321,0.228c-0.0026,0.0009-0.0051,0.0022-0.0051,0.0022l-0.0103,0.0033l-0.6319,0.2279
				c-0.9492,0.3423-1.7187-0.1497-1.7187-1.099v-0.6369l-0.0001-0.0016V67.6117z"/>
			<path id="XMLID_948_" class="st2" d="M39.8318,60.2182v5.5226v0.6396v0.6396c0,0.9492,0.7695,1.4413,1.7187,1.099l0.6377-0.2299
				l0.002-0.0006l0.002-0.0008l0.6377-0.23c0.9492-0.3423,1.7187-1.3893,1.7187-2.3385v-0.6396v-0.6396v-7.0957
				c0-0.7738,0.4977-1.6091,1.1896-2.0988l-0.0002-0.0004l0.0002-0.0001l-0.0009-0.0018c0.6816-0.4916,1.1698-1.3181,1.1698-2.0844
				v-3.7693l0-0.0008v-0.6387c0-0.9494-0.7695-1.4415-1.7187-1.0992l-1.2794,0.4614c-0.9492,0.3423-1.7187,1.3893-1.7187,2.3388
				v1.2792l0.0001,0.0006v4.7011c0,0.77-0.493,1.6011-1.1799,2.0915l0.0014,0.0033C40.3248,58.6171,39.8318,59.4482,39.8318,60.2182
				z"/>
			<g id="XMLID_946_">
				<path id="XMLID_947_" class="st2" d="M3.6889,113.325c-1.5234-0.2467-2.807-1.4059-3.1348-3.0075
					c-0.2207-1.0777-2.0292-10.7118,2.3701-16.979c4.6625-6.6425,12.6733-6.7486,13.012-6.7497l0.0287,7.655l0.0341-0.0001
					c-0.0443,0.0008-4.454,0.1378-6.8092,3.4932c-2.125,3.0271-1.5154,9.1481-1.1344,11.0535
					c0.4138,2.0696-0.9247,4.088-2.9932,4.5065C4.5959,113.3914,4.1323,113.3968,3.6889,113.325z"/>
			</g>
			<path id="XMLID_945_" class="st2" d="M37.9507,106.0612c-4.3551,1.3128-7.2563,0.5303-7.3778,0.4964
				c-0.8404-0.235-1.1259-1.2262-0.6373-2.2143c0.4867-0.9845,1.5597-1.5938,2.3982-1.3651
				c0.0493,0.0129,2.279,0.5686,5.6169-0.4375c3.3749-1.0173,5.6071-2.8955,5.629-2.9142c0.8467-0.7331,1.9203-0.7569,2.3975-0.0537
				c0.4775,0.7027,0.178,1.8667-0.669,2.5992C45.1875,102.2766,42.2938,104.752,37.9507,106.0612z"/>
			<path id="XMLID_942_" class="st2" d="M25.2663,120.7658c0.1553,0,0.31-0.0436,0.4458-0.1296
				c0.2402-0.152,0.3855-0.4168,0.3855-0.7017v-93.166c0-0.3335-0.1989-0.6346-0.5056-0.7648L4.9795,17.2313
				c-0.2575-0.1101-0.5514-0.0827-0.7838,0.0709c-0.2324,0.1536-0.3726,0.4134-0.3732,0.6927L3.67,110.1794
				c-0.0006,0.3229,0.186,0.6168,0.4776,0.7531l20.765,9.754C25.0249,120.7401,25.1462,120.7658,25.2663,120.7658z M24.435,27.3183
				v91.3079l-19.1013-8.973l0.1492-90.4006L24.435,27.3183z"/>
			<path id="XMLID_939_" class="st2" d="M25.2663,120.7658c0.1028,0,0.2061-0.019,0.3045-0.0581l24.7443-9.7373
				c0.3173-0.124,0.5262-0.4302,0.5268-0.772l0.1525-92.185c0.0006-0.2698-0.1302-0.5229-0.3503-0.6788
				c-0.2201-0.1553-0.5017-0.1961-0.757-0.1067l-24.8968,8.7563c-0.3324,0.1173-0.5553,0.4318-0.5553,0.7843v93.166
				c0,0.2749,0.1363,0.5318,0.3631,0.6871C24.9384,120.7166,25.1015,120.7658,25.2663,120.7658z M49.1804,109.6308l-23.0828,9.0836
				v-91.357l23.2326-8.1708L49.1804,109.6308z"/>
			<path id="XMLID_936_" class="st2" d="M25.2663,27.5998c0.0933,0,0.1866-0.0156,0.276-0.0469l24.8968-8.7563
				c0.3184-0.1123,0.5374-0.4056,0.5542-0.743c0.0168-0.3369-0.1715-0.6508-0.4771-0.7938L29.7433,7.5225
				c-0.2078-0.0972-0.4464-0.1045-0.6575-0.0212L4.3415,17.2385c-0.314,0.124-0.5223,0.4251-0.5268,0.7626
				c-0.0045,0.3374,0.1955,0.6441,0.5061,0.7765l20.6203,8.7563C25.0451,27.5775,25.1557,27.5998,25.2663,27.5998z M47.9703,17.9022
				l-22.6756,7.9753L6.8415,18.0413l22.5203-8.8619L47.9703,17.9022z"/>
			<path id="XMLID_935_" class="st2" d="M60.4667,58.1498c-0.5796-1.5287-2.032-2.4678-3.5752-2.4678
				c-0.4491,0-0.9059,0.0794-1.3512,0.2473c-1.975,0.7438-2.9737,2.9502-2.2344,4.927c0.6807,1.8201,2.2608,7.7649,0.6471,11.0927
				c-0.7579,1.563-1.9717,2.6106-3.1229,3.3041v8.332c2.6052-0.8244,7.4474-3.0086,10.0111-8.2958
				C64.1821,68.3995,60.8569,59.1785,60.4667,58.1498z"/>
			<path id="XMLID_934_" class="st2" d="M25.2662,119.9348l-5.1986-2.4625l-0.0342,9.8934c-0.0075,2.114,1.7005,3.8338,3.8142,3.841
				h0.0137c2.1078,0,3.8201-1.7051,3.8273-3.8142l0.0299-8.6329L25.2662,119.9348z"/>
			<path id="XMLID_933_" class="st2" d="M36.6789,115.2571l-0.0283,8.1986c-0.0075,2.114,1.7005,3.8338,3.8142,3.841h0.0137
				c2.1078,0,3.8201-1.7051,3.8273-3.8142l0.0392-11.3283L36.6789,115.2571z"/>
		</g>
	</g>
	<circle class="st2" cx="24" cy="135.2322" r="9"/>
	<circle class="st0" cx="24" cy="135.2322" r="4"/>
	<circle class="st0" cx="40" cy="130.2322" r="4"/>
</g>
</svg>
