<?xml version="1.0" encoding="utf-8"?>
<!-- Generator: Adobe Illustrator 22.1.0, SVG Export Plug-In . SVG Version: 6.00 Build 0)  -->
<svg width="359px" height="300px" version="1.1" id="Layer_1" xmlns="http://www.w3.org/2000/svg" xmlns:xlink="http://www.w3.org/1999/xlink" x="0px" y="0px"
	 viewBox="0 0 359 300" style="enable-background:new 0 0 359 300;" xml:space="preserve">
<style type="text/css">
	.st0{fill:#624D9E;}
	.st1{fill:#6344AE;}
	.st2{fill:#EB4F86;}
	.st3{fill:url(#XMLID_5_);}
	.st4{fill:url(#XMLID_6_);}
	.st5{fill:url(#XMLID_7_);}
	.st6{fill:url(#XMLID_8_);}
	.st7{fill:#774CA5;stroke:#774CA5;stroke-width:2.1939;stroke-miterlimit:10;}
	.st8{fill:none;stroke:#F36898;stroke-width:1.6795;stroke-linecap:round;stroke-miterlimit:10;stroke-dasharray:10.0772,2.3869;}
	.st9{fill:#6344AE;stroke:#6344AE;stroke-width:2.1939;}
	.st10{fill:#6344AE;stroke:#6344AE;stroke-width:5.0614;}
	.st11{fill:#6344AE;stroke:#774CA5;stroke-width:5.0614;}
	.st12{fill:#F36898;stroke:#F36898;stroke-width:4.1583;stroke-linecap:round;}
	.st13{fill:#F36898;stroke:#F36898;stroke-width:4.2347;stroke-linecap:round;}
	.st14{fill:#E8364D;stroke:#E8364D;stroke-width:5.0614;}
	.st15{fill:#E8364D;stroke:#774CA5;stroke-width:4.1583;}
	.st16{fill:#E8364D;stroke:#774CA5;stroke-width:4.2347;}
	.st17{fill:#634B9D;stroke:#774CA5;stroke-width:2.2335;stroke-miterlimit:10;}
	.st18{fill:none;stroke:#EF6796;stroke-width:1.7099;stroke-miterlimit:10;}
	.st19{fill:#6344AE;stroke:#774CA5;stroke-width:2.2335;}
	.st20{fill:#634B9D;stroke:#634B9D;stroke-width:2.2335;}
	.st21{fill:#774CA5;stroke:#634B9D;stroke-width:2.8071;stroke-miterlimit:10;}
	.st22{fill:#774CA5;stroke:#634B9D;stroke-width:1.7099;stroke-miterlimit:10;}
	.st23{fill:#6344AE;stroke:#634B9D;stroke-width:2.8071;}
	.st24{fill:#774CA5;stroke:#634B9D;stroke-width:2.8071;}
	.st25{fill:#FFFFFF;stroke:#EF6796;stroke-width:2.8071;}
	.st26{fill:#6344AE;stroke:#774CA5;stroke-width:2.498;}
	.st27{fill:none;stroke:#774CA5;stroke-width:2.5769;}
	.st28{fill:#F36898;stroke:#774CA5;stroke-width:2.5769;}
	.st29{fill:#6344AE;stroke:#774CA5;stroke-width:2.5769;}
	.st30{fill:#774CA5;stroke:#774CA5;stroke-width:2.5769;}
	.st31{fill:none;stroke:#414041;stroke-width:2.5769;}
	.st32{fill:#FFFFFF;stroke:#E8364D;stroke-width:2.5769;}
	.st33{fill:#FFFFFF;stroke:#414041;stroke-width:0.9339;}
	.st34{fill:#E8364D;stroke:#774CA5;stroke-width:0.9339;}
	.st35{fill:#634B9D;stroke:#634B9D;stroke-width:0.9339;}
	.st36{fill:#E8364D;}
	.st37{fill:#634B9D;stroke:#634B9D;stroke-width:1.6863;}
	.st38{fill:#E8364D;stroke:#774CA5;stroke-width:1.6863;}
	.st39{fill:#634B9D;}
	.st40{fill:#634B9D;stroke:#774CA5;stroke-width:0.5925;}
	.st41{fill:none;stroke:#F36898;stroke-width:0.791;}
	.st42{fill:#FFFFFF;}
	.st43{fill:#F36898;stroke:#6344AE;stroke-width:2.5307;}
	.st44{fill:none;stroke:#6344AE;stroke-width:2.1511;stroke-miterlimit:10;}
	.st45{fill:#FFFFFF;stroke:#FFFFFF;stroke-width:1.0755;}
	.st46{fill:none;stroke:#414041;stroke-width:1.2653;stroke-miterlimit:10;}
	.st47{fill:#DE223E;}
	.st48{fill:#774CA5;}
</style>
<g>
	<polygon id="XMLID_409_" class="st0" points="301.3139,63.2619 303.446,67.4777 308.1143,68.2028 304.7638,71.5333 
		305.5168,76.1972 301.3139,74.0398 297.111,76.1972 297.864,71.5333 294.5134,68.2028 299.1817,67.4777 	"/>
	<polygon id="XMLID_408_" class="st0" points="12.3139,89.2619 14.446,93.4777 19.1143,94.2028 15.7638,97.5333 16.5168,102.1972 
		12.3139,100.0398 8.111,102.1972 8.8639,97.5333 5.5134,94.2028 10.1817,93.4777 	"/>
	<polygon id="XMLID_407_" class="st0" points="159.3139,122.2619 161.446,126.4777 166.1143,127.2028 162.7638,130.5333 
		163.5168,135.1972 159.3139,133.0398 155.111,135.1972 155.8639,130.5333 152.5134,127.2028 157.1817,126.4777 	"/>
	<path id="XMLID_388_" class="st1" d="M73.4349,287.2068c62.8588,12.8215,280.433,18.935,283.3691-12.354
		c2.9361-31.289-44.4107-44.1352-113.8862-58.3063S33.8667,177.0948,29.1834,200.0554s55.4916,32.0459,52.6816,45.8223
		c-2.81,13.7764-44.1645,5.3412-41.6997,18.5991C42.63,277.7347,43.6597,281.1335,73.4349,287.2068z"/>
	<path id="XMLID_372_" class="st2" d="M270.4173,278.1469c-2.294-0.0136-3.9743-1.6539-5.4572-3.1014
		c-1.2397-1.2095-2.407-2.3498-3.6421-2.3588c-1.2758,0-2.5584,1.1357-3.917,2.3377c-1.675,1.4791-3.3936,2.9974-5.6364,2.9974
		c-2.2421-0.0151-4.0413-1.5198-5.781-2.9749c-1.4618-1.2246-2.9658-2.4838-4.39-2.4944c-1.2509,0-2.215,0.8661-3.6572,2.291
		c-1.446,1.4279-3.0856,3.0457-5.4775,3.0471c-2.4725-0.0181-4.155-1.693-5.6402-3.1707c-1.1786-1.1734-2.2925-2.282-3.4968-2.291
		c-1.3022,0-2.5847,1.1718-3.9426,2.41c-1.5929,1.4611-3.1933,2.9282-5.2011,2.9282c-0.7516-0.006-1.3368-0.598-1.3315-1.321
		c0.003-0.3781,0.168-0.7381,0.4541-0.9851c0.2372-0.2048,0.543-0.3178,0.8601-0.3178c0.9444,0,2.0063-0.9128,3.4057-2.2007
		c1.687-1.5439,3.4252-3.136,5.7388-3.136c2.3121,0.0166,3.9328,1.6298,5.3623,3.0517c1.2396,1.2336,2.41,2.3995,3.7717,2.4085
		c1.2419,0,2.2082-0.8646,3.6542-2.288c1.4483-1.4294,3.0886-3.0487,5.4798-3.0487c2.404,0.0166,4.2763,1.5831,6.0875,3.0984
		c1.4483,1.214,2.8167,2.3603,4.0857,2.3708c1.2796,0,2.6209-1.1899,3.9185-2.3407c1.6659-1.4716,3.3883-2.9944,5.6356-2.9944
		c2.3279,0.0151,4.0081,1.6554,5.4911,3.1029c1.2434,1.2126,2.4085,2.3483,3.6406,2.3588c0.3525,0.0015,0.6808,0.1401,0.9264,0.3886
		c0.2463,0.25,0.3803,0.5799,0.3781,0.9308c-0.0052,0.7185-0.5927,1.3014-1.3097,1.3029L270.4173,278.1469z M285.2878,265.2789
		c-2.2948-0.0151-3.975-1.6554-5.4572-3.1014c-1.2374-1.208-2.4062-2.3498-3.6421-2.3588c-1.2766,0-2.5584,1.1357-3.9163,2.3377
		c-1.6727,1.4776-3.3936,2.9974-5.6394,2.9974c-2.2443-0.0166-4.0443-1.5243-5.7863-2.9824
		c-1.4603-1.2216-2.9613-2.4763-4.3824-2.4868c-1.2509,0-2.215,0.8661-3.6572,2.291c-1.446,1.4264-3.0856,3.0457-5.4775,3.0457
		c-2.468-0.0166-4.152-1.69-5.6379-3.1677c-1.1809-1.1749-2.2948-2.2835-3.499-2.2925c-1.3052,0-2.5892,1.1734-3.9486,2.416
		c-1.5838,1.4521-3.185,2.9207-5.1943,2.9207c-0.3803-0.003-0.7087-0.1416-0.9542-0.3901c-0.2463-0.25-0.3803-0.5799-0.3781-0.9309
		c0.0023-0.3781,0.168-0.7365,0.4541-0.9836c0.2372-0.2048,0.5408-0.3193,0.854-0.3193c0.9542,0.0015,2.0154-0.9113,3.4124-2.2007
		c1.6908-1.5469,3.4267-3.136,5.7381-3.136c2.3113,0.0166,3.9328,1.6298,5.363,3.0532c1.2411,1.2336,2.4115,2.398,3.7694,2.4085
		c1.2427,0,2.2097-0.8661,3.6564-2.2895c1.4483-1.4294,3.0886-3.0487,5.482-3.0487c2.4002,0.0166,4.2725,1.5831,6.0822,3.0984
		c1.4573,1.2186,2.8235,2.3618,4.0902,2.3708c1.2773,0,2.5591-1.1357,3.9163-2.3377c1.6659-1.4731,3.3883-2.9974,5.6357-2.9974
		c2.3294,0.0166,4.0097,1.6569,5.4918,3.1029c1.2374,1.208,2.4062,2.3498,3.6414,2.3588c0.723,0.0045,1.3082,0.5965,1.3029,1.3195
		c-0.006,0.7185-0.5934,1.3029-1.3097,1.3044L285.2878,265.2789z M300.1591,252.4095c-2.294-0.0136-3.9742-1.6539-5.4572-3.1014
		c-1.2374-1.208-2.4048-2.3483-3.6406-2.3588c-1.2796,0-2.5614,1.1372-3.9185,2.3407c-1.672,1.4746-3.3929,2.9944-5.6364,2.9944
		c-2.2473-0.0151-4.0481-1.5228-5.7893-2.9809c-1.4535-1.2186-2.9575-2.4778-4.3817-2.4883c-1.2495,0-2.2142,0.8661-3.6572,2.2925
		c-1.446,1.4264-3.0856,3.0456-5.4805,3.0456c-2.468-0.0166-4.152-1.693-5.6372-3.1707c-1.1786-1.1734-2.2925-2.282-3.4968-2.291
		c-1.2999,0-2.581,1.1689-3.9366,2.404c-1.5951,1.4641-3.1963,2.9342-5.2071,2.9342c-0.7516-0.006-1.3368-0.598-1.3315-1.321
		c0.003-0.3781,0.168-0.7366,0.4526-0.9836c0.2387-0.2064,0.5437-0.3193,0.8616-0.3193c0.9444,0,2.0063-0.9128,3.4056-2.2006
		c1.6893-1.5454,3.4267-3.136,5.7388-3.136c2.3121,0.0166,3.9328,1.6298,5.3623,3.0517c1.2389,1.2336,2.41,2.3995,3.7701,2.41
		c1.2419,0,2.2089-0.8661,3.6557-2.2895c1.4475-1.4294,3.0863-3.0487,5.4828-3.0487c2.4017,0.0166,4.2733,1.5831,6.0838,3.0984
		c1.4528,1.2171,2.8205,2.3618,4.088,2.3708c1.2766,0,2.5591-1.1372,3.9163-2.3407c1.6659-1.4716,3.3876-2.9944,5.6364-2.9944
		c2.3271,0.0151,4.0066,1.6554,5.4888,3.1014c1.2397,1.2095,2.4085,2.3513,3.6444,2.3603c0.723,0.0045,1.3074,0.5965,1.3029,1.3195
		c-0.0053,0.7185-0.5927,1.3014-1.3097,1.3029L300.1591,252.4095z"/>
	<linearGradient id="XMLID_5_" gradientUnits="userSpaceOnUse" x1="34.9516" y1="244.1516" x2="34.9516" y2="200.4456">
		<stop  offset="0" style="stop-color:#F183A8"/>
		<stop  offset="1" style="stop-color:#774CA5"/>
	</linearGradient>
	<path id="XMLID_315_" class="st3" d="M34.9516,200.4456C15.6484,200.4456,0,216.0939,0,235.3972v1.7642
		c0,3.8447,3.1457,6.9903,6.9903,6.9903h55.9225c3.8447,0,6.9903-3.1456,6.9903-6.9903v-1.7642
		C69.9031,216.0939,54.2548,200.4456,34.9516,200.4456z"/>
	<linearGradient id="XMLID_6_" gradientUnits="userSpaceOnUse" x1="225.5165" y1="238.4316" x2="225.5165" y2="194.7256">
		<stop  offset="0" style="stop-color:#F183A8"/>
		<stop  offset="1" style="stop-color:#774CA5"/>
	</linearGradient>
	<path id="XMLID_313_" class="st4" d="M225.5165,194.7256c-19.3032,0-34.9516,15.6483-34.9516,34.9516v1.7642
		c0,3.8446,3.1456,6.9903,6.9903,6.9903h55.9225c3.8447,0,6.9903-3.1457,6.9903-6.9903v-1.7642
		C260.468,210.3739,244.8197,194.7256,225.5165,194.7256z"/>
	<linearGradient id="XMLID_7_" gradientUnits="userSpaceOnUse" x1="280.5061" y1="226.0383" x2="280.5061" y2="182.3322">
		<stop  offset="0" style="stop-color:#F183A8"/>
		<stop  offset="1" style="stop-color:#774CA5"/>
	</linearGradient>
	<path id="XMLID_311_" class="st5" d="M280.5062,182.3322c-19.3032,0-34.9516,15.6483-34.9516,34.9516v1.7642
		c0,3.8447,3.1457,6.9903,6.9903,6.9903h55.9225c3.8447,0,6.9903-3.1456,6.9903-6.9903v-1.7642
		C315.4577,197.9806,299.8094,182.3322,280.5062,182.3322z"/>
	<linearGradient id="XMLID_8_" gradientUnits="userSpaceOnUse" x1="131.3689" y1="243.765" x2="131.3689" y2="146.3286">
		<stop  offset="0" style="stop-color:#F183A8"/>
		<stop  offset="1" style="stop-color:#774CA5"/>
	</linearGradient>
	<path id="XMLID_305_" class="st6" d="M131.3691,146.3286c-43.0339,0-77.9197,34.8857-77.9197,77.9196v3.933
		c0,8.5711,7.0126,15.5839,15.5839,15.5839h124.6713c8.5713,0,15.5839-7.0127,15.5839-15.5839v-3.933
		C209.2885,181.2143,174.4027,146.3286,131.3691,146.3286z M190.3921,201.444c-2.8657,1.194-7.6225-0.25-8.5776-2.6379
		c-0.9555-2.3879-2.5898-10.7283-14.2905-23.3844c-11.701-12.656-32.0658-17.5811-32.0658-17.5811
		c25.6512,0,47.6252,15.7429,56.7871,38.0938C192.2454,195.9345,193.2575,200.25,190.3921,201.444z"/>
	<g>
		<rect x="182.291" y="107.1757" class="st7" width="32.4" height="123.7302"/>
		<g>
			<line class="st8" x1="214.0972" y1="160.3989" x2="182.8846" y2="160.3989"/>
			<line class="st8" x1="214.0972" y1="136.4388" x2="182.8846" y2="136.4388"/>
			<line class="st8" x1="214.0972" y1="118.4654" x2="182.8846" y2="118.4654"/>
			<line class="st8" x1="214.0972" y1="184.3588" x2="182.8846" y2="184.3588"/>
			<line class="st8" x1="214.0972" y1="166.3902" x2="182.8846" y2="166.3902"/>
			<line class="st8" x1="214.0972" y1="142.4273" x2="182.8846" y2="142.4273"/>
			<line class="st8" x1="214.0972" y1="124.4577" x2="182.8846" y2="124.4577"/>
			<line class="st8" x1="214.0972" y1="190.3493" x2="182.8846" y2="190.3493"/>
			<line class="st8" x1="214.0972" y1="172.3807" x2="182.8846" y2="172.3807"/>
			<line class="st8" x1="214.0972" y1="148.4198" x2="182.8846" y2="148.4198"/>
			<line class="st8" x1="214.0972" y1="130.4482" x2="182.8846" y2="130.4482"/>
			<line class="st8" x1="214.0972" y1="196.3438" x2="182.8846" y2="196.3438"/>
			<line class="st8" x1="214.0972" y1="178.3703" x2="182.8846" y2="178.3703"/>
			<line class="st8" x1="214.0972" y1="154.4103" x2="182.8846" y2="154.4103"/>
			<line class="st8" x1="214.0972" y1="112.4759" x2="182.8846" y2="112.4759"/>
			<line class="st8" x1="214.0972" y1="202.3323" x2="182.8846" y2="202.3323"/>
			<line class="st8" x1="214.0972" y1="220.301" x2="182.8846" y2="220.301"/>
			<line class="st8" x1="214.0972" y1="214.3134" x2="182.8846" y2="214.3134"/>
			<line class="st8" x1="214.0972" y1="208.3229" x2="182.8846" y2="208.3229"/>
			<line class="st8" x1="214.0972" y1="226.2932" x2="182.8846" y2="226.2932"/>
		</g>
		<polyline class="st9" points="215.4647,106.603 226.7944,101.5797 226.7944,137.5266 226.7944,225.8442 215.4647,230.8667 		"/>
		<polyline class="st9" points="182.9536,106.603 194.2758,101.5797 224.7031,101.5797 212.5958,107.1757 		"/>
	</g>
	<g>
		<polyline class="st10" points="209.2885,163.1803 234.2204,150.3679 277.8802,150.3679 253.6985,162.886 		"/>
		<g>
			<polyline class="st11" points="209.7961,243.2482 252.9308,243.2482 252.9308,163.1572 209.9202,163.1572 209.9202,243.2482 			
				"/>
			<g>
				<line class="st12" x1="225.5229" y1="172.0361" x2="216.6698" y2="172.0361"/>
				<line class="st12" x1="216.6698" y1="180.5864" x2="225.5229" y2="180.5864"/>
				<line class="st12" x1="216.6698" y1="223.3213" x2="225.5229" y2="223.3213"/>
				<line class="st12" x1="216.6698" y1="214.7754" x2="225.5229" y2="214.7754"/>
				<line class="st12" x1="216.6698" y1="206.2311" x2="225.5229" y2="206.2311"/>
				<line class="st12" x1="216.6698" y1="197.6781" x2="225.5229" y2="197.6781"/>
				<line class="st12" x1="216.6698" y1="189.1308" x2="225.5229" y2="189.1308"/>
			</g>
			<g>
				<line class="st13" x1="235.0197" y1="172.0361" x2="243.8699" y2="172.0361"/>
				<line class="st13" x1="235.0197" y1="180.9023" x2="243.8699" y2="180.9023"/>
				<line class="st13" x1="235.0197" y1="225.2216" x2="243.8699" y2="225.2216"/>
				<line class="st13" x1="235.0197" y1="216.361" x2="243.8699" y2="216.361"/>
				<line class="st13" x1="235.0197" y1="207.4949" x2="243.8699" y2="207.4949"/>
				<line class="st13" x1="235.0197" y1="198.6331" x2="243.8699" y2="198.6331"/>
				<line class="st13" x1="235.0197" y1="189.7655" x2="243.8699" y2="189.7655"/>
			</g>
		</g>
		<g>
			<polyline class="st11" points="252.9308,243.2482 277.8802,227.9218 277.8802,150.3679 253.0549,163.1572 253.0549,243.2482 			
				"/>
		</g>
	</g>
	<g>
		<g>
			<polyline class="st14" points="14.3741,199.7632 29.3333,192.0775 55.529,192.0775 41.0199,199.5904 			"/>
			<g>
				<polyline class="st14" points="14.68,247.8078 40.5583,247.8078 40.5583,199.7532 14.755,199.7532 14.755,247.8078 				"/>
				<g>
					<line class="st15" x1="18.8006" y1="205.0744" x2="24.1132" y2="205.0744"/>
					<line class="st15" x1="18.8006" y1="210.2064" x2="24.1132" y2="210.2064"/>
					<line class="st15" x1="18.8006" y1="235.8484" x2="24.1132" y2="235.8484"/>
					<line class="st15" x1="18.8006" y1="230.722" x2="24.1132" y2="230.722"/>
					<line class="st15" x1="18.8006" y1="225.597" x2="24.1132" y2="225.597"/>
					<line class="st15" x1="18.8006" y1="220.4649" x2="24.1132" y2="220.4649"/>
					<line class="st15" x1="18.8006" y1="215.3329" x2="24.1132" y2="215.3329"/>
				</g>
				<g>
					<line class="st16" x1="29.8123" y1="205.0744" x2="35.1216" y2="205.0744"/>
					<line class="st16" x1="29.8123" y1="210.4012" x2="35.1216" y2="210.4012"/>
					<line class="st16" x1="29.8123" y1="236.9896" x2="35.1216" y2="236.9896"/>
					<line class="st16" x1="29.8123" y1="231.6714" x2="35.1216" y2="231.6714"/>
					<line class="st16" x1="29.8123" y1="226.3487" x2="35.1216" y2="226.3487"/>
					<line class="st16" x1="29.8123" y1="221.0349" x2="35.1216" y2="221.0349"/>
					<line class="st16" x1="29.8123" y1="215.7138" x2="35.1216" y2="215.7138"/>
				</g>
			</g>
		</g>
		<polygon class="st10" points="40.5583,247.8078 55.529,243.0566 55.529,195.9198 40.5583,199.7532 		"/>
	</g>
	<g>
		<rect x="86.4967" y="116.8479" class="st17" width="32.9838" height="125.969"/>
		<g>
			<line class="st18" x1="118.8702" y1="171.0332" x2="87.0933" y2="171.0332"/>
			<line class="st18" x1="118.8702" y1="146.6409" x2="87.0933" y2="146.6409"/>
			<line class="st18" x1="118.8702" y1="128.3456" x2="87.0933" y2="128.3456"/>
			<line class="st18" x1="118.8702" y1="195.4285" x2="87.0933" y2="195.4285"/>
			<line class="st18" x1="118.8702" y1="177.134" x2="87.0933" y2="177.134"/>
			<line class="st18" x1="118.8702" y1="152.7367" x2="87.0933" y2="152.7367"/>
			<line class="st18" x1="118.8702" y1="134.4434" x2="87.0933" y2="134.4434"/>
			<line class="st18" x1="118.8702" y1="201.5263" x2="87.0933" y2="201.5263"/>
			<line class="st18" x1="118.8702" y1="183.2328" x2="87.0933" y2="183.2328"/>
			<line class="st18" x1="118.8702" y1="158.8375" x2="87.0933" y2="158.8375"/>
			<line class="st18" x1="118.8702" y1="140.5402" x2="87.0933" y2="140.5402"/>
			<line class="st18" x1="118.8702" y1="207.6259" x2="87.0933" y2="207.6259"/>
			<line class="st18" x1="118.8702" y1="189.3307" x2="87.0933" y2="189.3307"/>
			<line class="st18" x1="118.8702" y1="164.9344" x2="87.0933" y2="164.9344"/>
			<line class="st18" x1="118.8702" y1="122.2448" x2="87.0933" y2="122.2448"/>
			<line class="st18" x1="118.8702" y1="213.7248" x2="87.0933" y2="213.7248"/>
			<line class="st18" x1="87.0933" y1="232.0213" x2="118.8702" y2="232.0213"/>
			<line class="st18" x1="118.8702" y1="225.9224" x2="87.0933" y2="225.9224"/>
			<line class="st18" x1="118.8702" y1="219.8198" x2="87.0933" y2="219.8198"/>
			<line class="st18" x1="118.8702" y1="238.1181" x2="87.0933" y2="238.1181"/>
		</g>
		<polyline class="st19" points="120.2702,116.2649 131.799,111.1526 131.799,147.7493 131.799,237.6619 120.2702,242.774 		"/>
		<polyline class="st20" points="87.1673,116.2649 98.6962,111.1526 129.6679,111.1526 		"/>
	</g>
	<g>
		<g>
			<g>
				<rect x="92.9581" y="79.0794" class="st21" width="24.2158" height="35.8792"/>
				<g>
					<line class="st22" x1="107.5286" y1="80.7287" x2="107.5286" y2="112.9093"/>
					<line class="st22" x1="102.6094" y1="80.7287" x2="102.6094" y2="112.9093"/>
					<line class="st22" x1="97.6881" y1="80.7287" x2="97.6881" y2="112.9093"/>
					<line class="st22" x1="112.4477" y1="80.7287" x2="112.4477" y2="112.9093"/>
				</g>
			</g>
			<polyline class="st23" points="117.7451,78.9127 126.2169,77.4552 126.2169,87.8823 126.2169,110.7062 117.7451,114.9526 			"/>
			<polyline class="st24" points="93.4532,78.9127 102.9604,76.4931 125.6944,76.4931 			"/>
		</g>
		<line class="st25" x1="108.7433" y1="77.4552" x2="108.7433" y2="26.7667"/>
	</g>
	<g>
		<rect x="56.2824" y="173.5444" class="st26" width="48.9318" height="62.1118"/>
		<line class="st27" x1="64.1853" y1="174.4288" x2="64.1853" y2="180.285"/>
		<line class="st27" x1="70.4294" y1="174.8475" x2="70.4294" y2="180.7023"/>
		<line class="st27" x1="76.6764" y1="175.2662" x2="76.6764" y2="179.4491"/>
		<line class="st27" x1="82.9176" y1="174.8475" x2="82.9176" y2="180.285"/>
		<line class="st27" x1="106.3616" y1="172.4747" x2="106.3616" y2="179.1757"/>
		<polyline class="st28" points="100.1807,175.2435 111.7931,169.2425 111.7931,161.7291 99.5312,168.1481 		"/>
		<polygon class="st29" points="102.9898,180.8404 115.3912,174.1842 115.3912,237.7292 102.9045,243.3752 		"/>
		<polyline class="st30" points="98.3207,168.7077 112.9773,161.9422 66.0012,161.6733 53.6894,168.0488 		"/>
		<polygon class="st28" points="54.4416,168.1575 99.5312,168.5594 99.5312,175.0443 54.4416,174.6419 		"/>
		<rect x="50.8333" y="180.7052" class="st30" width="52.0712" height="62.1118"/>
		<g>
			<line class="st31" x1="96.0022" y1="231.5218" x2="78.4351" y2="231.5218"/>
			<line class="st31" x1="84.8951" y1="231.5203" x2="84.8951" y2="242.3952"/>
			<line class="st31" x1="89.4732" y1="231.5203" x2="89.4732" y2="242.3952"/>
			<line class="st31" x1="80.32" y1="231.5203" x2="80.32" y2="242.3952"/>
			<line class="st31" x1="94.0467" y1="231.939" x2="94.0467" y2="241.5607"/>
		</g>
		<g>
			<line class="st31" x1="75.191" y1="231.5218" x2="57.6255" y2="231.5218"/>
			<line class="st31" x1="64.0839" y1="231.5203" x2="64.0839" y2="242.3952"/>
			<line class="st31" x1="68.659" y1="231.5203" x2="68.659" y2="242.3952"/>
			<line class="st31" x1="59.5104" y1="231.5203" x2="59.5104" y2="242.3952"/>
			<line class="st31" x1="73.2386" y1="231.939" x2="73.2386" y2="241.5607"/>
		</g>
		<g>
			<line class="st32" x1="97.7095" y1="215.9006" x2="79.5135" y2="215.9006"/>
			<line class="st32" x1="97.7095" y1="210.2948" x2="79.5135" y2="210.2948"/>
			<line class="st32" x1="97.7095" y1="204.6884" x2="79.5135" y2="204.6884"/>
			<line class="st32" x1="97.7095" y1="199.0863" x2="79.5135" y2="199.0863"/>
			<line class="st32" x1="97.7095" y1="193.4792" x2="79.5135" y2="193.4792"/>
			<line class="st32" x1="97.7095" y1="187.8763" x2="79.5135" y2="187.8763"/>
			<g>
				<line class="st32" x1="73.8527" y1="215.9006" x2="55.6581" y2="215.9006"/>
				<line class="st32" x1="73.8527" y1="210.2948" x2="55.6581" y2="210.2948"/>
				<line class="st32" x1="73.8527" y1="204.6884" x2="55.6581" y2="204.6884"/>
				<line class="st32" x1="73.8527" y1="199.0863" x2="55.6581" y2="199.0863"/>
				<line class="st32" x1="73.8527" y1="193.4792" x2="55.6581" y2="193.4792"/>
				<line class="st32" x1="73.8527" y1="187.8763" x2="55.6581" y2="187.8763"/>
			</g>
		</g>
	</g>
	<g>
		<polygon class="st33" points="148.5707,220.191 154.5149,217.002 154.5149,239.6773 148.5398,242.5003 		"/>
		<rect x="129.6679" y="220.142" class="st34" width="18.8719" height="22.5109"/>
		<polygon class="st35" points="135.643,217.002 154.5149,217.002 148.5398,220.142 129.6679,220.142 		"/>
		<path class="st36" d="M150.9181,217.5914c0,1.3039-3.5788,2.5506-7.9934,2.5506s-7.9935-1.3033-7.9935-2.5506
			c0-4.4147,3.5788-7.9934,7.9935-7.9934S150.9181,213.1768,150.9181,217.5914z"/>
		<polygon class="st37" points="181.0753,204.0522 189.1907,199.6965 189.1907,240.6392 181.0195,244.334 		"/>
		<rect x="146.9443" y="203.9637" class="st38" width="34.0752" height="40.6457"/>
		<polygon class="st37" points="155.1925,199.6965 189.2677,199.6965 181.0195,203.9637 146.9443,203.9637 		"/>
		<polygon class="st35" points="202.1953,220.191 208.1396,217.002 208.1396,239.6773 202.1644,242.5003 		"/>
		<rect x="183.2925" y="220.142" class="st34" width="18.8719" height="22.5109"/>
		<polygon class="st35" points="189.2677,217.002 208.1396,217.002 202.1644,220.142 183.2925,220.142 		"/>
		<path class="st39" d="M173.4488,244.334h-18.9339v-12.3675c0-5.2068,4.2601-9.4669,9.4669-9.4669h0
			c5.2068,0,9.4669,4.2601,9.4669,9.4669V244.334z"/>
		<path class="st40" d="M141.127,238.4426h-4.0464v-10.5882c0-1.1127,0.9104-2.0232,2.0232-2.0232l0,0
			c1.1127,0,2.0232,0.9104,2.0232,2.0232V238.4426z"/>
		<path class="st40" d="M193.6151,238.4426h-4.0464v-10.5882c0-1.1127,0.9104-2.0232,2.0232-2.0232l0,0
			c1.1127,0,2.0232,0.9104,2.0232,2.0232V238.4426z"/>
		<path class="st36" d="M183.2925,198.393c0,2.2102-6.0664,4.3234-13.5497,4.3234c-7.4833,0-13.5497-2.2093-13.5497-4.3234
			c0-7.4833,6.0664-13.5497,13.5497-13.5497C177.2261,184.8433,183.2925,190.9097,183.2925,198.393z"/>
		<path class="st36" d="M204.5427,217.5914c0,1.3039-3.5788,2.5506-7.9934,2.5506c-4.4147,0-7.9935-1.3033-7.9935-2.5506
			c0-4.4147,3.5788-7.9934,7.9935-7.9934C200.9639,209.598,204.5427,213.1768,204.5427,217.5914z"/>
		<line class="st41" x1="169.7428" y1="184.8433" x2="169.7428" y2="177.6905"/>
		<line class="st41" x1="196.5493" y1="209.598" x2="196.5493" y2="203.3117"/>
		<line class="st41" x1="142.9246" y1="209.598" x2="142.9246" y2="203.3117"/>
		<rect x="149.2779" y="210.5967" class="st39" width="2.2494" height="5.4019"/>
		<rect x="152.2655" y="210.5967" class="st39" width="2.2494" height="5.4019"/>
		<rect x="155.3334" y="210.5967" class="st39" width="2.2494" height="5.4019"/>
		<rect x="158.5818" y="210.5967" class="st39" width="2.2494" height="5.4019"/>
		<rect x="161.7324" y="210.5967" class="st39" width="2.2494" height="5.4019"/>
		<rect x="164.8725" y="210.5967" class="st39" width="2.2494" height="5.4019"/>
		<rect x="168.2653" y="210.5967" class="st39" width="2.2494" height="5.4019"/>
		<rect x="171.7303" y="210.5967" class="st39" width="2.2494" height="5.4019"/>
		<rect x="175.8088" y="210.5967" class="st39" width="2.2494" height="5.4019"/>
	</g>
	<g>
		<g>
			<path class="st42" d="M68.2352,251.3653c0-2.8482-2.3057-5.1566-5.1539-5.1566c-2.8453,0-5.1536,2.3084-5.1536,5.1566
				c0,2.8453,2.3084,5.1522,5.1536,5.1522C65.9295,256.5175,68.2352,254.2106,68.2352,251.3653z"/>
			<path class="st42" d="M132.331,251.3653c0-2.8482-2.3087-5.1566-5.1569-5.1566c-2.8479,0-5.1507,2.3084-5.1507,5.1566
				c0,2.8453,2.3027,5.1522,5.1507,5.1522C130.0224,256.5175,132.331,254.2106,132.331,251.3653z"/>
			<g>
				<polygon class="st43" points="134.8155,236.2156 124.4358,236.2156 66.7173,236.2156 55.3421,236.2156 52.618,246.6183 
					52.618,249.8619 55.3941,253.6767 66.7173,253.6767 124.4358,253.6767 135.7619,253.6767 138.5292,249.8619 138.5292,246.6183 
									"/>
				<polygon class="st36" points="123.628,246.6183 53.7491,246.6183 55.8961,238.198 123.628,238.198 				"/>
				<line class="st44" x1="124.4358" y1="248.1738" x2="52.618" y2="248.1738"/>
				<polygon class="st36" points="67.5367,246.6183 137.404,246.6183 134.6624,238.198 67.5367,238.198 				"/>
				<line class="st44" x1="66.7173" y1="248.1738" x2="138.5292" y2="248.1738"/>
				<line class="st45" x1="65.6783" y1="237.113" x2="65.6783" y2="246.6183"/>
				<line class="st45" x1="125.9768" y1="237.113" x2="125.9768" y2="246.6183"/>
				<line class="st45" x1="114.336" y1="237.113" x2="114.336" y2="246.6183"/>
				<line class="st45" x1="102.629" y1="237.113" x2="102.629" y2="246.6183"/>
				<line class="st45" x1="90.9249" y1="237.113" x2="90.9249" y2="246.6183"/>
				<line class="st45" x1="78.1184" y1="237.113" x2="78.1184" y2="246.6183"/>
			</g>
		</g>
		<path class="st46" d="M139.3864,220.7774c-0.7736,2.1181-2.6375,13.196-5.7109,14.7514"/>
	</g>
	<path id="XMLID_304_" class="st47" d="M304.0757,190.7945c-0.1541-0.1541-0.3026-0.3168-0.4485-0.4829
		c4.1173-0.2916,7.2104-0.9755,7.2104-0.9755s-4.1101-1.3258-6.7618-3.9775c-0.5103-0.5103-0.9751-1.095-1.3951-1.7052
		c2.2856-0.1924,3.9519-0.5607,3.9519-0.5607s-2.5107-0.8099-4.1305-2.4297c-1.182-1.182-1.9753-3.0097-2.318-3.9117
		c-0.045-0.1186-0.0509-0.1985-0.1522-0.1985c-0.1012,0-0.1041,0.0716-0.1467,0.1842c-0.3396,0.8968-1.1352,2.7377-2.3235,3.926
		c-1.6198,1.6198-4.1305,2.4297-4.1305,2.4297s1.6793,0.3615,3.9557,0.5554c-0.4209,0.6122-0.887,1.1987-1.3988,1.7106
		c-2.6517,2.6517-6.7618,3.9775-6.7618,3.9775s3.1187,0.6721,7.2169,0.9679c-0.148,0.1689-0.2987,0.3342-0.4551,0.4906
		c-2.6517,2.6517-6.7618,3.9775-6.7618,3.9775s3.1187,0.672,7.2169,0.9679c-0.148,0.1689-0.2987,0.3342-0.4551,0.4906
		c-2.6517,2.6517-6.7618,3.9775-6.7618,3.9775s3.1187,0.6721,7.2169,0.9679c-0.148,0.1689-0.2987,0.3342-0.4551,0.4906
		c-2.6517,2.6517-6.7618,3.9775-6.7618,3.9775s3.1187,0.6721,7.2169,0.9679c-0.148,0.1689-0.2987,0.3342-0.4551,0.4906
		c-2.6517,2.6517-6.7618,3.9775-6.7618,3.9775s3.1187,0.672,7.2169,0.9679c-0.148,0.1689-0.2987,0.3342-0.4551,0.4906
		c-2.6517,2.6517-6.7618,3.9775-6.7618,3.9775s4.5843,0.9874,9.9406,1.0949v10.5439c0,0.7175,0.5816,1.2991,1.2991,1.2991
		s1.2991-0.5816,1.2991-1.2991v-10.5641c5.0109-0.1765,9.0724-1.0747,9.0724-1.0747s-4.1101-1.3258-6.7618-3.9775
		c-0.1541-0.1541-0.3026-0.3168-0.4485-0.4829c4.1173-0.2916,7.2104-0.9755,7.2104-0.9755s-4.1101-1.3259-6.7618-3.9775
		c-0.1541-0.1541-0.3026-0.3168-0.4485-0.4829c4.1173-0.2916,7.2104-0.9755,7.2104-0.9755s-4.1101-1.3258-6.7618-3.9775
		c-0.1541-0.1541-0.3026-0.3168-0.4485-0.4829c4.1173-0.2916,7.2104-0.9755,7.2104-0.9755s-4.1101-1.3258-6.7618-3.9775
		c-0.1541-0.1541-0.3026-0.3168-0.4485-0.4829c4.1173-0.2916,7.2104-0.9755,7.2104-0.9755S306.7274,193.4462,304.0757,190.7945z"/>
	<path id="XMLID_303_" class="st47" d="M330.7691,190.7945c-0.1541-0.1541-0.3026-0.3168-0.4486-0.4829
		c4.1174-0.2916,7.2104-0.9755,7.2104-0.9755s-4.1101-1.3258-6.7618-3.9775c-0.5103-0.5103-0.9751-1.095-1.3951-1.7052
		c2.2856-0.1924,3.9519-0.5607,3.9519-0.5607s-2.5107-0.8099-4.1305-2.4297c-1.182-1.182-1.9754-3.0097-2.318-3.9117
		c-0.0451-0.1186-0.0509-0.1985-0.1522-0.1985s-0.1041,0.0716-0.1467,0.1842c-0.3397,0.8968-1.1352,2.7377-2.3235,3.926
		c-1.6198,1.6198-4.1305,2.4297-4.1305,2.4297s1.6793,0.3615,3.9557,0.5554c-0.421,0.6122-0.887,1.1987-1.3989,1.7106
		c-2.6517,2.6517-6.7618,3.9775-6.7618,3.9775s3.1187,0.6721,7.2169,0.9679c-0.148,0.1689-0.2987,0.3342-0.4551,0.4906
		c-2.6517,2.6517-6.7618,3.9775-6.7618,3.9775s3.1187,0.672,7.2169,0.9679c-0.148,0.1689-0.2987,0.3342-0.4551,0.4906
		c-2.6517,2.6517-6.7618,3.9775-6.7618,3.9775s3.1187,0.6721,7.2169,0.9679c-0.148,0.1689-0.2987,0.3342-0.4551,0.4906
		c-2.6517,2.6517-6.7618,3.9775-6.7618,3.9775s3.1187,0.6721,7.2169,0.9679c-0.148,0.1689-0.2987,0.3342-0.4551,0.4906
		c-2.6517,2.6517-6.7618,3.9775-6.7618,3.9775s3.1187,0.672,7.2169,0.9679c-0.148,0.1689-0.2987,0.3342-0.4551,0.4906
		c-2.6517,2.6517-6.7618,3.9775-6.7618,3.9775s4.5843,0.9874,9.9406,1.0949v10.5439c0,0.7175,0.5816,1.2991,1.2991,1.2991
		s1.2991-0.5816,1.2991-1.2991v-10.5641c5.0109-0.1765,9.0724-1.0747,9.0724-1.0747s-4.1101-1.3258-6.7618-3.9775
		c-0.1541-0.1541-0.3026-0.3168-0.4486-0.4829c4.1174-0.2916,7.2104-0.9755,7.2104-0.9755s-4.1101-1.3259-6.7618-3.9775
		c-0.1541-0.1541-0.3026-0.3168-0.4486-0.4829c4.1174-0.2916,7.2104-0.9755,7.2104-0.9755s-4.1101-1.3258-6.7618-3.9775
		c-0.1541-0.1541-0.3026-0.3168-0.4486-0.4829c4.1174-0.2916,7.2104-0.9755,7.2104-0.9755s-4.1101-1.3258-6.7618-3.9775
		c-0.1541-0.1541-0.3026-0.3168-0.4486-0.4829c4.1174-0.2916,7.2104-0.9755,7.2104-0.9755S333.4207,193.4462,330.7691,190.7945z"/>
	<g>
		<path class="st36" d="M215.967,22.8527c0,12.6212-22.8527,41.0502-22.8527,41.0502s-22.8527-28.429-22.8527-41.0502
			S180.4931,0,193.1143,0C205.7355,0,215.967,10.2315,215.967,22.8527z"/>
		<circle class="st48" cx="193.1143" cy="22.8527" r="14.8119"/>
	</g>
</g>
</svg>
