<svg version="1.1" id="Layer_1" xmlns="http://www.w3.org/2000/svg" xmlns:xlink="http://www.w3.org/1999/xlink" x="0px" y="0px"
	 viewBox="0 0 282 46" enable-background="new 0 0 282 46" xml:space="preserve">
<g>
	<path fill-rule="evenodd" clip-rule="evenodd" fill="#ffffff" d="M23.2,0.9C10.9,0.9,1,10.8,1,23c0,12.2,9.9,22.1,22.2,22.1
		c12.2,0,22.2-9.9,22.2-22.1C45.3,10.8,35.4,0.9,23.2,0.9z M23.2,42.8c-11,0-19.9-8.9-19.9-19.8c0-10.9,8.9-19.8,19.9-19.8
		C34.1,3.2,43,12.1,43,23C43,33.9,34.1,42.8,23.2,42.8z M23.2,5.1c-9.9,0-17.9,8-17.9,17.9c0,9.9,8,17.9,17.9,17.9
		c9.9,0,17.9-8,17.9-17.9C41.1,13.1,33,5.1,23.2,5.1z M33,30.4c-2.2,2.9-5.9,4.6-9.8,4.6c-4,0-7.6-1.7-9.8-4.7
		c-1-1.4-0.4-1.8,0.2-2.4c0.7-0.5,1.7-0.6,2.4,0.2c1.7,2.1,4.3,3.4,7.2,3.4c2.9,0,5.5-1.3,7.2-3.4c0.7-0.9,1.7-0.8,2.4-0.2
		C33.4,28.6,34,29.1,33,30.4z M11.4,20.3c-0.3-0.3-0.3-0.9,0-1.2l6.8-6.4c0.3-0.3,0.9-0.3,1.2,0l1.5,1.6c0.3,0.3,0.3,0.9,0,1.2
		L14.1,22c-0.3,0.3-0.9,0.3-1.2,0L11.4,20.3z M34.9,20.3l-1.5,1.6c-0.3,0.3-0.9,0.4-1.2,0l-6.8-6.4c-0.3-0.3-0.4-0.9,0-1.2l1.5-1.6
		c0.3-0.3,0.9-0.4,1.2,0l6.8,6.4C35.2,19.4,35.2,20,34.9,20.3z"/>
	<g>
		<path fill="#ffffff" d="M62.6,31.7c0,2.7-1.4,4.2-4,4.2h-1.3c-2.4,0-3.9-1.5-3.9-4.2V16.7c0-3.3,1.6-5.1,4.6-5.1h6.4
			c7.4,0,11.3,3.1,11.3,9.3c0,6.1-3.8,9-10.9,9h-2.3V31.7z M64.4,23.3c1.6,0,2.5-0.9,2.5-2.5c0-1.6-0.9-2.5-2.7-2.5h-1.8v5H64.4z"/>
		<path fill="#ffffff" d="M76.6,23.7c0-7.3,5.5-12.6,13-12.6c7.6,0,13,5.3,13,12.6c0,7.4-5.4,12.7-13,12.7
			C82,36.3,76.6,31,76.6,23.7z M93.6,23.7c0-2.8-1.5-4.5-4-4.5c-2.5,0-4,1.6-4,4.5c0,2.8,1.5,4.5,4,4.5
			C92.1,28.1,93.6,26.4,93.6,23.7z"/>
		<path fill="#ffffff" d="M138.3,30.8V16.7c0-3.4,1.6-5.1,4.6-5.1h12.3c2.9,0,4.2,1.1,4.2,3.5v0.2c0,2.5-1.3,3.4-4.2,3.4h-7.8v1.6
			h4.6c3,0,4.2,0.9,4.2,3.1v0.1c0,2.4-1.2,3.3-4.2,3.3h-4.6v1.9h8c2.9,0,4.2,0.9,4.2,3.2v0.2c0,2.5-1.3,3.6-4.2,3.6H143
			C140,35.8,138.3,34.1,138.3,30.8z"/>
		<path fill="#ffffff" d="M182,35.1c-0.8,0.5-2,0.9-3.4,0.9c-3,0-4.3-1.3-6.2-3.9l-2.4-3.3h-0.4v3c0,2.8-1.4,4.2-4,4.2h-1.3
			c-2.5,0-3.9-2-3.9-5.4V16.7c0-3.4,1.6-5.1,4.6-5.1h7.7c7.1,0,10.5,2.9,10.5,8.3c0,3.3-1.5,5.8-4.5,7c0,0,3.2,4,4.1,5.1
			C183.8,33.1,183.3,34.3,182,35.1z M171.6,22.8c1.7,0,2.5-0.7,2.5-2.2c0-1.5-0.8-2.2-2.6-2.2h-2.2v4.4H171.6z"/>
		<path fill="#ffffff" d="M206.8,31.7V15.6c0-2.8,1.3-4.2,3.9-4.2h1.3c2.6,0,4,1.4,4,4.2v4.2h5.5v-4.2c0-2.8,1.3-4.2,3.9-4.2h1.3
			c2.6,0,4,1.4,4,4.2v16.1c0,2.8-1.4,4.2-4,4.2h-1.3c-2.5,0-3.9-1.5-3.9-4.2v-4.3H216v4.3c0,2.8-1.4,4.2-4,4.2h-1.3
			C208.1,36,206.8,34.5,206.8,31.7z"/>
		<path fill="#ffffff" d="M231.6,23.7c0-7.3,5.5-12.6,13-12.6c7.6,0,13,5.3,13,12.6c0,7.4-5.4,12.7-13,12.7
			C237.1,36.3,231.6,31,231.6,23.7z M248.6,23.7c0-2.8-1.5-4.5-4-4.5c-2.5,0-4,1.6-4,4.5c0,2.8,1.5,4.5,4,4.5
			C247.1,28.1,248.6,26.4,248.6,23.7z"/>
		<path fill="#ffffff" d="M267.8,31.7c0,2.7-1.4,4.2-4,4.2h-1.3c-2.4,0-3.9-1.5-3.9-4.2V16.7c0-3.3,1.6-5.1,4.6-5.1h6.4
			c7.4,0,11.3,3.1,11.3,9.3c0,6.1-3.8,9-10.9,9h-2.3V31.7z M269.6,23.3c1.6,0,2.5-0.9,2.5-2.5c0-1.6-0.9-2.5-2.7-2.5h-1.8v5H269.6z"
			/>
		<path fill="#ffffff" d="M204.3,23.7c-1.5-1.7-4-2.7-7-3.4c-2.2-0.4-3.9-0.5-3.9-1.3c0-0.7,0.6-1,2.4-1c1.6,0,3.7,0.8,5.3,1.4
			c1,0.4,2.5,0.5,3.6-1.6c0.3-0.6,0.5-1.3,0.5-2c0.1-2.7-2.7-4.7-9.5-4.7c-7.3,0-11,3-11,8.3c0,1.9,0.6,3.2,1.5,4.3
			c1.5,1.7,3.1,2.3,6.1,3c2.2,0.5,4.2,0.7,4.4,1.6c0.2,0.7-1.3,1.2-3.1,1.1c-1.7-0.1-3.6-0.9-5.1-1.4c-1.3-0.4-2.8-0.4-3.6,1.3
			c-0.3,0.6-0.5,1.3-0.5,2c-0.1,2.7,2.7,5,9.5,5c7.3,0,12-2.9,12-8.2C205.7,26.1,205.2,24.7,204.3,23.7z"/>
		<path fill="#ffffff" d="M137.3,13.6c-0.6-1-2.5-2.1-5-2.1c-1.7,0-4.2,0.9-4.9,4.8l-1.2,7.1l-2-7.9c-0.6-2.4-2.1-3.6-4.4-3.6
			c-2.2,0-3.8,1.2-4.4,3.6l-2,7.9l-1.2-7.1c-0.7-3.9-3.3-4.8-4.9-4.8c-2.5,0-4.4,1.1-5,2.1c-0.4,0.7-0.7,1.2,0.1,3.8
			c0.9,2.7,4.8,15.1,4.8,15.1c0.8,2.7,2.5,3.4,5.1,3.4c2.6,0,4.7-0.8,5.4-3.4l2-7.4l2,7.4c0.7,2.6,2.8,3.4,5.4,3.4
			c2.6,0,4.3-0.7,5.1-3.4c0,0,4-12.4,4.8-15.1C138,14.8,137.7,14.2,137.3,13.6z"/>
	</g>
</g>
</svg>
