<?xml version="1.0" encoding="utf-8"?>
<!-- Generator: Adobe Illustrator 19.1.0, SVG Export Plug-In . SVG Version: 6.00 Build 0)  -->
<svg version="1.1" id="Layer_1" xmlns="http://www.w3.org/2000/svg" xmlns:xlink="http://www.w3.org/1999/xlink" x="0px" y="0px"
	 width="282px" height="46px" viewBox="-454 397.9 282 46" style="enable-background:new -454 397.9 282 46;" xml:space="preserve">
<style type="text/css">
	.st0{fill:#E94C87;}
</style>
<g>
	<path class="st0" d="M-430.8,398.8c-12.3,0-22.2,9.9-22.2,22.1c0,12.2,9.9,22.1,22.2,22.1c12.2,0,22.2-9.9,22.2-22.1
		C-408.7,408.7-418.6,398.8-430.8,398.8z M-430.8,440.7c-11,0-19.9-8.9-19.9-19.8c0-10.9,8.9-19.8,19.9-19.8
		c10.9,0,19.8,8.9,19.8,19.8C-411,431.8-419.9,440.7-430.8,440.7z M-430.8,403c-9.9,0-17.9,8-17.9,17.9c0,9.9,8,17.9,17.9,17.9
		c9.9,0,17.9-8,17.9-17.9C-412.9,411-421,403-430.8,403z M-421,428.3c-2.2,2.9-5.9,4.6-9.8,4.6c-4,0-7.6-1.7-9.8-4.7
		c-1-1.4-0.4-1.8,0.2-2.4c0.7-0.5,1.7-0.6,2.4,0.2c1.7,2.1,4.3,3.4,7.2,3.4c2.9,0,5.5-1.3,7.2-3.4c0.7-0.9,1.7-0.8,2.4-0.2
		C-420.6,426.5-420,427-421,428.3z M-442.6,418.2c-0.3-0.3-0.3-0.9,0-1.2l6.8-6.4c0.3-0.3,0.9-0.3,1.2,0l1.5,1.6
		c0.3,0.3,0.3,0.9,0,1.2l-6.8,6.5c-0.3,0.3-0.9,0.3-1.2,0L-442.6,418.2z M-419.1,418.2l-1.5,1.6c-0.3,0.3-0.9,0.4-1.2,0l-6.8-6.4
		c-0.3-0.3-0.4-0.9,0-1.2l1.5-1.6c0.3-0.3,0.9-0.4,1.2,0l6.8,6.4C-418.8,417.3-418.8,417.9-419.1,418.2z"/>
	<g>
		<path class="st0" d="M-391.4,429.6c0,2.7-1.4,4.2-4,4.2h-1.3c-2.4,0-3.9-1.5-3.9-4.2v-15c0-3.3,1.6-5.1,4.6-5.1h6.4
			c7.4,0,11.3,3.1,11.3,9.3c0,6.1-3.8,9-10.9,9h-2.3v1.8H-391.4z M-389.6,421.2c1.6,0,2.5-0.9,2.5-2.5s-0.9-2.5-2.7-2.5h-1.8v5
			H-389.6z"/>
		<path class="st0" d="M-377.4,421.6c0-7.3,5.5-12.6,13-12.6c7.6,0,13,5.3,13,12.6c0,7.4-5.4,12.7-13,12.7
			C-372,434.2-377.4,428.9-377.4,421.6z M-360.4,421.6c0-2.8-1.5-4.5-4-4.5s-4,1.6-4,4.5c0,2.8,1.5,4.5,4,4.5
			C-361.9,426-360.4,424.3-360.4,421.6z"/>
		<path class="st0" d="M-315.7,428.7v-14.1c0-3.4,1.6-5.1,4.6-5.1h12.3c2.9,0,4.2,1.1,4.2,3.5v0.2c0,2.5-1.3,3.4-4.2,3.4h-7.8v1.6
			h4.6c3,0,4.2,0.9,4.2,3.1v0.1c0,2.4-1.2,3.3-4.2,3.3h-4.6v1.9h8c2.9,0,4.2,0.9,4.2,3.2v0.2c0,2.5-1.3,3.6-4.2,3.6H-311
			C-314,433.7-315.7,432-315.7,428.7z"/>
		<path class="st0" d="M-272,433c-0.8,0.5-2,0.9-3.4,0.9c-3,0-4.3-1.3-6.2-3.9l-2.4-3.3h-0.4v3c0,2.8-1.4,4.2-4,4.2h-1.3
			c-2.5,0-3.9-2-3.9-5.4v-13.9c0-3.4,1.6-5.1,4.6-5.1h7.7c7.1,0,10.5,2.9,10.5,8.3c0,3.3-1.5,5.8-4.5,7c0,0,3.2,4,4.1,5.1
			C-270.2,431-270.7,432.2-272,433z M-282.4,420.7c1.7,0,2.5-0.7,2.5-2.2s-0.8-2.2-2.6-2.2h-2.2v4.4
			C-284.7,420.7-282.4,420.7-282.4,420.7z"/>
		<path class="st0" d="M-247.2,429.6v-16.1c0-2.8,1.3-4.2,3.9-4.2h1.3c2.6,0,4,1.4,4,4.2v4.2h5.5v-4.2c0-2.8,1.3-4.2,3.9-4.2h1.3
			c2.6,0,4,1.4,4,4.2v16.1c0,2.8-1.4,4.2-4,4.2h-1.3c-2.5,0-3.9-1.5-3.9-4.2v-4.3h-5.5v4.3c0,2.8-1.4,4.2-4,4.2h-1.3
			C-245.9,433.9-247.2,432.4-247.2,429.6z"/>
		<path class="st0" d="M-222.4,421.6c0-7.3,5.5-12.6,13-12.6c7.6,0,13,5.3,13,12.6c0,7.4-5.4,12.7-13,12.7
			C-216.9,434.2-222.4,428.9-222.4,421.6z M-205.4,421.6c0-2.8-1.5-4.5-4-4.5s-4,1.6-4,4.5c0,2.8,1.5,4.5,4,4.5
			C-206.9,426-205.4,424.3-205.4,421.6z"/>
		<path class="st0" d="M-186.2,429.6c0,2.7-1.4,4.2-4,4.2h-1.3c-2.4,0-3.9-1.5-3.9-4.2v-15c0-3.3,1.6-5.1,4.6-5.1h6.4
			c7.4,0,11.3,3.1,11.3,9.3c0,6.1-3.8,9-10.9,9h-2.3L-186.2,429.6L-186.2,429.6z M-184.4,421.2c1.6,0,2.5-0.9,2.5-2.5
			s-0.9-2.5-2.7-2.5h-1.8v5H-184.4z"/>
		<path class="st0" d="M-249.7,421.6c-1.5-1.7-4-2.7-7-3.4c-2.2-0.4-3.9-0.5-3.9-1.3c0-0.7,0.6-1,2.4-1c1.6,0,3.7,0.8,5.3,1.4
			c1,0.4,2.5,0.5,3.6-1.6c0.3-0.6,0.5-1.3,0.5-2c0.1-2.7-2.7-4.7-9.5-4.7c-7.3,0-11,3-11,8.3c0,1.9,0.6,3.2,1.5,4.3
			c1.5,1.7,3.1,2.3,6.1,3c2.2,0.5,4.2,0.7,4.4,1.6c0.2,0.7-1.3,1.2-3.1,1.1c-1.7-0.1-3.6-0.9-5.1-1.4c-1.3-0.4-2.8-0.4-3.6,1.3
			c-0.3,0.6-0.5,1.3-0.5,2c-0.1,2.7,2.7,5,9.5,5c7.3,0,12-2.9,12-8.2C-248.3,424-248.8,422.6-249.7,421.6z"/>
		<path class="st0" d="M-316.7,411.5c-0.6-1-2.5-2.1-5-2.1c-1.7,0-4.2,0.9-4.9,4.8l-1.2,7.1l-2-7.9c-0.6-2.4-2.1-3.6-4.4-3.6
			c-2.2,0-3.8,1.2-4.4,3.6l-2,7.9l-1.2-7.1c-0.7-3.9-3.3-4.8-4.9-4.8c-2.5,0-4.4,1.1-5,2.1c-0.4,0.7-0.7,1.2,0.1,3.8
			c0.9,2.7,4.8,15.1,4.8,15.1c0.8,2.7,2.5,3.4,5.1,3.4c2.6,0,4.7-0.8,5.4-3.4l2-7.4l2,7.4c0.7,2.6,2.8,3.4,5.4,3.4s4.3-0.7,5.1-3.4
			c0,0,4-12.4,4.8-15.1C-316,412.7-316.3,412.1-316.7,411.5z"/>
	</g>
</g>
</svg>
