<?xml version="1.0" encoding="utf-8"?>
<!-- Generator: Adobe Illustrator 21.1.0, SVG Export Plug-In . SVG Version: 6.00 Build 0)  -->
<svg width="45px" height="45px" version="1.1" id="Layer_1" xmlns="http://www.w3.org/2000/svg" xmlns:xlink="http://www.w3.org/1999/xlink" x="0px" y="0px"
	 viewBox="0 0 45 45" style="enable-background:new 0 0 45 45;" xml:space="preserve">
<style type="text/css">
	.st0{fill:#ED1F6B;}
</style>
<path class="st0" d="M22.5,0C10,0,0,10.1,0,22.5S10,45,22.5,45C34.9,45,45,34.9,45,22.5C44.9,10.1,34.9,0,22.5,0z M22.5,42.7
	c-11.1,0-20.2-9.1-20.2-20.2s9-20.2,20.2-20.2c11,0,20.1,9.1,20.1,20.2S33.5,42.7,22.5,42.7z M22.5,4.3c-10,0-18.1,8.1-18.1,18.2
	s8.1,18.2,18.1,18.2s18.1-8.1,18.1-18.2S32.4,4.3,22.5,4.3z M32.4,30c-2.2,3-6,4.7-9.9,4.7c-4.1,0-7.7-1.7-9.9-4.8
	c-1-1.4-0.4-1.8,0.2-2.4c0.7-0.5,1.7-0.6,2.4,0.2c1.7,2.1,4.4,3.5,7.3,3.5s5.6-1.3,7.3-3.5c0.7-0.9,1.7-0.8,2.4-0.2
	C32.8,28.2,33.4,28.7,32.4,30z M10.5,19.8c-0.3-0.3-0.3-0.9,0-1.2l6.9-6.5c0.3-0.3,0.9-0.3,1.2,0l1.5,1.6c0.3,0.3,0.3,0.9,0,1.2
	l-6.9,6.6c-0.3,0.3-0.9,0.3-1.2,0L10.5,19.8z M34.4,19.8l-1.5,1.6c-0.3,0.3-0.9,0.4-1.2,0l-6.9-6.5c-0.3-0.3-0.4-0.9,0-1.2l1.5-1.6
	c0.3-0.3,0.9-0.4,1.2,0l6.9,6.5C34.7,18.8,34.7,19.4,34.4,19.8z"/>
</svg>
