<?xml version="1.0" encoding="utf-8"?>
<!-- Generator: Adobe Illustrator 21.1.0, SVG Export Plug-In . SVG Version: 6.00 Build 0)  -->
<svg width="276px" height="119px" version="1.1" id="Layer_1" xmlns="http://www.w3.org/2000/svg" xmlns:xlink="http://www.w3.org/1999/xlink" x="0px" y="0px"
	 viewBox="0 0 276 119" style="enable-background:new 0 0 276 119;" xml:space="preserve">
<style type="text/css">
	.st0{fill:#EF4F88;}
	.st1{fill:#E01D3E;}
	.st2{fill:#FFFFFF;}
	.st3{fill:none;stroke:#FFFFFF;stroke-width:2.0747;stroke-linecap:round;stroke-linejoin:round;stroke-miterlimit:10;}
</style>
<path class="st0" d="M265.1,56.8c-5-2-9.9-0.3-10.1-0.2l2.3,6.5l0,0c0,0,3.8-1.2,6.8,0.9c2.7,1.9,4,7.3,4.3,9
	c0.1,0.6,0.4,1.2,0.8,1.7l-11.6,11.5l-14.8-41.5l13.6-12.5L265.1,56.8z"/>
<polygon class="st0" points="233.1,30.9 254.7,31.6 241.5,43.7 220,43.8 "/>
<polygon class="st0" points="219.2,45.3 241.3,45.2 246.9,61.1 256,86.7 233.9,86 "/>
<path id="XMLID_149_" class="st1" d="M242.3,79.6c4.1-0.2,6.3-1.7,6.4-1.8c0.6-0.5,0.6-1.4-0.1-2.1c-0.7-0.7-1.8-0.9-2.4-0.4
	c0,0-1.8,1.2-4.9,1.3c-3.1,0.2-5.6-0.8-5.6-0.8c-0.9-0.4-1.8-0.1-2,0.7c-0.2,0.7,0.4,1.6,1.3,2C235,78.6,238.2,79.8,242.3,79.6z"/>
<path id="XMLID_119_" class="st1" d="M228.8,65.1c-0.2-0.6,0-1.2,0.6-1.4l0,0l0,0c0.6-0.2,0.8-0.8,0.6-1.5l-2.5-7.2l0,0l-0.2-0.5
	c-0.3-0.8,0.2-1.5,1.1-1.5l1.2-0.1c0.9,0,1.8,0.6,2.1,1.4l0.4,1.1l0,0l1.9,5.3c0.2,0.6,0,1.2-0.6,1.5l0,0l0,0
	c-0.5,0.2-0.8,0.8-0.6,1.4l1,2.9l0,0l0.5,1.5c0.3,0.8-0.2,1.5-1.1,1.5l-0.6,0c0,0,0,0,0,0h0l-0.6,0c-0.9,0-1.8-0.6-2.1-1.4l-0.2-0.5
	l0,0L228.8,65.1z"/>
<path id="XMLID_117_" class="st1" d="M237.7,62.4l1.7,4.7l0.2,0.5l0.2,0.5c0.3,0.8,1.2,1.4,2.1,1.4l0.6,0h0l0,0l0.6,0
	c0.9,0,1.4-0.7,1.1-1.5l-0.2-0.5l-0.2-0.5l-2.1-6c-0.2-0.7,0-1.2,0.6-1.5l0,0h0l0,0c0.6-0.2,0.8-0.8,0.6-1.5l-1.1-3.2l0,0l-0.2-0.5
	c-0.3-0.8-1.2-1.4-2.1-1.4l-1.2,0.1c-0.9,0-1.4,0.7-1.1,1.5l0.4,1.1l0,0l1.4,4c0.2,0.6,0,1.2-0.6,1.5l0,0
	C237.7,61.1,237.4,61.7,237.7,62.4z"/>
<path class="st1" d="M275.1,72c-0.1-1-1.5-9.6-7.1-13.6c-0.3-0.2-0.7-0.4-1-0.6l-9.7-27.1c0,0,0,0,0,0c0-0.1-0.1-0.2-0.2-0.3
	c0,0,0,0,0,0c-0.1-0.1-0.2-0.1-0.2-0.1c0,0,0,0,0,0c0,0-0.1,0-0.1,0c0,0,0,0-0.1,0l-23.8-0.8c-0.2,0-0.4,0.1-0.5,0.2L217.7,44
	c0,0,0,0.1-0.1,0.1c0,0,0,0,0,0c0,0,0,0,0,0c-0.1,0.1-0.1,0.2-0.1,0.3c0,0,0,0,0,0.1c0,0.1,0,0.2,0,0.3c0,0,0,0,0,0l4.5,12.7
	c-1.1-0.2-2.4-0.8-3.5-1.8c-2.4-2.3-2.8-7.8-2.8-9.5c0-1.9-1.5-3.4-3.4-3.5c-0.4,0-0.8,0.1-1.2,0.2c-1.3,0.5-2.2,1.7-2.3,3.2
	c0,1-0.1,9.8,4.8,14.6c3.7,3.6,8.4,4.1,10.8,4l8.1,22.4c0.1,0.3,0.4,0.5,0.7,0.5l5.7,0.2l3.1,8.6c0.6,1.8,2.6,2.7,4.4,2.1
	c0,0,0,0,0,0c1.8-0.6,2.7-2.6,2.1-4.4l-2.2-6l8.6,0.3l2.3,6.3c0.6,1.8,2.6,2.7,4.4,2.1c0,0,0,0,0,0c1.8-0.6,2.7-2.6,2.1-4.4
	l-2.7-7.5l9.2-9.1c0.6,0.3,1.2,0.4,1.9,0.3c0.4-0.1,0.8-0.2,1.2-0.4C274.5,74.8,275.3,73.4,275.1,72z M265.1,56.8
	c-5-2-9.9-0.3-10.1-0.2l2.3,6.5l0,0c0,0,3.8-1.2,6.8,0.9c2.7,1.9,4,7.3,4.3,9c0.1,0.6,0.4,1.2,0.8,1.7l-11.6,11.5l-14.8-41.5
	l13.6-12.5L265.1,56.8z M233.1,30.9l21.6,0.7l-13.2,12.1L220,43.8L233.1,30.9z M219.2,45.3l22-0.1l5.6,15.8l9.1,25.7L233.9,86
	L219.2,45.3z"/>
<path class="rocket-left" d="M252.4,101.6c0.7,1.2,1.8,4.8,2.8,8.2c0.1,0.3-1.1-1-1-0.7c0.9,3.3,2.9,7.7,2.9,7.7s-9.4-9-10.9-11.6
	c-1.5-2.6-1.3-5.5,0.4-6.5C248.3,97.7,250.9,99,252.4,101.6z"/>
<path class="rocket-right" d="M268.7,101c0.5,0.9,1.3,2.9,2.1,5.1c0.2,0.6-0.9-1-0.7-0.4c1.7,5,4.7,13,4.7,13s-2.2-3.3-4.2-5.4
	c-0.3-0.3,0,1-0.3,0.6c-3.1-3.4-6.9-7.6-7.8-9.3c-1.8-3-1.8-6.3-0.1-7.3C264.1,96.3,267,97.9,268.7,101z"/>
<g>
	<path class="st2" d="M30.4,21.7c0.1,0.2,0.2,0.3,0.2,0.4l2.4,8.7l2.2-12.2c0-0.2,0.1-0.4,0.3-0.5c0.1-0.1,0.3-0.1,0.4-0.1h0.9
		c0.1,0,0.2,0,0.3,0.1c0.1,0.1,0.1,0.2,0.1,0.3c0,0,0,0.1,0,0.2l-2.7,13.6c-0.1,0.4-0.2,0.6-0.3,0.8s-0.4,0.3-0.7,0.3h-0.9
		c-0.3,0-0.6-0.1-0.7-0.3c-0.2-0.2-0.3-0.5-0.4-0.8l-2-7.3l-2,7.3c-0.1,0.3-0.2,0.6-0.4,0.8c-0.2,0.2-0.4,0.3-0.7,0.3h-0.9
		c-0.4,0-0.6-0.1-0.7-0.3s-0.3-0.5-0.3-0.8l-2.7-13.6c0-0.1,0-0.1,0-0.2c0-0.1,0-0.2,0.1-0.3c0.1-0.1,0.2-0.1,0.3-0.1H23
		c0.1,0,0.3,0,0.4,0.1c0.1,0.1,0.2,0.2,0.3,0.5l2.2,12.2l2.4-8.7c0-0.1,0.1-0.2,0.2-0.4c0.1-0.2,0.3-0.2,0.5-0.2h0.7
		C30.1,21.4,30.3,21.5,30.4,21.7z"/>
	<path class="st2" d="M39.4,23.8c0-0.8,0.2-1.6,0.4-2.3c0.3-0.7,0.7-1.4,1.2-1.9c0.5-0.5,1.1-1,1.9-1.3c0.7-0.3,1.6-0.5,2.6-0.5
		c1,0,1.8,0.2,2.6,0.5c0.7,0.3,1.4,0.7,1.9,1.3c0.5,0.5,0.9,1.2,1.2,1.9c0.3,0.7,0.4,1.5,0.4,2.3c0,1.3,0,2.6,0,3.9
		c0,0.8-0.2,1.6-0.5,2.3c-0.3,0.7-0.7,1.4-1.2,1.9c-0.5,0.5-1.1,1-1.9,1.3c-0.7,0.3-1.6,0.5-2.6,0.5c-1,0-1.8-0.2-2.6-0.5
		c-0.7-0.3-1.4-0.7-1.9-1.3c-0.5-0.5-0.9-1.2-1.2-1.9c-0.3-0.7-0.4-1.5-0.5-2.3C39.3,26.4,39.3,25.1,39.4,23.8z M49.4,23.9
		c0-0.7-0.1-1.3-0.3-1.8c-0.2-0.5-0.5-0.9-0.8-1.3c-0.4-0.3-0.8-0.6-1.2-0.8s-1-0.3-1.6-0.3c-0.6,0-1.1,0.1-1.6,0.3
		s-0.9,0.4-1.2,0.8c-0.4,0.3-0.6,0.8-0.8,1.3c-0.2,0.5-0.3,1.1-0.3,1.8c0,0.7,0,1.3,0,1.8s0,1.2,0,1.8c0,0.7,0.1,1.3,0.3,1.8
		c0.2,0.5,0.5,0.9,0.8,1.3c0.4,0.3,0.8,0.6,1.2,0.8s1,0.3,1.6,0.3c0.6,0,1.1-0.1,1.6-0.3s0.9-0.4,1.2-0.8c0.4-0.3,0.6-0.8,0.8-1.3
		c0.2-0.5,0.3-1.1,0.3-1.8c0-0.7,0-1.3,0-1.8S49.5,24.5,49.4,23.9z"/>
	<path class="st2" d="M60.6,18c0.7,0,1.4,0.1,2,0.3s1.2,0.4,1.7,0.8c0.5,0.4,0.9,0.8,1.2,1.4c0.3,0.6,0.4,1.3,0.4,2.1
		c0,1.2-0.3,2.1-0.9,2.8c-0.6,0.7-1.4,1.2-2.3,1.5l3.3,5.8c0,0.1,0.1,0.2,0.1,0.2c0,0.1,0,0.2-0.1,0.3c-0.1,0.1-0.2,0.1-0.3,0.1
		h-0.9c-0.3,0-0.5-0.1-0.6-0.2c-0.1-0.1-0.2-0.3-0.3-0.4l-3.2-5.6h-3.8v5.6c0,0.2-0.1,0.3-0.2,0.4c-0.1,0.1-0.3,0.2-0.4,0.2h-0.9
		c-0.2,0-0.3-0.1-0.4-0.2c-0.1-0.1-0.2-0.3-0.2-0.4V18.6c0-0.2,0.1-0.3,0.2-0.4c0.1-0.1,0.3-0.2,0.4-0.2H60.6z M56.8,25.2h3.7
		c1.1,0,1.9-0.2,2.5-0.6c0.6-0.4,0.9-1.1,0.9-2c0-0.9-0.3-1.6-0.9-2c-0.6-0.4-1.4-0.6-2.5-0.6h-3.7V25.2z"/>
	<path class="st2" d="M72.3,25.4l7.5,7.2c0.1,0.1,0.1,0.2,0.2,0.2c0,0.1,0,0.1,0,0.2c0,0.1,0,0.2-0.1,0.3c-0.1,0.1-0.2,0.1-0.3,0.1
		h-1.4c-0.2,0-0.4,0-0.5-0.1s-0.2-0.2-0.3-0.2l-6.2-5.9v5.7c0,0.2-0.1,0.3-0.2,0.4c-0.1,0.1-0.3,0.2-0.4,0.2h-0.9
		c-0.2,0-0.3-0.1-0.4-0.2C69.1,33.1,69,33,69,32.8V18.6c0-0.2,0.1-0.3,0.2-0.4c0.1-0.1,0.3-0.2,0.4-0.2h0.9c0.2,0,0.3,0.1,0.4,0.2
		c0.1,0.1,0.2,0.3,0.2,0.4v5.1l5.9-5.4c0.1-0.1,0.2-0.1,0.3-0.2c0.1-0.1,0.3-0.1,0.5-0.1h1.3c0.1,0,0.2,0,0.3,0.1
		c0.1,0.1,0.1,0.2,0.1,0.3c0,0,0,0.1,0,0.2c0,0.1-0.1,0.1-0.2,0.2L72.3,25.4z"/>
	<path class="st2" d="M95.1,21.7c0.1,0.2,0.2,0.3,0.2,0.4l2.4,8.7l2.2-12.2c0-0.2,0.1-0.4,0.3-0.5c0.1-0.1,0.3-0.1,0.4-0.1h0.9
		c0.1,0,0.2,0,0.3,0.1c0.1,0.1,0.1,0.2,0.1,0.3c0,0,0,0.1,0,0.2l-2.7,13.6c-0.1,0.4-0.2,0.6-0.3,0.8s-0.4,0.3-0.7,0.3h-0.9
		c-0.3,0-0.6-0.1-0.7-0.3c-0.2-0.2-0.3-0.5-0.4-0.8l-2-7.3l-2,7.3c-0.1,0.3-0.2,0.6-0.4,0.8c-0.2,0.2-0.4,0.3-0.7,0.3h-0.9
		c-0.4,0-0.6-0.1-0.7-0.3s-0.3-0.5-0.3-0.8l-2.7-13.6c0-0.1,0-0.1,0-0.2c0-0.1,0-0.2,0.1-0.3c0.1-0.1,0.2-0.1,0.3-0.1h0.9
		c0.1,0,0.3,0,0.4,0.1c0.1,0.1,0.2,0.2,0.3,0.5l2.2,12.2l2.4-8.7c0-0.1,0.1-0.2,0.2-0.4c0.1-0.2,0.3-0.2,0.5-0.2h0.7
		C94.8,21.4,95,21.5,95.1,21.7z"/>
	<path class="st2" d="M105.4,33.4c-0.2,0-0.3-0.1-0.4-0.2c-0.1-0.1-0.2-0.3-0.2-0.4V18.6c0-0.2,0.1-0.3,0.2-0.4
		c0.1-0.1,0.3-0.2,0.4-0.2h0.9c0.2,0,0.3,0.1,0.4,0.2c0.1,0.1,0.2,0.3,0.2,0.4v14.2c0,0.2-0.1,0.3-0.2,0.4c-0.1,0.1-0.3,0.2-0.4,0.2
		H105.4z"/>
	<path class="st2" d="M120.2,18c0.2,0,0.3,0.1,0.4,0.2c0.1,0.1,0.2,0.3,0.2,0.4v0.8c0,0.2-0.1,0.3-0.2,0.4c-0.1,0.1-0.3,0.2-0.4,0.2
		h-4.1v12.8c0,0.2-0.1,0.3-0.2,0.4c-0.1,0.1-0.3,0.2-0.4,0.2h-0.9c-0.2,0-0.3-0.1-0.4-0.2c-0.1-0.1-0.2-0.3-0.2-0.4V20h-4.1
		c-0.2,0-0.3-0.1-0.4-0.2c-0.1-0.1-0.2-0.3-0.2-0.4v-0.8c0-0.2,0.1-0.3,0.2-0.4c0.1-0.1,0.3-0.2,0.4-0.2H120.2z"/>
	<path class="st2" d="M134.5,18c0.2,0,0.3,0.1,0.4,0.2c0.1,0.1,0.2,0.3,0.2,0.4v14.2c0,0.2-0.1,0.3-0.2,0.4
		c-0.1,0.1-0.3,0.2-0.4,0.2h-0.9c-0.2,0-0.3-0.1-0.4-0.2c-0.1-0.1-0.2-0.3-0.2-0.4v-6.2h-7.7v6.2c0,0.2-0.1,0.3-0.2,0.4
		c-0.1,0.1-0.3,0.2-0.4,0.2h-0.9c-0.2,0-0.3-0.1-0.4-0.2c-0.1-0.1-0.2-0.3-0.2-0.4V18.6c0-0.2,0.1-0.3,0.2-0.4
		c0.1-0.1,0.3-0.2,0.4-0.2h0.9c0.2,0,0.3,0.1,0.4,0.2c0.1,0.1,0.2,0.3,0.2,0.4v6h7.7v-6c0-0.2,0.1-0.3,0.2-0.4
		c0.1-0.1,0.3-0.2,0.4-0.2H134.5z"/>
	<path class="st2" d="M155.4,18c0.2,0,0.3,0.1,0.4,0.2c0.1,0.1,0.2,0.3,0.2,0.4v8.8c0,0.9-0.1,1.7-0.3,2.5s-0.6,1.4-1.1,2
		c-0.5,0.6-1.1,1-1.8,1.3c-0.7,0.3-1.6,0.5-2.7,0.5c-1.1,0-2-0.2-2.7-0.5c-0.7-0.3-1.4-0.7-1.8-1.3s-0.8-1.2-1-2s-0.3-1.6-0.3-2.5
		v-8.8c0-0.2,0.1-0.3,0.2-0.4c0.1-0.1,0.3-0.2,0.4-0.2h0.9c0.2,0,0.3,0.1,0.4,0.2c0.1,0.1,0.2,0.3,0.2,0.4v8.9c0,1.4,0.3,2.5,1,3.2
		c0.7,0.7,1.6,1,2.8,1c1.2,0,2.1-0.3,2.8-1c0.7-0.7,1-1.8,1-3.2v-8.9c0-0.2,0.1-0.3,0.2-0.4c0.1-0.1,0.3-0.2,0.4-0.2H155.4z"/>
	<path class="st2" d="M164.3,17.8c0.9,0,1.7,0.1,2.4,0.4s1.3,0.6,1.7,1c0.5,0.4,0.8,0.8,1.1,1.3c0.2,0.5,0.4,0.9,0.4,1.2
		c0,0.1,0,0.2-0.1,0.3c-0.1,0.1-0.2,0.1-0.4,0.1h-0.9c-0.2,0-0.3,0-0.4-0.1c-0.1-0.1-0.2-0.2-0.3-0.4c-0.1-0.1-0.2-0.3-0.4-0.6
		c-0.2-0.2-0.4-0.4-0.7-0.7c-0.3-0.2-0.6-0.4-1-0.5c-0.4-0.2-0.9-0.2-1.4-0.2c-0.4,0-0.8,0-1.2,0.1s-0.7,0.2-1,0.4
		c-0.3,0.2-0.5,0.4-0.7,0.7c-0.2,0.3-0.3,0.6-0.3,1c0,0.4,0.1,0.7,0.3,1c0.2,0.3,0.4,0.5,0.8,0.7c0.4,0.2,0.8,0.4,1.4,0.6
		c0.6,0.2,1.3,0.4,2.1,0.6c0.8,0.2,1.5,0.5,2.1,0.7c0.6,0.3,1.1,0.6,1.4,0.9c0.4,0.3,0.6,0.7,0.8,1.1c0.2,0.4,0.3,0.9,0.3,1.5
		c0,0.7-0.1,1.3-0.4,1.8c-0.3,0.5-0.7,1-1.2,1.4c-0.5,0.4-1.1,0.7-1.9,0.9c-0.7,0.2-1.5,0.3-2.4,0.3c-0.9,0-1.6-0.1-2.4-0.4
		s-1.3-0.6-1.8-1c-0.5-0.4-0.9-0.8-1.2-1.3c-0.3-0.5-0.5-1-0.5-1.4c0-0.1,0-0.2,0.1-0.3c0.1-0.1,0.2-0.1,0.3-0.1h0.9
		c0.1,0,0.3,0,0.4,0.1c0.1,0.1,0.2,0.2,0.3,0.4s0.2,0.4,0.4,0.7c0.2,0.2,0.4,0.5,0.7,0.7c0.3,0.2,0.7,0.4,1.1,0.5
		c0.4,0.1,1,0.2,1.6,0.2c0.5,0,1-0.1,1.5-0.2c0.5-0.1,0.9-0.3,1.2-0.5c0.4-0.2,0.6-0.5,0.8-0.8c0.2-0.3,0.3-0.7,0.3-1
		c0-0.4-0.1-0.7-0.4-1s-0.6-0.5-1-0.7c-0.4-0.2-1-0.4-1.6-0.6c-0.6-0.2-1.4-0.4-2.2-0.6c-0.7-0.2-1.4-0.4-1.9-0.7s-0.9-0.6-1.3-0.9
		s-0.6-0.7-0.7-1.2c-0.1-0.4-0.2-0.9-0.2-1.4c0-0.5,0.1-1.1,0.3-1.6c0.2-0.5,0.5-1,1-1.4s1-0.7,1.6-1
		C162.7,17.9,163.4,17.8,164.3,17.8z"/>
</g>
<path class="st3" d="M185.8,42.1l14.2,2.2l-9.2-11.2l0,0.3c0.6-2.2,1-4.5,1-6.8v-1c0-13.5-11-24.5-24.5-24.5h-142
	c-13.5,0-24.5,11-24.5,24.5v1c0,13.5,11,24.5,24.5,24.5h142c7.5,0,14.2-3.4,18.7-8.7L185.8,42.1z"/>
</svg>
