<?xml version="1.0" encoding="utf-8"?>
<!-- Generator: Adobe Illustrator 22.1.0, SVG Export Plug-In . SVG Version: 6.00 Build 0)  -->
<svg version="1.1" id="Layer_1" xmlns="http://www.w3.org/2000/svg" xmlns:xlink="http://www.w3.org/1999/xlink" x="0px" y="0px"
	 width="25.39px" height="25.39px" viewBox="0 0 25.39 25.39" style="enable-background:new 0 0 25.39 25.39;" xml:space="preserve"
	>
<style type="text/css">
	.st0{fill:none;stroke:url(#SVGID_1_);stroke-width:0.8;stroke-linecap:round;stroke-linejoin:round;}
	.st1{fill:url(#SVGID_2_);}
	.st2{fill:url(#SVGID_3_);}
	.st3{fill:url(#SVGID_4_);}
	.st4{fill:url(#SVGID_5_);}
	.st5{fill:url(#SVGID_6_);}
	.st6{fill:url(#SVGID_7_);}
	.st7{fill:url(#SVGID_8_);}
	.st8{fill:url(#SVGID_9_);}
	.st9{fill:url(#SVGID_10_);}
	.st10{fill:url(#SVGID_11_);}
	.st11{fill:url(#SVGID_12_);}
	.st12{fill:url(#SVGID_13_);}
	.st13{fill:url(#SVGID_14_);}
	.st14{fill:url(#SVGID_15_);}
</style>
<title>au</title>
<g id="Layer_2_1_">
	<g id="Layer_1-2">
		
			<linearGradient id="SVGID_1_" gradientUnits="userSpaceOnUse" x1="-3.874302e-07" y1="15.31" x2="25.38" y2="15.31" gradientTransform="matrix(1 0 0 -1 0 28)">
			<stop  offset="0" style="stop-color:#B33C8A"/>
			<stop  offset="1" style="stop-color:#EE4F86"/>
		</linearGradient>
		<circle class="st0" cx="12.69" cy="12.69" r="12.29"/>
		<g id="ZcyVCW">
			
				<linearGradient id="SVGID_2_" gradientUnits="userSpaceOnUse" x1="6.85" y1="16.2396" x2="18.47" y2="16.2396" gradientTransform="matrix(1 0 0 -1 0 28)">
				<stop  offset="0" style="stop-color:#B33C8A"/>
				<stop  offset="1" style="stop-color:#EE4F86"/>
			</linearGradient>
			<path class="st1" d="M14.28,15.21l-0.14,0.08c-0.0365,0.0237-0.0835,0.0237-0.12,0c0.0196-0.0421,0.043-0.0823,0.07-0.12v-0.13
				l0,0c-0.031-0.0364-0.0486-0.0822-0.05-0.13l0,0L13.98,15v0.11c0.0029,0.0399,0.0029,0.0801,0,0.12h-0.07h-0.07
				c-0.05,0,0-0.07,0-0.12h0.11v-0.12l0,0l0,0c-0.0044-0.0466-0.0044-0.0934,0-0.14c0,0,0,0,0-0.06l0.07-0.08V14.6l0,0v-0.2
				c0,0,0,0.06,0,0.09v0.06l0,0c-0.0359,0.0603-0.0661,0.124-0.09,0.19c0,0,0,0-0.07,0l-0.17,0.1l-0.09,0.11l0,0l0,0l0,0l0,0h0.06
				v0.09l0,0l0,0L13.29,15c0.0061-0.1393-0.0486-0.2743-0.15-0.37v-0.14H13l-0.07-0.14H13c0.0143-0.0283,0.0143-0.0617,0-0.09h-0.09
				V14.2c0,0,0,0-0.07,0c-0.0359,0.0103-0.0741,0.0103-0.11,0c-0.0481-0.0132-0.0925-0.0371-0.13-0.07h-0.07l0,0h-0.06
				c-0.0884-0.0783-0.195-0.1333-0.31-0.16C12.1152,14.0065,12.055,14.0178,12,14c-0.1259-0.0198-0.2541-0.0198-0.38,0
				c-0.0419,0.0159-0.0821,0.036-0.12,0.06c-0.1409,0.0858-0.2971,0.1435-0.46,0.17h-0.23c-0.0361-0.0089-0.0739-0.0089-0.11,0
				c-0.05,0.0487-0.1073,0.0892-0.17,0.12l0,0c-0.0509,0.0569-0.1236,0.0896-0.2,0.09l0,0c-0.0468,0.0599-0.0715,0.134-0.07,0.21
				l-0.08,0.11l0,0l0,0l0,0H9.85l0,0l0,0l0,0V14.7H9.49c-0.05,0-0.14,0-0.22,0.08c-0.0924-0.0366-0.197,0.0086-0.2337,0.101
				C9.0339,14.8872,9.0318,14.8936,9.03,14.9l0,0L9,15.14H8.87l0,0L8.81,15.2c-0.0107,0.0186-0.0107,0.0414,0,0.06
				c-0.05,0-0.1,0.08-0.17,0.07H8.59H8.53H8.26l0,0l0,0h-0.1c0-0.09-0.13-0.11-0.21-0.14H7.9
				c-0.0325-0.0572-0.0593-0.1175-0.08-0.18v-0.06h0.09c0.0348-0.0207,0.0653-0.0479,0.09-0.08v-0.18c0.06-0.06,0-0.11,0-0.17l0,0
				c0.0103-0.0461,0.0103-0.0939,0-0.14l-0.13-0.21c-0.0493-0.0606-0.0897-0.128-0.12-0.2c-0.0399-0.0808-0.0605-0.1698-0.06-0.26
				c0.0041-0.0265,0.0041-0.0535,0-0.08v-0.07l-0.06-0.1c-0.0322-0.0587-0.0765-0.1098-0.13-0.15c0,0-0.05-0.05-0.05-0.09
				C7.3885,13.0963,7.2675,13.0132,7.13,13L7,12.85h0.07c0.0178-0.0345,0.0178-0.0755,0-0.11l0,0l0.06,0.08l0,0v-0.08v-0.08
				c-0.0656-0.0469-0.1147-0.1134-0.14-0.19H6.92c0.0017-0.0366,0.0017-0.0734,0-0.11c0,0,0-0.06-0.07-0.09
				c0.0049-0.0398,0.0049-0.0802,0-0.12c0-0.07,0-0.13,0.07-0.17v-0.11v-0.06v-0.08H6.86c0-0.09,0-0.2,0.11-0.28v0.21l0,0l0,0v-0.18
				l0.09-0.08l0.1-0.06c0.0164,0.0042,0.0336,0.0042,0.05,0c0.1051-0.0956,0.1901-0.2112,0.25-0.34l0,0l0,0l0,0l0.14-0.1h0.05h0.06
				h0.11v-0.05c0.0438-0.0096,0.0827-0.0344,0.11-0.07c0.0315-0.0394,0.0796-0.0616,0.13-0.06
				c0.0617-0.0038,0.1176-0.0374,0.15-0.09c0-0.06,0.06-0.08,0.13-0.06s0.07,0,0.11,0c0.124-0.0256,0.2425-0.073,0.35-0.14
				c0.0983-0.0421,0.172-0.1268,0.2-0.23c0.05-0.0569,0.0844-0.1258,0.1-0.2l0,0V9.93c0.0841-0.0202,0.1498-0.0859,0.17-0.17H9.22
				c-0.0635-0.0899-0.0635-0.2101,0-0.3h0.05l0,0h0.05V9.29c0,0,0-0.06,0.08-0.06l0,0h0.05l0,0L9.6,9.44v0.01l0,0l0,0
				c0.0311,0.0133,0.0586,0.0339,0.08,0.06V9.45V9.39L9.56,9.32V9.23l0,0l0,0v0.06l0,0l0,0h0.07H10c0,0-0.09,0-0.13,0v-0.2l0,0V9H10
				c0,0,0,0-0.08,0l0,0V8.9c0.07,0,0.09,0,0.12-0.07l0.07,0.05V8.83h-0.06V8.74h0.12l0,0l0,0l0,0h-0.05l0.06-0.07l0,0l0.06-0.05l0,0
				v0.05l0.06-0.16h0.06V8.43l0,0c-0.0111,0.0255-0.0111,0.0545,0,0.08l0.07-0.1l0,0h0.05v0.05h0.1c0.05,0.07,0.14,0.09,0.16,0.18
				l0.12,0.07c-0.0153,0.042-0.0153,0.088,0,0.13c0.0047,0.0197,0.0047,0.0403,0,0.06v0.07c0,0,0-0.07,0.05-0.1l0,0l0,0V8.79l0,0
				l0,0V8.68h0.08h0.07c0.06,0,0.07,0,0.08,0.09l0,0c0,0,0-0.07,0-0.11s0.07,0.05,0.09,0.09h0.06l-0.06-0.09c0,0,0.11,0,0.13-0.06
				h-0.09l0,0l0,0h-0.06h-0.07V8.49h0.07V8.32c0.0219,0.0249,0.0598,0.0272,0.0847,0.0053C11.2966,8.3237,11.2983,8.3219,11.3,8.32
				h0.05h-0.06V8h0.06V7.89c0.0166-0.0221,0.0479-0.0266,0.07-0.01c0.0038,0.0028,0.0072,0.0062,0.01,0.01V7.77l0,0v0.05h0.05l0,0
				l0,0V7.69h0.06l0,0c0,0.06,0.09,0.07,0.19,0s0.08,0,0.12,0h0.05l0,0l0,0c0.0013-0.0233,0.0013-0.0467,0-0.07h0.08
				c0,0,0-0.09,0-0.13l0,0l-0.1-0.09h-0.09c0,0,0,0-0.05,0h-0.06l0,0h0.08h0.05l0,0h0.06l0.07,0.08l0.08-0.06l0.08,0.12l0,0h0.12
				l0,0h0.11l0,0H13l0,0h0.13h0.05l0.09,0.09h0.08c0,0,0,0,0.08-0.06s0.07,0,0.11,0s0,0-0.06,0.09l0,0l0.08-0.06v0.07l0,0h0.09V7.59
				l0,0c0,0,0,0,0.1-0.06v0.09l0,0l0,0c-0.0404,0.0267-0.0718,0.0651-0.09,0.11l0,0V8h-0.05l0,0l0,0l0,0c0,0-0.06,0-0.07,0.05
				s0,0.08,0,0.13l0,0v0.14l0,0l-0.11,0.16c0,0,0.05,0.07,0.08,0.1l0.18,0.11v0.07c0.0586,0.0182,0.1084,0.0574,0.14,0.11h0.07
				l0.23,0.11l0,0l0.06,0.06c0.0482,0.0597,0.1239,0.09,0.2,0.08h0.07c0.0422,0.0114,0.0736,0.0468,0.08,0.09
				c0,0.05,0,0.09,0.08,0.08l0.16,0.11c0.0686,0.0197,0.1414,0.0197,0.21,0c0,0,0,0,0.07,0c0.0086-0.0294,0.0086-0.0606,0-0.09
				c0.0105-0.0361,0.0274-0.07,0.05-0.1c0.0289-0.0291,0.0525-0.0629,0.07-0.1l0.06-0.14c0-0.05,0-0.1,0-0.15l0.07-0.18
				c0-0.09-0.06-0.19,0-0.27V8.22l0.08-0.17V7.96l0.09-0.1l0,0V7.8h-0.09l0,0c0-0.07,0.06-0.11,0.08-0.17l0,0
				c0-0.11,0.1-0.2,0.08-0.32l0.13-0.08v0.05l0.09,0.07v0.19c-0.0128,0.0286-0.0128,0.0614,0,0.09h0.05l0,0c0,0,0,0,0,0.07v0.06l0,0
				L16,8l0,0l0,0c0,0.06,0,0.11,0,0.16c0.0043,0.0198,0.0043,0.0402,0,0.06c-0.01,0.0326-0.01,0.0674,0,0.1
				c0.0045,0.0365,0.0045,0.0735,0,0.11c0,0.1,0.06,0.12,0.15,0.08l0,0h0.11c0.0053,0.0586,0.0389,0.1108,0.09,0.14l0.13,0.1v0.12
				c-0.0446,0.088-0.0446,0.192,0,0.28c-0.046,0.1004-0.0019,0.2191,0.0985,0.2651C16.5823,9.4169,16.5861,9.4185,16.59,9.42
				c-0.0102,0.0427-0.0102,0.0873,0,0.13c0.0305,0.0632,0.0305,0.1368,0,0.2c0,0,0,0.06,0,0.1h0.06
				c0.0146,0.0387,0.0146,0.0813,0,0.12c-0.0394,0.0422-0.0394,0.1078,0,0.15l0.08,0.06h0.09c0,0,0,0.06,0.1,0
				c0.0336,0.0217,0.0528,0.0601,0.05,0.1c0,0,0,0,0,0.06l0,0v0.05h0.09v0.07h0.06l0.09,0.11l-0.06,0.06v0.1c0,0,0.1,0,0.12,0.09V11
				v0.05c0,0,0,0,0,0.07c-0.0099,0.0292-0.0099,0.0608,0,0.09l0.05,0.13l0.09,0.05c0,0,0-0.08,0-0.11s0,0.05,0.05,0.08l0.1,0.07
				v-0.06l0,0c0,0,0,0.07,0,0.09c-0.0344,0.0832-0.0344,0.1768,0,0.26c0.0657,0.0281,0.1115,0.0891,0.12,0.16l0.06,0.06h0.07
				c0,0.09,0,0.18,0.14,0.22s0,0.08,0,0.11s0.06,0,0.08,0.08s0,0.07,0,0.1c0.0129,0.0533,0.0406,0.1018,0.08,0.14
				c-0.0152,0.0454-0.0152,0.0946,0,0.14c0.0038,0.0666,0.0038,0.1334,0,0.2l0,0c0,0,0,0.11,0,0.15v0.1c0,0,0,0.08,0,0.13
				s0,0.11,0,0.16c0.0078,0.0192,0.0078,0.0408,0,0.06c-0.0365,0.0478-0.0636,0.1021-0.08,0.16
				c-0.015,0.0786-0.0456,0.1534-0.09,0.22c-0.0532,0.064-0.0751,0.1482-0.06,0.23c-0.0291,0.0784-0.0625,0.1552-0.1,0.23
				c0,0.06,0,0.05-0.08,0.09s0,0.11-0.07,0.12s-0.07,0.06-0.09,0.11c-0.0617,0.0038-0.1176,0.0374-0.15,0.09L17.6,15c0,0,0,0,0,0.05
				c-0.0029,0.0569-0.0377,0.1073-0.09,0.13c-0.0309,0.0273-0.0549,0.0616-0.07,0.1c-0.0148,0.0375-0.0315,0.0742-0.05,0.11l0,0
				l-0.17,0.2l0,0c0,0,0,0.06-0.05,0.09c-0.0106,0.0583-0.0274,0.1153-0.05,0.17v0.09c0,0,0,0,0,0.06l0,0v0.1H17l0,0
				c-0.0619,0.0192-0.1281,0.0192-0.19,0c-0.1461-0.045-0.3051-0.0109-0.42,0.09l-0.11,0.09c-0.0248,0.0143-0.0552,0.0143-0.08,0
				h-0.12l0,0H16v-0.1l0,0l0,0l0,0c0,0,0-0.06-0.05-0.07l-0.1,0.1l0,0l0.09-0.09v-0.09l-0.16,0.07h0.09l-0.18,0.07v0.07
				c-0.05,0-0.08,0-0.12,0l-0.24-0.15c-0.0528-0.0008-0.1031-0.0223-0.14-0.06c-0.0259-0.0092-0.0541-0.0092-0.08,0v0.05l0,0
				l-0.08-0.07c-0.0194-0.0069-0.0406-0.0069-0.06,0c-0.0899-0.0091-0.1609-0.0801-0.17-0.17l0,0l0,0l-0.06-0.12v-0.06
				c-0.0085-0.1299-0.0536-0.2547-0.13-0.36v-0.11L14.28,15.21z"/>
			
				<linearGradient id="SVGID_3_" gradientUnits="userSpaceOnUse" x1="15.58" y1="10.3912" x2="16.49" y2="10.3912" gradientTransform="matrix(1 0 0 -1 0 28)">
				<stop  offset="0" style="stop-color:#B33C8A"/>
				<stop  offset="1" style="stop-color:#EE4F86"/>
			</linearGradient>
			<path class="st2" d="M15.73,17.11l0.25,0.16h0.15c0-0.05,0.06,0,0.1-0.05h0.05l0,0h0.1h0.07v0.33l0,0v0.1v-0.08
				c-0.0488,0.0679-0.0797,0.147-0.09,0.23v0.05h-0.09l-0.06,0.16l-0.06-0.08c0,0,0,0,0,0.06L16.1,18.1l0,0l0,0
				c-0.0427,0.0102-0.0873,0.0102-0.13,0l0,0l0,0l0,0h-0.09c-0.0589-0.0941-0.0964-0.1999-0.11-0.31l0.05,0.06l0,0
				c0-0.08-0.09-0.16-0.13-0.25c-0.0207-0.0548-0.0207-0.1152,0-0.17c0,0,0-0.05,0-0.07s0,0,0-0.07h0.13L15.73,17.11z"/>
			
				<linearGradient id="SVGID_4_" gradientUnits="userSpaceOnUse" x1="11.75" y1="20.52" x2="12.12" y2="20.52" gradientTransform="matrix(1 0 0 -1 0 28)">
				<stop  offset="0" style="stop-color:#B33C8A"/>
				<stop  offset="1" style="stop-color:#EE4F86"/>
			</linearGradient>
			<path class="st3" d="M11.91,7.41L11.91,7.41L11.91,7.41L11.91,7.41V7.35L12,7.42v0.05l-0.17,0.14l-0.09-0.06
				c-0.09,0-0.1-0.07-0.09-0.18h0.05h0.06L11.91,7.41z"/>
			
				<linearGradient id="SVGID_5_" gradientUnits="userSpaceOnUse" x1="13.58" y1="12.645" x2="14" y2="12.645" gradientTransform="matrix(1 0 0 -1 0 28)">
				<stop  offset="0" style="stop-color:#B33C8A"/>
				<stop  offset="1" style="stop-color:#EE4F86"/>
			</linearGradient>
			<path class="st4" d="M13.84,15.3l0.08,0.06l0,0v0.05H13.8l0,0l0,0h-0.05l0,0h-0.1c-0.0298-0.0221-0.0511-0.0539-0.06-0.09
				L13.84,15.3z"/>
			
				<linearGradient id="SVGID_6_" gradientUnits="userSpaceOnUse" x1="13.69" y1="19.73" x2="13.86" y2="19.73" gradientTransform="matrix(1 0 0 -1 0 28)">
				<stop  offset="0" style="stop-color:#B33C8A"/>
				<stop  offset="1" style="stop-color:#EE4F86"/>
			</linearGradient>
			<path class="st5" d="M13.8,8.22L13.8,8.22L13.8,8.22c-0.016,0.0408-0.0398,0.0782-0.07,0.11h0.06l0,0h-0.13V8.21L13.8,8.22z"/>
			
				<linearGradient id="SVGID_7_" gradientUnits="userSpaceOnUse" x1="18.41" y1="15.57" x2="18.58" y2="15.57" gradientTransform="matrix(1 0 0 -1 0 28)">
				<stop  offset="0" style="stop-color:#B33C8A"/>
				<stop  offset="1" style="stop-color:#EE4F86"/>
			</linearGradient>
			<path class="st6" d="M18.44,12.56v-0.07l0.07-0.12l0,0h0.06V12.3l0,0v0.1C18.53,12.4,18.45,12.45,18.44,12.56z"/>
			
				<linearGradient id="SVGID_8_" gradientUnits="userSpaceOnUse" x1="11.61" y1="20.4533" x2="11.81" y2="20.4533" gradientTransform="matrix(1 0 0 -1 0 28)">
				<stop  offset="0" style="stop-color:#B33C8A"/>
				<stop  offset="1" style="stop-color:#EE4F86"/>
			</linearGradient>
			<path class="st7" d="M11.68,7.52L11.68,7.52V7.46c0,0.06,0.05,0.13,0.12,0.16s-0.06,0-0.1,0s-0.06,0-0.1,0L11.68,7.52z"/>
			
				<linearGradient id="SVGID_9_" gradientUnits="userSpaceOnUse" x1="16.42" y1="11.07" x2="16.53" y2="11.07" gradientTransform="matrix(1 0 0 -1 0 28)">
				<stop  offset="0" style="stop-color:#B33C8A"/>
				<stop  offset="1" style="stop-color:#EE4F86"/>
			</linearGradient>
			<path class="st8" d="M16.52,16.91V17h-0.07v-0.14l0,0L16.52,16.91z"/>
			
				<linearGradient id="SVGID_10_" gradientUnits="userSpaceOnUse" x1="6.94" y1="15.395" x2="7.05" y2="15.395" gradientTransform="matrix(1 0 0 -1 0 28)">
				<stop  offset="0" style="stop-color:#B33C8A"/>
				<stop  offset="1" style="stop-color:#EE4F86"/>
			</linearGradient>
			<path class="st9" d="M7,12.52l0.08,0.07v0.1c-0.0464-0.0298-0.0843-0.0712-0.11-0.12c0,0,0,0,0-0.05H7z"/>
			
				<linearGradient id="SVGID_11_" gradientUnits="userSpaceOnUse" x1="14.56" y1="18.8584" x2="14.76" y2="18.8584" gradientTransform="matrix(1 0 0 -1 0 28)">
				<stop  offset="0" style="stop-color:#B33C8A"/>
				<stop  offset="1" style="stop-color:#EE4F86"/>
			</linearGradient>
			<path class="st10" d="M14.57,9.17l0.1-0.06h0.09c0,0-0.07,0-0.1,0l0,0h-0.07C14.59,9.11,14.56,9.19,14.57,9.17z"/>
			
				<linearGradient id="SVGID_12_" gradientUnits="userSpaceOnUse" x1="15.4" y1="11.235" x2="15.47" y2="11.235" gradientTransform="matrix(1 0 0 -1 0 28)">
				<stop  offset="0" style="stop-color:#B33C8A"/>
				<stop  offset="1" style="stop-color:#EE4F86"/>
			</linearGradient>
			<path class="st11" d="M15.44,16.68c0,0,0,0,0,0.05s0,0.09,0,0.12c-0.0469-0.0386-0.0537-0.1079-0.0152-0.1548
				C15.4294,16.6896,15.4345,16.6846,15.44,16.68z"/>
			
				<linearGradient id="SVGID_13_" gradientUnits="userSpaceOnUse" x1="6.93" y1="15.2523" x2="7.03" y2="15.2523" gradientTransform="matrix(1 0 0 -1 0 28)">
				<stop  offset="0" style="stop-color:#B33C8A"/>
				<stop  offset="1" style="stop-color:#EE4F86"/>
			</linearGradient>
			<path class="st12" d="M6.93,12.68c0.06,0,0.07,0.09,0.1,0.13c-0.0262,0.0072-0.0538,0.0072-0.08,0L6.93,12.68z"/>
			
				<linearGradient id="SVGID_14_" gradientUnits="userSpaceOnUse" x1="17.98" y1="16.225" x2="18.06" y2="16.225" gradientTransform="matrix(1 0 0 -1 0 28)">
				<stop  offset="0" style="stop-color:#B33C8A"/>
				<stop  offset="1" style="stop-color:#EE4F86"/>
			</linearGradient>
			<path class="st13" d="M18.06,11.75v0.08l0,0L18,11.72l0,0L18.06,11.75z"/>
			
				<linearGradient id="SVGID_15_" gradientUnits="userSpaceOnUse" x1="6.81" y1="15.4" x2="6.88" y2="15.4" gradientTransform="matrix(1 0 0 -1 0 28)">
				<stop  offset="0" style="stop-color:#B33C8A"/>
				<stop  offset="1" style="stop-color:#EE4F86"/>
			</linearGradient>
			<path class="st14" d="M6.81,12.54c0.0347,0.0322,0.059,0.074,0.07,0.12C6.8312,12.6417,6.8019,12.5915,6.81,12.54z"/>
		</g>
	</g>
</g>
</svg>
