<svg xmlns="http://www.w3.org/2000/svg" xmlns:xlink="http://www.w3.org/1999/xlink" viewBox="0 0 25.39 25.39"><defs><style>.cls-1{fill:none;stroke-linecap:round;stroke-linejoin:round;stroke-width:0.8px;stroke:url(#New_Gradient_Swatch_4);}.cls-2{fill:url(#New_Gradient_Swatch_4-2);}.cls-3{fill:url(#New_Gradient_Swatch_4-3);}.cls-4{fill:url(#New_Gradient_Swatch_4-4);}.cls-5{fill:url(#New_Gradient_Swatch_4-5);}.cls-6{fill:url(#New_Gradient_Swatch_4-6);}.cls-7{fill:url(#New_Gradient_Swatch_4-7);}.cls-8{fill:url(#New_Gradient_Swatch_4-8);}.cls-9{fill:url(#New_Gradient_Swatch_4-9);}.cls-10{fill:url(#New_Gradient_Swatch_4-10);}.cls-11{fill:url(#New_Gradient_Swatch_4-11);}.cls-12{fill:url(#New_Gradient_Swatch_4-12);}.cls-13{fill:url(#New_Gradient_Swatch_4-13);}.cls-14{fill:url(#New_Gradient_Swatch_4-14);}.cls-15{fill:url(#New_Gradient_Swatch_4-15);}</style><linearGradient id="New_Gradient_Swatch_4" y1="12.69" x2="25.39" y2="12.69" gradientUnits="userSpaceOnUse"><stop offset="0" stop-color="#b33c8a"/><stop offset="1" stop-color="#ee4f86"/></linearGradient><linearGradient id="New_Gradient_Swatch_4-2" x1="6.84" y1="11.9" x2="18.46" y2="11.9" xlink:href="#New_Gradient_Swatch_4"/><linearGradient id="New_Gradient_Swatch_4-3" x1="15.58" y1="17.58" x2="16.49" y2="17.58" xlink:href="#New_Gradient_Swatch_4"/><linearGradient id="New_Gradient_Swatch_4-4" x1="11.75" y1="7.49" x2="12.12" y2="7.49" xlink:href="#New_Gradient_Swatch_4"/><linearGradient id="New_Gradient_Swatch_4-5" x1="13.58" y1="15.37" x2="14" y2="15.37" xlink:href="#New_Gradient_Swatch_4"/><linearGradient id="New_Gradient_Swatch_4-6" x1="13.69" y1="8.31" x2="13.86" y2="8.31" xlink:href="#New_Gradient_Swatch_4"/><linearGradient id="New_Gradient_Swatch_4-7" x1="18.41" y1="12.39" x2="18.58" y2="12.39" xlink:href="#New_Gradient_Swatch_4"/><linearGradient id="New_Gradient_Swatch_4-8" x1="11.61" y1="7.5" x2="11.81" y2="7.5" xlink:href="#New_Gradient_Swatch_4"/><linearGradient id="New_Gradient_Swatch_4-9" x1="16.42" y1="16.92" x2="16.53" y2="16.92" xlink:href="#New_Gradient_Swatch_4"/><linearGradient id="New_Gradient_Swatch_4-10" x1="6.94" y1="12.6" x2="7.05" y2="12.6" xlink:href="#New_Gradient_Swatch_4"/><linearGradient id="New_Gradient_Swatch_4-11" x1="14.56" y1="9.17" x2="14.76" y2="9.17" xlink:href="#New_Gradient_Swatch_4"/><linearGradient id="New_Gradient_Swatch_4-12" x1="15.4" y1="16.76" x2="15.47" y2="16.76" xlink:href="#New_Gradient_Swatch_4"/><linearGradient id="New_Gradient_Swatch_4-13" x1="6.93" y1="12.75" x2="7.03" y2="12.75" xlink:href="#New_Gradient_Swatch_4"/><linearGradient id="New_Gradient_Swatch_4-14" x1="17.98" y1="11.77" x2="18.06" y2="11.77" xlink:href="#New_Gradient_Swatch_4"/><linearGradient id="New_Gradient_Swatch_4-15" x1="6.81" y1="12.6" x2="6.88" y2="12.6" xlink:href="#New_Gradient_Swatch_4"/></defs><title>au</title><g id="Layer_2" data-name="Layer 2"><g id="Layer_1-2" data-name="Layer 1"><circle class="cls-1" cx="12.69" cy="12.69" r="12.29"/><g id="ZcyVCW"><path class="cls-2" d="M14.28,15.21l-.14.08a.11.11,0,0,1-.12,0,.75.75,0,0,1,.07-.12l0-.13,0,0a.21.21,0,0,1-.05-.13l0,0-.06.09,0,.11a.84.84,0,0,1,0,.12l-.07,0-.07,0c-.05,0,0-.07,0-.12l.11,0,0-.12,0,0h0a.74.74,0,0,1,0-.14s0,0,0-.06l.07-.08v-.11l0,0,0-.2s0,.06,0,.09l0,.06h0a1.11,1.11,0,0,0-.09.19s0,0-.07,0l-.17.1-.09.11v0h0s0,0,0,0l0,0h.06v.09l0,0h0L13.29,15a.48.48,0,0,0-.15-.37l0-.14H13l-.07-.14H13a.1.1,0,0,0,0-.09l-.09,0,0-.06s0,0-.07,0a.2.2,0,0,1-.11,0,.33.33,0,0,1-.13-.07h-.07l0,0h-.06a.71.71,0,0,0-.31-.16A.17.17,0,0,1,12,14a1.22,1.22,0,0,0-.38,0,.67.67,0,0,0-.12.06,1.28,1.28,0,0,1-.46.17l-.23,0a.23.23,0,0,0-.11,0,.66.66,0,0,1-.17.12l0,0a.27.27,0,0,1-.2.09h0a.33.33,0,0,0-.07.21l-.08.11h0l0,0,0,0H9.85l0,0h0l0,0,0-.06H9.49c-.05,0-.14,0-.22.08a.18.18,0,0,0-.24.12v0L9,15.14H8.87l0,0-.06.06a.06.06,0,0,0,0,.06c-.05,0-.1.08-.17.07l-.05,0-.06,0H8.26l0,0,0,0-.1,0c0-.09-.13-.11-.21-.14l-.05,0a1,1,0,0,1-.08-.18l0-.06h.09A.32.32,0,0,0,8,14.87l0-.18c.06-.06,0-.11,0-.17h0a.32.32,0,0,0,0-.14l-.13-.21a.82.82,0,0,1-.12-.2.58.58,0,0,1-.06-.26.26.26,0,0,0,0-.08l0-.07-.06-.1a.47.47,0,0,0-.13-.15s-.05-.05-.05-.09A.4.4,0,0,0,7.13,13L7,12.85l.07,0a.12.12,0,0,0,0-.11l0,0,.06.08,0,0,0-.08,0-.08a.38.38,0,0,1-.14-.19l-.07,0a1.17,1.17,0,0,0,0-.11s0-.06-.07-.09a.49.49,0,0,0,0-.12c0-.07,0-.13.07-.17l0-.11,0-.06,0-.08-.06,0c0-.09,0-.2.11-.28l0,.21,0,0,0,0v-.18l.09-.08.1-.06a.1.1,0,0,0,.05,0A1.07,1.07,0,0,0,7.46,11a.1.1,0,0,0,0,0l0,0h0l.14-.1.05,0,.06,0,.11,0,0-.05a.19.19,0,0,0,.11-.07.16.16,0,0,1,.13-.06.19.19,0,0,0,.15-.09c0-.06.06-.08.13-.06s.07,0,.11,0a1.07,1.07,0,0,0,.35-.14A.35.35,0,0,0,9,10.2.44.44,0,0,0,9.1,10l0,0V9.93a.23.23,0,0,0,.17-.17l-.05,0a.26.26,0,0,1,0-.3l.05,0v0l.05,0V9.29s0-.06.08-.06l0,0,.05,0v0l.15.21V9.45l0,0h0a.21.21,0,0,1,.08.06l0-.06,0-.06-.12-.07,0-.09,0,0s0,0,0,0l0,.06h0l0,0,.07,0H10s-.09,0-.13,0V9.09h0V9L10,9C10,9,10,9,9.92,9l0,0V8.9c.07,0,.09,0,.12-.07l.07.05,0-.05-.06,0V8.74h.12v0h0v0l-.05,0,.06-.07h0l.06-.05h0l0,.05.06-.16h.06l0-.08h0a.1.1,0,0,0,0,.08l.07-.1v0l.05,0,0,.05h.1c.05.07.14.09.16.18l.12.07a.19.19,0,0,0,0,.13.13.13,0,0,1,0,.06v.07s0-.07.05-.1l0,0h0l0-.08,0,0,0,0,0-.11.08,0h.07c.06,0,.07,0,.08.09v0s0-.07,0-.11.07.05.09.09h.06l-.06-.09s.11,0,.13-.06h-.09l0,0,0,0h-.06l-.07,0,0-.11.07,0,0-.17a.06.06,0,0,0,.09,0l.05,0-.06,0V8h.06V7.89a.05.05,0,0,1,.08,0V7.77h0v.05h.05s0,0,0,0l0,0V7.69l.06,0,0,0c0,.06.09.07.19,0s.08,0,.12,0l.05,0v0h0a.64.64,0,0,0,0-.07l.08,0s0-.09,0-.13l0,0-.1-.09-.09,0s0,0-.05,0l-.06,0h0l.08,0,.05,0s0,0,0,0l.06,0,.07.08.08-.06.08.12h0l.12,0h0l.11,0v0H13v0h.13l.05,0,.09.09h.08s0,0,.08-.06.07,0,.11,0,0,0-.06.09l0,0,.08-.06,0,.07v0h.09l0-.08h0s0,0,.1-.06l0,.09h0s0,0,0,0a.24.24,0,0,0-.09.11l0,0V8l-.05,0V8l0,0h0s-.06,0-.07.05,0,.08,0,.13l0,0,0,.14,0,0-.11.16s.05.07.08.1l.18.11,0,.07a.25.25,0,0,1,.14.11h.07l.23.11,0,0,.06.06a.22.22,0,0,0,.2.08l.07,0a.11.11,0,0,1,.08.09c0,.05,0,.09.08.08l.16.11a.38.38,0,0,0,.21,0s0,0,.07,0a.16.16,0,0,0,0-.09.31.31,0,0,1,.05-.1.36.36,0,0,0,.07-.1l.06-.14c0-.05,0-.1,0-.15l.07-.18c0-.09-.06-.19,0-.27l0-.15.08-.17,0-.09.09-.1,0,0,0-.06-.09,0h0c0-.07.06-.11.08-.17h0c0-.11.1-.2.08-.32l.13-.08v.05l.09.07v.19a.11.11,0,0,0,0,.09h.05v0s0,0,0,.07v.06l0,0L16,8,16,8l0,0c0,.06,0,.11,0,.16a.14.14,0,0,1,0,.06.17.17,0,0,0,0,.1.45.45,0,0,1,0,.11c0,.1.06.12.15.08l0,0h.11a.18.18,0,0,0,.09.14l.13.1v.12a.31.31,0,0,0,0,.28.2.2,0,0,0,.11.27.28.28,0,0,0,0,.13.23.23,0,0,1,0,.2s0,.06,0,.1l.06,0a.17.17,0,0,1,0,.12.11.11,0,0,0,0,.15l.08.06.09,0s0,.06.1,0a.11.11,0,0,1,.05.1s0,0,0,.06l0,0,0,.05.09,0v.07l.06,0,.09.11-.06.06,0,.1s.1,0,.12.09V11l0,.05s0,0,0,.07a.14.14,0,0,0,0,.09l.05.13.09.05s0-.08,0-.11,0,.05.05.08l.1.07v-.06h0s0,.07,0,.09a.34.34,0,0,0,0,.26.2.2,0,0,1,.12.16l.06.06.07,0c0,.09,0,.18.14.22s0,.08,0,.11.06,0,.08.08,0,.07,0,.1a.29.29,0,0,0,.08.14.22.22,0,0,0,0,.14,1.77,1.77,0,0,1,0,.2h0s0,.11,0,.15l0,.1s0,.08,0,.13,0,.11,0,.16a.08.08,0,0,1,0,.06.48.48,0,0,0-.08.16.6.6,0,0,1-.09.22.28.28,0,0,0-.06.23,2.29,2.29,0,0,1-.1.23c0,.06,0,.05-.08.09s0,.11-.07.12-.07.06-.09.11a.19.19,0,0,0-.15.09L17.6,15s0,0,0,.05a.15.15,0,0,1-.09.13.26.26,0,0,0-.07.1,1.17,1.17,0,0,1-.05.11v0l-.17.2v0s0,.06-.05.09a.84.84,0,0,1-.05.17l0,.09s0,0,0,.06v0l0,.1H17l0,0a.32.32,0,0,1-.19,0,.44.44,0,0,0-.42.09l-.11.09a.08.08,0,0,1-.08,0h-.12v0H16l0-.1h0l0,0,0,0s0-.06-.05-.07l-.1.1,0,0,.09-.09,0-.09-.16.07.09,0-.18.07,0,.07c-.05,0-.08,0-.12,0l-.24-.15a.2.2,0,0,1-.14-.06.12.12,0,0,0-.08,0l0,.05h0l-.08-.07a.09.09,0,0,0-.06,0,.19.19,0,0,1-.17-.17v0l0,0-.06-.12,0-.06a.69.69,0,0,0-.13-.36v-.11Z"/><path class="cls-3" d="M15.73,17.11l.25.16h.15c0-.05.06,0,.1-.05l.05,0,0,0h.1l.07,0,0,.33h0v.1l0-.08a.5.5,0,0,0-.09.23l0,.05-.09,0-.06.16-.06-.08s0,0,0,.06l-.05.11h0l0,0a.28.28,0,0,1-.13,0h0l0,0v0l-.09,0a.76.76,0,0,1-.11-.31l.05.06,0,0c0-.08-.09-.16-.13-.25a.24.24,0,0,1,0-.17s0-.05,0-.07,0,0,0-.07l.13,0Z"/><path class="cls-4" d="M11.91,7.41l0,0,0,0,0,0,0-.06.09.07,0,.05-.17.14-.09-.06c-.09,0-.1-.07-.09-.18l.05,0h.06Z"/><path class="cls-5" d="M13.84,15.3l.08.06,0,0,0,.05h-.12l0,0h0l-.05,0,0,0h-.1a.16.16,0,0,1-.06-.09Z"/><path class="cls-6" d="M13.8,8.22v0h0a.34.34,0,0,1-.07.11l.06,0s0,0,0,0l-.13,0,0-.12Z"/><path class="cls-7" d="M18.44,12.56l0-.07.07-.12h0l.06,0v-.07l0,0,0,.1C18.53,12.4,18.45,12.45,18.44,12.56Z"/><path class="cls-8" d="M11.68,7.52l0,0,0-.06c0,.06.05.13.12.16s-.06,0-.1,0-.06,0-.1,0Z"/><path class="cls-9" d="M16.52,16.91V17l-.07,0,0-.14,0,0Z"/><path class="cls-10" d="M7,12.52l.08.07v.1a.32.32,0,0,1-.11-.12s0,0,0-.05Z"/><path class="cls-11" d="M14.57,9.17l.1-.06.09,0s-.07,0-.1,0l0,0-.07,0S14.56,9.19,14.57,9.17Z"/><path class="cls-12" d="M15.44,16.68s0,0,0,.05,0,.09,0,.12A.11.11,0,0,1,15.44,16.68Z"/><path class="cls-13" d="M6.93,12.68c.06,0,.07.09.1.13a.15.15,0,0,1-.08,0Z"/><path class="cls-14" d="M18.06,11.75v.08h0L18,11.72h0Z"/><path class="cls-15" d="M6.81,12.54a.24.24,0,0,1,.07.12A.11.11,0,0,1,6.81,12.54Z"/></g></g></g></svg>