<svg xmlns="http://www.w3.org/2000/svg" viewBox="0 0 39.73 39.71"><defs><style>.cls-1{fill:#3c3835;}.cls-2{fill:#ffd007;}</style></defs><title>dc</title><g id="Layer_2" data-name="Layer 2"><g id="Layer_1-2" data-name="Layer 1"><circle class="cls-1" cx="19.96" cy="19.63" r="18.12"/><path class="cls-2" d="M11.5,15.09H9v9.27h2.44a3.23,3.23,0,0,0,2.72-1.21,5.45,5.45,0,0,0,.93-3.5,5.37,5.37,0,0,0-.93-3.38A3.16,3.16,0,0,0,11.5,15.09Z"/><path class="cls-2" d="M19.86,0A19.86,19.86,0,1,0,39.73,19.85,19.87,19.87,0,0,0,19.86,0Zm-.52,20.14a7.17,7.17,0,0,1-2.13,5.43,7.54,7.54,0,0,1-5.44,2H5.13V12.1h6.66a7.44,7.44,0,0,1,5.41,2.06,7.21,7.21,0,0,1,2.14,5.41ZM25.4,23.3a3.61,3.61,0,0,0,2.94,1.27,3.41,3.41,0,0,0,2.36-.76,3.33,3.33,0,0,0,1-2.22H35.6v.35a6.32,6.32,0,0,1-2.34,4.39A7.91,7.91,0,0,1,28.15,28a7.88,7.88,0,0,1-5.69-2.19,7.31,7.31,0,0,1-2.26-5.59v-.57A7.54,7.54,0,0,1,22.49,14a7.76,7.76,0,0,1,5.66-2.25,8.07,8.07,0,0,1,5.08,1.6,5.93,5.93,0,0,1,2.37,4.2v.31H31.66a3.1,3.1,0,0,0-1.05-2,3.48,3.48,0,0,0-2.27-.7A3.63,3.63,0,0,0,25.4,16.4a5.15,5.15,0,0,0-1,3.43A5.62,5.62,0,0,0,25.4,23.3Z"/></g></g></svg>