<?xml version="1.0" encoding="utf-8"?>
<!-- Generator: Adobe Illustrator 22.1.0, SVG Export Plug-In . SVG Version: 6.00 Build 0)  -->
<svg version="1.1" id="Layer_1" xmlns="http://www.w3.org/2000/svg" xmlns:xlink="http://www.w3.org/1999/xlink" x="0px" y="0px"
	 width="80px" height="80px" viewBox="0 0 80 80" style="enable-background:new 0 0 80 80;" xml:space="preserve">
<style type="text/css">
	.st0{fill:#3C3835;}
	.st1{fill:#FFD007;}
</style>
<title>dc</title>
<g id="Layer_2_1_">
	<g id="Layer_1-2">
		<circle class="st0" cx="40.1913" cy="39.5367" r="36.4955"/>
		<path class="st1" d="M23.152,30.3927h-5.0352v18.6707h4.9144c2.114,0.1277,4.1577-0.7815,5.4783-2.4371
			c1.4097-2.0677,2.0705-4.5547,1.8731-7.0493c0.1547-2.4149-0.5047-4.8119-1.8731-6.8077
			C27.2164,31.1531,25.2181,30.2667,23.152,30.3927z"/>
		<path class="st1" d="M39.9899,0C17.8984,0.0111-0.0011,17.9287,0.01,40.0201S17.9387,80.0111,40.0301,80
			S80.0211,62.0713,80.01,39.9799C79.9878,17.893,62.0767,0,39.9899,0z M38.9425,40.5639c0.1845,4.0888-1.3748,8.0636-4.29,10.9366
			c-2.9696,2.7488-6.9136,4.199-10.9567,4.0282H10.3222V24.3706h13.4139c4.0433-0.1446,7.9732,1.3519,10.8963,4.149
			c2.9033,2.8655,4.4677,6.8199,4.3102,10.8963V40.5639z M51.148,46.9285c1.4669,1.7295,3.6568,2.6753,5.9215,2.5579
			c1.7204,0.1043,3.4171-0.4421,4.7533-1.5307c1.2117-1.1827,1.9313-2.7801,2.0141-4.4713h7.855v0.7049
			c-0.2963,3.4677-1.9994,6.6628-4.713,8.8419c-2.9327,2.2884-6.5738,3.4783-10.292,3.3635
			c-4.2572,0.1269-8.3867-1.4624-11.4602-4.4109c-3.0665-2.9233-4.7251-7.0258-4.5519-11.2588v-1.148
			c-0.1329-4.2733,1.5416-8.4048,4.6123-11.3797c3.0236-3.001,7.141-4.6379,11.3998-4.5317
			c3.6769-0.1146,7.284,1.0216,10.2316,3.2226c2.7176,2.0161,4.4524,5.0906,4.7734,8.4592v0.6244h-7.9355
			c-0.1732-1.5609-0.9283-2.9992-2.1148-4.0282c-1.3114-0.9917-2.9299-1.4906-4.572-1.4099
			c-2.2536-0.1261-4.4389,0.7956-5.9215,2.4975c-1.4743,1.9887-2.1885,4.4391-2.0141,6.9084
			C49.0181,42.4274,49.726,44.8838,51.148,46.9285z"/>
	</g>
</g>
</svg>
