<?xml version="1.0" encoding="UTF-8"?>
<svg width="110px" height="44px" viewBox="0 0 110 44" version="1.1" xmlns="http://www.w3.org/2000/svg" xmlns:xlink="http://www.w3.org/1999/xlink">
    <!-- Generator: Sketch 53.2 (72643) - https://sketchapp.com -->
    <title>Group</title>
    <desc>Created with Sketch.</desc>
    <defs>
        <polygon id="path-1" points="0 0.0614837012 13.9938471 0.0614837012 13.9938471 25.8884881 0 25.8884881"></polygon>
        <polygon id="path-3" points="0.0308182016 0.185570677 7.83687805 0.185570677 7.83687805 12 0.0308182016 12"></polygon>
    </defs>
    <g id="Page-1" stroke="none" stroke-width="1" fill="none" fill-rule="evenodd">
        <g id="Group">
            <path d="M48.1303456,23.1318481 C52.2837692,23.1326074 55.0158878,20.5618347 55.0715253,16.6007114 C55.1257916,12.7348723 52.0955026,9.72583075 48.1771674,9.75430209 C44.2376742,9.78315305 41.1117826,12.8407857 41.104534,16.672649 C41.0972855,20.5031838 43.9555681,23.1310889 48.1303456,23.1318481 M54.817434,23.3854329 C49.4538931,27.6680926 43.3754876,25.9863851 40.4850762,22.8940175 C37.1910965,19.3702141 37.1736607,13.8815082 40.4214064,10.2373659 C44.0778141,6.13445532 49.239179,5.91465654 54.8834547,9.67382309 C54.9886567,8.56704702 55.0013907,7.29399829 56.6005792,7.42686457 C58.2379697,7.5631474 57.9883842,8.86770442 57.9838783,9.93006519 C57.9638958,14.8011327 58.0377527,19.6761861 57.8592815,24.5423185 C57.6696435,29.7085389 54.3621462,32.7407371 49.0174123,32.9778085 C46.3611098,33.0954901 43.7962958,32.7758518 41.5611932,31.2738935 C40.76777,30.7409099 40.102274,29.997618 39.4751758,29.2717885 C38.8490571,28.5469081 38.8147734,27.724276 39.6407172,27.0895548 C40.4936961,26.4337649 41.2636105,26.753593 41.8509396,27.4984034 C44.1506915,30.4142487 47.2734485,30.6777035 50.591133,29.9063199 C53.7859838,29.1635974 55.2797745,26.7636528 54.817434,23.3854329" id="Fill-1" fill="#000000"></path>
            <path d="M70.1857678,9.90286577 C66.2850734,9.87304179 63.1010652,13.0328242 63.065574,16.9688098 C63.0312593,20.8102553 66.3084073,24.1641859 70.1006674,24.1688642 C74.0446963,24.1733475 77.1530162,21.0472877 77.1545849,17.0750455 C77.1559575,13.0624532 74.1152865,9.93288468 70.1857678,9.90286577 M76.8937935,9.82469965 C76.9508539,9.38689143 77.0079142,8.96935572 77.07772,8.64752964 C77.1867426,8.14442055 77.6061658,7.48868286 78.4636401,7.51714234 C79.3518996,7.54657647 79.9132874,8.26566575 79.9213269,8.6974312 C80.0232904,14.1920608 80.0258395,19.6898093 79.9307389,25.1844389 C79.9230916,25.6300443 79.2015033,26.3497183 78.5208966,26.4027387 C78.0416679,26.4401649 77.306942,26.0807177 77.0610529,25.214068 C76.9945805,24.9801544 76.9708544,24.6400051 76.9057546,24.0811466 C74.21725,26.558876 71.2256,27.4360519 67.8437432,26.8005867 C65.3903431,26.3393871 63.4795068,24.9883414 61.9896624,23.0269761 C59.0236993,19.122179 59.4152786,13.4261888 62.8865495,9.88571211 C66.6256709,6.0721413 71.5497265,6.0247738 76.8937935,9.82469965" id="Fill-3" fill="#000000"></path>
            <g id="Group-7">
                <mask id="mask-2" fill="white">
                    <use xlink:href="#path-1"></use>
                </mask>
                <g id="Clip-6"></g>
                <path d="M5.22144,15.8487924 C7.76724,18.0930652 10.22164,20.2569742 12.67604,22.4212773 C12.98324,22.6921106 13.32944,23.1033833 13.57344,23.3572773 C14.12564,23.931247 14.06244,24.7707318 13.79104,25.2710348 C13.33404,26.1132773 12.37464,26.0244439 11.65584,25.4217167 C10.22664,24.2229591 8.85224,22.9609742 7.45104,21.7295197 C6.09564,20.538247 4.73524,19.3520955 3.09584,17.9175652 C3.09584,20.2083227 3.08724,22.1644288 3.09924,24.1205348 C3.10544,25.146747 2.63504,25.79655 1.58104,25.8178227 C0.50904,25.8396864 0.04584,25.1583682 0.01104,24.1597318 C-0.00316,23.7539742 0.00264,23.3474288 0.00264,22.9412773 C0.00224,16.3969591 0.00224,9.85283788 0.00264,3.3085197 C0.00264,2.81215606 -0.00716,2.31520152 0.01084,1.81942879 C0.04784,0.803262121 0.39564,0.0126257576 1.60624,0.0638378788 C2.77724,0.113474242 3.11044,0.857625758 3.10404,1.90727727 C3.08304,5.29200455 3.09624,8.67712576 3.09644,12.06205 L3.09644,13.7211258 C5.44584,11.7114439 7.53424,9.92433788 9.62344,8.1380197 C10.10784,7.72398939 10.67784,7.32276212 11.21184,7.07576212 C12.30944,6.56836818 12.69244,6.66389848 13.14884,7.00288333 C13.90444,7.56464091 13.71264,8.46991364 12.98564,9.10198939 C10.75424,11.0429288 8.50164,12.9602318 6.26104,14.8907318 C5.92464,15.1804742 5.60744,15.4918833 5.22144,15.8487924" id="Fill-5" fill="#000000" mask="url(#mask-2)"></path>
            </g>
            <path d="M84.9057698,9.5512995 C86.3172617,8.78225005 87.610213,7.77037281 89.0690467,7.34006908 C93.654485,5.98717139 97.5210373,8.78585171 97.828945,13.6939681 C98.048879,17.2004697 97.9707838,20.7270647 97.9998598,24.2449399 C98.0084335,25.2795644 97.6252264,26.0694656 96.4351596,25.9951576 C95.3107002,25.9248305 95.1278567,25.1303798 95.1183511,24.1552774 C95.0849882,20.7253586 95.1766895,17.2819809 94.9054997,13.8698808 C94.6141803,10.2069914 91.3207612,8.6235874 88.1563204,10.4592972 C86.3424237,11.5113614 85.1816193,13.1190293 85.0686701,15.2713062 C84.9137843,18.2182233 84.8955186,21.1732915 84.854514,24.1253268 C84.839976,25.1523689 84.6334616,25.9964846 83.430907,25.9987593 C82.2345031,26.001034 81.9968625,25.174358 82.0000311,24.13689 C82.015501,19.3563482 82.008232,14.575996 82.0050635,9.79564378 C82.0045043,8.78206049 81.8913687,7.69227363 83.2817992,7.51408618 C84.2949869,7.38423682 84.7439878,7.99557142 84.9057698,9.5512995" id="Fill-8" fill="#000000"></path>
            <path d="M14.0000036,13.9216482 C14.0261149,12.4432016 14.895838,10.0868125 16.6686597,8.05445583 C17.3607081,7.2608082 18.1562201,6.53289508 19.1641566,7.37642361 C20.1628658,8.21202534 19.5919505,9.0735342 18.8914601,9.89366898 C16.6509904,12.5157029 16.1721519,15.4579026 17.6659947,18.553805 C19.1545367,21.6388806 21.7554605,23.2215358 25.2318009,23.1455544 C28.4264138,23.0759532 30.8176617,21.5137917 32.2529994,18.7341883 C33.7232831,15.8867236 33.4211377,13.0831465 31.5666445,10.4568591 C31.3363544,10.1305066 31.0732778,9.82329437 30.799796,9.53077577 C30.1546695,8.84056333 30.0038914,8.0842297 30.7312783,7.42417781 C31.5106916,6.71695173 32.3048294,6.98317653 32.9772451,7.68305581 C34.8105352,9.59129019 35.8133672,11.8703446 35.9786735,14.4807783 C36.362883,20.5457543 31.5057835,25.8400897 25.4497225,25.9959191 C19.0701166,26.1604488 13.9950954,21.3366952 14.0000036,13.9216482" id="Fill-10" fill="#EA1B3D"></path>
            <path d="M99.9868444,36.4337011 C100.009255,34.4569921 98.5720427,32.9719828 96.626593,32.9616914 C94.7382421,32.9515906 93.1546776,34.4924402 93.1293437,36.3645201 C93.1028405,38.3122608 94.5421966,39.6953091 96.5919051,39.6914975 C98.5648323,39.6878765 99.9650182,38.3440879 99.9868444,36.4337011 M99.8200303,39.4658493 C96.9894526,41.4724796 94.3586231,40.7101544 92.876784,38.9495646 C91.6048267,37.438255 91.74923,35.01368 93.0995276,33.5050386 C94.7427242,31.6695503 97.0381717,31.4353259 99.7089508,33.2330791 C99.9944446,32.896322 99.8477027,32.3245782 100.543801,32.2481551 C100.952066,32.3087599 100.960641,33.0636524 100.968436,33.4751174 C101.00975,35.6122958 101.00897,37.7513801 100.975062,39.8889397 C100.943102,41.9070049 100.183864,43.1191018 98.4806458,43.6477743 C96.5650121,44.2421973 94.675297,44.1695858 93.0944608,42.76443 C92.8042901,42.5061924 92.2800729,41.9172963 92.6207166,41.5633868 C92.9621398,41.2502618 93.4754439,41.789988 93.7790611,42.044414 C94.9290259,43.0085647 96.9272871,43.322452 98.2996057,42.687054 C99.5501267,42.1078775 99.9952241,41.0905547 99.9445562,39.8056557 C99.9400741,39.6924504 99.8642672,39.5819133 99.8200303,39.4658493" id="Fill-12" fill="#EA1B3D"></path>
            <path d="M26.9927419,9.62150214 C26.9927419,10.9360278 27.0016879,12.2505536 26.9894888,13.564894 C26.9817626,14.3892984 26.623921,14.9555784 25.6150515,14.9976417 C24.534817,15.0424846 24.0494942,14.443221 24.0348553,13.591392 C23.9878886,10.8783992 23.9876852,8.16373871 24.038515,5.45074592 C24.0539673,4.61837357 24.5043191,3.96222252 25.5867901,4.00169165 C26.6637715,4.04097547 26.9939618,4.68545255 26.9972149,5.55062319 C27.0025012,6.90758284 26.9986381,8.26454249 26.9986381,9.62150214 L26.9927419,9.62150214 Z" id="Fill-14" fill="#EA1B3D"></path>
            <path d="M66.8542326,35.6518631 C66.6300963,33.9982837 65.4039816,32.9135782 63.9119209,32.9839727 C62.4894824,33.0512122 61.4324243,34.1163965 61.2993604,35.6518631 L66.8542326,35.6518631 Z M61.074497,37.0788789 C61.1859289,38.1371618 61.6134785,38.8939514 62.3073376,39.3634449 C63.0181024,39.8441779 64.1335123,39.9814175 64.9717057,39.7796989 C65.8237146,39.5744311 66.6130089,39.0384868 67.3494048,38.2227393 C67.6560698,39.4336422 66.6691793,40.5073054 64.9642527,40.8912213 C62.5589229,41.4330811 60.4122678,39.901361 60.060521,37.3922032 C59.6704184,34.6097492 61.202471,32.2934366 63.6094369,32.026056 C66.0133124,31.7594642 67.9125632,33.5603395 68,36.4301457 L61.1566621,36.4301457 C61.0323237,36.6147093 61.0466844,36.8371321 61.074497,37.0788789 L61.074497,37.0788789 Z" id="Fill-16" fill="#EA1B3D"></path>
            <path d="M84.7715599,35.6218592 C84.4834897,33.9750805 83.4577528,33.0141311 82.0489932,32.9670296 C80.6620084,32.9211106 79.5696976,33.9218696 79.2271904,35.6218592 L84.7715599,35.6218592 Z M79.1186732,36.5359041 C79.1299176,38.5165319 80.2165169,39.9534232 81.5794066,39.9268178 C84.1579382,39.9370658 84.470282,38.8860521 85.3032582,38.2126386 C85.3068278,38.6755734 85.3084342,39.1651136 85.0910429,39.4694011 C84.0103335,40.9833497 81.8514134,41.4372189 80.175466,40.5466262 C78.6216005,39.7208719 77.7070579,37.5788377 78.0850831,35.6512237 C78.5287897,33.3883811 79.9584318,32.0255909 81.9149531,32.000365 C83.8309589,31.9755332 85.2996885,33.2194857 85.8276387,35.2103616 C86.0766213,36.4552995 86.2402895,36.5211233 84.9570028,36.5433931 C83.4034942,36.5073279 81.8487362,36.5351158 80.2945136,36.5359041 C79.9013175,36.5361012 79.5079428,36.5359041 79.1186732,36.5359041 L79.1186732,36.5359041 Z" id="Fill-18" fill="#EA1B3D"></path>
            <path d="M71.2563625,33.349738 C71.5800534,33.0941935 71.9313946,32.7542712 72.331953,32.5107807 C74.3810128,31.2656041 76.5900747,32.3848166 76.8628895,34.9149479 C77.0492514,36.6416811 76.9928451,38.4021655 76.9891584,40.1475824 C76.9884211,40.4276366 76.9375448,41.0014063 76.5353275,40.9869415 C76.2155075,40.9847316 76.1084093,40.3649559 76.0899758,40.0409047 C76.0083158,38.619539 76.055321,37.188932 75.9520938,35.7705798 C75.8107094,33.8282812 75.1981666,33.0582325 73.9157531,32.9997707 C72.5389604,32.936889 71.1747024,34.2527823 71.033871,35.9186429 C70.9335931,37.1061613 70.9955295,38.3097516 70.9837321,39.5063105 C70.9807827,39.8281518 71.033871,40.1716904 70.9472339,40.4652049 C70.8843759,40.6777568 70.7776463,40.9345067 70.4661214,41 C70.2554273,40.9847316 70.0250095,40.6438048 70.0229818,40.4625932 C69.9929353,37.9318592 69.9923823,35.4003216 70.0211385,32.8695876 C70.0233505,32.692595 70.1632602,32.3460429 70.4703611,32.3442348 C70.9311968,32.3962678 70.9603216,32.9708411 71.2563625,33.349738" id="Fill-20" fill="#EA1B3D"></path>
            <g id="Group-24" transform="translate(102.000000, 32.000000)">
                <mask id="mask-4" fill="white">
                    <use xlink:href="#path-3"></use>
                </mask>
                <g id="Clip-23"></g>
                <path d="M3.80140488,6.67845 C4.94364878,4.397325 5.83145366,2.5277625 6.84686829,0.5492625 C6.89272195,0.4600125 7.20472195,0.0336375 7.83691707,0.2425125 C6.22442927,4.382325 4.40140488,8.1312 2.63867317,11.9053875 C2.2940878,12.096075 1.9776,11.9908875 1.87125854,11.6586375 C1.76628293,11.4752625 2.11516098,10.8460125 2.31028293,10.408575 C3.43223415,8.01795 3.15789268,7.36995 2.25389268,5.8018875 C1.43652683,4.38345 0.826380488,2.8517625 0.180331707,1.347825 C0.0622829268,1.07295 -0.11235122,0.5492625 0.237502439,0.3597 C0.700526829,0.2211375 0.978965854,0.690825 1.11438049,0.9642 C2.01116098,2.7760125 2.84218537,4.6176375 3.80140488,6.67845" id="Fill-22" fill="#EA1B3D" mask="url(#mask-4)"></path>
            </g>
            <path d="M89.2714811,33.0497632 C90.8932746,31.7356728 91.2881476,31.6841716 92,32.7336597 C91.9521084,32.8072617 91.9126024,32.9321621 91.8531572,32.9445305 C89.6624408,33.4094602 89.1878105,33.9855026 89.0402223,36.5390676 C88.9761183,37.6473561 89.0437629,38.7649717 88.9759319,39.8724492 C88.9522656,40.256883 88.9822678,40.9772908 88.5521748,41 C88.0659908,40.9943227 88.0423245,40.3055455 88.0344979,39.9519313 C87.9862335,37.7748925 87.9931284,35.5956233 88.0274166,33.4177734 C88.0330071,33.0596985 88.0816441,32.3431431 88.3915421,32.3494286 C89.1374963,32.3263139 88.9658691,32.8066534 89.2714811,33.0497632" id="Fill-25" fill="#EA1B3D"></path>
        </g>
    </g>
</svg>