<?xml version="1.0" encoding="UTF-8"?>
<svg width="115px" height="58px" viewBox="0 0 115 58" version="1.1" xmlns="http://www.w3.org/2000/svg" xmlns:xlink="http://www.w3.org/1999/xlink">
    <!-- Generator: Sketch 53.2 (72643) - https://sketchapp.com -->
    <title>meridian</title>
    <desc>Created with Sketch.</desc>
    <g id="Page-1" stroke="none" stroke-width="1" fill="none" fill-rule="evenodd">
        <g id="meridian" fill="#0033A1" fill-rule="nonzero">
            <path d="M3.46064815,43.4337963 L3.46064815,57.145949 L0.175694445,57.145949 L0.175694445,37.5347222 C0.266203703,37.5347222 0.356712963,37.516088 0.441898148,37.516088 C1.6238426,37.516088 2.80578703,37.516088 3.98773148,37.516088 C4.16620712,37.4905506 4.33710757,37.5973634 4.39236111,37.7689815 C6.58055555,42.5127315 8.77407407,47.2529321 10.9729167,51.9895833 C11.0234954,52.1013889 11.0847222,52.2105325 11.1672454,52.3729167 C11.5159722,51.6248843 11.8407407,50.9300926 12.1628472,50.243287 C14.0830633,46.1011575 16.0006172,41.9581404 17.9155093,37.8142361 C17.9790672,37.6240067 18.1695011,37.5063858 18.3680555,37.5347222 C19.5819445,37.5480325 20.7931713,37.5347222 22.0310185,37.5347222 L22.0310185,57.1565972 L18.7780093,57.1565972 L18.7780093,43.3619213 L18.7167824,43.343287 C18.5393133,43.7195216 18.3618441,44.0930942 18.184375,44.4640047 C16.2322145,48.6150078 14.280054,52.7660109 12.3278935,56.9170139 C12.2819481,57.0806109 12.1240236,57.1866459 11.9552083,57.1672453 C11.3908565,57.1672453 10.8265046,57.1512732 10.2621528,57.1672453 C10.0742075,57.1944879 9.89409717,57.081919 9.83622685,56.9010417 C7.77935956,52.4838349 5.71539352,48.0692901 3.6443287,43.6574075 C3.60439815,43.5748843 3.5644676,43.4950232 3.521875,43.4125 L3.46064815,43.4337963 Z" id="Shape"></path>
            <path d="M66.5003472,45.1854167 C66.5003472,44.493287 66.5163195,43.8038195 66.5163195,43.1116898 C66.5163195,41.3866898 66.5163195,39.6625771 66.5163195,37.9393518 L66.5163195,37.5347222 L69.7453703,37.5347222 L69.7453703,57.1299768 L66.5030093,57.1299768 L66.5030093,55.3171297 L66.4204861,55.3570602 C65.4941396,56.5491186 64.1208351,57.3107833 62.6190972,57.4653935 C59.2462963,57.8939815 56.1689815,55.6525463 55.3863425,52.2371528 C55.1993016,51.4979619 55.1142156,50.7366665 55.133449,49.9744213 C55.2851852,47.0328703 56.996875,43.8916667 60.6172453,43.2075232 C62.8613425,42.7842593 64.8765047,43.2873843 66.4204861,45.1454861 L66.5003472,45.1854167 Z M66.6148148,50.2965278 L66.6148148,50.1368055 C66.620131,48.8310876 65.9999128,47.6017701 64.946548,46.8301805 C63.8931833,46.0585909 62.534049,45.8380325 61.2907407,46.2369213 C59.230324,46.8784722 58.0270833,49.165162 58.5461805,51.316088 C59.0279233,53.4832155 61.138924,54.8799589 63.321875,54.475926 C65.3450232,54.0925926 66.7452547,52.1280093 66.6148148,50.2965278 L66.6148148,50.2965278 Z" id="Shape"></path>
            <path d="M89.1782407,55.2931713 C88.2344686,56.5544853 86.7929807,57.3479828 85.2224537,57.4707176 C83.4869365,57.6716796 81.7471469,57.1313783 80.430787,55.9826389 C79.0849441,54.8579668 78.216271,53.2642893 78.0003472,51.5237268 C77.6383102,48.9841435 78.266551,46.7320602 80.1006945,44.9032407 C81.2587361,43.7320766 82.8407522,43.078343 84.4877315,43.0903935 C86.0450232,43.0744213 87.4399305,43.479051 88.6138889,44.5332176 C88.8295139,44.7302083 89.0185185,44.9591435 89.2581018,45.212037 L89.2581018,43.4311343 L92.4525463,43.4311343 L92.4525463,57.140625 L89.2581018,57.140625 L89.2581018,55.277199 L89.1782407,55.2931713 Z M85.2730325,54.5424768 C87.5197917,54.5664352 89.3273148,52.7216435 89.3885417,50.389699 C89.4497685,48.158912 87.7913195,46.0239583 85.246412,46.0425926 C82.9703703,46.0585648 81.2001157,47.7862268 81.1575232,50.1873843 C81.0962963,52.9585648 83.2072917,54.5717593 85.2597222,54.5424768 L85.2730325,54.5424768 Z" id="Shape"></path>
            <path d="M37.9925925,51.2921297 L27.45625,51.2921297 C27.4083333,52.5166667 28.4412037,53.8982639 29.8121528,54.4413195 C30.7287324,54.8116567 31.7462486,54.8484004 32.6871528,54.5451389 C33.6774305,54.2363426 34.3189815,53.5069445 34.8700232,52.6630787 L37.5506945,53.9328703 C36.9394865,55.1166466 35.9783682,56.0833419 34.7981482,56.7013889 C33.9734324,57.1233212 33.074927,57.3818449 32.1520833,57.4627315 C30.2589,57.7043971 28.3466117,57.1919038 26.8280093,56.0358797 C25.3849071,54.9373631 24.4608113,53.2905646 24.2751157,51.4864583 C24.1628761,50.7821668 24.1431877,50.0662243 24.216551,49.3568287 C24.6211805,46.3141203 26.5458333,43.8543982 29.687037,43.2341435 C31.915162,42.7922453 34.002199,43.194213 35.7351852,44.772801 C37.236574,46.138426 37.944676,47.8847222 37.9952547,49.9025463 C38.0032407,50.3524305 37.9925925,50.7969907 37.9925925,51.2921297 Z M34.7555555,48.8962963 C34.6277778,47.2112268 33.1077547,45.8163195 31.3774305,45.7657407 C29.4261574,45.709838 27.7038195,47.083449 27.4668982,48.8962963 L34.7555555,48.8962963 Z" id="Shape"></path>
            <path d="M98.3755787,57.1645833 L95.1944445,57.1645833 L95.1944445,43.415162 L106.846181,43.415162 C107.429167,43.415162 107.660764,43.6361111 107.660764,44.2137732 C107.660764,48.4499614 107.660764,52.6861497 107.660764,56.922338 C107.660764,56.994213 107.647454,57.06875 107.639468,57.1565972 L104.49294,57.1565972 L104.49294,46.433912 L98.3702547,46.433912 L98.3755787,57.1645833 Z" id="Path"></path>
            <path d="M47.874074,43.415162 L47.874074,46.3939815 L43.1888889,46.3939815 L43.1888889,57.1592593 L39.9944445,57.1592593 L39.9944445,56.858449 C39.9944445,52.684375 39.9944445,48.5138503 39.9944445,44.346875 C39.9944445,43.6068287 40.1861111,43.4204861 40.9128472,43.4204861 L47.8607639,43.4204861 L47.874074,43.415162 Z" id="Path"></path>
            <path d="M101.287847,12.4423611 C101.780324,11.8247685 102.240856,11.2444444 102.704051,10.6667824 C103.167245,10.0891204 103.665046,9.47418982 104.133565,8.86724537 C104.411992,8.48113951 104.866634,8.26182987 105.34213,8.28425926 C108.036111,8.28425926 110.730093,8.28425926 113.424074,8.28425926 L113.748843,8.28425926 L113.748843,12.439699 L101.287847,12.4423611 Z" id="Path"></path>
            <polygon id="Path" points="49.7800925 43.4311343 53.0277778 43.4311343 53.0277778 57.145949 49.7800925 57.145949"></polygon>
            <path d="M95.588426,19.6325232 L93.2484953,20.7638889 L91.355787,21.6796297 C90.9982494,21.863464 90.5739729,21.863464 90.2164352,21.6796297 L82.6722222,18.040625 C82.6322917,18.0219907 82.5976852,18.0006945 82.5204861,17.9554398 L84.3253472,14.2019676 L95.588426,19.6325232 Z" id="Path"></path>
            <path d="M89.8118055,30.5734953 L87.9962963,26.809375 L99.254051,21.3894675 C99.0916667,22.1188657 98.9425925,22.787037 98.7908565,23.4552083 C98.607176,24.2724537 98.4155093,25.089699 98.2344907,25.9096065 C98.1751115,26.3062612 97.9284006,26.6500709 97.5716435,26.8333333 L89.8118055,30.5734953 Z" id="Path"></path>
            <path d="M103.93125,15.6394676 C105.475231,15.6394676 107.019213,15.6394676 108.563194,15.6394676 C108.931879,15.6310408 109.283002,15.7967397 109.51088,16.0866898 L114.805671,22.7258102 C114.825827,22.7568423 114.842773,22.7898439 114.85625,22.8243055 L111.635185,25.3931713 C111.605903,25.377199 111.573958,25.369213 111.557986,25.3479167 C109.009529,22.1534722 106.463735,18.9590278 103.920602,15.7645833 L103.93125,15.6394676 Z" id="Path"></path>
            <path d="M91.8908565,3.48194445 C92.8145833,7.53888889 93.7356482,11.571875 94.6673611,15.663426 L92.6734953,14.7104167 C91.9547453,14.3670139 91.2439815,14.0076389 90.5199075,13.6748843 C90.0923322,13.4949183 89.7827648,13.1134514 89.694676,12.6579861 C89.0824075,9.95335648 88.4674768,7.25050154 87.8498843,4.5494213 C87.8498843,4.50949074 87.8498843,4.46689815 87.8498843,4.40833333 L91.8908565,3.48194445 Z" id="Path"></path>
            <path d="M97.1989583,12.4769676 C96.9327547,11.2497685 96.666551,10.0944444 96.4003472,8.93912037 C96.3204861,8.59837963 96.237963,8.25763889 96.166088,7.91423611 C96.0616464,7.52715717 96.1465526,7.11348612 96.3950232,6.7988426 L101.649884,0.212962963 C101.682023,0.177623849 101.716723,0.144702791 101.753704,0.114467593 L105.004051,2.70729167 L97.1989583,12.4769676 Z" id="Path"></path>
            <path d="M102.922338,19.6112268 L103.955208,20.9023148 C104.551505,21.6503472 105.123843,22.419676 105.752083,23.138426 C106.084438,23.5104079 106.207479,24.0245765 106.079514,24.506713 C105.477894,27.2326389 104.844329,29.9505787 104.216088,32.7217593 L100.145833,31.7980324 C101.064236,27.746412 101.985301,23.713426 102.922338,19.6112268 Z" id="Path"></path>
            <polygon id="Path" points="75.7402778 57.1486111 72.5059028 57.1486111 72.5059028 43.4337963 75.7402778 43.4337963"></polygon>
            <path d="M111.66713,53.1795139 C112.410854,53.1842692 113.095547,53.5854354 113.463291,54.2318973 C113.831035,54.8783591 113.825961,55.6719036 113.449981,56.3136103 C113.074,56.9553169 112.384234,57.3476952 111.640509,57.3429398 C110.407986,57.3429398 109.548148,56.4325232 109.545486,55.1467593 C109.59449,54.020579 110.540461,53.1434496 111.66713,53.1795139 L111.66713,53.1795139 Z" id="Path"></path>
            <path d="M51.3773148,37.4096065 C51.9137715,37.3925966 52.4335476,37.5973093 52.8143275,37.9755708 C53.1951074,38.3538323 53.4032646,38.8722386 53.3898148,39.4087963 C53.3979405,39.9585822 53.1777574,40.48713 52.781711,40.8685454 C52.3856646,41.2499609 51.8492066,41.4501016 51.3001157,41.4212963 C50.2207642,41.3840574 49.3643753,40.4994359 49.3621528,39.4194445 C49.3480303,38.881266 49.5559823,38.3609886 49.9371661,37.9808118 C50.3183499,37.6006351 50.8391756,37.3940603 51.3773148,37.4096065 Z" id="Path"></path>
            <path d="M74.1111111,37.4096065 C74.9815972,37.2871528 76.112963,38.09375 76.120949,39.318287 C76.1289352,40.542824 75.3622685,41.405324 74.0685185,41.4159722 C73.5352497,41.4111365 73.0262067,41.1925924 72.6554199,40.8092959 C72.2846331,40.4259996 72.083094,39.9099876 72.095949,39.3768518 C72.090625,38.240162 73.166088,37.2685185 74.1111111,37.4096065 Z" id="Path"></path>
            <polygon id="Path" points="103.93125 15.6394676 103.93125 15.7592593 103.870023 15.666088"></polygon>
            <path d="M66.5003472,45.1854167 L66.4204861,45.1454861 L66.5003472,45.1854167 Z" id="Path"></path>
            <path d="M89.1782407,55.2931713 L89.2501157,55.2931713 L89.1782407,55.2931713 Z" id="Path"></path>
            <path d="M66.4204861,55.3703703 L66.5030093,55.3304398 L66.4204861,55.3703703 Z" id="Path"></path>
            <polygon id="Path" points="3.46064815 43.343287 3.45532407 43.3246528 3.46863425 43.3246528"></polygon>
        </g>
    </g>
</svg>