<?xml version="1.0" encoding="utf-8"?>
<!-- Generator: Adobe Illustrator 22.1.0, SVG Export Plug-In . SVG Version: 6.00 Build 0)  -->
<svg version="1.1" id="Layer_1" xmlns="http://www.w3.org/2000/svg" xmlns:xlink="http://www.w3.org/1999/xlink" x="0px" y="0px"
	 width="80px" height="44px" viewBox="0 0 80 44" style="enable-background:new 0 0 80 44;" xml:space="preserve">
<style type="text/css">
	.st0{fill:#8D2969;}
	.st1{fill:#E21C3D;}
	.st2{fill:#C92030;}
	.st3{fill:#DB1E3C;}
	.st4{fill:#D2202E;}
	.st5{fill:#A62738;}
	.st6{fill:#C42039;}
	.st7{fill:#DA1E34;}
	.st8{fill:#A42360;}
	.st9{fill:#B42D84;}
	.st10{fill:#A52847;}
	.st11{fill:#8D2869;}
	.st12{fill:#9D2367;}
	.st13{fill:#AE235F;}
	.st14{fill:#662C82;}
	.st15{fill:#6B4A97;}
	.st16{fill:#5B2A75;}
	.st17{fill:#454084;}
	.st18{fill:#6F2260;}
	.st19{fill:#623482;}
	.st20{fill:#17457A;}
	.st21{fill:#36568E;}
	.st22{fill:#045DA8;}
	.st23{fill:#2673B1;}
	.st24{fill:#0D4F90;}
	.st25{fill:#1A478B;}
	.st26{fill:#263878;}
	.st27{fill:#FFFFFF;}
	.st28{fill:#4E4E50;}
</style>
<title>npower</title>
<g id="Layer_2_1_">
	<g id="Layer_1-2">
		<path class="st0" d="M0.0162,13.1358c-0.0403,7.2546,5.8081,13.1682,13.0626,13.2086c0.0244,0.0001,0.0487,0.0001,0.0731,0.0001
			h53.6377c7.2749,0,13.1723-5.8974,13.1723-13.1723S74.0646,0,66.7897,0H13.152C5.8972,0,0.0162,5.881,0.0162,13.1358z"/>
		<path class="st1" d="M1.1692,7.8085c-2.5159,5.5599-0.8713,12.1204,3.9699,15.8359L9.182,10.2167L1.1692,7.8085z"/>
		<path class="st2" d="M5.1683,2.7439C3.4322,4.0706,2.0572,5.8121,1.1692,7.8085l8.0128,2.4082L5.1683,2.7439z"/>
		<path class="st3" d="M12.2179,0C9.6476,0.1941,7.1934,1.1494,5.1683,2.7439l4.0137,7.4728L12.2179,0z"/>
		<path class="st4" d="M5.1391,23.6444c2.2976,1.7707,5.1121,2.7397,8.0128,2.7585h4.6851L9.182,10.2167L5.1391,23.6444z"/>
		<path class="st5" d="M9.182,10.2167l8.7572,16.2008h2.7877l3.5029-11.6762L9.182,10.2167z"/>
		<path class="st6" d="M24.186,14.7121L16.2754,0H13.152h-0.9341L9.182,10.2167L24.186,14.7121z"/>
		<path class="st7" d="M28.5938,0h-12.333l7.9252,14.6975L28.5938,0z"/>
		<path class="st8" d="M20.6831,26.4029h9.7934L24.186,14.7267L20.6831,26.4029z"/>
		<path class="st9" d="M24.186,14.6975l6.2906,11.6762h6.5533l2.1601-7.1955L24.186,14.6975z"/>
		<path class="st10" d="M39.19,19.2074L28.8419,0h-0.2481l-4.3786,14.6975l15.004,4.5099H39.19z"/>
		<path class="st11" d="M43.6999,4.1889L29.703,0h-0.8611L39.19,19.2074L43.6999,4.1889z"/>
		<path class="st12" d="M41.4376,0H29.7614l13.9969,4.1889L41.4376,0z"/>
		<path class="st13" d="M44.9551,0h-3.5175l2.2623,4.1889L44.9551,0z"/>
		<path class="st14" d="M37.0299,26.4029h6.0279L39.19,19.2074C39.19,19.2074,37.0299,26.4029,37.0299,26.4029z"/>
		<path class="st15" d="M39.19,19.2074l3.8678,7.1955h10.3335l0.8027-2.7001L39.19,19.2074z"/>
		<path class="st16" d="M39.19,19.2074l15.004,4.4953L43.6999,4.1889L39.19,19.2074z"/>
		<path class="st17" d="M54.1939,23.7028l4.5099-14.9456l-15.004-4.5683L54.1939,23.7028z"/>
		<path class="st18" d="M58.7039,8.7572L54.0188,0h-9.0637l-1.2552,4.1889L58.7039,8.7572z"/>
		<path class="st19" d="M61.3164,0h-7.2976l4.6851,8.7572L61.3164,0z"/>
		<path class="st17" d="M53.3912,26.4029h2.2623l-1.4595-2.7001L53.3912,26.4029z"/>
		<path class="st20" d="M55.6535,26.4029h7.502l-8.9615-2.7001L55.6535,26.4029z"/>
		<path class="st21" d="M54.1939,23.7174l8.9615,2.6855h3.6342c0.467,0,0.9341,0,1.4595-0.073L58.7039,8.7572L54.1939,23.7174z"/>
		<path class="st22" d="M58.7039,8.7572l9.4869,17.5144c0.5653-0.0606,1.1259-0.1581,1.6785-0.2919l3.8532-12.7709L58.7039,8.7572z"
			/>
		<path class="st23" d="M73.7078,13.1358L66.5999,0h-5.2835l-2.6126,8.7572L73.7078,13.1358z"/>
		<path class="st24" d="M76.4226,4.1743C73.9314,1.5043,70.4413-0.008,66.7897,0h-0.1897l7.1079,13.1358L76.4226,4.1743z"/>
		<path class="st25" d="M69.8693,26.038c3.1935-0.7711,5.9865-2.7009,7.8377-5.4149l-3.9991-7.4874L69.8693,26.038z"/>
		<path class="st24" d="M77.707,20.6232c1.1339-1.669,1.8681-3.5769,2.1455-5.5754l-6.1446-1.839L77.707,20.6232z"/>
		<path class="st26" d="M73.7224,13.2088l6.1446,1.839c0.5675-3.9599-0.7006-7.9626-3.4445-10.8735L73.7224,13.2088z"/>
		<path class="st27" d="M50.2094,13.9823V9.7497c0.0079-0.6013,0.4933-1.0868,1.0947-1.0946h0.8903
			c0.1531,0,0.2773,0.1242,0.2773,0.2773v5.0062c0.1315,1.9705-1.3593,3.6745-3.3296,3.8062
			c-0.1403,0.0093-0.281,0.0105-0.4214,0.0032c-1.0551-0.0012-2.0692-0.4088-2.8315-1.1384
			c-0.7524,0.7264-1.7564,1.1343-2.8023,1.1384c-1.9796,0.1168-3.6789-1.3933-3.7957-3.3728
			c-0.0086-0.1454-0.0083-0.2912,0.0009-0.4365V9.7497c0-0.6045,0.4901-1.0946,1.0947-1.0946h0.8903
			c0.1531,0,0.2773,0.1242,0.2773,0.2773l0,0v5.0354c0,0.8786,0.7122,1.5909,1.5909,1.5909s1.5909-0.7122,1.5909-1.5909v-4.218
			c0.008-0.6069,0.5022-1.0946,1.1092-1.0946h0.8757c0.1531,0,0.2773,0.1242,0.2773,0.2773v5.0208
			c-0.068,0.8032,0.5279,1.5094,1.3311,1.5775c0.0864,0.0073,0.1734,0.0069,0.2598-0.0012c0.8026,0.0741,1.5135-0.5162,1.5877-1.319
			c0.007-0.0759,0.008-0.1521,0.0032-0.2281H50.2094z M63.5787,16.6386v-4.1889c-0.121-1.9631,1.3724-3.6526,3.3355-3.7735
			c0.0801-0.005,0.1603-0.0072,0.2404-0.0067h3.9407c0.1451,0,0.2627,0.1176,0.2627,0.2627l0,0v0.8465
			c0,0.6045-0.4901,1.0946-1.0947,1.0946h-2.9191c-0.8061,0-1.4595,0.6534-1.4595,1.4595v5.1813
			c0,0.1531-0.1242,0.2773-0.2773,0.2773h-0.9341c-0.6126-0.0076-1.103-0.5103-1.0954-1.1228
			C63.578,16.6588,63.5783,16.6487,63.5787,16.6386z M28.8565,12.3768v1.5763c-0.1293,1.9626,1.3568,3.6583,3.3194,3.7876
			c0.1,0.0066,0.2001,0.0089,0.3002,0.0072h2.4228c1.9664,0.0365,3.5903-1.5281,3.6268-3.4946
			c0.0018-0.1001-0.0006-0.2002-0.0071-0.3002v-1.5763c0.0892-1.9568-1.4249-3.6153-3.3816-3.7044
			c-0.0793-0.0035-0.1586-0.0045-0.238-0.0028h-2.4228c-1.9583-0.0423-3.5801,1.5109-3.6224,3.4692
			C28.852,12.2182,28.8528,12.2976,28.8565,12.3768z M19.0922,16.6386L19.0922,16.6386v-7.969h5.8381
			c1.7325-0.0451,3.1736,1.3226,3.2187,3.0552c0.0028,0.1054,0.0001,0.211-0.0077,0.3163c0.13,1.712-1.1523,3.2053-2.8643,3.3353
			c-0.1153,0.0088-0.231,0.0111-0.3466,0.007h-3.5758v2.1309c-0.0018,0.0727-0.0334,0.1413-0.0876,0.1897
			c-0.0531,0.0452-0.12,0.0709-0.1897,0.073h-0.8903c-0.2902-0.0003-0.5685-0.1157-0.7736-0.3211
			C19.1905,17.2446,19.0728,16.9452,19.0922,16.6386z M8.4961,12.4498v4.1889c0,0.6045,0.4901,1.0946,1.0946,1.0946h0.8903
			c0.133,0.0029,0.2493-0.0889,0.2773-0.2189v-5.0646c-0.0645-0.8035,0.5346-1.5071,1.3381-1.5716
			c0.0404-0.0032,0.0809-0.0048,0.1214-0.0047h3.4299v5.8381c0,0.607,0.4878,1.1012,1.0946,1.1092h0.9049
			c0.15-0.0073,0.27-0.1273,0.2773-0.2773V8.7864h-5.8381c-1.9585-0.0253-3.5668,1.542-3.592,3.5007
			C8.4937,12.3414,8.4943,12.3955,8.4961,12.4498z M53.289,13.9093v-1.4595c-0.1216-1.9631,1.3712-3.6531,3.3343-3.7746
			c0.1046-0.0064,0.2096-0.0083,0.3145-0.0055h2.9191c1.5677-0.0013,2.8563,1.2359,2.9191,2.8023
			c0,1.6122-1.3069,2.9191-2.9191,2.9191l0,0h-4.3786c0.0909,0.6712,0.6981,1.1492,1.372,1.0801h5.3127
			c0.1477-0.0001,0.2696,0.1153,0.2773,0.2627v0.8611c-0.0003,0.2902-0.1157,0.5685-0.3211,0.7736
			c-0.2065,0.2014-0.4851,0.3118-0.7735,0.3065h-4.4078c-1.9661,0.0504-3.601-1.5026-3.6513-3.4689
			c-0.0022-0.0844-0.0013-0.1687,0.0025-0.2529V13.9093z M55.5659,12.2601c-0.116-0.6835,0.344-1.3315,1.0274-1.4476
			c0.109-0.0185,0.2199-0.0225,0.33-0.012h2.9191c0.3469,0.0436,0.6085,0.3364,0.613,0.686
			c0.0356,0.3752-0.2262,0.7137-0.5984,0.7736H55.5659z M32.6221,10.8005c-0.8061-0.0026-1.4616,0.6488-1.4642,1.4549
			c-0.0001,0.0406,0.0015,0.081,0.0047,0.1214v1.4595c-0.0645,0.8035,0.5346,1.5071,1.3381,1.5716
			c0.0404,0.0032,0.0809,0.0048,0.1214,0.0047h2.1455c0.8061,0.0026,1.4616-0.6488,1.4642-1.4549
			c0.0001-0.0406-0.0015-0.081-0.0047-0.1214v-1.4595c0.0645-0.8035-0.5346-1.5071-1.3381-1.5716
			c-0.0404-0.0032-0.0809-0.0048-0.1214-0.0047H32.6221z M21.3545,13.1358v-2.2623h3.5467c0.5802,0.0147,1.0386,0.497,1.0239,1.0771
			c-0.0003,0.0156-0.0012,0.0311-0.0022,0.0467c0.0487,0.5864-0.3871,1.1014-0.9735,1.1501
			c-0.0161,0.0013-0.0321,0.0023-0.0482,0.0029L21.3545,13.1358z"/>
		<path class="st28" d="M27.2802,35.379l-1.6785,1.1092c-0.5062-0.7356-1.3401-1.1771-2.2331-1.1822
			c-0.8903,0-1.3574,0.2773-1.3574,0.8757s0.9049,0.8319,1.912,1.0071c1.9558,0.3503,3.605,0.9341,3.605,2.9191
			c0,1.985-1.4595,3.0796-3.9115,3.0796c-1.7897,0.14-3.4979-0.7711-4.3786-2.3353l1.7514-0.9195
			c0.5486,0.9538,1.5868,1.5181,2.6855,1.4595c1.0509,0,1.6201-0.3649,1.6201-0.9633s-0.9195-0.9195-2.0287-1.1092
			c-1.912-0.3503-3.5029-0.9341-3.5029-2.9191c0-1.985,1.4157-2.8315,3.605-2.8315C24.892,33.4861,26.3573,34.1641,27.2802,35.379z"
			/>
		<path class="st28" d="M30.2868,39.816h5.3711l0,0c0-0.1751,0-0.3941,0-0.613c0.176-1.9346-1.2498-3.6456-3.1844-3.8216
			c-0.203-0.0185-0.4072-0.0193-0.6104-0.0023c-2.0611-0.1004-3.8133,1.489-3.9137,3.5502
			c-0.0066,0.135-0.0058,0.2703,0.0022,0.4052c-0.0914,2.0292,1.4795,3.7484,3.5089,3.8397
			c0.2223,0.0101,0.445-0.0001,0.6654-0.0304c1.3353,0.0362,2.6237-0.4939,3.5467-1.4595l-1.372-1.2698
			c-0.5294,0.5724-1.2784,0.8912-2.0579,0.8757C31.1042,41.3339,30.3598,40.8668,30.2868,39.816z M31.9507,36.8969
			c0.8003-0.0968,1.5274,0.4736,1.6242,1.2737c0.0074,0.0617,0.0109,0.1238,0.0105,0.1858h-3.2839
			c0.0698-0.8436,0.8048-1.4746,1.6493-1.4157V36.8969z"/>
		<path class="st28" d="M36.665,42.9832V33h2.1455v9.9832H36.665z"/>
		<path class="st28" d="M42.0944,39.816h5.3711c-0.007-0.0826-0.007-0.1655,0-0.2481c0-0.1314,0-0.2627,0-0.4087
			c0.176-1.9346-1.2498-3.6456-3.1844-3.8216c-0.203-0.0185-0.4072-0.0193-0.6104-0.0023c-2.0692-0.1-3.8276,1.4965-3.9276,3.5656
			c-0.0063,0.1298-0.0058,0.2599,0.0015,0.3897c-0.1079,2.0285,1.449,3.7603,3.4775,3.8682c0.1934,0.0102,0.3874,0.0053,0.58-0.015
			c1.3393,0.0349,2.6317-0.4948,3.5613-1.4595l-1.372-1.2698c-0.5294,0.5724-1.2784,0.8912-2.0579,0.8757
			C42.9118,41.3339,42.1674,40.8668,42.0944,39.816z M43.7583,36.8969c0.8003-0.0968,1.5274,0.4736,1.6242,1.2737
			c0.0074,0.0616,0.0109,0.1236,0.0105,0.1858H42.109c0.0685-0.8516,0.8144-1.4867,1.6661-1.4181
			c0.0091,0.0007,0.018,0.0015,0.027,0.0023L43.7583,36.8969z"/>
		<path class="st28" d="M55.1572,41.3485c-0.6749,1.165-1.9385,1.8615-3.2839,1.8098c-2.0369,0.0995-3.7689-1.4711-3.8685-3.508
			c-0.0061-0.1248-0.0058-0.2497,0.0007-0.3744c-0.114-2.0524,1.4573-3.8085,3.5097-3.9225
			c0.1095-0.0061,0.2192-0.0073,0.3288-0.0037c1.3785-0.046,2.6632,0.6955,3.3131,1.912l-1.6347,0.9779
			c-0.2637-0.6394-0.8846-1.059-1.5763-1.0655c-1.0655,0-1.6931,0.8757-1.6931,2.0871s0.6568,2.0871,1.7514,2.0871
			c0.6835-0.0156,1.3018-0.4091,1.6055-1.0217L55.1572,41.3485z"/>
		<path class="st28" d="M61.1267,42.4869c-0.5953,0.451-1.3257,0.6876-2.0725,0.6714c-0.8172,0.0619-1.6113-0.2887-2.1163-0.9341
			c-0.3309-0.5105-0.4847-1.1157-0.4379-1.7222v-3.3715h-1.1676v-1.6201H56.5v-1.839h2.1601v1.839h2.1163v1.6201h-2.1163v3.3715
			c0,0.5838,0.3065,0.7881,0.759,0.7881c0.3326,0.0028,0.6546-0.1168,0.9049-0.3357L61.1267,42.4869z"/>
	</g>
</g>
</svg>
