<svg xmlns="http://www.w3.org/2000/svg" viewBox="0 0 54.8 29.57"><defs><style>.cls-1{fill:#8d2969;}.cls-2{fill:#e21c3d;}.cls-3{fill:#c92030;}.cls-4{fill:#db1e3c;}.cls-5{fill:#d2202e;}.cls-6{fill:#a62738;}.cls-7{fill:#c42039;}.cls-8{fill:#da1e34;}.cls-9{fill:#a42360;}.cls-10{fill:#b42d84;}.cls-11{fill:#a52847;}.cls-12{fill:#8d2869;}.cls-13{fill:#9d2367;}.cls-14{fill:#ae235f;}.cls-15{fill:#662c82;}.cls-16{fill:#6b4a97;}.cls-17{fill:#5b2a75;}.cls-18{fill:#454084;}.cls-19{fill:#6f2260;}.cls-20{fill:#623482;}.cls-21{fill:#17457a;}.cls-22{fill:#36568e;}.cls-23{fill:#045da8;}.cls-24{fill:#2673b1;}.cls-25{fill:#0d4f90;}.cls-26{fill:#1a478b;}.cls-27{fill:#263878;}.cls-28{fill:#fff;}.cls-28,.cls-30{fill-rule:evenodd;}.cls-29,.cls-30{fill:#4e4e50;}</style></defs><title>npower</title><g id="Layer_2" data-name="Layer 2"><g id="Layer_1-2" data-name="Layer 1"><path class="cls-1" d="M0,9a9,9,0,0,0,9,9.05H45.75A9,9,0,1,0,45.75,0H9A9,9,0,0,0,0,9Z"/><path class="cls-2" d="M.79,5.35A9,9,0,0,0,3.51,16.2L6.28,7Z"/><path class="cls-3" d="M3.53,1.88A8.94,8.94,0,0,0,.79,5.35L6.28,7Z"/><path class="cls-4" d="M8.36,0A8.89,8.89,0,0,0,3.53,1.88L6.28,7Z"/><path class="cls-5" d="M3.51,16.2A9.09,9.09,0,0,0,9,18.09h3.21L6.28,7Z"/><path class="cls-6" d="M6.28,7l6,11.1h1.91l2.4-8L6.28,7Z"/><path class="cls-7" d="M16.56,10.08,11.14,0H9L8.36,0,6.28,7Z"/><path class="cls-8" d="M19.58,0H11.13l5.43,10.07L19.58,0Z"/><path class="cls-9" d="M14.16,18.09h6.71l-4.31-8-2.4,8Z"/><path class="cls-10" d="M16.56,10.07l4.31,8h4.49l1.48-4.93L16.56,10.07Z"/><path class="cls-11" d="M26.84,13.16,19.75,0h-.17l-3,10.07,10.28,3.09Z"/><path class="cls-12" d="M29.93,2.87,20.34,0h-.59l7.09,13.16L29.93,2.87Z"/><path class="cls-13" d="M28.38,0h-8l9.59,2.87L28.38,0Z"/><path class="cls-14" d="M30.79,0H28.38l1.55,2.87L30.79,0Z"/><path class="cls-15" d="M25.36,18.09h4.13l-2.65-4.93-1.48,4.93Z"/><path class="cls-16" d="M26.84,13.16l2.65,4.93h7.08l.55-1.85L26.84,13.16Z"/><path class="cls-17" d="M26.84,13.16l10.28,3.08L29.93,2.87,26.84,13.16Z"/><path class="cls-18" d="M37.12,16.24,40.21,6,29.93,2.87l7.19,13.37Z"/><path class="cls-19" d="M40.21,6,37,0H30.79l-.86,2.87L40.21,6Z"/><path class="cls-20" d="M42,0H37l3.21,6L42,0Z"/><path class="cls-18" d="M36.57,18.09h1.55l-1-1.85-.55,1.85Z"/><path class="cls-21" d="M38.12,18.09h5.14l-6.14-1.85,1,1.85Z"/><path class="cls-22" d="M37.12,16.25l6.14,1.84h2.49c.32,0,.64,0,1-.05L40.21,6Z"/><path class="cls-23" d="M40.21,6,46.71,18a8.92,8.92,0,0,0,1.15-.2L50.5,9.05Z"/><path class="cls-24" d="M50.49,9,45.62,0H42L40.21,6,50.49,9Z"/><path class="cls-25" d="M52.35,2.86A9,9,0,0,0,45.75,0h-.13l4.87,9Z"/><path class="cls-26" d="M47.86,17.84a9.08,9.08,0,0,0,5.37-3.71L50.49,9Z"/><path class="cls-25" d="M53.23,14.13a9,9,0,0,0,1.47-3.82L50.49,9.05Z"/><path class="cls-27" d="M50.5,9.05l4.21,1.26a9,9,0,0,0-2.36-7.45Z"/><path class="cls-28" d="M34.39,9.58V6.68a.76.76,0,0,1,.75-.75h.61a.19.19,0,0,1,.19.19V9.55a2.45,2.45,0,0,1-2.57,2.61,2.81,2.81,0,0,1-1.94-.78,2.78,2.78,0,0,1-1.92.78,2.46,2.46,0,0,1-2.6-2.61V6.68a.75.75,0,0,1,.75-.75h.61a.19.19,0,0,1,.19.19V9.57a1.09,1.09,0,0,0,2.18,0V6.68a.76.76,0,0,1,.76-.75H32a.19.19,0,0,1,.19.19V9.56a1,1,0,0,0,1.09,1.08,1,1,0,0,0,1.09-1.06Zm9.16,1.82V8.53A2.44,2.44,0,0,1,46,5.94H48.7a.18.18,0,0,1,.18.18V6.7a.75.75,0,0,1-.75.75h-2a1,1,0,0,0-1,1V12a.19.19,0,0,1-.19.19H44.3A.76.76,0,0,1,43.55,11.4ZM19.76,8.48V9.56a2.44,2.44,0,0,0,2.48,2.6H23.9a2.44,2.44,0,0,0,2.48-2.6V8.48A2.43,2.43,0,0,0,23.9,5.94H22.24A2.43,2.43,0,0,0,19.76,8.48ZM13.07,11.4h0V5.94h4a2.15,2.15,0,0,1,2.2,2.31,2.13,2.13,0,0,1-2.2,2.29H14.62V12a.18.18,0,0,1-.06.13.21.21,0,0,1-.13.05h-.61a.75.75,0,0,1-.53-.22A.71.71,0,0,1,13.07,11.4ZM5.81,8.53V11.4a.75.75,0,0,0,.75.75h.61A.19.19,0,0,0,7.36,12V8.53a1,1,0,0,1,1-1.08h2.35v4a.76.76,0,0,0,.75.76h.62a.2.2,0,0,0,.19-.19v-6h-4A2.43,2.43,0,0,0,5.81,8.53Zm30.69,1v-1A2.44,2.44,0,0,1,39,5.94h2a2,2,0,0,1,2,1.92,2,2,0,0,1-2,2h-3a.86.86,0,0,0,.94.74h3.64a.19.19,0,0,1,.19.18v.59a.75.75,0,0,1-.22.53.74.74,0,0,1-.53.21H39A2.44,2.44,0,0,1,36.5,9.56ZM38.06,8.4a.86.86,0,0,1,.93-1h2a.48.48,0,0,1,.42.47A.49.49,0,0,1,41,8.4Zm-15.72-1a1,1,0,0,0-1,1.08v1a1,1,0,0,0,1,1.08h1.47a1,1,0,0,0,1-1.08v-1a1,1,0,0,0-1-1.08ZM14.62,9V7.45h2.43a.72.72,0,0,1,.7.77.73.73,0,0,1-.7.79Z"/><path class="cls-29" d="M18.68,24.24,17.53,25A1.87,1.87,0,0,0,16,24.19c-.61,0-.93.19-.93.6s.62.57,1.31.69c1.34.24,2.47.64,2.47,2s-1,2.11-2.68,2.11a3.16,3.16,0,0,1-3-1.6l1.2-.63a2,2,0,0,0,1.84,1c.72,0,1.11-.25,1.11-.66s-.63-.63-1.39-.76c-1.31-.24-2.4-.64-2.4-2S14.5,23,16,23A3.15,3.15,0,0,1,18.68,24.24Z"/><path class="cls-30" d="M20.74,27.28h3.68v0c0-.12,0-.27,0-.42a2.41,2.41,0,0,0-2.6-2.62,2.56,2.56,0,0,0-2.68,2.71A2.52,2.52,0,0,0,22,29.56a3.24,3.24,0,0,0,2.43-1l-.94-.87a1.87,1.87,0,0,1-1.41.6C21.3,28.32,20.79,28,20.74,27.28Zm1.14-2a1,1,0,0,1,1.12,1H20.75A1.06,1.06,0,0,1,21.88,25.31Z"/><path class="cls-29" d="M25.11,29.45V22.61h1.47v6.84Z"/><path class="cls-30" d="M28.83,27.28h3.68a1,1,0,0,1,0-.17c0-.09,0-.18,0-.28a2.41,2.41,0,0,0-2.6-2.62,2.57,2.57,0,0,0-2.69,2.71A2.52,2.52,0,0,0,30,29.56a3.27,3.27,0,0,0,2.44-1l-.94-.87a1.87,1.87,0,0,1-1.41.6C29.39,28.32,28.88,28,28.83,27.28Zm1.14-2a1,1,0,0,1,1.12,1H28.84A1.06,1.06,0,0,1,30,25.31Z"/><path class="cls-29" d="M37.78,28.33a2.49,2.49,0,0,1-2.25,1.24,2.53,2.53,0,0,1-2.65-2.66,2.55,2.55,0,0,1,2.63-2.69,2.48,2.48,0,0,1,2.27,1.31l-1.12.67a1.18,1.18,0,0,0-1.08-.73c-.73,0-1.16.6-1.16,1.43s.45,1.43,1.2,1.43a1.26,1.26,0,0,0,1.1-.7Z"/><path class="cls-29" d="M41.87,29.11a2.27,2.27,0,0,1-1.42.46A1.68,1.68,0,0,1,39,28.93a1.9,1.9,0,0,1-.3-1.18V25.44h-.8V24.33h.8V23.07h1.48v1.26h1.45v1.11H40.18v2.31c0,.4.21.54.52.54a.93.93,0,0,0,.62-.23Z"/></g></g></svg>