<svg xmlns="http://www.w3.org/2000/svg" xmlns:xlink="http://www.w3.org/1999/xlink" viewBox="0 0 25.39 25.39"><defs><style>.cls-1{fill:none;stroke-linecap:round;stroke-linejoin:round;stroke-width:0.8px;stroke:url(#New_Gradient_Swatch_4);}.cls-2{fill:url(#New_Gradient_Swatch_4-2);}.cls-3{fill:url(#New_Gradient_Swatch_4-3);}.cls-4{fill:url(#New_Gradient_Swatch_4-4);}.cls-5{fill:url(#New_Gradient_Swatch_4-5);}.cls-6{fill:url(#New_Gradient_Swatch_4-6);}.cls-7{fill:url(#New_Gradient_Swatch_4-7);}.cls-8{fill:url(#New_Gradient_Swatch_4-8);}.cls-9{fill:url(#New_Gradient_Swatch_4-9);}.cls-10{fill:url(#New_Gradient_Swatch_4-10);}</style><linearGradient id="New_Gradient_Swatch_4" y1="12.69" x2="25.39" y2="12.69" gradientUnits="userSpaceOnUse"><stop offset="0" stop-color="#b33c8a"/><stop offset="1" stop-color="#ee4f86"/></linearGradient><linearGradient id="New_Gradient_Swatch_4-2" x1="6.81" y1="16.13" x2="14.2" y2="16.13" xlink:href="#New_Gradient_Swatch_4"/><linearGradient id="New_Gradient_Swatch_4-3" x1="12.24" y1="9" x2="18.58" y2="9" xlink:href="#New_Gradient_Swatch_4"/><linearGradient id="New_Gradient_Swatch_4-4" x1="7.91" y1="20.54" x2="8.56" y2="20.54" xlink:href="#New_Gradient_Swatch_4"/><linearGradient id="New_Gradient_Swatch_4-5" x1="15.16" y1="6.7" x2="15.39" y2="6.7" xlink:href="#New_Gradient_Swatch_4"/><linearGradient id="New_Gradient_Swatch_4-6" x1="6.82" y1="18.97" x2="7.04" y2="18.97" xlink:href="#New_Gradient_Swatch_4"/><linearGradient id="New_Gradient_Swatch_4-7" x1="13.6" y1="12.57" x2="13.77" y2="12.57" xlink:href="#New_Gradient_Swatch_4"/><linearGradient id="New_Gradient_Swatch_4-8" x1="14.81" y1="7.47" x2="15.03" y2="7.47" xlink:href="#New_Gradient_Swatch_4"/><linearGradient id="New_Gradient_Swatch_4-9" x1="15.88" y1="8.41" x2="16.06" y2="8.41" xlink:href="#New_Gradient_Swatch_4"/><linearGradient id="New_Gradient_Swatch_4-10" x1="7.12" y1="18.39" x2="7.23" y2="18.39" xlink:href="#New_Gradient_Swatch_4"/></defs><title>nz</title><g id="Layer_2" data-name="Layer 2"><g id="Layer_1-2" data-name="Layer 1"><circle class="cls-1" cx="12.69" cy="12.69" r="12.29"/><g id="mEpzFM"><path class="cls-2" d="M11.3,13.94v-.15h.21c.06-.08.16-.11.21-.2l.09-.17s0,0,0,0,.09-.18.1-.27a2.38,2.38,0,0,0,0-.38.22.22,0,0,1,.13-.2.43.43,0,0,0,.1-.09l.17-.14s.09,0,.14-.05l-.09,0a.17.17,0,0,1,.18-.1l-.08.2a.38.38,0,0,0,.21.22l.12-.09,0,.09.07,0-.06.24,0,.11.06.1v.06l.11,0,.22-.23,0,0,.12-.13.07,0,.11-.05-.07,0c0-.07.1-.07.15-.13v.05l.12-.11,0,0h-.05l-.09.11-.08,0v.13l.05-.06h.07l-.09.14,0,0v.06l-.07,0c.07,0,.11,0,.13-.06l.17-.05c-.06-.05-.11,0-.16,0l0,0,.06-.08,0,0h0l0,0,0-.06v0h-.07l0-.07,0,0,0,0,0,0,.06,0,0,0,0,.05c.05,0,.06,0,.1,0l-.07.15-.07,0,0,.1c-.07.07-.18,0-.26.12h.09l.1-.06,0,0A.18.18,0,0,1,14.2,13v0l-.13.05,0,0c0,.08,0,.09-.14.12l-.08.1,0,.1.1.08,0,.19h.08l-.09.14h0l-.19.19a.45.45,0,0,0-.06.12s0,.07,0,.11-.21.15-.23.3a.23.23,0,0,0-.18.16.74.74,0,0,1,0,.14c-.05.1-.09.19-.15.29a.44.44,0,0,1-.09.11l-.07,0,0,.05-.31.15c0,.09,0,.19-.07.29a.09.09,0,0,0,0,.07,1.59,1.59,0,0,0,.07.2l-.12.05,0,0,.11,0s.08,0,.09.07l0,0,.11,0,.08.09,0,.09-.08.07-.12,0-.15-.07a.14.14,0,0,0-.14,0c-.13,0-.26.07-.38.12a3.22,3.22,0,0,0-.69.41,1,1,0,0,0-.2.22v.1a.79.79,0,0,0-.05.53l-.07.2-.07,0-.11.19,0,0v.24l0,.12-.06.06,0,.07,0,0-.08.15.1,0s-.11.07-.12.14.1-.08.16-.12V19l-.07,0V19l-.06,0c-.11,0-.19,0-.27,0l-.09.14,0,.13-.11.06-.15.15-.1.05,0,.13-.1,0c0,.06-.07.07-.1.11H9.73L9.6,20l-.15,0,0,0v0l-.15,0-.14,0,0-.08H9l-.09,0h0l0,0c-.05.05-.11,0-.16,0l.07,0H8.7s0,0-.08,0V20s-.05,0-.07-.09l.12,0-.06-.13,0,.11c0-.05-.05-.12-.12-.15l-.13,0v.08l-.08,0,0,0h-.1L8,19.7v-.05a.37.37,0,0,0-.25-.16l-.1.06,0,.06s0,0-.06,0-.15.07-.22,0H7.07l0-.07.11-.14,0-.08h0l0,.08h0L7,19.46H7l0-.11.07,0H7l-.16.08a.69.69,0,0,1,0-.25l.16,0H7l.1-.05a.09.09,0,0,0,.11,0s.1,0,.1-.09l-.2,0v-.06l0-.06.1-.07s.1,0,.15,0H7.17L7,18.85c0-.08,0-.15,0-.22l.06,0,0,0,0-.09.1.05h0l.08,0a.1.1,0,0,1,.07,0l0,.08.06,0a.36.36,0,0,0-.15-.15s0,0,.11-.05l.1.05h0l-.08-.09-.14.05-.06-.12v-.07l.06-.12,0,0v-.06h.08l0-.05.17-.16,0,0v-.11h.08v-.05l0,0v0l.11-.09h0l0-.06.13.12s0-.06-.08-.11l0-.09c0-.07.06-.08.11-.11l.08-.12s.07,0,.09-.05l0,0a1,1,0,0,0,.25-.33.24.24,0,0,0,.21-.07.2.2,0,0,0,.27-.07L9,16.54a.28.28,0,0,0,.1-.09.38.38,0,0,1,.14-.11l.08-.06a.16.16,0,0,1,.09,0c.05,0,.09,0,.13-.06h0s0,0,0,0A.41.41,0,0,0,9.72,16a.18.18,0,0,1,.1-.09.28.28,0,0,0,.16-.12l.1-.12h.07s0,0,0,0a.07.07,0,0,1,.06-.09l0,0,.11-.08.13-.05.19-.17s.08-.1.12-.15a.43.43,0,0,1,.11-.12.7.7,0,0,0,.16-.36.4.4,0,0,0,.09-.24.35.35,0,0,1,.06-.22s0,0,0-.06l0-.11Z"/><path class="cls-3" d="M13.93,7H14l.13.16v.07h.08c0-.1,0-.21,0-.31l.08,0s0,0-.1,0l0,.14-.07,0,0,0h0l0-.11,0,0,.07,0c0-.07-.09-.08-.14-.12l0,0,.1.09,0,0c-.09,0-.12-.14-.22-.15s0,0,0,.08a.27.27,0,0,1,.1.13.23.23,0,0,0,0,.09l-.12,0s0,0,0-.07a.63.63,0,0,0-.14-.27l-.39-.5-.19-.23a.43.43,0,0,0,.06-.18h0l0,.15a4,4,0,0,1-.35-.44h.11a.18.18,0,0,0,0-.2L12.66,5l-.22-.29h0l-.19-.16,0-.06.15,0,.05,0,.21,0,0,0,0,.1-.07,0,0,0,0,0,0,0v.06a.53.53,0,0,0,.18.23c0,.08,0,.1.15.17l0,.1.06.05L13,5.17,13,5s.09,0,.15,0,0,0-.07.06l0,.09.13,0,0-.09.13.06h0l0,.07.11,0,.09.06,0,.08.12,0,.07,0-.06,0-.08,0c0,.06,0,.1.07.1l0,.16c.06,0,0-.06.05-.09h0l.15-.12c0,.09,0,.17,0,.22v.08l.07,0,.06.08,0,0,.09,0V6l0,0a.44.44,0,0,0,.1.26s-.06,0-.08,0a.18.18,0,0,0-.2-.07v.07c.06,0,.11,0,.16,0a.21.21,0,0,0,0,.25l.06,0,.12.21h0l.1.09,0,.06.07,0-.1,0,0,0v.06l0,0v.09s.06,0,.1,0l-.06,0,0,.2,0,0s.07,0,.12,0v.06s0,0,0-.06l.18.11.13,0,.07,0a.53.53,0,0,1,0,.25l.07.06a.23.23,0,0,0,.18-.05.44.44,0,0,1,0-.1.35.35,0,0,0-.08-.24l0,0,0,0,0-.14,0,0a.14.14,0,0,0-.1-.18V7.06l.05,0s0,.1.12.08l.08.16h0l0,0V7.4l.18-.07,0,0-.11.11,0,0h.07a1.55,1.55,0,0,1,0,.21v0c0,.1,0,.1,0,.18l0,0,0,0a.61.61,0,0,1,.09.43c0,.1.12.09.17.14h0l.05.08V8.55c.08,0,.1.07.16.1h.13l.09.06a.51.51,0,0,0,.29.13.43.43,0,0,1,.28.15l0,0,0-.06a.42.42,0,0,0,.39-.1c0-.06.14-.11.14-.19l.08-.08c.05,0,.12,0,.17-.08s.05,0,.08,0l0-.07h.2a.28.28,0,0,1,.1,0l.09.09c.07,0,.15,0,.19.09l-.06.1a.63.63,0,0,0-.12.23.35.35,0,0,1,0,.08l0,.07-.06.08,0,.05,0,.06a1,1,0,0,0,0,.16v.09s-.07.08,0,.12l-.16.16v0h-.05l0,.06-.1-.09,0,.11,0,.05c-.08.11,0,.25-.08.37l.09.07-.11.19,0-.12s0-.08,0-.12l-.13,0a1.09,1.09,0,0,0-.36,0,1.13,1.13,0,0,0-.24.08.3.3,0,0,0-.13.12.24.24,0,0,1-.08.09.23.23,0,0,0-.08.17l0,0v.09l.09.11H17c0,.06-.06.07-.07.12a.84.84,0,0,0,0,.12l-.1.23v.06c0,.11-.09.21-.22.24l-.07.29h-.06a1.12,1.12,0,0,0-.34.51.46.46,0,0,0-.14.22.75.75,0,0,1-.07.12c0,.06-.09.09-.14.14s0,.07-.08.1l-.07,0-.18.14-.11.06h0l-.15.08h-.06a.33.33,0,0,1,0-.22l-.16-.08-.14.09-.07-.1.06-.15h-.09l0,0,.06.06-.06.07-.11,0,0-.08v-.05l.08,0c0-.12.07-.14.15-.15s0-.06,0-.07l.1-.11,0-.1.07-.06,0-.07,0-.05c.06,0,.07-.08.09-.13a.76.76,0,0,0,0-.11.43.43,0,0,1,0-.11s0,0,0-.07,0-.16,0-.24a.13.13,0,0,0,0-.06.89.89,0,0,0-.31-.38.17.17,0,0,0-.18,0l-.07,0a.47.47,0,0,1-.31-.2A.31.31,0,0,0,14,11l-.23-.05-.18-.18a.23.23,0,0,1,0-.21l0-.09.21-.12a.67.67,0,0,0,.12-.06.16.16,0,0,1,.19,0h.06a1.37,1.37,0,0,0,.18-.16.36.36,0,0,0,.09-.23c0-.12,0-.25,0-.39l.07-.11a.46.46,0,0,0,0-.23l.08,0,.07.07c0-.06.06-.06,0-.13h-.08l0,0c-.05-.08,0-.16-.05-.24l.17,0,0-.08h0s0,.07-.08.06-.06-.2-.1-.3a2.55,2.55,0,0,0-.22-.54l0-.09h.12s0,.07,0,.1l0,.1,0-.1s0,0,.08,0,.05,0,.07,0-.08-.09-.18-.08h-.13l-.08,0a.73.73,0,0,1-.11-.29.36.36,0,0,0,0-.09L14,7.11A.11.11,0,0,1,13.93,7Z"/><path class="cls-4" d="M8.56,20.54v.08c-.05,0-.1.09-.19.06l-.09.09H8.09L8,20.85v0l-.09,0v-.08L8,20.78v-.11l0-.07h.06v-.09l.07,0v-.11l0-.06V20.2l.06,0h.16a.3.3,0,0,0,.15.18s0,0,0,0H8.35l0,.08h0l.06-.05.11.05S8.53,20.48,8.56,20.54Z"/><path class="cls-5" d="M15.39,6.89h-.06l0,0,0,0,0-.07-.1,0,0-.13v0l.05,0,0,.12.05,0v.09A.14.14,0,0,1,15.39,6.89Z"/><path class="cls-6" d="M7,19l-.1,0,0-.1L6.82,19a.19.19,0,0,1,.07-.14H7Z"/><path class="cls-7" d="M13.61,12.7v-.08l0,0c0-.08,0-.08,0-.13l0,.08.06-.11C13.78,12.56,13.7,12.62,13.61,12.7Z"/><path class="cls-8" d="M15,7.4h0l0,.15c-.06,0,0-.06,0-.08s-.12,0-.18,0,.08,0,.12,0l.09,0Z"/><path class="cls-9" d="M15.93,8.46v0l-.06-.1h0s0,.07.07.09l.1.09s0,0,0,0Z"/><path class="cls-10" d="M7.21,18.48l-.09-.06,0-.12.07.16Z"/></g></g></g></svg>