<?xml version="1.0" encoding="utf-8"?>
<!-- Generator: Adobe Illustrator 22.1.0, SVG Export Plug-In . SVG Version: 6.00 Build 0)  -->
<svg version="1.1" id="Layer_1" xmlns="http://www.w3.org/2000/svg" xmlns:xlink="http://www.w3.org/1999/xlink" x="0px" y="0px"
	 width="25.39px" height="25.39px" viewBox="0 0 25.39 25.39" style="enable-background:new 0 0 25.39 25.39;" xml:space="preserve"
	>
<style type="text/css">
	.st0{fill:none;stroke:url(#SVGID_1_);stroke-width:0.8;stroke-linecap:round;stroke-linejoin:round;}
	.st1{fill:url(#SVGID_2_);}
	.st2{fill:url(#SVGID_3_);}
	.st3{fill:url(#SVGID_4_);}
	.st4{fill:url(#SVGID_5_);}
	.st5{fill:url(#SVGID_6_);}
	.st6{fill:url(#SVGID_7_);}
	.st7{fill:url(#SVGID_8_);}
	.st8{fill:url(#SVGID_9_);}
	.st9{fill:url(#SVGID_10_);}
</style>
<title>nz</title>
<g id="Layer_2_1_">
	<g id="Layer_1-2">
		
			<linearGradient id="SVGID_1_" gradientUnits="userSpaceOnUse" x1="-3.874302e-07" y1="200.69" x2="25.38" y2="200.69" gradientTransform="matrix(1 0 0 1 0 -188)">
			<stop  offset="0" style="stop-color:#B33C8A"/>
			<stop  offset="1" style="stop-color:#EE4F86"/>
		</linearGradient>
		<circle class="st0" cx="12.69" cy="12.69" r="12.29"/>
		<g id="mEpzFM">
			
				<linearGradient id="SVGID_2_" gradientUnits="userSpaceOnUse" x1="6.81" y1="204.0941" x2="14.2" y2="204.0941" gradientTransform="matrix(1 0 0 1 0 -188)">
				<stop  offset="0" style="stop-color:#B33C8A"/>
				<stop  offset="1" style="stop-color:#EE4F86"/>
			</linearGradient>
			<path class="st1" d="M11.3,13.94v-0.15h0.21c0.06-0.08,0.16-0.11,0.21-0.2l0.09-0.17l0,0c0,0,0.09-0.18,0.1-0.27
				c0.0101-0.1265,0.0101-0.2535,0-0.38c0.0003-0.0864,0.0511-0.1646,0.13-0.2c0.0378-0.0246,0.0716-0.0549,0.1-0.09l0.17-0.14
				c0,0,0.09,0,0.14-0.05h-0.09c0.0307-0.07,0.1043-0.1109,0.18-0.1l-0.08,0.2c0.0363,0.0994,0.1124,0.1791,0.21,0.22l0.12-0.09
				v0.09h0.07l-0.06,0.24v0.11l0.06,0.1v0.06h0.11l0.22-0.23l0,0l0.12-0.13h0.07l0.11-0.05h-0.07c0-0.07,0.1-0.07,0.15-0.13v0.05
				l0.12-0.11l0,0h-0.05l-0.09,0.11h-0.08v0.13l0.05-0.06h0.07l-0.09,0.14l0,0v0.06h-0.07c0.07,0,0.11,0,0.13-0.06l0.17-0.05
				c-0.06-0.05-0.11,0-0.16,0l0,0l0.06-0.08l0,0l0,0l0,0v-0.06l0,0h-0.07v-0.07l0,0l0,0l0,0h0.06l0,0v0.05c0.05,0,0.06,0,0.1,0
				l-0.07,0.15h-0.07v0.1c-0.07,0.07-0.18,0-0.26,0.12h0.09l0.1-0.06l0,0c0.0166-0.1905,0.1845-0.3316,0.375-0.315
				S14.2166,12.8095,14.2,13l0,0l-0.13,0.05l0,0c0,0.08,0,0.09-0.14,0.12l-0.08,0.1v0.1l0.1,0.08v0.19h0.08l-0.09,0.14l0,0
				l-0.19,0.19c-0.0259,0.0368-0.0461,0.0772-0.06,0.12c0,0,0,0.07,0,0.11s-0.21,0.15-0.23,0.3
				c-0.0854,0.0151-0.1549,0.077-0.18,0.16c0.0044,0.0466,0.0044,0.0934,0,0.14c-0.05,0.1-0.09,0.19-0.15,0.29
				c-0.0238,0.0413-0.0542,0.0785-0.09,0.11h-0.07v0.05l-0.31,0.15c0,0.09,0,0.19-0.07,0.29c-0.0094,0.0224-0.0094,0.0476,0,0.07
				c0.0189,0.0681,0.0422,0.135,0.07,0.2l-0.12,0.05l0,0h0.11c0,0,0.08,0,0.09,0.07l0,0h0.11l0.08,0.09v0.09l-0.08,0.07h-0.12
				l-0.15-0.07c-0.0433-0.025-0.0967-0.025-0.14,0c-0.13,0-0.26,0.07-0.38,0.12c-0.2462,0.1074-0.478,0.2451-0.69,0.41
				c-0.0773,0.063-0.1447,0.1371-0.2,0.22v0.1c-0.0775,0.1656-0.0952,0.3529-0.05,0.53l-0.07,0.2h-0.07l-0.11,0.19l0,0v0.24v0.12
				l-0.06,0.06v0.07l0,0l-0.08,0.15h0.1c0,0-0.11,0.07-0.12,0.14s0.1-0.08,0.16-0.12V19H10.8l0,0h-0.06c-0.11,0-0.19,0-0.27,0
				l-0.09,0.14v0.13l-0.11,0.06l-0.15,0.15l-0.1,0.05v0.13h-0.1c0,0.06-0.07,0.07-0.1,0.11H9.73L9.6,20H9.45l0,0l0,0H9.3H9.16v-0.08
				H9H8.91l0,0l0,0c-0.05,0.05-0.11,0-0.16,0h0.07H8.7c0,0,0,0-0.08,0V20c0,0-0.05,0-0.07-0.09h0.12l-0.06-0.13v0.11
				c0-0.05-0.05-0.12-0.12-0.15H8.36v0.08H8.28l0,0h-0.1L8,19.7v-0.05c-0.0574-0.0859-0.148-0.1439-0.25-0.16l-0.1,0.06v0.06
				c0,0,0,0-0.06,0s-0.15,0.07-0.22,0h-0.3v-0.07l0.11-0.14v-0.08l0,0v0.08l0,0L7,19.46l0,0v-0.11h0.07H7l-0.16,0.08
				c-0.0152-0.0826-0.0152-0.1674,0-0.25H7l0,0l0.1-0.05c0.0324,0.025,0.0776,0.025,0.11,0c0,0,0.1,0,0.1-0.09h-0.2v-0.06v-0.06
				l0.1-0.07c0,0,0.1,0,0.15,0H7.17H7c0-0.08,0-0.15,0-0.22h0.06l0,0v-0.09l0.1,0.05l0,0h0.08c0.0226-0.0084,0.0474-0.0084,0.07,0
				v0.08h0.06c-0.0338-0.0639-0.0861-0.1162-0.15-0.15c0,0,0,0,0.11-0.05l0.1,0.05l0,0l-0.08-0.09l-0.14,0.05l-0.06-0.12v-0.07
				l0.06-0.12l0,0v-0.06h0.08v-0.05l0.17-0.16l0,0v-0.11h0.08v-0.05l0,0l0,0l0.11-0.09l0,0v-0.06l0.13,0.12c0,0,0-0.06-0.08-0.11
				v-0.09c0-0.07,0.06-0.08,0.11-0.11l0.08-0.12c0,0,0.07,0,0.09-0.05l0,0c0.1054-0.0914,0.1906-0.2038,0.25-0.33
				c0.0772,0.0123,0.1556-0.0139,0.21-0.07c0.0941,0.0536,0.2138,0.0226,0.27-0.07L9,16.54c0.0402-0.0214,0.0745-0.0523,0.1-0.09
				c0.0373-0.0472,0.0853-0.0849,0.14-0.11l0.08-0.06c0.0294-0.0086,0.0606-0.0086,0.09,0c0.05,0,0.09,0,0.13-0.06l0,0l0,0
				c0.0843-0.0495,0.1482-0.1276,0.18-0.22c0.0204-0.0418,0.0563-0.0741,0.1-0.09c0.0663-0.0189,0.1233-0.0617,0.16-0.12l0.1-0.12
				h0.07l0,0c-0.0112-0.037,0.0096-0.0761,0.0466-0.0873c0.0044-0.0013,0.0088-0.0022,0.0134-0.0027l0,0l0.11-0.08l0.13-0.05
				l0.19-0.17c0,0,0.08-0.1,0.12-0.15c0.0287-0.0466,0.066-0.0874,0.11-0.12c0.0867-0.1022,0.1422-0.2272,0.16-0.36
				c0.0555-0.068,0.0871-0.1523,0.09-0.24c-0.0051-0.078,0.016-0.1554,0.06-0.22c0,0,0,0,0-0.06v-0.11L11.3,13.94z"/>
			
				<linearGradient id="SVGID_3_" gradientUnits="userSpaceOnUse" x1="12.24" y1="196.945" x2="18.58" y2="196.945" gradientTransform="matrix(1 0 0 1 0 -188)">
				<stop  offset="0" style="stop-color:#B33C8A"/>
				<stop  offset="1" style="stop-color:#EE4F86"/>
			</linearGradient>
			<path class="st2" d="M13.93,7H14l0.13,0.16v0.07h0.08c0-0.1,0-0.21,0-0.31h0.08c0,0,0,0-0.1,0v0.14h-0.07l0,0l0,0V6.95l0,0h0.07
				c0-0.07-0.09-0.08-0.14-0.12l0,0l0.1,0.09l0,0c-0.09,0-0.12-0.14-0.22-0.15s0,0,0,0.08c0.046,0.0319,0.081,0.0773,0.1,0.13
				c-0.0059,0.0297-0.0059,0.0603,0,0.09h-0.12c0,0,0,0,0-0.07c-0.0239-0.1001-0.072-0.1928-0.14-0.27l-0.39-0.5L13.19,6
				c0.0332-0.0548,0.0537-0.1163,0.06-0.18l0,0v0.15c-0.1268-0.1383-0.2438-0.2853-0.35-0.44h0.11
				c0.0404-0.0605,0.0404-0.1395,0-0.2L12.66,5l-0.22-0.29l0,0l-0.19-0.16V4.49h0.15h0.05h0.21l0,0v0.1h-0.07l0,0l0,0l0,0v0.06
				c0.0373,0.092,0.0996,0.1717,0.18,0.23c0,0.08,0,0.1,0.15,0.17v0.1l0.06,0.05L13,5.17V5c0,0,0.09,0,0.15,0s0,0-0.07,0.06v0.09
				h0.13V5.06l0.13,0.06l0,0v0.07h0.11l0.09,0.06v0.08h0.12h0.07h-0.06h-0.08c0,0.06,0,0.1,0.07,0.1v0.16c0.06,0,0-0.06,0.05-0.09
				l0,0l0.15-0.12c0,0.09,0,0.17,0,0.22v0.08h0.07l0.06,0.08l0,0h0.09V6l0,0c0.0043,0.0952,0.0394,0.1865,0.1,0.26
				c0,0-0.06,0-0.08,0c-0.0444-0.0643-0.1252-0.0925-0.2-0.07v0.07c0.06,0,0.11,0,0.16,0c-0.055,0.0743-0.055,0.1757,0,0.25h0.06
				l0.12,0.21l0,0l0.1,0.09v0.06h0.07h-0.1l0,0v0.06l0,0v0.09c0,0,0.06,0,0.1,0h-0.06v0.2l0,0c0,0,0.07,0,0.12,0v0.06
				c0,0,0,0,0-0.06l0.18,0.11h0.13h0.07c0.0199,0.0821,0.0199,0.1679,0,0.25l0.07,0.06c0.0644,0.0095,0.1298-0.0086,0.18-0.05
				c-0.0038-0.0332-0.0038-0.0668,0-0.1c0.0042-0.0872-0.0243-0.1728-0.08-0.24l0,0l0,0V7.11l0,0
				c0.0243-0.0734-0.0156-0.1526-0.089-0.1769C14.9274,6.9319,14.9237,6.9309,14.92,6.93v0.13h0.05c0,0,0,0.1,0.12,0.08l0.08,0.16
				l0,0l0,0v0.1l0.18-0.07l0,0l-0.11,0.11l0,0h0.07c0.0047,0.0699,0.0047,0.1401,0,0.21l0,0c0,0.1,0,0.1,0,0.18l0,0l0,0
				c0.0824,0.1272,0.1144,0.2805,0.09,0.43c0,0.1,0.12,0.09,0.17,0.14l0,0l0.05,0.08v0.07c0.08,0,0.1,0.07,0.16,0.1h0.13L16,8.71
				c0.0804,0.0731,0.182,0.1187,0.29,0.13c0.1091,0.0124,0.2092,0.0661,0.28,0.15l0,0V8.93c0.1385,0.0352,0.2855-0.0025,0.39-0.1
				c0-0.06,0.14-0.11,0.14-0.19l0.08-0.08c0.05,0,0.12,0,0.17-0.08s0.05,0,0.08,0V8.41h0.2c0.0331-0.006,0.0669-0.006,0.1,0
				l0.09,0.09c0.07,0,0.15,0,0.19,0.09l-0.06,0.1c-0.0555,0.0675-0.0964,0.1458-0.12,0.23c0.0031,0.0266,0.0031,0.0534,0,0.08v0.07
				l-0.06,0.08V9.2v0.06c-0.0043,0.0532-0.0043,0.1068,0,0.16v0.09c0,0-0.07,0.08,0,0.12l-0.16,0.16l0,0h-0.05v0.06l-0.1-0.09v0.11
				v0.05c-0.08,0.11,0,0.25-0.08,0.37l0.09,0.07l-0.11,0.19v-0.12c0,0,0-0.08,0-0.12h-0.13c-0.1192-0.02-0.2408-0.02-0.36,0
				c-0.0827,0.0176-0.1632,0.0444-0.24,0.08c-0.0544,0.026-0.0997,0.0678-0.13,0.12c-0.0186,0.0363-0.0461,0.0673-0.08,0.09
				c-0.0497,0.0427-0.0787,0.1045-0.08,0.17l0,0v0.09l0.09,0.11H17c0,0.06-0.06,0.07-0.07,0.12c-0.0029,0.0399-0.0029,0.0801,0,0.12
				l-0.1,0.23v0.06c0,0.11-0.09,0.21-0.22,0.24l-0.07,0.29h-0.06c-0.1586,0.1351-0.2763,0.3117-0.34,0.51
				c-0.0669,0.0583-0.1155,0.1347-0.14,0.22c-0.0196,0.0421-0.043,0.0823-0.07,0.12c0,0.06-0.09,0.09-0.14,0.14s0,0.07-0.08,0.1
				h-0.07l-0.18,0.14l-0.11,0.06l0,0L15.2,13.4h-0.06c-0.0252-0.0712-0.0252-0.1488,0-0.22l-0.16-0.08l-0.14,0.09l-0.07-0.1
				l0.06-0.15h-0.09l0,0L14.8,13l-0.06,0.07h-0.11v-0.08v-0.05h0.08c0-0.12,0.07-0.14,0.15-0.15s0-0.06,0-0.07l0.1-0.11v-0.1
				l0.07-0.06v-0.07v-0.05c0.06,0,0.07-0.08,0.09-0.13c0.0027-0.0366,0.0027-0.0734,0-0.11c-0.0047-0.0365-0.0047-0.0735,0-0.11
				c0,0,0,0,0-0.07s0-0.16,0-0.24c0.0047-0.0197,0.0047-0.0403,0-0.06c-0.0657-0.1532-0.1731-0.2849-0.31-0.38
				c-0.0551-0.0344-0.1249-0.0344-0.18,0h-0.07c-0.1263-0.0216-0.2382-0.0939-0.31-0.2C14.1747,10.9851,14.0838,10.9742,14,11
				l-0.23-0.05l-0.18-0.18c-0.0338-0.0659-0.0338-0.1441,0-0.21v-0.09l0.21-0.12c0.0419-0.0159,0.0821-0.036,0.12-0.06
				c0.0565-0.0417,0.1335-0.0417,0.19,0h0.06c0.0646-0.0479,0.1248-0.1015,0.18-0.16c0.0562-0.0637,0.0881-0.1451,0.09-0.23
				c0-0.12,0-0.25,0-0.39l0.07-0.11c0.0195-0.0754,0.0195-0.1546,0-0.23h0.08l0.07,0.07c0-0.06,0.06-0.06,0-0.13h-0.08l0,0
				c-0.05-0.08,0-0.16-0.05-0.24h0.17V8.79l0,0c0,0,0,0.07-0.08,0.06s-0.06-0.2-0.1-0.3c-0.0524-0.1878-0.1263-0.369-0.22-0.54V7.92
				h0.12c0,0,0,0.07,0,0.1v0.1v-0.1c0,0,0,0,0.08,0s0.05,0,0.07,0s-0.08-0.09-0.18-0.08h-0.13h-0.08
				c-0.057-0.0877-0.0945-0.1866-0.11-0.29c0.0038-0.0299,0.0038-0.0601,0-0.09L14,7.11C13.9551,7.0926,13.9267,7.048,13.93,7z"/>
			
				<linearGradient id="SVGID_4_" gradientUnits="userSpaceOnUse" x1="7.91" y1="208.525" x2="8.56" y2="208.525" gradientTransform="matrix(1 0 0 1 0 -188)">
				<stop  offset="0" style="stop-color:#B33C8A"/>
				<stop  offset="1" style="stop-color:#EE4F86"/>
			</linearGradient>
			<path class="st3" d="M8.56,20.54v0.08c-0.05,0-0.1,0.09-0.19,0.06l-0.09,0.09H8.09L8,20.85l0,0H7.91v-0.08L8,20.78v-0.11V20.6
				h0.06v-0.09h0.07V20.4v-0.06V20.2h0.06h0.16c0.0235,0.0779,0.0777,0.1428,0.15,0.18l0,0H8.35v0.08l0,0l0.06-0.05l0.11,0.05
				C8.52,20.46,8.53,20.48,8.56,20.54z"/>
			
				<linearGradient id="SVGID_5_" gradientUnits="userSpaceOnUse" x1="15.16" y1="194.795" x2="15.39" y2="194.795" gradientTransform="matrix(1 0 0 1 0 -188)">
				<stop  offset="0" style="stop-color:#B33C8A"/>
				<stop  offset="1" style="stop-color:#EE4F86"/>
			</linearGradient>
			<path class="st4" d="M15.39,6.89h-0.06l0,0l0,0V6.82h-0.1V6.69l0,0h0.05v0.12h0.05V6.9C15.349,6.8923,15.3695,6.8889,15.39,6.89z
				"/>
			
				<linearGradient id="SVGID_6_" gradientUnits="userSpaceOnUse" x1="6.82" y1="206.93" x2="7.04" y2="206.93" gradientTransform="matrix(1 0 0 1 0 -188)">
				<stop  offset="0" style="stop-color:#B33C8A"/>
				<stop  offset="1" style="stop-color:#EE4F86"/>
			</linearGradient>
			<path class="st5" d="M7,19H6.9v-0.1L6.82,19c0.0021-0.0546,0.0276-0.1056,0.07-0.14H7V19z"/>
			
				<linearGradient id="SVGID_7_" gradientUnits="userSpaceOnUse" x1="13.6" y1="200.58" x2="13.77" y2="200.58" gradientTransform="matrix(1 0 0 1 0 -188)">
				<stop  offset="0" style="stop-color:#B33C8A"/>
				<stop  offset="1" style="stop-color:#EE4F86"/>
			</linearGradient>
			<path class="st6" d="M13.61,12.7v-0.08l0,0c0-0.08,0-0.08,0-0.13v0.08l0.06-0.11C13.78,12.56,13.7,12.62,13.61,12.7z"/>
			
				<linearGradient id="SVGID_8_" gradientUnits="userSpaceOnUse" x1="14.81" y1="195.475" x2="15.03" y2="195.475" gradientTransform="matrix(1 0 0 1 0 -188)">
				<stop  offset="0" style="stop-color:#B33C8A"/>
				<stop  offset="1" style="stop-color:#EE4F86"/>
			</linearGradient>
			<path class="st7" d="M15,7.4L15,7.4v0.15c-0.06,0,0-0.06,0-0.08s-0.12,0-0.18,0s0.08,0,0.12,0h0.09L15,7.4z"/>
			
				<linearGradient id="SVGID_9_" gradientUnits="userSpaceOnUse" x1="15.88" y1="196.45" x2="16.06" y2="196.45" gradientTransform="matrix(1 0 0 1 0 -188)">
				<stop  offset="0" style="stop-color:#B33C8A"/>
				<stop  offset="1" style="stop-color:#EE4F86"/>
			</linearGradient>
			<path class="st8" d="M15.93,8.46L15.93,8.46l-0.06-0.1l0,0c0,0,0,0.07,0.07,0.09l0.1,0.09l0,0L15.93,8.46z"/>
			
				<linearGradient id="SVGID_10_" gradientUnits="userSpaceOnUse" x1="7.12" y1="206.39" x2="7.23" y2="206.39" gradientTransform="matrix(1 0 0 1 0 -188)">
				<stop  offset="0" style="stop-color:#B33C8A"/>
				<stop  offset="1" style="stop-color:#EE4F86"/>
			</linearGradient>
			<path class="st9" d="M7.21,18.48l-0.09-0.06V18.3l0.07,0.16L7.21,18.48z"/>
		</g>
	</g>
</g>
</svg>
