<svg xmlns="http://www.w3.org/2000/svg" viewBox="0 0 40.84 40.84"><defs><style>.cls-1{fill:#e4136a;fill-rule:evenodd;}</style></defs><title>powershop</title><g id="Layer_2" data-name="Layer 2"><g id="Layer_1-2" data-name="Layer 1"><path class="cls-1" d="M20.42,3.9A16.52,16.52,0,1,0,36.93,20.42,16.52,16.52,0,0,0,20.42,3.9ZM9.12,18.42a.8.8,0,0,1,0-1.13l6.37-6a.79.79,0,0,1,1.12,0l1.42,1.52A.81.81,0,0,1,18,14l-6.38,6a.79.79,0,0,1-1.12,0ZM29.58,27.9a11.45,11.45,0,0,1-9.16,4.34,11.42,11.42,0,0,1-9.19-4.38c-1-1.3-.39-1.71.24-2.22a1.51,1.51,0,0,1,2.21.23,8.67,8.67,0,0,0,13.46,0,1.51,1.51,0,0,1,2.22-.22C30,26.19,30.55,26.63,29.58,27.9Zm1.47-9.48L29.64,20a.79.79,0,0,1-1.12,0l-6.38-6a.8.8,0,0,1,0-1.13l1.42-1.52a.79.79,0,0,1,1.12,0l6.37,6A.8.8,0,0,1,31.05,18.42Z"/><path class="cls-1" d="M20.42,0A20.42,20.42,0,1,0,40.84,20.42,20.42,20.42,0,0,0,20.42,0Zm0,38.73A18.31,18.31,0,1,1,38.73,20.42,18.31,18.31,0,0,1,20.42,38.73Z"/></g></g></svg>