<?xml version="1.0" encoding="utf-8"?>
<!-- Generator: Adobe Illustrator 22.1.0, SVG Export Plug-In . SVG Version: 6.00 Build 0)  -->
<svg version="1.1" id="Layer_1" xmlns="http://www.w3.org/2000/svg" xmlns:xlink="http://www.w3.org/1999/xlink" x="0px" y="0px"
	 width="80px" height="80px" viewBox="0 0 80 80" style="enable-background:new 0 0 80 80;" xml:space="preserve">
<style type="text/css">
	.st0{fill:#E4136A;}
</style>
<title>powershop</title>
<g id="Layer_2_1_">
	<g id="Layer_1-2">
		<path class="st0" d="M40,7.6396C22.1279,7.6288,7.6308,22.1083,7.62,39.9804c-0.0108,17.8721,14.4688,32.3693,32.3408,32.38
			s32.3692-14.4688,32.38-32.3408c0-0.0065,0-0.0131,0-0.0196C72.3408,22.1356,57.8644,7.6503,40,7.6396z M17.8648,36.0823
			c-0.6102-0.6118-0.6102-1.6018,0-2.2135l12.478-11.7532c0.6027-0.6059,1.5826-0.6082,2.1884-0.0055
			c0.0018,0.0018,0.0037,0.0035,0.0055,0.0055l2.7816,2.9775c0.6288,0.6104,0.6435,1.6149,0.0331,2.2437
			c-0.0294,0.0304-0.0601,0.0595-0.0919,0.0874L22.762,39.1773c-0.6027,0.6059-1.5826,0.6082-2.1884,0.0055
			c-0.002-0.0018-0.0037-0.0037-0.0055-0.0055L17.8648,36.0823z M57.9432,54.6523C53.6106,60.1234,46.9781,63.2658,40,63.1538
			c-7.0139,0.1209-13.6786-3.0554-18.002-8.5798c-1.9589-2.5465-0.764-3.3497,0.4701-4.3487
			c1.2249-1.0809,3.094-0.9642,4.1749,0.2605c0.0541,0.0611,0.1054,0.1246,0.1542,0.19c5.9132,7.2809,16.6092,8.3894,23.8901,2.4762
			c0.9085-0.7379,1.7383-1.5677,2.4762-2.4762c0.9767-1.3095,2.83-1.5792,4.1395-0.6024c0.0723,0.0539,0.1422,0.1111,0.2092,0.1714
			C58.7659,51.3026,59.8433,52.1645,57.9432,54.6523z M60.8227,36.0823l-2.762,3.095c-0.6027,0.6059-1.5826,0.6082-2.1884,0.0055
			c-0.002-0.0018-0.0037-0.0037-0.0055-0.0055L43.3692,27.4241c-0.6102-0.6118-0.6102-1.6018,0-2.2135l2.7816-2.9775
			c0.6027-0.6059,1.5826-0.6082,2.1884-0.0055c0.0018,0.0018,0.0037,0.0035,0.0055,0.0055l12.478,11.7532
			C61.3587,34.5822,61.3587,35.4864,60.8227,36.0823z"/>
		<path class="st0" d="M40,0C17.9085,0,0,17.9085,0,40s17.9085,40,40,40s40-17.9085,40-40l0,0C80,17.9085,62.0915,0,40,0z
			 M40,75.8668C20.1914,75.8668,4.1332,59.8086,4.1332,40S20.1914,4.1332,40,4.1332S75.8668,20.1914,75.8668,40
			S59.8086,75.8668,40,75.8668L40,75.8668z"/>
	</g>
</g>
</svg>
