<?xml version="1.0" encoding="utf-8"?>
<!-- Generator: Adobe Illustrator 22.1.0, SVG Export Plug-In . SVG Version: 6.00 Build 0)  -->
<svg version="1.1" id="Layer_1" xmlns="http://www.w3.org/2000/svg" xmlns:xlink="http://www.w3.org/1999/xlink" x="0px" y="0px"
	 width="25.39px" height="25.39px" viewBox="0 0 25.39 25.39" style="enable-background:new 0 0 25.39 25.39;" xml:space="preserve"
	>
<style type="text/css">
	.st0{fill:none;stroke:url(#SVGID_1_);stroke-width:0.8;stroke-linecap:round;stroke-linejoin:round;}
	.st1{fill:url(#SVGID_2_);}
	.st2{fill:url(#SVGID_3_);}
	.st3{fill:url(#SVGID_4_);}
	.st4{fill:url(#SVGID_5_);}
	.st5{fill:url(#SVGID_6_);}
	.st6{fill:url(#SVGID_7_);}
	.st7{fill:url(#SVGID_8_);}
	.st8{fill:url(#SVGID_9_);}
</style>
<title>uk</title>
<g id="Layer_2_1_">
	<g id="Layer_1-2">
		
			<linearGradient id="SVGID_1_" gradientUnits="userSpaceOnUse" x1="-3.874302e-07" y1="15.31" x2="25.38" y2="15.31" gradientTransform="matrix(1 0 0 -1 0 28)">
			<stop  offset="0" style="stop-color:#B33C8A"/>
			<stop  offset="1" style="stop-color:#EE4F86"/>
		</linearGradient>
		<circle class="st0" cx="12.69" cy="12.69" r="12.29"/>
		<g id="k9rQ9f">
			
				<linearGradient id="SVGID_2_" gradientUnits="userSpaceOnUse" x1="9.43" y1="14.55" x2="17.14" y2="14.55" gradientTransform="matrix(1 0 0 -1 0 28)">
				<stop  offset="0" style="stop-color:#B33C8A"/>
				<stop  offset="1" style="stop-color:#EE4F86"/>
			</linearGradient>
			<path class="st1" d="M13.78,19.33H13.3c-0.23-0.23-0.52-0.2-0.84,0v0.27l-0.2,0.27l-0.33-0.19h-0.54L11,20l-0.08,0.21L10.69,20
				l-0.22,0.07c0,0,0-0.08,0-0.09c0.0226-0.0402,0.0577-0.0718,0.1-0.09c0.2427-0.1024,0.4314-0.3019,0.52-0.55
				c0.36-0.06,0.36-0.39,0.44-0.68h0.19c0-0.29,0.25-0.33,0.48-0.32s0.43,0,0.66,0.07v-0.2l0.44-0.47
				c-0.33,0.11-0.55,0.34-0.82,0.38l-0.41-0.28h-0.32v-0.18l-0.34-0.09l-0.28,0.19l-0.25-0.09c0.0099-0.0629,0.0099-0.1271,0-0.19
				c-0.0217-0.0669-0.052-0.1308-0.09-0.19c0.0249-0.0293,0.0555-0.0531,0.09-0.07c0.23-0.12,0.48-0.22,0.7-0.35
				c0.1233-0.0881,0.2372-0.1887,0.34-0.3c-0.15-0.23,0-0.51-0.19-0.77l-0.3,0.22h-0.14c-0.0089-0.0361-0.0089-0.0739,0-0.11
				l0.35-0.3c0-0.18-0.33-0.15-0.24-0.44l0.2-0.1l0.25,0.24c0.265-0.0738,0.545-0.0738,0.81,0l0.13-0.6l0,0l-0.06-0.32l0.14-0.07
				v-0.38l-0.24,0.19l-0.39-0.76l0.13-0.31l-0.11-0.07l0.2-0.24c-0.31,0.07-0.58,0.3-0.91,0.15v0.16L11.34,13l-0.22,0.18
				c0-0.18-0.25-0.25-0.22-0.46c0.27-0.24,0.3-0.6,0.49-0.89l-0.25-0.27v-0.3l-0.12,0.19l-0.25-0.22l0.1-0.32l-0.18,0.18l0.06,0.26
				l-0.18,0.77l-0.16,0.09c0-0.24,0.15-0.47-0.06-0.66h0.17c-0.08-0.2299-0.08-0.4801,0-0.71c0.0187-0.0688,0.0187-0.1412,0-0.21
				c0-0.11,0.19-0.17,0.09-0.33l0.17-0.24l0,0l-0.31,0.26v0.21l0,0l-0.52,0.12c0,0-0.05,0-0.07,0l0.33-0.25l-0.18-0.08v-0.21h0.22
				c0,0,0-0.07,0-0.09L9.94,9.9l0.41-0.16l-0.1-0.16l0.11-0.26h-0.2L10,9.18c-0.22,0-0.32-0.14-0.31-0.37L9.51,8.88L9.43,8.7
				l0.18-0.23l0.18,0.14c0,0,0,0,0-0.07V8.3l0.2,0.27L10,8.85l0.14-0.09v0.2h0.21c-0.0342-0.121-0.0576-0.2448-0.07-0.37
				c0.0181-0.1217,0.0449-0.242,0.08-0.36L10.3,8.05L10.47,8l0.4-0.07l-0.1-0.19v-0.4h0.18c-0.0148-0.206,0.0417-0.4107,0.16-0.58
				c0.0865,0.042,0.177,0.0755,0.27,0.1c0.08,0,0.18,0,0.2,0.07c0.1952-0.0261,0.3888-0.0628,0.58-0.11c0.13,0,0.29,0,0.41-0.09
				s0.17,0,0.26,0v0.42l-1,0.95h0.34c0,0.21-0.25,0.11-0.34,0.23l0.13,0.08l-0.12,0.17c0,0,0.07,0,0.08,0
				c0.1325-0.0778,0.2694-0.1479,0.41-0.21c0.2722-0.0979,0.5655-0.122,0.85-0.07c0.1113,0.0302,0.2287,0.0302,0.34,0
				c0.0855-0.02,0.1745-0.02,0.26,0c0.1534,0.0193,0.2621,0.1594,0.2428,0.3128C14.0175,8.6546,14.0029,8.6947,13.98,8.73
				c-0.1296,0.25-0.2367,0.511-0.32,0.78l-0.25,0.48v0.17l-0.16,0.16c-0.18,0-0.34-0.05-0.46,0.13H13l0.24,0.28l-0.63,0.4v0.06h0.26
				l0.29-0.15l0.45,0.23l0.48,0.57l0,0c-0.0048,0.0766-0.0048,0.1534,0,0.23c0,0.2,0.09,0.41,0.13,0.62l0,0
				c0.0414,0.3491,0.2782,0.644,0.61,0.76c0.11,0,0.19,0.19,0.27,0.3l0.14,0.19l0.13,0.17c-0.1,0.3,0.15,0.49,0.27,0.74
				c-0.22,0.06-0.35-0.22-0.59-0.1c0.3592,0.0968,0.6585,0.345,0.82,0.68c0.05,0.21-0.11,0.3-0.22,0.41s0,0.17,0.19,0.25l0.19-0.21
				h0.3c0.63,0,0.85,0.37,0.69,1c-0.042,0.1994-0.139,0.383-0.28,0.53c-0.0459,0.07-0.086,0.1435-0.12,0.22l-0.39,0.09l0.18,0.1
				c0,0.25-0.25,0.2-0.39,0.26l0.1,0.18l0.18-0.06c0.13,0.18,0.32,0.05,0.51,0.08l-0.05,0.29l-0.4,0.33l-0.69,0.25L15.32,19
				c-0.2894,0.1301-0.6206,0.1301-0.91,0l-0.11,0.12l0.35,0.11l-0.25,0.13l-0.26-0.18h-0.25L13.78,19.33z"/>
			
				<linearGradient id="SVGID_3_" gradientUnits="userSpaceOnUse" x1="8.25" y1="14.68" x2="10.64" y2="14.68" gradientTransform="matrix(1 0 0 -1 0 28)">
				<stop  offset="0" style="stop-color:#B33C8A"/>
				<stop  offset="1" style="stop-color:#EE4F86"/>
			</linearGradient>
			<path class="st2" d="M8.55,13.36l-0.11-0.19l0.29-0.06L9,12.63h0.27l0.07-0.16l0.5-0.13l0.21,0.11l0.4,0.68l-0.18,0.11l0,0h0.2
				c0.1128,0.079,0.1741,0.213,0.16,0.35l-0.23-0.14l0.16,0.33l-0.23,0.17l-0.19,0.35l-0.22-0.12H9.66
				C9.5833,14.1242,9.5098,14.0641,9.44,14c-0.0628-0.0841-0.1164-0.1746-0.16-0.27c-0.25,0-0.14,0.31-0.34,0.39
				c-0.36,0.08-0.5-0.25-0.69-0.46C8.26,13.41,8.46,13.46,8.55,13.36z"/>
			
				<linearGradient id="SVGID_4_" gradientUnits="userSpaceOnUse" x1="9.15" y1="20.44" x2="10.01" y2="20.44" gradientTransform="matrix(1 0 0 -1 0 28)">
				<stop  offset="0" style="stop-color:#B33C8A"/>
				<stop  offset="1" style="stop-color:#EE4F86"/>
			</linearGradient>
			<path class="st3" d="M9.46,7.23l0.47-0.32c0.08,0.18,0.08,0.18,0,0.45H10c-0.06,0.1-0.06,0.1-0.23,0.11v0.26L9.23,8.21L9.2,8
				l0.19-0.08L9.18,7.76c0-0.11-0.11-0.24,0-0.36h0.13L9.46,7.23z"/>
			
				<linearGradient id="SVGID_5_" gradientUnits="userSpaceOnUse" x1="14.07" y1="24.26" x2="14.73" y2="24.26" gradientTransform="matrix(1 0 0 -1 0 28)">
				<stop  offset="0" style="stop-color:#B33C8A"/>
				<stop  offset="1" style="stop-color:#EE4F86"/>
			</linearGradient>
			<path class="st4" d="M14.36,4.44l0.05-0.56h-0.19c0,0-0.17-0.07-0.15-0.23h0.17l0.08-0.22l-0.23-0.18l0.33-0.21v0.24l0.19,0.11
				c0.05,0,0.09,0.1,0.14,0.15l-0.2,0.25l0.12,0.14l-0.24,0.49L14.36,4.44z"/>
			
				<linearGradient id="SVGID_6_" gradientUnits="userSpaceOnUse" x1="9.71" y1="16.695" x2="10.38" y2="16.695" gradientTransform="matrix(1 0 0 -1 0 28)">
				<stop  offset="0" style="stop-color:#B33C8A"/>
				<stop  offset="1" style="stop-color:#EE4F86"/>
			</linearGradient>
			<path class="st5" d="M9.75,11.55v-0.13c0.15-0.17,0.15-0.17,0.36-0.11l0.28-0.47c0.0501,0.181,0.0006,0.375-0.13,0.51
				c-0.1,0.14-0.1,0.38-0.36,0.42v-0.24L9.75,11.55z"/>
			
				<linearGradient id="SVGID_7_" gradientUnits="userSpaceOnUse" x1="8.79" y1="19.1564" x2="9.15" y2="19.1564" gradientTransform="matrix(1 0 0 -1 0 28)">
				<stop  offset="0" style="stop-color:#B33C8A"/>
				<stop  offset="1" style="stop-color:#EE4F86"/>
			</linearGradient>
			<path class="st6" d="M9,9.37C8.8343,9.2043,8.8092,8.9444,8.94,8.75L8.8,8.45c0.07-0.13,0.18-0.14,0.36-0.13
				c-0.0546,0.1622-0.0915,0.3299-0.11,0.5C9.0611,9.0048,9.0442,9.1902,9,9.37z"/>
			
				<linearGradient id="SVGID_8_" gradientUnits="userSpaceOnUse" x1="12.55" y1="22" x2="13.09" y2="22" gradientTransform="matrix(1 0 0 -1 0 28)">
				<stop  offset="0" style="stop-color:#B33C8A"/>
				<stop  offset="1" style="stop-color:#EE4F86"/>
			</linearGradient>
			<path class="st7" d="M13,6.32V6.15c-0.1521,0.0527-0.3208,0.0182-0.44-0.09V5.83l0.34-0.15v0.37L13,5.93l0,0
				C13.06,6.08,13.17,6.21,13,6.32z"/>
			
				<linearGradient id="SVGID_9_" gradientUnits="userSpaceOnUse" x1="10.72" y1="16.23" x2="10.97" y2="16.23" gradientTransform="matrix(1 0 0 -1 0 28)">
				<stop  offset="0" style="stop-color:#B33C8A"/>
				<stop  offset="1" style="stop-color:#EE4F86"/>
			</linearGradient>
			<path class="st8" d="M10.94,12l-0.19-0.08c0-0.14-0.09-0.29,0.11-0.38C11,11.68,11,11.82,10.94,12z"/>
		</g>
	</g>
</g>
</svg>
