<?xml version="1.0" encoding="utf-8"?>
<!-- Generator: Adobe Illustrator 22.1.0, SVG Export Plug-In . SVG Version: 6.00 Build 0)  -->
<svg version="1.1" id="Layer_1" xmlns="http://www.w3.org/2000/svg" xmlns:xlink="http://www.w3.org/1999/xlink" x="0px" y="0px"
	 width="80px" height="72px" viewBox="0 0 80 72" style="enable-background:new 0 0 80 72;" xml:space="preserve">
<style type="text/css">
	.st0{fill:#F7B916;}
	.st1{fill:#FFFFFF;}
	.st2{fill:#010101;}
	.st3{fill:#99969B;}
</style>
<title>we</title>
<g id="Layer_2_1_">
	<g id="Layer_1-2">
		<path class="st0" d="M0.3658,38.2655c1.5753-10.0297,18.7641-15.5784,38.3684-12.4802S72.9191,39.4908,71.3087,49.503
			c-1.6104,10.0122-18.7991,15.5784-38.3508,12.4802C13.4061,58.885-1.1921,48.2777,0.3658,38.2655z"/>
		<path class="st1" d="M43.7577,63.121c-3.5925-0.0161-7.1787-0.2969-10.7298-0.8402c-8.7563-1.1924-17.1187-4.3912-24.4353-9.347
			c-6.2314-4.5335-9.242-9.7496-8.4718-14.7207s5.2511-8.9445,12.6027-11.325c8.4643-2.4348,17.3732-2.9018,26.0457-1.3653
			c8.7204,1.2265,17.0468,4.423,24.3478,9.347c6.2489,4.5335,9.2595,9.7496,8.4893,14.7207s-5.2511,8.997-12.6027,11.36
			C54.0627,62.4502,48.9208,63.1822,43.7577,63.121z M0.3658,38.2655h0.2626c-0.7702,4.7085,2.153,9.7671,8.2618,14.1781
			c7.2368,4.8853,15.5028,8.036,24.1553,9.207c8.5833,1.5284,17.4026,1.0733,25.7831-1.3303
			c7.1416-2.328,11.5-6.1788,12.2527-10.9399c1.5578-9.8371-12.9878-20.3569-32.3821-23.4201
			c-8.5879-1.5337-17.4128-1.0847-25.8006,1.3128C5.7219,29.7587,1.381,33.592,0.6283,38.3006L0.3658,38.2655z"/>
		<path class="st2" d="M79.623,14.1978c-0.8052-6.1963-8.7519-2.6256-8.7519-2.6256c-0.0726-2.5627,0.2885-5.1192,1.0677-7.5616
			c2.0829-7.8067-9.8897-1.9079-17.2238,3.9909S41.1846,25.8203,41.1846,25.8203s-5.8288-3.6933-10.5023-2.8881
			c-0.3851,0.0875-0.0875-4.656-5.8113-4.656c-1.0802,0.1661-2.1454,0.4178-3.1857,0.7527
			c-1.0994-1.5795-2.8894-2.5365-4.8135-2.5731c-2.247,0.1061-4.3555,1.1162-5.8463,2.8006c0,0-0.5601,1.0152,0.6651,0.6301
			s4.6385-4.1309,8.4893-0.21h-0.1225c-0.6541-0.4812-1.446-0.739-2.258-0.7352c-2.0679,0.0235-4.0331,0.9046-5.4262,2.433
			c-0.3326,0.6301,0.175,1.1027,1.0152,0.7177c1.4168-1.2162,3.3199-1.7017,5.1461-1.3128
			c-1.0669,0.9526-1.6989,2.299-1.7504,3.7283c0,4.5335,6.739,4.8311,6.739,4.8311c1.1876,0.0366,2.3725-0.1351,3.5008-0.5076
			c0.2288,1.7248,1.0522,3.3156,2.328,4.4985c-0.5076,0.8577-1.7504,2.6431-2.7131,2.8531c-1.0122,0.1108-2.0334,0.1108-3.0457,0
			c-0.4976-0.419-1.1052-0.6865-1.7504-0.7702c-0.5332-0.0016-1.0534,0.1637-1.4878,0.4726
			c-0.9552,0.0079-1.9095-0.0623-2.8531-0.21c-0.8052-0.21-2.118-1.1553-2.9231-1.1027c-0.6307,0.0145-1.2415,0.2223-1.7504,0.5951
			c-0.2451,0.2451-1.1377,0.2451-1.9079,0.3326c-0.7702,0.0875-4.411,1.2253-2.0304,1.7504
			c1.1999,0.3387,2.4523,0.4514,3.6933,0.3326c0.5426,0,1.1027,0.2626,1.9079,0.2626c0.8052,0,1.3478-0.4726,2.5906-0.3326
			c1.2428,0.14,2.363,0.1225,2.363,0.1225c0.4961,0.4446,1.0992,0.7523,1.7504,0.8927c0.8677,0.0977,1.746-0.0228,2.5556-0.3501
			c0.853-0.1672,1.7257-0.2085,2.5906-0.1225c0.4551,0,1.9079,0.5076,2.363,0.2626c1.154-0.8526,2.1495-1.9013,2.9406-3.0982
			c0.4201,0.2976,0.8402,0.5951,1.2603,0.8402c-1.1584,1.5486-2.4917,2.9583-3.9734,4.2009
			c-1.2428,0.6826-1.5753,0.2275-2.6781,0.5601c-0.846,0.1425-1.5909,0.6392-2.0479,1.3653
			c-0.4259,0.5269-1.0732,0.8246-1.7504,0.8052c-0.4376,0-1.3128-0.4726-2.1355-0.21c-0.5771,0.24-1.1052,0.5841-1.5578,1.0152
			c0,0-1.9954,0.21-2.7131,0.21c-0.7177,0-1.5928-0.245-2.4855-0.245c-0.8927,0-1.4878,0.14-3.6058,1.3653
			s0.5951,1.7504,1.9954,1.5753c2.1549-0.2713,4.3226-0.429,6.4939-0.4726c1.0156,0.076,2.0362,0.0466,3.0457-0.0875
			c0.7066-0.1299,1.3518-0.4863,1.8379-1.0152c0.2451-0.2626,1.2253-0.1225,1.4703-0.3501
			c0.2451-0.2276,1.9254-0.4551,2.6781-0.7527c0.7609-0.3739,1.3765-0.9895,1.7504-1.7504c1.0114-0.9198,2.1563-1.6812,3.3957-2.258
			c0.8768-0.5997,1.6763-1.3053,2.3805-2.1005c-0.0875,0.5951,0,1.4003-0.14,1.7504s-0.4551,2.2405-0.8402,2.4505
			c-0.5666,0.6609-0.9365,1.4675-1.0677,2.328c-0.0128,0.6489,0.1637,1.2876,0.5076,1.8379c-0.2079,0.767-0.3774,1.544-0.5076,2.328
			c-0.1575,1.1903-0.8402,1.6104-1.1027,2.3805c-0.2626,0.7702,0,1.4003-0.21,1.9079c-0.4465,1.1484-0.6608,2.374-0.6301,3.6058
			c-0.14,2.3805,2.153-0.8577,2.4155-1.5753c0.2626-0.7177,0.5076-1.5578,0.8927-1.7504c0.5438-0.3452,0.9471-0.8726,1.1377-1.4878
			c0.2976-0.7702-0.3851-2.2405-0.3851-3.0632c0.1015-0.9485,0.289-1.886,0.5601-2.8006c0.4752-0.2928,0.8103-0.767,0.9277-1.3128
			c0.2626-0.9277-0.3326-1.6104-0.3326-1.8554c0.1525-1.0045,0.4106-1.9904,0.7702-2.9406
			c0.5599-0.5904,1.2764-1.0093,2.0654-1.2078c1.2128,0.0613,2.428,0.0613,3.6408,0c-3.0982,8.3493,1.3303,8.997,0.0875,15.8585
			c-0.5426,3.1857,1.9079,7.2641,3.1857,10.7473c0.7913,1.7653,0.8974,3.7619,0.2976,5.6012c0,0,14.5457-3.2732,14.5457-18.5015
			S48.5712,34.7123,48.5712,34.7123c-0.0739-0.4546-0.1731-0.9044-0.2976-1.3478c4.586-1.4528,9.2945-3.3957,25.083-3.3957
			c3.1332,0,4.9711-2.8531,4.446-6.1963C76.9099,17.9786,80.1831,18.4862,79.623,14.1978z"/>
		<path class="st1" d="M45.7706,71.1377l0.21-0.5076c0.5643-1.7728,0.4584-3.6912-0.2976-5.3912
			c-0.3326-0.8927-0.7177-1.7504-1.1377-2.8006c-1.2428-2.7481-2.468-5.6362-2.0479-8.0518
			c0.4026-2.1414,0.2337-4.3511-0.4901-6.4064c-1.0282-2.9727-0.9223-6.2202,0.2976-9.1195c-1.0502,0-2.153,0-3.2207,0
			c-1.2778,0.5076-1.7504,0.9277-1.8729,1.1903c-0.3438,0.9156-0.5845,1.8666-0.7177,2.8356
			c0.01,0.0928,0.0397,0.1824,0.0875,0.2626c0.2949,0.5339,0.3704,1.1617,0.21,1.7504c-0.1738,0.557-0.5164,1.0462-0.9802,1.4003
			c-0.2393,0.8601-0.4091,1.7381-0.5076,2.6256c0.0222,0.3923,0.0928,0.7803,0.21,1.1553c0.2422,0.6482,0.3028,1.3502,0.175,2.0304
			c-0.2183,0.673-0.672,1.2447-1.2778,1.6104c-0.2822,0.349-0.4854,0.7551-0.5951,1.1903
			c-0.0369,0.1455-0.0898,0.2862-0.1575,0.4201c-0.14,0.3501-1.5753,2.7656-2.468,2.5906
			c-0.5076-0.1225-0.4726-0.8927-0.4726-1.1378c-0.0102-1.2603,0.2093-2.5118,0.6476-3.6933
			c0.0753-0.2374,0.1048-0.4868,0.0875-0.7352c-0.0144-0.3716,0.027-0.7434,0.1225-1.1027c0.115-0.3291,0.2739-0.6412,0.4726-0.9277
			c0.3172-0.4183,0.5167-0.9139,0.5776-1.4353c0.14-0.7702,0.2976-1.4878,0.4726-2.258c-0.3616-0.5673-0.5276-1.2373-0.4726-1.9079
			c0.14-0.7177,0.6826-2.2405,1.1903-2.503c0.2879-0.6258,0.4996-1.2841,0.6301-1.9604c0.039-0.1378,0.0683-0.2781,0.0875-0.4201
			c0.0224-0.2388,0.0224-0.4789,0-0.7177v-0.21c-0.5657,0.6147-1.2069,1.156-1.9079,1.6104
			c-0.175,0.0875-0.2976,0.175-0.5076,0.2626c-1.0294,0.46-1.9757,1.087-2.8006,1.8554c-0.4448,0.7626-1.1099,1.3727-1.9079,1.7504
			c-0.4479,0.1525-0.9037,0.2809-1.3653,0.3851c-0.4147,0.0936-0.8237,0.2106-1.2253,0.3501
			c-0.2486,0.126-0.5274,0.1806-0.8052,0.1575c-0.21,0-0.5951,0-0.6476,0.14c-0.5129,0.5843-1.2114,0.9737-1.9779,1.1027h-0.3501
			c-0.913,0.1043-1.8351,0.1043-2.7481,0c-1.9209,0.0133-3.8389,0.1537-5.7413,0.4201c-0.2233,0.0151-0.4455,0.0441-0.6651,0.0875
			c-0.7352,0-2.7656,0-3.0282-0.8577c-0.2626-0.8577,0.5951-1.0502,0.8927-1.2253c2.2055-1.1902,2.8356-1.1902,3.7808-1.1902
			c0.4551,0,0.9277,0.0875,1.3478,0.1225c0.362,0.0812,0.7318,0.1222,1.1027,0.1225c0.6476,0,2.2055-0.1575,2.6431-0.21
			c0.4586-0.4234,0.9853-0.7665,1.5578-1.0152c0.5794-0.143,1.1882-0.1126,1.7504,0.0875l0.4551,0.0875
			c0.5964,0.0508,1.1773-0.2067,1.5403-0.6826c0.5108-0.7668,1.3032-1.3014,2.2055-1.4878c0.3641-0.1323,0.7507-0.1918,1.1377-0.175
			c0.5032,0.0361,1.0052-0.0863,1.4353-0.3501c1.4073-1.1588,2.6655-2.4875,3.7458-3.9559
			c-0.2829-0.1584-0.5521-0.3399-0.8052-0.5426c-0.7572,1.1677-1.739,2.1733-2.8881,2.9581
			c-0.5832,0.1257-1.1903,0.0833-1.7504-0.1225c-0.2328-0.0723-0.474-0.1134-0.7177-0.1225h-0.4201
			c-0.6489-0.046-1.3009-0.0166-1.9429,0.0875c-0.8596,0.3702-1.7994,0.5148-2.7306,0.4201
			c-0.6587-0.1185-1.2676-0.4292-1.7504-0.8927c-0.2976,0-1.2778,0-2.293-0.1225c-0.5304-0.0637-1.0681-0.01-1.5753,0.1575
			c-0.3287,0.105-0.6704,0.164-1.0152,0.175c-0.3741-0.0056-0.7453-0.0646-1.1027-0.175c-0.2535-0.0572-0.5167-0.0572-0.7702,0
			c-1.271,0.1003-2.5498-0.018-3.7808-0.3501c-0.2976,0-1.0152-0.21-1.0152-0.7177c0-0.8402,2.7131-1.4878,3.0982-1.5228
			c0.3851-0.035,0.2976,0,0.4726,0c0.4346,0.0019,0.8666-0.0691,1.2778-0.21c0.5181-0.44,1.1756-0.6819,1.8554-0.6826
			c0.6676-0.0324,1.3333,0.0935,1.9429,0.3676c0.3299,0.1945,0.6826,0.3473,1.0502,0.4551
			c0.8965,0.1502,1.8039,0.2261,2.7131,0.2275c0.4654-0.3534,1.0455-0.5218,1.6279-0.4726c0.5841,0.0338,1.1448,0.241,1.6104,0.5951
			c0.0936,0.0394,0.1775,0.0992,0.2451,0.175c0.9792,0.0658,1.9615,0.0658,2.9406,0c0.5776-0.1225,1.5228-1.0502,2.4505-2.5381
			c-1.1574-1.1204-1.9294-2.579-2.2055-4.1659c-1.0723,0.3212-2.1892,0.4689-3.3082,0.4376c0,0-7.0015-0.3851-7.0015-5.0936
			c0.0504-1.3166,0.5941-2.5662,1.5228-3.5008c-1.4556-0.2001-2.9286,0.219-4.0609,1.1553
			c-0.1645,0.0877-0.3224,0.1871-0.4726,0.2976c-0.3935,0.278-0.9193,0.278-1.3128,0c-0.2402-0.2958-0.2402-0.7194,0-1.0152
			c1.4159-1.6476,3.4813-2.5941,5.6537-2.5906c0.325-0.0058,0.6494,0.0355,0.9627,0.1225c-1.886-1.0432-4.2181-0.8281-5.8813,0.5426
			c-0.3699,0.248-0.7698,0.4481-1.1903,0.5951c-0.175,0-0.7702,0.21-1.0152-0.1225c-0.2451-0.3326,0-0.8052,0-0.9277l0,0
			c1.543-1.767,3.747-2.8185,6.0913-2.9056c1.968,0.0068,3.8199,0.9328,5.0061,2.503c0.9925-0.3478,2.0194-0.5885,3.0632-0.7177l0,0
			c2.8062-0.3235,5.3836,1.5811,5.8988,4.3584c0,0,0,0.2275,0,0.2626c4.2009-0.6301,9.1195,2.083,10.2572,2.8006
			c0.4376-0.8052,1.8729-3.3957,3.9033-6.4939c2.6578-4.1643,5.8867-7.9352,9.5921-11.2024
			c5.0936-4.1134,14.003-9.2945,16.9787-7.3866c0.9277,0.5951,1.1903,1.8729,0.6826,3.6933
			c-0.6872,2.3021-1.0583,4.687-1.1027,7.089c1.1027-0.4201,4.446-1.5753,6.704-0.2976c1.1582,0.7152,1.8962,1.9494,1.9779,3.3082
			c0.2461,1.4215-0.0676,2.8831-0.8752,4.0784c-1.0499,1.6466-1.3907,3.6473-0.9452,5.5487c0.376,1.736-0.02,3.5498-1.0852,4.9711
			c-0.8731,1.0217-2.1572,1.5995-3.5008,1.5753c-14.3881,0-19.6043,1.6454-23.8052,3.0107l-0.9627,0.2976
			c0,0.1575,0.1225,0.4551,0.21,0.9802c2.2169,0.5424,4.2855,1.5708,6.0563,3.0107c2.8531,2.293,6.1964,6.6514,6.1964,14.6332
			c0.164,5.9662-2.593,11.6372-7.3866,15.1933c-2.2002,1.6436-4.705,2.8337-7.3691,3.5008L45.7706,71.1377z M43.0575,38.3005
			l-0.14,0.3851c-1.3333,2.8664-1.4843,6.1426-0.4201,9.1195c0.7558,2.139,0.931,4.4402,0.5076,6.669
			c-0.4201,2.2755,0.8052,5.0761,1.9954,7.7542c0.4201,0.9802,0.8577,1.9079,1.1903,2.8006
			c0.6935,1.6602,0.8586,3.4938,0.4726,5.2511c2.4236-0.714,4.7041-1.8454,6.739-3.3432c4.687-3.4197,7.3749-8.9397,7.1766-14.7382
			c0-7.7542-3.2732-12.0426-6.0213-14.2131c-1.7667-1.3975-3.8057-2.411-5.9863-2.9757h-0.175v-0.1575
			c-0.21-1.0677-0.2976-1.3653-0.2976-1.3653l-0.1225-0.2275l0.2451-0.0875l1.1903-0.3851
			c4.2534-1.2778,9.5046-3.0282,23.9802-3.0282c1.1833,0.0415,2.3219-0.4539,3.0982-1.3478
			c0.9851-1.2766,1.3683-2.9177,1.0502-4.4985c-0.4751-2.0182-0.122-4.1426,0.9802-5.8988
			c0.7749-1.0971,1.0833-2.4567,0.8577-3.7808c-0.0604-1.205-0.7166-2.3011-1.7504-2.9231
			c-2.4155-1.3653-6.5289,0.4726-6.5639,0.4726l-0.3501,0.1225v-0.3501c-0.0943-2.597,0.261-5.1908,1.0502-7.6667
			c0.4201-1.5753,0.2451-2.6256-0.4726-3.0982c-1.1027-0.7177-3.5008-0.2451-7.0015,1.3653
			c-3.3438,1.6534-6.5007,3.6604-9.4171,5.9863c-3.6418,3.2333-6.796,6.9772-9.3645,11.1149
			c-2.4155,3.6583-3.9909,6.669-3.9909,6.669l-0.1225,0.2451l-0.2451-0.1575c0,0-5.8113-3.6583-10.3097-2.8531
			c-0.3501,0-0.4376-0.2451-0.5076-0.6826c-0.4217-2.5522-2.7913-4.3101-5.3562-3.9734c-1.052,0.1638-2.0884,0.4155-3.0982,0.7527
			l-0.2451,0.175l-0.14-0.175c-1.0562-1.5309-2.7961-2.4467-4.656-2.4505c-2.1612,0.0786-4.1993,1.0252-5.6537,2.6256
			c-0.0067,0.0991-0.0067,0.1985,0,0.2976l0,0c0.1336,0.0018,0.2655-0.0282,0.3851-0.0875c0.3727-0.153,0.7301-0.3405,1.0677-0.5601
			c1.7504-1.0152,4.4985-2.7131,7.7192,0.5251l0.2451,0.2451l-0.5776,0.3851l-0.14-0.1225
			c-0.6034-0.4446-1.3334-0.6839-2.083-0.6826c-1.9618,0.0282-3.8272,0.8565-5.1636,2.293c-0.0571,0.122-0.0571,0.2631,0,0.3851
			c0.2113,0.122,0.4714,0.122,0.6826,0c0.1357-0.0697,0.2645-0.1518,0.3851-0.2451c1.3945-1.1225,3.2328-1.5302,4.9711-1.1027
			l0.4551,0.1225l-0.3326,0.3326c-1.0233,0.8897-1.6527,2.1484-1.7504,3.5008c0,4.2534,6.4064,4.586,6.4939,4.586
			c1.1883,0.0509,2.3758-0.1213,3.5008-0.5076l0.3326-0.175v0.3851c0.2253,1.6328,1.0112,3.1363,2.223,4.2534l0.14,0.1575
			l-0.14,0.175c-0.6301,1.0152-1.8554,2.7131-2.9231,2.9757c-1.0621,0.081-2.1297,0.0518-3.1857-0.0875l-0.4201-0.21
			c-0.3704-0.3081-0.8314-0.4863-1.3128-0.5076c-0.4885-0.0114-0.9676,0.136-1.3653,0.4201h-0.0875l0,0
			c-0.9842,0.0103-1.9678-0.0599-2.9406-0.21c-0.4056-0.133-0.7982-0.303-1.1728-0.5076c-0.5302-0.3298-1.129-0.5333-1.7504-0.5951
			c-0.5552,0.0151-1.0901,0.2118-1.5228,0.5601c-0.4828,0.2937-1.048,0.4227-1.6104,0.3676c-0.175,0-0.2976,0-0.4726,0
			c-0.9275,0.1229-1.8141,0.4583-2.5906,0.9802c0.17,0.1001,0.3629,0.1544,0.5601,0.1575c1.1759,0.306,2.3929,0.4241,3.6058,0.3501
			c0.3145-0.0306,0.6319,0.0112,0.9277,0.1225c0.3159,0.108,0.6464,0.167,0.9802,0.175c0.2872-0.0161,0.5704-0.0751,0.8402-0.175
			c0.5652-0.1782,1.161-0.2377,1.7504-0.175c0.7773,0.1169,1.5603,0.1929,2.3455,0.2276h0.0875l0,0
			c0.4255,0.401,0.9519,0.6791,1.5228,0.8052c0.7845,0.088,1.579,0.0046,2.328-0.2451c0.2626-0.2626,0.9802-0.2626,2.3805-0.21
			h0.4201c0.21,0,0.5076,0.0875,0.8577,0.1225c0.4547,0.1315,0.9272,0.1904,1.4003,0.175c1.1355-0.8057,2.0992-1.8291,2.8356-3.0107
			l0.175-0.2275l0.21,0.175c0.3851,0.2976,0.8052,0.5601,1.2253,0.8577l0.2626,0.1575l-0.175,0.2626
			c-1.175,1.5941-2.5452,3.0348-4.0784,4.2884c-0.5277,0.3131-1.1379,0.4596-1.7504,0.4201
			c-0.3427-0.0131-0.6854,0.0282-1.0152,0.1225c-0.7707,0.157-1.4528,0.6014-1.9079,1.2428
			c-0.4756,0.6142-1.2193,0.9599-1.9954,0.9277c-0.2034-0.0105-0.4042-0.0518-0.5951-0.1225c-0.4533-0.1588-0.947-0.1588-1.4003,0
			c-0.5407,0.2165-1.0297,0.5445-1.4353,0.9627l-0.0875,0.0875h-0.0875c0,0-1.9954,0.21-2.7481,0.21
			c-0.3989-0.0166-0.7964-0.0576-1.1903-0.1225c-0.4208-0.0833-0.8488-0.1243-1.2778-0.1225c-0.8577,0-1.4003,0.1225-3.5008,1.3128
			c-0.5951,0.3326-0.6301,0.5601-0.6301,0.5951c0,0.2976,1.3478,0.5951,2.4505,0.4726c0.2289-0.0163,0.4568-0.0455,0.6826-0.0875
			c1.9443-0.2582,3.9025-0.3986,5.8638-0.4201c0.872,0.104,1.7535,0.104,2.6256,0h0.3326c0.6816-0.0838,1.3065-0.4213,1.7504-0.9452
			c0.2897-0.1946,0.6312-0.2983,0.9802-0.2976c0.1803,0.0217,0.3623,0.0217,0.5426,0c0.4414-0.217,0.9139-0.3646,1.4003-0.4376
			l1.3128-0.3326c0.6844-0.3492,1.2461-0.8988,1.6104-1.5753c0.8818-0.9359,1.9331-1.6963,3.0982-2.2405l0.5076-0.2451
			c0.8566-0.5986,1.6382-1.2979,2.328-2.083l0.5951-0.5951l-0.1225,0.8052c0.1301,0.2785,0.1843,0.5864,0.1575,0.8927
			c0.0063,0.2885-0.0231,0.5764-0.0875,0.8577c-0.0417,0.1206-0.0767,0.2433-0.105,0.3676
			c-0.3501,1.3303-0.5601,2.0479-0.8927,2.223c-0.4355,0.6293-0.7283,1.3462-0.8577,2.1005
			c0.0009,0.5818,0.1645,1.1518,0.4726,1.6454v0.0875v0.1225c-0.1971,0.7556-0.355,1.5209-0.4726,2.293
			c-0.1017,0.5979-0.3348,1.1659-0.6826,1.6629c-0.1757,0.2237-0.3065,0.4793-0.3851,0.7527c-0.0329,0.3259-0.0329,0.6543,0,0.9802
			c0.0266,0.3217-0.0214,0.645-0.14,0.9452c-0.4271,1.1162-0.6294,2.306-0.5951,3.5008c0,0.5076,0.0875,0.5951,0.0875,0.5951
			c0.3501,0,1.6103-1.6104,1.7504-2.258c0-0.1225,0.0875-0.2451,0.175-0.4201c0.2626-0.6301,0.4726-1.2778,0.8577-1.4878
			c0.4658-0.3375,0.8195-0.8069,1.0152-1.3478c0.0781-0.5892,0.0182-1.1883-0.175-1.7504c-0.1225-0.4155-0.1931-0.8447-0.21-1.2778
			c0.0894-0.9662,0.2711-1.9216,0.5426-2.8531l0,0l0,0c0.4038-0.293,0.6993-0.7115,0.8402-1.1903
			c0.1246-0.4472,0.048-0.9267-0.21-1.3128c-0.0747-0.1404-0.1167-0.296-0.1225-0.4551c0.1302-1.0639,0.4008-2.1055,0.8052-3.0982
			c0.2451-0.5251,0.9802-0.9802,2.2055-1.4528l0,0l0,0c1.2009,0.07,2.4048,0.07,3.6058,0L43.0575,38.3005z"/>
		<path class="st3" d="M42.76,26.8881c0,0,6.5289-11.6225,11.29-15.911c5.3387-4.8836,17.7139-13.618,15.9635-5.7237
			c-1.7504,8.3668-0.2976,8.6119-0.2976,8.6119s9.277-4.2359,8.3493,0.5951c-0.7527,3.9033-2.0304,3.8683-2.118,6.5814
			c0,3.6058,1.9429,7.5967-6.0738,7.3341c-18.0289-0.5951-22.4049,3.9033-22.6499,3.3957
			C45.9474,29.9621,44.4477,28.3213,42.76,26.8881z"/>
		<path class="st2" d="M44.1953,28.6734c0,0,5.8988-9.6796,7.089-12.0076c0.5423-1.2144,1.3357-2.3002,2.328-3.1857
			c-0.9604,1.1693-1.4862,2.6352-1.4878,4.1484c0,0.9802,2.5556-1.4703,3.6233-3.2557c1.2603-2.0479,3.5008-6.6164,5.0411-7.4741
			c0,0-3.5008,5.1461-3.3082,6.7915S64.1321,8.299,65.83,4.2381c-0.8776,3.4906-2.6937,6.6746-5.2511,9.207
			c1.6576-0.5855,3.2622-1.3117,4.796-2.1705c0,0-1.0502,1.6104-6.774,4.2359c-1.7787,0.714-3.4421,1.6872-4.9361,2.8881
			c-2.4155,1.7504-2.2405,1.1903-3.6933,3.5008c-1.3128,2.153,9.7146-7.1941,19.5518-9.9947l0.175,1.9079
			c0,0-12.1301,2.8881-24.6979,15.3683L44.1953,28.6734z"/>
		<path class="st2" d="M45.9457,30.2313c0,0,7.2991-6.3189,11.6225-8.2618c0,0,3.5008-4.8486,1.1027-0.3501
			c1.7344-0.3163,3.3744-1.0226,4.796-2.0655c1.6644-1.7763,3.5955-3.2821,5.7237-4.4635c-1.2669,1.1297-2.3688,2.432-3.2732,3.8683
			c-0.5076,1.3478,6.879-1.7504,10.2747-5.2511c-1.1647,1.7563-2.614,3.3063-4.2884,4.586
			c-1.7504,0.9802,0.9277,0.9277,2.8531-0.2976c0,0-0.8227,2.328-5.5662,2.2405s-11.325,2.7656-14.003,4.2534
			c0,0,6.704,1.7504,9.032,0.2976c1.1511-0.7112,2.1943-1.5836,3.0982-2.5906L65.83,24.7876c0,0,2.7131,1.5578,6.669-2.503
			c-0.526,0.8453-1.1108,1.6525-1.7504,2.4155c-0.6826,0.7702,3.0982-0.3851,3.6058-2.328c0,0,0.8577,1.7504-1.8554,2.9231
			c-2.7131,1.1728-7.5616,1.0502-13.6705,1.1027c-5.2511,0-3.3957-1.1553-7.3341,1.1377s-4.796,3.7458-4.796,3.7458L45.9457,30.2313
			z"/>
		<path class="st2" d="M44.5804,38.5981c-1.0031,1.8384-1.2958,3.9812-0.8227,6.0213c0.8684,2.2254,1.2039,4.6231,0.9802,7.0015
			c-0.21,2.7131,0,7.0015,1.2603,9.1545c1.2603,2.153,2.9406,6.704,2.2055,7.7717s10.3623-5.0936,10.3623-16.5061
			s-9.8897-15.6659-10.8699-15.5784C46.7158,36.5502,44.5804,38.5981,44.5804,38.5981z"/>
		<path class="st0" d="M43.7577,39.9634c0,0,2.8881,1.2603,7.0015-2.9406s-3.5008-1.4878-3.5008-1.4878l-3.1507,1.8729
			L43.7577,39.9634z"/>
		<path class="st0" d="M43.0575,43.5692c0,0,4.8836,0.8402,9.9597-4.551l1.6279,1.3653c0,0-2.3455,5.6887-10.9574,5.4262
			L43.0575,43.5692z"/>
		<path class="st0" d="M44.2828,48.6453c4.7924,0.0642,9.3701-1.9846,12.5152-5.6012l1.1553,2.468c0,0-6.7915,7.1766-13.8455,4.6385
			L44.2828,48.6453z"/>
		<path class="st0" d="M44.3703,53.9139c0,0,8.7519,1.4353,14.4231-5.0411l0.3851,3.0982
			c-3.9949,3.656-9.5991,4.9809-14.8082,3.5008L44.3703,53.9139z"/>
		<path class="st0" d="M44.7904,59.0076c0,0,5.6887,2.118,13.5304-1.9079l-0.9277,3.1857
			c-3.8465,1.5347-8.0792,1.8165-12.0951,0.8052L44.7904,59.0076z"/>
		<path class="st0" d="M47.6786,64.5563c0,0,3.9909,1.7504,6.3189,0l-2.7481,2.8006l-3.2732,1.7504L47.6786,64.5563z"/>
		<path class="st1" d="M22.3505,22.1795c0-0.3851,0.4551-0.7177,1.0152-0.7177s1.0152,0.2976,1.0152,0.7177
			s-0.4551,0.7177-1.0152,0.7177S22.3505,22.5646,22.3505,22.1795z"/>
	</g>
</g>
</svg>
