<svg xmlns="http://www.w3.org/2000/svg" viewBox="0 0 45.77 40.64"><defs><style>.cls-1{fill:#f7b916;}.cls-2{fill:#fff;}.cls-3{fill:#010101;}.cls-4{fill:#99969b;}</style></defs><title>we</title><g id="Layer_2" data-name="Layer 2"><g id="Layer_1-2" data-name="Layer 1"><path class="cls-1" d="M.21,21.86c.9-5.73,10.72-8.9,21.92-7.13s19.53,7.83,18.61,13.55S30,37.18,18.83,35.41-.68,27.58.21,21.86Z"/><path class="cls-2" d="M25,36.06a41.77,41.77,0,0,1-6.13-.48A32.78,32.78,0,0,1,4.91,30.24C1.35,27.65-.37,24.67.07,21.83s3-5.11,7.2-6.47a33,33,0,0,1,14.88-.78,33.13,33.13,0,0,1,13.91,5.34c3.57,2.59,5.29,5.57,4.85,8.41s-3,5.14-7.2,6.49A28.81,28.81,0,0,1,25,36.06ZM.21,21.86l.15,0c-.44,2.69,1.23,5.58,4.72,8.1a32.44,32.44,0,0,0,13.8,5.26,32.66,32.66,0,0,0,14.73-.76c4.08-1.33,6.57-3.53,7-6.25.89-5.62-7.42-11.63-18.5-13.38a32.71,32.71,0,0,0-14.74.75C3.27,17,.79,19.19.36,21.88Z"/><path class="cls-3" d="M45.49,8.11c-.46-3.54-5-1.5-5-1.5a13,13,0,0,1,.61-4.32c1.19-4.46-5.65-1.09-9.84,2.28s-7.73,10.18-7.73,10.18-3.33-2.11-6-1.65c-.22.05-.05-2.66-3.32-2.66a11.78,11.78,0,0,0-1.82.43A3.43,3.43,0,0,0,9.64,9.4,4.76,4.76,0,0,0,6.3,11s-.32.58.38.36S9.33,9,11.53,11.24l-.07,0a2.16,2.16,0,0,0-1.29-.42,4.26,4.26,0,0,0-3.1,1.39c-.19.36.1.63.58.41a3.42,3.42,0,0,1,2.94-.75,3,3,0,0,0-1,2.13c0,2.59,3.85,2.76,3.85,2.76a5.81,5.81,0,0,0,2-.29,4.27,4.27,0,0,0,1.33,2.57c-.29.49-1,1.51-1.55,1.63a8,8,0,0,1-1.74,0,1.94,1.94,0,0,0-1-.44,1.46,1.46,0,0,0-.85.27A10,10,0,0,1,10,20.38c-.46-.12-1.21-.66-1.67-.63a1.76,1.76,0,0,0-1,.34c-.14.14-.65.14-1.09.19s-2.52.7-1.16,1a5.75,5.75,0,0,0,2.11.19c.31,0,.63.15,1.09.15s.77-.27,1.48-.19,1.35.07,1.35.07a2.19,2.19,0,0,0,1,.51,3,3,0,0,0,1.46-.2,5.08,5.08,0,0,1,1.48-.07c.26,0,1.09.29,1.35.15a7,7,0,0,0,1.68-1.77c.24.17.48.34.72.48A14.35,14.35,0,0,1,16.53,23c-.71.39-.9.13-1.53.32a1.72,1.72,0,0,0-1.17.78,1.24,1.24,0,0,1-1,.46c-.25,0-.75-.27-1.22-.12a2.91,2.91,0,0,0-.89.58s-1.14.12-1.55.12S8.26,25,7.75,25s-.85.08-2.06.78.34,1,1.14.9a35.39,35.39,0,0,1,3.71-.27,8.44,8.44,0,0,0,1.74-.05,1.89,1.89,0,0,0,1.05-.58c.14-.15.7-.07.84-.2s1.1-.26,1.53-.43a2.19,2.19,0,0,0,1-1,7.73,7.73,0,0,1,1.94-1.29A7.39,7.39,0,0,0,20,21.66c-.05.34,0,.8-.08,1s-.26,1.28-.48,1.4a2.66,2.66,0,0,0-.61,1.33,1.91,1.91,0,0,0,.29,1.05,13.59,13.59,0,0,0-.29,1.33c-.09.68-.48.92-.63,1.36s0,.8-.12,1.09a5.32,5.32,0,0,0-.36,2.06c-.08,1.36,1.23-.49,1.38-.9s.29-.89.51-1a1.55,1.55,0,0,0,.65-.85c.17-.44-.22-1.28-.22-1.75a9,9,0,0,1,.32-1.6,1.17,1.17,0,0,0,.53-.75c.15-.53-.19-.92-.19-1.06a8.24,8.24,0,0,1,.44-1.68A2.45,2.45,0,0,1,22.32,22a20.62,20.62,0,0,0,2.08,0c-1.77,4.77.76,5.14.05,9.06-.31,1.82,1.09,4.15,1.82,6.14a4.45,4.45,0,0,1,.17,3.2s8.31-1.87,8.31-10.57-7-10-7-10a7,7,0,0,0-.17-.77c2.62-.83,5.31-1.94,14.33-1.94,1.79,0,2.84-1.63,2.54-3.54C43.94,10.27,45.81,10.56,45.49,8.11Z"/><path class="cls-2" d="M26.15,40.64l.12-.29a4.34,4.34,0,0,0-.17-3.08c-.19-.51-.41-1-.65-1.6-.71-1.57-1.41-3.22-1.17-4.6A7.08,7.08,0,0,0,24,27.41a7.29,7.29,0,0,1,.17-5.21c-.6,0-1.23,0-1.84,0-.73.29-1,.53-1.07.68a7.52,7.52,0,0,0-.41,1.62.37.37,0,0,0,.05.15,1.34,1.34,0,0,1,.12,1,1.61,1.61,0,0,1-.56.8,9.52,9.52,0,0,0-.29,1.5,2.73,2.73,0,0,0,.12.66,2.17,2.17,0,0,1,.1,1.16,1.68,1.68,0,0,1-.73.92,1.77,1.77,0,0,0-.34.68,1.17,1.17,0,0,1-.09.24c-.08.2-.9,1.58-1.41,1.48-.29-.07-.27-.51-.27-.65a5.93,5.93,0,0,1,.37-2.11,1.13,1.13,0,0,0,.05-.42,2.13,2.13,0,0,1,.07-.63,2.21,2.21,0,0,1,.27-.53,1.68,1.68,0,0,0,.33-.82c.08-.44.17-.85.27-1.29a1.76,1.76,0,0,1-.27-1.09c.08-.41.39-1.28.68-1.43A4.9,4.9,0,0,0,19.68,23a1.73,1.73,0,0,0,.05-.24,2.19,2.19,0,0,0,0-.41v-.12a5.68,5.68,0,0,1-1.09.92c-.1.05-.17.1-.29.15a5.85,5.85,0,0,0-1.6,1.06,2.5,2.5,0,0,1-1.09,1,7.63,7.63,0,0,1-.78.22,6.49,6.49,0,0,0-.7.2.86.86,0,0,1-.46.09c-.12,0-.34,0-.37.08a1.93,1.93,0,0,1-1.13.63l-.2,0a6.92,6.92,0,0,1-1.57,0,24.89,24.89,0,0,0-3.28.24,3,3,0,0,0-.38.05c-.42,0-1.58,0-1.73-.49s.34-.6.51-.7C6.83,25,7.19,25,7.73,25c.26,0,.53.05.77.07a2.89,2.89,0,0,0,.63.07c.37,0,1.26-.09,1.51-.12a3.18,3.18,0,0,1,.89-.58,1.74,1.74,0,0,1,1,.05l.26.05a1,1,0,0,0,.88-.39,2,2,0,0,1,1.26-.85,1.69,1.69,0,0,1,.65-.1A1.38,1.38,0,0,0,16.4,23a12.6,12.6,0,0,0,2.14-2.26,3.37,3.37,0,0,1-.46-.31,6,6,0,0,1-1.65,1.69,1.8,1.8,0,0,1-1-.07,1.58,1.58,0,0,0-.41-.07h-.24a4.81,4.81,0,0,0-1.11.05,3.14,3.14,0,0,1-1.56.24,1.94,1.94,0,0,1-1-.51c-.17,0-.73,0-1.31-.07a2.08,2.08,0,0,0-.9.09,2.13,2.13,0,0,1-.58.1,2.25,2.25,0,0,1-.63-.1,1,1,0,0,0-.44,0,6.37,6.37,0,0,1-2.16-.2c-.17,0-.58-.12-.58-.41,0-.48,1.55-.85,1.77-.87s.17,0,.27,0a2.22,2.22,0,0,0,.73-.12,1.64,1.64,0,0,1,1.06-.39A2.42,2.42,0,0,1,9.45,20a2.65,2.65,0,0,0,.6.26,9.47,9.47,0,0,0,1.55.13,1.35,1.35,0,0,1,.93-.27,1.68,1.68,0,0,1,.92.34.39.39,0,0,1,.14.1,12.51,12.51,0,0,0,1.68,0c.33-.07.87-.6,1.4-1.45a4.35,4.35,0,0,1-1.26-2.38,6,6,0,0,1-1.89.25s-4-.22-4-2.91a3,3,0,0,1,.87-2,3,3,0,0,0-2.32.66,2.21,2.21,0,0,0-.27.17.65.65,0,0,1-.75,0,.46.46,0,0,1,0-.58,4.25,4.25,0,0,1,3.23-1.48,1.93,1.93,0,0,1,.55.07,3,3,0,0,0-3.36.31,3,3,0,0,1-.68.34c-.1,0-.44.12-.58-.07s0-.46,0-.53l0,0A4.86,4.86,0,0,1,9.69,9.3a3.6,3.6,0,0,1,2.86,1.43,8.42,8.42,0,0,1,1.75-.41h0a3.07,3.07,0,0,1,3.37,2.49s0,.13,0,.15c2.4-.36,5.21,1.19,5.86,1.6.25-.46,1.07-1.94,2.23-3.71a30.18,30.18,0,0,1,5.48-6.4c2.91-2.35,8-5.31,9.7-4.22.53.34.68,1.07.39,2.11a15.14,15.14,0,0,0-.63,4.05c.63-.24,2.54-.9,3.83-.17a2.39,2.39,0,0,1,1.13,1.89,3.19,3.19,0,0,1-.5,2.33,4.14,4.14,0,0,0-.54,3.17A3.5,3.5,0,0,1,44,16.45a2.57,2.57,0,0,1-2,.9c-8.22,0-11.2.94-13.6,1.72l-.55.17c0,.09.07.26.12.56a8.8,8.8,0,0,1,3.46,1.72c1.63,1.31,3.54,3.8,3.54,8.36a10.45,10.45,0,0,1-4.22,8.68,11.84,11.84,0,0,1-4.21,2ZM24.6,21.88l-.08.22a6.87,6.87,0,0,0-.24,5.21,7.33,7.33,0,0,1,.29,3.81c-.24,1.3.46,2.9,1.14,4.43.24.56.49,1.09.68,1.6a5,5,0,0,1,.27,3,12.41,12.41,0,0,0,3.85-1.91,10,10,0,0,0,4.1-8.42c0-4.43-1.87-6.88-3.44-8.12A9.25,9.25,0,0,0,27.75,20l-.1,0,0-.09c-.12-.61-.17-.78-.17-.78L27.41,19l.14-.05.68-.22C30.66,18,33.66,17,41.93,17a2.24,2.24,0,0,0,1.77-.77,3.18,3.18,0,0,0,.6-2.57,4.43,4.43,0,0,1,.56-3.37,2.9,2.9,0,0,0,.49-2.16,2.07,2.07,0,0,0-1-1.67c-1.38-.78-3.73.27-3.75.27l-.2.07,0-.2A12.88,12.88,0,0,1,41,2.22c.24-.9.14-1.5-.27-1.77-.63-.41-2-.14-4,.78a29.84,29.84,0,0,0-5.38,3.42A28.81,28.81,0,0,0,26,11c-1.38,2.09-2.28,3.81-2.28,3.81l-.07.14-.14-.09s-3.32-2.09-5.89-1.63c-.2,0-.25-.14-.29-.39a2.74,2.74,0,0,0-3.06-2.27A10.87,10.87,0,0,0,12.5,11l-.14.1-.08-.1a3.24,3.24,0,0,0-2.66-1.4,4.59,4.59,0,0,0-3.23,1.5,1.28,1.28,0,0,0,0,.17h0a.48.48,0,0,0,.22-.05,3.68,3.68,0,0,0,.61-.32c1-.58,2.57-1.55,4.41.3l.14.14-.33.22-.08-.07a2,2,0,0,0-1.19-.39,4.11,4.11,0,0,0-2.95,1.31.26.26,0,0,0,0,.22.39.39,0,0,0,.39,0,1.42,1.42,0,0,0,.22-.14,3.28,3.28,0,0,1,2.84-.63l.26.07-.19.19a2.93,2.93,0,0,0-1,2c0,2.43,3.66,2.62,3.71,2.62a5.44,5.44,0,0,0,2-.29l.19-.1,0,.22A4.06,4.06,0,0,0,16.91,19l.08.09-.08.1c-.36.58-1.06,1.55-1.67,1.7a8.8,8.8,0,0,1-1.82-.05l-.24-.12a1.26,1.26,0,0,0-.75-.29,1.29,1.29,0,0,0-.78.24l-.05,0h0a10.3,10.3,0,0,1-1.68-.12,4,4,0,0,1-.67-.29,2.33,2.33,0,0,0-1-.34,1.45,1.45,0,0,0-.87.32,1.49,1.49,0,0,1-.92.21c-.1,0-.17,0-.27,0a3.47,3.47,0,0,0-1.48.56.65.65,0,0,0,.32.09,6.59,6.59,0,0,0,2.06.2,1.18,1.18,0,0,1,.53.07,1.87,1.87,0,0,0,.56.1,1.65,1.65,0,0,0,.48-.1,2.46,2.46,0,0,1,1-.1A12.8,12.8,0,0,0,11,21.4h.05l0,0a1.85,1.85,0,0,0,.87.46,3.11,3.11,0,0,0,1.33-.14c.15-.15.56-.15,1.36-.12h.24c.12,0,.29.05.49.07a2.58,2.58,0,0,0,.8.1,6,6,0,0,0,1.62-1.72l.1-.13.12.1c.22.17.46.32.7.49l.15.09-.1.15a13.55,13.55,0,0,1-2.33,2.45,1.74,1.74,0,0,1-1,.24,1.85,1.85,0,0,0-.58.07,1.77,1.77,0,0,0-1.09.71,1.37,1.37,0,0,1-1.14.53,1.15,1.15,0,0,1-.34-.07,1.21,1.21,0,0,0-.8,0,2.37,2.37,0,0,0-.82.55l-.05.05h-.05s-1.14.12-1.57.12a5.61,5.61,0,0,1-.68-.07,3.68,3.68,0,0,0-.73-.07c-.49,0-.8.07-2,.75-.34.19-.36.32-.36.34,0,.17.77.34,1.4.27a3.47,3.47,0,0,0,.39-.05,27.77,27.77,0,0,1,3.35-.24,6.34,6.34,0,0,0,1.5,0l.19,0a1.56,1.56,0,0,0,1-.54,1,1,0,0,1,.56-.17,1.3,1.3,0,0,0,.31,0,2.73,2.73,0,0,1,.8-.25l.75-.19a2.16,2.16,0,0,0,.92-.9A5.81,5.81,0,0,1,18.13,23l.29-.14a7.46,7.46,0,0,0,1.33-1.19l.34-.34-.07.46a1,1,0,0,1,.09.51,2,2,0,0,1-.05.49A2,2,0,0,0,20,23c-.2.76-.32,1.17-.51,1.27A3,3,0,0,0,19,25.47a1.78,1.78,0,0,0,.27.94l0,.05,0,.07A12.87,12.87,0,0,0,19,27.84a2.34,2.34,0,0,1-.39.95,1.26,1.26,0,0,0-.22.43,2.78,2.78,0,0,0,0,.56,1.2,1.2,0,0,1-.08.54,5.18,5.18,0,0,0-.34,2c0,.29.05.34.05.34.2,0,.92-.92,1-1.29,0-.07.05-.14.1-.24.15-.36.27-.73.49-.85a1.64,1.64,0,0,0,.58-.77,2.19,2.19,0,0,0-.1-1,3,3,0,0,1-.12-.73,8.69,8.69,0,0,1,.31-1.63l0,0,0,0a1.29,1.29,0,0,0,.48-.68.91.91,0,0,0-.12-.75.6.6,0,0,1-.07-.26,6.92,6.92,0,0,1,.46-1.77c.14-.3.56-.56,1.26-.83l0,0h0a17.7,17.7,0,0,0,2.06,0Z"/><path class="cls-4" d="M24.43,15.36s3.73-6.64,6.45-9.09C33.93,3.48,41-1.51,40,3c-1,4.78-.17,4.92-.17,4.92s5.3-2.42,4.77.34c-.43,2.23-1.16,2.21-1.21,3.76,0,2.06,1.11,4.34-3.47,4.19-10.3-.34-12.8,2.23-12.94,1.94A15,15,0,0,0,24.43,15.36Z"/><path class="cls-3" d="M25.25,16.38s3.37-5.53,4.05-6.86A5.38,5.38,0,0,1,30.63,7.7a3.74,3.74,0,0,0-.85,2.37c0,.56,1.46-.84,2.07-1.86.72-1.17,2-3.78,2.88-4.27,0,0-2,2.94-1.89,3.88s3.8-3.08,4.77-5.4a11.27,11.27,0,0,1-3,5.26,17.63,17.63,0,0,0,2.74-1.24s-.6.92-3.87,2.42a11.1,11.1,0,0,0-2.82,1.65c-1.38,1-1.28.68-2.11,2C27.8,13.74,34.1,8.4,39.72,6.8l.1,1.09s-6.93,1.65-14.11,8.78Z"/><path class="cls-3" d="M26.25,17.27s4.17-3.61,6.64-4.72c0,0,2-2.77.63-.2a6.65,6.65,0,0,0,2.74-1.18,13.38,13.38,0,0,1,3.27-2.55,10.35,10.35,0,0,0-1.87,2.21c-.29.77,3.93-1,5.87-3a10.83,10.83,0,0,1-2.45,2.62c-1,.56.53.53,1.63-.17,0,0-.47,1.33-3.18,1.28s-6.47,1.58-8,2.43c0,0,3.83,1,5.16.17a8.1,8.1,0,0,0,1.77-1.48l-.85,1.48s1.55.89,3.81-1.43a12.1,12.1,0,0,1-1,1.38c-.39.44,1.77-.22,2.06-1.33,0,0,.49,1-1.06,1.67s-4.32.6-7.81.63c-3,0-1.94-.66-4.19.65s-2.74,2.14-2.74,2.14Z"/><path class="cls-3" d="M25.47,22.05A4.88,4.88,0,0,0,25,25.49a8.75,8.75,0,0,1,.56,4c-.12,1.55,0,4,.72,5.23s1.68,3.83,1.26,4.44,5.92-2.91,5.92-9.43-5.65-8.95-6.21-8.9S25.47,22.05,25.47,22.05Z"/><path class="cls-1" d="M25,22.83s1.65.72,4-1.68-2-.85-2-.85L25.2,21.37Z"/><path class="cls-1" d="M24.6,24.89s2.79.48,5.69-2.6l.93.78s-1.34,3.25-6.26,3.1Z"/><path class="cls-1" d="M25.3,27.79a9.31,9.31,0,0,0,7.15-3.2L33.11,26s-3.88,4.1-7.91,2.65Z"/><path class="cls-1" d="M25.35,30.8s5,.82,8.24-2.88l.22,1.77a8.92,8.92,0,0,1-8.46,2Z"/><path class="cls-1" d="M25.59,33.71s3.25,1.21,7.73-1.09l-.53,1.82a11.24,11.24,0,0,1-6.91.46Z"/><path class="cls-1" d="M27.24,36.88s2.28,1,3.61,0l-1.57,1.6-1.87,1Z"/><path class="cls-2" d="M12.77,12.67c0-.22.26-.41.58-.41s.58.17.58.41-.26.41-.58.41S12.77,12.89,12.77,12.67Z"/></g></g></svg>